<svg fill="none" stroke-linecap="square" stroke-miterlimit="10" width="834" height="516" xmlns="http://www.w3.org/2000/svg"><path fill="#fff" d="M0 0h834v516H0V0z"/><path fill="#fff" d="M0 0h834v516H0V0z"/><path stroke="#333" stroke-linecap="butt" d="M75.5 469.5h733"/><path stroke="#ccc" stroke-linecap="butt" d="M75.5 349.5h733m-733-119h733m-733-120h733"/><clipPath id="a"><path d="M75.8 110.7h732.4v358.5H75.8V110.7z"/></clipPath><path clip-path="url(#a)" d="M222 469h-70V167a2 2 0 012-2h66a2 2 0 012 2z"/><path fill="#c00" clip-path="url(#a)" d="M222 469h-70V167a2 2 0 012-2h66a2 2 0 012 2z"/><path clip-path="url(#a)" d="M441 469h-70V147a2 2 0 012-2h66a2 2 0 012 2z"/><path fill="#c00" clip-path="url(#a)" d="M441 469h-70V147a2 2 0 012-2h66a2 2 0 012 2z"/><path clip-path="url(#a)" d="M660 469h-70V136a2 2 0 012-2h66a2 2 0 012 2z"/><path fill="#c00" clip-path="url(#a)" d="M660 469h-70V136a2 2 0 012-2h66a2 2 0 012 2z"/><path clip-path="url(#a)" d="M293 469h-70V166a2 2 0 012-2h66a2 2 0 012 2z"/><path fill="#3d85c6" clip-path="url(#a)" d="M293 469h-70V166a2 2 0 012-2h66a2 2 0 012 2z"/><path clip-path="url(#a)" d="M512 469h-70V138a2 2 0 012-2h66a2 2 0 012 2z"/><path fill="#3d85c6" clip-path="url(#a)" d="M512 469h-70V138a2 2 0 012-2h66a2 2 0 012 2z"/><path clip-path="url(#a)" d="M731 469h-70V158a2 2 0 012-2h66a2 2 0 012 2z"/><path fill="#3d85c6" clip-path="url(#a)" d="M731 469h-70V158a2 2 0 012-2h66a2 2 0 012 2z"/><path stroke="#c00" stroke-width="3" stroke-linejoin="round" stroke-linecap="round" d="M170.39 179.647h-2.437q.031 1.235.594 1.907.578.671 1.625.671.734 0 1.375-.218l.125 1.015q-.75.188-1.516.188-1.578 0-2.484-.922-.906-.938-.938-2.64h-1.125v-.782h1.125v-.875h-1.125v-.797h1.125q.063-1.656.97-2.562.905-.922 2.437-.922.687 0 1.53.203l-.124 1.031q-.688-.219-1.39-.219-1.032 0-1.595.641-.562.64-.609 1.828h2.438v.797h-2.438v.875h2.438v.781zm8.438 3.438h-6.062v-.844l3.203-3.562q.703-.797.969-1.297.28-.516.28-1.047 0-.735-.437-1.188-.437-.468-1.172-.468-.875 0-1.359.5t-.484 1.39h-1.172q0-1.281.812-2.062.828-.797 2.203-.797 1.297 0 2.047.687.75.672.75 1.797 0 1.36-1.75 3.25l-2.469 2.688h4.641v.953zm1.484-4.64l.47-4.61h4.734v1.094h-3.735l-.281 2.515q.672-.39 1.531-.39 1.266 0 2 .828.75.828.75 2.25 0 1.437-.765 2.265-.766.813-2.157.813-1.218 0-2-.672-.78-.688-.875-1.89h1.11q.11.796.562 1.202.453.407 1.203.407.813 0 1.282-.563.468-.562.468-1.547 0-.922-.5-1.484-.5-.563-1.343-.563-.766 0-1.203.344l-.313.25-.938-.25zm6.532 6.484l-.656-.454q.593-.843.625-1.718v-1.063h1.14v.922q0 .64-.312 1.281-.313.641-.797 1.032zm7.875-4.954h1.297v.97h-1.297v2.14h-1.172v-2.14h-4.203v-.704l4.125-6.406h1.25v6.14zm-4.047 0h2.875v-4.53l-.14.265-2.735 4.265zm10.703-6.14v1h-.219q-1.36.015-2.172.812-.812.782-.953 2.22.735-.845 2-.845 1.203 0 1.922.86.719.843.719 2.187 0 1.422-.781 2.281-.766.86-2.078.86-1.329 0-2.157-1.016-.812-1.015-.812-2.625v-.453q0-2.547 1.078-3.89 1.094-1.36 3.25-1.391h.203zm-1.547 4.172q-.594 0-1.11.36-.5.358-.702.905v.422q0 1.156.515 1.86.516.687 1.281.687.797 0 1.25-.578.454-.594.454-1.531 0-.953-.47-1.532-.452-.593-1.218-.593zm8.547-4.172v1h-.219q-1.36.015-2.172.812-.812.782-.953 2.22.735-.845 2-.845 1.203 0 1.922.86.719.843.719 2.187 0 1.422-.781 2.281-.766.86-2.078.86-1.329 0-2.157-1.016-.812-1.015-.812-2.625v-.453q0-2.547 1.078-3.89 1.094-1.36 3.25-1.391h.203zm-1.547 4.172q-.594 0-1.11.36-.5.358-.702.905v.422q0 1.156.515 1.86.516.687 1.281.687.797 0 1.25-.578.454-.594.454-1.531 0-.953-.47-1.532-.452-.593-1.218-.593z"/><path fill="#fff" d="M170.39 179.647h-2.437q.031 1.235.594 1.907.578.671 1.625.671.734 0 1.375-.218l.125 1.015q-.75.188-1.516.188-1.578 0-2.484-.922-.906-.938-.938-2.64h-1.125v-.782h1.125v-.875h-1.125v-.797h1.125q.063-1.656.97-2.562.905-.922 2.437-.922.687 0 1.53.203l-.124 1.031q-.688-.219-1.39-.219-1.032 0-1.595.641-.562.64-.609 1.828h2.438v.797h-2.438v.875h2.438v.781zm8.438 3.438h-6.062v-.844l3.203-3.562q.703-.797.969-1.297.28-.516.28-1.047 0-.735-.437-1.188-.437-.468-1.172-.468-.875 0-1.359.5t-.484 1.39h-1.172q0-1.281.812-2.062.828-.797 2.203-.797 1.297 0 2.047.687.75.672.75 1.797 0 1.36-1.75 3.25l-2.469 2.688h4.641v.953zm1.484-4.64l.47-4.61h4.734v1.094h-3.735l-.281 2.515q.672-.39 1.531-.39 1.266 0 2 .828.75.828.75 2.25 0 1.437-.765 2.265-.766.813-2.157.813-1.218 0-2-.672-.78-.688-.875-1.89h1.11q.11.796.562 1.202.453.407 1.203.407.813 0 1.282-.563.468-.562.468-1.547 0-.922-.5-1.484-.5-.563-1.343-.563-.766 0-1.203.344l-.313.25-.938-.25zm6.532 6.484l-.656-.454q.593-.843.625-1.718v-1.063h1.14v.922q0 .64-.312 1.281-.313.641-.797 1.032zm7.875-4.954h1.297v.97h-1.297v2.14h-1.172v-2.14h-4.203v-.704l4.125-6.406h1.25v6.14zm-4.047 0h2.875v-4.53l-.14.265-2.735 4.265zm10.703-6.14v1h-.219q-1.36.015-2.172.812-.812.782-.953 2.22.735-.845 2-.845 1.203 0 1.922.86.719.843.719 2.187 0 1.422-.781 2.281-.766.86-2.078.86-1.329 0-2.157-1.016-.812-1.015-.812-2.625v-.453q0-2.547 1.078-3.89 1.094-1.36 3.25-1.391h.203zm-1.547 4.172q-.594 0-1.11.36-.5.358-.702.905v.422q0 1.156.515 1.86.516.687 1.281.687.797 0 1.25-.578.454-.594.454-1.531 0-.953-.47-1.532-.452-.593-1.218-.593zm8.547-4.172v1h-.219q-1.36.015-2.172.812-.812.782-.953 2.22.735-.845 2-.845 1.203 0 1.922.86.719.843.719 2.187 0 1.422-.781 2.281-.766.86-2.078.86-1.329 0-2.157-1.016-.812-1.015-.812-2.625v-.453q0-2.547 1.078-3.89 1.094-1.36 3.25-1.391h.203zm-1.547 4.172q-.594 0-1.11.36-.5.358-.702.905v.422q0 1.156.515 1.86.516.687 1.281.687.797 0 1.25-.578.454-.594.454-1.531 0-.953-.47-1.532-.452-.593-1.218-.593z"/><path stroke="#c00" stroke-width="3" stroke-linejoin="round" stroke-linecap="round" d="M389.39 160.18h-2.437q.031 1.234.594 1.906.578.672 1.625.672.734 0 1.375-.22l.125 1.017q-.75.187-1.516.187-1.578 0-2.484-.922-.906-.937-.938-2.64h-1.125v-.782h1.125v-.875h-1.125v-.797h1.125q.063-1.656.97-2.562.905-.922 2.437-.922.687 0 1.53.203l-.124 1.031q-.688-.218-1.39-.218-1.032 0-1.594.64-.563.64-.61 1.828h2.438v.797h-2.438v.875h2.438v.782zm8.438 3.437h-6.062v-.844l3.203-3.562q.703-.797.969-1.297.28-.516.28-1.047 0-.734-.437-1.187-.437-.47-1.172-.47-.875 0-1.359.5t-.484 1.391h-1.172q0-1.28.812-2.062.828-.797 2.203-.797 1.297 0 2.047.688.75.671.75 1.796 0 1.36-1.75 3.25l-2.469 2.688h4.641v.953zm6.906-8.578l-3.828 8.578h-1.234l3.812-8.281h-5v-.969h6.25v.672zm1.11 10.422l-.656-.453q.593-.844.625-1.72v-1.062h1.14v.922q0 .64-.312 1.282-.313.64-.797 1.03zm8.719-5.781q0 2.062-.704 3.062-.703 1-2.203 1-1.484 0-2.203-.969-.703-.984-.719-2.937v-1.563q0-2.047.704-3.031.703-1 2.203-1t2.203.969q.703.953.719 2.937v1.532zm-1.172-1.61q0-1.5-.422-2.172-.422-.687-1.328-.687-.891 0-1.313.687-.406.672-.422 2.078v1.875q0 1.5.438 2.22.437.718 1.312.718t1.297-.672q.422-.672.438-2.125v-1.922zm6.875 1.485q-.36.437-.875.703-.516.265-1.125.265-.797 0-1.391-.39-.594-.391-.922-1.11-.312-.718-.312-1.578 0-.922.343-1.656.36-.75 1-1.14.657-.407 1.516-.407 1.375 0 2.156 1.031.797 1.032.797 2.797v.344q0 2.703-1.078 3.937-1.063 1.235-3.203 1.266h-.235v-.984h.25q1.454-.032 2.235-.75.781-.735.844-2.328zm-1.813 0q.594 0 1.094-.36.5-.36.734-.89v-.485q0-1.14-.515-1.86-.5-.734-1.266-.734t-1.234.594q-.47.594-.47 1.563 0 .953.454 1.562.453.61 1.203.61zm4.86-.579l.468-4.609h4.735v1.094h-3.735l-.281 2.515q.672-.39 1.531-.39 1.266 0 2 .828.75.828.75 2.25 0 1.437-.765 2.266-.766.812-2.157.812-1.218 0-2-.672-.78-.687-.875-1.89h1.11q.11.796.562 1.203.453.406 1.203.406.813 0 1.282-.563.468-.562.468-1.546 0-.922-.5-1.485-.5-.562-1.343-.562-.766 0-1.204.343l-.312.25-.938-.25z"/><path fill="#fff" d="M389.39 160.18h-2.437q.031 1.234.594 1.906.578.672 1.625.672.734 0 1.375-.22l.125 1.017q-.75.187-1.516.187-1.578 0-2.484-.922-.906-.937-.938-2.64h-1.125v-.782h1.125v-.875h-1.125v-.797h1.125q.063-1.656.97-2.562.905-.922 2.437-.922.687 0 1.53.203l-.124 1.031q-.688-.218-1.39-.218-1.032 0-1.594.64-.563.64-.61 1.828h2.438v.797h-2.438v.875h2.438v.782zm8.438 3.437h-6.062v-.844l3.203-3.562q.703-.797.969-1.297.28-.516.28-1.047 0-.734-.437-1.187-.437-.47-1.172-.47-.875 0-1.359.5t-.484 1.391h-1.172q0-1.28.812-2.062.828-.797 2.203-.797 1.297 0 2.047.688.75.671.75 1.796 0 1.36-1.75 3.25l-2.469 2.688h4.641v.953zm6.906-8.578l-3.828 8.578h-1.234l3.812-8.281h-5v-.969h6.25v.672zm1.11 10.422l-.656-.453q.593-.844.625-1.72v-1.062h1.14v.922q0 .64-.312 1.282-.313.64-.797 1.03zm8.719-5.781q0 2.062-.704 3.062-.703 1-2.203 1-1.484 0-2.203-.969-.703-.984-.719-2.937v-1.563q0-2.047.704-3.031.703-1 2.203-1t2.203.969q.703.953.719 2.937v1.532zm-1.172-1.61q0-1.5-.422-2.172-.422-.687-1.328-.687-.891 0-1.313.687-.406.672-.422 2.078v1.875q0 1.5.438 2.22.437.718 1.312.718t1.297-.672q.422-.672.438-2.125v-1.922zm6.875 1.485q-.36.437-.875.703-.516.265-1.125.265-.797 0-1.391-.39-.594-.391-.922-1.11-.312-.718-.312-1.578 0-.922.343-1.656.36-.75 1-1.14.657-.407 1.516-.407 1.375 0 2.156 1.031.797 1.032.797 2.797v.344q0 2.703-1.078 3.937-1.063 1.235-3.203 1.266h-.235v-.984h.25q1.454-.032 2.235-.75.781-.735.844-2.328zm-1.813 0q.594 0 1.094-.36.5-.36.734-.89v-.485q0-1.14-.515-1.86-.5-.734-1.266-.734t-1.234.594q-.47.594-.47 1.563 0 .953.454 1.562.453.61 1.203.61zm4.86-.579l.468-4.609h4.735v1.094h-3.735l-.281 2.515q.672-.39 1.531-.39 1.266 0 2 .828.75.828.75 2.25 0 1.437-.765 2.266-.766.812-2.157.812-1.218 0-2-.672-.78-.687-.875-1.89h1.11q.11.796.562 1.203.453.406 1.203.406.813 0 1.282-.563.468-.562.468-1.546 0-.922-.5-1.485-.5-.562-1.343-.562-.766 0-1.204.343l-.312.25-.938-.25z"/><path stroke="#c00" stroke-width="3" stroke-linejoin="round" stroke-linecap="round" d="M608.39 149.238h-2.437q.031 1.235.594 1.907.578.671 1.625.671.734 0 1.375-.218l.125 1.015q-.75.188-1.516.188-1.578 0-2.484-.922-.906-.938-.938-2.64h-1.125v-.782h1.125v-.875h-1.125v-.797h1.125q.063-1.656.97-2.562.905-.922 2.437-.922.687 0 1.53.203l-.124 1.031q-.688-.219-1.39-.219-1.032 0-1.595.641-.562.64-.609 1.828h2.438v.797h-2.438v.875h2.438v.781zm8.438 3.438h-6.062v-.844l3.203-3.562q.703-.797.968-1.297.282-.516.282-1.047 0-.735-.438-1.188-.437-.468-1.172-.468-.875 0-1.359.5t-.484 1.39h-1.172q0-1.281.812-2.062.828-.797 2.203-.797 1.297 0 2.047.687.75.672.75 1.797 0 1.36-1.75 3.25l-2.468 2.688h4.64v.953zm6.547-6.828q0 .687-.375 1.234-.36.531-.984.844.734.312 1.156.906.422.594.422 1.344 0 1.203-.813 1.922-.812.703-2.125.703-1.343 0-2.14-.703-.797-.719-.797-1.922 0-.75.406-1.344.406-.61 1.125-.922-.61-.297-.969-.828-.36-.547-.36-1.234 0-1.172.75-1.86.75-.687 1.985-.687 1.219 0 1.969.687.75.688.75 1.86zm-.953 4.312q0-.781-.5-1.265-.485-.485-1.281-.485-.797 0-1.282.485-.468.468-.468 1.265 0 .781.453 1.235.468.453 1.312.453.813 0 1.282-.453.484-.454.484-1.235zm-1.766-5.89q-.703 0-1.14.437-.422.422-.422 1.156 0 .703.422 1.141.437.437 1.14.437.703 0 1.125-.437.422-.438.422-1.14 0-.704-.437-1.141-.438-.453-1.11-.453zm4.188 10.25l-.657-.454q.594-.843.625-1.718v-1.063h1.141v.922q0 .64-.312 1.281-.313.641-.797 1.032zm8.718-5.782q0 2.063-.703 3.063t-2.203 1q-1.484 0-2.203-.969-.703-.984-.719-2.937v-1.563q0-2.047.703-3.031.704-1 2.204-1 1.5 0 2.203.969.703.953.718 2.937v1.531zm-1.171-1.609q0-1.5-.422-2.172-.422-.687-1.328-.687-.891 0-1.313.687-.406.672-.422 2.078v1.875q0 1.5.438 2.219.437.719 1.312.719t1.297-.672q.422-.672.438-2.125v-1.922zm6.234 5.547h-1.172v-7.828l-2.375.875v-1.078l3.36-1.25h.187v9.28zm8.938-3.938q0 2.063-.704 3.063-.703 1-2.203 1-1.484 0-2.203-.969-.703-.984-.719-2.937v-1.563q0-2.047.703-3.031.704-1 2.204-1 1.5 0 2.203.969.703.953.718 2.937v1.531zm-1.172-1.609q0-1.5-.422-2.172-.422-.687-1.328-.687-.891 0-1.313.687-.406.672-.422 2.078v1.875q0 1.5.438 2.219.437.719 1.312.719t1.297-.672q.422-.672.438-2.125v-1.922z"/><path fill="#fff" d="M608.39 149.238h-2.437q.031 1.235.594 1.907.578.671 1.625.671.734 0 1.375-.218l.125 1.015q-.75.188-1.516.188-1.578 0-2.484-.922-.906-.938-.938-2.64h-1.125v-.782h1.125v-.875h-1.125v-.797h1.125q.063-1.656.97-2.562.905-.922 2.437-.922.687 0 1.53.203l-.124 1.031q-.688-.219-1.39-.219-1.032 0-1.595.641-.562.64-.609 1.828h2.438v.797h-2.438v.875h2.438v.781zm8.438 3.438h-6.062v-.844l3.203-3.562q.703-.797.968-1.297.282-.516.282-1.047 0-.735-.438-1.188-.437-.468-1.172-.468-.875 0-1.359.5t-.484 1.39h-1.172q0-1.281.812-2.062.828-.797 2.203-.797 1.297 0 2.047.687.75.672.75 1.797 0 1.36-1.75 3.25l-2.468 2.688h4.64v.953zm6.547-6.828q0 .687-.375 1.234-.36.531-.984.844.734.312 1.156.906.422.594.422 1.344 0 1.203-.813 1.922-.812.703-2.125.703-1.343 0-2.14-.703-.797-.719-.797-1.922 0-.75.406-1.344.406-.61 1.125-.922-.61-.297-.969-.828-.36-.547-.36-1.234 0-1.172.75-1.86.75-.687 1.985-.687 1.219 0 1.969.687.75.688.75 1.86zm-.953 4.312q0-.781-.5-1.265-.485-.485-1.281-.485-.797 0-1.282.485-.468.468-.468 1.265 0 .781.453 1.235.468.453 1.312.453.813 0 1.282-.453.484-.454.484-1.235zm-1.766-5.89q-.703 0-1.14.437-.422.422-.422 1.156 0 .703.422 1.141.437.437 1.14.437.703 0 1.125-.437.422-.438.422-1.14 0-.704-.437-1.141-.438-.453-1.11-.453zm4.188 10.25l-.657-.454q.594-.843.625-1.718v-1.063h1.141v.922q0 .64-.312 1.281-.313.641-.797 1.032zm8.718-5.782q0 2.063-.703 3.063t-2.203 1q-1.484 0-2.203-.969-.703-.984-.719-2.937v-1.563q0-2.047.703-3.031.704-1 2.204-1 1.5 0 2.203.969.703.953.718 2.937v1.531zm-1.171-1.609q0-1.5-.422-2.172-.422-.687-1.328-.687-.891 0-1.313.687-.406.672-.422 2.078v1.875q0 1.5.438 2.219.437.719 1.312.719t1.297-.672q.422-.672.438-2.125v-1.922zm6.234 5.547h-1.172v-7.828l-2.375.875v-1.078l3.36-1.25h.187v9.28zm8.938-3.938q0 2.063-.704 3.063-.703 1-2.203 1-1.484 0-2.203-.969-.703-.984-.719-2.937v-1.563q0-2.047.703-3.031.704-1 2.204-1 1.5 0 2.203.969.703.953.718 2.937v1.531zm-1.172-1.609q0-1.5-.422-2.172-.422-.687-1.328-.687-.891 0-1.313.687-.406.672-.422 2.078v1.875q0 1.5.438 2.219.437.719 1.312.719t1.297-.672q.422-.672.438-2.125v-1.922z"/><path stroke="#3d85c6" stroke-width="3" stroke-linejoin="round" stroke-linecap="round" d="M241.39 178.468h-2.437q.031 1.234.594 1.906.578.672 1.625.672.734 0 1.375-.219l.125 1.016q-.75.188-1.516.188-1.578 0-2.484-.922-.906-.938-.938-2.641h-1.125v-.781h1.125v-.875h-1.125v-.797h1.125q.063-1.656.97-2.563.905-.921 2.437-.921.687 0 1.53.203l-.124 1.03q-.688-.218-1.39-.218-1.032 0-1.595.64-.562.641-.609 1.829h2.438v.797h-2.438v.875h2.438v.781zm8.438 3.438h-6.062v-.844l3.203-3.563q.703-.797.969-1.297.28-.515.28-1.046 0-.735-.437-1.188-.437-.469-1.172-.469-.875 0-1.359.5t-.484 1.39h-1.172q0-1.28.812-2.062.828-.796 2.203-.796 1.297 0 2.047.687.75.672.75 1.797 0 1.36-1.75 3.25l-2.469 2.687h4.641v.954zm1.484-4.641l.47-4.61h4.734v1.094h-3.735l-.281 2.516q.672-.39 1.531-.39 1.266 0 2 .827.75.829.75 2.25 0 1.438-.765 2.266-.766.813-2.157.813-1.218 0-2-.672-.78-.688-.875-1.891h1.11q.11.797.562 1.203.453.406 1.203.406.813 0 1.282-.562.468-.563.468-1.547 0-.922-.5-1.484-.5-.563-1.343-.563-.766 0-1.203.344l-.313.25-.938-.25zm6.532 6.484l-.656-.453q.593-.844.625-1.719v-1.062h1.14v.922q0 .64-.312 1.281-.313.64-.797 1.031zm3.469-6.484l.468-4.61h4.735v1.094h-3.735l-.281 2.516q.672-.39 1.531-.39 1.266 0 2 .827.75.829.75 2.25 0 1.438-.765 2.266-.766.813-2.157.813-1.218 0-2-.672-.78-.688-.875-1.891h1.11q.11.797.562 1.203.453.406 1.203.406.813 0 1.282-.562.468-.563.468-1.547 0-.922-.5-1.484-.5-.563-1.343-.563-.766 0-1.204.344l-.312.25-.938-.25zm11.062-4.61v1h-.219q-1.36.016-2.172.813-.812.781-.953 2.219.735-.844 2-.844 1.203 0 1.922.86.719.843.719 2.187 0 1.422-.781 2.281-.766.86-2.079.86-1.328 0-2.156-1.016-.812-1.016-.812-2.625v-.453q0-2.547 1.078-3.89 1.094-1.36 3.25-1.391h.203zm-1.547 4.172q-.594 0-1.11.36-.5.36-.702.906v.422q0 1.156.515 1.86.516.687 1.281.687.797 0 1.25-.578.454-.594.454-1.532 0-.953-.47-1.53-.452-.595-1.218-.595zm8.89 1.97h1.298v.968h-1.297v2.14h-1.172v-2.14h-4.203v-.703l4.125-6.406h1.25v6.14zm-4.046 0h2.875v-4.532l-.14.266-2.735 4.265z"/><path fill="#fff" d="M241.39 178.468h-2.437q.031 1.234.594 1.906.578.672 1.625.672.734 0 1.375-.219l.125 1.016q-.75.188-1.516.188-1.578 0-2.484-.922-.906-.938-.938-2.641h-1.125v-.781h1.125v-.875h-1.125v-.797h1.125q.063-1.656.97-2.563.905-.921 2.437-.921.687 0 1.53.203l-.124 1.03q-.688-.218-1.39-.218-1.032 0-1.595.64-.562.641-.609 1.829h2.438v.797h-2.438v.875h2.438v.781zm8.438 3.438h-6.062v-.844l3.203-3.563q.703-.797.969-1.297.28-.515.28-1.046 0-.735-.437-1.188-.437-.469-1.172-.469-.875 0-1.359.5t-.484 1.39h-1.172q0-1.28.812-2.062.828-.796 2.203-.796 1.297 0 2.047.687.75.672.75 1.797 0 1.36-1.75 3.25l-2.469 2.687h4.641v.954zm1.484-4.641l.47-4.61h4.734v1.094h-3.735l-.281 2.516q.672-.39 1.531-.39 1.266 0 2 .827.75.829.75 2.25 0 1.438-.765 2.266-.766.813-2.157.813-1.218 0-2-.672-.78-.688-.875-1.891h1.11q.11.797.562 1.203.453.406 1.203.406.813 0 1.282-.562.468-.563.468-1.547 0-.922-.5-1.484-.5-.563-1.343-.563-.766 0-1.203.344l-.313.25-.938-.25zm6.532 6.484l-.656-.453q.593-.844.625-1.719v-1.062h1.14v.922q0 .64-.312 1.281-.313.64-.797 1.031zm3.469-6.484l.468-4.61h4.735v1.094h-3.735l-.281 2.516q.672-.39 1.531-.39 1.266 0 2 .827.75.829.75 2.25 0 1.438-.765 2.266-.766.813-2.157.813-1.218 0-2-.672-.78-.688-.875-1.891h1.11q.11.797.562 1.203.453.406 1.203.406.813 0 1.282-.562.468-.563.468-1.547 0-.922-.5-1.484-.5-.563-1.343-.563-.766 0-1.204.344l-.312.25-.938-.25zm11.062-4.61v1h-.219q-1.36.016-2.172.813-.812.781-.953 2.219.735-.844 2-.844 1.203 0 1.922.86.719.843.719 2.187 0 1.422-.781 2.281-.766.86-2.079.86-1.328 0-2.156-1.016-.812-1.016-.812-2.625v-.453q0-2.547 1.078-3.89 1.094-1.36 3.25-1.391h.203zm-1.547 4.172q-.594 0-1.11.36-.5.36-.702.906v.422q0 1.156.515 1.86.516.687 1.281.687.797 0 1.25-.578.454-.594.454-1.532 0-.953-.47-1.53-.452-.595-1.218-.595zm8.89 1.97h1.298v.968h-1.297v2.14h-1.172v-2.14h-4.203v-.703l4.125-6.406h1.25v6.14zm-4.046 0h2.875v-4.532l-.14.266-2.735 4.265z"/><path stroke="#3d85c6" stroke-width="3" stroke-linejoin="round" stroke-linecap="round" d="M460.39 151.031h-2.437q.031 1.235.594 1.907.578.671 1.625.671.734 0 1.375-.218l.125 1.015q-.75.188-1.516.188-1.578 0-2.484-.922-.906-.938-.938-2.64h-1.125v-.782h1.125v-.875h-1.125v-.797h1.125q.063-1.656.97-2.562.905-.922 2.437-.922.687 0 1.53.203l-.124 1.031q-.688-.219-1.39-.219-1.032 0-1.594.641-.563.64-.61 1.828h2.438v.797h-2.438v.875h2.438v.781zm8.438 3.438h-6.062v-.844l3.203-3.562q.703-.797.969-1.297.28-.516.28-1.047 0-.735-.437-1.188-.437-.468-1.172-.468-.875 0-1.359.5t-.484 1.39h-1.172q0-1.281.812-2.062.828-.797 2.203-.797 1.297 0 2.047.687.75.672.75 1.797 0 1.36-1.75 3.25l-2.469 2.688h4.641v.953zm6.906-8.578l-3.828 8.578h-1.234l3.812-8.281h-5v-.97h6.25v.673zm1.11 10.422l-.656-.454q.593-.843.625-1.718v-1.063h1.14V154q0 .64-.312 1.281-.313.64-.797 1.032zm8.531-8.672q0 .687-.375 1.234-.36.531-.984.844.734.312 1.156.906.422.594.422 1.344 0 1.203-.813 1.922-.812.703-2.125.703-1.344 0-2.14-.703-.797-.72-.797-1.922 0-.75.406-1.344.406-.61 1.125-.922-.61-.297-.969-.828-.36-.547-.36-1.234 0-1.172.75-1.86.75-.687 1.985-.687 1.219 0 1.969.687.75.688.75 1.86zm-.953 4.312q0-.781-.5-1.265-.485-.485-1.281-.485-.797 0-1.282.485-.468.468-.468 1.265 0 .781.453 1.235.469.453 1.312.453.813 0 1.281-.453.485-.454.485-1.235zm-1.766-5.89q-.703 0-1.14.437-.422.422-.422 1.156 0 .703.422 1.14.437.438 1.14.438.703 0 1.125-.437.422-.438.422-1.14 0-.704-.437-1.141-.438-.453-1.11-.453zm8.719-.844v1h-.219q-1.36.015-2.172.812-.812.782-.953 2.22.735-.845 2-.845 1.203 0 1.922.86.719.843.719 2.187 0 1.422-.781 2.281-.766.86-2.079.86-1.328 0-2.156-1.016-.812-1.015-.812-2.625v-.453q0-2.547 1.078-3.89 1.094-1.36 3.25-1.391h.203zm-1.547 4.172q-.594 0-1.11.36-.5.358-.702.905v.422q0 1.156.515 1.86.516.687 1.281.687.797 0 1.25-.578.454-.594.454-1.531 0-.953-.47-1.532-.452-.593-1.218-.593zm9.735 1.14q0 2.063-.704 3.063-.703 1-2.203 1-1.484 0-2.203-.969-.703-.984-.719-2.937v-1.563q0-2.047.704-3.031.703-1 2.203-1t2.203.969q.703.953.719 2.937v1.531zm-1.172-1.61q0-1.5-.422-2.17-.422-.688-1.328-.688-.891 0-1.313.687-.406.672-.422 2.078v1.875q0 1.5.438 2.219.437.719 1.312.719t1.297-.672q.422-.672.438-2.125v-1.922z"/><path fill="#fff" d="M460.39 151.031h-2.437q.031 1.235.594 1.907.578.671 1.625.671.734 0 1.375-.218l.125 1.015q-.75.188-1.516.188-1.578 0-2.484-.922-.906-.938-.938-2.64h-1.125v-.782h1.125v-.875h-1.125v-.797h1.125q.063-1.656.97-2.562.905-.922 2.437-.922.687 0 1.53.203l-.124 1.031q-.688-.219-1.39-.219-1.032 0-1.594.641-.563.64-.61 1.828h2.438v.797h-2.438v.875h2.438v.781zm8.438 3.438h-6.062v-.844l3.203-3.562q.703-.797.969-1.297.28-.516.28-1.047 0-.735-.437-1.188-.437-.468-1.172-.468-.875 0-1.359.5t-.484 1.39h-1.172q0-1.281.812-2.062.828-.797 2.203-.797 1.297 0 2.047.687.75.672.75 1.797 0 1.36-1.75 3.25l-2.469 2.688h4.641v.953zm6.906-8.578l-3.828 8.578h-1.234l3.812-8.281h-5v-.97h6.25v.673zm1.11 10.422l-.656-.454q.593-.843.625-1.718v-1.063h1.14V154q0 .64-.312 1.281-.313.64-.797 1.032zm8.531-8.672q0 .687-.375 1.234-.36.531-.984.844.734.312 1.156.906.422.594.422 1.344 0 1.203-.813 1.922-.812.703-2.125.703-1.344 0-2.14-.703-.797-.72-.797-1.922 0-.75.406-1.344.406-.61 1.125-.922-.61-.297-.969-.828-.36-.547-.36-1.234 0-1.172.75-1.86.75-.687 1.985-.687 1.219 0 1.969.687.75.688.75 1.86zm-.953 4.312q0-.781-.5-1.265-.485-.485-1.281-.485-.797 0-1.282.485-.468.468-.468 1.265 0 .781.453 1.235.469.453 1.312.453.813 0 1.281-.453.485-.454.485-1.235zm-1.766-5.89q-.703 0-1.14.437-.422.422-.422 1.156 0 .703.422 1.14.437.438 1.14.438.703 0 1.125-.437.422-.438.422-1.14 0-.704-.437-1.141-.438-.453-1.11-.453zm8.719-.844v1h-.219q-1.36.015-2.172.812-.812.782-.953 2.22.735-.845 2-.845 1.203 0 1.922.86.719.843.719 2.187 0 1.422-.781 2.281-.766.86-2.079.86-1.328 0-2.156-1.016-.812-1.015-.812-2.625v-.453q0-2.547 1.078-3.89 1.094-1.36 3.25-1.391h.203zm-1.547 4.172q-.594 0-1.11.36-.5.358-.702.905v.422q0 1.156.515 1.86.516.687 1.281.687.797 0 1.25-.578.454-.594.454-1.531 0-.953-.47-1.532-.452-.593-1.218-.593zm9.735 1.14q0 2.063-.704 3.063-.703 1-2.203 1-1.484 0-2.203-.969-.703-.984-.719-2.937v-1.563q0-2.047.704-3.031.703-1 2.203-1t2.203.969q.703.953.719 2.937v1.531zm-1.172-1.61q0-1.5-.422-2.17-.422-.688-1.328-.688-.891 0-1.313.687-.406.672-.422 2.078v1.875q0 1.5.438 2.219.437.719 1.312.719t1.297-.672q.422-.672.438-2.125v-1.922z"/><path stroke="#3d85c6" stroke-width="3" stroke-linejoin="round" stroke-linecap="round" d="M679.39 171h-2.437q.031 1.234.594 1.906.578.672 1.625.672.734 0 1.375-.219l.125 1.016q-.75.188-1.516.188-1.578 0-2.484-.922-.906-.938-.938-2.641h-1.125v-.781h1.125v-.875h-1.125v-.797h1.125q.063-1.656.97-2.563.905-.922 2.437-.922.687 0 1.53.204l-.124 1.03q-.688-.218-1.39-.218-1.032 0-1.595.64-.562.641-.609 1.829h2.438v.797h-2.438v.875h2.438V171zm8.438 3.438h-6.062v-.844l3.203-3.563q.703-.797.968-1.297.282-.515.282-1.047 0-.734-.438-1.187-.437-.469-1.172-.469-.875 0-1.359.5t-.484 1.39h-1.172q0-1.28.812-2.062.828-.797 2.203-.797 1.297 0 2.047.688.75.672.75 1.797 0 1.36-1.75 3.25l-2.468 2.687h4.64v.953zm5.547-9.25v1h-.219q-1.36.015-2.172.812-.812.781-.953 2.219.735-.844 2-.844 1.203 0 1.922.86.719.843.719 2.187 0 1.422-.781 2.281-.766.86-2.078.86-1.329 0-2.157-1.016-.812-1.016-.812-2.625v-.453q0-2.547 1.078-3.89 1.094-1.36 3.25-1.392h.203zm-1.547 4.171q-.594 0-1.11.36-.5.36-.702.906v.422q0 1.156.515 1.86.516.687 1.282.687.796 0 1.25-.578.453-.594.453-1.532 0-.953-.47-1.53-.452-.595-1.218-.595zm4.016 6.922l-.657-.453q.594-.844.625-1.719v-1.062h1.141v.922q0 .64-.312 1.281-.313.64-.797 1.031zm6.781-1.844h-1.172v-7.828l-2.375.875v-1.078l3.36-1.25h.187v9.281zm8.75-6.828q0 .688-.375 1.235-.36.531-.984.844.734.312 1.156.906.422.594.422 1.344 0 1.203-.813 1.921-.812.703-2.125.703-1.343 0-2.14-.703-.797-.718-.797-1.922 0-.75.406-1.343.406-.61 1.125-.922-.61-.297-.969-.828-.36-.547-.36-1.235 0-1.172.75-1.859.75-.688 1.985-.688 1.219 0 1.969.688t.75 1.86zm-.953 4.313q0-.781-.5-1.266-.485-.484-1.281-.484-.797 0-1.282.484-.468.469-.468 1.266 0 .781.453 1.234.468.453 1.312.453.813 0 1.282-.453.484-.453.484-1.234zm-1.766-5.89q-.703 0-1.14.437-.422.422-.422 1.156 0 .703.422 1.14.437.438 1.14.438.703 0 1.125-.437.422-.438.422-1.141 0-.703-.437-1.14-.438-.454-1.11-.454zm8.61 4.343q-.36.438-.875.703-.516.266-1.125.266-.797 0-1.391-.39-.594-.392-.922-1.11-.312-.719-.312-1.578 0-.922.343-1.657.36-.75 1-1.14.657-.406 1.516-.406 1.375 0 2.156 1.03.797 1.032.797 2.798v.343q0 2.703-1.078 3.938-1.063 1.234-3.203 1.266h-.235v-.985h.25q1.454-.031 2.235-.75.781-.734.844-2.328zm-1.813 0q.594 0 1.094-.36.5-.359.734-.89v-.484q0-1.141-.515-1.86-.5-.734-1.266-.734t-1.234.594q-.47.593-.47 1.562 0 .953.454 1.563.453.609 1.203.609z"/><path fill="#fff" d="M679.39 171h-2.437q.031 1.234.594 1.906.578.672 1.625.672.734 0 1.375-.219l.125 1.016q-.75.188-1.516.188-1.578 0-2.484-.922-.906-.938-.938-2.641h-1.125v-.781h1.125v-.875h-1.125v-.797h1.125q.063-1.656.97-2.563.905-.922 2.437-.922.687 0 1.53.204l-.124 1.03q-.688-.218-1.39-.218-1.032 0-1.595.64-.562.641-.609 1.829h2.438v.797h-2.438v.875h2.438V171zm8.438 3.438h-6.062v-.844l3.203-3.563q.703-.797.968-1.297.282-.515.282-1.047 0-.734-.438-1.187-.437-.469-1.172-.469-.875 0-1.359.5t-.484 1.39h-1.172q0-1.28.812-2.062.828-.797 2.203-.797 1.297 0 2.047.688.75.672.75 1.797 0 1.36-1.75 3.25l-2.468 2.687h4.64v.953zm5.547-9.25v1h-.219q-1.36.015-2.172.812-.812.781-.953 2.219.735-.844 2-.844 1.203 0 1.922.86.719.843.719 2.187 0 1.422-.781 2.281-.766.86-2.078.86-1.329 0-2.157-1.016-.812-1.016-.812-2.625v-.453q0-2.547 1.078-3.89 1.094-1.36 3.25-1.392h.203zm-1.547 4.171q-.594 0-1.11.36-.5.36-.702.906v.422q0 1.156.515 1.86.516.687 1.282.687.796 0 1.25-.578.453-.594.453-1.532 0-.953-.47-1.53-.452-.595-1.218-.595zm4.016 6.922l-.657-.453q.594-.844.625-1.719v-1.062h1.141v.922q0 .64-.312 1.281-.313.64-.797 1.031zm6.781-1.844h-1.172v-7.828l-2.375.875v-1.078l3.36-1.25h.187v9.281zm8.75-6.828q0 .688-.375 1.235-.36.531-.984.844.734.312 1.156.906.422.594.422 1.344 0 1.203-.813 1.921-.812.703-2.125.703-1.343 0-2.14-.703-.797-.718-.797-1.922 0-.75.406-1.343.406-.61 1.125-.922-.61-.297-.969-.828-.36-.547-.36-1.235 0-1.172.75-1.859.75-.688 1.985-.688 1.219 0 1.969.688t.75 1.86zm-.953 4.313q0-.781-.5-1.266-.485-.484-1.281-.484-.797 0-1.282.484-.468.469-.468 1.266 0 .781.453 1.234.468.453 1.312.453.813 0 1.282-.453.484-.453.484-1.234zm-1.766-5.89q-.703 0-1.14.437-.422.422-.422 1.156 0 .703.422 1.14.437.438 1.14.438.703 0 1.125-.437.422-.438.422-1.141 0-.703-.437-1.14-.438-.454-1.11-.454zm8.61 4.343q-.36.438-.875.703-.516.266-1.125.266-.797 0-1.391-.39-.594-.392-.922-1.11-.312-.719-.312-1.578 0-.922.343-1.657.36-.75 1-1.14.657-.406 1.516-.406 1.375 0 2.156 1.03.797 1.032.797 2.798v.343q0 2.703-1.078 3.938-1.063 1.234-3.203 1.266h-.235v-.985h.25q1.454-.031 2.235-.75.781-.734.844-2.328zm-1.813 0q.594 0 1.094-.36.5-.359.734-.89v-.484q0-1.141-.515-1.86-.5-.734-1.266-.734t-1.234.594q-.47.593-.47 1.562 0 .953.454 1.563.453.609 1.203.609z"/><path fill="#757575" d="M60.769 470.528h-2.25q.031 1.14.547 1.766.53.61 1.5.61.687 0 1.28-.204l.126.938q-.703.187-1.406.187-1.454 0-2.297-.86-.828-.859-.875-2.437h-1.032v-.719h1.032v-.812h-1.032v-.735h1.032q.062-1.53.89-2.375.844-.843 2.266-.843.625 0 1.422.187l-.125.953q-.64-.203-1.281-.203-.97 0-1.485.594-.515.594-.547 1.688h2.235v.734h-2.25v.812h2.25v.72zm8.093-.469q0 1.907-.656 2.844-.64.922-2.031.922-1.36 0-2.016-.906-.656-.906-.687-2.719v-1.438q0-1.89.64-2.796.657-.922 2.047-.922 1.375 0 2.032.89.656.875.671 2.72v1.405zm-1.093-1.484q0-1.375-.39-2-.376-.64-1.22-.64-.828 0-1.218.64-.375.625-.375 1.922v1.734q0 1.375.39 2.047.406.656 1.219.656.797 0 1.188-.625.39-.625.406-1.953v-1.781zm-37-117.547h-2.25q.031 1.14.547 1.766.53.61 1.5.61.687 0 1.28-.204l.126.938q-.703.187-1.406.187-1.453 0-2.297-.86-.828-.859-.875-2.437h-1.031v-.719h1.03v-.812h-1.03v-.735h1.03q.063-1.53.891-2.375.844-.843 2.266-.843.625 0 1.422.187l-.125.953q-.64-.203-1.281-.203-.97 0-1.485.594-.515.594-.547 1.688h2.235v.734h-2.25v.812h2.25v.72zm6.297 3.172h-1.079v-7.219l-2.187.797v-.984l3.11-1.172h.156v8.578zm8.796-3.64q0 1.906-.656 2.843-.64.922-2.031.922-1.36 0-2.016-.906-.656-.906-.687-2.719v-1.438q0-1.89.64-2.796.657-.922 2.047-.922 1.375 0 2.032.89.656.875.671 2.72v1.405zm-1.093-1.485q0-1.375-.39-2-.376-.64-1.22-.64-.828 0-1.218.64-.375.625-.375 1.922v1.734q0 1.375.39 2.047.406.656 1.219.656.797 0 1.188-.625.39-.625.406-1.953v-1.781zm2.812 6.828l-.61-.422q.548-.765.579-1.594v-.968h1.063v.844q0 .593-.297 1.187-.297.594-.735.953zm7.281-5.344q0 1.907-.656 2.844-.64.922-2.031.922-1.36 0-2.016-.906-.656-.906-.687-2.719v-1.438q0-1.89.64-2.796.657-.922 2.047-.922 1.375 0 2.032.89.656.875.671 2.72v1.405zm-1.093-1.484q0-1.375-.39-2-.376-.64-1.22-.64-.828 0-1.218.64-.375.625-.375 1.922v1.734q0 1.375.39 2.047.406.656 1.219.656.797 0 1.188-.625.39-.625.406-1.953v-1.781zm8.093 1.484q0 1.907-.656 2.844-.64.922-2.031.922-1.36 0-2.016-.906-.656-.906-.687-2.719v-1.438q0-1.89.64-2.796.657-.922 2.047-.922 1.375 0 2.032.89.656.875.671 2.72v1.405zm-1.093-1.484q0-1.375-.39-2-.376-.64-1.22-.64-.828 0-1.218.64-.375.625-.375 1.922v1.734q0 1.375.39 2.047.406.656 1.219.656.797 0 1.188-.625.39-.625.406-1.953v-1.781zm8.093 1.484q0 1.907-.656 2.844-.64.922-2.031.922-1.36 0-2.016-.906-.656-.906-.687-2.719v-1.438q0-1.89.64-2.796.657-.922 2.047-.922 1.375 0 2.032.89.656.875.671 2.72v1.405zm-1.093-1.484q0-1.375-.39-2-.376-.64-1.22-.64-.828 0-1.218.64-.375.625-.375 1.922v1.734q0 1.375.39 2.047.406.656 1.219.656.797 0 1.188-.625.39-.625.406-1.953v-1.781zm-37-117.547h-2.25q.031 1.14.547 1.766.53.61 1.5.61.687 0 1.28-.204l.126.938q-.703.187-1.406.187-1.453 0-2.297-.86-.828-.859-.875-2.437h-1.031v-.719h1.03v-.812h-1.03v-.735h1.03q.063-1.53.891-2.375.844-.843 2.266-.843.625 0 1.422.187l-.125.953q-.64-.203-1.281-.203-.97 0-1.485.594-.515.594-.547 1.688h2.235v.734h-2.25v.812h2.25v.72zm8.328 3.172h-5.594v-.781l2.953-3.282q.656-.75.906-1.203.25-.468.25-.968 0-.672-.406-1.094-.39-.438-1.078-.438-.797 0-1.25.47-.453.452-.453 1.28h-1.078q0-1.187.75-1.906.765-.734 2.031-.734 1.203 0 1.89.625.688.625.688 1.672 0 1.25-1.61 3l-2.28 2.468h4.28v.891zm6.765-3.64q0 1.906-.656 2.843-.64.922-2.031.922-1.36 0-2.016-.906-.656-.907-.687-2.719v-1.438q0-1.89.64-2.796.657-.922 2.047-.922 1.375 0 2.032.89.656.875.671 2.72v1.405zm-1.093-1.485q0-1.375-.39-2-.376-.64-1.22-.64-.828 0-1.218.64-.375.625-.375 1.922v1.734q0 1.375.39 2.047.406.656 1.219.656.797 0 1.188-.625.39-.625.406-1.953v-1.781zm2.812 6.828l-.61-.422q.548-.765.579-1.594v-.968h1.063v.843q0 .594-.297 1.188t-.735.953zm7.281-5.344q0 1.907-.656 2.844-.64.922-2.031.922-1.36 0-2.016-.906-.656-.907-.687-2.719v-1.438q0-1.89.64-2.796.657-.922 2.047-.922 1.375 0 2.032.89.656.875.671 2.72v1.405zm-1.093-1.484q0-1.375-.39-2-.376-.64-1.22-.64-.828 0-1.218.64-.375.625-.375 1.922v1.734q0 1.375.39 2.047.406.656 1.219.656.797 0 1.188-.625.39-.625.406-1.953v-1.781zm8.093 1.484q0 1.907-.656 2.844-.64.922-2.031.922-1.36 0-2.016-.906-.656-.907-.687-2.719v-1.438q0-1.89.64-2.796.657-.922 2.047-.922 1.375 0 2.032.89.656.875.671 2.72v1.405zm-1.093-1.484q0-1.375-.39-2-.376-.64-1.22-.64-.828 0-1.218.64-.375.625-.375 1.922v1.734q0 1.375.39 2.047.406.656 1.219.656.797 0 1.188-.625.39-.625.406-1.953v-1.781zm8.093 1.484q0 1.907-.656 2.844-.64.922-2.031.922-1.36 0-2.016-.906-.656-.907-.687-2.719v-1.438q0-1.89.64-2.796.657-.922 2.047-.922 1.375 0 2.032.89.656.875.671 2.72v1.405zm-1.093-1.484q0-1.375-.39-2-.376-.64-1.22-.64-.828 0-1.218.64-.375.625-.375 1.922v1.734q0 1.375.39 2.047.406.656 1.219.656.797 0 1.188-.625.39-.625.406-1.953v-1.781zm-37-117.547h-2.25q.031 1.14.547 1.766.53.61 1.5.61.687 0 1.28-.204l.126.938q-.703.187-1.406.187-1.453 0-2.297-.86-.828-.859-.875-2.437h-1.031v-.719h1.03v-.812h-1.03v-.734h1.03q.063-1.532.891-2.376.844-.843 2.266-.843.625 0 1.422.187l-.125.953q-.64-.203-1.281-.203-.97 0-1.485.594-.515.594-.547 1.688h2.235v.734h-2.25v.812h2.25v.72zm4.312-1.625h.813q.781-.016 1.218-.406.438-.39.438-1.063 0-1.5-1.5-1.5-.703 0-1.125.407-.406.406-.406 1.062h-1.094q0-1.016.734-1.687.75-.672 1.891-.672 1.203 0 1.89.64.688.641.688 1.782 0 .562-.36 1.078-.359.515-.984.781.703.219 1.078.734.391.516.391 1.266 0 1.14-.75 1.828-.75.672-1.953.672-1.188 0-1.953-.656-.75-.656-.75-1.719h1.094q0 .672.437 1.078.438.406 1.188.406.78 0 1.187-.406.422-.422.422-1.187 0-.735-.453-1.125-.453-.407-1.328-.422h-.813v-.89zm10.781 1.156q0 1.907-.656 2.844-.64.922-2.031.922-1.36 0-2.016-.906-.656-.906-.687-2.719v-1.438q0-1.89.64-2.796.657-.922 2.047-.922 1.375 0 2.032.89.656.875.671 2.72v1.405zm-1.093-1.484q0-1.375-.39-2-.376-.64-1.22-.64-.828 0-1.218.64-.375.625-.375 1.922v1.734q0 1.375.39 2.047.406.656 1.219.656.797 0 1.188-.625.39-.625.406-1.953v-1.781zm2.812 6.828l-.61-.422q.548-.765.579-1.593v-.97h1.063v.844q0 .594-.297 1.188t-.735.953zm7.281-5.344q0 1.907-.656 2.844-.64.922-2.031.922-1.36 0-2.016-.906-.656-.906-.687-2.719v-1.438q0-1.89.64-2.796.657-.922 2.047-.922 1.375 0 2.032.89.656.875.671 2.72v1.405zm-1.093-1.484q0-1.375-.39-2-.376-.64-1.22-.64-.828 0-1.218.64-.375.625-.375 1.922v1.734q0 1.375.39 2.047.406.656 1.219.656.797 0 1.188-.625.39-.625.406-1.953v-1.781zm8.093 1.484q0 1.907-.656 2.844-.64.922-2.031.922-1.36 0-2.016-.906-.656-.906-.687-2.719v-1.438q0-1.89.64-2.796.657-.922 2.047-.922 1.375 0 2.032.89.656.875.671 2.72v1.405zm-1.093-1.484q0-1.375-.39-2-.376-.64-1.22-.64-.828 0-1.218.64-.375.625-.375 1.922v1.734q0 1.375.39 2.047.406.656 1.219.656.797 0 1.188-.625.39-.625.406-1.953v-1.781zm8.093 1.484q0 1.907-.656 2.844-.64.922-2.031.922-1.36 0-2.016-.906-.656-.906-.687-2.719v-1.438q0-1.89.64-2.796.657-.922 2.047-.922 1.375 0 2.032.89.656.875.671 2.72v1.405zm-1.093-1.484q0-1.375-.39-2-.376-.64-1.22-.64-.828 0-1.218.64-.375.625-.375 1.922v1.734q0 1.375.39 2.047.406.656 1.219.656.797 0 1.188-.625.39-.625.406-1.953v-1.781zM198.639 487.2h-1.078v-7.219l-2.188.797v-.984l3.11-1.172h.156v8.578zm5.812-3.188h-2.86v-.875h2.86v.875zm4.485-5.343h1.14v6.047q0 1.218-.75 1.921-.734.688-1.953.688-1.265 0-1.984-.656-.703-.656-.703-1.828h1.125q0 .734.39 1.156.407.406 1.172.406.703 0 1.125-.437.438-.454.438-1.235v-6.062zm7.172 7.906q-.625.75-1.86.75-1.015 0-1.547-.594-.531-.594-.531-1.75v-4.125h1.078v4.094q0 1.453 1.172 1.453 1.25 0 1.656-.937v-4.61h1.094v6.344h-1.031l-.031-.625zm4.265.625h-1.078v-9h1.078v9zm4.078-3.188h-2.86v-.875h2.86v.875zm6.219 3.188h-5.594v-.781l2.953-3.281q.657-.75.907-1.204.25-.468.25-.968 0-.672-.407-1.094-.39-.438-1.078-.438-.797 0-1.25.47-.453.452-.453 1.28h-1.078q0-1.187.75-1.906.766-.734 2.031-.734 1.203 0 1.89.625.688.625.688 1.672 0 1.25-1.609 3l-2.281 2.468h4.281v.891zm6.766-3.64q0 1.906-.657 2.843-.64.922-2.03.922-1.36 0-2.016-.906-.657-.906-.688-2.719v-1.438q0-1.89.64-2.796.657-.922 2.048-.922 1.375 0 2.03.89.657.875.673 2.72v1.405zm-1.094-1.485q0-1.375-.39-2-.376-.64-1.22-.64-.828 0-1.218.64-.375.625-.375 1.922v1.734q0 1.375.39 2.047.407.656 1.22.656.796 0 1.187-.625.39-.625.406-1.953v-1.781zm6.297 5.125h-1.078v-7.219l-2.188.797v-.984l3.11-1.172h.156v8.578zm8.625-6.313q0 .641-.344 1.141t-.906.781q.656.282 1.047.844.39.547.39 1.25 0 1.094-.75 1.766-.734.656-1.953.656-1.234 0-1.984-.656-.735-.672-.735-1.766 0-.703.375-1.25.375-.562 1.047-.844-.562-.28-.89-.78-.328-.5-.328-1.142 0-1.078.687-1.703.688-.64 1.828-.64 1.125 0 1.813.64.703.625.703 1.703zm-.89 3.985q0-.719-.454-1.156-.453-.454-1.187-.454-.735 0-1.188.454-.437.437-.437 1.171 0 .72.437 1.141.438.406 1.203.406.75 0 1.188-.422.437-.421.437-1.14zm-1.626-5.438q-.64 0-1.047.407-.39.39-.39 1.078 0 .64.39 1.047.39.406 1.032.406.656 0 1.046-.406.391-.407.391-1.047 0-.656-.406-1.063-.406-.422-1.016-.422zm168.018 7.766h-1.079v-7.219l-2.187.797v-.984l3.11-1.172h.156v8.578zm5.812-3.188h-2.86v-.875h2.86v.875zm7.469-.796q0 1.25-.422 2.187-.422.922-1.203 1.422-.766.5-1.797.5-1 0-1.781-.5-.781-.5-1.219-1.406-.422-.922-.438-2.14v-.61q0-1.235.422-2.172.438-.938 1.22-1.438.78-.515 1.796-.515t1.797.5q.781.5 1.203 1.437.422.938.422 2.188v.547zm-1.11-.563q0-1.516-.609-2.328-.61-.813-1.703-.813-1.078 0-1.688.813-.609.813-.625 2.25v.64q0 1.47.61 2.313.625.828 1.703.828 1.094 0 1.688-.781.609-.797.625-2.281v-.64zm4.922 3.781q.579 0 1.016-.343.438-.36.484-.891h1.032q-.032.547-.391 1.047-.344.484-.922.781-.562.297-1.219.297-1.296 0-2.062-.86-.75-.874-.75-2.374v-.188q0-.922.328-1.64.344-.72.969-1.11.64-.406 1.515-.406 1.063 0 1.766.64.719.625.766 1.657h-1.032q-.046-.625-.468-1.016-.422-.39-1.032-.39-.828 0-1.28.593-.454.594-.454 1.719v.203q0 1.094.453 1.688.453.593 1.281.593zm4.938-7.109v1.531h1.172v.844h-1.172v3.922q0 .39.156.578.156.188.531.188.188 0 .516-.063v.875q-.422.125-.828.125-.719 0-1.094-.438-.375-.453-.375-1.265V481.7h-1.156v-.844h1.156v-1.531h1.094zm4.781 4.688h-2.86v-.875h2.86v.875zm6.219 3.187h-5.594v-.781l2.953-3.281q.656-.75.906-1.204.25-.468.25-.968 0-.672-.406-1.094-.39-.438-1.078-.438-.797 0-1.25.47-.453.452-.453 1.28h-1.078q0-1.187.75-1.906.765-.734 2.031-.734 1.203 0 1.89.625.688.625.688 1.672 0 1.25-1.61 3l-2.28 2.468h4.28v.891zm6.765-3.64q0 1.906-.656 2.843-.64.922-2.031.922-1.36 0-2.016-.906-.656-.906-.687-2.719v-1.438q0-1.89.64-2.796.657-.922 2.047-.922 1.375 0 2.032.89.656.875.671 2.72v1.405zm-1.093-1.485q0-1.375-.39-2-.376-.64-1.22-.64-.828 0-1.218.64-.375.625-.375 1.922v1.734q0 1.375.39 2.047.406.656 1.219.656.797 0 1.188-.625.39-.625.406-1.953v-1.781zm6.297 5.125h-1.079v-7.219l-2.187.797v-.984l3.11-1.172h.156v8.578zm8.625-6.313q0 .641-.344 1.141t-.906.781q.656.282 1.046.844.391.547.391 1.25 0 1.094-.75 1.766-.734.656-1.953.656-1.234 0-1.984-.656-.735-.672-.735-1.766 0-.703.375-1.25.375-.562 1.047-.844-.562-.28-.89-.78-.329-.5-.329-1.142 0-1.078.688-1.703.687-.64 1.828-.64 1.125 0 1.813.64.703.625.703 1.703zm-.891 3.985q0-.719-.453-1.156-.453-.454-1.188-.454-.734 0-1.187.454-.438.437-.438 1.171 0 .72.438 1.141.437.406 1.203.406.75 0 1.188-.422.437-.421.437-1.14zm-1.625-5.438q-.64 0-1.047.407-.39.39-.39 1.078 0 .64.39 1.047.39.406 1.031.406.657 0 1.047-.406.39-.407.39-1.047 0-.656-.405-1.063-.407-.422-1.016-.422zm166.018 7.766h-1.079v-7.219l-2.187.797v-.984l3.11-1.172h.156v8.578zm5.812-3.188h-2.86v-.875h2.86v.875zm4.484-5.343h1.141v6.047q0 1.218-.75 1.921-.734.688-1.953.688-1.266 0-1.984-.656-.704-.656-.704-1.828h1.125q0 .734.391 1.156.406.406 1.172.406.703 0 1.125-.437.437-.454.437-1.235v-6.062zm7.172 8.531q-.093-.188-.156-.672-.75.797-1.797.797-.937 0-1.547-.531-.593-.531-.593-1.36 0-.984.75-1.53.75-.548 2.125-.548h1.046v-.5q0-.562-.343-.89-.328-.344-1-.344-.578 0-.97.297-.39.281-.39.703h-1.093q0-.485.328-.922.343-.438.922-.688.578-.265 1.265-.265 1.11 0 1.719.547.625.547.656 1.5v2.922q0 .875.219 1.39v.094h-1.14zm-1.797-.828q.516 0 .97-.266.452-.265.655-.687v-1.297h-.843q-2 0-2 1.172 0 .5.343.797.344.28.875.28zm5.907-5.516l.03.797q.735-.906 1.907-.906 2.016 0 2.031 2.265v4.188h-1.093v-4.203q0-.672-.313-1-.297-.328-.953-.328-.531 0-.938.281-.39.281-.609.734v4.516h-1.078v-6.344h1.016zm8.234 3.156h-2.86v-.875h2.86v.875zm6.219 3.188h-5.594v-.781l2.953-3.281q.656-.75.906-1.204.25-.468.25-.968 0-.672-.406-1.094-.39-.438-1.078-.438-.797 0-1.25.47-.453.452-.453 1.28h-1.078q0-1.187.75-1.906.765-.734 2.031-.734 1.203 0 1.89.625.688.625.688 1.672 0 1.25-1.61 3l-2.28 2.468h4.28v.891zm6.765-3.64q0 1.906-.656 2.843-.64.922-2.031.922-1.36 0-2.016-.906-.656-.906-.687-2.719v-1.438q0-1.89.64-2.796.657-.922 2.047-.922 1.375 0 2.032.89.656.875.671 2.72v1.405zm-1.093-1.485q0-1.375-.391-2-.375-.64-1.219-.64-.828 0-1.218.64-.375.625-.375 1.922v1.734q0 1.375.39 2.047.406.656 1.219.656.797 0 1.187-.625.391-.625.407-1.953v-1.781zm6.297 5.125h-1.079v-7.219l-2.187.797v-.984l3.11-1.172h.156v8.578zm7.593-3.75q-.328.406-.812.656-.469.235-1.031.235-.735 0-1.282-.36t-.843-1.015q-.297-.672-.297-1.47 0-.843.312-1.53.328-.688.922-1.047.61-.375 1.406-.375 1.266 0 1.985.953.734.953.734 2.578v.313q0 2.5-.984 3.64-.985 1.14-2.97 1.172h-.218v-.906h.235q1.343-.031 2.062-.703.719-.672.781-2.141zm-1.672 0q.547 0 1-.328.47-.344.688-.828v-.438q0-1.062-.469-1.734-.469-.672-1.172-.672-.718 0-1.156.547-.422.547-.422 1.453 0 .875.406 1.438.422.562 1.125.562z"/><path fill="#c00" d="M298 71.5a1 1 0 011-1h10a1 1 0 011 1v10a1 1 0 01-1 1h-10a1 1 0 01-1-1z"/><path fill="#757575" d="M320.828 77.547V82h-1.5V70.625h4.188q1.875 0 2.921.953 1.063.953 1.063 2.516 0 1.656-1.031 2.562-1.031.89-2.969.89h-2.672zm0-1.234h2.688q1.203 0 1.843-.563.641-.563.641-1.64 0-1.016-.64-1.626-.641-.609-1.75-.625h-2.782v4.454zm13.485 4.843q-.844 1-2.47 1-1.359 0-2.062-.781-.703-.797-.719-2.328v-5.5h1.454V79q0 1.922 1.562 1.922 1.656 0 2.203-1.234v-6.141h1.438V82h-1.375l-.031-.844zm7.875-6.312q-.329-.063-.72-.063-1.421 0-1.921 1.219v6h-1.453v-8.453h1.406l.031.969q.703-1.125 2.016-1.125.422 0 .64.109v1.344zm4.296 6.125q.782 0 1.36-.469.578-.469.64-1.172h1.36q-.031.734-.5 1.39-.453.657-1.235 1.048-.765.39-1.625.39-1.718 0-2.75-1.156-1.015-1.156-1.015-3.156v-.235q0-1.234.453-2.187.453-.969 1.297-1.5.86-.531 2.015-.531 1.422 0 2.36.859.937.844 1 2.203h-1.36q-.062-.828-.625-1.344-.562-.53-1.375-.53-1.109 0-1.718.796-.594.781-.594 2.281v.281q0 1.454.594 2.25.609.782 1.718.782zm6.063-6.406q.953-1.172 2.5-1.172 2.672 0 2.703 3.015V82h-1.453v-5.594q0-.922-.422-1.36-.406-.437-1.266-.437-.703 0-1.234.375t-.828.985V82h-1.453V70h1.453v4.563zM365.312 82q-.125-.25-.203-.89-1 1.046-2.406 1.046-1.25 0-2.047-.703-.797-.719-.797-1.797 0-1.328 1-2.047 1-.734 2.829-.734h1.406v-.672q0-.75-.453-1.203-.454-.453-1.344-.453-.766 0-1.297.39-.516.391-.516.954h-1.453q0-.641.438-1.22.453-.593 1.219-.937.78-.343 1.703-.343 1.453 0 2.28.734.829.719.86 2v3.89q0 1.172.297 1.86V82h-1.515zm-2.39-1.11q.672 0 1.281-.343.61-.36.89-.922v-1.734h-1.14q-2.656 0-2.656 1.562 0 .672.453 1.063.453.375 1.172.375zm11.094-1.14q0-.578-.438-.906-.437-.328-1.547-.563-1.094-.234-1.734-.562-.64-.328-.953-.781-.313-.454-.313-1.079 0-1.03.875-1.75.89-.718 2.25-.718 1.438 0 2.328.75.907.734.907 1.89h-1.454q0-.594-.515-1.015-.5-.438-1.266-.438-.781 0-1.234.344-.438.344-.438.89 0 .532.407.797.421.266 1.5.516 1.078.234 1.75.578.671.328 1 .797.328.469.328 1.156 0 1.125-.906 1.813-.907.687-2.36.687-1.015 0-1.797-.36-.781-.359-1.219-1-.437-.655-.437-1.405h1.438q.046.734.578 1.156.546.422 1.437.422.828 0 1.313-.328.5-.329.5-.891zm6.593 2.406q-1.718 0-2.796-1.125-1.079-1.14-1.079-3.031v-.266q0-1.25.47-2.234.483-1 1.343-1.547.875-.562 1.875-.562 1.656 0 2.562 1.093.922 1.079.922 3.094v.61h-5.734q.031 1.25.734 2.015.703.766 1.781.766.766 0 1.297-.313.532-.312.922-.828l.89.688q-1.062 1.64-3.187 1.64zm-.187-7.578q-.875 0-1.469.64-.594.626-.734 1.782h4.234v-.11q-.062-1.109-.594-1.703-.53-.609-1.437-.609zm9.594 5.172q0-.578-.438-.906-.437-.328-1.547-.563-1.094-.234-1.734-.562-.64-.328-.953-.781-.313-.454-.313-1.079 0-1.03.875-1.75.89-.718 2.25-.718 1.438 0 2.328.75.907.734.907 1.89h-1.454q0-.594-.515-1.015-.5-.438-1.266-.438-.781 0-1.234.344-.438.344-.438.89 0 .532.407.797.421.266 1.5.516 1.078.234 1.75.578.671.328 1 .797.328.469.328 1.156 0 1.125-.906 1.813-.907.687-2.36.687-1.015 0-1.797-.36-.781-.359-1.219-1-.437-.655-.437-1.405h1.438q.046.734.578 1.156.546.422 1.437.422.828 0 1.313-.328.5-.329.5-.891z"/><path fill="#3d85c6" d="M408 71.5a1 1 0 011-1h10a1 1 0 011 1v10a1 1 0 01-1 1h-10a1 1 0 01-1-1z"/><path fill="#757575" d="M438.063 82h-1.5l-5.735-8.766V82h-1.5V70.625h1.5l5.75 8.797v-8.797h1.485V82zm5.546.156q-1.718 0-2.796-1.125-1.079-1.14-1.079-3.031v-.266q0-1.25.47-2.234.483-1 1.343-1.547.875-.562 1.875-.562 1.656 0 2.562 1.093.922 1.079.922 3.094v.61h-5.734q.031 1.25.734 2.015.703.766 1.781.766.766 0 1.297-.313.532-.312.922-.828l.89.688q-1.062 1.64-3.187 1.64zm-.187-7.578q-.875 0-1.469.64-.594.626-.734 1.782h4.234v-.11q-.062-1.109-.594-1.703-.53-.609-1.437-.609zm6.64-3.078v2.047h1.579v1.11h-1.579v5.25q0 .5.204.765.218.25.718.25.25 0 .688-.094V82q-.563.156-1.11.156-.968 0-1.468-.578-.485-.594-.485-1.672v-5.25h-1.53v-1.11h1.53V71.5h1.454zm12.25 10.5q-.125-.25-.203-.89-1 1.046-2.406 1.046-1.25 0-2.047-.703-.797-.719-.797-1.797 0-1.328 1-2.047 1-.734 2.829-.734h1.406v-.672q0-.75-.453-1.203-.454-.453-1.344-.453-.766 0-1.297.39-.516.391-.516.954h-1.453q0-.641.438-1.22.453-.593 1.219-.937.78-.343 1.703-.343 1.453 0 2.28.734.829.719.86 2v3.89q0 1.172.297 1.86V82h-1.515zm-2.39-1.11q.672 0 1.281-.343.61-.36.89-.922v-1.734h-1.14q-2.656 0-2.656 1.562 0 .672.453 1.063.453.375 1.172.375zm11.094-1.14q0-.578-.438-.906-.437-.328-1.547-.563-1.094-.234-1.734-.562-.64-.328-.953-.781-.313-.454-.313-1.079 0-1.03.875-1.75.89-.718 2.25-.718 1.438 0 2.328.75.907.734.907 1.89h-1.454q0-.594-.515-1.015-.5-.438-1.266-.438-.781 0-1.234.344-.438.344-.438.89 0 .532.407.797.421.266 1.5.516 1.078.234 1.75.578.671.328 1 .797.328.469.328 1.156 0 1.125-.906 1.813-.907.687-2.36.687-1.015 0-1.797-.36-.781-.359-1.219-1-.437-.655-.437-1.405h1.438q.046.734.578 1.156.546.422 1.437.422.828 0 1.313-.328.5-.329.5-.891zm8 0q0-.578-.438-.906-.437-.328-1.547-.563-1.094-.234-1.734-.562-.64-.328-.953-.781-.313-.454-.313-1.079 0-1.03.875-1.75.89-.718 2.25-.718 1.438 0 2.328.75.907.734.907 1.89h-1.454q0-.594-.515-1.015-.5-.438-1.266-.438-.781 0-1.234.344-.438.344-.438.89 0 .532.407.797.421.266 1.5.516 1.078.234 1.75.578.671.328 1 .797.328.469.328 1.156 0 1.125-.906 1.813-.907.687-2.36.687-1.015 0-1.797-.36-.781-.359-1.219-1-.437-.655-.437-1.405h1.438q.046.734.578 1.156.546.422 1.437.422.828 0 1.313-.328.5-.329.5-.891zm6.593 2.406q-1.718 0-2.796-1.125-1.079-1.14-1.079-3.031v-.266q0-1.25.47-2.234.483-1 1.343-1.547.875-.562 1.875-.562 1.656 0 2.562 1.093.922 1.079.922 3.094v.61h-5.734q.031 1.25.734 2.015.703.766 1.781.766.766 0 1.297-.313.532-.312.922-.828l.89.688q-1.062 1.64-3.187 1.64zm-.187-7.578q-.875 0-1.469.64-.594.626-.734 1.782h4.234v-.11q-.062-1.109-.594-1.703-.53-.609-1.437-.609zm6.64-3.078v2.047h1.579v1.11h-1.579v5.25q0 .5.204.765.218.25.718.25.25 0 .688-.094V82q-.563.156-1.11.156-.968 0-1.468-.578-.485-.594-.485-1.672v-5.25h-1.53v-1.11h1.53V71.5h1.454zm9.829 8.531l2.093-6.484h1.47L502.421 82h-1.094l-3.062-8.453h1.468l2.157 6.484zM512.312 82q-.125-.25-.203-.89-1 1.046-2.406 1.046-1.25 0-2.047-.703-.797-.719-.797-1.797 0-1.328 1-2.047 1-.734 2.829-.734h1.406v-.672q0-.75-.453-1.203-.454-.453-1.344-.453-.766 0-1.297.39-.516.391-.516.954h-1.453q0-.641.438-1.22.453-.593 1.219-.937.78-.343 1.703-.343 1.453 0 2.28.734.829.719.86 2v3.89q0 1.172.297 1.86V82h-1.515zm-2.39-1.11q.672 0 1.281-.343.61-.36.89-.922v-1.734h-1.14q-2.656 0-2.656 1.562 0 .672.453 1.063.453.375 1.172.375zm7.75 1.11h-1.453V70h1.453v12zm7.64-.844q-.843 1-2.468 1-1.36 0-2.063-.781-.703-.797-.718-2.328v-5.5h1.453V79q0 1.922 1.562 1.922 1.656 0 2.203-1.234v-6.141h1.438V82h-1.375l-.032-.844zm7.297 1q-1.718 0-2.797-1.125-1.078-1.14-1.078-3.031v-.266q0-1.25.47-2.234.484-1 1.343-1.547.875-.562 1.875-.562 1.656 0 2.562 1.093.922 1.079.922 3.094v.61h-5.734q.031 1.25.734 2.015.703.766 1.782.766.765 0 1.296-.313.532-.312.922-.828l.89.688q-1.062 1.64-3.187 1.64zm-.187-7.578q-.875 0-1.469.64-.594.626-.734 1.782h4.234v-.11q-.062-1.109-.594-1.703-.53-.609-1.437-.609zM37.956 42.94q-.734 1.032-2.031 1.547-1.281.516-3 .516-1.75 0-3.094-.812-1.343-.829-2.078-2.329-.734-1.5-.765-3.484v-1.25q0-3.203 1.5-4.969 1.5-1.78 4.218-1.78 2.219 0 3.578 1.14 1.36 1.14 1.672 3.234h-1.875q-.531-2.828-3.36-2.828-1.89 0-2.858 1.328-.97 1.328-.985 3.828v1.172q0 2.39 1.094 3.797 1.094 1.406 2.953 1.406 1.063 0 1.844-.234.797-.235 1.312-.781v-3.204H32.8v-1.515h5.156v5.219zm8.313-7.093q-.407-.063-.875-.063-1.782 0-2.422 1.516v7.5h-1.797V34.237h1.75l.031 1.22q.89-1.423 2.516-1.423.531 0 .797.141v1.672zm1.422 3.578q0-1.563.609-2.797.61-1.25 1.688-1.922 1.093-.672 2.5-.672 2.156 0 3.484 1.5 1.344 1.485 1.344 3.97v.124q0 1.547-.594 2.781-.594 1.22-1.703 1.907-1.094.687-2.516.687-2.14 0-3.484-1.5-1.328-1.5-1.328-3.953v-.125zm1.812.203q0 1.766.813 2.828.828 1.063 2.187 1.063 1.375 0 2.188-1.078.812-1.079.812-3.016 0-1.75-.828-2.828-.828-1.078-2.188-1.078-1.343 0-2.171 1.062-.813 1.063-.813 3.047zm19.016 2.688l2.031-8.079h1.813L69.284 44.8h-1.468l-2.563-8.016-2.5 8.016h-1.469l-3.062-10.563h1.797l2.078 7.907 2.469-7.907h1.453l2.5 8.079zm8.093-10.641v2.562h1.985v1.391h-1.984v6.547q0 .64.265.969.266.312.906.312.313 0 .86-.125V44.8q-.719.203-1.39.203-1.204 0-1.829-.734-.61-.735-.61-2.094v-6.547h-1.921v-1.39h1.922v-2.563h1.796zm6.36 3.844q1.203-1.485 3.125-1.485 3.36 0 3.375 3.782V44.8h-1.797v-7q-.016-1.14-.531-1.688-.5-.546-1.594-.546-.875 0-1.547.468-.656.47-1.031 1.235V44.8h-1.797v-15h1.797v5.719zm13.719 3.906q0-1.563.609-2.797.61-1.25 1.688-1.922 1.093-.672 2.5-.672 2.156 0 3.484 1.5 1.344 1.485 1.344 3.97v.124q0 1.547-.594 2.781-.594 1.22-1.703 1.907-1.094.687-2.516.687-2.14 0-3.484-1.5-1.328-1.5-1.328-3.953v-.125zm1.812.203q0 1.766.813 2.828.828 1.063 2.187 1.063 1.375 0 2.188-1.078.812-1.079.812-3.016 0-1.75-.828-2.828-.828-1.078-2.188-1.078-1.343 0-2.171 1.062-.813 1.063-.813 3.047zM109.05 44.8v-9.172h-1.656v-1.39h1.656v-1.094q0-1.688.906-2.61.922-.937 2.578-.937.625 0 1.235.156l-.094 1.469q-.453-.078-.969-.078-.89 0-1.375.515-.469.5-.469 1.453v1.125h2.25v1.391h-2.25V44.8h-1.812zm20.047-5.172q0 2.422-1.11 3.906-1.093 1.47-2.984 1.47-1.922 0-3.031-1.235v5.093h-1.797V34.237h1.64l.094 1.172q1.094-1.375 3.063-1.375 1.906 0 3.016 1.438 1.109 1.437 1.109 4v.156zm-1.813-.203q0-1.781-.765-2.813-.75-1.046-2.078-1.046-1.641 0-2.47 1.453v5.062q.813 1.438 2.485 1.438 1.297 0 2.063-1.032.765-1.03.765-3.062zm3.407 0q0-1.563.609-2.797.61-1.25 1.688-1.922 1.093-.672 2.5-.672 2.156 0 3.484 1.5 1.344 1.485 1.344 3.97v.124q0 1.547-.594 2.781-.594 1.22-1.703 1.907-1.094.687-2.516.687-2.14 0-3.484-1.5-1.328-1.5-1.328-3.953v-.125zm1.812.203q0 1.766.813 2.828.828 1.063 2.187 1.063 1.375 0 2.188-1.078.812-1.079.812-3.016 0-1.75-.828-2.828-.828-1.078-2.188-1.078-1.343 0-2.171 1.062-.813 1.063-.813 3.047zm14.766-3.781q-.406-.063-.875-.063-1.781 0-2.422 1.516v7.5h-1.797V34.237h1.75l.031 1.22q.89-1.423 2.516-1.423.531 0 .797.141v1.672zm4.344-4.172v2.562h1.984v1.391h-1.984v6.547q0 .64.265.969.266.312.906.312.313 0 .86-.125V44.8q-.719.203-1.39.203-1.204 0-1.829-.734-.61-.735-.61-2.094v-6.547h-1.921v-1.39h1.922v-2.563h1.797zM157.05 44.8v-9.172h-1.656v-1.39h1.656v-1.094q0-1.688.906-2.61.922-.937 2.578-.937.625 0 1.235.156l-.094 1.469q-.453-.078-.969-.078-.89 0-1.375.515-.468.5-.468 1.453v1.125h2.25v1.391h-2.25V44.8h-1.813zm5.64-5.375q0-1.563.61-2.797.61-1.25 1.688-1.922 1.093-.672 2.5-.672 2.156 0 3.484 1.5 1.344 1.485 1.344 3.97v.124q0 1.547-.594 2.781-.594 1.22-1.703 1.907-1.094.687-2.516.687-2.14 0-3.484-1.5-1.328-1.5-1.328-3.953v-.125zm1.813.203q0 1.766.813 2.828.828 1.063 2.187 1.063 1.375 0 2.188-1.078.812-1.079.812-3.016 0-1.75-.828-2.828-.828-1.078-2.188-1.078-1.343 0-2.171 1.062-.813 1.063-.813 3.047zm11.625 5.172h-1.797v-15h1.797v15zm5 0h-1.797V34.237h1.797V44.8zm-1.953-13.375q0-.438.266-.734.28-.313.797-.313.53 0 .796.313.282.297.282.734 0 .438-.282.734-.265.297-.796.297-.516 0-.797-.297-.266-.296-.266-.734zm4.516 8q0-1.563.609-2.797.61-1.25 1.688-1.922 1.093-.672 2.5-.672 2.156 0 3.484 1.5 1.344 1.485 1.344 3.97v.124q0 1.547-.594 2.781-.594 1.22-1.703 1.907-1.094.687-2.516.687-2.14 0-3.484-1.5-1.328-1.5-1.328-3.953v-.125zm1.812.203q0 1.766.813 2.828.828 1.063 2.187 1.063 1.375 0 2.188-1.078.812-1.079.812-3.016 0-1.75-.828-2.828-.828-1.078-2.188-1.078-1.343 0-2.171 1.062-.813 1.063-.813 3.047z"/></svg>