<svg fill="none" stroke-linecap="square" stroke-miterlimit="10" width="961" height="594" xmlns="http://www.w3.org/2000/svg"><path fill="#fff" d="M0 0h961v594H0V0z"/><path stroke="#333" stroke-linecap="butt" d="M79.5 543.5h852"/><path stroke="#ccc" stroke-linecap="butt" d="M79.5 437.5h852m-852-106h852m-852-106h852m-852-106h852"/><clipPath id="a"><path d="M79.7 119.8h851.6v423.5H79.7V119.8z"/></clipPath><path clip-path="url(#a)" d="M169 543h-43V276a2 2 0 012-2h39a2 2 0 012 2z"/><path fill="#c00" clip-path="url(#a)" d="M169 543h-43V276a2 2 0 012-2h39a2 2 0 012 2z"/><path clip-path="url(#a)" d="M303 543h-43V258a2 2 0 012-2h39a2 2 0 012 2z"/><path fill="#c00" clip-path="url(#a)" d="M303 543h-43V258a2 2 0 012-2h39a2 2 0 012 2z"/><path clip-path="url(#a)" d="M437 543h-43V249a2 2 0 012-2h39a2 2 0 012 2z"/><path fill="#c00" clip-path="url(#a)" d="M437 543h-43V249a2 2 0 012-2h39a2 2 0 012 2z"/><path clip-path="url(#a)" d="M572 543h-43V232a2 2 0 012-2h39a2 2 0 012 2z"/><path fill="#c00" clip-path="url(#a)" d="M572 543h-43V232a2 2 0 012-2h39a2 2 0 012 2z"/><path clip-path="url(#a)" d="M706 543h-43V232a2 2 0 012-2h39a2 2 0 012 2z"/><path fill="#c00" clip-path="url(#a)" d="M706 543h-43V232a2 2 0 012-2h39a2 2 0 012 2z"/><path clip-path="url(#a)" d="M840 543h-43V224a2 2 0 012-2h39a2 2 0 012 2z"/><path fill="#c00" clip-path="url(#a)" d="M840 543h-43V224a2 2 0 012-2h39a2 2 0 012 2z"/><path clip-path="url(#a)" d="M213 543h-43V275a2 2 0 012-2h39a2 2 0 012 2z"/><path fill="#3d85c6" clip-path="url(#a)" d="M213 543h-43V275a2 2 0 012-2h39a2 2 0 012 2z"/><path clip-path="url(#a)" d="M347 543h-43V250a2 2 0 012-2h39a2 2 0 012 2z"/><path fill="#3d85c6" clip-path="url(#a)" d="M347 543h-43V250a2 2 0 012-2h39a2 2 0 012 2z"/><path clip-path="url(#a)" d="M481 543h-43V254a2 2 0 012-2h39a2 2 0 012 2z"/><path fill="#3d85c6" clip-path="url(#a)" d="M481 543h-43V254a2 2 0 012-2h39a2 2 0 012 2z"/><path clip-path="url(#a)" d="M616 543h-43V213a2 2 0 012-2h39a2 2 0 012 2z"/><path fill="#3d85c6" clip-path="url(#a)" d="M616 543h-43V213a2 2 0 012-2h39a2 2 0 012 2z"/><path clip-path="url(#a)" d="M750 543h-43V202a2 2 0 012-2h39a2 2 0 012 2z"/><path fill="#3d85c6" clip-path="url(#a)" d="M750 543h-43V202a2 2 0 012-2h39a2 2 0 012 2z"/><path clip-path="url(#a)" d="M884 543h-43V181a2 2 0 012-2h39a2 2 0 012 2z"/><path fill="#3d85c6" clip-path="url(#a)" d="M884 543h-43V181a2 2 0 012-2h39a2 2 0 012 2z"/><path stroke="#c00" stroke-width="3" stroke-linejoin="round" stroke-linecap="round" d="M130.969 287.31h-2.25q.031 1.14.547 1.766.53.609 1.5.609.687 0 1.28-.203l.126.937q-.703.188-1.406.188-1.453 0-2.297-.86-.828-.859-.875-2.437h-1.031v-.719h1.03v-.812h-1.03v-.735h1.03q.063-1.53.891-2.375.844-.843 2.266-.843.625 0 1.422.187l-.125.953q-.64-.203-1.281-.203-.97 0-1.485.594-.515.594-.547 1.687h2.235v.735h-2.25v.812h2.25v.719zm8.328 3.172h-5.594v-.781l2.953-3.282q.656-.75.906-1.203.25-.469.25-.969 0-.671-.406-1.093-.39-.438-1.078-.438-.797 0-1.25.469-.453.453-.453 1.281h-1.078q0-1.187.75-1.906.766-.734 2.031-.734 1.203 0 1.89.625.688.625.688 1.671 0 1.25-1.61 3l-2.28 2.47h4.28v.89zm1.906-4.281l.438-4.25h4.375v1h-3.453l-.266 2.328q.64-.375 1.437-.375 1.157 0 1.844.781.688.766.688 2.078 0 1.313-.72 2.078-.702.766-1.983.766-1.125 0-1.844-.625-.719-.64-.813-1.75h1.016q.11.734.531 1.11.422.374 1.11.374.75 0 1.187-.515.438-.516.438-1.422 0-.86-.47-1.375-.468-.516-1.25-.516-.702 0-1.109.297l-.28.234-.876-.218zm6.578 5.984l-.61-.422q.548-.765.579-1.594v-.968h1.063v.843q0 .594-.297 1.188t-.735.953zm6.5-4.563h1.188v.875h-1.188v1.985h-1.078v-1.985h-3.89v-.64l3.812-5.906h1.156v5.671zm-3.734 0h2.656v-4.187l-.14.234-2.516 3.954zm10.422-5.671v.906h-.203q-1.266.031-2.016.765-.75.72-.875 2.032.688-.766 1.844-.766 1.11 0 1.781.781.672.782.672 2.032 0 1.312-.719 2.109-.719.797-1.937.797-1.22 0-1.985-.938-.75-.953-.75-2.437v-.406q0-2.36 1-3.61t2.985-1.265h.203zm-1.422 3.843q-.563 0-1.031.329-.47.328-.657.843v.39q0 1.063.47 1.704.483.64 1.187.64.734 0 1.156-.53.422-.548.422-1.423t-.422-1.406q-.422-.547-1.125-.547zm8.422-3.843v.906h-.203q-1.266.031-2.016.765-.75.72-.875 2.032.688-.766 1.844-.766 1.11 0 1.781.781.672.782.672 2.032 0 1.312-.719 2.109-.719.797-1.937.797-1.22 0-1.985-.938-.75-.953-.75-2.437v-.406q0-2.36 1-3.61t2.985-1.265h.203zm-1.422 3.843q-.563 0-1.031.329-.47.328-.657.843v.39q0 1.063.47 1.704.483.64 1.187.64.734 0 1.156-.53.422-.548.422-1.423t-.422-1.406q-.422-.547-1.125-.547z"/><path fill="#fff" d="M130.969 287.31h-2.25q.031 1.14.547 1.766.53.609 1.5.609.687 0 1.28-.203l.126.937q-.703.188-1.406.188-1.453 0-2.297-.86-.828-.859-.875-2.437h-1.031v-.719h1.03v-.812h-1.03v-.735h1.03q.063-1.53.891-2.375.844-.843 2.266-.843.625 0 1.422.187l-.125.953q-.64-.203-1.281-.203-.97 0-1.485.594-.515.594-.547 1.687h2.235v.735h-2.25v.812h2.25v.719zm8.328 3.172h-5.594v-.781l2.953-3.282q.656-.75.906-1.203.25-.469.25-.969 0-.671-.406-1.093-.39-.438-1.078-.438-.797 0-1.25.469-.453.453-.453 1.281h-1.078q0-1.187.75-1.906.766-.734 2.031-.734 1.203 0 1.89.625.688.625.688 1.671 0 1.25-1.61 3l-2.28 2.47h4.28v.89zm1.906-4.281l.438-4.25h4.375v1h-3.453l-.266 2.328q.64-.375 1.437-.375 1.157 0 1.844.781.688.766.688 2.078 0 1.313-.72 2.078-.702.766-1.983.766-1.125 0-1.844-.625-.719-.64-.813-1.75h1.016q.11.734.531 1.11.422.374 1.11.374.75 0 1.187-.515.438-.516.438-1.422 0-.86-.47-1.375-.468-.516-1.25-.516-.702 0-1.109.297l-.28.234-.876-.218zm6.578 5.984l-.61-.422q.548-.765.579-1.594v-.968h1.063v.843q0 .594-.297 1.188t-.735.953zm6.5-4.563h1.188v.875h-1.188v1.985h-1.078v-1.985h-3.89v-.64l3.812-5.906h1.156v5.671zm-3.734 0h2.656v-4.187l-.14.234-2.516 3.954zm10.422-5.671v.906h-.203q-1.266.031-2.016.765-.75.72-.875 2.032.688-.766 1.844-.766 1.11 0 1.781.781.672.782.672 2.032 0 1.312-.719 2.109-.719.797-1.937.797-1.22 0-1.985-.938-.75-.953-.75-2.437v-.406q0-2.36 1-3.61t2.985-1.265h.203zm-1.422 3.843q-.563 0-1.031.329-.47.328-.657.843v.39q0 1.063.47 1.704.483.64 1.187.64.734 0 1.156-.53.422-.548.422-1.423t-.422-1.406q-.422-.547-1.125-.547zm8.422-3.843v.906h-.203q-1.266.031-2.016.765-.75.72-.875 2.032.688-.766 1.844-.766 1.11 0 1.781.781.672.782.672 2.032 0 1.312-.719 2.109-.719.797-1.937.797-1.22 0-1.985-.938-.75-.953-.75-2.437v-.406q0-2.36 1-3.61t2.985-1.265h.203zm-1.422 3.843q-.563 0-1.031.329-.47.328-.657.843v.39q0 1.063.47 1.704.483.64 1.187.64.734 0 1.156-.53.422-.548.422-1.423t-.422-1.406q-.422-.547-1.125-.547z"/><path stroke="#c00" stroke-width="3" stroke-linejoin="round" stroke-linecap="round" d="M264.969 270.062h-2.25q.031 1.14.547 1.765.53.61 1.5.61.687 0 1.28-.203l.126.937q-.703.188-1.406.188-1.454 0-2.297-.86-.828-.86-.875-2.437h-1.031v-.719h1.03v-.812h-1.03v-.735h1.03q.063-1.531.891-2.375.844-.844 2.266-.844.625 0 1.422.188l-.125.953q-.64-.203-1.281-.203-.97 0-1.485.594-.515.593-.547 1.687h2.235v.735h-2.25v.812h2.25v.719zm8.328 3.172h-5.594v-.782l2.953-3.28q.656-.75.906-1.204.25-.469.25-.969 0-.672-.406-1.093-.39-.438-1.078-.438-.797 0-1.25.469-.453.453-.453 1.281h-1.078q0-1.187.75-1.906.765-.735 2.031-.735 1.203 0 1.89.625.688.625.688 1.672 0 1.25-1.61 3l-2.28 2.47h4.28v.89zm6.922-7.922l-3.531 7.922h-1.141l3.515-7.64h-4.609v-.892h5.766v.61zm1.562 9.625l-.61-.422q.548-.766.579-1.594v-.969h1.063v.844q0 .594-.297 1.188-.297.593-.735.953zm7.281-5.344q0 1.906-.656 2.844-.64.922-2.031.922-1.36 0-2.016-.907-.656-.906-.687-2.718v-1.438q0-1.89.64-2.797.657-.922 2.047-.922 1.375 0 2.032.891.656.875.671 2.719v1.406zm-1.093-1.484q0-1.375-.39-2-.376-.64-1.22-.64-.828 0-1.218.64-.375.625-.375 1.922v1.734q0 1.375.39 2.047.406.656 1.219.656.797 0 1.188-.625.39-.625.406-1.953v-1.781zm6.89 1.375q-.328.406-.812.656-.469.234-1.031.234-.735 0-1.282-.36-.546-.358-.843-1.015-.297-.672-.297-1.468 0-.844.312-1.532.328-.687.922-1.047.61-.375 1.406-.375 1.266 0 1.985.954.734.953.734 2.578v.312q0 2.5-.984 3.64-.985 1.141-2.969 1.173h-.219v-.907h.235q1.343-.03 2.062-.703.719-.672.781-2.14zm-1.671 0q.546 0 1-.328.468-.344.687-.829v-.437q0-1.063-.469-1.734-.469-.672-1.172-.672-.718 0-1.156.547-.422.546-.422 1.453 0 .875.406 1.437.422.563 1.125.563zm5.015-.532l.438-4.25h4.375v1h-3.454l-.265 2.329q.64-.375 1.437-.375 1.157 0 1.844.78.688.766.688 2.079 0 1.312-.72 2.078-.702.766-1.983.766-1.125 0-1.844-.625-.719-.64-.813-1.75h1.016q.11.734.531 1.11.422.374 1.11.374.75 0 1.187-.516.438-.515.438-1.421 0-.86-.47-1.375-.468-.516-1.25-.516-.702 0-1.109.297l-.28.234-.876-.219z"/><path fill="#fff" d="M264.969 270.062h-2.25q.031 1.14.547 1.765.53.61 1.5.61.687 0 1.28-.203l.126.937q-.703.188-1.406.188-1.454 0-2.297-.86-.828-.86-.875-2.437h-1.031v-.719h1.03v-.812h-1.03v-.735h1.03q.063-1.531.891-2.375.844-.844 2.266-.844.625 0 1.422.188l-.125.953q-.64-.203-1.281-.203-.97 0-1.485.594-.515.593-.547 1.687h2.235v.735h-2.25v.812h2.25v.719zm8.328 3.172h-5.594v-.782l2.953-3.28q.656-.75.906-1.204.25-.469.25-.969 0-.672-.406-1.093-.39-.438-1.078-.438-.797 0-1.25.469-.453.453-.453 1.281h-1.078q0-1.187.75-1.906.765-.735 2.031-.735 1.203 0 1.89.625.688.625.688 1.672 0 1.25-1.61 3l-2.28 2.47h4.28v.89zm6.922-7.922l-3.531 7.922h-1.141l3.515-7.64h-4.609v-.892h5.766v.61zm1.562 9.625l-.61-.422q.548-.766.579-1.594v-.969h1.063v.844q0 .594-.297 1.188-.297.593-.735.953zm7.281-5.344q0 1.906-.656 2.844-.64.922-2.031.922-1.36 0-2.016-.907-.656-.906-.687-2.718v-1.438q0-1.89.64-2.797.657-.922 2.047-.922 1.375 0 2.032.891.656.875.671 2.719v1.406zm-1.093-1.484q0-1.375-.39-2-.376-.64-1.22-.64-.828 0-1.218.64-.375.625-.375 1.922v1.734q0 1.375.39 2.047.406.656 1.219.656.797 0 1.188-.625.39-.625.406-1.953v-1.781zm6.89 1.375q-.328.406-.812.656-.469.234-1.031.234-.735 0-1.282-.36-.546-.358-.843-1.015-.297-.672-.297-1.468 0-.844.312-1.532.328-.687.922-1.047.61-.375 1.406-.375 1.266 0 1.985.954.734.953.734 2.578v.312q0 2.5-.984 3.64-.985 1.141-2.969 1.173h-.219v-.907h.235q1.343-.03 2.062-.703.719-.672.781-2.14zm-1.671 0q.546 0 1-.328.468-.344.687-.829v-.437q0-1.063-.469-1.734-.469-.672-1.172-.672-.718 0-1.156.547-.422.546-.422 1.453 0 .875.406 1.437.422.563 1.125.563zm5.015-.532l.438-4.25h4.375v1h-3.454l-.265 2.329q.64-.375 1.437-.375 1.157 0 1.844.78.688.766.688 2.079 0 1.312-.72 2.078-.702.766-1.983.766-1.125 0-1.844-.625-.719-.64-.813-1.75h1.016q.11.734.531 1.11.422.374 1.11.374.75 0 1.187-.516.438-.515.438-1.421 0-.86-.47-1.375-.468-.516-1.25-.516-.702 0-1.109.297l-.28.234-.876-.219z"/><path stroke="#c00" stroke-width="3" stroke-linejoin="round" stroke-linecap="round" d="M398.969 260.368h-2.25q.031 1.14.547 1.766.53.609 1.5.609.687 0 1.28-.203l.126.937q-.703.188-1.406.188-1.454 0-2.297-.86-.828-.859-.875-2.437h-1.031v-.719h1.03v-.812h-1.03v-.735h1.03q.063-1.53.891-2.375.844-.843 2.266-.843.625 0 1.422.187l-.125.953q-.64-.203-1.281-.203-.97 0-1.485.594-.515.594-.547 1.687h2.235v.735h-2.25v.812h2.25v.719zm8.328 3.172h-5.594v-.781l2.953-3.282q.656-.75.906-1.203.25-.469.25-.969 0-.671-.406-1.093-.39-.438-1.078-.438-.797 0-1.25.469-.453.453-.453 1.281h-1.078q0-1.187.75-1.906.765-.734 2.031-.734 1.203 0 1.89.625.688.625.688 1.672 0 1.25-1.61 3l-2.28 2.468h4.28v.89zm6.594-6.313q0 .641-.344 1.141t-.906.781q.656.281 1.046.844.391.547.391 1.25 0 1.094-.75 1.766-.734.656-1.953.656-1.234 0-1.984-.656-.735-.672-.735-1.766 0-.703.375-1.25.375-.563 1.047-.844-.562-.281-.89-.781-.329-.5-.329-1.14 0-1.079.688-1.704.687-.64 1.828-.64 1.125 0 1.813.64.703.625.703 1.703zm-.891 3.985q0-.719-.453-1.156-.453-.454-1.188-.454-.734 0-1.187.454-.438.437-.438 1.171 0 .72.438 1.141.437.406 1.203.406.75 0 1.188-.422.437-.421.437-1.14zm-1.625-5.438q-.64 0-1.047.406-.39.391-.39 1.079 0 .64.39 1.046.39.407 1.031.407.657 0 1.047-.406.39-.407.39-1.047 0-.657-.405-1.063-.407-.422-1.016-.422zm4.406 9.469l-.61-.422q.548-.766.579-1.594v-.968h1.063v.843q0 .594-.297 1.188t-.735.953zm7.281-5.344q0 1.906-.656 2.844-.64.922-2.031.922-1.36 0-2.016-.906-.656-.907-.687-2.72v-1.437q0-1.89.64-2.796.657-.922 2.047-.922 1.375 0 2.032.89.656.875.671 2.719v1.406zm-1.093-1.484q0-1.375-.39-2-.376-.64-1.22-.64-.828 0-1.218.64-.375.625-.375 1.922v1.734q0 1.375.39 2.047.406.656 1.219.656.797 0 1.188-.625.39-.625.406-1.953v-1.781zm6.297 5.125h-1.079v-7.219l-2.187.797v-.984l3.11-1.172h.156v8.578zm8.796-3.64q0 1.906-.656 2.843-.64.922-2.031.922-1.36 0-2.016-.906-.656-.907-.687-2.72v-1.437q0-1.89.64-2.796.657-.922 2.047-.922 1.375 0 2.032.89.656.875.671 2.719v1.406zm-1.093-1.485q0-1.375-.39-2-.376-.64-1.22-.64-.828 0-1.218.64-.375.625-.375 1.922v1.734q0 1.375.39 2.047.406.656 1.219.656.797 0 1.188-.625.39-.625.406-1.953v-1.781z"/><path fill="#fff" d="M398.969 260.368h-2.25q.031 1.14.547 1.766.53.609 1.5.609.687 0 1.28-.203l.126.937q-.703.188-1.406.188-1.454 0-2.297-.86-.828-.859-.875-2.437h-1.031v-.719h1.03v-.812h-1.03v-.735h1.03q.063-1.53.891-2.375.844-.843 2.266-.843.625 0 1.422.187l-.125.953q-.64-.203-1.281-.203-.97 0-1.485.594-.515.594-.547 1.687h2.235v.735h-2.25v.812h2.25v.719zm8.328 3.172h-5.594v-.781l2.953-3.282q.656-.75.906-1.203.25-.469.25-.969 0-.671-.406-1.093-.39-.438-1.078-.438-.797 0-1.25.469-.453.453-.453 1.281h-1.078q0-1.187.75-1.906.765-.734 2.031-.734 1.203 0 1.89.625.688.625.688 1.672 0 1.25-1.61 3l-2.28 2.468h4.28v.89zm6.594-6.313q0 .641-.344 1.141t-.906.781q.656.281 1.046.844.391.547.391 1.25 0 1.094-.75 1.766-.734.656-1.953.656-1.234 0-1.984-.656-.735-.672-.735-1.766 0-.703.375-1.25.375-.563 1.047-.844-.562-.281-.89-.781-.329-.5-.329-1.14 0-1.079.688-1.704.687-.64 1.828-.64 1.125 0 1.813.64.703.625.703 1.703zm-.891 3.985q0-.719-.453-1.156-.453-.454-1.188-.454-.734 0-1.187.454-.438.437-.438 1.171 0 .72.438 1.141.437.406 1.203.406.75 0 1.188-.422.437-.421.437-1.14zm-1.625-5.438q-.64 0-1.047.406-.39.391-.39 1.079 0 .64.39 1.046.39.407 1.031.407.657 0 1.047-.406.39-.407.39-1.047 0-.657-.405-1.063-.407-.422-1.016-.422zm4.406 9.469l-.61-.422q.548-.766.579-1.594v-.968h1.063v.843q0 .594-.297 1.188t-.735.953zm7.281-5.344q0 1.906-.656 2.844-.64.922-2.031.922-1.36 0-2.016-.906-.656-.907-.687-2.72v-1.437q0-1.89.64-2.796.657-.922 2.047-.922 1.375 0 2.032.89.656.875.671 2.719v1.406zm-1.093-1.484q0-1.375-.39-2-.376-.64-1.22-.64-.828 0-1.218.64-.375.625-.375 1.922v1.734q0 1.375.39 2.047.406.656 1.219.656.797 0 1.188-.625.39-.625.406-1.953v-1.781zm6.297 5.125h-1.079v-7.219l-2.187.797v-.984l3.11-1.172h.156v8.578zm8.796-3.64q0 1.906-.656 2.843-.64.922-2.031.922-1.36 0-2.016-.906-.656-.907-.687-2.72v-1.437q0-1.89.64-2.796.657-.922 2.047-.922 1.375 0 2.032.89.656.875.671 2.719v1.406zm-1.093-1.485q0-1.375-.39-2-.376-.64-1.22-.64-.828 0-1.218.64-.375.625-.375 1.922v1.734q0 1.375.39 2.047.406.656 1.219.656.797 0 1.188-.625.39-.625.406-1.953v-1.781z"/><path stroke="#c00" stroke-width="3" stroke-linejoin="round" stroke-linecap="round" d="M533.969 243.207h-2.25q.031 1.14.547 1.766.53.61 1.5.61.687 0 1.28-.204l.126.938q-.703.187-1.406.187-1.453 0-2.297-.86-.828-.859-.875-2.437h-1.032v-.719h1.032v-.812h-1.032v-.734h1.032q.062-1.532.89-2.375.844-.844 2.266-.844.625 0 1.422.187l-.125.953q-.64-.203-1.281-.203-.97 0-1.485.594-.515.594-.547 1.688h2.235v.734h-2.25v.812h2.25v.72zm8.328 3.172h-5.594v-.781l2.953-3.281q.657-.75.907-1.204.25-.468.25-.968 0-.672-.407-1.094-.39-.438-1.078-.438-.797 0-1.25.47-.453.452-.453 1.28h-1.078q0-1.187.75-1.906.765-.734 2.031-.734 1.203 0 1.89.625.688.625.688 1.672 0 1.25-1.61 3l-2.28 2.468h4.28v.891zm5.562-3.75q-.328.406-.812.656-.469.235-1.031.235-.735 0-1.282-.36t-.843-1.015q-.297-.672-.297-1.47 0-.843.312-1.53.328-.688.922-1.047.61-.375 1.406-.375 1.266 0 1.985.953.734.953.734 2.578v.313q0 2.5-.984 3.64-.985 1.14-2.969 1.172h-.219v-.906h.235q1.343-.031 2.062-.703.719-.672.781-2.141zm-1.672 0q.547 0 1-.328.47-.344.688-.828v-.438q0-1.062-.469-1.734-.468-.672-1.172-.672-.718 0-1.156.547-.422.547-.422 1.453 0 .875.407 1.438.421.562 1.125.562zm4.594 5.453l-.61-.422q.548-.765.579-1.593v-.97h1.063v.845q0 .593-.297 1.187-.297.594-.735.953zm6.188-10.234v.906h-.203q-1.266.031-2.016.766-.75.718-.875 2.03.688-.765 1.844-.765 1.11 0 1.781.782.672.78.672 2.03 0 1.313-.719 2.11-.719.797-1.937.797-1.22 0-1.985-.937-.75-.954-.75-2.438v-.406q0-2.36 1-3.61t2.985-1.265h.203zm-1.422 3.844q-.563 0-1.031.328-.47.328-.657.843v.391q0 1.063.47 1.703.484.64 1.187.64.734 0 1.156-.53.422-.547.422-1.422 0-.875-.422-1.407-.422-.546-1.125-.546zm5.734-.11h.813q.781-.015 1.218-.406.438-.39.438-1.063 0-1.5-1.5-1.5-.703 0-1.125.407-.406.406-.406 1.062h-1.094q0-1.015.734-1.687.75-.672 1.891-.672 1.203 0 1.89.64.688.641.688 1.782 0 .562-.36 1.078-.359.515-.984.781.703.219 1.078.734.391.516.391 1.266 0 1.14-.75 1.828-.75.672-1.953.672-1.188 0-1.953-.656-.75-.656-.75-1.719h1.094q0 .672.437 1.078.438.406 1.188.406.78 0 1.187-.406.422-.422.422-1.187 0-.735-.453-1.125-.453-.407-1.328-.422h-.813v-.89zm8.985 4.797h-1.078v-7.219l-2.188.797v-.984l3.11-1.172h.156v8.578z"/><path fill="#fff" d="M533.969 243.207h-2.25q.031 1.14.547 1.766.53.61 1.5.61.687 0 1.28-.204l.126.938q-.703.187-1.406.187-1.453 0-2.297-.86-.828-.859-.875-2.437h-1.032v-.719h1.032v-.812h-1.032v-.734h1.032q.062-1.532.89-2.375.844-.844 2.266-.844.625 0 1.422.187l-.125.953q-.64-.203-1.281-.203-.97 0-1.485.594-.515.594-.547 1.688h2.235v.734h-2.25v.812h2.25v.72zm8.328 3.172h-5.594v-.781l2.953-3.281q.657-.75.907-1.204.25-.468.25-.968 0-.672-.407-1.094-.39-.438-1.078-.438-.797 0-1.25.47-.453.452-.453 1.28h-1.078q0-1.187.75-1.906.765-.734 2.031-.734 1.203 0 1.89.625.688.625.688 1.672 0 1.25-1.61 3l-2.28 2.468h4.28v.891zm5.562-3.75q-.328.406-.812.656-.469.235-1.031.235-.735 0-1.282-.36t-.843-1.015q-.297-.672-.297-1.47 0-.843.312-1.53.328-.688.922-1.047.61-.375 1.406-.375 1.266 0 1.985.953.734.953.734 2.578v.313q0 2.5-.984 3.64-.985 1.14-2.969 1.172h-.219v-.906h.235q1.343-.031 2.062-.703.719-.672.781-2.141zm-1.672 0q.547 0 1-.328.47-.344.688-.828v-.438q0-1.062-.469-1.734-.468-.672-1.172-.672-.718 0-1.156.547-.422.547-.422 1.453 0 .875.407 1.438.421.562 1.125.562zm4.594 5.453l-.61-.422q.548-.765.579-1.593v-.97h1.063v.845q0 .593-.297 1.187-.297.594-.735.953zm6.188-10.234v.906h-.203q-1.266.031-2.016.766-.75.718-.875 2.03.688-.765 1.844-.765 1.11 0 1.781.782.672.78.672 2.03 0 1.313-.719 2.11-.719.797-1.937.797-1.22 0-1.985-.937-.75-.954-.75-2.438v-.406q0-2.36 1-3.61t2.985-1.265h.203zm-1.422 3.844q-.563 0-1.031.328-.47.328-.657.843v.391q0 1.063.47 1.703.484.64 1.187.64.734 0 1.156-.53.422-.547.422-1.422 0-.875-.422-1.407-.422-.546-1.125-.546zm5.734-.11h.813q.781-.015 1.218-.406.438-.39.438-1.063 0-1.5-1.5-1.5-.703 0-1.125.407-.406.406-.406 1.062h-1.094q0-1.015.734-1.687.75-.672 1.891-.672 1.203 0 1.89.64.688.641.688 1.782 0 .562-.36 1.078-.359.515-.984.781.703.219 1.078.734.391.516.391 1.266 0 1.14-.75 1.828-.75.672-1.953.672-1.188 0-1.953-.656-.75-.656-.75-1.719h1.094q0 .672.437 1.078.438.406 1.188.406.78 0 1.187-.406.422-.422.422-1.187 0-.735-.453-1.125-.453-.407-1.328-.422h-.813v-.89zm8.985 4.797h-1.078v-7.219l-2.188.797v-.984l3.11-1.172h.156v8.578z"/><path stroke="#c00" stroke-width="3" stroke-linejoin="round" stroke-linecap="round" d="M667.969 243.207h-2.25q.031 1.14.547 1.766.53.61 1.5.61.687 0 1.28-.204l.126.938q-.703.187-1.406.187-1.453 0-2.297-.86-.828-.859-.875-2.437h-1.032v-.719h1.032v-.812h-1.032v-.734h1.032q.062-1.532.89-2.375.844-.844 2.266-.844.625 0 1.422.187l-.125.953q-.64-.203-1.281-.203-.97 0-1.485.594-.515.594-.547 1.688h2.235v.734h-2.25v.812h2.25v.72zm8.328 3.172h-5.594v-.781l2.953-3.281q.657-.75.907-1.204.25-.468.25-.968 0-.672-.407-1.094-.39-.438-1.078-.438-.797 0-1.25.47-.453.452-.453 1.28h-1.078q0-1.187.75-1.906.765-.734 2.031-.734 1.203 0 1.89.625.688.625.688 1.672 0 1.25-1.61 3l-2.28 2.468h4.28v.891zm5.562-3.75q-.328.406-.812.656-.469.235-1.031.235-.735 0-1.282-.36t-.843-1.015q-.297-.672-.297-1.47 0-.843.312-1.53.328-.688.922-1.047.61-.375 1.406-.375 1.266 0 1.985.953.734.953.734 2.578v.313q0 2.5-.984 3.64-.985 1.14-2.969 1.172h-.219v-.906h.235q1.343-.031 2.062-.703.719-.672.781-2.141zm-1.672 0q.547 0 1-.328.47-.344.688-.828v-.438q0-1.062-.469-1.734-.468-.672-1.172-.672-.718 0-1.156.547-.422.547-.422 1.453 0 .875.407 1.438.421.562 1.125.562zm4.594 5.453l-.61-.422q.548-.765.579-1.593v-.97h1.063v.845q0 .593-.297 1.187-.297.594-.735.953zm6.188-10.234v.906h-.203q-1.266.031-2.016.766-.75.718-.875 2.03.688-.765 1.844-.765 1.11 0 1.781.782.672.78.672 2.03 0 1.313-.719 2.11-.719.797-1.937.797-1.22 0-1.985-.937-.75-.954-.75-2.438v-.406q0-2.36 1-3.61t2.985-1.265h.203zm-1.422 3.844q-.563 0-1.031.328-.47.328-.657.843v.391q0 1.063.47 1.703.484.64 1.187.64.734 0 1.156-.53.422-.547.422-1.422 0-.875-.422-1.407-.422-.546-1.125-.546zm5.734-.11h.813q.781-.015 1.218-.406.438-.39.438-1.063 0-1.5-1.5-1.5-.703 0-1.125.407-.406.406-.406 1.062h-1.094q0-1.015.734-1.687.75-.672 1.891-.672 1.203 0 1.89.64.688.641.688 1.782 0 .562-.36 1.078-.359.515-.984.781.703.219 1.078.734.391.516.391 1.266 0 1.14-.75 1.828-.75.672-1.953.672-1.188 0-1.953-.656-.75-.656-.75-1.719h1.094q0 .672.437 1.078.438.406 1.188.406.78 0 1.187-.406.422-.422.422-1.187 0-.735-.453-1.125-.453-.407-1.328-.422h-.813v-.89zm8.985 4.797h-1.078v-7.219l-2.188.797v-.984l3.11-1.172h.156v8.578z"/><path fill="#fff" d="M667.969 243.207h-2.25q.031 1.14.547 1.766.53.61 1.5.61.687 0 1.28-.204l.126.938q-.703.187-1.406.187-1.453 0-2.297-.86-.828-.859-.875-2.437h-1.032v-.719h1.032v-.812h-1.032v-.734h1.032q.062-1.532.89-2.375.844-.844 2.266-.844.625 0 1.422.187l-.125.953q-.64-.203-1.281-.203-.97 0-1.485.594-.515.594-.547 1.688h2.235v.734h-2.25v.812h2.25v.72zm8.328 3.172h-5.594v-.781l2.953-3.281q.657-.75.907-1.204.25-.468.25-.968 0-.672-.407-1.094-.39-.438-1.078-.438-.797 0-1.25.47-.453.452-.453 1.28h-1.078q0-1.187.75-1.906.765-.734 2.031-.734 1.203 0 1.89.625.688.625.688 1.672 0 1.25-1.61 3l-2.28 2.468h4.28v.891zm5.562-3.75q-.328.406-.812.656-.469.235-1.031.235-.735 0-1.282-.36t-.843-1.015q-.297-.672-.297-1.47 0-.843.312-1.53.328-.688.922-1.047.61-.375 1.406-.375 1.266 0 1.985.953.734.953.734 2.578v.313q0 2.5-.984 3.64-.985 1.14-2.969 1.172h-.219v-.906h.235q1.343-.031 2.062-.703.719-.672.781-2.141zm-1.672 0q.547 0 1-.328.47-.344.688-.828v-.438q0-1.062-.469-1.734-.468-.672-1.172-.672-.718 0-1.156.547-.422.547-.422 1.453 0 .875.407 1.438.421.562 1.125.562zm4.594 5.453l-.61-.422q.548-.765.579-1.593v-.97h1.063v.845q0 .593-.297 1.187-.297.594-.735.953zm6.188-10.234v.906h-.203q-1.266.031-2.016.766-.75.718-.875 2.03.688-.765 1.844-.765 1.11 0 1.781.782.672.78.672 2.03 0 1.313-.719 2.11-.719.797-1.937.797-1.22 0-1.985-.937-.75-.954-.75-2.438v-.406q0-2.36 1-3.61t2.985-1.265h.203zm-1.422 3.844q-.563 0-1.031.328-.47.328-.657.843v.391q0 1.063.47 1.703.484.64 1.187.64.734 0 1.156-.53.422-.547.422-1.422 0-.875-.422-1.407-.422-.546-1.125-.546zm5.734-.11h.813q.781-.015 1.218-.406.438-.39.438-1.063 0-1.5-1.5-1.5-.703 0-1.125.407-.406.406-.406 1.062h-1.094q0-1.015.734-1.687.75-.672 1.891-.672 1.203 0 1.89.64.688.641.688 1.782 0 .562-.36 1.078-.359.515-.984.781.703.219 1.078.734.391.516.391 1.266 0 1.14-.75 1.828-.75.672-1.953.672-1.188 0-1.953-.656-.75-.656-.75-1.719h1.094q0 .672.437 1.078.438.406 1.188.406.78 0 1.187-.406.422-.422.422-1.187 0-.735-.453-1.125-.453-.407-1.328-.422h-.813v-.89zm8.985 4.797h-1.078v-7.219l-2.188.797v-.984l3.11-1.172h.156v8.578z"/><path stroke="#c00" stroke-width="3" stroke-linejoin="round" stroke-linecap="round" d="M801.969 235.494h-2.25q.031 1.14.547 1.766.53.609 1.5.609.687 0 1.28-.203l.126.937q-.703.188-1.406.188-1.453 0-2.297-.86-.828-.859-.875-2.437h-1.032v-.719h1.032v-.812h-1.032v-.735h1.032q.062-1.53.89-2.375.844-.843 2.266-.843.625 0 1.422.187l-.125.953q-.64-.203-1.281-.203-.97 0-1.485.594-.515.594-.547 1.687h2.235v.735h-2.25v.812h2.25v.719zm4.312-1.625h.813q.781-.016 1.218-.406.438-.39.438-1.063 0-1.5-1.5-1.5-.703 0-1.125.407-.406.406-.406 1.062h-1.094q0-1.016.734-1.687.75-.672 1.891-.672 1.203 0 1.89.64.688.64.688 1.782 0 .562-.36 1.078-.359.515-.984.78.703.22 1.078.735.391.516.391 1.266 0 1.14-.75 1.828-.75.672-1.953.672-1.188 0-1.953-.656-.75-.657-.75-1.72h1.094q0 .673.437 1.079.438.406 1.188.406.78 0 1.187-.406.422-.422.422-1.187 0-.735-.453-1.125-.453-.407-1.328-.422h-.813v-.891zm10.782 1.156q0 1.907-.657 2.844-.64.922-2.031.922-1.36 0-2.016-.906-.656-.907-.687-2.72v-1.437q0-1.89.64-2.796.657-.922 2.047-.922 1.375 0 2.032.89.656.875.672 2.719v1.406zm-1.094-1.484q0-1.375-.39-2-.376-.64-1.22-.64-.828 0-1.218.64-.375.625-.375 1.922v1.734q0 1.375.39 2.047.407.656 1.219.656.797 0 1.188-.625.39-.625.406-1.953v-1.781zm2.812 6.828l-.61-.422q.548-.765.579-1.594v-.968h1.063v.843q0 .594-.297 1.188t-.735.953zm3.5-6.5h.813q.781-.016 1.218-.406.438-.39.438-1.063 0-1.5-1.5-1.5-.703 0-1.125.407-.406.406-.406 1.062h-1.094q0-1.016.734-1.687.75-.672 1.891-.672 1.203 0 1.89.64.688.64.688 1.782 0 .562-.36 1.078-.359.515-.984.78.703.22 1.078.735.391.516.391 1.266 0 1.14-.75 1.828-.75.672-1.953.672-1.188 0-1.953-.656-.75-.657-.75-1.72h1.094q0 .673.437 1.079.438.406 1.188.406.78 0 1.187-.406.422-.422.422-1.187 0-.735-.453-1.125-.453-.407-1.328-.422h-.813v-.891zm9.688-3.734v.906h-.203q-1.266.031-2.016.766-.75.718-.875 2.03.688-.765 1.844-.765 1.11 0 1.781.781.672.782.672 2.032 0 1.312-.719 2.109-.719.797-1.937.797-1.22 0-1.985-.938-.75-.953-.75-2.437v-.406q0-2.36 1-3.61t2.985-1.265h.203zm-1.422 3.843q-.563 0-1.031.329-.47.328-.657.843v.39q0 1.063.47 1.704.484.64 1.187.64.734 0 1.156-.53.422-.547.422-1.422 0-.875-.422-1.407-.422-.547-1.125-.547zm9.515 1.047q0 1.907-.656 2.844-.64.922-2.031.922-1.36 0-2.016-.906-.656-.907-.687-2.72v-1.437q0-1.89.64-2.796.657-.922 2.047-.922 1.375 0 2.032.89.656.875.672 2.719v1.406zm-1.093-1.484q0-1.375-.39-2-.376-.64-1.22-.64-.828 0-1.218.64-.375.625-.375 1.922v1.734q0 1.375.39 2.047.407.656 1.219.656.797 0 1.188-.625.39-.625.406-1.953v-1.781z"/><path fill="#fff" d="M801.969 235.494h-2.25q.031 1.14.547 1.766.53.609 1.5.609.687 0 1.28-.203l.126.937q-.703.188-1.406.188-1.453 0-2.297-.86-.828-.859-.875-2.437h-1.032v-.719h1.032v-.812h-1.032v-.735h1.032q.062-1.53.89-2.375.844-.843 2.266-.843.625 0 1.422.187l-.125.953q-.64-.203-1.281-.203-.97 0-1.485.594-.515.594-.547 1.687h2.235v.735h-2.25v.812h2.25v.719zm4.312-1.625h.813q.781-.016 1.218-.406.438-.39.438-1.063 0-1.5-1.5-1.5-.703 0-1.125.407-.406.406-.406 1.062h-1.094q0-1.016.734-1.687.75-.672 1.891-.672 1.203 0 1.89.64.688.64.688 1.782 0 .562-.36 1.078-.359.515-.984.78.703.22 1.078.735.391.516.391 1.266 0 1.14-.75 1.828-.75.672-1.953.672-1.188 0-1.953-.656-.75-.657-.75-1.72h1.094q0 .673.437 1.079.438.406 1.188.406.78 0 1.187-.406.422-.422.422-1.187 0-.735-.453-1.125-.453-.407-1.328-.422h-.813v-.891zm10.782 1.156q0 1.907-.657 2.844-.64.922-2.031.922-1.36 0-2.016-.906-.656-.907-.687-2.72v-1.437q0-1.89.64-2.796.657-.922 2.047-.922 1.375 0 2.032.89.656.875.672 2.719v1.406zm-1.094-1.484q0-1.375-.39-2-.376-.64-1.22-.64-.828 0-1.218.64-.375.625-.375 1.922v1.734q0 1.375.39 2.047.407.656 1.219.656.797 0 1.188-.625.39-.625.406-1.953v-1.781zm2.812 6.828l-.61-.422q.548-.765.579-1.594v-.968h1.063v.843q0 .594-.297 1.188t-.735.953zm3.5-6.5h.813q.781-.016 1.218-.406.438-.39.438-1.063 0-1.5-1.5-1.5-.703 0-1.125.407-.406.406-.406 1.062h-1.094q0-1.016.734-1.687.75-.672 1.891-.672 1.203 0 1.89.64.688.64.688 1.782 0 .562-.36 1.078-.359.515-.984.78.703.22 1.078.735.391.516.391 1.266 0 1.14-.75 1.828-.75.672-1.953.672-1.188 0-1.953-.656-.75-.657-.75-1.72h1.094q0 .673.437 1.079.438.406 1.188.406.78 0 1.187-.406.422-.422.422-1.187 0-.735-.453-1.125-.453-.407-1.328-.422h-.813v-.891zm9.688-3.734v.906h-.203q-1.266.031-2.016.766-.75.718-.875 2.03.688-.765 1.844-.765 1.11 0 1.781.781.672.782.672 2.032 0 1.312-.719 2.109-.719.797-1.937.797-1.22 0-1.985-.938-.75-.953-.75-2.437v-.406q0-2.36 1-3.61t2.985-1.265h.203zm-1.422 3.843q-.563 0-1.031.329-.47.328-.657.843v.39q0 1.063.47 1.704.484.64 1.187.64.734 0 1.156-.53.422-.547.422-1.422 0-.875-.422-1.407-.422-.547-1.125-.547zm9.515 1.047q0 1.907-.656 2.844-.64.922-2.031.922-1.36 0-2.016-.906-.656-.907-.687-2.72v-1.437q0-1.89.64-2.796.657-.922 2.047-.922 1.375 0 2.032.89.656.875.672 2.719v1.406zm-1.093-1.484q0-1.375-.39-2-.376-.64-1.22-.64-.828 0-1.218.64-.375.625-.375 1.922v1.734q0 1.375.39 2.047.407.656 1.219.656.797 0 1.188-.625.39-.625.406-1.953v-1.781z"/><path stroke="#3d85c6" stroke-width="3" stroke-linejoin="round" stroke-linecap="round" d="M174.969 286.265h-2.25q.031 1.14.547 1.766.53.61 1.5.61.687 0 1.28-.204l.126.938q-.703.187-1.406.187-1.453 0-2.297-.86-.828-.859-.875-2.437h-1.031v-.719h1.03v-.812h-1.03V284h1.03q.063-1.532.891-2.375.844-.844 2.266-.844.625 0 1.422.187l-.125.953q-.64-.203-1.281-.203-.97 0-1.485.594-.515.594-.547 1.688h2.235v.734h-2.25v.812h2.25v.72zm8.328 3.172h-5.594v-.781l2.953-3.281q.656-.75.906-1.204.25-.468.25-.968 0-.672-.406-1.094-.39-.438-1.078-.438-.797 0-1.25.47-.453.452-.453 1.28h-1.078q0-1.187.75-1.906.766-.734 2.031-.734 1.203 0 1.89.625.688.625.688 1.672 0 1.25-1.61 3l-2.28 2.468h4.28v.891zm1.906-4.281l.438-4.25h4.375v1h-3.453l-.266 2.328q.64-.375 1.437-.375 1.157 0 1.844.781.688.766.688 2.078 0 1.313-.72 2.078-.702.766-1.983.766-1.125 0-1.844-.625-.719-.64-.813-1.75h1.016q.11.734.531 1.11.422.374 1.11.374.75 0 1.187-.515.438-.516.438-1.422 0-.86-.47-1.375-.468-.516-1.25-.516-.702 0-1.109.297l-.28.235-.876-.22zm6.578 5.984l-.61-.422q.548-.765.579-1.594v-.968h1.063V289q0 .593-.297 1.187-.297.594-.735.953zm2.422-5.984l.438-4.25h4.375v1h-3.453l-.266 2.328q.64-.375 1.437-.375 1.157 0 1.844.781.688.766.688 2.078 0 1.313-.72 2.078-.702.766-1.983.766-1.125 0-1.844-.625-.719-.64-.813-1.75h1.016q.11.734.531 1.11.422.374 1.11.374.75 0 1.187-.515.438-.516.438-1.422 0-.86-.47-1.375-.468-.516-1.25-.516-.702 0-1.109.297l-.28.235-.876-.22zm10.766-4.25v.906h-.203q-1.266.031-2.016.766-.75.718-.875 2.03.688-.765 1.844-.765 1.11 0 1.781.781.672.782.672 2.032 0 1.312-.719 2.11-.719.796-1.937.796-1.22 0-1.985-.938-.75-.953-.75-2.437v-.406q0-2.36 1-3.61t2.985-1.265h.203zm-1.422 3.844q-.563 0-1.031.328-.47.328-.657.843v.391q0 1.063.47 1.703.483.64 1.187.64.734 0 1.156-.53.422-.547.422-1.422 0-.875-.422-1.407-.422-.546-1.125-.546zm8.734 1.828h1.188v.875h-1.188v1.984h-1.078v-1.984h-3.89v-.641l3.812-5.906h1.156v5.672zm-3.734 0h2.656v-4.188l-.14.235-2.516 3.953z"/><path fill="#fff" d="M174.969 286.265h-2.25q.031 1.14.547 1.766.53.61 1.5.61.687 0 1.28-.204l.126.938q-.703.187-1.406.187-1.453 0-2.297-.86-.828-.859-.875-2.437h-1.031v-.719h1.03v-.812h-1.03V284h1.03q.063-1.532.891-2.375.844-.844 2.266-.844.625 0 1.422.187l-.125.953q-.64-.203-1.281-.203-.97 0-1.485.594-.515.594-.547 1.688h2.235v.734h-2.25v.812h2.25v.72zm8.328 3.172h-5.594v-.781l2.953-3.281q.656-.75.906-1.204.25-.468.25-.968 0-.672-.406-1.094-.39-.438-1.078-.438-.797 0-1.25.47-.453.452-.453 1.28h-1.078q0-1.187.75-1.906.766-.734 2.031-.734 1.203 0 1.89.625.688.625.688 1.672 0 1.25-1.61 3l-2.28 2.468h4.28v.891zm1.906-4.281l.438-4.25h4.375v1h-3.453l-.266 2.328q.64-.375 1.437-.375 1.157 0 1.844.781.688.766.688 2.078 0 1.313-.72 2.078-.702.766-1.983.766-1.125 0-1.844-.625-.719-.64-.813-1.75h1.016q.11.734.531 1.11.422.374 1.11.374.75 0 1.187-.515.438-.516.438-1.422 0-.86-.47-1.375-.468-.516-1.25-.516-.702 0-1.109.297l-.28.235-.876-.22zm6.578 5.984l-.61-.422q.548-.765.579-1.594v-.968h1.063V289q0 .593-.297 1.187-.297.594-.735.953zm2.422-5.984l.438-4.25h4.375v1h-3.453l-.266 2.328q.64-.375 1.437-.375 1.157 0 1.844.781.688.766.688 2.078 0 1.313-.72 2.078-.702.766-1.983.766-1.125 0-1.844-.625-.719-.64-.813-1.75h1.016q.11.734.531 1.11.422.374 1.11.374.75 0 1.187-.515.438-.516.438-1.422 0-.86-.47-1.375-.468-.516-1.25-.516-.702 0-1.109.297l-.28.235-.876-.22zm10.766-4.25v.906h-.203q-1.266.031-2.016.766-.75.718-.875 2.03.688-.765 1.844-.765 1.11 0 1.781.781.672.782.672 2.032 0 1.312-.719 2.11-.719.796-1.937.796-1.22 0-1.985-.938-.75-.953-.75-2.437v-.406q0-2.36 1-3.61t2.985-1.265h.203zm-1.422 3.844q-.563 0-1.031.328-.47.328-.657.843v.391q0 1.063.47 1.703.483.64 1.187.64.734 0 1.156-.53.422-.547.422-1.422 0-.875-.422-1.407-.422-.546-1.125-.546zm8.734 1.828h1.188v.875h-1.188v1.984h-1.078v-1.984h-3.89v-.641l3.812-5.906h1.156v5.672zm-3.734 0h2.656v-4.188l-.14.235-2.516 3.953z"/><path stroke="#3d85c6" stroke-width="3" stroke-linejoin="round" stroke-linecap="round" d="M308.969 261.957h-2.25q.031 1.14.547 1.765.53.61 1.5.61.687 0 1.28-.203l.126.937q-.703.188-1.406.188-1.454 0-2.297-.86-.828-.86-.875-2.437h-1.031v-.72h1.03v-.812h-1.03v-.734h1.03q.063-1.531.891-2.375.844-.844 2.266-.844.625 0 1.422.188l-.125.953q-.64-.203-1.281-.203-.97 0-1.485.594-.515.593-.547 1.687h2.235v.734h-2.25v.813h2.25v.719zm8.328 3.172h-5.594v-.782l2.953-3.281q.656-.75.906-1.203.25-.469.25-.969 0-.672-.406-1.094-.39-.437-1.078-.437-.797 0-1.25.469-.453.453-.453 1.28h-1.078q0-1.187.75-1.905.765-.735 2.031-.735 1.203 0 1.89.625.688.625.688 1.672 0 1.25-1.61 3l-2.28 2.469h4.28v.89zm6.922-7.922l-3.531 7.922h-1.141l3.515-7.641h-4.609v-.89h5.766v.609zm1.562 9.625l-.61-.422q.548-.766.579-1.594v-.969h1.063v.844q0 .594-.297 1.188-.297.593-.735.953zm7.11-8.016q0 .64-.344 1.14-.344.5-.906.782.656.281 1.046.844.391.547.391 1.25 0 1.093-.75 1.765-.734.657-1.953.657-1.234 0-1.984-.657-.735-.672-.735-1.765 0-.703.375-1.25.375-.563 1.047-.844-.562-.281-.89-.781-.329-.5-.329-1.141 0-1.078.688-1.703.687-.64 1.828-.64 1.125 0 1.813.64.703.625.703 1.703zM332 262.8q0-.718-.453-1.156-.453-.453-1.188-.453-.734 0-1.187.453-.438.438-.438 1.172 0 .719.438 1.14.437.407 1.203.407.75 0 1.188-.422.437-.422.437-1.14zm-1.625-5.437q-.64 0-1.047.406-.39.39-.39 1.078 0 .64.39 1.047.39.406 1.031.406.657 0 1.047-.406.39-.406.39-1.047 0-.656-.405-1.062-.407-.422-1.016-.422zm8.594-.766v.907h-.203q-1.266.03-2.016.765-.75.719-.875 2.031.688-.765 1.844-.765 1.11 0 1.781.781.672.781.672 2.031 0 1.313-.719 2.11-.719.797-1.937.797-1.22 0-1.985-.938-.75-.953-.75-2.437v-.407q0-2.36 1-3.61t2.985-1.265h.203zm-1.422 3.844q-.563 0-1.031.328-.47.328-.657.844v.39q0 1.063.47 1.704.483.64 1.187.64.734 0 1.156-.531.422-.547.422-1.422 0-.875-.422-1.406-.422-.547-1.125-.547zm9.515 1.047q0 1.906-.656 2.844-.64.922-2.031.922-1.36 0-2.016-.907-.656-.906-.687-2.718v-1.438q0-1.89.64-2.797.657-.922 2.047-.922 1.375 0 2.032.89.656.876.671 2.72v1.406zm-1.093-1.484q0-1.375-.39-2-.376-.641-1.22-.641-.828 0-1.218.64-.375.626-.375 1.922v1.735q0 1.375.39 2.047.406.656 1.219.656.797 0 1.188-.625.39-.625.406-1.953v-1.781z"/><path fill="#fff" d="M308.969 261.957h-2.25q.031 1.14.547 1.765.53.61 1.5.61.687 0 1.28-.203l.126.937q-.703.188-1.406.188-1.454 0-2.297-.86-.828-.86-.875-2.437h-1.031v-.72h1.03v-.812h-1.03v-.734h1.03q.063-1.531.891-2.375.844-.844 2.266-.844.625 0 1.422.188l-.125.953q-.64-.203-1.281-.203-.97 0-1.485.594-.515.593-.547 1.687h2.235v.734h-2.25v.813h2.25v.719zm8.328 3.172h-5.594v-.782l2.953-3.281q.656-.75.906-1.203.25-.469.25-.969 0-.672-.406-1.094-.39-.437-1.078-.437-.797 0-1.25.469-.453.453-.453 1.28h-1.078q0-1.187.75-1.905.765-.735 2.031-.735 1.203 0 1.89.625.688.625.688 1.672 0 1.25-1.61 3l-2.28 2.469h4.28v.89zm6.922-7.922l-3.531 7.922h-1.141l3.515-7.641h-4.609v-.89h5.766v.609zm1.562 9.625l-.61-.422q.548-.766.579-1.594v-.969h1.063v.844q0 .594-.297 1.188-.297.593-.735.953zm7.11-8.016q0 .64-.344 1.14-.344.5-.906.782.656.281 1.046.844.391.547.391 1.25 0 1.093-.75 1.765-.734.657-1.953.657-1.234 0-1.984-.657-.735-.672-.735-1.765 0-.703.375-1.25.375-.563 1.047-.844-.562-.281-.89-.781-.329-.5-.329-1.141 0-1.078.688-1.703.687-.64 1.828-.64 1.125 0 1.813.64.703.625.703 1.703zM332 262.8q0-.718-.453-1.156-.453-.453-1.188-.453-.734 0-1.187.453-.438.438-.438 1.172 0 .719.438 1.14.437.407 1.203.407.75 0 1.188-.422.437-.422.437-1.14zm-1.625-5.437q-.64 0-1.047.406-.39.39-.39 1.078 0 .64.39 1.047.39.406 1.031.406.657 0 1.047-.406.39-.406.39-1.047 0-.656-.405-1.062-.407-.422-1.016-.422zm8.594-.766v.907h-.203q-1.266.03-2.016.765-.75.719-.875 2.031.688-.765 1.844-.765 1.11 0 1.781.781.672.781.672 2.031 0 1.313-.719 2.11-.719.797-1.937.797-1.22 0-1.985-.938-.75-.953-.75-2.437v-.407q0-2.36 1-3.61t2.985-1.265h.203zm-1.422 3.844q-.563 0-1.031.328-.47.328-.657.844v.39q0 1.063.47 1.704.483.64 1.187.64.734 0 1.156-.531.422-.547.422-1.422 0-.875-.422-1.406-.422-.547-1.125-.547zm9.515 1.047q0 1.906-.656 2.844-.64.922-2.031.922-1.36 0-2.016-.907-.656-.906-.687-2.718v-1.438q0-1.89.64-2.797.657-.922 2.047-.922 1.375 0 2.032.89.656.876.671 2.72v1.406zm-1.093-1.484q0-1.375-.39-2-.376-.641-1.22-.641-.828 0-1.218.64-.375.626-.375 1.922v1.735q0 1.375.39 2.047.406.656 1.219.656.797 0 1.188-.625.39-.625.406-1.953v-1.781z"/><path stroke="#3d85c6" stroke-width="3" stroke-linejoin="round" stroke-linecap="round" d="M442.969 265.48h-2.25q.031 1.14.547 1.766.53.61 1.5.61.687 0 1.28-.204l.126.937q-.703.188-1.406.188-1.454 0-2.297-.86-.828-.859-.875-2.437h-1.031v-.719h1.03v-.812h-1.03v-.735h1.03q.063-1.53.891-2.375.844-.843 2.266-.843.625 0 1.422.187l-.125.953q-.64-.203-1.281-.203-.97 0-1.485.594-.515.594-.547 1.687h2.235v.735h-2.25v.812h2.25v.72zm8.328 3.172h-5.594v-.781l2.953-3.282q.656-.75.906-1.203.25-.468.25-.968 0-.672-.406-1.094-.39-.438-1.078-.438-.797 0-1.25.47-.453.452-.453 1.28h-1.078q0-1.187.75-1.906.765-.734 2.031-.734 1.203 0 1.89.625.688.625.688 1.672 0 1.25-1.61 3l-2.28 2.468h4.28v.891zm6.922-7.922l-3.531 7.922h-1.141l3.515-7.64h-4.609v-.891h5.766v.61zm1.562 9.625l-.61-.422q.548-.765.579-1.594v-.968h1.063v.843q0 .594-.297 1.188t-.735.953zm2.422-5.984l.438-4.25h4.375v1h-3.454l-.265 2.328q.64-.375 1.437-.375 1.157 0 1.844.781.688.766.688 2.078 0 1.313-.72 2.078-.702.766-1.983.766-1.125 0-1.844-.625-.719-.64-.813-1.75h1.016q.11.734.531 1.11.422.374 1.11.374.75 0 1.187-.515.438-.516.438-1.422 0-.86-.47-1.375-.468-.516-1.25-.516-.702 0-1.109.297l-.28.234-.876-.218zm12.094 4.281h-5.594v-.781l2.953-3.282q.656-.75.906-1.203.25-.468.25-.968 0-.672-.406-1.094-.39-.438-1.078-.438-.797 0-1.25.47-.453.452-.453 1.28h-1.078q0-1.187.75-1.906.765-.734 2.031-.734 1.203 0 1.89.625.688.625.688 1.672 0 1.25-1.61 3l-2.28 2.468h4.28v.891zm6.594-6.313q0 .641-.344 1.141t-.906.781q.656.282 1.046.844.391.547.391 1.25 0 1.094-.75 1.766-.734.656-1.953.656-1.234 0-1.984-.656-.735-.672-.735-1.766 0-.703.375-1.25.375-.562 1.047-.844-.562-.28-.89-.78-.329-.5-.329-1.142 0-1.078.688-1.703.687-.64 1.828-.64 1.125 0 1.813.64.703.625.703 1.703zm-.891 3.985q0-.719-.453-1.156-.453-.454-1.188-.454-.734 0-1.187.454-.438.437-.438 1.171 0 .72.438 1.141.437.406 1.203.406.75 0 1.188-.422.437-.421.437-1.14zm-1.625-5.438q-.64 0-1.047.407-.39.39-.39 1.078 0 .64.39 1.047.39.406 1.031.406.657 0 1.047-.406.39-.407.39-1.047 0-.657-.405-1.063-.407-.422-1.016-.422z"/><path fill="#fff" d="M442.969 265.48h-2.25q.031 1.14.547 1.766.53.61 1.5.61.687 0 1.28-.204l.126.937q-.703.188-1.406.188-1.454 0-2.297-.86-.828-.859-.875-2.437h-1.031v-.719h1.03v-.812h-1.03v-.735h1.03q.063-1.53.891-2.375.844-.843 2.266-.843.625 0 1.422.187l-.125.953q-.64-.203-1.281-.203-.97 0-1.485.594-.515.594-.547 1.687h2.235v.735h-2.25v.812h2.25v.72zm8.328 3.172h-5.594v-.781l2.953-3.282q.656-.75.906-1.203.25-.468.25-.968 0-.672-.406-1.094-.39-.438-1.078-.438-.797 0-1.25.47-.453.452-.453 1.28h-1.078q0-1.187.75-1.906.765-.734 2.031-.734 1.203 0 1.89.625.688.625.688 1.672 0 1.25-1.61 3l-2.28 2.468h4.28v.891zm6.922-7.922l-3.531 7.922h-1.141l3.515-7.64h-4.609v-.891h5.766v.61zm1.562 9.625l-.61-.422q.548-.765.579-1.594v-.968h1.063v.843q0 .594-.297 1.188t-.735.953zm2.422-5.984l.438-4.25h4.375v1h-3.454l-.265 2.328q.64-.375 1.437-.375 1.157 0 1.844.781.688.766.688 2.078 0 1.313-.72 2.078-.702.766-1.983.766-1.125 0-1.844-.625-.719-.64-.813-1.75h1.016q.11.734.531 1.11.422.374 1.11.374.75 0 1.187-.515.438-.516.438-1.422 0-.86-.47-1.375-.468-.516-1.25-.516-.702 0-1.109.297l-.28.234-.876-.218zm12.094 4.281h-5.594v-.781l2.953-3.282q.656-.75.906-1.203.25-.468.25-.968 0-.672-.406-1.094-.39-.438-1.078-.438-.797 0-1.25.47-.453.452-.453 1.28h-1.078q0-1.187.75-1.906.765-.734 2.031-.734 1.203 0 1.89.625.688.625.688 1.672 0 1.25-1.61 3l-2.28 2.468h4.28v.891zm6.594-6.313q0 .641-.344 1.141t-.906.781q.656.282 1.046.844.391.547.391 1.25 0 1.094-.75 1.766-.734.656-1.953.656-1.234 0-1.984-.656-.735-.672-.735-1.766 0-.703.375-1.25.375-.562 1.047-.844-.562-.28-.89-.78-.329-.5-.329-1.142 0-1.078.688-1.703.687-.64 1.828-.64 1.125 0 1.813.64.703.625.703 1.703zm-.891 3.985q0-.719-.453-1.156-.453-.454-1.188-.454-.734 0-1.187.454-.438.437-.438 1.171 0 .72.438 1.141.437.406 1.203.406.75 0 1.188-.422.437-.421.437-1.14zm-1.625-5.438q-.64 0-1.047.407-.39.39-.39 1.078 0 .64.39 1.047.39.406 1.031.406.657 0 1.047-.406.39-.407.39-1.047 0-.657-.405-1.063-.407-.422-1.016-.422z"/><path stroke="#3d85c6" stroke-width="3" stroke-linejoin="round" stroke-linecap="round" d="M577.969 224.633h-2.25q.031 1.14.547 1.766.53.61 1.5.61.687 0 1.28-.204l.126.938q-.703.187-1.406.187-1.453 0-2.297-.86-.828-.859-.875-2.437h-1.032v-.719h1.032v-.812h-1.032v-.734h1.032q.062-1.532.89-2.375.844-.844 2.266-.844.625 0 1.422.187l-.125.953q-.64-.203-1.281-.203-.97 0-1.485.594-.515.594-.547 1.688h2.235v.734h-2.25v.812h2.25v.72zm4.312-1.625h.813q.781-.015 1.218-.406.438-.39.438-1.063 0-1.5-1.5-1.5-.703 0-1.125.407-.406.406-.406 1.062h-1.094q0-1.015.734-1.687.75-.672 1.891-.672 1.203 0 1.89.64.688.641.688 1.782 0 .562-.36 1.078-.359.515-.984.781.703.219 1.078.734.391.516.391 1.266 0 1.14-.75 1.828-.75.672-1.953.672-1.188 0-1.953-.656-.75-.656-.75-1.719h1.094q0 .672.437 1.078.438.406 1.188.406.78 0 1.187-.406.422-.422.422-1.187 0-.735-.453-1.125-.453-.407-1.328-.422h-.813v-.89zm8.985 4.797h-1.078v-7.219l-2.188.797v-.984l3.11-1.172h.156v8.578zm3.515 1.703l-.61-.422q.548-.765.579-1.593v-.97h1.063v.845q0 .593-.297 1.187-.297.594-.735.953zm3.5-6.5h.813q.781-.015 1.218-.406.438-.39.438-1.063 0-1.5-1.5-1.5-.703 0-1.125.407-.406.406-.406 1.062h-1.094q0-1.015.734-1.687.75-.672 1.891-.672 1.203 0 1.89.64.688.641.688 1.782 0 .562-.36 1.078-.359.515-.984.781.703.219 1.078.734.391.516.391 1.266 0 1.14-.75 1.828-.75.672-1.953.672-1.188 0-1.953-.656-.75-.656-.75-1.719h1.094q0 .672.437 1.078.438.406 1.188.406.78 0 1.187-.406.422-.422.422-1.187 0-.735-.453-1.125-.453-.407-1.328-.422h-.813v-.89zm10.61-1.515q0 .64-.344 1.14-.344.5-.906.781.656.282 1.047.844.39.547.39 1.25 0 1.094-.75 1.766-.734.656-1.953.656-1.234 0-1.984-.656-.735-.672-.735-1.766 0-.703.375-1.25.375-.562 1.047-.844-.562-.28-.89-.78-.329-.5-.329-1.141 0-1.079.688-1.704.687-.64 1.828-.64 1.125 0 1.813.64.703.625.703 1.704zm-.891 3.984q0-.719-.453-1.156-.453-.453-1.188-.453-.734 0-1.187.453-.438.437-.438 1.172 0 .718.438 1.14.437.406 1.203.406.75 0 1.188-.421.437-.422.437-1.141zm-1.625-5.438q-.64 0-1.047.407-.39.39-.39 1.078 0 .64.39 1.047.39.406 1.031.406.657 0 1.047-.406.39-.407.39-1.047 0-.656-.405-1.063-.407-.422-1.016-.422zm8.594-.765v.906h-.203q-1.266.031-2.016.766-.75.718-.875 2.03.688-.765 1.844-.765 1.11 0 1.781.782.672.78.672 2.03 0 1.313-.719 2.11-.719.797-1.937.797-1.22 0-1.985-.937-.75-.954-.75-2.438v-.406q0-2.36 1-3.61t2.985-1.265h.203zm-1.422 3.844q-.563 0-1.031.328-.47.328-.657.843v.391q0 1.063.47 1.703.484.64 1.187.64.734 0 1.156-.53.422-.547.422-1.422 0-.875-.422-1.407-.422-.546-1.125-.546z"/><path fill="#fff" d="M577.969 224.633h-2.25q.031 1.14.547 1.766.53.61 1.5.61.687 0 1.28-.204l.126.938q-.703.187-1.406.187-1.453 0-2.297-.86-.828-.859-.875-2.437h-1.032v-.719h1.032v-.812h-1.032v-.734h1.032q.062-1.532.89-2.375.844-.844 2.266-.844.625 0 1.422.187l-.125.953q-.64-.203-1.281-.203-.97 0-1.485.594-.515.594-.547 1.688h2.235v.734h-2.25v.812h2.25v.72zm4.312-1.625h.813q.781-.015 1.218-.406.438-.39.438-1.063 0-1.5-1.5-1.5-.703 0-1.125.407-.406.406-.406 1.062h-1.094q0-1.015.734-1.687.75-.672 1.891-.672 1.203 0 1.89.64.688.641.688 1.782 0 .562-.36 1.078-.359.515-.984.781.703.219 1.078.734.391.516.391 1.266 0 1.14-.75 1.828-.75.672-1.953.672-1.188 0-1.953-.656-.75-.656-.75-1.719h1.094q0 .672.437 1.078.438.406 1.188.406.78 0 1.187-.406.422-.422.422-1.187 0-.735-.453-1.125-.453-.407-1.328-.422h-.813v-.89zm8.985 4.797h-1.078v-7.219l-2.188.797v-.984l3.11-1.172h.156v8.578zm3.515 1.703l-.61-.422q.548-.765.579-1.593v-.97h1.063v.845q0 .593-.297 1.187-.297.594-.735.953zm3.5-6.5h.813q.781-.015 1.218-.406.438-.39.438-1.063 0-1.5-1.5-1.5-.703 0-1.125.407-.406.406-.406 1.062h-1.094q0-1.015.734-1.687.75-.672 1.891-.672 1.203 0 1.89.64.688.641.688 1.782 0 .562-.36 1.078-.359.515-.984.781.703.219 1.078.734.391.516.391 1.266 0 1.14-.75 1.828-.75.672-1.953.672-1.188 0-1.953-.656-.75-.656-.75-1.719h1.094q0 .672.437 1.078.438.406 1.188.406.78 0 1.187-.406.422-.422.422-1.187 0-.735-.453-1.125-.453-.407-1.328-.422h-.813v-.89zm10.61-1.515q0 .64-.344 1.14-.344.5-.906.781.656.282 1.047.844.39.547.39 1.25 0 1.094-.75 1.766-.734.656-1.953.656-1.234 0-1.984-.656-.735-.672-.735-1.766 0-.703.375-1.25.375-.562 1.047-.844-.562-.28-.89-.78-.329-.5-.329-1.141 0-1.079.688-1.704.687-.64 1.828-.64 1.125 0 1.813.64.703.625.703 1.704zm-.891 3.984q0-.719-.453-1.156-.453-.453-1.188-.453-.734 0-1.187.453-.438.437-.438 1.172 0 .718.438 1.14.437.406 1.203.406.75 0 1.188-.421.437-.422.437-1.141zm-1.625-5.438q-.64 0-1.047.407-.39.39-.39 1.078 0 .64.39 1.047.39.406 1.031.406.657 0 1.047-.406.39-.407.39-1.047 0-.656-.405-1.063-.407-.422-1.016-.422zm8.594-.765v.906h-.203q-1.266.031-2.016.766-.75.718-.875 2.03.688-.765 1.844-.765 1.11 0 1.781.782.672.78.672 2.03 0 1.313-.719 2.11-.719.797-1.937.797-1.22 0-1.985-.937-.75-.954-.75-2.438v-.406q0-2.36 1-3.61t2.985-1.265h.203zm-1.422 3.844q-.563 0-1.031.328-.47.328-.657.843v.391q0 1.063.47 1.703.484.64 1.187.64.734 0 1.156-.53.422-.547.422-1.422 0-.875-.422-1.407-.422-.546-1.125-.546z"/><path stroke="#3d85c6" stroke-width="3" stroke-linejoin="round" stroke-linecap="round" d="M711.969 213.658h-2.25q.031 1.14.547 1.766.53.61 1.5.61.687 0 1.28-.204l.126.938q-.703.187-1.406.187-1.453 0-2.297-.86-.828-.859-.875-2.437h-1.032v-.719h1.032v-.812h-1.032v-.734h1.032q.062-1.532.89-2.375.844-.844 2.266-.844.625 0 1.422.187l-.125.953q-.64-.203-1.281-.203-.97 0-1.485.594-.515.594-.547 1.688h2.235v.734h-2.25v.812h2.25v.72zm4.312-1.625h.813q.781-.015 1.218-.406.438-.39.438-1.063 0-1.5-1.5-1.5-.703 0-1.125.407-.406.406-.406 1.062h-1.094q0-1.015.734-1.687.75-.672 1.891-.672 1.203 0 1.89.64.688.641.688 1.782 0 .562-.36 1.078-.359.515-.984.781.703.219 1.078.734.391.516.391 1.266 0 1.14-.75 1.828-.75.672-1.953.672-1.188 0-1.953-.656-.75-.656-.75-1.719h1.094q0 .672.437 1.078.438.406 1.188.406.78 0 1.187-.406.422-.422.422-1.187 0-.735-.453-1.125-.453-.407-1.328-.422h-.813v-.89zm11.016 4.797h-5.594v-.781l2.953-3.281q.657-.75.907-1.204.25-.468.25-.968 0-.672-.407-1.094-.39-.438-1.078-.438-.797 0-1.25.47-.453.452-.453 1.28h-1.078q0-1.187.75-1.906.765-.734 2.031-.734 1.203 0 1.89.625.688.625.688 1.672 0 1.25-1.61 3l-2.28 2.468h4.28v.891zm1.484 1.703l-.61-.422q.548-.765.579-1.593v-.97h1.063v.845q0 .593-.297 1.187-.297.594-.735.953zm6.5-4.562h1.188v.875h-1.188v1.984h-1.078v-1.984h-3.89v-.64l3.812-5.907h1.156v5.672zm-3.734 0h2.656v-4.188l-.14.235-2.516 3.953zm11.75 2.86h-5.594v-.782l2.953-3.281q.657-.75.907-1.204.25-.468.25-.968 0-.672-.407-1.094-.39-.438-1.078-.438-.797 0-1.25.47-.453.452-.453 1.28h-1.078q0-1.187.75-1.906.765-.734 2.031-.734 1.203 0 1.89.625.688.625.688 1.672 0 1.25-1.61 3l-2.28 2.468h4.28v.891zm7 0h-5.594v-.782l2.953-3.281q.657-.75.907-1.204.25-.468.25-.968 0-.672-.407-1.094-.39-.438-1.078-.438-.797 0-1.25.47-.453.452-.453 1.28h-1.078q0-1.187.75-1.906.765-.734 2.031-.734 1.203 0 1.89.625.688.625.688 1.672 0 1.25-1.61 3l-2.28 2.468h4.28v.891z"/><path fill="#fff" d="M711.969 213.658h-2.25q.031 1.14.547 1.766.53.61 1.5.61.687 0 1.28-.204l.126.938q-.703.187-1.406.187-1.453 0-2.297-.86-.828-.859-.875-2.437h-1.032v-.719h1.032v-.812h-1.032v-.734h1.032q.062-1.532.89-2.375.844-.844 2.266-.844.625 0 1.422.187l-.125.953q-.64-.203-1.281-.203-.97 0-1.485.594-.515.594-.547 1.688h2.235v.734h-2.25v.812h2.25v.72zm4.312-1.625h.813q.781-.015 1.218-.406.438-.39.438-1.063 0-1.5-1.5-1.5-.703 0-1.125.407-.406.406-.406 1.062h-1.094q0-1.015.734-1.687.75-.672 1.891-.672 1.203 0 1.89.64.688.641.688 1.782 0 .562-.36 1.078-.359.515-.984.781.703.219 1.078.734.391.516.391 1.266 0 1.14-.75 1.828-.75.672-1.953.672-1.188 0-1.953-.656-.75-.656-.75-1.719h1.094q0 .672.437 1.078.438.406 1.188.406.78 0 1.187-.406.422-.422.422-1.187 0-.735-.453-1.125-.453-.407-1.328-.422h-.813v-.89zm11.016 4.797h-5.594v-.781l2.953-3.281q.657-.75.907-1.204.25-.468.25-.968 0-.672-.407-1.094-.39-.438-1.078-.438-.797 0-1.25.47-.453.452-.453 1.28h-1.078q0-1.187.75-1.906.765-.734 2.031-.734 1.203 0 1.89.625.688.625.688 1.672 0 1.25-1.61 3l-2.28 2.468h4.28v.891zm1.484 1.703l-.61-.422q.548-.765.579-1.593v-.97h1.063v.845q0 .593-.297 1.187-.297.594-.735.953zm6.5-4.562h1.188v.875h-1.188v1.984h-1.078v-1.984h-3.89v-.64l3.812-5.907h1.156v5.672zm-3.734 0h2.656v-4.188l-.14.235-2.516 3.953zm11.75 2.86h-5.594v-.782l2.953-3.281q.657-.75.907-1.204.25-.468.25-.968 0-.672-.407-1.094-.39-.438-1.078-.438-.797 0-1.25.47-.453.452-.453 1.28h-1.078q0-1.187.75-1.906.765-.734 2.031-.734 1.203 0 1.89.625.688.625.688 1.672 0 1.25-1.61 3l-2.28 2.468h4.28v.891zm7 0h-5.594v-.782l2.953-3.281q.657-.75.907-1.204.25-.468.25-.968 0-.672-.407-1.094-.39-.438-1.078-.438-.797 0-1.25.47-.453.452-.453 1.28h-1.078q0-1.187.75-1.906.765-.734 2.031-.734 1.203 0 1.89.625.688.625.688 1.672 0 1.25-1.61 3l-2.28 2.468h4.28v.891z"/><path stroke="#3d85c6" stroke-width="3" stroke-linejoin="round" stroke-linecap="round" d="M845.969 192.754h-2.25q.031 1.14.547 1.766.53.609 1.5.609.687 0 1.28-.203l.126.937q-.703.188-1.406.188-1.453 0-2.297-.86-.828-.859-.875-2.437h-1.032v-.719h1.032v-.812h-1.032v-.735h1.032q.062-1.531.89-2.375.844-.844 2.266-.844.625 0 1.422.188l-.125.953q-.64-.203-1.281-.203-.97 0-1.485.594-.515.594-.547 1.687h2.235v.735h-2.25v.812h2.25v.719zm4.312-1.625h.813q.781-.016 1.218-.406.438-.391.438-1.063 0-1.5-1.5-1.5-.703 0-1.125.406-.406.407-.406 1.063h-1.094q0-1.016.734-1.688.75-.672 1.891-.672 1.203 0 1.89.641.688.64.688 1.781 0 .563-.36 1.078-.359.516-.984.782.703.219 1.078.734.391.516.391 1.266 0 1.14-.75 1.828-.75.672-1.953.672-1.188 0-1.953-.656-.75-.657-.75-1.72h1.094q0 .673.437 1.079.438.406 1.188.406.78 0 1.187-.406.422-.422.422-1.188 0-.734-.453-1.125-.453-.406-1.328-.422h-.813v-.89zm10 1.937h1.188v.875h-1.188v1.985h-1.078v-1.985h-3.89v-.64l3.812-5.906h1.156v5.671zm-3.734 0h2.656v-4.187l-.14.234-2.516 3.953zm6.234 4.563l-.61-.422q.548-.766.579-1.594v-.969h1.063v.844q0 .594-.297 1.188t-.735.953zm3.5-6.5h.813q.781-.016 1.218-.406.438-.391.438-1.063 0-1.5-1.5-1.5-.703 0-1.125.406-.406.407-.406 1.063h-1.094q0-1.016.734-1.688.75-.672 1.891-.672 1.203 0 1.89.641.688.64.688 1.781 0 .563-.36 1.078-.359.516-.984.782.703.219 1.078.734.391.516.391 1.266 0 1.14-.75 1.828-.75.672-1.953.672-1.188 0-1.953-.656-.75-.657-.75-1.72h1.094q0 .673.437 1.079.438.406 1.188.406.78 0 1.187-.406.422-.422.422-1.188 0-.734-.453-1.125-.453-.406-1.328-.422h-.813v-.89zm9.578 1.047q-.328.406-.812.656-.469.234-1.031.234-.735 0-1.282-.359-.547-.36-.843-1.016-.297-.672-.297-1.468 0-.844.312-1.532.328-.687.922-1.047.61-.375 1.406-.375 1.266 0 1.985.954.734.953.734 2.578v.312q0 2.5-.984 3.64-.985 1.142-2.969 1.173h-.219v-.906h.235q1.343-.032 2.062-.704.719-.672.781-2.14zm-1.672 0q.547 0 1-.328.47-.344.688-.829v-.437q0-1.063-.469-1.734-.468-.672-1.172-.672-.718 0-1.156.547-.422.546-.422 1.453 0 .875.407 1.437.421.563 1.125.563zm10.032-4.172l-3.532 7.922h-1.14l3.515-7.64h-4.609v-.892h5.766v.61z"/><path fill="#fff" d="M845.969 192.754h-2.25q.031 1.14.547 1.766.53.609 1.5.609.687 0 1.28-.203l.126.937q-.703.188-1.406.188-1.453 0-2.297-.86-.828-.859-.875-2.437h-1.032v-.719h1.032v-.812h-1.032v-.735h1.032q.062-1.531.89-2.375.844-.844 2.266-.844.625 0 1.422.188l-.125.953q-.64-.203-1.281-.203-.97 0-1.485.594-.515.594-.547 1.687h2.235v.735h-2.25v.812h2.25v.719zm4.312-1.625h.813q.781-.016 1.218-.406.438-.391.438-1.063 0-1.5-1.5-1.5-.703 0-1.125.406-.406.407-.406 1.063h-1.094q0-1.016.734-1.688.75-.672 1.891-.672 1.203 0 1.89.641.688.64.688 1.781 0 .563-.36 1.078-.359.516-.984.782.703.219 1.078.734.391.516.391 1.266 0 1.14-.75 1.828-.75.672-1.953.672-1.188 0-1.953-.656-.75-.657-.75-1.72h1.094q0 .673.437 1.079.438.406 1.188.406.78 0 1.187-.406.422-.422.422-1.188 0-.734-.453-1.125-.453-.406-1.328-.422h-.813v-.89zm10 1.937h1.188v.875h-1.188v1.985h-1.078v-1.985h-3.89v-.64l3.812-5.906h1.156v5.671zm-3.734 0h2.656v-4.187l-.14.234-2.516 3.953zm6.234 4.563l-.61-.422q.548-.766.579-1.594v-.969h1.063v.844q0 .594-.297 1.188t-.735.953zm3.5-6.5h.813q.781-.016 1.218-.406.438-.391.438-1.063 0-1.5-1.5-1.5-.703 0-1.125.406-.406.407-.406 1.063h-1.094q0-1.016.734-1.688.75-.672 1.891-.672 1.203 0 1.89.641.688.64.688 1.781 0 .563-.36 1.078-.359.516-.984.782.703.219 1.078.734.391.516.391 1.266 0 1.14-.75 1.828-.75.672-1.953.672-1.188 0-1.953-.656-.75-.657-.75-1.72h1.094q0 .673.437 1.079.438.406 1.188.406.78 0 1.187-.406.422-.422.422-1.188 0-.734-.453-1.125-.453-.406-1.328-.422h-.813v-.89zm9.578 1.047q-.328.406-.812.656-.469.234-1.031.234-.735 0-1.282-.359-.547-.36-.843-1.016-.297-.672-.297-1.468 0-.844.312-1.532.328-.687.922-1.047.61-.375 1.406-.375 1.266 0 1.985.954.734.953.734 2.578v.312q0 2.5-.984 3.64-.985 1.142-2.969 1.173h-.219v-.906h.235q1.343-.032 2.062-.704.719-.672.781-2.14zm-1.672 0q.547 0 1-.328.47-.344.688-.829v-.437q0-1.063-.469-1.734-.468-.672-1.172-.672-.718 0-1.156.547-.422.546-.422 1.453 0 .875.407 1.437.421.563 1.125.563zm10.032-4.172l-3.532 7.922h-1.14l3.515-7.64h-4.609v-.892h5.766v.61z"/><path fill="#757575" d="M64.669 544.628h-2.25q.031 1.14.547 1.766.53.61 1.5.61.687 0 1.28-.204l.126.938q-.703.187-1.406.187-1.453 0-2.297-.86-.828-.859-.875-2.437h-1.031v-.719h1.03v-.812h-1.03v-.735h1.03q.063-1.53.891-2.375.844-.843 2.266-.843.625 0 1.422.187l-.125.953q-.64-.203-1.281-.203-.97 0-1.485.594-.515.594-.547 1.688h2.235v.734h-2.25v.812h2.25v.72zm8.094-.469q0 1.907-.657 2.844-.64.922-2.031.922-1.36 0-2.016-.906-.656-.907-.687-2.719v-1.438q0-1.89.64-2.796.657-.922 2.047-.922 1.375 0 2.032.89.656.875.672 2.72v1.405zm-1.094-1.484q0-1.375-.39-2-.376-.64-1.22-.64-.828 0-1.218.64-.375.625-.375 1.922v1.734q0 1.375.39 2.047.407.656 1.219.656.797 0 1.188-.625.39-.625.406-1.953v-1.781zm-37-103.922h-2.25q.031 1.14.547 1.766.53.61 1.5.61.687 0 1.28-.204l.126.938q-.703.187-1.406.187-1.453 0-2.297-.86-.828-.859-.875-2.437h-1.032v-.719h1.032v-.812h-1.032v-.734h1.032q.062-1.532.89-2.375.844-.844 2.266-.844.625 0 1.422.187l-.125.953q-.64-.203-1.281-.203-.97 0-1.485.594-.515.594-.547 1.688h2.235v.734h-2.25v.812h2.25v.72zm6.297 3.172h-1.078v-7.219l-2.188.797v-.984l3.11-1.172h.156v8.578zm8.797-3.64q0 1.906-.657 2.843-.64.922-2.031.922-1.36 0-2.016-.906-.656-.906-.687-2.719v-1.438q0-1.89.64-2.796.657-.922 2.047-.922 1.375 0 2.032.89.656.875.672 2.72v1.405zm-1.094-1.485q0-1.375-.39-2-.376-.64-1.22-.64-.828 0-1.218.64-.375.625-.375 1.922v1.734q0 1.375.39 2.047.407.656 1.219.656.797 0 1.188-.625.39-.625.406-1.953V436.8zm2.812 6.828l-.61-.422q.548-.765.579-1.594v-.968h1.063v.844q0 .593-.297 1.187-.297.594-.735.953zm7.282-5.344q0 1.907-.657 2.844-.64.922-2.031.922-1.36 0-2.016-.906-.656-.906-.687-2.719v-1.438q0-1.89.64-2.796.657-.922 2.047-.922 1.375 0 2.032.89.656.875.672 2.72v1.405zm-1.094-1.484q0-1.375-.39-2-.376-.64-1.22-.64-.828 0-1.218.64-.375.625-.375 1.922v1.734q0 1.375.39 2.047.407.656 1.219.656.797 0 1.188-.625.39-.625.406-1.953V436.8zm8.094 1.484q0 1.907-.657 2.844-.64.922-2.031.922-1.36 0-2.016-.906-.656-.906-.687-2.719v-1.438q0-1.89.64-2.796.657-.922 2.047-.922 1.375 0 2.032.89.656.875.672 2.72v1.405zm-1.094-1.484q0-1.375-.39-2-.376-.64-1.22-.64-.828 0-1.218.64-.375.625-.375 1.922v1.734q0 1.375.39 2.047.407.656 1.219.656.797 0 1.188-.625.39-.625.406-1.953V436.8zm8.094 1.484q0 1.907-.657 2.844-.64.922-2.031.922-1.36 0-2.016-.906-.656-.906-.687-2.719v-1.438q0-1.89.64-2.796.657-.922 2.047-.922 1.375 0 2.032.89.656.875.672 2.72v1.405zm-1.094-1.484q0-1.375-.39-2-.376-.64-1.22-.64-.828 0-1.218.64-.375.625-.375 1.922v1.734q0 1.375.39 2.047.407.656 1.219.656.797 0 1.188-.625.39-.625.406-1.953V436.8zm-37-103.922h-2.25q.031 1.14.547 1.766.53.61 1.5.61.687 0 1.28-.204l.126.938q-.703.187-1.406.187-1.453 0-2.297-.86-.828-.859-.875-2.437h-1.032v-.719h1.032v-.812h-1.032v-.734h1.032q.062-1.532.89-2.375.844-.844 2.266-.844.625 0 1.422.187l-.125.953q-.64-.203-1.281-.203-.97 0-1.485.594-.515.594-.547 1.688h2.235v.734h-2.25v.812h2.25v.72zm8.328 3.172h-5.594v-.781l2.953-3.281q.657-.75.907-1.204.25-.468.25-.968 0-.672-.407-1.094-.39-.438-1.078-.438-.797 0-1.25.47-.453.452-.453 1.28h-1.078q0-1.187.75-1.906.766-.734 2.031-.734 1.203 0 1.89.625.688.625.688 1.672 0 1.25-1.61 3l-2.28 2.468h4.28v.891zm6.766-3.64q0 1.906-.657 2.843-.64.922-2.031.922-1.36 0-2.016-.906-.656-.906-.687-2.719v-1.438q0-1.89.64-2.796.657-.922 2.047-.922 1.375 0 2.032.89.656.875.672 2.72v1.405zm-1.094-1.485q0-1.375-.39-2-.376-.64-1.22-.64-.828 0-1.218.64-.375.625-.375 1.922v1.734q0 1.375.39 2.047.407.656 1.219.656.797 0 1.188-.625.39-.625.406-1.953v-1.781zm2.812 6.828l-.61-.422q.548-.765.579-1.594v-.968h1.063v.844q0 .593-.297 1.187-.297.594-.735.953zm7.282-5.344q0 1.907-.657 2.844-.64.922-2.031.922-1.36 0-2.016-.906-.656-.906-.687-2.719v-1.438q0-1.89.64-2.796.657-.922 2.047-.922 1.375 0 2.032.89.656.875.672 2.72v1.405zm-1.094-1.484q0-1.375-.39-2-.376-.64-1.22-.64-.828 0-1.218.64-.375.625-.375 1.922v1.734q0 1.375.39 2.047.407.656 1.219.656.797 0 1.188-.625.39-.625.406-1.953v-1.781zm8.094 1.484q0 1.907-.657 2.844-.64.922-2.031.922-1.36 0-2.016-.906-.656-.906-.687-2.719v-1.438q0-1.89.64-2.796.657-.922 2.047-.922 1.375 0 2.032.89.656.875.672 2.72v1.405zm-1.094-1.484q0-1.375-.39-2-.376-.64-1.22-.64-.828 0-1.218.64-.375.625-.375 1.922v1.734q0 1.375.39 2.047.407.656 1.219.656.797 0 1.188-.625.39-.625.406-1.953v-1.781zm8.094 1.484q0 1.907-.657 2.844-.64.922-2.031.922-1.36 0-2.016-.906-.656-.906-.687-2.719v-1.438q0-1.89.64-2.796.657-.922 2.047-.922 1.375 0 2.032.89.656.875.672 2.72v1.405zm-1.094-1.484q0-1.375-.39-2-.376-.64-1.22-.64-.828 0-1.218.64-.375.625-.375 1.922v1.734q0 1.375.39 2.047.407.656 1.219.656.797 0 1.188-.625.39-.625.406-1.953v-1.781zm-37-103.922h-2.25q.031 1.14.547 1.766.53.61 1.5.61.687 0 1.28-.204l.126.938q-.703.187-1.406.187-1.453 0-2.297-.86-.828-.859-.875-2.437h-1.032v-.719h1.032v-.812h-1.032v-.734h1.032q.062-1.532.89-2.375.844-.844 2.266-.844.625 0 1.422.187l-.125.953q-.64-.203-1.281-.203-.97 0-1.485.594-.515.594-.547 1.688h2.235v.734h-2.25v.812h2.25v.72zm4.312-1.625h.813q.781-.015 1.219-.406.437-.39.437-1.063 0-1.5-1.5-1.5-.703 0-1.125.407-.406.406-.406 1.062h-1.094q0-1.015.734-1.687.75-.672 1.891-.672 1.203 0 1.89.64.688.641.688 1.782 0 .562-.36 1.078-.359.515-.984.781.704.219 1.079.734.39.516.39 1.266 0 1.14-.75 1.828-.75.672-1.953.672-1.188 0-1.953-.656-.75-.656-.75-1.719h1.094q0 .672.437 1.078.438.406 1.188.406.78 0 1.187-.406.422-.422.422-1.187 0-.735-.453-1.125-.453-.407-1.328-.422h-.813v-.89zm10.782 1.156q0 1.907-.657 2.844-.64.922-2.031.922-1.36 0-2.016-.906-.656-.906-.687-2.719v-1.438q0-1.89.64-2.796.657-.922 2.047-.922 1.375 0 2.032.89.656.875.672 2.72v1.405zm-1.094-1.484q0-1.375-.39-2-.376-.64-1.22-.64-.828 0-1.218.64-.375.625-.375 1.922v1.734q0 1.375.39 2.047.407.656 1.219.656.797 0 1.188-.625.39-.625.406-1.953v-1.781zm2.812 6.828l-.61-.422q.548-.765.579-1.593v-.97h1.063v.845q0 .593-.297 1.187-.297.594-.735.953zm7.282-5.344q0 1.907-.657 2.844-.64.922-2.031.922-1.36 0-2.016-.906-.656-.906-.687-2.719v-1.438q0-1.89.64-2.796.657-.922 2.047-.922 1.375 0 2.032.89.656.875.672 2.72v1.405zm-1.094-1.484q0-1.375-.39-2-.376-.64-1.22-.64-.828 0-1.218.64-.375.625-.375 1.922v1.734q0 1.375.39 2.047.407.656 1.219.656.797 0 1.188-.625.39-.625.406-1.953v-1.781zm8.094 1.484q0 1.907-.657 2.844-.64.922-2.031.922-1.36 0-2.016-.906-.656-.906-.687-2.719v-1.438q0-1.89.64-2.796.657-.922 2.047-.922 1.375 0 2.032.89.656.875.672 2.72v1.405zm-1.094-1.484q0-1.375-.39-2-.376-.64-1.22-.64-.828 0-1.218.64-.375.625-.375 1.922v1.734q0 1.375.39 2.047.407.656 1.219.656.797 0 1.188-.625.39-.625.406-1.953v-1.781zm8.094 1.484q0 1.907-.657 2.844-.64.922-2.031.922-1.36 0-2.016-.906-.656-.906-.687-2.719v-1.438q0-1.89.64-2.796.657-.922 2.047-.922 1.375 0 2.032.89.656.875.672 2.72v1.405zm-1.094-1.484q0-1.375-.39-2-.376-.64-1.22-.64-.828 0-1.218.64-.375.625-.375 1.922v1.734q0 1.375.39 2.047.407.656 1.219.656.797 0 1.188-.625.39-.625.406-1.953v-1.781zm-37-103.922h-2.25q.031 1.14.547 1.766.53.61 1.5.61.687 0 1.28-.204l.126.938q-.703.187-1.406.187-1.453 0-2.297-.86-.828-.859-.875-2.437h-1.032v-.719h1.032v-.812h-1.032v-.734h1.032q.062-1.532.89-2.376.844-.843 2.266-.843.625 0 1.422.187l-.125.953q-.64-.203-1.281-.203-.97 0-1.485.594-.515.594-.547 1.688h2.235v.734h-2.25v.812h2.25v.72zm7.312.313h1.188v.875H41.98v1.984h-1.078v-1.984h-3.89v-.641l3.812-5.906h1.156v5.672zm-3.734 0h2.656v-4.188l-.14.234-2.516 3.954zm11.516-.782q0 1.907-.657 2.844-.64.922-2.031.922-1.36 0-2.016-.906-.656-.907-.687-2.719v-1.438q0-1.89.64-2.796.657-.922 2.047-.922 1.375 0 2.032.89.656.875.672 2.72v1.405zm-1.094-1.484q0-1.375-.39-2-.376-.64-1.22-.64-.828 0-1.218.64-.375.625-.375 1.922v1.734q0 1.375.39 2.047.407.656 1.219.656.797 0 1.188-.625.39-.625.406-1.953v-1.781zm2.812 6.828l-.61-.422q.548-.765.579-1.594v-.968h1.063v.843q0 .594-.297 1.188t-.735.953zm7.282-5.344q0 1.907-.657 2.844-.64.922-2.031.922-1.36 0-2.016-.906-.656-.907-.687-2.719v-1.438q0-1.89.64-2.796.657-.922 2.047-.922 1.375 0 2.032.89.656.875.672 2.72v1.405zm-1.094-1.484q0-1.375-.39-2-.376-.64-1.22-.64-.828 0-1.218.64-.375.625-.375 1.922v1.734q0 1.375.39 2.047.407.656 1.219.656.797 0 1.188-.625.39-.625.406-1.953v-1.781zm8.094 1.484q0 1.907-.657 2.844-.64.922-2.031.922-1.36 0-2.016-.906-.656-.907-.687-2.719v-1.438q0-1.89.64-2.796.657-.922 2.047-.922 1.375 0 2.032.89.656.875.672 2.72v1.405zm-1.094-1.484q0-1.375-.39-2-.376-.64-1.22-.64-.828 0-1.218.64-.375.625-.375 1.922v1.734q0 1.375.39 2.047.407.656 1.219.656.797 0 1.188-.625.39-.625.406-1.953v-1.781zm8.094 1.484q0 1.907-.657 2.844-.64.922-2.031.922-1.36 0-2.016-.906-.656-.907-.687-2.719v-1.438q0-1.89.64-2.796.657-.922 2.047-.922 1.375 0 2.032.89.656.875.672 2.72v1.405zm-1.094-1.484q0-1.375-.39-2-.376-.64-1.22-.64-.828 0-1.218.64-.375.625-.375 1.922v1.734q0 1.375.39 2.047.407.656 1.219.656.797 0 1.188-.625.39-.625.406-1.953v-1.781zM145.49 561.3h-1.078v-7.219l-2.188.797v-.984l3.11-1.172h.156v8.578zm5.813-3.188h-2.86v-.875h2.86v.875zm4.484-5.343h1.14v6.047q0 1.218-.75 1.921-.734.688-1.953.688-1.265 0-1.984-.656-.703-.657-.703-1.828h1.125q0 .734.39 1.156.407.406 1.172.406.704 0 1.125-.437.438-.454.438-1.235v-6.062zm7.172 7.906q-.625.75-1.86.75-1.015 0-1.546-.594-.532-.594-.532-1.75v-4.125h1.078v4.094q0 1.453 1.172 1.453 1.25 0 1.657-.937v-4.61h1.093v6.344h-1.031l-.031-.625zm4.265.625h-1.078v-9h1.078v9zm4.079-3.188h-2.86v-.875h2.86v.875zm6.218 3.188h-5.593v-.781l2.953-3.282q.656-.75.906-1.203.25-.468.25-.968 0-.672-.406-1.094-.391-.438-1.078-.438-.797 0-1.25.47-.454.452-.454 1.28h-1.078q0-1.187.75-1.906.766-.734 2.032-.734 1.203 0 1.89.625.688.625.688 1.672 0 1.25-1.61 3l-2.281 2.468h4.281v.891zm6.766-3.64q0 1.906-.656 2.843-.641.922-2.032.922-1.359 0-2.015-.906-.656-.907-.688-2.719v-1.438q0-1.89.64-2.796.657-.922 2.048-.922 1.375 0 2.031.89.656.875.672 2.72v1.405zm-1.094-1.485q0-1.375-.39-2-.375-.64-1.22-.64-.827 0-1.218.64-.375.625-.375 1.922v1.734q0 1.375.39 2.047.407.656 1.22.656.796 0 1.187-.625.39-.625.406-1.953v-1.781zm6.297 5.125h-1.078v-7.219l-2.188.797v-.984l3.11-1.172h.156v8.578zm8.625-6.313q0 .641-.344 1.141-.343.5-.906.781.656.282 1.047.844.39.547.39 1.25 0 1.094-.75 1.766-.734.656-1.953.656-1.234 0-1.984-.656-.734-.672-.734-1.766 0-.703.375-1.25.375-.562 1.047-.844-.563-.28-.891-.78-.328-.5-.328-1.142 0-1.078.687-1.703.688-.64 1.828-.64 1.125 0 1.813.64.703.625.703 1.703zm-.89 3.985q0-.719-.454-1.156-.453-.454-1.187-.454-.735 0-1.188.454-.437.437-.437 1.171 0 .72.437 1.141.438.406 1.203.406.75 0 1.188-.422.437-.421.437-1.14zm-1.626-5.438q-.64 0-1.046.407-.391.39-.391 1.078 0 .64.39 1.047.391.406 1.032.406.656 0 1.047-.406.39-.407.39-1.047 0-.657-.406-1.063-.406-.422-1.016-.422zM279.1 561.3h-1.078v-7.219l-2.187.797v-.984l3.109-1.172h.156v8.578zm5.813-3.188h-2.86v-.875h2.86v.875zm7.469-.796q0 1.25-.422 2.187-.422.922-1.203 1.422-.766.5-1.797.5-1 0-1.782-.5-.78-.5-1.218-1.406-.422-.922-.438-2.14v-.61q0-1.235.422-2.172.438-.938 1.219-1.438.781-.515 1.797-.515 1.015 0 1.797.5.78.5 1.203 1.437.422.938.422 2.188v.547zm-1.11-.563q0-1.516-.61-2.328-.609-.813-1.702-.813-1.078 0-1.688.813-.61.813-.625 2.25v.64q0 1.47.61 2.313.625.828 1.703.828 1.093 0 1.687-.781.61-.797.625-2.281v-.64zm4.922 3.781q.578 0 1.016-.343.437-.36.484-.891h1.031q-.031.547-.39 1.047-.344.484-.922.781-.563.297-1.219.297-1.297 0-2.062-.86-.75-.874-.75-2.374v-.188q0-.922.328-1.64.343-.72.968-1.11.641-.406 1.516-.406 1.063 0 1.766.64.718.625.765 1.657h-1.031q-.047-.625-.469-1.016-.422-.39-1.031-.39-.828 0-1.281.593-.453.594-.453 1.719v.203q0 1.094.453 1.688.453.593 1.281.593zm4.938-7.109v1.531h1.171v.844h-1.171v3.922q0 .39.156.578.156.188.531.188.188 0 .516-.063v.875q-.422.125-.828.125-.72 0-1.094-.438-.375-.453-.375-1.265V555.8h-1.156v-.844h1.156v-1.531h1.094zm4.78 4.688h-2.859v-.876h2.86v.875zm6.22 3.187h-5.594v-.781l2.953-3.282q.656-.75.906-1.203.25-.468.25-.968 0-.672-.406-1.094-.39-.438-1.078-.438-.797 0-1.25.47-.453.452-.453 1.28h-1.078q0-1.187.75-1.906.765-.734 2.03-.734 1.204 0 1.891.625.688.625.688 1.672 0 1.25-1.61 3l-2.28 2.468h4.28v.891zm6.765-3.64q0 1.906-.656 2.843-.64.922-2.031.922-1.36 0-2.016-.906-.656-.907-.687-2.719v-1.438q0-1.89.64-2.796.656-.922 2.047-.922 1.375 0 2.031.89.657.875.672 2.72v1.405zm-1.094-1.485q0-1.375-.39-2-.375-.64-1.219-.64-.828 0-1.219.64-.375.625-.375 1.922v1.734q0 1.375.39 2.047.407.656 1.22.656.797 0 1.187-.625t.406-1.953v-1.781zm6.297 5.125h-1.078v-7.219l-2.187.797v-.984l3.109-1.172h.156v8.578zm8.625-6.313q0 .641-.343 1.141-.344.5-.907.781.657.282 1.047.844.39.547.39 1.25 0 1.094-.75 1.766-.734.656-1.952.656-1.235 0-1.985-.656-.734-.672-.734-1.766 0-.703.375-1.25.375-.562 1.047-.844-.563-.28-.89-.78-.329-.5-.329-1.142 0-1.078.688-1.703.687-.64 1.828-.64 1.125 0 1.812.64.703.625.703 1.703zm-.89 3.985q0-.719-.453-1.156-.454-.454-1.188-.454t-1.187.454q-.438.437-.438 1.171 0 .72.438 1.141.437.406 1.203.406.75 0 1.187-.422.438-.421.438-1.14zm-1.625-5.438q-.641 0-1.047.407-.39.39-.39 1.078 0 .64.39 1.047.39.406 1.031.406.656 0 1.047-.406.39-.407.39-1.047 0-.657-.406-1.063-.406-.422-1.015-.422zm81.5 7.766h-1.078v-7.219l-2.187.797v-.984l3.11-1.172h.156v8.578zm5.813-3.188h-2.86v-.875h2.86v.875zm4.484-5.343h1.141v6.047q0 1.218-.75 1.921-.734.688-1.953.688-1.266 0-1.984-.656-.704-.657-.704-1.828h1.125q0 .734.391 1.156.406.406 1.172.406.703 0 1.125-.437.437-.454.437-1.235v-6.062zm7.172 8.531q-.093-.188-.156-.672-.75.797-1.797.797-.937 0-1.547-.531-.593-.532-.593-1.36 0-.984.75-1.53.75-.548 2.125-.548h1.046v-.5q0-.562-.343-.89-.328-.344-1-.344-.578 0-.97.297-.39.281-.39.703h-1.093q0-.485.328-.922.343-.438.922-.688.578-.265 1.265-.265 1.11 0 1.719.547.625.547.656 1.5v2.922q0 .875.219 1.39v.094h-1.14zm-1.797-.828q.516 0 .97-.266.452-.265.655-.687v-1.297h-.843q-2 0-2 1.172 0 .5.343.797.344.28.875.28zm5.907-5.516l.03.797q.735-.906 1.907-.906 2.016 0 2.031 2.265v4.188h-1.093v-4.203q0-.672-.313-1-.297-.328-.953-.328-.531 0-.938.281-.39.281-.609.734v4.516h-1.078v-6.344h1.016zm8.234 3.156h-2.86v-.875h2.86v.875zm6.219 3.188h-5.594v-.781l2.953-3.282q.656-.75.906-1.203.25-.468.25-.968 0-.672-.406-1.094-.39-.438-1.078-.438-.797 0-1.25.47-.453.452-.453 1.28h-1.078q0-1.187.75-1.906.765-.734 2.031-.734 1.203 0 1.89.625.688.625.688 1.672 0 1.25-1.61 3l-2.28 2.468h4.28v.891zm6.765-3.64q0 1.906-.656 2.843-.64.922-2.031.922-1.36 0-2.016-.906-.656-.907-.687-2.719v-1.438q0-1.89.64-2.796.657-.922 2.047-.922 1.375 0 2.032.89.656.875.671 2.72v1.405zm-1.093-1.485q0-1.375-.391-2-.375-.64-1.219-.64-.828 0-1.218.64-.375.625-.375 1.922v1.734q0 1.375.39 2.047.406.656 1.219.656.797 0 1.187-.625.391-.625.407-1.953v-1.781zm6.297 5.125h-1.079v-7.219l-2.187.797v-.984l3.11-1.172h.156v8.578zm7.593-3.75q-.328.406-.812.656-.469.235-1.031.235-.735 0-1.282-.36t-.843-1.015q-.297-.672-.297-1.47 0-.843.312-1.53.328-.688.922-1.047.61-.375 1.406-.375 1.266 0 1.985.953.734.953.734 2.578v.313q0 2.5-.984 3.64-.985 1.14-2.97 1.172h-.218v-.906h.235q1.343-.032 2.062-.703.719-.672.781-2.141zm-1.672 0q.547 0 1-.328.47-.344.688-.828v-.438q0-1.062-.469-1.734-.469-.672-1.172-.672-.718 0-1.156.547-.422.547-.422 1.453 0 .875.406 1.438.422.562 1.125.562zm81.188 3.75h-1.077v-7.219l-2.188.797v-.984l3.11-1.172h.156v8.578zm5.813-3.188h-2.86v-.875h2.86v.875zm5.625.954h-3.578l-.797 2.234h-1.156l3.25-8.531h.984l3.266 8.531h-1.156l-.813-2.234zm-3.234-.922h2.906l-1.453-3.985-1.453 3.985zm11.703.062q0 1.438-.656 2.328-.657.891-1.797.891-1.156 0-1.813-.734v3.046h-1.078v-8.78h.985l.046.702q.672-.812 1.844-.812 1.14 0 1.797.86.672.859.672 2.39v.11zm-1.078-.125q0-1.078-.469-1.687-.453-.625-1.25-.625-.984 0-1.469.86v3.03q.485.875 1.485.875.781 0 1.234-.609.469-.625.469-1.844zm5.797-2.156q-.25-.031-.532-.031-1.078 0-1.453.906v4.5h-1.078v-6.344h1.047l.016.735q.531-.844 1.515-.844.313 0 .485.078v1zm3.187 2.188h-2.86v-.876h2.86v.875zm6.219 3.187h-5.594v-.781l2.953-3.282q.657-.75.907-1.203.25-.468.25-.968 0-.672-.407-1.094-.39-.438-1.078-.438-.797 0-1.25.47-.453.452-.453 1.28h-1.078q0-1.187.75-1.906.766-.734 2.031-.734 1.203 0 1.89.625.688.625.688 1.672 0 1.25-1.609 3l-2.281 2.468h4.281v.891zm6.766-3.64q0 1.906-.657 2.843-.64.922-2.03.922-1.36 0-2.017-.906-.656-.907-.687-2.719v-1.438q0-1.89.64-2.796.657-.922 2.048-.922 1.375 0 2.03.89.657.875.673 2.72v1.405zm-1.094-1.485q0-1.375-.39-2-.376-.64-1.22-.64-.828 0-1.218.64-.375.625-.375 1.922v1.734q0 1.375.39 2.047.407.656 1.22.656.796 0 1.187-.625.39-.625.406-1.953v-1.781zm6.297 5.125h-1.078v-7.219l-2.188.797v-.984l3.11-1.172h.156v8.578zm7.593-3.75q-.328.406-.812.656-.469.235-1.031.235-.735 0-1.282-.36-.546-.36-.843-1.015-.297-.672-.297-1.47 0-.843.312-1.53.328-.688.922-1.047.61-.375 1.406-.375 1.266 0 1.985.953.734.953.734 2.578v.313q0 2.5-.984 3.64-.985 1.14-2.969 1.172h-.219v-.906h.235q1.343-.032 2.062-.703.719-.672.781-2.141zm-1.671 0q.546 0 1-.328.468-.344.687-.828v-.438q0-1.062-.469-1.734-.468-.672-1.172-.672-.718 0-1.156.547-.422.547-.422 1.453 0 .875.407 1.438.421.562 1.125.562zm83.188 3.75h-1.078v-7.219l-2.188.797v-.984l3.11-1.172h.156v8.578zm5.812-3.188h-2.859v-.875h2.86v.875zm4.485-5.343h1.14v6.047q0 1.218-.75 1.921-.734.688-1.953.688-1.265 0-1.984-.656-.703-.657-.703-1.828h1.125q0 .734.39 1.156.407.406 1.172.406.703 0 1.125-.437.438-.454.438-1.235v-6.062zm7.172 7.906q-.625.75-1.86.75-1.015 0-1.547-.594-.53-.594-.53-1.75v-4.125h1.077v4.094q0 1.453 1.172 1.453 1.25 0 1.656-.937v-4.61h1.094v6.344h-1.031l-.031-.625zm4.265.625h-1.078v-9h1.078v9zm4.078-3.188h-2.859v-.875h2.86v.875zm6.22 3.188h-5.595v-.781l2.954-3.282q.656-.75.906-1.203.25-.468.25-.968 0-.672-.406-1.094-.391-.438-1.079-.438-.796 0-1.25.47-.453.452-.453 1.28h-1.078q0-1.187.75-1.906.766-.734 2.031-.734 1.204 0 1.891.625.688.625.688 1.672 0 1.25-1.61 3l-2.281 2.468h4.281v.891zm6.765-3.64q0 1.906-.656 2.843-.641.922-2.032.922-1.359 0-2.015-.906-.657-.907-.688-2.719v-1.438q0-1.89.64-2.796.657-.922 2.048-.922 1.375 0 2.031.89.656.875.672 2.72v1.405zm-1.094-1.485q0-1.375-.39-2-.376-.64-1.22-.64-.827 0-1.218.64-.375.625-.375 1.922v1.734q0 1.375.39 2.047.407.656 1.22.656.796 0 1.187-.625.39-.625.406-1.953v-1.781zm6.297 5.125h-1.078v-7.219l-2.188.797v-.984l3.11-1.172h.156v8.578zm7.594-3.75q-.328.406-.813.656-.469.235-1.031.235-.734 0-1.281-.36-.547-.36-.844-1.015-.297-.672-.297-1.47 0-.843.313-1.53.328-.688.921-1.047.61-.375 1.407-.375 1.265 0 1.984.953.734.953.734 2.578v.313q0 2.5-.984 3.64-.984 1.14-2.969 1.172h-.218v-.906h.234q1.344-.032 2.062-.703.72-.672.782-2.141zm-1.672 0q.547 0 1-.328.469-.344.687-.828v-.438q0-1.062-.468-1.734-.47-.672-1.172-.672-.719 0-1.157.547-.421.547-.421 1.453 0 .875.406 1.438.422.562 1.125.562zm83.688 3.75h-1.078v-7.219l-2.187.797v-.984l3.109-1.172h.156v8.578zm5.813-3.188h-2.86v-.875h2.86v.875zm7.468-.796q0 1.25-.421 2.187-.422.922-1.204 1.422-.765.5-1.796.5-1 0-1.782-.5-.78-.5-1.218-1.406-.422-.922-.438-2.14v-.61q0-1.235.422-2.172.437-.938 1.219-1.438.78-.515 1.797-.515 1.015 0 1.796.5.782.5 1.204 1.437.421.938.421 2.188v.547zm-1.109-.563q0-1.516-.61-2.328-.609-.813-1.702-.813-1.079 0-1.688.813-.61.813-.625 2.25v.64q0 1.47.61 2.313.624.828 1.703.828 1.093 0 1.687-.781.61-.797.625-2.281v-.64zm4.922 3.781q.578 0 1.016-.343.437-.36.484-.891h1.031q-.031.547-.39 1.047-.344.484-.922.781-.563.297-1.22.297-1.296 0-2.062-.86-.75-.874-.75-2.374v-.188q0-.922.329-1.64.343-.72.968-1.11.64-.406 1.516-.406 1.062 0 1.766.64.718.625.765 1.657h-1.031q-.047-.625-.469-1.016-.422-.39-1.031-.39-.828 0-1.281.593-.453.594-.453 1.719v.203q0 1.094.453 1.688.453.593 1.28.593zm4.937-7.109v1.531h1.172v.844h-1.172v3.922q0 .39.157.578.156.188.53.188.188 0 .517-.063v.875q-.422.125-.829.125-.718 0-1.093-.438-.375-.453-.375-1.265V555.8h-1.157v-.844h1.157v-1.531h1.093zm4.782 4.688h-2.86v-.876h2.86v.875zm6.218 3.187h-5.593v-.781l2.953-3.282q.656-.75.906-1.203.25-.468.25-.968 0-.672-.406-1.094-.39-.438-1.078-.438-.797 0-1.25.47-.453.452-.453 1.28h-1.079q0-1.187.75-1.906.766-.734 2.032-.734 1.203 0 1.89.625.688.625.688 1.672 0 1.25-1.61 3l-2.28 2.468h4.28v.891zm6.766-3.64q0 1.906-.656 2.843-.64.922-2.031.922-1.36 0-2.016-.906-.656-.907-.688-2.719v-1.438q0-1.89.641-2.796.656-.922 2.047-.922 1.375 0 2.031.89.656.875.672 2.72v1.405zm-1.094-1.485q0-1.375-.39-2-.375-.64-1.22-.64-.827 0-1.218.64-.375.625-.375 1.922v1.734q0 1.375.39 2.047.407.656 1.22.656.796 0 1.187-.625.39-.625.406-1.953v-1.781zm6.297 5.125h-1.078v-7.219l-2.187.797v-.984l3.109-1.172h.156v8.578zm7.594-3.75q-.328.406-.813.656-.468.235-1.03.235-.735 0-1.282-.36t-.844-1.015q-.297-.672-.297-1.47 0-.843.313-1.53.328-.688.922-1.047.61-.375 1.406-.375 1.266 0 1.984.953.735.953.735 2.578v.313q0 2.5-.985 3.64-.984 1.14-2.968 1.172h-.22v-.906h.235q1.344-.032 2.063-.703.718-.672.78-2.141zm-1.672 0q.547 0 1-.328.469-.344.688-.828v-.438q0-1.062-.47-1.734-.468-.672-1.171-.672-.719 0-1.156.547-.422.547-.422 1.453 0 .875.406 1.438.422.562 1.125.562z"/><path fill="#c00" d="M400 78a1 1 0 011-1h10a1 1 0 011 1v10a1 1 0 01-1 1h-10a1 1 0 01-1-1z"/><path fill="#757575" d="M422.828 84.047V88.5h-1.5V77.125h4.188q1.875 0 2.921.953 1.063.953 1.063 2.516 0 1.656-1.031 2.562-1.031.89-2.969.89h-2.672zm0-1.234h2.688q1.203 0 1.843-.563.641-.563.641-1.64 0-1.016-.64-1.626-.641-.609-1.75-.625h-2.782v4.454zm13.485 4.843q-.844 1-2.47 1-1.359 0-2.062-.781-.703-.797-.719-2.328v-5.5h1.454V85.5q0 1.922 1.562 1.922 1.656 0 2.203-1.234v-6.141h1.438V88.5h-1.375l-.031-.844zm7.875-6.312q-.329-.063-.72-.063-1.421 0-1.921 1.219v6h-1.453v-8.453h1.406l.031.969q.703-1.125 2.016-1.125.422 0 .64.109v1.344zm4.296 6.125q.782 0 1.36-.469.578-.469.64-1.172h1.36q-.031.734-.5 1.39-.453.657-1.235 1.048-.765.39-1.625.39-1.718 0-2.75-1.156-1.015-1.156-1.015-3.156v-.235q0-1.234.453-2.187.453-.969 1.297-1.5.86-.531 2.015-.531 1.422 0 2.36.859.937.844 1 2.203h-1.36q-.062-.828-.625-1.344-.562-.53-1.375-.53-1.109 0-1.718.796-.594.781-.594 2.281v.281q0 1.454.594 2.25.609.782 1.718.782zm6.063-6.406q.953-1.172 2.5-1.172 2.672 0 2.703 3.015V88.5h-1.453v-5.594q0-.922-.422-1.36-.406-.437-1.266-.437-.703 0-1.234.375t-.828.985V88.5h-1.453v-12h1.453v4.563zm12.765 7.437q-.125-.25-.203-.89-1 1.046-2.406 1.046-1.25 0-2.047-.703-.797-.719-.797-1.797 0-1.328 1-2.047 1-.734 2.829-.734h1.406v-.672q0-.75-.453-1.203-.454-.453-1.344-.453-.766 0-1.297.39-.516.391-.516.954h-1.453q0-.641.438-1.22.453-.593 1.219-.937.78-.343 1.703-.343 1.453 0 2.28.734.829.719.86 2v3.89q0 1.172.297 1.86v.125h-1.515zm-2.39-1.11q.672 0 1.281-.343.61-.36.89-.922v-1.734h-1.14q-2.656 0-2.656 1.562 0 .672.453 1.063.453.375 1.172.375zm11.094-1.14q0-.578-.438-.906-.437-.328-1.547-.563-1.094-.234-1.734-.562-.64-.328-.953-.781-.313-.454-.313-1.079 0-1.03.875-1.75.89-.718 2.25-.718 1.438 0 2.328.75.907.734.907 1.89h-1.454q0-.594-.515-1.015-.5-.438-1.266-.438-.781 0-1.234.344-.438.344-.438.89 0 .532.407.797.421.266 1.5.516 1.078.234 1.75.578.671.328 1 .797.328.469.328 1.156 0 1.125-.906 1.813-.907.687-2.36.687-1.015 0-1.797-.36-.781-.359-1.219-1-.437-.655-.437-1.405h1.438q.046.734.578 1.156.546.422 1.437.422.828 0 1.313-.328.5-.329.5-.891zm6.593 2.406q-1.718 0-2.796-1.125-1.079-1.14-1.079-3.031v-.266q0-1.25.47-2.234.483-1 1.343-1.547.875-.562 1.875-.562 1.656 0 2.562 1.093.922 1.079.922 3.094v.61h-5.734q.031 1.25.734 2.015.703.766 1.781.766.766 0 1.297-.313.532-.312.922-.828l.89.688q-1.062 1.64-3.187 1.64zm-.187-7.578q-.875 0-1.469.64-.594.626-.734 1.782h4.234v-.11q-.062-1.109-.594-1.703-.53-.609-1.437-.609zm9.594 5.172q0-.578-.438-.906-.437-.328-1.547-.563-1.094-.234-1.734-.562-.64-.328-.953-.781-.313-.454-.313-1.079 0-1.03.875-1.75.89-.718 2.25-.718 1.438 0 2.328.75.907.734.907 1.89h-1.454q0-.594-.515-1.015-.5-.438-1.266-.438-.781 0-1.234.344-.438.344-.438.89 0 .532.407.797.421.266 1.5.516 1.078.234 1.75.578.671.328 1 .797.328.469.328 1.156 0 1.125-.906 1.813-.907.687-2.36.687-1.015 0-1.797-.36-.781-.359-1.219-1-.437-.655-.437-1.405h1.438q.046.734.578 1.156.546.422 1.437.422.828 0 1.313-.328.5-.329.5-.891z"/><path fill="#3d85c6" d="M510 78a1 1 0 011-1h10a1 1 0 011 1v10a1 1 0 01-1 1h-10a1 1 0 01-1-1z"/><path fill="#757575" d="M540.063 88.5h-1.5l-5.735-8.766V88.5h-1.5V77.125h1.5l5.75 8.797v-8.797h1.485V88.5zm8.546-2.969h-4.765l-1.078 2.969h-1.547l4.343-11.375h1.313l4.36 11.375h-1.548l-1.078-2.969zm-4.312-1.234h3.86l-1.938-5.328-1.922 5.328zm11.797 2.203l3.25-9.375h1.64L556.766 88.5h-1.328l-4.22-11.375h1.641l3.235 9.375zM41.856 46.84q-.734 1.032-2.031 1.547-1.281.516-3 .516-1.75 0-3.094-.812-1.343-.828-2.078-2.328-.734-1.5-.765-3.485v-1.25q0-3.203 1.5-4.969 1.5-1.78 4.218-1.78 2.219 0 3.578 1.14 1.36 1.14 1.672 3.234h-1.875q-.531-2.828-3.36-2.828-1.89 0-2.858 1.328-.97 1.328-.985 3.828v1.172q0 2.39 1.094 3.797 1.094 1.406 2.953 1.406 1.063 0 1.844-.234.797-.234 1.312-.781v-3.203H36.7v-1.516h5.156v5.219zm8.313-7.093q-.406-.063-.875-.063-1.781 0-2.422 1.516v7.5h-1.797V38.137h1.75l.031 1.22q.89-1.423 2.516-1.423.531 0 .797.141v1.672zm1.422 3.578q0-1.563.609-2.797.61-1.25 1.688-1.922 1.093-.672 2.5-.672 2.156 0 3.484 1.5 1.344 1.485 1.344 3.97v.124q0 1.547-.594 2.781-.594 1.22-1.703 1.907-1.094.687-2.516.687-2.14 0-3.484-1.5-1.328-1.5-1.328-3.953v-.125zm1.812.203q0 1.766.813 2.828.828 1.063 2.187 1.063 1.375 0 2.188-1.078.812-1.078.812-3.016 0-1.75-.828-2.828-.828-1.078-2.188-1.078-1.343 0-2.171 1.062-.813 1.063-.813 3.047zm19.016 2.688l2.031-8.078h1.813L73.184 48.7h-1.468l-2.563-8.016-2.5 8.016h-1.469l-3.062-10.563h1.797l2.078 7.907 2.469-7.906h1.453l2.5 8.078zm8.094-10.641v2.563h1.984v1.39h-1.984v6.547q0 .64.265.969.266.312.906.312.313 0 .86-.125V48.7q-.719.203-1.39.203-1.204 0-1.829-.734-.61-.735-.61-2.094v-6.547h-1.921v-1.39h1.922v-2.563h1.797zm6.359 3.844q1.203-1.485 3.125-1.485 3.36 0 3.375 3.782V48.7h-1.797v-7q-.016-1.14-.531-1.688-.5-.546-1.594-.546-.875 0-1.547.468-.656.47-1.031 1.235V48.7h-1.797v-15h1.797v5.719zm13.719 3.906q0-1.563.609-2.797.61-1.25 1.688-1.922 1.093-.672 2.5-.672 2.156 0 3.484 1.5 1.344 1.485 1.344 3.97v.124q0 1.547-.594 2.781-.594 1.22-1.703 1.907-1.094.687-2.516.687-2.14 0-3.484-1.5-1.328-1.5-1.328-3.953v-.125zm1.812.203q0 1.766.813 2.828.828 1.063 2.187 1.063 1.375 0 2.188-1.078.812-1.078.812-3.016 0-1.75-.828-2.828-.828-1.078-2.188-1.078-1.343 0-2.171 1.062-.813 1.063-.813 3.047zM112.95 48.7v-9.172h-1.656v-1.39h1.656v-1.094q0-1.688.906-2.61.922-.937 2.578-.937.625 0 1.235.156l-.094 1.469q-.453-.078-.969-.078-.89 0-1.375.515-.468.5-.468 1.454v1.125h2.25v1.39h-2.25V48.7h-1.813zm20.047-5.172q0 2.422-1.11 3.906-1.093 1.47-2.984 1.47-1.922 0-3.031-1.235v5.094h-1.797V38.138h1.64l.094 1.171q1.094-1.375 3.063-1.375 1.906 0 3.015 1.438 1.11 1.437 1.11 4v.156zm-1.813-.203q0-1.781-.765-2.813-.75-1.046-2.078-1.046-1.641 0-2.47 1.453v5.062q.813 1.438 2.485 1.438 1.297 0 2.063-1.031.765-1.032.765-3.063zm3.407 0q0-1.563.609-2.797.61-1.25 1.688-1.922 1.093-.672 2.5-.672 2.156 0 3.484 1.5 1.344 1.485 1.344 3.97v.124q0 1.547-.594 2.781-.594 1.22-1.703 1.907-1.094.687-2.516.687-2.14 0-3.484-1.5-1.328-1.5-1.328-3.953v-.125zm1.812.203q0 1.766.813 2.828.828 1.063 2.187 1.063 1.375 0 2.188-1.078.812-1.078.812-3.016 0-1.75-.828-2.828-.828-1.078-2.188-1.078-1.343 0-2.171 1.062-.813 1.063-.813 3.047zm14.766-3.781q-.407-.063-.875-.063-1.782 0-2.422 1.516v7.5h-1.797V38.137h1.75l.031 1.22q.89-1.423 2.516-1.423.531 0 .797.141v1.672zm4.343-4.172v2.563h1.985v1.39h-1.985v6.547q0 .64.266.969.266.312.906.312.313 0 .86-.125V48.7q-.719.203-1.39.203-1.204 0-1.829-.734-.61-.735-.61-2.094v-6.547h-1.921v-1.39h1.922v-2.563h1.796zM160.95 48.7v-9.172h-1.656v-1.39h1.656v-1.094q0-1.688.906-2.61.922-.937 2.578-.937.625 0 1.235.156l-.094 1.469q-.453-.078-.969-.078-.89 0-1.375.515-.469.5-.469 1.454v1.125h2.25v1.39h-2.25V48.7h-1.812zm5.64-5.375q0-1.563.61-2.797.61-1.25 1.688-1.922 1.093-.672 2.5-.672 2.156 0 3.484 1.5 1.344 1.485 1.344 3.97v.124q0 1.547-.594 2.781-.594 1.22-1.703 1.907-1.094.687-2.516.687-2.14 0-3.484-1.5-1.328-1.5-1.328-3.953v-.125zm1.813.203q0 1.766.813 2.828.828 1.063 2.187 1.063 1.375 0 2.188-1.078.812-1.078.812-3.016 0-1.75-.828-2.828-.828-1.078-2.188-1.078-1.343 0-2.171 1.062-.813 1.063-.813 3.047zm11.625 5.172h-1.797v-15h1.797v15zm5 0h-1.797V38.137h1.797V48.7zm-1.953-13.375q0-.438.266-.734.28-.313.796-.313.532 0 .797.313.282.297.282.734 0 .438-.282.734-.265.297-.797.297-.515 0-.796-.297-.266-.296-.266-.734zm4.516 8q0-1.563.609-2.797.61-1.25 1.688-1.922 1.093-.672 2.5-.672 2.156 0 3.484 1.5 1.344 1.485 1.344 3.97v.124q0 1.547-.594 2.781-.594 1.22-1.703 1.907-1.094.687-2.516.687-2.14 0-3.484-1.5-1.328-1.5-1.328-3.953v-.125zm1.812.203q0 1.766.813 2.828.828 1.063 2.187 1.063 1.375 0 2.188-1.078.812-1.078.812-3.016 0-1.75-.828-2.828-.828-1.078-2.188-1.078-1.343 0-2.171 1.062-.813 1.063-.813 3.047z"/></svg>