<svg version="1.1" viewBox="0.0 0.0 794.0 491.0" fill="none" stroke="none" stroke-linecap="square" stroke-miterlimit="10" width="794" height="491" xmlns:xlink="http://www.w3.org/1999/xlink" xmlns="http://www.w3.org/2000/svg"><path fill="#ffffff" d="M0 0L794.0 0L794.0 491.0L0 491.0L0 0Z" fill-rule="nonzero"/><path stroke="#cccccc" stroke-width="1.0" stroke-linecap="butt" d="M139.5 72.5L139.5 445.5" fill-rule="nonzero"/><path stroke="#cccccc" stroke-width="1.0" stroke-linecap="butt" d="M250.5 72.5L250.5 445.5" fill-rule="nonzero"/><path stroke="#cccccc" stroke-width="1.0" stroke-linecap="butt" d="M360.5 72.5L360.5 445.5" fill-rule="nonzero"/><path stroke="#cccccc" stroke-width="1.0" stroke-linecap="butt" d="M468.5 72.5L468.5 445.5" fill-rule="nonzero"/><path stroke="#cccccc" stroke-width="1.0" stroke-linecap="butt" d="M577.5 72.5L577.5 445.5" fill-rule="nonzero"/><path stroke="#cccccc" stroke-width="1.0" stroke-linecap="butt" d="M687.5 72.5L687.5 445.5" fill-rule="nonzero"/><path stroke="#cccccc" stroke-width="1.0" stroke-linecap="butt" d="M66.5 445.5L687.5 445.5" fill-rule="nonzero"/><path stroke="#cccccc" stroke-width="1.0" stroke-linecap="butt" d="M66.5 370.5L687.5 370.5" fill-rule="nonzero"/><path stroke="#333333" stroke-width="1.0" stroke-linecap="butt" d="M66.5 296.5L687.5 296.5" fill-rule="nonzero"/><path stroke="#cccccc" stroke-width="1.0" stroke-linecap="butt" d="M66.5 221.5L687.5 221.5" fill-rule="nonzero"/><path stroke="#cccccc" stroke-width="1.0" stroke-linecap="butt" d="M66.5 147.5L687.5 147.5" fill-rule="nonzero"/><path stroke="#cccccc" stroke-width="1.0" stroke-linecap="butt" d="M66.5 72.5L687.5 72.5" fill-rule="nonzero"/><clipPath id="id_0"><path d="M66.55 72.416664L687.6811 72.416664L687.6811 445.45L66.55 445.45L66.55 72.416664Z" clip-rule="nonzero"/></clipPath><path stroke="#4285f4" stroke-width="2.0" stroke-linecap="butt" clip-path="url(#id_0)" d="M614.5363 296.23666C614.5363 296.23666 639.71735 277.77377 651.70825 275.76822C663.6992 273.76266 687.6811 283.54306 687.6811 283.54306" fill-rule="nonzero"/><path stroke="#db4437" stroke-width="2.0" stroke-linecap="butt" clip-path="url(#id_0)" d="M66.55 296.23666C66.55 296.23666 91.73099 273.88727 103.72194 269.26044C115.71289 264.6336 127.703835 270.92432 139.69478 267.60544C151.68573 264.2866 164.47607 254.5035 176.86673 248.73863C189.25737 242.97377 202.04771 236.46239 214.03867 233.01628C226.0296 229.57019 238.02055 222.0587 250.0115 227.55484C262.00244 233.051 275.1925 261.41974 287.18344 267.27444C299.1744 273.12918 311.16534 254.55956 323.15628 263.96448C335.14725 273.36942 347.9376 324.2335 360.32822 325.69537C372.71887 327.1573 386.30862 285.78357 397.50015 272.7359C408.6917 259.68823 419.88327 250.34912 431.07483 242.2842C442.2664 234.21927 456.2558 230.62012 468.24677 222.4244C480.2377 214.22867 492.22867 190.92186 504.2196 192.4692C516.2106 194.01651 529.4006 231.71721 541.39154 233.01628C553.3825 234.31537 565.3734 211.75064 577.3644 201.5716C589.35535 191.39256 602.1457 173.60237 614.5363 170.95439C626.927 168.30643 639.71735 187.99718 651.70825 185.68375C663.6992 183.37033 687.6811 157.54903 687.6811 157.54903" fill-rule="nonzero"/><path stroke="#f4b400" stroke-width="2.0" stroke-linecap="butt" clip-path="url(#id_0)" d="M214.03867 296.23666C214.03867 296.23666 238.02055 295.71686 250.0115 305.9049C262.00244 316.09296 275.1925 351.3093 287.18344 359.0803C299.1744 366.8513 311.16534 345.43558 323.15628 354.24615C335.14725 363.05676 347.9376 412.25568 360.32822 413.86703C372.71887 415.47842 386.30862 377.07397 397.50015 363.91443C408.6917 350.75485 419.88327 336.44308 431.07483 330.07553C442.2664 323.708 456.2558 330.04956 468.24677 325.24142C480.2377 320.4333 492.22867 297.56216 504.2196 301.0708C516.2106 304.57944 529.4006 344.5606 541.39154 347.80066C553.3825 351.04074 565.3734 329.95425 577.3644 322.01868C589.35535 314.08307 602.1457 299.19086 614.5363 299.4594C626.927 299.72797 639.71735 323.49142 651.70825 323.63004C663.6992 323.76865 687.6811 301.0708 687.6811 301.0708" fill-rule="nonzero"/><path stroke="#0f9d58" stroke-width="2.0" stroke-linecap="butt" clip-path="url(#id_0)" d="M66.55 296.23666C66.55 296.23666 91.73099 287.0907 103.72194 292.6091C115.71289 298.12753 127.703835 326.86005 139.69478 329.23013C151.68573 331.6002 164.47607 306.28442 176.86673 306.0829C189.25737 305.88135 202.04771 323.7052 214.03867 328.02094C226.0296 332.33667 238.02055 325.1373 250.0115 332.68494C262.00244 340.23257 275.1925 373.1016 287.18344 374.6609C299.1744 376.2202 311.16534 344.95602 323.15628 343.39484C335.14725 341.83368 347.9376 372.04102 360.32822 366.02386C372.71887 360.00674 386.30862 315.9319 397.50015 307.29205C408.6917 298.65225 419.88327 311.03012 431.07483 308.50125C442.2664 305.97235 456.2558 296.22552 468.24677 290.3635C480.2377 284.50146 492.22867 266.59772 504.2196 272.74396C516.2106 278.89017 529.4006 325.128 541.39154 329.05737C553.3825 332.98676 565.3734 303.9032 577.3644 298.1368C589.35535 292.37042 602.1457 290.42108 614.5363 294.33652C626.927 298.25198 639.71735 321.1141 651.70825 321.62955C663.6992 322.14496 687.6811 298.30954 687.6811 298.30954" fill-rule="nonzero"/><path stroke="#ff6d00" stroke-width="2.0" stroke-linecap="butt" clip-path="url(#id_0)" d="M66.55 296.23666C66.55 296.23666 91.73099 265.73618 103.72194 257.55283C115.71289 249.36946 127.703835 248.73758 139.69478 245.88861C151.68573 243.03963 164.47607 243.1325 176.86673 240.27797C189.25737 237.42345 202.04771 226.70624 214.03867 228.76141C226.0296 230.81657 238.02055 247.94377 250.0115 252.23749C262.00244 256.5312 275.1925 257.36865 287.18344 254.59985C299.1744 251.83105 311.16534 231.51593 323.15628 235.70088C335.14725 239.88583 347.9376 286.5411 360.32822 281.17654C372.71887 275.81198 386.30862 216.73045 397.50015 203.51357C408.6917 190.29666 419.88327 202.19742 431.07483 194.35936C442.2664 186.5213 456.2558 156.90195 468.24677 152.42726C480.2377 147.95256 492.22867 164.32246 504.2196 166.15855C516.2106 167.99463 529.4006 163.58423 541.39154 163.35323C553.3825 163.12224 565.3734 168.50902 577.3644 164.68207C589.35535 160.85512 602.1457 147.6779 614.5363 139.58186C626.927 131.48581 639.71735 125.133766 651.70825 116.10579C663.6992 107.07781 687.6811 84.65671 687.6811 84.65671" fill-rule="nonzero"/><path fill="#000000" fill-opacity="0.0" clip-path="url(#id_0)" d="M617.5363 296.23666C617.5363 297.89352 616.1932 299.23666 614.5363 299.23666C612.87946 299.23666 611.5363 297.89352 611.5363 296.23666C611.5363 294.5798 612.87946 293.23666 614.5363 293.23666C616.1932 293.23666 617.5363 294.5798 617.5363 296.23666Z" fill-rule="nonzero"/><path fill="#000000" fill-opacity="0.0" clip-path="url(#id_0)" d="M654.70825 275.76822C654.70825 277.42508 653.3651 278.76822 651.70825 278.76822C650.0514 278.76822 648.70825 277.42508 648.70825 275.76822C648.70825 274.11136 650.0514 272.76822 651.70825 272.76822C653.3651 272.76822 654.70825 274.11136 654.70825 275.76822Z" fill-rule="nonzero"/><path fill="#000000" fill-opacity="0.0" clip-path="url(#id_0)" d="M690.6811 283.54306C690.6811 285.19992 689.33795 286.54306 687.6811 286.54306C686.02423 286.54306 684.6811 285.19992 684.6811 283.54306C684.6811 281.8862 686.02423 280.54306 687.6811 280.54306C689.33795 280.54306 690.6811 281.8862 690.6811 283.54306Z" fill-rule="nonzero"/><path fill="#000000" fill-opacity="0.0" clip-path="url(#id_0)" d="M69.55 296.23666C69.55 297.89352 68.206856 299.23666 66.55 299.23666C64.89314 299.23666 63.55 297.89352 63.55 296.23666C63.55 294.5798 64.89314 293.23666 66.55 293.23666C68.206856 293.23666 69.55 294.5798 69.55 296.23666Z" fill-rule="nonzero"/><path fill="#000000" fill-opacity="0.0" clip-path="url(#id_0)" d="M106.72194 269.26044C106.72194 270.9173 105.37879 272.26044 103.72194 272.26044C102.06509 272.26044 100.72194 270.9173 100.72194 269.26044C100.72194 267.60358 102.06509 266.26044 103.72194 266.26044C105.37879 266.26044 106.72194 267.60358 106.72194 269.26044Z" fill-rule="nonzero"/><path fill="#000000" fill-opacity="0.0" clip-path="url(#id_0)" d="M142.69478 267.60544C142.69478 269.2623 141.35164 270.60544 139.69478 270.60544C138.03793 270.60544 136.69478 269.2623 136.69478 267.60544C136.69478 265.9486 138.03793 264.60544 139.69478 264.60544C141.35164 264.60544 142.69478 265.9486 142.69478 267.60544Z" fill-rule="nonzero"/><path fill="#000000" fill-opacity="0.0" clip-path="url(#id_0)" d="M179.86673 248.73863C179.86673 250.3955 178.52357 251.73863 176.86673 251.73863C175.20987 251.73863 173.86673 250.3955 173.86673 248.73863C173.86673 247.08177 175.20987 245.73863 176.86673 245.73863C178.52357 245.73863 179.86673 247.08177 179.86673 248.73863Z" fill-rule="nonzero"/><path fill="#000000" fill-opacity="0.0" clip-path="url(#id_0)" d="M217.03867 233.01628C217.03867 234.67314 215.69551 236.01628 214.03867 236.01628C212.3818 236.01628 211.03867 234.67314 211.03867 233.01628C211.03867 231.35944 212.3818 230.01628 214.03867 230.01628C215.69551 230.01628 217.03867 231.35944 217.03867 233.01628Z" fill-rule="nonzero"/><path fill="#000000" fill-opacity="0.0" clip-path="url(#id_0)" d="M253.0115 227.55484C253.0115 229.2117 251.66837 230.55484 250.0115 230.55484C248.35464 230.55484 247.0115 229.2117 247.0115 227.55484C247.0115 225.898 248.35464 224.55484 250.0115 224.55484C251.66837 224.55484 253.0115 225.898 253.0115 227.55484Z" fill-rule="nonzero"/><path fill="#000000" fill-opacity="0.0" clip-path="url(#id_0)" d="M290.18344 267.27444C290.18344 268.9313 288.8403 270.27444 287.18344 270.27444C285.52658 270.27444 284.18344 268.9313 284.18344 267.27444C284.18344 265.61758 285.52658 264.27444 287.18344 264.27444C288.8403 264.27444 290.18344 265.61758 290.18344 267.27444Z" fill-rule="nonzero"/><path fill="#000000" fill-opacity="0.0" clip-path="url(#id_0)" d="M326.15628 263.96448C326.15628 265.62134 324.81314 266.96448 323.15628 266.96448C321.49942 266.96448 320.15628 265.62134 320.15628 263.96448C320.15628 262.30762 321.49942 260.96448 323.15628 260.96448C324.81314 260.96448 326.15628 262.30762 326.15628 263.96448Z" fill-rule="nonzero"/><path fill="#000000" fill-opacity="0.0" clip-path="url(#id_0)" d="M363.32822 325.69537C363.32822 327.35223 361.98508 328.69537 360.32822 328.69537C358.6714 328.69537 357.32822 327.35223 357.32822 325.69537C357.32822 324.0385 358.6714 322.69537 360.32822 322.69537C361.98508 322.69537 363.32822 324.0385 363.32822 325.69537Z" fill-rule="nonzero"/><path fill="#000000" fill-opacity="0.0" clip-path="url(#id_0)" d="M400.50015 272.7359C400.50015 274.39276 399.157 275.7359 397.50015 275.7359C395.84332 275.7359 394.50015 274.39276 394.50015 272.7359C394.50015 271.07904 395.84332 269.7359 397.50015 269.7359C399.157 269.7359 400.50015 271.07904 400.50015 272.7359Z" fill-rule="nonzero"/><path fill="#000000" fill-opacity="0.0" clip-path="url(#id_0)" d="M434.07483 242.2842C434.07483 243.94106 432.7317 245.2842 431.07483 245.2842C429.41797 245.2842 428.07483 243.94106 428.07483 242.2842C428.07483 240.62735 429.41797 239.2842 431.07483 239.2842C432.7317 239.2842 434.07483 240.62735 434.07483 242.2842Z" fill-rule="nonzero"/><path fill="#000000" fill-opacity="0.0" clip-path="url(#id_0)" d="M471.24677 222.4244C471.24677 224.08125 469.90363 225.4244 468.24677 225.4244C466.5899 225.4244 465.24677 224.08125 465.24677 222.4244C465.24677 220.76753 466.5899 219.4244 468.24677 219.4244C469.90363 219.4244 471.24677 220.76753 471.24677 222.4244Z" fill-rule="nonzero"/><path fill="#000000" fill-opacity="0.0" clip-path="url(#id_0)" d="M507.2196 192.4692C507.2196 194.12604 505.87646 195.4692 504.2196 195.4692C502.56274 195.4692 501.2196 194.12604 501.2196 192.4692C501.2196 190.81233 502.56274 189.4692 504.2196 189.4692C505.87646 189.4692 507.2196 190.81233 507.2196 192.4692Z" fill-rule="nonzero"/><path fill="#000000" fill-opacity="0.0" clip-path="url(#id_0)" d="M544.39154 233.01628C544.39154 234.67314 543.0484 236.01628 541.39154 236.01628C539.7347 236.01628 538.39154 234.67314 538.39154 233.01628C538.39154 231.35944 539.7347 230.01628 541.39154 230.01628C543.0484 230.01628 544.39154 231.35944 544.39154 233.01628Z" fill-rule="nonzero"/><path fill="#000000" fill-opacity="0.0" clip-path="url(#id_0)" d="M580.3644 201.5716C580.3644 203.22845 579.02124 204.5716 577.3644 204.5716C575.7075 204.5716 574.3644 203.22845 574.3644 201.5716C574.3644 199.91475 575.7075 198.5716 577.3644 198.5716C579.02124 198.5716 580.3644 199.91475 580.3644 201.5716Z" fill-rule="nonzero"/><path fill="#000000" fill-opacity="0.0" clip-path="url(#id_0)" d="M617.5363 170.95439C617.5363 172.61125 616.1932 173.95439 614.5363 173.95439C612.87946 173.95439 611.5363 172.61125 611.5363 170.95439C611.5363 169.29755 612.87946 167.95439 614.5363 167.95439C616.1932 167.95439 617.5363 169.29755 617.5363 170.95439Z" fill-rule="nonzero"/><path fill="#000000" fill-opacity="0.0" clip-path="url(#id_0)" d="M654.70825 185.68375C654.70825 187.3406 653.3651 188.68375 651.70825 188.68375C650.0514 188.68375 648.70825 187.3406 648.70825 185.68375C648.70825 184.0269 650.0514 182.68375 651.70825 182.68375C653.3651 182.68375 654.70825 184.0269 654.70825 185.68375Z" fill-rule="nonzero"/><path fill="#000000" fill-opacity="0.0" clip-path="url(#id_0)" d="M690.6811 157.54903C690.6811 159.20589 689.33795 160.54903 687.6811 160.54903C686.02423 160.54903 684.6811 159.20589 684.6811 157.54903C684.6811 155.89218 686.02423 154.54903 687.6811 154.54903C689.33795 154.54903 690.6811 155.89218 690.6811 157.54903Z" fill-rule="nonzero"/><path fill="#000000" fill-opacity="0.0" clip-path="url(#id_0)" d="M217.03867 296.23666C217.03867 297.89352 215.69551 299.23666 214.03867 299.23666C212.3818 299.23666 211.03867 297.89352 211.03867 296.23666C211.03867 294.5798 212.3818 293.23666 214.03867 293.23666C215.69551 293.23666 217.03867 294.5798 217.03867 296.23666Z" fill-rule="nonzero"/><path fill="#000000" fill-opacity="0.0" clip-path="url(#id_0)" d="M253.0115 305.9049C253.0115 307.56177 251.66837 308.9049 250.0115 308.9049C248.35464 308.9049 247.0115 307.56177 247.0115 305.9049C247.0115 304.24808 248.35464 302.9049 250.0115 302.9049C251.66837 302.9049 253.0115 304.24808 253.0115 305.9049Z" fill-rule="nonzero"/><path fill="#000000" fill-opacity="0.0" clip-path="url(#id_0)" d="M290.18344 359.0803C290.18344 360.73715 288.8403 362.0803 287.18344 362.0803C285.52658 362.0803 284.18344 360.73715 284.18344 359.0803C284.18344 357.42343 285.52658 356.0803 287.18344 356.0803C288.8403 356.0803 290.18344 357.42343 290.18344 359.0803Z" fill-rule="nonzero"/><path fill="#000000" fill-opacity="0.0" clip-path="url(#id_0)" d="M326.15628 354.24615C326.15628 355.903 324.81314 357.24615 323.15628 357.24615C321.49942 357.24615 320.15628 355.903 320.15628 354.24615C320.15628 352.58932 321.49942 351.24615 323.15628 351.24615C324.81314 351.24615 326.15628 352.58932 326.15628 354.24615Z" fill-rule="nonzero"/><path fill="#000000" fill-opacity="0.0" clip-path="url(#id_0)" d="M363.32822 413.86703C363.32822 415.5239 361.98508 416.86703 360.32822 416.86703C358.6714 416.86703 357.32822 415.5239 357.32822 413.86703C357.32822 412.2102 358.6714 410.86703 360.32822 410.86703C361.98508 410.86703 363.32822 412.2102 363.32822 413.86703Z" fill-rule="nonzero"/><path fill="#000000" fill-opacity="0.0" clip-path="url(#id_0)" d="M400.50015 363.91443C400.50015 365.5713 399.157 366.91443 397.50015 366.91443C395.84332 366.91443 394.50015 365.5713 394.50015 363.91443C394.50015 362.25757 395.84332 360.91443 397.50015 360.91443C399.157 360.91443 400.50015 362.25757 400.50015 363.91443Z" fill-rule="nonzero"/><path fill="#000000" fill-opacity="0.0" clip-path="url(#id_0)" d="M434.07483 330.07553C434.07483 331.7324 432.7317 333.07553 431.07483 333.07553C429.41797 333.07553 428.07483 331.7324 428.07483 330.07553C428.07483 328.4187 429.41797 327.07553 431.07483 327.07553C432.7317 327.07553 434.07483 328.4187 434.07483 330.07553Z" fill-rule="nonzero"/><path fill="#000000" fill-opacity="0.0" clip-path="url(#id_0)" d="M471.24677 325.24142C471.24677 326.8983 469.90363 328.24142 468.24677 328.24142C466.5899 328.24142 465.24677 326.8983 465.24677 325.24142C465.24677 323.58456 466.5899 322.24142 468.24677 322.24142C469.90363 322.24142 471.24677 323.58456 471.24677 325.24142Z" fill-rule="nonzero"/><path fill="#000000" fill-opacity="0.0" clip-path="url(#id_0)" d="M507.2196 301.0708C507.2196 302.72766 505.87646 304.0708 504.2196 304.0708C502.56274 304.0708 501.2196 302.72766 501.2196 301.0708C501.2196 299.41394 502.56274 298.0708 504.2196 298.0708C505.87646 298.0708 507.2196 299.41394 507.2196 301.0708Z" fill-rule="nonzero"/><path fill="#000000" fill-opacity="0.0" clip-path="url(#id_0)" d="M544.39154 347.80066C544.39154 349.45752 543.0484 350.80066 541.39154 350.80066C539.7347 350.80066 538.39154 349.45752 538.39154 347.80066C538.39154 346.14383 539.7347 344.80066 541.39154 344.80066C543.0484 344.80066 544.39154 346.14383 544.39154 347.80066Z" fill-rule="nonzero"/><path fill="#000000" fill-opacity="0.0" clip-path="url(#id_0)" d="M580.3644 322.01868C580.3644 323.67554 579.02124 325.01868 577.3644 325.01868C575.7075 325.01868 574.3644 323.67554 574.3644 322.01868C574.3644 320.36182 575.7075 319.01868 577.3644 319.01868C579.02124 319.01868 580.3644 320.36182 580.3644 322.01868Z" fill-rule="nonzero"/><path fill="#000000" fill-opacity="0.0" clip-path="url(#id_0)" d="M617.5363 299.4594C617.5363 301.11627 616.1932 302.4594 614.5363 302.4594C612.87946 302.4594 611.5363 301.11627 611.5363 299.4594C611.5363 297.80255 612.87946 296.4594 614.5363 296.4594C616.1932 296.4594 617.5363 297.80255 617.5363 299.4594Z" fill-rule="nonzero"/><path fill="#000000" fill-opacity="0.0" clip-path="url(#id_0)" d="M654.70825 323.63004C654.70825 325.2869 653.3651 326.63004 651.70825 326.63004C650.0514 326.63004 648.70825 325.2869 648.70825 323.63004C648.70825 321.97318 650.0514 320.63004 651.70825 320.63004C653.3651 320.63004 654.70825 321.97318 654.70825 323.63004Z" fill-rule="nonzero"/><path fill="#000000" fill-opacity="0.0" clip-path="url(#id_0)" d="M690.6811 301.0708C690.6811 302.72766 689.33795 304.0708 687.6811 304.0708C686.02423 304.0708 684.6811 302.72766 684.6811 301.0708C684.6811 299.41394 686.02423 298.0708 687.6811 298.0708C689.33795 298.0708 690.6811 299.41394 690.6811 301.0708Z" fill-rule="nonzero"/><path fill="#000000" fill-opacity="0.0" clip-path="url(#id_0)" d="M69.55 296.23666C69.55 297.89352 68.206856 299.23666 66.55 299.23666C64.89314 299.23666 63.55 297.89352 63.55 296.23666C63.55 294.5798 64.89314 293.23666 66.55 293.23666C68.206856 293.23666 69.55 294.5798 69.55 296.23666Z" fill-rule="nonzero"/><path fill="#000000" fill-opacity="0.0" clip-path="url(#id_0)" d="M106.72194 292.6091C106.72194 294.26596 105.37879 295.6091 103.72194 295.6091C102.06509 295.6091 100.72194 294.26596 100.72194 292.6091C100.72194 290.95227 102.06509 289.6091 103.72194 289.6091C105.37879 289.6091 106.72194 290.95227 106.72194 292.6091Z" fill-rule="nonzero"/><path fill="#000000" fill-opacity="0.0" clip-path="url(#id_0)" d="M142.69478 329.23013C142.69478 330.88696 141.35164 332.23013 139.69478 332.23013C138.03793 332.23013 136.69478 330.88696 136.69478 329.23013C136.69478 327.57327 138.03793 326.23013 139.69478 326.23013C141.35164 326.23013 142.69478 327.57327 142.69478 329.23013Z" fill-rule="nonzero"/><path fill="#000000" fill-opacity="0.0" clip-path="url(#id_0)" d="M179.86673 306.0829C179.86673 307.73975 178.52357 309.0829 176.86673 309.0829C175.20987 309.0829 173.86673 307.73975 173.86673 306.0829C173.86673 304.42603 175.20987 303.0829 176.86673 303.0829C178.52357 303.0829 179.86673 304.42603 179.86673 306.0829Z" fill-rule="nonzero"/><path fill="#000000" fill-opacity="0.0" clip-path="url(#id_0)" d="M217.03867 328.02094C217.03867 329.6778 215.69551 331.02094 214.03867 331.02094C212.3818 331.02094 211.03867 329.6778 211.03867 328.02094C211.03867 326.36407 212.3818 325.02094 214.03867 325.02094C215.69551 325.02094 217.03867 326.36407 217.03867 328.02094Z" fill-rule="nonzero"/><path fill="#000000" fill-opacity="0.0" clip-path="url(#id_0)" d="M253.0115 332.68494C253.0115 334.3418 251.66837 335.68494 250.0115 335.68494C248.35464 335.68494 247.0115 334.3418 247.0115 332.68494C247.0115 331.02808 248.35464 329.68494 250.0115 329.68494C251.66837 329.68494 253.0115 331.02808 253.0115 332.68494Z" fill-rule="nonzero"/><path fill="#000000" fill-opacity="0.0" clip-path="url(#id_0)" d="M290.18344 374.6609C290.18344 376.31775 288.8403 377.6609 287.18344 377.6609C285.52658 377.6609 284.18344 376.31775 284.18344 374.6609C284.18344 373.00406 285.52658 371.6609 287.18344 371.6609C288.8403 371.6609 290.18344 373.00406 290.18344 374.6609Z" fill-rule="nonzero"/><path fill="#000000" fill-opacity="0.0" clip-path="url(#id_0)" d="M326.15628 343.39484C326.15628 345.0517 324.81314 346.39484 323.15628 346.39484C321.49942 346.39484 320.15628 345.0517 320.15628 343.39484C320.15628 341.738 321.49942 340.39484 323.15628 340.39484C324.81314 340.39484 326.15628 341.738 326.15628 343.39484Z" fill-rule="nonzero"/><path fill="#000000" fill-opacity="0.0" clip-path="url(#id_0)" d="M363.32822 366.02386C363.32822 367.68073 361.98508 369.02386 360.32822 369.02386C358.6714 369.02386 357.32822 367.68073 357.32822 366.02386C357.32822 364.367 358.6714 363.02386 360.32822 363.02386C361.98508 363.02386 363.32822 364.367 363.32822 366.02386Z" fill-rule="nonzero"/><path fill="#000000" fill-opacity="0.0" clip-path="url(#id_0)" d="M400.50015 307.29205C400.50015 308.9489 399.157 310.29205 397.50015 310.29205C395.84332 310.29205 394.50015 308.9489 394.50015 307.29205C394.50015 305.63522 395.84332 304.29205 397.50015 304.29205C399.157 304.29205 400.50015 305.63522 400.50015 307.29205Z" fill-rule="nonzero"/><path fill="#000000" fill-opacity="0.0" clip-path="url(#id_0)" d="M434.07483 308.50125C434.07483 310.1581 432.7317 311.50125 431.07483 311.50125C429.41797 311.50125 428.07483 310.1581 428.07483 308.50125C428.07483 306.8444 429.41797 305.50125 431.07483 305.50125C432.7317 305.50125 434.07483 306.8444 434.07483 308.50125Z" fill-rule="nonzero"/><path fill="#000000" fill-opacity="0.0" clip-path="url(#id_0)" d="M471.24677 290.3635C471.24677 292.02036 469.90363 293.3635 468.24677 293.3635C466.5899 293.3635 465.24677 292.02036 465.24677 290.3635C465.24677 288.70663 466.5899 287.3635 468.24677 287.3635C469.90363 287.3635 471.24677 288.70663 471.24677 290.3635Z" fill-rule="nonzero"/><path fill="#000000" fill-opacity="0.0" clip-path="url(#id_0)" d="M507.2196 272.74396C507.2196 274.4008 505.87646 275.74396 504.2196 275.74396C502.56274 275.74396 501.2196 274.4008 501.2196 272.74396C501.2196 271.0871 502.56274 269.74396 504.2196 269.74396C505.87646 269.74396 507.2196 271.0871 507.2196 272.74396Z" fill-rule="nonzero"/><path fill="#000000" fill-opacity="0.0" clip-path="url(#id_0)" d="M544.39154 329.05737C544.39154 330.71423 543.0484 332.05737 541.39154 332.05737C539.7347 332.05737 538.39154 330.71423 538.39154 329.05737C538.39154 327.4005 539.7347 326.05737 541.39154 326.05737C543.0484 326.05737 544.39154 327.4005 544.39154 329.05737Z" fill-rule="nonzero"/><path fill="#000000" fill-opacity="0.0" clip-path="url(#id_0)" d="M580.3644 298.1368C580.3644 299.79367 579.02124 301.1368 577.3644 301.1368C575.7075 301.1368 574.3644 299.79367 574.3644 298.1368C574.3644 296.47995 575.7075 295.1368 577.3644 295.1368C579.02124 295.1368 580.3644 296.47995 580.3644 298.1368Z" fill-rule="nonzero"/><path fill="#000000" fill-opacity="0.0" clip-path="url(#id_0)" d="M617.5363 294.33652C617.5363 295.99338 616.1932 297.33652 614.5363 297.33652C612.87946 297.33652 611.5363 295.99338 611.5363 294.33652C611.5363 292.67966 612.87946 291.33652 614.5363 291.33652C616.1932 291.33652 617.5363 292.67966 617.5363 294.33652Z" fill-rule="nonzero"/><path fill="#000000" fill-opacity="0.0" clip-path="url(#id_0)" d="M654.70825 321.62955C654.70825 323.28638 653.3651 324.62955 651.70825 324.62955C650.0514 324.62955 648.70825 323.28638 648.70825 321.62955C648.70825 319.9727 650.0514 318.62955 651.70825 318.62955C653.3651 318.62955 654.70825 319.9727 654.70825 321.62955Z" fill-rule="nonzero"/><path fill="#000000" fill-opacity="0.0" clip-path="url(#id_0)" d="M690.6811 298.30954C690.6811 299.9664 689.33795 301.30954 687.6811 301.30954C686.02423 301.30954 684.6811 299.9664 684.6811 298.30954C684.6811 296.6527 686.02423 295.30954 687.6811 295.30954C689.33795 295.30954 690.6811 296.6527 690.6811 298.30954Z" fill-rule="nonzero"/><path fill="#000000" fill-opacity="0.0" clip-path="url(#id_0)" d="M69.55 296.23666C69.55 297.89352 68.206856 299.23666 66.55 299.23666C64.89314 299.23666 63.55 297.89352 63.55 296.23666C63.55 294.5798 64.89314 293.23666 66.55 293.23666C68.206856 293.23666 69.55 294.5798 69.55 296.23666Z" fill-rule="nonzero"/><path fill="#000000" fill-opacity="0.0" clip-path="url(#id_0)" d="M106.72194 257.55283C106.72194 259.2097 105.37879 260.55283 103.72194 260.55283C102.06509 260.55283 100.72194 259.2097 100.72194 257.55283C100.72194 255.89597 102.06509 254.55283 103.72194 254.55283C105.37879 254.55283 106.72194 255.89597 106.72194 257.55283Z" fill-rule="nonzero"/><path fill="#000000" fill-opacity="0.0" clip-path="url(#id_0)" d="M142.69478 245.88861C142.69478 247.54547 141.35164 248.88861 139.69478 248.88861C138.03793 248.88861 136.69478 247.54547 136.69478 245.88861C136.69478 244.23175 138.03793 242.88861 139.69478 242.88861C141.35164 242.88861 142.69478 244.23175 142.69478 245.88861Z" fill-rule="nonzero"/><path fill="#000000" fill-opacity="0.0" clip-path="url(#id_0)" d="M179.86673 240.27797C179.86673 241.93483 178.52357 243.27797 176.86673 243.27797C175.20987 243.27797 173.86673 241.93483 173.86673 240.27797C173.86673 238.62112 175.20987 237.27797 176.86673 237.27797C178.52357 237.27797 179.86673 238.62112 179.86673 240.27797Z" fill-rule="nonzero"/><path fill="#000000" fill-opacity="0.0" clip-path="url(#id_0)" d="M217.03867 228.76141C217.03867 230.41826 215.69551 231.76141 214.03867 231.76141C212.3818 231.76141 211.03867 230.41826 211.03867 228.76141C211.03867 227.10455 212.3818 225.76141 214.03867 225.76141C215.69551 225.76141 217.03867 227.10455 217.03867 228.76141Z" fill-rule="nonzero"/><path fill="#000000" fill-opacity="0.0" clip-path="url(#id_0)" d="M253.0115 252.23749C253.0115 253.89433 251.66837 255.23749 250.0115 255.23749C248.35464 255.23749 247.0115 253.89433 247.0115 252.23749C247.0115 250.58063 248.35464 249.23749 250.0115 249.23749C251.66837 249.23749 253.0115 250.58063 253.0115 252.23749Z" fill-rule="nonzero"/><path fill="#000000" fill-opacity="0.0" clip-path="url(#id_0)" d="M290.18344 254.59985C290.18344 256.2567 288.8403 257.59985 287.18344 257.59985C285.52658 257.59985 284.18344 256.2567 284.18344 254.59985C284.18344 252.94301 285.52658 251.59985 287.18344 251.59985C288.8403 251.59985 290.18344 252.94301 290.18344 254.59985Z" fill-rule="nonzero"/><path fill="#000000" fill-opacity="0.0" clip-path="url(#id_0)" d="M326.15628 235.70088C326.15628 237.35773 324.81314 238.70088 323.15628 238.70088C321.49942 238.70088 320.15628 237.35773 320.15628 235.70088C320.15628 234.04402 321.49942 232.70088 323.15628 232.70088C324.81314 232.70088 326.15628 234.04402 326.15628 235.70088Z" fill-rule="nonzero"/><path fill="#000000" fill-opacity="0.0" clip-path="url(#id_0)" d="M363.32822 281.17654C363.32822 282.8334 361.98508 284.17654 360.32822 284.17654C358.6714 284.17654 357.32822 282.8334 357.32822 281.17654C357.32822 279.51968 358.6714 278.17654 360.32822 278.17654C361.98508 278.17654 363.32822 279.51968 363.32822 281.17654Z" fill-rule="nonzero"/><path fill="#000000" fill-opacity="0.0" clip-path="url(#id_0)" d="M400.50015 203.51357C400.50015 205.17041 399.157 206.51357 397.50015 206.51357C395.84332 206.51357 394.50015 205.17041 394.50015 203.51357C394.50015 201.8567 395.84332 200.51357 397.50015 200.51357C399.157 200.51357 400.50015 201.8567 400.50015 203.51357Z" fill-rule="nonzero"/><path fill="#000000" fill-opacity="0.0" clip-path="url(#id_0)" d="M434.07483 194.35936C434.07483 196.01622 432.7317 197.35936 431.07483 197.35936C429.41797 197.35936 428.07483 196.01622 428.07483 194.35936C428.07483 192.70251 429.41797 191.35936 431.07483 191.35936C432.7317 191.35936 434.07483 192.70251 434.07483 194.35936Z" fill-rule="nonzero"/><path fill="#000000" fill-opacity="0.0" clip-path="url(#id_0)" d="M471.24677 152.42726C471.24677 154.0841 469.90363 155.42726 468.24677 155.42726C466.5899 155.42726 465.24677 154.0841 465.24677 152.42726C465.24677 150.7704 466.5899 149.42726 468.24677 149.42726C469.90363 149.42726 471.24677 150.7704 471.24677 152.42726Z" fill-rule="nonzero"/><path fill="#000000" fill-opacity="0.0" clip-path="url(#id_0)" d="M507.2196 166.15855C507.2196 167.8154 505.87646 169.15855 504.2196 169.15855C502.56274 169.15855 501.2196 167.8154 501.2196 166.15855C501.2196 164.5017 502.56274 163.15855 504.2196 163.15855C505.87646 163.15855 507.2196 164.5017 507.2196 166.15855Z" fill-rule="nonzero"/><path fill="#000000" fill-opacity="0.0" clip-path="url(#id_0)" d="M544.39154 163.35323C544.39154 165.01009 543.0484 166.35323 541.39154 166.35323C539.7347 166.35323 538.39154 165.01009 538.39154 163.35323C538.39154 161.69638 539.7347 160.35323 541.39154 160.35323C543.0484 160.35323 544.39154 161.69638 544.39154 163.35323Z" fill-rule="nonzero"/><path fill="#000000" fill-opacity="0.0" clip-path="url(#id_0)" d="M580.3644 164.68207C580.3644 166.33891 579.02124 167.68207 577.3644 167.68207C575.7075 167.68207 574.3644 166.33891 574.3644 164.68207C574.3644 163.0252 575.7075 161.68207 577.3644 161.68207C579.02124 161.68207 580.3644 163.0252 580.3644 164.68207Z" fill-rule="nonzero"/><path fill="#000000" fill-opacity="0.0" clip-path="url(#id_0)" d="M617.5363 139.58186C617.5363 141.23871 616.1932 142.58186 614.5363 142.58186C612.87946 142.58186 611.5363 141.23871 611.5363 139.58186C611.5363 137.925 612.87946 136.58186 614.5363 136.58186C616.1932 136.58186 617.5363 137.925 617.5363 139.58186Z" fill-rule="nonzero"/><path fill="#000000" fill-opacity="0.0" clip-path="url(#id_0)" d="M654.70825 116.10579C654.70825 117.76264 653.3651 119.10579 651.70825 119.10579C650.0514 119.10579 648.70825 117.76264 648.70825 116.10579C648.70825 114.44894 650.0514 113.10579 651.70825 113.10579C653.3651 113.10579 654.70825 114.44894 654.70825 116.10579Z" fill-rule="nonzero"/><path fill="#000000" fill-opacity="0.0" clip-path="url(#id_0)" d="M690.6811 84.65671C690.6811 86.31356 689.33795 87.65671 687.6811 87.65671C686.02423 87.65671 684.6811 86.31356 684.6811 84.65671C684.6811 82.999855 686.02423 81.65671 687.6811 81.65671C689.33795 81.65671 690.6811 82.999855 690.6811 84.65671Z" fill-rule="nonzero"/><path fill="#757575" d="M27.628124 446.7625L24.76875 446.7625L24.76875 445.8875L27.628124 445.8875L27.628124 446.7625ZM33.846874 449.95L28.253124 449.95L28.253124 449.16876L31.20625 445.8875Q31.8625 445.1375 32.1125 444.6844Q32.3625 444.21564 32.3625 443.71564Q32.3625 443.04376 31.95625 442.6219Q31.565624 442.1844 30.878124 442.1844Q30.08125 442.1844 29.628124 442.65314Q29.175 443.10626 29.175 443.9344L28.096874 443.9344Q28.096874 442.7469 28.846874 442.02814Q29.6125 441.29376 30.878124 441.29376Q32.08125 441.29376 32.76875 441.91876Q33.45625 442.54376 33.45625 443.59064Q33.45625 444.84064 31.846874 446.59064L29.565624 449.0594L33.846874 449.0594L33.846874 449.95ZM40.6125 446.3094Q40.6125 448.21564 39.95625 449.15314Q39.315624 450.075 37.925 450.075Q36.565624 450.075 35.909374 449.16876Q35.253124 448.2625 35.221874 446.45L35.221874 445.0125Q35.221874 443.1219 35.8625 442.21564Q36.51875 441.29376 37.909374 441.29376Q39.284374 441.29376 39.940624 442.1844Q40.596874 443.0594 40.6125 444.90314L40.6125 446.3094ZM39.51875 444.825Q39.51875 443.45 39.128124 442.825Q38.753124 442.1844 37.909374 442.1844Q37.08125 442.1844 36.690624 442.825Q36.315624 443.45 36.315624 444.7469L36.315624 446.48126Q36.315624 447.85626 36.70625 448.52814Q37.1125 449.1844 37.925 449.1844Q38.721874 449.1844 39.1125 448.5594Q39.503124 447.9344 39.51875 446.60626L39.51875 444.825ZM42.39375 449.3875Q42.39375 449.10626 42.55 448.91876Q42.721874 448.73126 43.05 448.73126Q43.39375 448.73126 43.565624 448.91876Q43.7375 449.10626 43.7375 449.3875Q43.7375 449.65314 43.565624 449.84064Q43.39375 450.0125 43.05 450.0125Q42.721874 450.0125 42.55 449.84064Q42.39375 449.65314 42.39375 449.3875ZM50.6125 446.3094Q50.6125 448.21564 49.95625 449.15314Q49.315624 450.075 47.925 450.075Q46.565624 450.075 45.909374 449.16876Q45.253124 448.2625 45.221874 446.45L45.221874 445.0125Q45.221874 443.1219 45.8625 442.21564Q46.51875 441.29376 47.909374 441.29376Q49.284374 441.29376 49.940624 442.1844Q50.596874 443.0594 50.6125 444.90314L50.6125 446.3094ZM49.51875 444.825Q49.51875 443.45 49.128124 442.825Q48.753124 442.1844 47.909374 442.1844Q47.08125 442.1844 46.690624 442.825Q46.315624 443.45 46.315624 444.7469L46.315624 446.48126Q46.315624 447.85626 46.70625 448.52814Q47.1125 449.1844 47.925 449.1844Q48.721874 449.1844 49.1125 448.5594Q49.503124 447.9344 49.51875 446.60626L49.51875 444.825ZM52.159374 443.0594Q52.159374 442.29376 52.64375 441.79376Q53.14375 441.29376 53.909374 441.29376Q54.690624 441.29376 55.175 441.79376Q55.659374 442.29376 55.659374 443.09064L55.659374 443.5125Q55.659374 444.27814 55.159374 444.77814Q54.675 445.2625 53.925 445.2625Q53.159374 445.2625 52.659374 444.77814Q52.159374 444.27814 52.159374 443.46564L52.159374 443.0594ZM52.971874 443.5125Q52.971874 443.96564 53.221874 444.2625Q53.4875 444.5594 53.925 444.5594Q54.346874 444.5594 54.596874 444.27814Q54.846874 443.98126 54.846874 443.48126L54.846874 443.0594Q54.846874 442.60626 54.596874 442.3094Q54.346874 441.9969 53.909374 441.9969Q53.471874 441.9969 53.221874 442.3094Q52.971874 442.60626 52.971874 443.075L52.971874 443.5125ZM56.315624 447.85626Q56.315624 447.09064 56.8 446.60626Q57.3 446.10626 58.065624 446.10626Q58.83125 446.10626 59.315624 446.60626Q59.815624 447.09064 59.815624 447.90314L59.815624 448.3094Q59.815624 449.075 59.33125 449.575Q58.846874 450.075 58.08125 450.075Q57.315624 450.075 56.815624 449.59064Q56.315624 449.09064 56.315624 448.27814L56.315624 447.85626ZM57.128124 448.3094Q57.128124 448.77814 57.378124 449.075Q57.64375 449.3719 58.08125 449.3719Q58.503124 449.3719 58.753124 449.09064Q59.003124 448.79376 59.003124 448.29376L59.003124 447.85626Q59.003124 447.3875 58.7375 447.10626Q58.4875 446.8094 58.065624 446.8094Q57.64375 446.8094 57.378124 447.10626Q57.128124 447.3875 57.128124 447.8875L57.128124 448.3094ZM54.175 449.3094L53.55 448.91876L57.721874 442.2469L58.33125 442.6375L54.175 449.3094Z" fill-rule="nonzero"/><path fill="#757575" d="M27.628124 372.15582L24.76875 372.15582L24.76875 371.28082L27.628124 371.28082L27.628124 372.15582ZM31.815624 375.34332L30.7375 375.34332L30.7375 368.12457L28.55 368.92145L28.55 367.93707L31.659374 366.7652L31.815624 366.7652L31.815624 375.34332ZM40.6125 371.7027Q40.6125 373.60895 39.95625 374.54645Q39.315624 375.46832 37.925 375.46832Q36.565624 375.46832 35.909374 374.56207Q35.253124 373.65582 35.221874 371.84332L35.221874 370.40582Q35.221874 368.5152 35.8625 367.60895Q36.51875 366.68707 37.909374 366.68707Q39.284374 366.68707 39.940624 367.5777Q40.596874 368.4527 40.6125 370.29645L40.6125 371.7027ZM39.51875 370.21832Q39.51875 368.84332 39.128124 368.21832Q38.753124 367.5777 37.909374 367.5777Q37.08125 367.5777 36.690624 368.21832Q36.315624 368.84332 36.315624 370.1402L36.315624 371.87457Q36.315624 373.24957 36.70625 373.92145Q37.1125 374.5777 37.925 374.5777Q38.721874 374.5777 39.1125 373.9527Q39.503124 373.3277 39.51875 371.99957L39.51875 370.21832ZM42.39375 374.78082Q42.39375 374.49957 42.55 374.31207Q42.721874 374.12457 43.05 374.12457Q43.39375 374.12457 43.565624 374.31207Q43.7375 374.49957 43.7375 374.78082Q43.7375 375.04645 43.565624 375.23395Q43.39375 375.40582 43.05 375.40582Q42.721874 375.40582 42.55 375.23395Q42.39375 375.04645 42.39375 374.78082ZM50.6125 371.7027Q50.6125 373.60895 49.95625 374.54645Q49.315624 375.46832 47.925 375.46832Q46.565624 375.46832 45.909374 374.56207Q45.253124 373.65582 45.221874 371.84332L45.221874 370.40582Q45.221874 368.5152 45.8625 367.60895Q46.51875 366.68707 47.909374 366.68707Q49.284374 366.68707 49.940624 367.5777Q50.596874 368.4527 50.6125 370.29645L50.6125 371.7027ZM49.51875 370.21832Q49.51875 368.84332 49.128124 368.21832Q48.753124 367.5777 47.909374 367.5777Q47.08125 367.5777 46.690624 368.21832Q46.315624 368.84332 46.315624 370.1402L46.315624 371.87457Q46.315624 373.24957 46.70625 373.92145Q47.1125 374.5777 47.925 374.5777Q48.721874 374.5777 49.1125 373.9527Q49.503124 373.3277 49.51875 371.99957L49.51875 370.21832ZM52.159374 368.4527Q52.159374 367.68707 52.64375 367.18707Q53.14375 366.68707 53.909374 366.68707Q54.690624 366.68707 55.175 367.18707Q55.659374 367.68707 55.659374 368.48395L55.659374 368.90582Q55.659374 369.67145 55.159374 370.17145Q54.675 370.65582 53.925 370.65582Q53.159374 370.65582 52.659374 370.17145Q52.159374 369.67145 52.159374 368.85895L52.159374 368.4527ZM52.971874 368.90582Q52.971874 369.35895 53.221874 369.65582Q53.4875 369.9527 53.925 369.9527Q54.346874 369.9527 54.596874 369.67145Q54.846874 369.37457 54.846874 368.87457L54.846874 368.4527Q54.846874 367.99957 54.596874 367.7027Q54.346874 367.3902 53.909374 367.3902Q53.471874 367.3902 53.221874 367.7027Q52.971874 367.99957 52.971874 368.46832L52.971874 368.90582ZM56.315624 373.24957Q56.315624 372.48395 56.8 371.99957Q57.3 371.49957 58.065624 371.49957Q58.83125 371.49957 59.315624 371.99957Q59.815624 372.48395 59.815624 373.29645L59.815624 373.7027Q59.815624 374.46832 59.33125 374.96832Q58.846874 375.46832 58.08125 375.46832Q57.315624 375.46832 56.815624 374.98395Q56.315624 374.48395 56.315624 373.67145L56.315624 373.24957ZM57.128124 373.7027Q57.128124 374.17145 57.378124 374.46832Q57.64375 374.7652 58.08125 374.7652Q58.503124 374.7652 58.753124 374.48395Q59.003124 374.18707 59.003124 373.68707L59.003124 373.24957Q59.003124 372.78082 58.7375 372.49957Q58.4875 372.2027 58.065624 372.2027Q57.64375 372.2027 57.378124 372.49957Q57.128124 372.78082 57.128124 373.28082L57.128124 373.7027ZM54.175 374.7027L53.55 374.31207L57.721874 367.6402L58.33125 368.03082L54.175 374.7027Z" fill-rule="nonzero"/><path fill="#757575" d="M40.6125 297.09604Q40.6125 299.0023 39.95625 299.9398Q39.315624 300.86166 37.925 300.86166Q36.565624 300.86166 35.909374 299.9554Q35.253124 299.04916 35.221874 297.23666L35.221874 295.79916Q35.221874 293.90854 35.8625 293.0023Q36.51875 292.0804 37.909374 292.0804Q39.284374 292.0804 39.940624 292.97104Q40.596874 293.84604 40.6125 295.6898L40.6125 297.09604ZM39.51875 295.61166Q39.51875 294.23666 39.128124 293.61166Q38.753124 292.97104 37.909374 292.97104Q37.08125 292.97104 36.690624 293.61166Q36.315624 294.23666 36.315624 295.53354L36.315624 297.2679Q36.315624 298.6429 36.70625 299.3148Q37.1125 299.97104 37.925 299.97104Q38.721874 299.97104 39.1125 299.34604Q39.503124 298.72104 39.51875 297.3929L39.51875 295.61166ZM42.39375 300.17416Q42.39375 299.8929 42.55 299.7054Q42.721874 299.5179 43.05 299.5179Q43.39375 299.5179 43.565624 299.7054Q43.7375 299.8929 43.7375 300.17416Q43.7375 300.4398 43.565624 300.6273Q43.39375 300.79916 43.05 300.79916Q42.721874 300.79916 42.55 300.6273Q42.39375 300.4398 42.39375 300.17416ZM50.6125 297.09604Q50.6125 299.0023 49.95625 299.9398Q49.315624 300.86166 47.925 300.86166Q46.565624 300.86166 45.909374 299.9554Q45.253124 299.04916 45.221874 297.23666L45.221874 295.79916Q45.221874 293.90854 45.8625 293.0023Q46.51875 292.0804 47.909374 292.0804Q49.284374 292.0804 49.940624 292.97104Q50.596874 293.84604 50.6125 295.6898L50.6125 297.09604ZM49.51875 295.61166Q49.51875 294.23666 49.128124 293.61166Q48.753124 292.97104 47.909374 292.97104Q47.08125 292.97104 46.690624 293.61166Q46.315624 294.23666 46.315624 295.53354L46.315624 297.2679Q46.315624 298.6429 46.70625 299.3148Q47.1125 299.97104 47.925 299.97104Q48.721874 299.97104 49.1125 299.34604Q49.503124 298.72104 49.51875 297.3929L49.51875 295.61166ZM52.159374 293.84604Q52.159374 293.0804 52.64375 292.5804Q53.14375 292.0804 53.909374 292.0804Q54.690624 292.0804 55.175 292.5804Q55.659374 293.0804 55.659374 293.8773L55.659374 294.29916Q55.659374 295.0648 55.159374 295.5648Q54.675 296.04916 53.925 296.04916Q53.159374 296.04916 52.659374 295.5648Q52.159374 295.0648 52.159374 294.2523L52.159374 293.84604ZM52.971874 294.29916Q52.971874 294.7523 53.221874 295.04916Q53.4875 295.34604 53.925 295.34604Q54.346874 295.34604 54.596874 295.0648Q54.846874 294.7679 54.846874 294.2679L54.846874 293.84604Q54.846874 293.3929 54.596874 293.09604Q54.346874 292.78354 53.909374 292.78354Q53.471874 292.78354 53.221874 293.09604Q52.971874 293.3929 52.971874 293.86166L52.971874 294.29916ZM56.315624 298.6429Q56.315624 297.8773 56.8 297.3929Q57.3 296.8929 58.065624 296.8929Q58.83125 296.8929 59.315624 297.3929Q59.815624 297.8773 59.815624 298.6898L59.815624 299.09604Q59.815624 299.86166 59.33125 300.36166Q58.846874 300.86166 58.08125 300.86166Q57.315624 300.86166 56.815624 300.3773Q56.315624 299.8773 56.315624 299.0648L56.315624 298.6429ZM57.128124 299.09604Q57.128124 299.5648 57.378124 299.86166Q57.64375 300.15854 58.08125 300.15854Q58.503124 300.15854 58.753124 299.8773Q59.003124 299.5804 59.003124 299.0804L59.003124 298.6429Q59.003124 298.17416 58.7375 297.8929Q58.4875 297.59604 58.065624 297.59604Q57.64375 297.59604 57.378124 297.8929Q57.128124 298.17416 57.128124 298.67416L57.128124 299.09604ZM54.175 300.09604L53.55 299.7054L57.721874 293.03354L58.33125 293.42416L54.175 300.09604Z" fill-rule="nonzero"/><path fill="#757575" d="M31.815624 226.13L30.7375 226.13L30.7375 218.91125L28.55 219.70813L28.55 218.72375L31.659374 217.55188L31.815624 217.55188L31.815624 226.13ZM40.6125 222.48938Q40.6125 224.39563 39.95625 225.33313Q39.315624 226.255 37.925 226.255Q36.565624 226.255 35.909374 225.34875Q35.253124 224.4425 35.221874 222.63L35.221874 221.1925Q35.221874 219.30188 35.8625 218.39563Q36.51875 217.47375 37.909374 217.47375Q39.284374 217.47375 39.940624 218.36438Q40.596874 219.23938 40.6125 221.08313L40.6125 222.48938ZM39.51875 221.005Q39.51875 219.63 39.128124 219.005Q38.753124 218.36438 37.909374 218.36438Q37.08125 218.36438 36.690624 219.005Q36.315624 219.63 36.315624 220.92688L36.315624 222.66125Q36.315624 224.03625 36.70625 224.70813Q37.1125 225.36438 37.925 225.36438Q38.721874 225.36438 39.1125 224.73938Q39.503124 224.11438 39.51875 222.78625L39.51875 221.005ZM42.39375 225.5675Q42.39375 225.28625 42.55 225.09875Q42.721874 224.91125 43.05 224.91125Q43.39375 224.91125 43.565624 225.09875Q43.7375 225.28625 43.7375 225.5675Q43.7375 225.83313 43.565624 226.02063Q43.39375 226.1925 43.05 226.1925Q42.721874 226.1925 42.55 226.02063Q42.39375 225.83313 42.39375 225.5675ZM50.6125 222.48938Q50.6125 224.39563 49.95625 225.33313Q49.315624 226.255 47.925 226.255Q46.565624 226.255 45.909374 225.34875Q45.253124 224.4425 45.221874 222.63L45.221874 221.1925Q45.221874 219.30188 45.8625 218.39563Q46.51875 217.47375 47.909374 217.47375Q49.284374 217.47375 49.940624 218.36438Q50.596874 219.23938 50.6125 221.08313L50.6125 222.48938ZM49.51875 221.005Q49.51875 219.63 49.128124 219.005Q48.753124 218.36438 47.909374 218.36438Q47.08125 218.36438 46.690624 219.005Q46.315624 219.63 46.315624 220.92688L46.315624 222.66125Q46.315624 224.03625 46.70625 224.70813Q47.1125 225.36438 47.925 225.36438Q48.721874 225.36438 49.1125 224.73938Q49.503124 224.11438 49.51875 222.78625L49.51875 221.005ZM52.159374 219.23938Q52.159374 218.47375 52.64375 217.97375Q53.14375 217.47375 53.909374 217.47375Q54.690624 217.47375 55.175 217.97375Q55.659374 218.47375 55.659374 219.27063L55.659374 219.6925Q55.659374 220.45813 55.159374 220.95813Q54.675 221.4425 53.925 221.4425Q53.159374 221.4425 52.659374 220.95813Q52.159374 220.45813 52.159374 219.64563L52.159374 219.23938ZM52.971874 219.6925Q52.971874 220.14563 53.221874 220.4425Q53.4875 220.73938 53.925 220.73938Q54.346874 220.73938 54.596874 220.45813Q54.846874 220.16125 54.846874 219.66125L54.846874 219.23938Q54.846874 218.78625 54.596874 218.48938Q54.346874 218.17688 53.909374 218.17688Q53.471874 218.17688 53.221874 218.48938Q52.971874 218.78625 52.971874 219.255L52.971874 219.6925ZM56.315624 224.03625Q56.315624 223.27063 56.8 222.78625Q57.3 222.28625 58.065624 222.28625Q58.83125 222.28625 59.315624 222.78625Q59.815624 223.27063 59.815624 224.08313L59.815624 224.48938Q59.815624 225.255 59.33125 225.755Q58.846874 226.255 58.08125 226.255Q57.315624 226.255 56.815624 225.77063Q56.315624 225.27063 56.315624 224.45813L56.315624 224.03625ZM57.128124 224.48938Q57.128124 224.95813 57.378124 225.255Q57.64375 225.55188 58.08125 225.55188Q58.503124 225.55188 58.753124 225.27063Q59.003124 224.97375 59.003124 224.47375L59.003124 224.03625Q59.003124 223.5675 58.7375 223.28625Q58.4875 222.98938 58.065624 222.98938Q57.64375 222.98938 57.378124 223.28625Q57.128124 223.5675 57.128124 224.0675L57.128124 224.48938ZM54.175 225.48938L53.55 225.09875L57.721874 218.42688L58.33125 218.8175L54.175 225.48938Z" fill-rule="nonzero"/><path fill="#757575" d="M33.846874 151.52333L28.253124 151.52333L28.253124 150.74208L31.20625 147.46083Q31.8625 146.71083 32.1125 146.2577Q32.3625 145.78896 32.3625 145.28896Q32.3625 144.61708 31.95625 144.1952Q31.565624 143.7577 30.878124 143.7577Q30.08125 143.7577 29.628124 144.22646Q29.175 144.67958 29.175 145.5077L28.096874 145.5077Q28.096874 144.3202 28.846874 143.60146Q29.6125 142.86708 30.878124 142.86708Q32.08125 142.86708 32.76875 143.49208Q33.45625 144.11708 33.45625 145.16396Q33.45625 146.41396 31.846874 148.16396L29.565624 150.6327L33.846874 150.6327L33.846874 151.52333ZM40.6125 147.8827Q40.6125 149.78896 39.95625 150.72646Q39.315624 151.64833 37.925 151.64833Q36.565624 151.64833 35.909374 150.74208Q35.253124 149.83583 35.221874 148.02333L35.221874 146.58583Q35.221874 144.6952 35.8625 143.78896Q36.51875 142.86708 37.909374 142.86708Q39.284374 142.86708 39.940624 143.7577Q40.596874 144.6327 40.6125 146.47646L40.6125 147.8827ZM39.51875 146.39833Q39.51875 145.02333 39.128124 144.39833Q38.753124 143.7577 37.909374 143.7577Q37.08125 143.7577 36.690624 144.39833Q36.315624 145.02333 36.315624 146.3202L36.315624 148.05458Q36.315624 149.42958 36.70625 150.10146Q37.1125 150.7577 37.925 150.7577Q38.721874 150.7577 39.1125 150.1327Q39.503124 149.5077 39.51875 148.17958L39.51875 146.39833ZM42.39375 150.96083Q42.39375 150.67958 42.55 150.49208Q42.721874 150.30458 43.05 150.30458Q43.39375 150.30458 43.565624 150.49208Q43.7375 150.67958 43.7375 150.96083Q43.7375 151.22646 43.565624 151.41396Q43.39375 151.58583 43.05 151.58583Q42.721874 151.58583 42.55 151.41396Q42.39375 151.22646 42.39375 150.96083ZM50.6125 147.8827Q50.6125 149.78896 49.95625 150.72646Q49.315624 151.64833 47.925 151.64833Q46.565624 151.64833 45.909374 150.74208Q45.253124 149.83583 45.221874 148.02333L45.221874 146.58583Q45.221874 144.6952 45.8625 143.78896Q46.51875 142.86708 47.909374 142.86708Q49.284374 142.86708 49.940624 143.7577Q50.596874 144.6327 50.6125 146.47646L50.6125 147.8827ZM49.51875 146.39833Q49.51875 145.02333 49.128124 144.39833Q48.753124 143.7577 47.909374 143.7577Q47.08125 143.7577 46.690624 144.39833Q46.315624 145.02333 46.315624 146.3202L46.315624 148.05458Q46.315624 149.42958 46.70625 150.10146Q47.1125 150.7577 47.925 150.7577Q48.721874 150.7577 49.1125 150.1327Q49.503124 149.5077 49.51875 148.17958L49.51875 146.39833ZM52.159374 144.6327Q52.159374 143.86708 52.64375 143.36708Q53.14375 142.86708 53.909374 142.86708Q54.690624 142.86708 55.175 143.36708Q55.659374 143.86708 55.659374 144.66396L55.659374 145.08583Q55.659374 145.85146 55.159374 146.35146Q54.675 146.83583 53.925 146.83583Q53.159374 146.83583 52.659374 146.35146Q52.159374 145.85146 52.159374 145.03896L52.159374 144.6327ZM52.971874 145.08583Q52.971874 145.53896 53.221874 145.83583Q53.4875 146.1327 53.925 146.1327Q54.346874 146.1327 54.596874 145.85146Q54.846874 145.55458 54.846874 145.05458L54.846874 144.6327Q54.846874 144.17958 54.596874 143.8827Q54.346874 143.5702 53.909374 143.5702Q53.471874 143.5702 53.221874 143.8827Q52.971874 144.17958 52.971874 144.64833L52.971874 145.08583ZM56.315624 149.42958Q56.315624 148.66396 56.8 148.17958Q57.3 147.67958 58.065624 147.67958Q58.83125 147.67958 59.315624 148.17958Q59.815624 148.66396 59.815624 149.47646L59.815624 149.8827Q59.815624 150.64833 59.33125 151.14833Q58.846874 151.64833 58.08125 151.64833Q57.315624 151.64833 56.815624 151.16396Q56.315624 150.66396 56.315624 149.85146L56.315624 149.42958ZM57.128124 149.8827Q57.128124 150.35146 57.378124 150.64833Q57.64375 150.9452 58.08125 150.9452Q58.503124 150.9452 58.753124 150.66396Q59.003124 150.36708 59.003124 149.86708L59.003124 149.42958Q59.003124 148.96083 58.7375 148.67958Q58.4875 148.3827 58.065624 148.3827Q57.64375 148.3827 57.378124 148.67958Q57.128124 148.96083 57.128124 149.46083L57.128124 149.8827ZM54.175 150.8827L53.55 150.49208L57.721874 143.8202L58.33125 144.21083L54.175 150.8827Z" fill-rule="nonzero"/><path fill="#757575" d="M29.83125 72.11979L30.64375 72.11979Q31.425 72.104164 31.8625 71.71354Q32.3 71.322914 32.3 70.65104Q32.3 69.15104 30.8 69.15104Q30.096874 69.15104 29.675 69.55729Q29.26875 69.96354 29.26875 70.61979L28.175 70.61979Q28.175 69.604164 28.909374 68.93229Q29.659374 68.260414 30.8 68.260414Q32.003124 68.260414 32.690624 68.90104Q33.378124 69.541664 33.378124 70.68229Q33.378124 71.24479 33.01875 71.760414Q32.659374 72.27604 32.034374 72.541664Q32.7375 72.760414 33.1125 73.27604Q33.503124 73.791664 33.503124 74.541664Q33.503124 75.68229 32.753124 76.36979Q32.003124 77.041664 30.8 77.041664Q29.6125 77.041664 28.846874 76.385414Q28.096874 75.729164 28.096874 74.666664L29.190624 74.666664Q29.190624 75.33854 29.628124 75.74479Q30.065624 76.15104 30.815624 76.15104Q31.596874 76.15104 32.003124 75.74479Q32.425 75.322914 32.425 74.55729Q32.425 73.822914 31.971874 73.43229Q31.51875 73.02604 30.64375 73.010414L29.83125 73.010414L29.83125 72.11979ZM40.6125 73.27604Q40.6125 75.18229 39.95625 76.11979Q39.315624 77.041664 37.925 77.041664Q36.565624 77.041664 35.909374 76.135414Q35.253124 75.229164 35.221874 73.416664L35.221874 71.979164Q35.221874 70.08854 35.8625 69.18229Q36.51875 68.260414 37.909374 68.260414Q39.284374 68.260414 39.940624 69.15104Q40.596874 70.02604 40.6125 71.86979L40.6125 73.27604ZM39.51875 71.791664Q39.51875 70.416664 39.128124 69.791664Q38.753124 69.15104 37.909374 69.15104Q37.08125 69.15104 36.690624 69.791664Q36.315624 70.416664 36.315624 71.71354L36.315624 73.447914Q36.315624 74.822914 36.70625 75.49479Q37.1125 76.15104 37.925 76.15104Q38.721874 76.15104 39.1125 75.52604Q39.503124 74.90104 39.51875 73.572914L39.51875 71.791664ZM42.39375 76.354164Q42.39375 76.072914 42.55 75.885414Q42.721874 75.697914 43.05 75.697914Q43.39375 75.697914 43.565624 75.885414Q43.7375 76.072914 43.7375 76.354164Q43.7375 76.61979 43.565624 76.80729Q43.39375 76.979164 43.05 76.979164Q42.721874 76.979164 42.55 76.80729Q42.39375 76.61979 42.39375 76.354164ZM50.6125 73.27604Q50.6125 75.18229 49.95625 76.11979Q49.315624 77.041664 47.925 77.041664Q46.565624 77.041664 45.909374 76.135414Q45.253124 75.229164 45.221874 73.416664L45.221874 71.979164Q45.221874 70.08854 45.8625 69.18229Q46.51875 68.260414 47.909374 68.260414Q49.284374 68.260414 49.940624 69.15104Q50.596874 70.02604 50.6125 71.86979L50.6125 73.27604ZM49.51875 71.791664Q49.51875 70.416664 49.128124 69.791664Q48.753124 69.15104 47.909374 69.15104Q47.08125 69.15104 46.690624 69.791664Q46.315624 70.416664 46.315624 71.71354L46.315624 73.447914Q46.315624 74.822914 46.70625 75.49479Q47.1125 76.15104 47.925 76.15104Q48.721874 76.15104 49.1125 75.52604Q49.503124 74.90104 49.51875 73.572914L49.51875 71.791664ZM52.159374 70.02604Q52.159374 69.260414 52.64375 68.760414Q53.14375 68.260414 53.909374 68.260414Q54.690624 68.260414 55.175 68.760414Q55.659374 69.260414 55.659374 70.05729L55.659374 70.479164Q55.659374 71.24479 55.159374 71.74479Q54.675 72.229164 53.925 72.229164Q53.159374 72.229164 52.659374 71.74479Q52.159374 71.24479 52.159374 70.43229L52.159374 70.02604ZM52.971874 70.479164Q52.971874 70.93229 53.221874 71.229164Q53.4875 71.52604 53.925 71.52604Q54.346874 71.52604 54.596874 71.24479Q54.846874 70.947914 54.846874 70.447914L54.846874 70.02604Q54.846874 69.572914 54.596874 69.27604Q54.346874 68.96354 53.909374 68.96354Q53.471874 68.96354 53.221874 69.27604Q52.971874 69.572914 52.971874 70.041664L52.971874 70.479164ZM56.315624 74.822914Q56.315624 74.05729 56.8 73.572914Q57.3 73.072914 58.065624 73.072914Q58.83125 73.072914 59.315624 73.572914Q59.815624 74.05729 59.815624 74.86979L59.815624 75.27604Q59.815624 76.041664 59.33125 76.541664Q58.846874 77.041664 58.08125 77.041664Q57.315624 77.041664 56.815624 76.55729Q56.315624 76.05729 56.315624 75.24479L56.315624 74.822914ZM57.128124 75.27604Q57.128124 75.74479 57.378124 76.041664Q57.64375 76.33854 58.08125 76.33854Q58.503124 76.33854 58.753124 76.05729Q59.003124 75.760414 59.003124 75.260414L59.003124 74.822914Q59.003124 74.354164 58.7375 74.072914Q58.4875 73.77604 58.065624 73.77604Q57.64375 73.77604 57.378124 74.072914Q57.128124 74.354164 57.128124 74.854164L57.128124 75.27604ZM54.175 76.27604L53.55 75.885414L57.721874 69.21354L58.33125 69.604164L54.175 76.27604Z" fill-rule="nonzero"/><path fill="#757575" d="M114.96041 463.45L113.882286 463.45L113.882286 456.23126L111.694786 457.02814L111.694786 456.04376L114.80416 454.8719L114.96041 454.8719L114.96041 463.45ZM120.77291 460.2625L117.913536 460.2625L117.913536 459.3875L120.77291 459.3875L120.77291 460.2625ZM125.257286 454.91876L126.39791 454.91876L126.39791 460.96564Q126.39791 462.1844 125.64791 462.8875Q124.913536 463.575 123.694786 463.575Q122.42916 463.575 121.71041 462.91876Q121.007286 462.2625 121.007286 461.09064L122.132286 461.09064Q122.132286 461.825 122.52291 462.2469Q122.92916 462.65314 123.694786 462.65314Q124.39791 462.65314 124.819786 462.21564Q125.257286 461.7625 125.257286 460.98126L125.257286 454.91876ZM132.42917 462.825Q131.80417 463.575 130.5698 463.575Q129.55417 463.575 129.02292 462.98126Q128.49167 462.3875 128.49167 461.23126L128.49167 457.10626L129.5698 457.10626L129.5698 461.2Q129.5698 462.65314 130.74167 462.65314Q131.99167 462.65314 132.39792 461.71564L132.39792 457.10626L133.49167 457.10626L133.49167 463.45L132.46042 463.45L132.42917 462.825ZM136.6948 463.45L135.61667 463.45L135.61667 454.45L136.6948 454.45L136.6948 463.45ZM140.77292 460.2625L137.91354 460.2625L137.91354 459.3875L140.77292 459.3875L140.77292 460.2625ZM146.99167 463.45L141.39792 463.45L141.39792 462.66876L144.35104 459.3875Q145.0073 458.6375 145.2573 458.1844Q145.5073 457.71564 145.5073 457.21564Q145.5073 456.54376 145.10104 456.1219Q144.71042 455.6844 144.02292 455.6844Q143.22604 455.6844 142.77292 456.15314Q142.3198 456.60626 142.3198 457.4344L141.24167 457.4344Q141.24167 456.2469 141.99167 455.52814Q142.7573 454.79376 144.02292 454.79376Q145.22604 454.79376 145.91354 455.41876Q146.60104 456.04376 146.60104 457.09064Q146.60104 458.34064 144.99167 460.09064L142.71042 462.5594L146.99167 462.5594L146.99167 463.45ZM153.7573 459.8094Q153.7573 461.71564 153.10104 462.65314Q152.46042 463.575 151.0698 463.575Q149.71042 463.575 149.05417 462.66876Q148.39792 461.7625 148.36667 459.95L148.36667 458.5125Q148.36667 456.6219 149.0073 455.71564Q149.66354 454.79376 151.05417 454.79376Q152.42917 454.79376 153.08542 455.6844Q153.74167 456.5594 153.7573 458.40314L153.7573 459.8094ZM152.66354 458.325Q152.66354 456.95 152.27292 456.325Q151.89792 455.6844 151.05417 455.6844Q150.22604 455.6844 149.83542 456.325Q149.46042 456.95 149.46042 458.2469L149.46042 459.98126Q149.46042 461.35626 149.85104 462.02814Q150.2573 462.6844 151.0698 462.6844Q151.86667 462.6844 152.2573 462.0594Q152.64792 461.4344 152.66354 460.10626L152.66354 458.325ZM158.96042 463.45L157.8823 463.45L157.8823 456.23126L155.6948 457.02814L155.6948 456.04376L158.80417 454.8719L158.96042 454.8719L158.96042 463.45ZM167.58542 457.1375Q167.58542 457.77814 167.24167 458.27814Q166.89792 458.77814 166.33542 459.0594Q166.99167 459.34064 167.3823 459.90314Q167.77292 460.45 167.77292 461.15314Q167.77292 462.2469 167.02292 462.91876Q166.28854 463.575 165.0698 463.575Q163.83542 463.575 163.08542 462.91876Q162.35104 462.2469 162.35104 461.15314Q162.35104 460.45 162.72604 459.90314Q163.10104 459.34064 163.77292 459.0594Q163.21042 458.77814 162.8823 458.27814Q162.55417 457.77814 162.55417 457.1375Q162.55417 456.0594 163.24167 455.4344Q163.92917 454.79376 165.0698 454.79376Q166.1948 454.79376 166.8823 455.4344Q167.58542 456.0594 167.58542 457.1375ZM166.6948 461.1219Q166.6948 460.40314 166.24167 459.96564Q165.78854 459.5125 165.05417 459.5125Q164.3198 459.5125 163.86667 459.96564Q163.42917 460.40314 163.42917 461.1375Q163.42917 461.85626 163.86667 462.27814Q164.30417 462.6844 165.0698 462.6844Q165.8198 462.6844 166.2573 462.2625Q166.6948 461.84064 166.6948 461.1219ZM165.0698 455.6844Q164.42917 455.6844 164.02292 456.09064Q163.6323 456.48126 163.6323 457.16876Q163.6323 457.8094 164.02292 458.21564Q164.41354 458.6219 165.05417 458.6219Q165.71042 458.6219 166.10104 458.21564Q166.49167 457.8094 166.49167 457.16876Q166.49167 456.5125 166.08542 456.10626Q165.67917 455.6844 165.0698 455.6844Z" fill-rule="nonzero"/><path fill="#757575" d="M224.77713 463.45L223.699 463.45L223.699 456.23126L221.5115 457.02814L221.5115 456.04376L224.62088 454.8719L224.77713 454.8719L224.77713 463.45ZM230.58963 460.2625L227.73026 460.2625L227.73026 459.3875L230.58963 459.3875L230.58963 460.2625ZM238.05838 459.46564Q238.05838 460.71564 237.6365 461.65314Q237.21463 462.575 236.43338 463.075Q235.66776 463.575 234.6365 463.575Q233.6365 463.575 232.85526 463.075Q232.074 462.575 231.6365 461.66876Q231.21463 460.7469 231.199 459.52814L231.199 458.91876Q231.199 457.6844 231.62088 456.7469Q232.05838 455.8094 232.83963 455.3094Q233.62088 454.79376 234.6365 454.79376Q235.65213 454.79376 236.43338 455.29376Q237.21463 455.79376 237.6365 456.73126Q238.05838 457.66876 238.05838 458.91876L238.05838 459.46564ZM236.949 458.90314Q236.949 457.3875 236.33963 456.575Q235.73026 455.7625 234.6365 455.7625Q233.55838 455.7625 232.949 456.575Q232.33963 457.3875 232.324 458.825L232.324 459.46564Q232.324 460.9344 232.93338 461.77814Q233.55838 462.60626 234.6365 462.60626Q235.73026 462.60626 236.324 461.825Q236.93338 461.02814 236.949 459.54376L236.949 458.90314ZM241.87088 462.6844Q242.449 462.6844 242.8865 462.34064Q243.324 461.98126 243.37088 461.45L244.40213 461.45Q244.37088 461.9969 244.0115 462.4969Q243.66776 462.98126 243.08963 463.27814Q242.52713 463.575 241.87088 463.575Q240.574 463.575 239.80838 462.71564Q239.05838 461.84064 239.05838 460.34064L239.05838 460.15314Q239.05838 459.23126 239.3865 458.5125Q239.73026 457.79376 240.35526 457.40314Q240.99588 456.9969 241.87088 456.9969Q242.93338 456.9969 243.6365 457.6375Q244.35526 458.2625 244.40213 459.29376L243.37088 459.29376Q243.324 458.66876 242.90213 458.27814Q242.48026 457.8875 241.87088 457.8875Q241.04276 457.8875 240.58963 458.48126Q240.1365 459.075 240.1365 460.2L240.1365 460.40314Q240.1365 461.4969 240.58963 462.09064Q241.04276 462.6844 241.87088 462.6844ZM246.80838 455.575L246.80838 457.10626L247.98026 457.10626L247.98026 457.95L246.80838 457.95L246.80838 461.8719Q246.80838 462.2625 246.96463 462.45Q247.12088 462.6375 247.49588 462.6375Q247.68338 462.6375 248.0115 462.575L248.0115 463.45Q247.58963 463.575 247.18338 463.575Q246.46463 463.575 246.08963 463.1375Q245.71463 462.6844 245.71463 461.8719L245.71463 457.95L244.55838 457.95L244.55838 457.10626L245.71463 457.10626L245.71463 455.575L246.80838 455.575ZM251.58963 460.2625L248.73026 460.2625L248.73026 459.3875L251.58963 459.3875L251.58963 460.2625ZM257.80838 463.45L252.21463 463.45L252.21463 462.66876L255.16776 459.3875Q255.824 458.6375 256.074 458.1844Q256.324 457.71564 256.324 457.21564Q256.324 456.54376 255.91776 456.1219Q255.52713 455.6844 254.83963 455.6844Q254.04276 455.6844 253.58963 456.15314Q253.1365 456.60626 253.1365 457.4344L252.05838 457.4344Q252.05838 456.2469 252.80838 455.52814Q253.574 454.79376 254.83963 454.79376Q256.04276 454.79376 256.73026 455.41876Q257.41776 456.04376 257.41776 457.09064Q257.41776 458.34064 255.80838 460.09064L253.52713 462.5594L257.80838 462.5594L257.80838 463.45ZM264.574 459.8094Q264.574 461.71564 263.91776 462.65314Q263.27713 463.575 261.8865 463.575Q260.52713 463.575 259.87088 462.66876Q259.21463 461.7625 259.18338 459.95L259.18338 458.5125Q259.18338 456.6219 259.824 455.71564Q260.48026 454.79376 261.87088 454.79376Q263.24588 454.79376 263.90213 455.6844Q264.55838 456.5594 264.574 458.40314L264.574 459.8094ZM263.48026 458.325Q263.48026 456.95 263.08963 456.325Q262.71463 455.6844 261.87088 455.6844Q261.04276 455.6844 260.65213 456.325Q260.27713 456.95 260.27713 458.2469L260.27713 459.98126Q260.27713 461.35626 260.66776 462.02814Q261.074 462.6844 261.8865 462.6844Q262.68338 462.6844 263.074 462.0594Q263.46463 461.4344 263.48026 460.10626L263.48026 458.325ZM269.77713 463.45L268.699 463.45L268.699 456.23126L266.5115 457.02814L266.5115 456.04376L269.62088 454.8719L269.77713 454.8719L269.77713 463.45ZM278.40213 457.1375Q278.40213 457.77814 278.05838 458.27814Q277.71463 458.77814 277.15213 459.0594Q277.80838 459.34064 278.199 459.90314Q278.58963 460.45 278.58963 461.15314Q278.58963 462.2469 277.83963 462.91876Q277.10526 463.575 275.8865 463.575Q274.65213 463.575 273.90213 462.91876Q273.16776 462.2469 273.16776 461.15314Q273.16776 460.45 273.54276 459.90314Q273.91776 459.34064 274.58963 459.0594Q274.02713 458.77814 273.699 458.27814Q273.37088 457.77814 273.37088 457.1375Q273.37088 456.0594 274.05838 455.4344Q274.74588 454.79376 275.8865 454.79376Q277.0115 454.79376 277.699 455.4344Q278.40213 456.0594 278.40213 457.1375ZM277.5115 461.1219Q277.5115 460.40314 277.05838 459.96564Q276.60526 459.5125 275.87088 459.5125Q275.1365 459.5125 274.68338 459.96564Q274.24588 460.40314 274.24588 461.1375Q274.24588 461.85626 274.68338 462.27814Q275.12088 462.6844 275.8865 462.6844Q276.6365 462.6844 277.074 462.2625Q277.5115 461.84064 277.5115 461.1219ZM275.8865 455.6844Q275.24588 455.6844 274.83963 456.09064Q274.449 456.48126 274.449 457.16876Q274.449 457.8094 274.83963 458.21564Q275.23026 458.6219 275.87088 458.6219Q276.52713 458.6219 276.91776 458.21564Q277.30838 457.8094 277.30838 457.16876Q277.30838 456.5125 276.90213 456.10626Q276.49588 455.6844 275.8865 455.6844Z" fill-rule="nonzero"/><path fill="#757575" d="M333.59384 463.45L332.51572 463.45L332.51572 456.23126L330.32822 457.02814L330.32822 456.04376L333.4376 454.8719L333.59384 454.8719L333.59384 463.45ZM339.40634 460.2625L336.54697 460.2625L336.54697 459.3875L339.40634 459.3875L339.40634 460.2625ZM343.89072 454.91876L345.03134 454.91876L345.03134 460.96564Q345.03134 462.1844 344.28134 462.8875Q343.54697 463.575 342.32822 463.575Q341.0626 463.575 340.34384 462.91876Q339.64072 462.2625 339.64072 461.09064L340.76572 461.09064Q340.76572 461.825 341.15634 462.2469Q341.5626 462.65314 342.32822 462.65314Q343.03134 462.65314 343.45322 462.21564Q343.89072 461.7625 343.89072 460.98126L343.89072 454.91876ZM351.0626 463.45Q350.96884 463.2625 350.90634 462.77814Q350.15634 463.575 349.10947 463.575Q348.17197 463.575 347.5626 463.04376Q346.96884 462.5125 346.96884 461.6844Q346.96884 460.7 347.71884 460.15314Q348.46884 459.60626 349.84384 459.60626L350.89072 459.60626L350.89072 459.10626Q350.89072 458.54376 350.54697 458.21564Q350.21884 457.8719 349.54697 457.8719Q348.96884 457.8719 348.57822 458.16876Q348.1876 458.45 348.1876 458.8719L347.09384 458.8719Q347.09384 458.3875 347.42197 457.95Q347.76572 457.5125 348.34384 457.2625Q348.92197 456.9969 349.60947 456.9969Q350.71884 456.9969 351.32822 457.54376Q351.95322 458.09064 351.98447 459.04376L351.98447 461.96564Q351.98447 462.84064 352.20322 463.35626L352.20322 463.45L351.0626 463.45ZM349.26572 462.6219Q349.78134 462.6219 350.23447 462.35626Q350.6876 462.09064 350.89072 461.66876L350.89072 460.3719L350.04697 460.3719Q348.04697 460.3719 348.04697 461.54376Q348.04697 462.04376 348.39072 462.34064Q348.73447 462.6219 349.26572 462.6219ZM355.17197 457.10626L355.20322 457.90314Q355.9376 456.9969 357.10947 456.9969Q359.1251 456.9969 359.14072 459.2625L359.14072 463.45L358.04697 463.45L358.04697 459.2469Q358.04697 458.575 357.73447 458.2469Q357.4376 457.91876 356.78134 457.91876Q356.2501 457.91876 355.84384 458.2Q355.45322 458.48126 355.23447 458.9344L355.23447 463.45L354.15634 463.45L354.15634 457.10626L355.17197 457.10626ZM363.40634 460.2625L360.54697 460.2625L360.54697 459.3875L363.40634 459.3875L363.40634 460.2625ZM369.6251 463.45L364.03134 463.45L364.03134 462.66876L366.98447 459.3875Q367.64072 458.6375 367.89072 458.1844Q368.14072 457.71564 368.14072 457.21564Q368.14072 456.54376 367.73447 456.1219Q367.34384 455.6844 366.65634 455.6844Q365.85947 455.6844 365.40634 456.15314Q364.95322 456.60626 364.95322 457.4344L363.8751 457.4344Q363.8751 456.2469 364.6251 455.52814Q365.39072 454.79376 366.65634 454.79376Q367.85947 454.79376 368.54697 455.41876Q369.23447 456.04376 369.23447 457.09064Q369.23447 458.34064 367.6251 460.09064L365.34384 462.5594L369.6251 462.5594L369.6251 463.45ZM376.39072 459.8094Q376.39072 461.71564 375.73447 462.65314Q375.09384 463.575 373.70322 463.575Q372.34384 463.575 371.6876 462.66876Q371.03134 461.7625 371.0001 459.95L371.0001 458.5125Q371.0001 456.6219 371.64072 455.71564Q372.29697 454.79376 373.6876 454.79376Q375.0626 454.79376 375.71884 455.6844Q376.3751 456.5594 376.39072 458.40314L376.39072 459.8094ZM375.29697 458.325Q375.29697 456.95 374.90634 456.325Q374.53134 455.6844 373.6876 455.6844Q372.85947 455.6844 372.46884 456.325Q372.09384 456.95 372.09384 458.2469L372.09384 459.98126Q372.09384 461.35626 372.48447 462.02814Q372.89072 462.6844 373.70322 462.6844Q374.5001 462.6844 374.89072 462.0594Q375.28134 461.4344 375.29697 460.10626L375.29697 458.325ZM381.59384 463.45L380.51572 463.45L380.51572 456.23126L378.32822 457.02814L378.32822 456.04376L381.4376 454.8719L381.59384 454.8719L381.59384 463.45ZM389.1876 459.7Q388.85947 460.10626 388.3751 460.35626Q387.90634 460.59064 387.34384 460.59064Q386.60947 460.59064 386.0626 460.23126Q385.51572 459.8719 385.21884 459.21564Q384.92197 458.54376 384.92197 457.7469Q384.92197 456.90314 385.23447 456.21564Q385.5626 455.52814 386.15634 455.16876Q386.76572 454.79376 387.5626 454.79376Q388.82822 454.79376 389.54697 455.7469Q390.28134 456.7 390.28134 458.325L390.28134 458.6375Q390.28134 461.1375 389.29697 462.27814Q388.3126 463.41876 386.32822 463.45L386.10947 463.45L386.10947 462.54376L386.34384 462.54376Q387.6876 462.5125 388.40634 461.84064Q389.1251 461.16876 389.1876 459.7ZM387.51572 459.7Q388.0626 459.7 388.51572 459.3719Q388.98447 459.02814 389.20322 458.54376L389.20322 458.10626Q389.20322 457.04376 388.73447 456.3719Q388.26572 455.7 387.5626 455.7Q386.84384 455.7 386.40634 456.2469Q385.98447 456.79376 385.98447 457.7Q385.98447 458.575 386.39072 459.1375Q386.8126 459.7 387.51572 459.7Z" fill-rule="nonzero"/><path fill="#757575" d="M442.5124 463.45L441.43427 463.45L441.43427 456.23126L439.24677 457.02814L439.24677 456.04376L442.35614 454.8719L442.5124 454.8719L442.5124 463.45ZM448.3249 460.2625L445.4655 460.2625L445.4655 459.3875L448.3249 459.3875L448.3249 460.2625ZM453.9499 461.21564L450.37177 461.21564L449.5749 463.45L448.41864 463.45L451.66864 454.91876L452.653 454.91876L455.91864 463.45L454.7624 463.45L453.9499 461.21564ZM450.7155 460.29376L453.62177 460.29376L452.16864 456.3094L450.7155 460.29376ZM462.41864 460.35626Q462.41864 461.79376 461.7624 462.6844Q461.10614 463.575 459.9655 463.575Q458.80927 463.575 458.153 462.84064L458.153 465.8875L457.0749 465.8875L457.0749 457.10626L458.05927 457.10626L458.10614 457.8094Q458.778 456.9969 459.9499 456.9969Q461.0905 456.9969 461.74677 457.85626Q462.41864 458.71564 462.41864 460.2469L462.41864 460.35626ZM461.3405 460.23126Q461.3405 459.15314 460.87177 458.54376Q460.41864 457.91876 459.62177 457.91876Q458.6374 457.91876 458.153 458.77814L458.153 461.8094Q458.6374 462.6844 459.6374 462.6844Q460.41864 462.6844 460.87177 462.075Q461.3405 461.45 461.3405 460.23126ZM467.1374 458.075Q466.8874 458.04376 466.60614 458.04376Q465.528 458.04376 465.153 458.95L465.153 463.45L464.0749 463.45L464.0749 457.10626L465.12177 457.10626L465.1374 457.84064Q465.66864 456.9969 466.653 456.9969Q466.9655 456.9969 467.1374 457.075L467.1374 458.075ZM470.3249 460.2625L467.4655 460.2625L467.4655 459.3875L470.3249 459.3875L470.3249 460.2625ZM476.54364 463.45L470.9499 463.45L470.9499 462.66876L473.903 459.3875Q474.55927 458.6375 474.80927 458.1844Q475.05927 457.71564 475.05927 457.21564Q475.05927 456.54376 474.653 456.1219Q474.2624 455.6844 473.5749 455.6844Q472.778 455.6844 472.3249 456.15314Q471.87177 456.60626 471.87177 457.4344L470.79364 457.4344Q470.79364 456.2469 471.54364 455.52814Q472.30927 454.79376 473.5749 454.79376Q474.778 454.79376 475.4655 455.41876Q476.153 456.04376 476.153 457.09064Q476.153 458.34064 474.54364 460.09064L472.2624 462.5594L476.54364 462.5594L476.54364 463.45ZM483.30927 459.8094Q483.30927 461.71564 482.653 462.65314Q482.0124 463.575 480.62177 463.575Q479.2624 463.575 478.60614 462.66876Q477.9499 461.7625 477.91864 459.95L477.91864 458.5125Q477.91864 456.6219 478.55927 455.71564Q479.2155 454.79376 480.60614 454.79376Q481.98114 454.79376 482.6374 455.6844Q483.29364 456.5594 483.30927 458.40314L483.30927 459.8094ZM482.2155 458.325Q482.2155 456.95 481.8249 456.325Q481.4499 455.6844 480.60614 455.6844Q479.778 455.6844 479.3874 456.325Q479.0124 456.95 479.0124 458.2469L479.0124 459.98126Q479.0124 461.35626 479.403 462.02814Q479.80927 462.6844 480.62177 462.6844Q481.41864 462.6844 481.80927 462.0594Q482.1999 461.4344 482.2155 460.10626L482.2155 458.325ZM488.5124 463.45L487.43427 463.45L487.43427 456.23126L485.24677 457.02814L485.24677 456.04376L488.35614 454.8719L488.5124 454.8719L488.5124 463.45ZM496.10614 459.7Q495.778 460.10626 495.29364 460.35626Q494.8249 460.59064 494.2624 460.59064Q493.528 460.59064 492.98114 460.23126Q492.43427 459.8719 492.1374 459.21564Q491.8405 458.54376 491.8405 457.7469Q491.8405 456.90314 492.153 456.21564Q492.48114 455.52814 493.0749 455.16876Q493.68427 454.79376 494.48114 454.79376Q495.74677 454.79376 496.4655 455.7469Q497.1999 456.7 497.1999 458.325L497.1999 458.6375Q497.1999 461.1375 496.2155 462.27814Q495.23114 463.41876 493.24677 463.45L493.028 463.45L493.028 462.54376L493.2624 462.54376Q494.60614 462.5125 495.3249 461.84064Q496.04364 461.16876 496.10614 459.7ZM494.43427 459.7Q494.98114 459.7 495.43427 459.3719Q495.903 459.02814 496.12177 458.54376L496.12177 458.10626Q496.12177 457.04376 495.653 456.3719Q495.18427 455.7 494.48114 455.7Q493.7624 455.7 493.3249 456.2469Q492.903 456.79376 492.903 457.7Q492.903 458.575 493.30927 459.1375Q493.73114 459.7 494.43427 459.7Z" fill-rule="nonzero"/><path fill="#757575" d="M552.63 463.45L551.5519 463.45L551.5519 456.23126L549.3644 457.02814L549.3644 456.04376L552.47375 454.8719L552.63 454.8719L552.63 463.45ZM558.4425 460.2625L555.5831 460.2625L555.5831 459.3875L558.4425 459.3875L558.4425 460.2625ZM562.9269 454.91876L564.0675 454.91876L564.0675 460.96564Q564.0675 462.1844 563.3175 462.8875Q562.5831 463.575 561.3644 463.575Q560.09875 463.575 559.38 462.91876Q558.6769 462.2625 558.6769 461.09064L559.8019 461.09064Q559.8019 461.825 560.1925 462.2469Q560.59875 462.65314 561.3644 462.65314Q562.0675 462.65314 562.4894 462.21564Q562.9269 461.7625 562.9269 460.98126L562.9269 454.91876ZM570.09875 462.825Q569.47375 463.575 568.2394 463.575Q567.22375 463.575 566.6925 462.98126Q566.16125 462.3875 566.16125 461.23126L566.16125 457.10626L567.2394 457.10626L567.2394 461.2Q567.2394 462.65314 568.41125 462.65314Q569.66125 462.65314 570.0675 461.71564L570.0675 457.10626L571.16125 457.10626L571.16125 463.45L570.13 463.45L570.09875 462.825ZM574.3644 463.45L573.28625 463.45L573.28625 454.45L574.3644 454.45L574.3644 463.45ZM578.4425 460.2625L575.5831 460.2625L575.5831 459.3875L578.4425 459.3875L578.4425 460.2625ZM584.66125 463.45L579.0675 463.45L579.0675 462.66876L582.0206 459.3875Q582.6769 458.6375 582.9269 458.1844Q583.1769 457.71564 583.1769 457.21564Q583.1769 456.54376 582.7706 456.1219Q582.38 455.6844 581.6925 455.6844Q580.8956 455.6844 580.4425 456.15314Q579.9894 456.60626 579.9894 457.4344L578.91125 457.4344Q578.91125 456.2469 579.66125 455.52814Q580.4269 454.79376 581.6925 454.79376Q582.8956 454.79376 583.5831 455.41876Q584.2706 456.04376 584.2706 457.09064Q584.2706 458.34064 582.66125 460.09064L580.38 462.5594L584.66125 462.5594L584.66125 463.45ZM591.4269 459.8094Q591.4269 461.71564 590.7706 462.65314Q590.13 463.575 588.7394 463.575Q587.38 463.575 586.72375 462.66876Q586.0675 461.7625 586.03625 459.95L586.03625 458.5125Q586.03625 456.6219 586.6769 455.71564Q587.3331 454.79376 588.72375 454.79376Q590.09875 454.79376 590.755 455.6844Q591.41125 456.5594 591.4269 458.40314L591.4269 459.8094ZM590.3331 458.325Q590.3331 456.95 589.9425 456.325Q589.5675 455.6844 588.72375 455.6844Q587.8956 455.6844 587.505 456.325Q587.13 456.95 587.13 458.2469L587.13 459.98126Q587.13 461.35626 587.5206 462.02814Q587.9269 462.6844 588.7394 462.6844Q589.53625 462.6844 589.9269 462.0594Q590.3175 461.4344 590.3331 460.10626L590.3331 458.325ZM596.63 463.45L595.5519 463.45L595.5519 456.23126L593.3644 457.02814L593.3644 456.04376L596.47375 454.8719L596.63 454.8719L596.63 463.45ZM604.22375 459.7Q603.8956 460.10626 603.41125 460.35626Q602.9425 460.59064 602.38 460.59064Q601.6456 460.59064 601.09875 460.23126Q600.5519 459.8719 600.255 459.21564Q599.9581 458.54376 599.9581 457.7469Q599.9581 456.90314 600.2706 456.21564Q600.59875 455.52814 601.1925 455.16876Q601.8019 454.79376 602.59875 454.79376Q603.8644 454.79376 604.5831 455.7469Q605.3175 456.7 605.3175 458.325L605.3175 458.6375Q605.3175 461.1375 604.3331 462.27814Q603.34875 463.41876 601.3644 463.45L601.1456 463.45L601.1456 462.54376L601.38 462.54376Q602.72375 462.5125 603.4425 461.84064Q604.16125 461.16876 604.22375 459.7ZM602.5519 459.7Q603.09875 459.7 603.5519 459.3719Q604.0206 459.02814 604.2394 458.54376L604.2394 458.10626Q604.2394 457.04376 603.7706 456.3719Q603.3019 455.7 602.59875 455.7Q601.88 455.7 601.4425 456.2469Q601.0206 456.79376 601.0206 457.7Q601.0206 458.575 601.4269 459.1375Q601.84875 459.7 602.5519 459.7Z" fill-rule="nonzero"/><path fill="#757575" d="M662.4467 463.45L661.3686 463.45L661.3686 456.23126L659.1811 457.02814L659.1811 456.04376L662.29047 454.8719L662.4467 454.8719L662.4467 463.45ZM668.2592 460.2625L665.39984 460.2625L665.39984 459.3875L668.2592 459.3875L668.2592 460.2625ZM675.72797 459.46564Q675.72797 460.71564 675.3061 461.65314Q674.8842 462.575 674.10297 463.075Q673.33734 463.575 672.3061 463.575Q671.3061 463.575 670.52484 463.075Q669.7436 462.575 669.3061 461.66876Q668.8842 460.7469 668.8686 459.52814L668.8686 458.91876Q668.8686 457.6844 669.29047 456.7469Q669.72797 455.8094 670.5092 455.3094Q671.29047 454.79376 672.3061 454.79376Q673.3217 454.79376 674.10297 455.29376Q674.8842 455.79376 675.3061 456.73126Q675.72797 457.66876 675.72797 458.91876L675.72797 459.46564ZM674.6186 458.90314Q674.6186 457.3875 674.0092 456.575Q673.39984 455.7625 672.3061 455.7625Q671.22797 455.7625 670.6186 456.575Q670.0092 457.3875 669.9936 458.825L669.9936 459.46564Q669.9936 460.9344 670.60297 461.77814Q671.22797 462.60626 672.3061 462.60626Q673.39984 462.60626 673.9936 461.825Q674.60297 461.02814 674.6186 459.54376L674.6186 458.90314ZM679.54047 462.6844Q680.1186 462.6844 680.5561 462.34064Q680.9936 461.98126 681.04047 461.45L682.0717 461.45Q682.04047 461.9969 681.6811 462.4969Q681.33734 462.98126 680.7592 463.27814Q680.1967 463.575 679.54047 463.575Q678.2436 463.575 677.47797 462.71564Q676.72797 461.84064 676.72797 460.34064L676.72797 460.15314Q676.72797 459.23126 677.0561 458.5125Q677.39984 457.79376 678.02484 457.40314Q678.66547 456.9969 679.54047 456.9969Q680.60297 456.9969 681.3061 457.6375Q682.02484 458.2625 682.0717 459.29376L681.04047 459.29376Q680.9936 458.66876 680.5717 458.27814Q680.14984 457.8875 679.54047 457.8875Q678.71234 457.8875 678.2592 458.48126Q677.8061 459.075 677.8061 460.2L677.8061 460.40314Q677.8061 461.4969 678.2592 462.09064Q678.71234 462.6844 679.54047 462.6844ZM684.47797 455.575L684.47797 457.10626L685.64984 457.10626L685.64984 457.95L684.47797 457.95L684.47797 461.8719Q684.47797 462.2625 684.6342 462.45Q684.79047 462.6375 685.16547 462.6375Q685.35297 462.6375 685.6811 462.575L685.6811 463.45Q685.2592 463.575 684.85297 463.575Q684.1342 463.575 683.7592 463.1375Q683.3842 462.6844 683.3842 461.8719L683.3842 457.95L682.22797 457.95L682.22797 457.10626L683.3842 457.10626L683.3842 455.575L684.47797 455.575ZM689.2592 460.2625L686.39984 460.2625L686.39984 459.3875L689.2592 459.3875L689.2592 460.2625ZM695.47797 463.45L689.8842 463.45L689.8842 462.66876L692.83734 459.3875Q693.4936 458.6375 693.7436 458.1844Q693.9936 457.71564 693.9936 457.21564Q693.9936 456.54376 693.58734 456.1219Q693.1967 455.6844 692.5092 455.6844Q691.71234 455.6844 691.2592 456.15314Q690.8061 456.60626 690.8061 457.4344L689.72797 457.4344Q689.72797 456.2469 690.47797 455.52814Q691.2436 454.79376 692.5092 454.79376Q693.71234 454.79376 694.39984 455.41876Q695.08734 456.04376 695.08734 457.09064Q695.08734 458.34064 693.47797 460.09064L691.1967 462.5594L695.47797 462.5594L695.47797 463.45ZM702.2436 459.8094Q702.2436 461.71564 701.58734 462.65314Q700.9467 463.575 699.5561 463.575Q698.1967 463.575 697.54047 462.66876Q696.8842 461.7625 696.85297 459.95L696.85297 458.5125Q696.85297 456.6219 697.4936 455.71564Q698.14984 454.79376 699.54047 454.79376Q700.91547 454.79376 701.5717 455.6844Q702.22797 456.5594 702.2436 458.40314L702.2436 459.8094ZM701.14984 458.325Q701.14984 456.95 700.7592 456.325Q700.3842 455.6844 699.54047 455.6844Q698.71234 455.6844 698.3217 456.325Q697.9467 456.95 697.9467 458.2469L697.9467 459.98126Q697.9467 461.35626 698.33734 462.02814Q698.7436 462.6844 699.5561 462.6844Q700.35297 462.6844 700.7436 462.0594Q701.1342 461.4344 701.14984 460.10626L701.14984 458.325ZM707.4467 463.45L706.3686 463.45L706.3686 456.23126L704.1811 457.02814L704.1811 456.04376L707.29047 454.8719L707.4467 454.8719L707.4467 463.45ZM715.04047 459.7Q714.71234 460.10626 714.22797 460.35626Q713.7592 460.59064 713.1967 460.59064Q712.46234 460.59064 711.91547 460.23126Q711.3686 459.8719 711.0717 459.21564Q710.77484 458.54376 710.77484 457.7469Q710.77484 456.90314 711.08734 456.21564Q711.41547 455.52814 712.0092 455.16876Q712.6186 454.79376 713.41547 454.79376Q714.6811 454.79376 715.39984 455.7469Q716.1342 456.7 716.1342 458.325L716.1342 458.6375Q716.1342 461.1375 715.14984 462.27814Q714.16547 463.41876 712.1811 463.45L711.96234 463.45L711.96234 462.54376L712.1967 462.54376Q713.54047 462.5125 714.2592 461.84064Q714.97797 461.16876 715.04047 459.7ZM713.3686 459.7Q713.91547 459.7 714.3686 459.3719Q714.83734 459.02814 715.0561 458.54376L715.0561 458.10626Q715.0561 457.04376 714.58734 456.3719Q714.1186 455.7 713.41547 455.7Q712.6967 455.7 712.2592 456.2469Q711.83734 456.79376 711.83734 457.7Q711.83734 458.575 712.2436 459.1375Q712.66547 459.7 713.3686 459.7Z" fill-rule="nonzero"/><path stroke="#4285f4" stroke-width="4.0" stroke-linecap="butt" d="M714.45 72.416664L726.45 72.416664" fill-rule="nonzero"/><path fill="#757575" d="M735.4344 76.916664L735.4344 68.385414L737.85626 68.385414Q738.96564 68.385414 739.8094 68.885414Q740.66876 69.36979 741.1375 70.27604Q741.60626 71.18229 741.60626 72.36979L741.60626 72.90104Q741.60626 74.11979 741.1375 75.02604Q740.6844 75.93229 739.8094 76.416664Q738.95 76.90104 737.8094 76.916664L735.4344 76.916664ZM736.5594 69.30729L736.5594 75.99479L737.7469 75.99479Q739.04376 75.99479 739.7625 75.197914Q740.4969 74.385414 740.4969 72.885414L740.4969 72.385414Q740.4969 70.93229 739.8094 70.135414Q739.1375 69.322914 737.8719 69.30729L736.5594 69.30729ZM743.4344 76.916664L743.4344 68.385414L746.23126 68.385414Q747.6219 68.385414 748.3094 68.96354Q749.0125 69.52604 749.0125 70.65104Q749.0125 71.260414 748.66876 71.729164Q748.34064 72.18229 747.7469 72.43229Q748.45 72.61979 748.84064 73.166664Q749.2469 73.697914 749.2469 74.447914Q749.2469 75.604164 748.4969 76.260414Q747.7625 76.916664 746.40314 76.916664L743.4344 76.916664ZM744.5594 72.93229L744.5594 75.99479L746.41876 75.99479Q747.21564 75.99479 747.66876 75.58854Q748.1219 75.18229 748.1219 74.46354Q748.1219 72.93229 746.4344 72.93229L744.5594 72.93229ZM744.5594 72.02604L746.2625 72.02604Q746.9969 72.02604 747.4344 71.666664Q747.8875 71.291664 747.8875 70.65104Q747.8875 69.947914 747.48126 69.635414Q747.075 69.30729 746.23126 69.30729L744.5594 69.30729L744.5594 72.02604ZM751.27814 75.99479L756.16876 75.99479L756.16876 76.916664L749.95 76.916664L749.95 76.072914L754.6375 69.30729L750.02814 69.30729L750.02814 68.385414L755.98126 68.385414L755.98126 69.21354L751.27814 75.99479ZM757.4344 76.916664L757.4344 68.385414L760.23126 68.385414Q761.6219 68.385414 762.3094 68.96354Q763.0125 69.52604 763.0125 70.65104Q763.0125 71.260414 762.66876 71.729164Q762.34064 72.18229 761.7469 72.43229Q762.45 72.61979 762.84064 73.166664Q763.2469 73.697914 763.2469 74.447914Q763.2469 75.604164 762.4969 76.260414Q761.7625 76.916664 760.40314 76.916664L757.4344 76.916664ZM758.5594 72.93229L758.5594 75.99479L760.41876 75.99479Q761.21564 75.99479 761.66876 75.58854Q762.1219 75.18229 762.1219 74.46354Q762.1219 72.93229 760.4344 72.93229L758.5594 72.93229ZM758.5594 72.02604L760.2625 72.02604Q760.9969 72.02604 761.4344 71.666664Q761.8875 71.291664 761.8875 70.65104Q761.8875 69.947914 761.48126 69.635414Q761.075 69.30729 760.23126 69.30729L758.5594 69.30729L758.5594 72.02604Z" fill-rule="nonzero"/><path stroke="#db4437" stroke-width="4.0" stroke-linecap="butt" d="M714.45 97.416664L726.45 97.416664" fill-rule="nonzero"/><path fill="#757575" d="M736.65314 101.916664L735.52814 101.916664L735.52814 93.385414L736.65314 93.385414L736.65314 101.916664ZM740.27814 99.229164L740.45 100.354164L740.6844 99.33854L742.3719 93.385414L743.325 93.385414L744.96564 99.33854L745.2 100.36979L745.3875 99.21354L746.71564 93.385414L747.84064 93.385414L745.77814 101.916664L744.7469 101.916664L742.98126 95.697914L742.85626 95.041664L742.71564 95.697914L740.90314 101.916664L739.8719 101.916664L737.8094 93.385414L738.9344 93.385414L740.27814 99.229164ZM749.4344 101.916664L749.4344 93.385414L751.85626 93.385414Q752.96564 93.385414 753.8094 93.885414Q754.66876 94.36979 755.1375 95.27604Q755.60626 96.18229 755.60626 97.36979L755.60626 97.90104Q755.60626 99.11979 755.1375 100.02604Q754.6844 100.93229 753.8094 101.416664Q752.95 101.90104 751.8094 101.916664L749.4344 101.916664ZM750.5594 94.30729L750.5594 100.99479L751.7469 100.99479Q753.04376 100.99479 753.7625 100.197914Q754.4969 99.385414 754.4969 97.885414L754.4969 97.385414Q754.4969 95.93229 753.8094 95.135414Q753.1375 94.322914 751.8719 94.30729L750.5594 94.30729ZM762.15314 99.68229L758.575 99.68229L757.77814 101.916664L756.6219 101.916664L759.8719 93.385414L760.85626 93.385414L764.1219 101.916664L762.96564 101.916664L762.15314 99.68229ZM758.91876 98.760414L761.825 98.760414L760.3719 94.77604L758.91876 98.760414Z" fill-rule="nonzero"/><path stroke="#f4b400" stroke-width="4.0" stroke-linecap="butt" d="M714.45 122.416664L726.45 122.416664" fill-rule="nonzero"/><path fill="#757575" d="M736.65314 126.916664L735.52814 126.916664L735.52814 118.385414L736.65314 118.385414L736.65314 126.916664ZM744.45 118.385414L744.45 124.18229Q744.4344 125.385414 743.6844 126.166664Q742.9344 126.93229 741.65314 127.02604L741.34064 127.041664Q739.95 127.041664 739.10626 126.291664Q738.27814 125.52604 738.27814 124.197914L738.27814 118.385414L739.3875 118.385414L739.3875 124.166664Q739.3875 125.08854 739.8875 125.604164Q740.40314 126.11979 741.34064 126.11979Q742.3094 126.11979 742.8094 125.604164Q743.3094 125.08854 743.3094 124.166664L743.3094 118.385414L744.45 118.385414ZM748.95 123.11979Q747.5125 122.697914 746.84064 122.08854Q746.1844 121.479164 746.1844 120.58854Q746.1844 119.58854 746.98126 118.93229Q747.79376 118.260414 749.09064 118.260414Q749.96564 118.260414 750.65314 118.604164Q751.34064 118.947914 751.71564 119.541664Q752.10626 120.135414 752.10626 120.854164L750.96564 120.854164Q750.96564 120.072914 750.46564 119.635414Q749.98126 119.197914 749.09064 119.197914Q748.2625 119.197914 747.79376 119.572914Q747.325 119.93229 747.325 120.572914Q747.325 121.104164 747.7625 121.46354Q748.21564 121.822914 749.27814 122.11979Q750.34064 122.416664 750.9344 122.77604Q751.54376 123.135414 751.825 123.61979Q752.1219 124.104164 752.1219 124.74479Q752.1219 125.791664 751.3094 126.416664Q750.4969 127.041664 749.15314 127.041664Q748.2625 127.041664 747.4969 126.697914Q746.7469 126.354164 746.325 125.77604Q745.91876 125.18229 745.91876 124.447914L747.04376 124.447914Q747.04376 125.21354 747.6219 125.666664Q748.2 126.11979 749.15314 126.11979Q750.04376 126.11979 750.5125 125.760414Q750.98126 125.385414 750.98126 124.760414Q750.98126 124.135414 750.54376 123.791664Q750.10626 123.447914 748.95 123.11979ZM759.9969 126.916664L758.8719 126.916664L754.575 120.33854L754.575 126.916664L753.4344 126.916664L753.4344 118.385414L754.575 118.385414L758.8719 124.99479L758.8719 118.385414L759.9969 118.385414L759.9969 126.916664Z" fill-rule="nonzero"/><path stroke="#0f9d58" stroke-width="4.0" stroke-linecap="butt" d="M714.45 147.41667L726.45 147.41667" fill-rule="nonzero"/><path fill="#757575" d="M738.23126 146.65105L740.2625 143.38542L741.59064 143.38542L738.90314 147.6198L741.65314 151.91667L740.325 151.91667L738.23126 148.58855L736.1219 151.91667L734.77814 151.91667L737.54376 147.6198L734.85626 143.38542L736.16876 143.38542L738.23126 146.65105ZM744.8875 143.38542L747.6844 150.33855L750.46564 143.38542L751.9344 143.38542L751.9344 151.91667L750.8094 151.91667L750.8094 148.58855L750.91876 145.01042L748.10626 151.91667L747.2469 151.91667L744.45 145.02605L744.5594 148.58855L744.5594 151.91667L743.4344 151.91667L743.4344 143.38542L744.8875 143.38542ZM754.8875 143.38542L757.6844 150.33855L760.46564 143.38542L761.9344 143.38542L761.9344 151.91667L760.8094 151.91667L760.8094 148.58855L760.91876 145.01042L758.10626 151.91667L757.2469 151.91667L754.45 145.02605L754.5594 148.58855L754.5594 151.91667L753.4344 151.91667L753.4344 143.38542L754.8875 143.38542ZM768.2625 147.97917L764.5594 147.97917L764.5594 150.9948L768.85626 150.9948L768.85626 151.91667L763.4344 151.91667L763.4344 143.38542L768.8094 143.38542L768.8094 144.3073L764.5594 144.3073L764.5594 147.0573L768.2625 147.0573L768.2625 147.97917Z" fill-rule="nonzero"/><path stroke="#ff6d00" stroke-width="4.0" stroke-linecap="butt" d="M714.45 172.41667L726.45 172.41667" fill-rule="nonzero"/><path fill="#757575" d="M740.2625 172.97917L736.5594 172.97917L736.5594 175.9948L740.85626 175.9948L740.85626 176.91667L735.4344 176.91667L735.4344 168.38542L740.8094 168.38542L740.8094 169.3073L736.5594 169.3073L736.5594 172.0573L740.2625 172.0573L740.2625 172.97917ZM743.5594 173.57292L743.5594 176.91667L742.4344 176.91667L742.4344 168.38542L745.59064 168.38542Q746.98126 168.38542 747.77814 169.10417Q748.575 169.8073 748.575 170.9948Q748.575 172.22917 747.79376 172.90105Q747.02814 173.57292 745.575 173.57292L743.5594 173.57292ZM743.5594 172.65105L745.59064 172.65105Q746.4969 172.65105 746.96564 172.22917Q747.45 171.8073 747.45 171.01042Q747.45 170.2448 746.96564 169.79167Q746.4969 169.32292 745.65314 169.3073L743.5594 169.3073L743.5594 172.65105ZM753.575 173.46355L751.5594 173.46355L751.5594 176.91667L750.4344 176.91667L750.4344 168.38542L753.2625 168.38542Q754.7 168.38542 755.46564 169.04167Q756.2469 169.69792 756.2469 170.94792Q756.2469 171.7448 755.8094 172.33855Q755.3875 172.9323 754.6219 173.22917L756.6219 176.83855L756.6219 176.91667L755.41876 176.91667L753.575 173.46355ZM751.5594 172.54167L753.29376 172.54167Q754.1375 172.54167 754.6219 172.1198Q755.1219 171.6823 755.1219 170.94792Q755.1219 170.16667 754.65314 169.7448Q754.1844 169.32292 753.29376 169.3073L751.5594 169.3073L751.5594 172.54167ZM762.15314 174.6823L758.575 174.6823L757.77814 176.91667L756.6219 176.91667L759.8719 168.38542L760.85626 168.38542L764.1219 176.91667L762.96564 176.91667L762.15314 174.6823ZM758.91876 173.76042L761.825 173.76042L760.3719 169.77605L758.91876 173.76042Z" fill-rule="nonzero"/><path fill="#757575" d="M28.08125 37.9875L28.08125 43.55L26.20625 43.55L26.20625 29.33125L31.440624 29.33125Q33.784374 29.33125 35.096874 30.51875Q36.425 31.70625 36.425 33.675Q36.425 35.753124 35.128124 36.878124Q33.83125 37.9875 31.425 37.9875L28.08125 37.9875ZM28.08125 36.45625L31.440624 36.45625Q32.95625 36.45625 33.753124 35.753124Q34.55 35.034374 34.55 33.690624Q34.55 32.425 33.753124 31.675Q32.95625 30.909374 31.55 30.878124L28.08125 30.878124L28.08125 36.45625ZM43.3 43.753124Q41.159374 43.753124 39.8 42.346874Q38.45625 40.925 38.45625 38.565624L38.45625 38.221874Q38.45625 36.659374 39.05 35.425Q39.659374 34.190624 40.7375 33.4875Q41.815624 32.784374 43.08125 32.784374Q45.14375 32.784374 46.284374 34.14375Q47.425 35.503124 47.425 38.034374L47.425 38.784374L40.26875 38.784374Q40.3 40.346874 41.175 41.315624Q42.05 42.26875 43.39375 42.26875Q44.3625 42.26875 45.01875 41.878124Q45.690624 41.4875 46.190624 40.846874L47.284374 41.70625Q45.95625 43.753124 43.3 43.753124ZM43.08125 34.26875Q41.9875 34.26875 41.2375 35.065624Q40.503124 35.8625 40.33125 37.3L45.6125 37.3L45.6125 37.159374Q45.534374 35.784374 44.8625 35.034374Q44.20625 34.26875 43.08125 34.26875ZM55.01875 34.596874Q54.6125 34.534374 54.14375 34.534374Q52.3625 34.534374 51.721874 36.05L51.721874 43.55L49.925 43.55L49.925 32.9875L51.675 32.9875L51.70625 34.20625Q52.596874 32.784374 54.221874 32.784374Q54.753124 32.784374 55.01875 32.925L55.01875 34.596874ZM57.8 43.55L57.8 34.378124L56.14375 34.378124L56.14375 32.9875L57.8 32.9875L57.8 31.89375Q57.8 30.20625 58.70625 29.284374Q59.628124 28.346874 61.284374 28.346874Q61.909374 28.346874 62.51875 28.503124L62.425 29.971874Q61.971874 29.89375 61.45625 29.89375Q60.565624 29.89375 60.08125 30.409374Q59.6125 30.909374 59.6125 31.8625L59.6125 32.9875L61.8625 32.9875L61.8625 34.378124L59.6125 34.378124L59.6125 43.55L57.8 43.55ZM63.440624 38.175Q63.440624 36.6125 64.05 35.378124Q64.65938 34.128124 65.7375 33.45625Q66.83125 32.784374 68.2375 32.784374Q70.39375 32.784374 71.72188 34.284374Q73.06563 35.76875 73.06563 38.253124L73.06563 38.378124Q73.06563 39.925 72.47188 41.159374Q71.87813 42.378124 70.76875 43.065624Q69.675 43.753124 68.25313 43.753124Q66.1125 43.753124 64.76875 42.253124Q63.440624 40.753124 63.440624 38.3L63.440624 38.175ZM65.25313 38.378124Q65.25313 40.14375 66.06563 41.20625Q66.89375 42.26875 68.25313 42.26875Q69.62813 42.26875 70.44063 41.190624Q71.25313 40.1125 71.25313 38.175Q71.25313 36.425 70.425 35.346874Q69.59688 34.26875 68.2375 34.26875Q66.89375 34.26875 66.06563 35.33125Q65.25313 36.39375 65.25313 38.378124ZM80.01875 34.596874Q79.6125 34.534374 79.14375 34.534374Q77.3625 34.534374 76.72188 36.05L76.72188 43.55L74.925 43.55L74.925 32.9875L76.675 32.9875L76.70625 34.20625Q77.59688 32.784374 79.22188 32.784374Q79.75313 32.784374 80.01875 32.925L80.01875 34.596874ZM83.6125 32.9875L83.65938 34.159374Q84.83125 32.784374 86.8 32.784374Q89.01875 32.784374 89.81563 34.4875Q90.34688 33.721874 91.19063 33.253124Q92.03438 32.784374 93.19063 32.784374Q96.65938 32.784374 96.72188 36.471874L96.72188 43.55L94.90938 43.55L94.90938 36.58125Q94.90938 35.440624 94.39375 34.878124Q93.87813 34.315624 92.65938 34.315624Q91.65938 34.315624 90.9875 34.925Q90.33125 35.51875 90.22188 36.534374L90.22188 43.55L88.40938 43.55L88.40938 36.628124Q88.40938 34.315624 86.14375 34.315624Q84.3625 34.315624 83.72188 35.83125L83.72188 43.55L81.90938 43.55L81.90938 32.9875L83.6125 32.9875ZM106.44063 43.55Q106.28438 43.2375 106.19063 42.440624Q104.925 43.753124 103.175 43.753124Q101.6125 43.753124 100.6125 42.8625Q99.6125 41.971874 99.6125 40.6125Q99.6125 38.971874 100.8625 38.065624Q102.12813 37.14375 104.39375 37.14375L106.15938 37.14375L106.15938 36.315624Q106.15938 35.3625 105.58125 34.8Q105.01875 34.2375 103.925 34.2375Q102.95625 34.2375 102.3 34.7375Q101.64375 35.221874 101.64375 35.909374L99.83125 35.909374Q99.83125 35.128124 100.39375 34.39375Q100.95625 33.64375 101.90938 33.221874Q102.87813 32.784374 104.03438 32.784374Q105.8625 32.784374 106.89375 33.70625Q107.925 34.6125 107.97188 36.221874L107.97188 41.08125Q107.97188 42.534374 108.33125 43.39375L108.33125 43.55L106.44063 43.55ZM103.44063 42.175Q104.3 42.175 105.05 41.7375Q105.81563 41.3 106.15938 40.596874L106.15938 38.425L104.7375 38.425Q101.425 38.425 101.425 40.3625Q101.425 41.221874 101.9875 41.70625Q102.55 42.175 103.44063 42.175ZM112.62813 32.9875L112.69063 34.315624Q113.89375 32.784374 115.84688 32.784374Q119.20625 32.784374 119.22188 36.565624L119.22188 43.55L117.425 43.55L117.425 36.55Q117.40938 35.409374 116.89375 34.8625Q116.39375 34.315624 115.3 34.315624Q114.425 34.315624 113.75313 34.784374Q113.09688 35.253124 112.72188 36.01875L112.72188 43.55L110.925 43.55L110.925 32.9875L112.62813 32.9875ZM126.15938 42.26875Q127.12813 42.26875 127.84688 41.690624Q128.56563 41.096874 128.64375 40.221874L130.3625 40.221874Q130.3 41.128124 129.72188 41.95625Q129.15938 42.76875 128.19063 43.26875Q127.2375 43.753124 126.15938 43.753124Q124.00313 43.753124 122.72188 42.315624Q121.45625 40.8625 121.45625 38.3625L121.45625 38.065624Q121.45625 36.51875 122.01875 35.315624Q122.58125 34.1125 123.64375 33.45625Q124.70625 32.784374 126.14375 32.784374Q127.925 32.784374 129.09688 33.846874Q130.28438 34.909374 130.3625 36.6125L128.64375 36.6125Q128.56563 35.596874 127.8625 34.940624Q127.175 34.26875 126.14375 34.26875Q124.76875 34.26875 124.00313 35.26875Q123.25313 36.253124 123.25313 38.128124L123.25313 38.471874Q123.25313 40.3 124.00313 41.284374Q124.75313 42.26875 126.15938 42.26875ZM136.3 43.753124Q134.15938 43.753124 132.8 42.346874Q131.45625 40.925 131.45625 38.565624L131.45625 38.221874Q131.45625 36.659374 132.05 35.425Q132.65938 34.190624 133.7375 33.4875Q134.81563 32.784374 136.08125 32.784374Q138.14375 32.784374 139.28438 34.14375Q140.425 35.503124 140.425 38.034374L140.425 38.784374L133.26875 38.784374Q133.3 40.346874 134.175 41.315624Q135.05 42.26875 136.39375 42.26875Q137.3625 42.26875 138.01875 41.878124Q138.69063 41.4875 139.19063 40.846874L140.28438 41.70625Q138.95625 43.753124 136.3 43.753124ZM136.08125 34.26875Q134.9875 34.26875 134.2375 35.065624Q133.50313 35.8625 133.33125 37.3L138.6125 37.3L138.6125 37.159374Q138.53438 35.784374 137.8625 35.034374Q137.20625 34.26875 136.08125 34.26875ZM156.84688 38.378124Q156.84688 40.8 155.7375 42.284374Q154.64375 43.753124 152.75313 43.753124Q150.83125 43.753124 149.72188 42.51875L149.72188 47.6125L147.925 47.6125L147.925 32.9875L149.56563 32.9875L149.65938 34.159374Q150.75313 32.784374 152.72188 32.784374Q154.62813 32.784374 155.7375 34.221874Q156.84688 35.659374 156.84688 38.221874L156.84688 38.378124ZM155.03438 38.175Q155.03438 36.39375 154.26875 35.3625Q153.51875 34.315624 152.19063 34.315624Q150.55 34.315624 149.72188 35.76875L149.72188 40.83125Q150.53438 42.26875 152.20625 42.26875Q153.50313 42.26875 154.26875 41.2375Q155.03438 40.20625 155.03438 38.175ZM163.3 43.753124Q161.15938 43.753124 159.8 42.346874Q158.45625 40.925 158.45625 38.565624L158.45625 38.221874Q158.45625 36.659374 159.05 35.425Q159.65938 34.190624 160.7375 33.4875Q161.81563 32.784374 163.08125 32.784374Q165.14375 32.784374 166.28438 34.14375Q167.425 35.503124 167.425 38.034374L167.425 38.784374L160.26875 38.784374Q160.3 40.346874 161.175 41.315624Q162.05 42.26875 163.39375 42.26875Q164.3625 42.26875 165.01875 41.878124Q165.69063 41.4875 166.19063 40.846874L167.28438 41.70625Q165.95625 43.753124 163.3 43.753124ZM163.08125 34.26875Q161.9875 34.26875 161.2375 35.065624Q160.50313 35.8625 160.33125 37.3L165.6125 37.3L165.6125 37.159374Q165.53438 35.784374 164.8625 35.034374Q164.20625 34.26875 163.08125 34.26875ZM175.01875 34.596874Q174.6125 34.534374 174.14375 34.534374Q172.3625 34.534374 171.72188 36.05L171.72188 43.55L169.925 43.55L169.925 32.9875L171.675 32.9875L171.70625 34.20625Q172.59688 32.784374 174.22188 32.784374Q174.75313 32.784374 175.01875 32.925L175.01875 34.596874ZM188.44063 43.55Q188.28438 43.2375 188.19063 42.440624Q186.925 43.753124 185.175 43.753124Q183.6125 43.753124 182.6125 42.8625Q181.6125 41.971874 181.6125 40.6125Q181.6125 38.971874 182.8625 38.065624Q184.12813 37.14375 186.39375 37.14375L188.15938 37.14375L188.15938 36.315624Q188.15938 35.3625 187.58125 34.8Q187.01875 34.2375 185.925 34.2375Q184.95625 34.2375 184.3 34.7375Q183.64375 35.221874 183.64375 35.909374L181.83125 35.909374Q181.83125 35.128124 182.39375 34.39375Q182.95625 33.64375 183.90938 33.221874Q184.87813 32.784374 186.03438 32.784374Q187.8625 32.784374 188.89375 33.70625Q189.925 34.6125 189.97188 36.221874L189.97188 41.08125Q189.97188 42.534374 190.33125 43.39375L190.33125 43.55L188.44063 43.55ZM185.44063 42.175Q186.3 42.175 187.05 41.7375Q187.81563 41.3 188.15938 40.596874L188.15938 38.425L186.7375 38.425Q183.425 38.425 183.425 40.3625Q183.425 41.221874 183.9875 41.70625Q184.55 42.175 185.44063 42.175ZM199.06563 40.753124Q199.06563 40.01875 198.51875 39.6125Q197.97188 39.20625 196.59688 38.909374Q195.22188 38.6125 194.40938 38.20625Q193.6125 37.8 193.22188 37.2375Q192.84688 36.659374 192.84688 35.878124Q192.84688 34.58125 193.94063 33.690624Q195.03438 32.784374 196.75313 32.784374Q198.55 32.784374 199.65938 33.721874Q200.78438 34.64375 200.78438 36.08125L198.95625 36.08125Q198.95625 35.346874 198.33125 34.815624Q197.70625 34.26875 196.75313 34.26875Q195.75313 34.26875 195.19063 34.70625Q194.64375 35.128124 194.64375 35.83125Q194.64375 36.471874 195.15938 36.815624Q195.675 37.14375 197.03438 37.45625Q198.39375 37.753124 199.22188 38.175Q200.06563 38.58125 200.47188 39.175Q200.87813 39.76875 200.87813 40.6125Q200.87813 42.034374 199.7375 42.89375Q198.6125 43.753124 196.8 43.753124Q195.53438 43.753124 194.55 43.3Q193.58125 42.846874 193.01875 42.05Q192.47188 41.2375 192.47188 40.3L194.28438 40.3Q194.33125 41.20625 195.00313 41.7375Q195.69063 42.26875 196.8 42.26875Q197.83125 42.26875 198.44063 41.8625Q199.06563 41.440624 199.06563 40.753124ZM209.06563 40.753124Q209.06563 40.01875 208.51875 39.6125Q207.97188 39.20625 206.59688 38.909374Q205.22188 38.6125 204.40938 38.20625Q203.6125 37.8 203.22188 37.2375Q202.84688 36.659374 202.84688 35.878124Q202.84688 34.58125 203.94063 33.690624Q205.03438 32.784374 206.75313 32.784374Q208.55 32.784374 209.65938 33.721874Q210.78438 34.64375 210.78438 36.08125L208.95625 36.08125Q208.95625 35.346874 208.33125 34.815624Q207.70625 34.26875 206.75313 34.26875Q205.75313 34.26875 205.19063 34.70625Q204.64375 35.128124 204.64375 35.83125Q204.64375 36.471874 205.15938 36.815624Q205.675 37.14375 207.03438 37.45625Q208.39375 37.753124 209.22188 38.175Q210.06563 38.58125 210.47188 39.175Q210.87813 39.76875 210.87813 40.6125Q210.87813 42.034374 209.7375 42.89375Q208.6125 43.753124 206.8 43.753124Q205.53438 43.753124 204.55 43.3Q203.58125 42.846874 203.01875 42.05Q202.47188 41.2375 202.47188 40.3L204.28438 40.3Q204.33125 41.20625 205.00313 41.7375Q205.69063 42.26875 206.8 42.26875Q207.83125 42.26875 208.44063 41.8625Q209.06563 41.440624 209.06563 40.753124ZM217.3 43.753124Q215.15938 43.753124 213.8 42.346874Q212.45625 40.925 212.45625 38.565624L212.45625 38.221874Q212.45625 36.659374 213.05 35.425Q213.65938 34.190624 214.7375 33.4875Q215.81563 32.784374 217.08125 32.784374Q219.14375 32.784374 220.28438 34.14375Q221.425 35.503124 221.425 38.034374L221.425 38.784374L214.26875 38.784374Q214.3 40.346874 215.175 41.315624Q216.05 42.26875 217.39375 42.26875Q218.3625 42.26875 219.01875 41.878124Q219.69063 41.4875 220.19063 40.846874L221.28438 41.70625Q219.95625 43.753124 217.3 43.753124ZM217.08125 34.26875Q215.9875 34.26875 215.2375 35.065624Q214.50313 35.8625 214.33125 37.3L219.6125 37.3L219.6125 37.159374Q219.53438 35.784374 218.8625 35.034374Q218.20625 34.26875 217.08125 34.26875ZM226.3625 30.425L226.3625 32.9875L228.34688 32.9875L228.34688 34.378124L226.3625 34.378124L226.3625 40.925Q226.3625 41.565624 226.62813 41.89375Q226.89375 42.20625 227.53438 42.20625Q227.84688 42.20625 228.39375 42.08125L228.39375 43.55Q227.675 43.753124 227.00313 43.753124Q225.8 43.753124 225.175 43.01875Q224.56563 42.284374 224.56563 40.925L224.56563 34.378124L222.64375 34.378124L222.64375 32.9875L224.56563 32.9875L224.56563 30.425L226.3625 30.425Z" fill-rule="nonzero"/></svg>