<svg fill="none" stroke-linecap="square" stroke-miterlimit="10" width="794" height="491" xmlns="http://www.w3.org/2000/svg"><path fill="#fff" d="M0 0h794v491H0V0z"/><path stroke="#ccc" stroke-linecap="butt" d="M139.5 72.5v373m111-373v373m110-373v373m108-373v373m109-373v373m110-373v373m-621 0h621m-621-75h621"/><path stroke="#333" stroke-linecap="butt" d="M66.5 296.5h621"/><path stroke="#ccc" stroke-linecap="butt" d="M66.5 221.5h621m-621-74h621m-621-75h621"/><clipPath id="a"><path d="M66.55 72.417h621.131V445.45H66.55V72.417z"/></clipPath><path stroke="#4285f4" stroke-width="2" stroke-linecap="butt" clip-path="url(#a)" d="M614.536 296.237s25.181-18.463 37.172-20.469c11.991-2.005 35.973 7.775 35.973 7.775"/><path stroke="#db4437" stroke-width="2" stroke-linecap="butt" clip-path="url(#a)" d="M66.55 296.237s25.181-22.35 37.172-26.977c11.99-4.626 23.982 1.664 35.973-1.655 11.99-3.318 24.781-13.102 37.172-18.866 12.39-5.765 25.18-12.277 37.172-15.723 11.99-3.446 23.982-10.957 35.973-5.461 11.99 5.496 25.18 33.865 37.171 39.72 11.991 5.854 23.982-12.715 35.973-3.31 11.991 9.404 24.782 60.269 37.172 61.73 12.39 1.462 25.98-39.911 37.172-52.96 11.192-13.047 22.383-22.386 33.575-30.45 11.191-8.066 25.18-11.665 37.172-19.86 11.99-8.196 23.982-31.503 35.973-29.956 11.99 1.548 25.18 39.248 37.172 40.547 11.99 1.3 23.981-21.265 35.972-31.444 11.991-10.18 24.782-27.97 37.172-30.618 12.391-2.648 25.181 17.043 37.172 14.73 11.991-2.314 35.973-28.135 35.973-28.135"/><path stroke="#f4b400" stroke-width="2" stroke-linecap="butt" clip-path="url(#a)" d="M214.039 296.237s23.982-.52 35.973 9.668c11.99 10.188 25.18 45.404 37.171 53.175 11.991 7.771 23.982-13.644 35.973-4.834s24.782 58.01 37.172 59.621c12.39 1.611 25.98-36.793 37.172-49.953 11.192-13.16 22.383-27.47 33.575-33.838 11.191-6.368 25.18-.026 37.172-4.835 11.99-4.808 23.982-27.679 35.973-24.17 11.99 3.508 25.18 43.49 37.172 46.73 11.99 3.24 23.981-17.847 35.972-25.782 11.991-7.936 24.782-22.828 37.172-22.56 12.391.269 25.181 24.032 37.172 24.171 11.991.139 35.973-22.56 35.973-22.56"/><path stroke="#0f9d58" stroke-width="2" stroke-linecap="butt" clip-path="url(#a)" d="M66.55 296.237s25.181-9.146 37.172-3.628c11.99 5.519 23.982 34.251 35.973 36.621 11.99 2.37 24.781-22.946 37.172-23.147 12.39-.202 25.18 17.622 37.172 21.938 11.99 4.316 23.982-2.884 35.973 4.664 11.99 7.548 25.18 40.417 37.171 41.976 11.991 1.56 23.982-29.705 35.973-31.266s24.782 28.646 37.172 22.629c12.39-6.017 25.98-50.092 37.172-58.732 11.192-8.64 22.383 3.738 33.575 1.21 11.191-2.53 25.18-12.276 37.172-18.139 11.99-5.862 23.982-23.765 35.973-17.619 11.99 6.146 25.18 52.384 37.172 56.313 11.99 3.93 23.981-25.154 35.972-30.92 11.991-5.767 24.782-7.716 37.172-3.8 12.391 3.915 25.181 26.777 37.172 27.293 11.991.515 35.973-23.32 35.973-23.32"/><path stroke="#ff6d00" stroke-width="2" stroke-linecap="butt" clip-path="url(#a)" d="M66.55 296.237s25.181-30.5 37.172-38.684c11.99-8.184 23.982-8.815 35.973-11.664 11.99-2.85 24.781-2.757 37.172-5.611 12.39-2.855 25.18-13.572 37.172-11.517 11.99 2.056 23.982 19.183 35.973 23.476 11.99 4.294 25.18 5.132 37.171 2.363 11.991-2.769 23.982-23.084 35.973-18.9 11.991 4.186 24.782 50.841 37.172 45.477 12.39-5.365 25.98-64.447 37.172-77.663 11.192-13.217 22.383-1.317 33.575-9.155 11.191-7.838 25.18-37.457 37.172-41.932 11.99-4.474 23.982 11.895 35.973 13.732 11.99 1.836 25.18-2.575 37.172-2.806 11.99-.23 23.981 5.156 35.972 1.33 11.991-3.828 24.782-17.005 37.172-25.101 12.391-8.096 25.181-14.448 37.172-23.476 11.991-9.028 35.973-31.45 35.973-31.45"/><path clip-path="url(#a)" d="M617.536 296.237a3 3 0 11-6 0 3 3 0 016 0zm37.172-20.469a3 3 0 11-6 0 3 3 0 016 0zm35.973 7.775a3 3 0 11-6 0 3 3 0 016 0zM69.55 296.237a3 3 0 11-6 0 3 3 0 016 0zm37.172-26.977a3 3 0 11-6 0 3 3 0 016 0zm35.973-1.655a3 3 0 11-6 0 3 3 0 016 0zm37.172-18.866a3 3 0 11-6 0 3 3 0 016 0zm37.172-15.723a3 3 0 11-6 0 3 3 0 016 0zm35.973-5.461a3 3 0 11-6 0 3 3 0 016 0zm37.171 39.719a3 3 0 11-6 0 3 3 0 016 0zm35.973-3.31a3 3 0 11-6 0 3 3 0 016 0zm37.172 61.731a3 3 0 11-6 0 3 3 0 016 0zm37.172-52.959a3 3 0 11-6 0 3 3 0 016 0zm33.575-30.452a3 3 0 11-6 0 3 3 0 016 0zm37.172-19.86a3 3 0 11-6 0 3 3 0 016 0zm35.973-29.954a3 3 0 11-6 0 3 3 0 016 0zm37.172 40.546a3 3 0 11-6 0 3 3 0 016 0zm35.972-31.444a3 3 0 11-6 0 3 3 0 016 0zm37.172-30.618a3 3 0 11-6 0 3 3 0 016 0zm37.172 14.73a3 3 0 11-6 0 3 3 0 016 0zm35.973-28.135a3 3 0 11-6 0 3 3 0 016 0zM217.039 296.237a3 3 0 11-6 0 3 3 0 016 0zm35.973 9.668a3 3 0 11-6 0 3 3 0 016 0zm37.171 53.175a3 3 0 11-6 0 3 3 0 016 0zm35.973-4.834a3 3 0 11-6 0 3 3 0 016 0zm37.172 59.621a3 3 0 11-6 0 3 3 0 016 0zm37.172-49.953a3 3 0 11-6 0 3 3 0 016 0zm33.575-33.838a3 3 0 11-6 0 3 3 0 016 0zm37.172-4.835a3 3 0 11-6 0 3 3 0 016 0zm35.973-24.171a3 3 0 11-6 0 3 3 0 016 0zm37.172 46.73a3 3 0 11-6 0 3 3 0 016 0zm35.972-25.781a3 3 0 11-6 0 3 3 0 016 0z"/><path clip-path="url(#a)" d="M617.536 299.46a3 3 0 11-6 0 3 3 0 016 0zm37.172 24.17a3 3 0 11-6 0 3 3 0 016 0zm35.973-22.56a3 3 0 11-6 0 3 3 0 016 0zM69.55 296.237a3 3 0 11-6 0 3 3 0 016 0zm37.172-3.627a3 3 0 11-6 0 3 3 0 016 0zm35.973 36.62a3 3 0 11-6 0 3 3 0 016 0zm37.172-23.147a3 3 0 11-6 0 3 3 0 016 0zm37.172 21.937a3 3 0 11-6 0 3 3 0 016 0zm35.973 4.665a3 3 0 11-6 0 3 3 0 016 0zm37.171 41.975a3 3 0 11-6 0 3 3 0 016 0zm35.973-31.265a3 3 0 11-6 0 3 3 0 016 0zm37.172 22.629a3 3 0 11-6 0 3 3 0 016 0zm37.172-58.732a3 3 0 11-6 0 3 3 0 016 0zm33.575 1.209a3 3 0 11-6 0 3 3 0 016 0zm37.172-18.138a3 3 0 11-6 0 3 3 0 016 0zm35.973-17.619a3 3 0 11-6 0 3 3 0 016 0zm37.172 56.313a3 3 0 11-6 0 3 3 0 016 0zm35.972-30.92a3 3 0 11-6 0 3 3 0 016 0z"/><path clip-path="url(#a)" d="M617.536 294.337a3 3 0 11-6 0 3 3 0 016 0zm37.172 27.293a3 3 0 11-6 0 3 3 0 016 0zm35.973-23.32a3 3 0 11-6 0 3 3 0 016 0zM69.55 296.237a3 3 0 11-6 0 3 3 0 016 0zm37.172-38.684a3 3 0 11-6 0 3 3 0 016 0zm35.973-11.664a3 3 0 11-6 0 3 3 0 016 0zm37.172-5.611a3 3 0 11-6 0 3 3 0 016 0zm37.172-11.517a3 3 0 11-6 0 3 3 0 016 0zm35.973 23.476a3 3 0 11-6 0 3 3 0 016 0zm37.171 2.363a3 3 0 11-6 0 3 3 0 016 0zm35.973-18.9a3 3 0 11-6 0 3 3 0 016 0zm37.172 45.477a3 3 0 11-6 0 3 3 0 016 0zm37.172-77.663a3 3 0 11-6 0 3 3 0 016 0zm33.575-9.154a3 3 0 11-6 0 3 3 0 016 0zm37.172-41.933a3 3 0 11-6 0 3 3 0 016 0zm35.973 13.732a3 3 0 11-6 0 3 3 0 016 0zm37.172-2.806a3 3 0 11-6 0 3 3 0 016 0zm35.972 1.329a3 3 0 11-6 0 3 3 0 016 0zm37.172-25.1a3 3 0 11-6 0 3 3 0 016 0zm37.172-23.476a3 3 0 11-6 0 3 3 0 016 0zm35.973-31.449a3 3 0 11-6 0 3 3 0 016 0z"/><path fill="#757575" d="M27.628 446.762h-2.86v-.875h2.86v.875zm6.219 3.188h-5.594v-.781l2.953-3.281q.657-.75.906-1.204.25-.468.25-.968 0-.672-.406-1.094-.39-.438-1.078-.438-.797 0-1.25.47-.453.452-.453 1.28h-1.078q0-1.187.75-1.906.765-.734 2.031-.734 1.203 0 1.89.625.688.625.688 1.672 0 1.25-1.61 3l-2.28 2.468h4.28v.891zm6.765-3.64q0 1.906-.656 2.843-.64.922-2.031.922-1.36 0-2.016-.906-.656-.906-.687-2.719v-1.438q0-1.89.64-2.796.657-.922 2.047-.922 1.375 0 2.032.89.656.875.671 2.72v1.405zm-1.093-1.485q0-1.375-.39-2-.376-.64-1.22-.64-.828 0-1.218.64-.375.625-.375 1.922v1.734q0 1.375.39 2.047.406.656 1.219.656.797 0 1.188-.625.39-.625.406-1.953v-1.781zm2.875 4.563q0-.282.156-.47.172-.187.5-.187.344 0 .516.188.171.187.171.469 0 .265-.171.453-.172.171-.516.171-.328 0-.5-.171-.156-.188-.156-.454zm8.218-3.079q0 1.907-.656 2.844-.64.922-2.031.922-1.36 0-2.016-.906-.656-.906-.687-2.719v-1.438q0-1.89.64-2.796.657-.922 2.047-.922 1.375 0 2.032.89.656.875.671 2.72v1.405zm-1.093-1.484q0-1.375-.39-2-.376-.64-1.22-.64-.828 0-1.218.64-.375.625-.375 1.922v1.734q0 1.375.39 2.047.406.656 1.219.656.797 0 1.188-.625.39-.625.406-1.953v-1.781zm2.64-1.766q0-.765.485-1.265.5-.5 1.265-.5.782 0 1.266.5t.484 1.297v.421q0 .766-.5 1.266-.484.484-1.234.484-.766 0-1.266-.484-.5-.5-.5-1.312v-.407zm.813.453q0 .454.25.75.265.297.703.297.422 0 .672-.28.25-.298.25-.798v-.422q0-.453-.25-.75-.25-.312-.688-.312-.437 0-.687.312-.25.297-.25.766v.438zm3.344 4.344q0-.765.484-1.25.5-.5 1.266-.5.765 0 1.25.5.5.485.5 1.297v.406q0 .766-.485 1.266-.484.5-1.25.5-.765 0-1.265-.484-.5-.5-.5-1.313v-.422zm.812.453q0 .47.25.766.266.297.703.297.422 0 .672-.281.25-.297.25-.797v-.438q0-.469-.266-.75-.25-.297-.671-.297-.422 0-.688.297-.25.281-.25.781v.422zm-2.953 1l-.625-.39 4.172-6.672.61.39-4.157 6.672zm-26.547-77.153h-2.86v-.875h2.86v.875zm4.188 3.187h-1.078v-7.218l-2.188.796v-.984l3.11-1.172h.156v8.578zm8.796-3.64q0 1.906-.656 2.843-.64.922-2.031.922-1.36 0-2.016-.906-.656-.906-.687-2.719v-1.437q0-1.89.64-2.797.657-.922 2.047-.922 1.375 0 2.032.89.656.876.671 2.72v1.406zm-1.093-1.485q0-1.375-.39-2-.376-.64-1.22-.64-.828 0-1.218.64-.375.625-.375 1.922v1.735q0 1.375.39 2.046.406.657 1.219.657.797 0 1.188-.625.39-.625.406-1.953v-1.782zm2.875 4.563q0-.281.156-.469.172-.187.5-.187.344 0 .516.187.171.188.171.469 0 .265-.171.453-.172.172-.516.172-.328 0-.5-.172-.156-.188-.156-.453zm8.218-3.078q0 1.906-.656 2.843-.64.922-2.031.922-1.36 0-2.016-.906-.656-.906-.687-2.719v-1.437q0-1.89.64-2.797.657-.922 2.047-.922 1.375 0 2.032.89.656.876.671 2.72v1.406zm-1.093-1.485q0-1.375-.39-2-.376-.64-1.22-.64-.828 0-1.218.64-.375.625-.375 1.922v1.735q0 1.375.39 2.046.406.657 1.219.657.797 0 1.188-.625.39-.625.406-1.953v-1.782zm2.64-1.765q0-.766.485-1.266.5-.5 1.265-.5.782 0 1.266.5t.484 1.297v.422q0 .765-.5 1.265-.484.485-1.234.485-.766 0-1.266-.485-.5-.5-.5-1.312v-.406zm.813.453q0 .453.25.75.265.297.703.297.422 0 .672-.282.25-.296.25-.796v-.422q0-.453-.25-.75-.25-.313-.688-.313-.437 0-.687.313-.25.297-.25.765v.438zm3.344 4.344q0-.766.484-1.25.5-.5 1.266-.5.765 0 1.25.5.5.484.5 1.296v.407q0 .765-.485 1.265-.484.5-1.25.5-.765 0-1.265-.484-.5-.5-.5-1.313v-.421zm.812.453q0 .468.25.765.266.297.703.297.422 0 .672-.281.25-.297.25-.797v-.437q0-.47-.266-.75-.25-.297-.671-.297-.422 0-.688.297-.25.28-.25.78v.423zm-2.953 1l-.625-.39 4.172-6.673.61.39-4.157 6.673zm-13.563-77.607q0 1.906-.656 2.844-.64.922-2.031.922-1.36 0-2.016-.907-.656-.906-.687-2.718v-1.438q0-1.89.64-2.797.657-.922 2.047-.922 1.375 0 2.032.891.656.875.671 2.719v1.406zm-1.093-1.484q0-1.375-.39-2-.376-.641-1.22-.641-.828 0-1.218.64-.375.626-.375 1.923v1.734q0 1.375.39 2.047.406.656 1.219.656.797 0 1.188-.625.39-.625.406-1.953v-1.781zm2.875 4.562q0-.281.156-.469.172-.187.5-.187.344 0 .516.187.171.188.171.47 0 .265-.171.452-.172.172-.516.172-.328 0-.5-.172-.156-.187-.156-.453zm8.218-3.078q0 1.906-.656 2.844-.64.922-2.031.922-1.36 0-2.016-.907-.656-.906-.687-2.718v-1.438q0-1.89.64-2.797.657-.922 2.047-.922 1.375 0 2.032.891.656.875.671 2.719v1.406zm-1.093-1.484q0-1.375-.39-2-.376-.641-1.22-.641-.828 0-1.218.64-.375.626-.375 1.923v1.734q0 1.375.39 2.047.406.656 1.219.656.797 0 1.188-.625.39-.625.406-1.953v-1.781zm2.64-1.766q0-.766.485-1.266.5-.5 1.265-.5.782 0 1.266.5t.484 1.297v.422q0 .766-.5 1.266-.484.484-1.234.484-.766 0-1.266-.484-.5-.5-.5-1.313v-.406zm.813.453q0 .453.25.75.265.297.703.297.422 0 .672-.281.25-.297.25-.797v-.422q0-.453-.25-.75-.25-.312-.688-.312-.437 0-.687.312-.25.297-.25.766v.437zm3.344 4.344q0-.766.484-1.25.5-.5 1.266-.5.765 0 1.25.5.5.484.5 1.297v.406q0 .766-.485 1.266-.484.5-1.25.5-.765 0-1.265-.485-.5-.5-.5-1.312v-.422zm.812.453q0 .469.25.766.266.297.703.297.422 0 .672-.282.25-.297.25-.797v-.437q0-.469-.266-.75-.25-.297-.671-.297-.422 0-.688.297-.25.281-.25.781v.422zm-2.953 1l-.625-.39 4.172-6.672.61.39-4.157 6.672zM31.816 226.13h-1.078v-7.219l-2.188.797v-.984l3.11-1.172h.156v8.578zm8.796-3.64q0 1.906-.656 2.843-.64.922-2.031.922-1.36 0-2.016-.906-.656-.906-.687-2.719v-1.438q0-1.89.64-2.796.657-.922 2.047-.922 1.375 0 2.032.89.656.875.671 2.72v1.405zm-1.093-1.485q0-1.375-.39-2-.376-.64-1.22-.64-.828 0-1.218.64-.375.625-.375 1.922v1.734q0 1.375.39 2.047.406.656 1.219.656.797 0 1.188-.625.39-.625.406-1.953v-1.781zm2.875 4.563q0-.282.156-.47.172-.187.5-.187.344 0 .516.188.171.187.171.469 0 .265-.171.453-.172.172-.516.172-.328 0-.5-.172-.156-.188-.156-.453zm8.218-3.079q0 1.907-.656 2.844-.64.922-2.031.922-1.36 0-2.016-.906-.656-.906-.687-2.719v-1.438q0-1.89.64-2.796.657-.922 2.047-.922 1.375 0 2.032.89.656.875.671 2.72v1.405zm-1.093-1.484q0-1.375-.39-2-.376-.64-1.22-.64-.828 0-1.218.64-.375.625-.375 1.922v1.734q0 1.375.39 2.047.406.656 1.219.656.797 0 1.188-.625.39-.625.406-1.953v-1.781zm2.64-1.766q0-.765.485-1.265.5-.5 1.265-.5.782 0 1.266.5t.484 1.297v.422q0 .765-.5 1.265-.484.484-1.234.484-.766 0-1.266-.484-.5-.5-.5-1.312v-.407zm.813.453q0 .454.25.75.265.297.703.297.422 0 .672-.28.25-.298.25-.798v-.422q0-.453-.25-.75-.25-.312-.688-.312-.437 0-.687.312-.25.297-.25.766v.438zm3.344 4.344q0-.765.484-1.25.5-.5 1.266-.5.765 0 1.25.5.5.485.5 1.297v.406q0 .766-.485 1.266-.484.5-1.25.5-.765 0-1.265-.484-.5-.5-.5-1.313v-.422zm.812.453q0 .47.25.766.266.297.703.297.422 0 .672-.281.25-.297.25-.797v-.438q0-.469-.266-.75-.25-.297-.671-.297-.422 0-.688.297-.25.281-.25.781v.422zm-2.953 1l-.625-.39 4.172-6.672.61.39-4.157 6.672zm-20.328-73.966h-5.594v-.78l2.953-3.282q.657-.75.906-1.203.25-.469.25-.969 0-.672-.406-1.094-.39-.437-1.078-.437-.797 0-1.25.468-.453.454-.453 1.282h-1.078q0-1.188.75-1.907.765-.734 2.031-.734 1.203 0 1.89.625.688.625.688 1.672 0 1.25-1.61 3l-2.28 2.469h4.28v.89zm6.765-3.64q0 1.906-.656 2.843-.64.922-2.031.922-1.36 0-2.016-.906-.656-.906-.687-2.719v-1.437q0-1.89.64-2.797.657-.922 2.047-.922 1.375 0 2.032.89.656.876.671 2.72v1.406zm-1.093-1.485q0-1.375-.39-2-.376-.64-1.22-.64-.828 0-1.218.64-.375.625-.375 1.922v1.735q0 1.375.39 2.046.406.657 1.219.657.797 0 1.188-.625.39-.625.406-1.953v-1.782zm2.875 4.563q0-.281.156-.469.172-.187.5-.187.344 0 .516.187.171.188.171.469 0 .265-.171.453-.172.172-.516.172-.328 0-.5-.172-.156-.188-.156-.453zm8.218-3.078q0 1.906-.656 2.843-.64.922-2.031.922-1.36 0-2.016-.906-.656-.906-.687-2.719v-1.437q0-1.89.64-2.797.657-.922 2.047-.922 1.375 0 2.032.89.656.876.671 2.72v1.406zm-1.093-1.485q0-1.375-.39-2-.376-.64-1.22-.64-.828 0-1.218.64-.375.625-.375 1.922v1.735q0 1.375.39 2.046.406.657 1.219.657.797 0 1.188-.625.39-.625.406-1.953v-1.782zm2.64-1.765q0-.766.485-1.266.5-.5 1.265-.5.782 0 1.266.5t.484 1.297v.422q0 .765-.5 1.265-.484.485-1.234.485-.766 0-1.266-.485-.5-.5-.5-1.312v-.406zm.813.453q0 .453.25.75.265.297.703.297.422 0 .672-.282.25-.296.25-.796v-.422q0-.453-.25-.75-.25-.313-.688-.313-.437 0-.687.313-.25.297-.25.765v.438zm3.344 4.344q0-.766.484-1.25.5-.5 1.266-.5.765 0 1.25.5.5.484.5 1.296v.407q0 .765-.485 1.265-.484.5-1.25.5-.765 0-1.265-.484-.5-.5-.5-1.313v-.421zm.812.453q0 .468.25.765.266.297.703.297.422 0 .672-.281.25-.297.25-.797v-.437q0-.47-.266-.75-.25-.297-.671-.297-.422 0-.688.297-.25.28-.25.78v.423zm-2.953 1l-.625-.39 4.172-6.673.61.39-4.157 6.673zM29.831 72.12h.813q.781-.016 1.219-.406.437-.391.437-1.063 0-1.5-1.5-1.5-.703 0-1.125.406-.406.407-.406 1.063h-1.094q0-1.016.734-1.688.75-.672 1.891-.672 1.203 0 1.89.641.688.64.688 1.781 0 .563-.36 1.078-.359.516-.984.782.703.218 1.078.734.391.516.391 1.266 0 1.14-.75 1.828-.75.672-1.953.672-1.188 0-1.953-.657-.75-.656-.75-1.718h1.094q0 .672.437 1.078.438.406 1.188.406.78 0 1.187-.406.422-.422.422-1.188 0-.734-.453-1.125-.453-.406-1.328-.422h-.813v-.89zm10.781 1.156q0 1.906-.656 2.844-.64.922-2.031.922-1.36 0-2.016-.907-.656-.906-.687-2.718v-1.438q0-1.89.64-2.797.657-.922 2.047-.922 1.375 0 2.032.891.656.875.671 2.719v1.406zm-1.093-1.484q0-1.375-.39-2-.376-.641-1.22-.641-.828 0-1.218.64-.375.626-.375 1.923v1.734q0 1.375.39 2.047.406.656 1.219.656.797 0 1.188-.625.39-.625.406-1.953v-1.781zm2.875 4.562q0-.281.156-.469.172-.187.5-.187.344 0 .516.187.171.188.171.47 0 .265-.171.452-.172.172-.516.172-.328 0-.5-.172-.156-.187-.156-.453zm8.218-3.078q0 1.906-.656 2.844-.64.922-2.031.922-1.36 0-2.016-.907-.656-.906-.687-2.718v-1.438q0-1.89.64-2.797.657-.922 2.047-.922 1.375 0 2.032.891.656.875.671 2.719v1.406zm-1.093-1.484q0-1.375-.39-2-.376-.641-1.22-.641-.828 0-1.218.64-.375.626-.375 1.923v1.734q0 1.375.39 2.047.406.656 1.219.656.797 0 1.188-.625.39-.625.406-1.953v-1.781zm2.64-1.766q0-.766.485-1.266.5-.5 1.265-.5.782 0 1.266.5t.484 1.297v.422q0 .766-.5 1.266-.484.484-1.234.484-.766 0-1.266-.484-.5-.5-.5-1.313v-.406zm.813.453q0 .453.25.75.265.297.703.297.422 0 .672-.281.25-.297.25-.797v-.422q0-.453-.25-.75-.25-.312-.688-.312-.437 0-.687.312-.25.297-.25.766v.437zm3.344 4.344q0-.766.484-1.25.5-.5 1.266-.5.765 0 1.25.5.5.484.5 1.297v.406q0 .766-.485 1.266-.484.5-1.25.5-.765 0-1.265-.485-.5-.5-.5-1.312v-.422zm.812.453q0 .469.25.766.266.297.703.297.422 0 .672-.282.25-.297.25-.797v-.437q0-.469-.266-.75-.25-.297-.671-.297-.422 0-.688.297-.25.281-.25.781v.422zm-2.953 1l-.625-.39 4.172-6.672.61.39-4.157 6.672zM114.96 463.45h-1.078v-7.219l-2.187.797v-.984l3.11-1.172h.155v8.578zm5.813-3.188h-2.86v-.875h2.86v.875zm4.484-5.343h1.14v6.047q0 1.218-.75 1.921-.733.688-1.952.688-1.266 0-1.985-.656-.703-.656-.703-1.828h1.125q0 .734.39 1.156.407.406 1.173.406.703 0 1.125-.437.437-.454.437-1.235v-6.062zm7.172 7.906q-.625.75-1.86.75-1.015 0-1.546-.594-.531-.594-.531-1.75v-4.125h1.078v4.094q0 1.453 1.172 1.453 1.25 0 1.656-.937v-4.61h1.094v6.344h-1.032l-.03-.625zm4.266.625h-1.078v-9h1.078v9zm4.078-3.188h-2.86v-.875h2.86v.875zm6.219 3.188h-5.594v-.781l2.953-3.281q.656-.75.906-1.204.25-.468.25-.968 0-.672-.406-1.094-.39-.438-1.078-.438-.797 0-1.25.47-.453.452-.453 1.28h-1.078q0-1.187.75-1.906.765-.734 2.03-.734 1.204 0 1.892.625.687.625.687 1.672 0 1.25-1.61 3l-2.28 2.468h4.28v.891zm6.765-3.64q0 1.906-.656 2.843-.64.922-2.031.922-1.36 0-2.016-.906-.656-.906-.687-2.719v-1.438q0-1.89.64-2.796.657-.922 2.047-.922 1.375 0 2.031.89.657.875.672 2.72v1.405zm-1.093-1.485q0-1.375-.391-2-.375-.64-1.219-.64-.828 0-1.219.64-.375.625-.375 1.922v1.734q0 1.375.391 2.047.406.656 1.219.656.797 0 1.187-.625t.407-1.953v-1.781zm6.296 5.125h-1.078v-7.219l-2.187.797v-.984l3.11-1.172h.155v8.578zm8.625-6.313q0 .641-.343 1.141-.344.5-.907.781.657.282 1.047.844.39.547.39 1.25 0 1.094-.75 1.766-.733.656-1.952.656-1.235 0-1.985-.656-.734-.672-.734-1.766 0-.703.375-1.25.375-.562 1.047-.844-.563-.28-.89-.78-.329-.5-.329-1.142 0-1.078.688-1.703.687-.64 1.828-.64 1.125 0 1.812.64.703.625.703 1.703zm-.89 3.985q0-.719-.453-1.156-.453-.454-1.188-.454-.734 0-1.187.454-.438.437-.438 1.171 0 .72.438 1.141.437.406 1.203.406.75 0 1.187-.422.438-.421.438-1.14zm-1.625-5.438q-.64 0-1.047.407-.39.39-.39 1.078 0 .64.39 1.047.39.406 1.031.406.656 0 1.047-.406.39-.407.39-1.047 0-.656-.406-1.063-.406-.422-1.015-.422zm59.707 7.766H223.7v-7.219l-2.188.797v-.984l3.11-1.172h.156v8.578zm5.813-3.188h-2.86v-.875h2.86v.875zm7.468-.796q0 1.25-.421 2.187-.422.922-1.204 1.422-.765.5-1.796.5-1 0-1.782-.5-.781-.5-1.218-1.406-.422-.922-.438-2.14v-.61q0-1.235.422-2.172.437-.938 1.219-1.438.78-.515 1.797-.515 1.015 0 1.796.5.782.5 1.204 1.437.421.938.421 2.188v.547zm-1.109-.563q0-1.516-.61-2.328-.609-.813-1.702-.813-1.079 0-1.688.813-.61.813-.625 2.25v.64q0 1.47.61 2.313.624.828 1.703.828 1.093 0 1.687-.781.61-.797.625-2.281v-.64zm4.922 3.781q.578 0 1.016-.343.437-.36.484-.891h1.031q-.031.547-.39 1.047-.344.484-.922.781-.563.297-1.22.297-1.296 0-2.062-.86-.75-.874-.75-2.374v-.188q0-.922.329-1.64.343-.72.968-1.11.64-.406 1.516-.406 1.062 0 1.766.64.718.625.765 1.657h-1.031q-.047-.625-.469-1.016-.422-.39-1.031-.39-.828 0-1.281.593-.453.594-.453 1.719v.203q0 1.094.453 1.688.453.593 1.28.593zm4.937-7.109v1.531h1.172v.844h-1.172v3.922q0 .39.157.578.156.188.53.188.188 0 .517-.063v.875q-.422.125-.829.125-.718 0-1.093-.438-.375-.453-.375-1.265v-3.922h-1.157v-.844h1.157v-1.531h1.093zm4.782 4.688h-2.86v-.875h2.86v.875zm6.218 3.187h-5.593v-.781l2.953-3.281q.656-.75.906-1.204.25-.468.25-.968 0-.672-.406-1.094-.39-.438-1.078-.438-.797 0-1.25.47-.453.452-.453 1.28h-1.079q0-1.187.75-1.906.766-.734 2.032-.734 1.203 0 1.89.625.688.625.688 1.672 0 1.25-1.61 3l-2.28 2.468h4.28v.891zm6.766-3.64q0 1.906-.656 2.843-.64.922-2.031.922-1.36 0-2.016-.906-.656-.906-.688-2.719v-1.438q0-1.89.641-2.796.656-.922 2.047-.922 1.375 0 2.031.89.656.875.672 2.72v1.405zm-1.094-1.485q0-1.375-.39-2-.375-.64-1.22-.64-.827 0-1.218.64-.375.625-.375 1.922v1.734q0 1.375.39 2.047.407.656 1.22.656.796 0 1.187-.625.39-.625.406-1.953v-1.781zm6.297 5.125H268.7v-7.219l-2.188.797v-.984l3.11-1.172h.156v8.578zm8.625-6.313q0 .641-.344 1.141-.343.5-.906.781.656.282 1.047.844.39.547.39 1.25 0 1.094-.75 1.766-.734.656-1.952.656-1.235 0-1.985-.656-.734-.672-.734-1.766 0-.703.375-1.25.375-.562 1.047-.844-.563-.28-.891-.78-.328-.5-.328-1.142 0-1.078.687-1.703.688-.64 1.829-.64 1.125 0 1.812.64.703.625.703 1.703zm-.89 3.985q0-.719-.454-1.156-.453-.454-1.187-.454t-1.188.454q-.437.437-.437 1.171 0 .72.437 1.141.438.406 1.204.406.75 0 1.187-.422.438-.421.438-1.14zm-1.625-5.438q-.641 0-1.047.407-.391.39-.391 1.078 0 .64.39 1.047.391.406 1.032.406.656 0 1.047-.406.39-.407.39-1.047 0-.656-.406-1.063-.406-.422-1.015-.422zm57.707 7.766h-1.078v-7.219l-2.188.797v-.984l3.11-1.172h.156v8.578zm5.812-3.188h-2.859v-.875h2.86v.875zm4.485-5.343h1.14v6.047q0 1.218-.75 1.921-.734.688-1.953.688-1.265 0-1.984-.656-.703-.656-.703-1.828h1.125q0 .734.39 1.156.407.406 1.172.406.703 0 1.125-.437.438-.454.438-1.235v-6.062zm7.172 8.531q-.094-.188-.157-.672-.75.797-1.797.797-.937 0-1.546-.531-.594-.531-.594-1.36 0-.984.75-1.53.75-.548 2.125-.548h1.047v-.5q0-.562-.344-.89-.328-.344-1-.344-.578 0-.969.297-.39.281-.39.703h-1.094q0-.485.328-.922.344-.438.922-.688.578-.265 1.265-.265 1.11 0 1.72.547.624.547.655 1.5v2.922q0 .875.22 1.39v.094h-1.141zm-1.797-.828q.515 0 .968-.266.454-.265.657-.687v-1.297h-.844q-2 0-2 1.172 0 .5.344.797.343.28.875.28zm5.906-5.516l.031.797q.735-.906 1.906-.906 2.016 0 2.032 2.265v4.188h-1.094v-4.203q0-.672-.313-1-.296-.328-.953-.328-.53 0-.937.281-.39.281-.61.734v4.516h-1.078v-6.344h1.016zm8.234 3.156h-2.859v-.875h2.86v.875zm6.22 3.188h-5.595v-.781l2.953-3.281q.657-.75.907-1.204.25-.468.25-.968 0-.672-.407-1.094-.39-.438-1.078-.438-.797 0-1.25.47-.453.452-.453 1.28h-1.078q0-1.187.75-1.906.766-.734 2.031-.734 1.203 0 1.891.625.687.625.687 1.672 0 1.25-1.609 3l-2.281 2.468h4.281v.891zm6.765-3.64q0 1.906-.657 2.843-.64.922-2.03.922-1.36 0-2.016-.906-.657-.906-.688-2.719v-1.438q0-1.89.64-2.796.657-.922 2.048-.922 1.375 0 2.03.89.657.875.673 2.72v1.405zm-1.094-1.485q0-1.375-.39-2-.376-.64-1.22-.64-.828 0-1.218.64-.375.625-.375 1.922v1.734q0 1.375.39 2.047.407.656 1.22.656.796 0 1.187-.625.39-.625.406-1.953v-1.781zm6.297 5.125h-1.078v-7.219l-2.188.797v-.984l3.11-1.172h.156v8.578zm7.594-3.75q-.329.406-.813.656-.469.235-1.031.235-.735 0-1.281-.36-.547-.36-.844-1.015-.297-.672-.297-1.47 0-.843.312-1.53.329-.688.922-1.047.61-.375 1.407-.375 1.265 0 1.984.953.734.953.734 2.578v.313q0 2.5-.984 3.64-.984 1.14-2.969 1.172h-.219v-.906h.235q1.344-.031 2.062-.703.72-.672.782-2.141zm-1.672 0q.547 0 1-.328.468-.344.687-.828v-.438q0-1.062-.469-1.734-.468-.672-1.171-.672-.72 0-1.157.547-.422.547-.422 1.453 0 .875.407 1.438.422.562 1.125.562zm54.996 3.75h-1.078v-7.219l-2.187.797v-.984l3.11-1.172h.155v8.578zm5.813-3.188h-2.86v-.875h2.86v.875zm5.625.954h-3.578l-.797 2.234h-1.156l3.25-8.531h.984l3.266 8.531h-1.157l-.812-2.234zm-3.234-.922h2.906l-1.453-3.985-1.453 3.985zm11.703.062q0 1.438-.657 2.328-.656.891-1.796.891-1.157 0-1.813-.734v3.046h-1.078v-8.78h.984l.047.702q.672-.812 1.844-.812 1.14 0 1.797.86.672.859.672 2.39v.11zm-1.078-.125q0-1.078-.47-1.687-.452-.625-1.25-.625-.984 0-1.468.86v3.03q.484.875 1.484.875.782 0 1.235-.609.469-.625.469-1.844zm5.796-2.156q-.25-.031-.53-.031-1.079 0-1.454.906v4.5h-1.078v-6.344h1.047l.015.735q.532-.844 1.516-.844.313 0 .484.078v1zm3.188 2.188h-2.86v-.875h2.86v.875zm6.219 3.187h-5.594v-.781l2.953-3.281q.656-.75.906-1.204.25-.468.25-.968 0-.672-.406-1.094-.39-.438-1.078-.438-.797 0-1.25.47-.453.452-.453 1.28h-1.078q0-1.187.75-1.906.765-.734 2.03-.734 1.204 0 1.892.625.687.625.687 1.672 0 1.25-1.61 3l-2.28 2.468h4.28v.891zm6.765-3.64q0 1.906-.656 2.843-.64.922-2.031.922-1.36 0-2.016-.906-.656-.906-.687-2.719v-1.438q0-1.89.64-2.796.656-.922 2.047-.922 1.375 0 2.031.89.657.875.672 2.72v1.405zm-1.094-1.485q0-1.375-.39-2-.375-.64-1.219-.64-.828 0-1.219.64-.375.625-.375 1.922v1.734q0 1.375.391 2.047.406.656 1.219.656.797 0 1.187-.625t.406-1.953v-1.781zm6.297 5.125h-1.078v-7.219l-2.187.797v-.984l3.11-1.172h.155v8.578zm7.594-3.75q-.328.406-.812.656-.47.235-1.032.235-.734 0-1.28-.36-.548-.36-.845-1.015-.296-.672-.296-1.47 0-.843.312-1.53.328-.688.922-1.047.61-.375 1.406-.375 1.266 0 1.985.953.734.953.734 2.578v.313q0 2.5-.984 3.64-.985 1.14-2.97 1.172h-.218v-.906h.234q1.344-.031 2.063-.703.719-.672.781-2.141zm-1.672 0q.547 0 1-.328.469-.344.688-.828v-.438q0-1.062-.469-1.734-.469-.672-1.172-.672-.719 0-1.156.547-.422.547-.422 1.453 0 .875.406 1.438.422.562 1.125.562zm58.196 3.75h-1.078v-7.219l-2.188.797v-.984l3.11-1.172h.156v8.578zm5.813-3.188h-2.86v-.875h2.86v.875zm4.484-5.343h1.14v6.047q0 1.218-.75 1.921-.734.688-1.953.688-1.265 0-1.984-.656-.703-.656-.703-1.828h1.125q0 .734.39 1.156.407.406 1.172.406.703 0 1.125-.437.438-.454.438-1.235v-6.062zm7.172 7.906q-.625.75-1.86.75-1.015 0-1.547-.594-.53-.594-.53-1.75v-4.125h1.077v4.094q0 1.453 1.172 1.453 1.25 0 1.657-.937v-4.61h1.093v6.344h-1.031l-.031-.625zm4.265.625h-1.078v-9h1.078v9zm4.078-3.188h-2.859v-.875h2.86v.875zm6.22 3.188h-5.595v-.781l2.954-3.281q.656-.75.906-1.204.25-.468.25-.968 0-.672-.406-1.094-.391-.438-1.078-.438-.797 0-1.25.47-.454.452-.454 1.28h-1.078q0-1.187.75-1.906.766-.734 2.032-.734 1.203 0 1.89.625.688.625.688 1.672 0 1.25-1.61 3l-2.281 2.468h4.281v.891zm6.765-3.64q0 1.906-.656 2.843-.641.922-2.032.922-1.359 0-2.015-.906-.657-.906-.688-2.719v-1.438q0-1.89.64-2.796.657-.922 2.048-.922 1.375 0 2.031.89.656.875.672 2.72v1.405zm-1.094-1.485q0-1.375-.39-2-.375-.64-1.22-.64-.827 0-1.218.64-.375.625-.375 1.922v1.734q0 1.375.39 2.047.407.656 1.22.656.796 0 1.187-.625.39-.625.406-1.953v-1.781zm6.297 5.125h-1.078v-7.219l-2.188.797v-.984l3.11-1.172h.156v8.578zm7.594-3.75q-.328.406-.813.656-.468.235-1.031.235-.734 0-1.281-.36-.547-.36-.844-1.015-.297-.672-.297-1.47 0-.843.313-1.53.328-.688.922-1.047.609-.375 1.406-.375 1.265 0 1.984.953.735.953.735 2.578v.313q0 2.5-.985 3.64-.984 1.14-2.969 1.172h-.218v-.906h.234q1.344-.031 2.063-.703.718-.672.78-2.141zm-1.672 0q.547 0 1-.328.469-.344.687-.828v-.438q0-1.062-.468-1.734-.47-.672-1.172-.672-.719 0-1.157.547-.421.547-.421 1.453 0 .875.406 1.438.422.562 1.125.562zm59.895 3.75h-1.078v-7.219l-2.188.797v-.984l3.11-1.172h.156v8.578zm5.812-3.188h-2.86v-.875h2.86v.875zm7.469-.796q0 1.25-.422 2.187-.422.922-1.203 1.422-.766.5-1.797.5-1 0-1.781-.5-.781-.5-1.219-1.406-.422-.922-.437-2.14v-.61q0-1.235.421-2.172.438-.938 1.22-1.438.78-.515 1.796-.515t1.797.5q.781.5 1.203 1.437.422.938.422 2.188v.547zm-1.11-.563q0-1.516-.609-2.328-.61-.813-1.703-.813-1.078 0-1.687.813-.61.813-.625 2.25v.64q0 1.47.609 2.313.625.828 1.703.828 1.094 0 1.688-.781.609-.797.625-2.281v-.64zm4.922 3.781q.579 0 1.016-.343.438-.36.484-.891h1.032q-.032.547-.39 1.047-.345.484-.923.781-.562.297-1.219.297-1.296 0-2.062-.86-.75-.874-.75-2.374v-.188q0-.922.328-1.64.344-.72.969-1.11.64-.406 1.515-.406 1.063 0 1.766.64.719.625.766 1.657h-1.032q-.046-.625-.468-1.016-.422-.39-1.032-.39-.828 0-1.28.593-.454.594-.454 1.719v.203q0 1.094.453 1.688.453.593 1.281.593zm4.938-7.109v1.531h1.172v.844h-1.172v3.922q0 .39.156.578.156.188.531.188.188 0 .516-.063v.875q-.422.125-.828.125-.719 0-1.094-.438-.375-.453-.375-1.265v-3.922h-1.156v-.844h1.156v-1.531h1.094zm4.781 4.688h-2.86v-.875h2.86v.875zm6.219 3.187h-5.594v-.781l2.953-3.281q.657-.75.907-1.204.25-.468.25-.968 0-.672-.407-1.094-.39-.438-1.078-.438-.797 0-1.25.47-.453.452-.453 1.28h-1.078q0-1.187.75-1.906.766-.734 2.031-.734 1.203 0 1.89.625.688.625.688 1.672 0 1.25-1.609 3l-2.281 2.468h4.281v.891zm6.766-3.64q0 1.906-.657 2.843-.64.922-2.03.922-1.36 0-2.017-.906-.656-.906-.687-2.719v-1.438q0-1.89.64-2.796.657-.922 2.047-.922 1.375 0 2.032.89.656.875.672 2.72v1.405zm-1.094-1.485q0-1.375-.39-2-.376-.64-1.22-.64-.828 0-1.218.64-.375.625-.375 1.922v1.734q0 1.375.39 2.047.407.656 1.22.656.796 0 1.187-.625.39-.625.406-1.953v-1.781zm6.297 5.125h-1.078v-7.219l-2.188.797v-.984l3.11-1.172h.156v8.578zm7.593-3.75q-.328.406-.812.656-.469.235-1.031.235-.735 0-1.282-.36-.546-.36-.843-1.015-.297-.672-.297-1.47 0-.843.312-1.53.328-.688.922-1.047.61-.375 1.406-.375 1.266 0 1.985.953.734.953.734 2.578v.313q0 2.5-.984 3.64-.985 1.14-2.969 1.172h-.219v-.906h.235q1.343-.031 2.062-.703.719-.672.781-2.141zm-1.671 0q.546 0 1-.328.468-.344.687-.828v-.438q0-1.062-.469-1.734-.468-.672-1.172-.672-.718 0-1.156.547-.422.547-.422 1.453 0 .875.407 1.438.421.562 1.125.562z"/><path stroke="#4285f4" stroke-width="4" stroke-linecap="butt" d="M714.45 72.417h12"/><path fill="#757575" d="M735.434 76.917v-8.532h2.422q1.11 0 1.953.5.86.485 1.329 1.391.468.906.468 2.094v.531q0 1.219-.468 2.125-.454.906-1.329 1.39-.859.485-2 .5h-2.375zm1.125-7.61v6.688h1.188q1.297 0 2.016-.797.734-.813.734-2.313v-.5q0-1.453-.688-2.25-.671-.812-1.937-.828h-1.313zm6.875 7.61v-8.532h2.797q1.39 0 2.078.579.704.562.704 1.687 0 .61-.344 1.078-.328.453-.922.703.703.188 1.094.735.406.53.406 1.28 0 1.157-.75 1.813-.734.657-2.094.657h-2.969zm1.125-3.985v3.063h1.86q.797 0 1.25-.406.453-.407.453-1.125 0-1.532-1.688-1.532h-1.875zm0-.906h1.704q.734 0 1.171-.36.454-.374.454-1.015 0-.703-.407-1.016-.406-.328-1.25-.328h-1.672v2.719zm6.72 3.969h4.89v.922h-6.219v-.844l4.688-6.766h-4.61v-.922h5.953v.829l-4.703 6.78zm6.155.922v-8.532h2.797q1.39 0 2.078.579.704.562.704 1.687 0 .61-.344 1.078-.328.453-.922.703.703.188 1.094.735.406.53.406 1.28 0 1.157-.75 1.813-.734.657-2.094.657h-2.969zm1.125-3.985v3.063h1.86q.797 0 1.25-.406.453-.407.453-1.125 0-1.532-1.688-1.532h-1.875zm0-.906h1.704q.734 0 1.171-.36.454-.374.454-1.015 0-.703-.407-1.016-.406-.328-1.25-.328h-1.672v2.719z"/><path stroke="#db4437" stroke-width="4" stroke-linecap="butt" d="M714.45 97.417h12"/><path fill="#757575" d="M736.653 101.917h-1.125v-8.532h1.125v8.532zm3.625-2.688l.172 1.125.234-1.015 1.688-5.954h.953l1.64 5.954.235 1.03.188-1.155 1.328-5.829h1.125l-2.063 8.532h-1.031l-1.766-6.22-.125-.655-.14.656-1.813 6.219h-1.031l-2.063-8.532h1.125l1.344 5.844zm9.156 2.688v-8.532h2.422q1.11 0 1.953.5.86.485 1.329 1.391.468.906.468 2.094v.531q0 1.219-.468 2.125-.454.906-1.329 1.39-.859.485-2 .5h-2.375zm1.125-7.61v6.688h1.188q1.297 0 2.016-.797.734-.813.734-2.313v-.5q0-1.453-.688-2.25-.671-.812-1.937-.828h-1.313zm11.594 5.375h-3.578l-.797 2.235h-1.156l3.25-8.532h.984l3.266 8.532h-1.156l-.813-2.235zm-3.234-.922h2.906l-1.453-3.984-1.453 3.984z"/><path stroke="#f4b400" stroke-width="4" stroke-linecap="butt" d="M714.45 122.417h12"/><path fill="#757575" d="M736.653 126.917h-1.125v-8.532h1.125v8.532zm7.797-8.532v5.797q-.016 1.203-.766 1.985-.75.765-2.03.859l-.313.016q-1.391 0-2.235-.75-.828-.766-.828-2.094v-5.813h1.11v5.782q0 .922.5 1.437.515.516 1.453.516.968 0 1.468-.516.5-.515.5-1.437v-5.782h1.141zm4.5 4.735q-1.438-.422-2.11-1.031-.656-.61-.656-1.5 0-1 .797-1.657.813-.672 2.11-.672.875 0 1.562.344.688.344 1.063.938.39.593.39 1.312h-1.14q0-.781-.5-1.219-.485-.437-1.375-.437-.828 0-1.297.375-.469.36-.469 1 0 .531.438.89.453.36 1.515.657 1.063.297 1.656.656.61.36.891.844.297.484.297 1.125 0 1.047-.813 1.672-.812.625-2.156.625-.89 0-1.656-.344-.75-.344-1.172-.922-.406-.594-.406-1.328h1.125q0 .766.578 1.219.578.453 1.531.453.89 0 1.36-.36.468-.375.468-1t-.437-.968q-.438-.344-1.594-.672zm11.047 3.797h-1.125l-4.297-6.578v6.578h-1.14v-8.532h1.14l4.297 6.61v-6.61h1.125v8.532z"/><path stroke="#0f9d58" stroke-width="4" stroke-linecap="butt" d="M714.45 147.417h12"/><path fill="#757575" d="M738.231 146.651l2.032-3.266h1.328l-2.688 4.235 2.75 4.297h-1.328l-2.094-3.328-2.11 3.328h-1.343l2.766-4.297-2.688-4.235h1.313l2.062 3.266zm6.657-3.266l2.796 6.954 2.782-6.954h1.468v8.532h-1.125v-3.328l.11-3.579-2.813 6.907h-.86l-2.796-6.891.11 3.563v3.328h-1.126v-8.532h1.454zm10 0l2.796 6.954 2.782-6.954h1.468v8.532h-1.125v-3.328l.11-3.579-2.813 6.907h-.86l-2.796-6.891.11 3.563v3.328h-1.126v-8.532h1.454zm13.375 4.594h-3.704v3.016h4.297v.922h-5.422v-8.532h5.375v.922h-4.25v2.75h3.704v.922z"/><path stroke="#ff6d00" stroke-width="4" stroke-linecap="butt" d="M714.45 172.417h12"/><path fill="#757575" d="M740.263 172.98h-3.704v3.015h4.297v.922h-5.422v-8.532h5.375v.922h-4.25v2.75h3.704v.922zm3.296.593v3.344h-1.125v-8.532h3.157q1.39 0 2.187.72.797.702.797 1.89 0 1.234-.781 1.906-.766.672-2.219.672h-2.016zm0-.922h2.032q.906 0 1.375-.422.484-.422.484-1.219 0-.765-.484-1.218-.47-.47-1.313-.485h-2.094v3.344zm10.016.813h-2.016v3.453h-1.125v-8.532h2.829q1.437 0 2.203.657.78.656.78 1.906 0 .797-.437 1.39-.421.594-1.187.891l2 3.61v.078h-1.203l-1.844-3.453zm-2.016-.922h1.735q.844 0 1.328-.422.5-.438.5-1.172 0-.781-.469-1.203-.469-.422-1.36-.438h-1.734v3.235zm10.594 2.14h-3.578l-.797 2.235h-1.156l3.25-8.532h.984l3.266 8.532h-1.156l-.813-2.235zm-3.234-.922h2.906l-1.453-3.984-1.453 3.984zM28.081 37.987v5.563h-1.875V29.331h5.235q2.343 0 3.656 1.188 1.328 1.187 1.328 3.156 0 2.078-1.297 3.203-1.297 1.11-3.703 1.11h-3.344zm0-1.53h3.36q1.515 0 2.312-.704.797-.719.797-2.062 0-1.266-.797-2.016-.797-.766-2.203-.797h-3.469v5.578zM43.3 43.752q-2.14 0-3.5-1.406-1.344-1.422-1.344-3.781v-.344q0-1.563.594-2.797.61-1.234 1.688-1.938 1.078-.703 2.343-.703 2.063 0 3.203 1.36 1.141 1.36 1.141 3.89v.75h-7.156q.031 1.563.906 2.532.875.953 2.219.953.968 0 1.625-.39.672-.392 1.172-1.032l1.093.86q-1.328 2.046-3.984 2.046zm-.219-9.484q-1.094 0-1.844.797-.734.796-.906 2.234h5.281v-.14q-.078-1.376-.75-2.126-.656-.765-1.78-.765zm11.938.328q-.407-.063-.875-.063-1.782 0-2.422 1.516v7.5h-1.797V32.987h1.75l.031 1.22q.89-1.423 2.516-1.423.531 0 .797.141v1.672zM57.8 43.55v-9.172h-1.656v-1.39H57.8v-1.094q0-1.688.906-2.61.922-.937 2.578-.937.625 0 1.235.156l-.094 1.469q-.453-.078-.969-.078-.89 0-1.375.515-.469.5-.469 1.454v1.124h2.25v1.391h-2.25v9.172H57.8zm5.64-5.375q0-1.563.61-2.797.61-1.25 1.688-1.922 1.093-.672 2.5-.672 2.156 0 3.484 1.5 1.344 1.485 1.344 3.97v.124q0 1.547-.594 2.781-.594 1.22-1.703 1.907-1.094.687-2.516.687-2.14 0-3.484-1.5-1.328-1.5-1.328-3.953v-.125zm1.813.203q0 1.766.813 2.828.828 1.063 2.187 1.063 1.375 0 2.188-1.078.812-1.079.812-3.016 0-1.75-.828-2.828-.828-1.078-2.188-1.078-1.343 0-2.171 1.062-.813 1.063-.813 3.047zm14.766-3.781q-.407-.063-.875-.063-1.782 0-2.422 1.516v7.5h-1.797V32.987h1.75l.031 1.22q.89-1.423 2.516-1.423.531 0 .797.141v1.672zm3.593-1.61l.047 1.172q1.172-1.375 3.141-1.375 2.219 0 3.016 1.703.53-.765 1.375-1.234.843-.469 2-.469 3.468 0 3.53 3.688v7.078H94.91v-6.969q0-1.14-.515-1.703-.516-.562-1.735-.562-1 0-1.672.609-.656.594-.765 1.61v7.015H88.41v-6.922q0-2.312-2.265-2.312-1.782 0-2.422 1.515v7.719H81.91V32.987h1.703zm22.829 10.563q-.157-.313-.25-1.11-1.266 1.313-3.016 1.313-1.563 0-2.563-.89-1-.891-1-2.25 0-1.641 1.25-2.547 1.266-.922 3.532-.922h1.765v-.828q0-.954-.578-1.516-.562-.563-1.656-.563-.969 0-1.625.5-.656.485-.656 1.172H99.83q0-.78.563-1.515.562-.75 1.515-1.172.97-.438 2.125-.438 1.828 0 2.86.922 1.031.906 1.078 2.516v4.86q0 1.452.36 2.312v.156h-1.891zm-3-1.375q.859 0 1.609-.438.766-.437 1.11-1.14v-2.172h-1.422q-3.313 0-3.313 1.938 0 .859.563 1.343.562.469 1.453.469zm9.187-9.188l.063 1.329q1.203-1.532 3.156-1.532 3.36 0 3.375 3.782v6.984h-1.797v-7q-.016-1.14-.531-1.688-.5-.546-1.594-.546-.875 0-1.547.468-.656.47-1.031 1.235v7.531h-1.797V32.987h1.703zm13.531 9.282q.97 0 1.688-.578.719-.594.797-1.47h1.719q-.063.907-.641 1.735-.563.813-1.531 1.313-.954.484-2.032.484-2.156 0-3.437-1.437-1.266-1.454-1.266-3.954v-.296q0-1.547.563-2.75.562-1.204 1.625-1.86 1.062-.672 2.5-.672 1.781 0 2.953 1.063 1.187 1.062 1.266 2.765h-1.72q-.077-1.015-.78-1.671-.688-.672-1.72-.672-1.374 0-2.14 1-.75.984-.75 2.86v.343q0 1.828.75 2.812.75.985 2.156.985zm10.141 1.484q-2.14 0-3.5-1.406-1.344-1.422-1.344-3.781v-.344q0-1.563.594-2.797.61-1.234 1.688-1.938 1.078-.703 2.343-.703 2.063 0 3.203 1.36 1.141 1.36 1.141 3.89v.75h-7.156q.031 1.563.906 2.532.875.953 2.219.953.969 0 1.625-.39.672-.392 1.172-1.032l1.093.86q-1.328 2.046-3.984 2.046zm-.219-9.484q-1.093 0-1.843.797-.735.796-.907 2.234h5.282v-.14q-.079-1.376-.75-2.126-.657-.765-1.782-.765zm20.766 4.11q0 2.421-1.11 3.905-1.093 1.47-2.984 1.47-1.922 0-3.031-1.235v5.093h-1.797V32.987h1.64l.094 1.172q1.094-1.375 3.063-1.375 1.906 0 3.016 1.438 1.109 1.437 1.109 4v.156zm-1.813-.204q0-1.781-.765-2.813-.75-1.046-2.078-1.046-1.641 0-2.47 1.453v5.062q.813 1.438 2.485 1.438 1.297 0 2.063-1.032.765-1.03.765-3.062zm8.266 5.578q-2.14 0-3.5-1.406-1.344-1.422-1.344-3.781v-.344q0-1.563.594-2.797.61-1.234 1.688-1.938 1.078-.703 2.343-.703 2.063 0 3.203 1.36 1.141 1.36 1.141 3.89v.75h-7.156q.031 1.563.906 2.532.875.953 2.219.953.969 0 1.625-.39.672-.392 1.172-1.032l1.093.86q-1.328 2.046-3.984 2.046zm-.219-9.484q-1.093 0-1.843.797-.735.796-.907 2.234h5.282v-.14q-.079-1.376-.75-2.126-.657-.765-1.782-.765zm11.938.328q-.406-.063-.875-.063-1.781 0-2.422 1.516v7.5h-1.797V32.987h1.75l.031 1.22q.89-1.423 2.516-1.423.531 0 .797.141v1.672zm13.422 8.953q-.157-.313-.25-1.11-1.266 1.313-3.016 1.313-1.563 0-2.563-.89-1-.891-1-2.25 0-1.641 1.25-2.547 1.266-.922 3.532-.922h1.765v-.828q0-.954-.578-1.516-.562-.563-1.656-.563-.969 0-1.625.5-.656.485-.656 1.172h-1.813q0-.78.563-1.515.562-.75 1.515-1.172.97-.438 2.125-.438 1.829 0 2.86.922 1.031.906 1.078 2.516v4.86q0 1.452.36 2.312v.156h-1.891zm-3-1.375q.859 0 1.609-.438.766-.437 1.11-1.14v-2.172h-1.422q-3.313 0-3.313 1.938 0 .859.563 1.343.562.469 1.453.469zm13.625-1.422q0-.734-.547-1.14-.547-.407-1.922-.704t-2.188-.703q-.796-.406-1.187-.969-.375-.578-.375-1.359 0-1.297 1.094-2.187 1.093-.907 2.812-.907 1.797 0 2.906.938 1.125.922 1.125 2.36h-1.828q0-.735-.625-1.266-.625-.547-1.578-.547-1 0-1.562.437-.547.422-.547 1.125 0 .64.515.985.516.328 1.875.64 1.36.297 2.188.719.844.406 1.25 1t.406 1.438q0 1.421-1.14 2.28-1.125.86-2.938.86-1.266 0-2.25-.453-.969-.453-1.531-1.25-.547-.813-.547-1.75h1.812q.047.906.72 1.438.687.53 1.796.53 1.031 0 1.64-.406.626-.421.626-1.109zm10 0q0-.734-.547-1.14-.547-.407-1.922-.704t-2.188-.703q-.796-.406-1.187-.969-.375-.578-.375-1.359 0-1.297 1.094-2.187 1.093-.907 2.812-.907 1.797 0 2.906.938 1.125.922 1.125 2.36h-1.828q0-.735-.625-1.266-.625-.547-1.578-.547-1 0-1.562.437-.547.422-.547 1.125 0 .64.515.985.516.328 1.875.64 1.36.297 2.188.719.844.406 1.25 1t.406 1.438q0 1.421-1.14 2.28-1.125.86-2.938.86-1.266 0-2.25-.453-.969-.453-1.531-1.25-.547-.813-.547-1.75h1.812q.047.906.72 1.438.687.53 1.796.53 1.031 0 1.64-.406.626-.421.626-1.109zm8.234 3q-2.14 0-3.5-1.406-1.344-1.422-1.344-3.781v-.344q0-1.563.594-2.797.61-1.234 1.688-1.938 1.078-.703 2.343-.703 2.063 0 3.203 1.36 1.141 1.36 1.141 3.89v.75h-7.156q.031 1.563.906 2.532.875.953 2.219.953.969 0 1.625-.39.672-.392 1.172-1.032l1.093.86q-1.328 2.046-3.984 2.046zm-.219-9.484q-1.093 0-1.843.797-.735.796-.907 2.234h5.282v-.14q-.079-1.376-.75-2.126-.657-.765-1.782-.765zm9.282-3.844v2.562h1.984v1.391h-1.984v6.547q0 .64.265.969.266.312.906.312.313 0 .86-.125v1.469q-.719.203-1.39.203-1.204 0-1.829-.734-.61-.735-.61-2.094v-6.547h-1.921v-1.39h1.922v-2.563h1.797z"/></svg>