<svg fill="none" stroke-linecap="square" stroke-miterlimit="10" width="812" height="502" xmlns="http://www.w3.org/2000/svg"><path fill="#fff" d="M0 0h812v502H0V0z"/><path stroke="#ccc" stroke-linecap="butt" d="M67.5 420.5h639M67.5 339.5h639"/><path stroke="#333" stroke-linecap="butt" d="M67.5 259.5h639"/><path stroke="#ccc" stroke-linecap="butt" d="M67.5 178.5h639M67.5 97.5h639"/><clipPath id="a"><path d="M67.1 97.833h639.029v322.509H67.1V97.833z"/></clipPath><path stroke="#36c" stroke-width="2" stroke-linecap="butt" clip-path="url(#a)" d="M386.614 259.088s28.402 5.685 42.602 5.11c14.201-.576 28.402-6.168 42.602-8.564 14.201-2.396 28.402-3.019 42.602-5.814 14.2-2.796 28.402-7.77 42.602-10.96 14.2-3.189 28.401-7.012 42.602-8.175 14.2-1.163 28.401 3.976 42.602 1.198 14.2-2.778 42.602-17.866 42.602-17.866"/><path stroke="#dc3912" stroke-width="2" stroke-linecap="butt" clip-path="url(#a)" d="M88.401 259.088s28.401-10.6 42.602-9.321c14.2 1.279 28.401 17.834 42.602 16.997 14.2-.838 28.401-11.53 42.602-22.024 14.2-10.493 28.401-35.243 42.602-40.94 14.2-5.695 28.401 9.23 42.602 6.763 14.2-2.467 28.4-14.789 42.601-21.566 14.201-6.778 28.402-14.347 42.602-19.1 14.201-4.751 28.402-16.296 42.602-9.412 14.201 6.885 28.402 43.956 42.602 50.718 14.201 6.762 28.402-20.607 42.602-10.144 14.2 10.464 28.402 70.73 42.602 72.924 14.2 2.193 28.401-43.742 42.602-59.764 14.2-16.023 28.401-25.496 42.602-36.37 14.2-10.875 42.602-28.878 42.602-28.878"/><path stroke="#f90" stroke-width="2" stroke-linecap="butt" clip-path="url(#a)" d="M386.614 259.088s28.402-5.91 42.602 5.981c14.201 11.89 28.402 55.35 42.602 65.362 14.201 10.012 28.402-16.5 42.602-5.288 14.2 11.211 28.402 71.415 42.602 72.556 14.2 1.142 28.401-48.11 42.602-65.708 14.2-17.597 28.401-32.103 42.602-39.876 14.2-7.773 42.602-6.761 42.602-6.761"/><path stroke="#109618" stroke-width="2" stroke-linecap="butt" clip-path="url(#a)" d="M88.401 259.088s28.401 8.236 42.602 8.254c14.2.018 28.401-8.542 42.602-8.144 14.2.397 28.401 10.834 42.602 10.529 14.2-.306 28.401-18.463 42.602-12.364 14.2 6.1 28.401 44.437 42.602 48.958 14.2 4.522 28.4-22.128 42.601-21.828 14.201.3 28.402 20.232 42.602 23.626 14.201 3.393 28.402-8.897 42.602-3.265 14.201 5.631 28.402 33.699 42.602 37.053 14.201 3.353 28.402-19.034 42.602-16.931 14.2 2.103 28.402 33.975 42.602 29.55 14.2-4.423 28.401-43.809 42.602-56.092 14.2-12.284 28.401-10.383 42.602-17.61 14.2-7.227 42.602-25.754 42.602-25.754"/><path stroke="#909" stroke-width="2" stroke-linecap="butt" clip-path="url(#a)" d="M514.42 239.274s28.402 50.958 42.602 45.537c14.2-5.42 28.401-63.49 42.602-78.062 14.2-14.572 28.401-.202 42.602-9.37 14.2-9.17 42.602-45.644 42.602-45.644"/><path fill="none" clip-path="url(#a)" d="M389.614 259.088a3 3 0 1 1-6 0 3 3 0 0 1 6 0zM432.216 264.197a3 3 0 1 1-6 0 3 3 0 0 1 6 0zM474.818 255.634a3 3 0 1 1-6 0 3 3 0 0 1 6 0zM517.42 249.82a3 3 0 1 1-6 0 3 3 0 0 1 6 0zM560.022 238.86a3 3 0 1 1-6 0 3 3 0 0 1 6 0zM602.624 230.685a3 3 0 1 1-6 0 3 3 0 0 1 6 0zM645.226 231.883a3 3 0 1 1-6 0 3 3 0 0 1 6 0zM687.828 214.017a3 3 0 1 1-6 0 3 3 0 0 1 6 0zM91.401 259.088a3 3 0 1 1-6 0 3 3 0 0 1 6 0zM134.003 249.767a3 3 0 1 1-6 0 3 3 0 0 1 6 0zM176.605 266.764a3 3 0 1 1-6 0 3 3 0 0 1 6 0zM219.207 244.74a3 3 0 1 1-6 0 3 3 0 0 1 6 0zM261.809 203.8a3 3 0 1 1-6 0 3 3 0 0 1 6 0zM304.41 210.563a3 3 0 1 1-6 0 3 3 0 0 1 6 0zM347.012 188.997a3 3 0 1 1-6 0 3 3 0 0 1 6 0zM389.614 169.898a3 3 0 1 1-6 0 3 3 0 0 1 6 0zM432.216 160.485a3 3 0 1 1-6 0 3 3 0 0 1 6 0zM474.818 211.203a3 3 0 1 1-6 0 3 3 0 0 1 6 0zM517.42 201.06a3 3 0 1 1-6 0 3 3 0 0 1 6 0zM560.022 273.983a3 3 0 1 1-6 0 3 3 0 0 1 6 0zM602.624 214.219a3 3 0 1 1-6 0 3 3 0 0 1 6 0zM645.226 177.848a3 3 0 1 1-6 0 3 3 0 0 1 6 0zM687.828 148.971a3 3 0 1 1-6 0 3 3 0 0 1 6 0z"/><path fill="none" clip-path="url(#a)" d="M389.614 259.088a3 3 0 1 1-6 0 3 3 0 0 1 6 0zM432.216 265.069a3 3 0 1 1-6 0 3 3 0 0 1 6 0zM474.818 330.43a3 3 0 1 1-6 0 3 3 0 0 1 6 0zM517.42 325.143a3 3 0 1 1-6 0 3 3 0 0 1 6 0zM560.022 397.7a3 3 0 1 1-6 0 3 3 0 0 1 6 0zM602.624 331.991a3 3 0 1 1-6 0 3 3 0 0 1 6 0zM645.226 292.115a3 3 0 1 1-6 0 3 3 0 0 1 6 0zM687.828 285.354a3 3 0 1 1-6 0 3 3 0 0 1 6 0zM91.401 259.088a3 3 0 1 1-6 0 3 3 0 0 1 6 0zM134.003 267.342a3 3 0 1 1-6 0 3 3 0 0 1 6 0zM176.605 259.198a3 3 0 1 1-6 0 3 3 0 0 1 6 0zM219.207 269.727a3 3 0 1 1-6 0 3 3 0 0 1 6 0zM261.809 257.363a3 3 0 1 1-6 0 3 3 0 0 1 6 0zM304.41 306.321a3 3 0 1 1-6 0 3 3 0 0 1 6 0zM347.012 284.493a3 3 0 1 1-6 0 3 3 0 0 1 6 0zM389.614 308.119a3 3 0 1 1-6 0 3 3 0 0 1 6 0zM432.216 304.854a3 3 0 1 1-6 0 3 3 0 0 1 6 0zM474.818 341.907a3 3 0 1 1-6 0 3 3 0 0 1 6 0z"/><path fill="none" clip-path="url(#a)" d="M517.42 324.976a3 3 0 1 1-6 0 3 3 0 0 1 6 0zM560.022 354.527a3 3 0 1 1-6 0 3 3 0 0 1 6 0zM602.624 298.434a3 3 0 1 1-6 0 3 3 0 0 1 6 0zM645.226 280.824a3 3 0 1 1-6 0 3 3 0 0 1 6 0zM687.828 255.07a3 3 0 1 1-6 0 3 3 0 0 1 6 0zM517.42 239.274a3 3 0 1 1-6 0 3 3 0 0 1 6 0zM560.022 284.811a3 3 0 1 1-6 0 3 3 0 0 1 6 0zM602.624 206.749a3 3 0 1 1-6 0 3 3 0 0 1 6 0zM645.226 197.378a3 3 0 1 1-6 0 3 3 0 0 1 6 0zM687.828 151.735a3 3 0 1 1-6 0 3 3 0 0 1 6 0z"/><path fill="#757575" d="M28.178 421.654h-2.86v-.875h2.86v.875zm6.219 3.188h-5.594v-.781l2.953-3.282q.657-.75.907-1.203.25-.469.25-.969 0-.671-.407-1.093-.39-.438-1.078-.438-.797 0-1.25.469-.453.453-.453 1.281h-1.078q0-1.187.75-1.906.766-.734 2.031-.734 1.203 0 1.89.625.688.625.688 1.671 0 1.25-1.61 3l-2.28 2.47h4.28v.89zm6.766-3.64q0 1.905-.657 2.843-.64.922-2.031.922-1.36 0-2.016-.906-.656-.907-.687-2.72v-1.437q0-1.89.64-2.797.657-.921 2.047-.921 1.375 0 2.032.89.656.875.672 2.719v1.406zm-1.094-1.485q0-1.375-.39-2-.376-.64-1.22-.64-.828 0-1.218.64-.375.625-.375 1.922v1.734q0 1.375.39 2.047.407.656 1.219.656.797 0 1.188-.625.39-.625.406-1.953v-1.781zm2.875 4.562q0-.28.156-.468.172-.188.5-.188.344 0 .516.188.172.187.172.468 0 .266-.172.453-.172.172-.516.172-.328 0-.5-.172-.156-.187-.156-.453zm8.218-3.078q0 1.906-.656 2.844-.64.922-2.031.922-1.36 0-2.016-.906-.656-.907-.687-2.72v-1.437q0-1.89.64-2.797.657-.921 2.047-.921 1.375 0 2.032.89.656.875.672 2.719v1.406zm-1.093-1.484q0-1.375-.39-2-.376-.64-1.22-.64-.828 0-1.218.64-.375.625-.375 1.922v1.734q0 1.375.39 2.047.407.656 1.219.656.797 0 1.188-.625.39-.625.406-1.953v-1.781zm2.64-1.766q0-.765.485-1.265.5-.5 1.265-.5.782 0 1.266.5t.484 1.296v.422q0 .766-.5 1.266-.484.484-1.234.484-.766 0-1.266-.484-.5-.5-.5-1.313v-.406zm.813.453q0 .453.25.75.266.297.703.297.422 0 .672-.281.25-.297.25-.797v-.422q0-.453-.25-.75-.25-.312-.688-.312-.437 0-.687.312-.25.297-.25.766v.437zm3.344 4.344q0-.766.484-1.25.5-.5 1.266-.5.765 0 1.25.5.5.484.5 1.297v.406q0 .766-.485 1.266-.484.5-1.25.5-.765 0-1.265-.485-.5-.5-.5-1.312v-.422zm.812.453q0 .469.25.766.266.297.703.297.422 0 .672-.282.25-.296.25-.796v-.438q0-.469-.265-.75-.25-.297-.672-.297-.422 0-.688.297-.25.281-.25.781v.422zm-2.953 1l-.625-.39 4.172-6.672.61.39-4.157 6.672zM28.178 341.027h-2.86v-.875h2.86v.875zm4.188 3.188h-1.078v-7.219l-2.188.797v-.985l3.11-1.171h.156v8.578zm8.797-3.64q0 1.905-.657 2.843-.64.922-2.031.922-1.36 0-2.016-.907-.656-.906-.687-2.718v-1.438q0-1.89.64-2.797.657-.922 2.047-.922 1.375 0 2.032.891.656.875.672 2.719v1.406zm-1.094-1.485q0-1.375-.39-2-.376-.64-1.22-.64-.828 0-1.218.64-.375.625-.375 1.922v1.734q0 1.375.39 2.047.407.656 1.219.656.797 0 1.188-.625.39-.625.406-1.953v-1.781zm2.875 4.562q0-.281.156-.469.172-.187.5-.187.344 0 .516.187.172.188.172.47 0 .265-.172.452-.172.172-.516.172-.328 0-.5-.172-.156-.187-.156-.453zm8.218-3.078q0 1.906-.656 2.844-.64.922-2.031.922-1.36 0-2.016-.907-.656-.906-.687-2.718v-1.438q0-1.89.64-2.797.657-.922 2.047-.922 1.375 0 2.032.891.656.875.672 2.719v1.406zm-1.093-1.484q0-1.375-.39-2-.376-.64-1.22-.64-.828 0-1.218.64-.375.625-.375 1.922v1.734q0 1.375.39 2.047.407.656 1.219.656.797 0 1.188-.625.39-.625.406-1.953v-1.781zm2.64-1.766q0-.766.485-1.266.5-.5 1.265-.5.782 0 1.266.5t.484 1.297v.422q0 .766-.5 1.266-.484.484-1.234.484-.766 0-1.266-.484-.5-.5-.5-1.313v-.406zm.813.453q0 .453.25.75.266.297.703.297.422 0 .672-.281.25-.297.25-.797v-.422q0-.453-.25-.75-.25-.312-.688-.312-.437 0-.687.312-.25.297-.25.766v.437zm3.344 4.344q0-.766.484-1.25.5-.5 1.266-.5.765 0 1.25.5.5.484.5 1.297v.406q0 .766-.485 1.266-.484.5-1.25.5-.765 0-1.265-.485-.5-.5-.5-1.312v-.422zm.812.453q0 .469.25.766.266.297.703.297.422 0 .672-.282.25-.297.25-.797v-.437q0-.469-.265-.75-.25-.297-.672-.297-.422 0-.688.297-.25.281-.25.781v.422zm-2.953 1l-.625-.39 4.172-6.672.61.39-4.157 6.672zM41.163 259.947q0 1.906-.657 2.844-.64.922-2.031.922-1.36 0-2.016-.907-.656-.906-.687-2.718v-1.438q0-1.89.64-2.797.657-.922 2.047-.922 1.375 0 2.032.891.656.875.672 2.719v1.406zm-1.094-1.484q0-1.375-.39-2-.376-.641-1.22-.641-.828 0-1.218.64-.375.626-.375 1.922v1.735q0 1.375.39 2.047.407.656 1.219.656.797 0 1.188-.625.39-.625.406-1.953v-1.781zm2.875 4.562q0-.281.156-.469.172-.187.5-.187.344 0 .516.187.172.188.172.47 0 .265-.172.452-.172.172-.516.172-.328 0-.5-.172-.156-.187-.156-.453zm8.218-3.078q0 1.906-.656 2.844-.64.922-2.031.922-1.36 0-2.016-.907-.656-.906-.687-2.718v-1.438q0-1.89.64-2.797.657-.922 2.047-.922 1.375 0 2.032.891.656.875.672 2.719v1.406zm-1.093-1.484q0-1.375-.39-2-.376-.641-1.22-.641-.828 0-1.218.64-.375.626-.375 1.922v1.735q0 1.375.39 2.047.407.656 1.219.656.797 0 1.188-.625.39-.625.406-1.953v-1.781zm2.64-1.766q0-.766.485-1.266.5-.5 1.265-.5.782 0 1.266.5t.484 1.297v.422q0 .766-.5 1.266-.484.484-1.234.484-.766 0-1.266-.484-.5-.5-.5-1.313v-.406zm.813.453q0 .453.25.75.266.297.703.297.422 0 .672-.281.25-.297.25-.797v-.422q0-.453-.25-.75-.25-.313-.688-.313-.437 0-.687.313-.25.297-.25.766v.437zm3.344 4.344q0-.766.484-1.25.5-.5 1.266-.5.765 0 1.25.5.5.484.5 1.297v.406q0 .766-.485 1.266-.484.5-1.25.5-.765 0-1.265-.485-.5-.5-.5-1.312v-.422zm.812.453q0 .469.25.766.266.296.703.296.422 0 .672-.28.25-.298.25-.798v-.437q0-.469-.265-.75-.25-.297-.672-.297-.422 0-.688.297-.25.281-.25.781v.422zm-2.953 1l-.625-.39 4.172-6.673.61.391-4.157 6.672zM32.366 182.96h-1.078v-7.218l-2.188.797v-.985l3.11-1.172h.156v8.578zm8.797-3.64q0 1.906-.657 2.844-.64.921-2.031.921-1.36 0-2.016-.906-.656-.906-.687-2.719v-1.437q0-1.89.64-2.797.657-.922 2.047-.922 1.375 0 2.032.89.656.876.672 2.72v1.406zm-1.094-1.485q0-1.375-.39-2-.376-.64-1.22-.64-.828 0-1.218.64-.375.625-.375 1.922v1.735q0 1.375.39 2.047.407.656 1.219.656.797 0 1.188-.625.39-.625.406-1.953v-1.782zm2.875 4.563q0-.281.156-.469.172-.187.5-.187.344 0 .516.187.172.188.172.469 0 .266-.172.453-.172.172-.516.172-.328 0-.5-.172-.156-.187-.156-.453zm8.218-3.078q0 1.906-.656 2.844-.64.921-2.031.921-1.36 0-2.016-.906-.656-.906-.687-2.719v-1.437q0-1.89.64-2.797.657-.922 2.047-.922 1.375 0 2.032.89.656.876.672 2.72v1.406zm-1.093-1.485q0-1.375-.39-2-.376-.64-1.22-.64-.828 0-1.218.64-.375.625-.375 1.922v1.735q0 1.375.39 2.047.407.656 1.219.656.797 0 1.188-.625.39-.625.406-1.953v-1.782zm2.64-1.765q0-.766.485-1.266.5-.5 1.265-.5.782 0 1.266.5t.484 1.297v.422q0 .766-.5 1.266-.484.484-1.234.484-.766 0-1.266-.484-.5-.5-.5-1.313v-.406zm.813.453q0 .453.25.75.266.297.703.297.422 0 .672-.281.25-.297.25-.797v-.422q0-.453-.25-.75-.25-.313-.688-.313-.437 0-.687.313-.25.297-.25.765v.438zm3.344 4.344q0-.766.484-1.25.5-.5 1.266-.5.765 0 1.25.5.5.484.5 1.297v.406q0 .765-.485 1.265-.484.5-1.25.5-.765 0-1.265-.484-.5-.5-.5-1.312v-.422zm.812.453q0 .469.25.765.266.297.703.297.422 0 .672-.28.25-.298.25-.798v-.437q0-.469-.265-.75-.25-.297-.672-.297-.422 0-.688.297-.25.281-.25.781v.422zm-2.953 1l-.625-.39 4.172-6.673.61.391-4.157 6.672zM34.397 102.333h-5.594v-.78l2.953-3.282q.657-.75.907-1.203.25-.469.25-.969 0-.672-.407-1.094-.39-.437-1.078-.437-.797 0-1.25.468-.453.454-.453 1.282h-1.078q0-1.188.75-1.907.766-.734 2.031-.734 1.203 0 1.89.625.688.625.688 1.672 0 1.25-1.61 3l-2.28 2.469h4.28v.89zm6.766-3.64q0 1.906-.657 2.843-.64.922-2.031.922-1.36 0-2.016-.906-.656-.906-.687-2.719v-1.437q0-1.89.64-2.797.657-.922 2.047-.922 1.375 0 2.032.89.656.876.672 2.72v1.406zm-1.094-1.485q0-1.375-.39-2-.376-.64-1.22-.64-.828 0-1.218.64-.375.625-.375 1.922v1.735q0 1.375.39 2.046.407.657 1.219.657.797 0 1.188-.625.39-.625.406-1.953v-1.782zm2.875 4.563q0-.281.156-.469.172-.187.5-.187.344 0 .516.187.172.188.172.469 0 .265-.172.453-.172.172-.516.172-.328 0-.5-.172-.156-.188-.156-.453zm8.218-3.078q0 1.906-.656 2.843-.64.922-2.031.922-1.36 0-2.016-.906-.656-.906-.687-2.719v-1.437q0-1.89.64-2.797.657-.922 2.047-.922 1.375 0 2.032.89.656.876.672 2.72v1.406zm-1.093-1.485q0-1.375-.39-2-.376-.64-1.22-.64-.828 0-1.218.64-.375.625-.375 1.922v1.735q0 1.375.39 2.046.407.657 1.219.657.797 0 1.188-.625.39-.625.406-1.953v-1.782zm2.64-1.765q0-.766.485-1.266.5-.5 1.265-.5.782 0 1.266.5t.484 1.297v.422q0 .765-.5 1.265-.484.485-1.234.485-.766 0-1.266-.485-.5-.5-.5-1.312v-.406zm.813.453q0 .453.25.75.266.297.703.297.422 0 .672-.282.25-.296.25-.796v-.422q0-.453-.25-.75-.25-.313-.688-.313-.437 0-.687.313-.25.297-.25.765v.438zm3.344 4.344q0-.766.484-1.25.5-.5 1.266-.5.765 0 1.25.5.5.484.5 1.296v.407q0 .765-.485 1.265-.484.5-1.25.5-.765 0-1.265-.484-.5-.5-.5-1.313v-.421zm.812.453q0 .468.25.765.266.297.703.297.422 0 .672-.281.25-.297.25-.797v-.437q0-.47-.265-.75-.25-.297-.672-.297-.422 0-.688.297-.25.28-.25.78v.423zm-2.953 1l-.625-.39 4.172-6.673.61.39-4.157 6.673zM56.769 474.944l-.762.763-5.105-5.105-.983 2.11-.696-.695 1.37-3.028.11-.11 6.066 6.065zm1.856-6.364l-2.022 2.022-.618-.618 2.021-2.022.62.618zm3.569-4.386l-2.541 2.541 2.662 2.663-.795.796-6.033-6.033 3.746-3.745.652.651-2.95 2.95L59 466.084l2.541-2.542.652.652zm6.11-.607q-.917.917-2.089.894-1.17-.044-2.176-1.05l-.133-.132q-.674-.674-.939-1.447-.276-.785-.11-1.525.165-.762.696-1.292.873-.873 1.933-.785 1.06.088 2.133 1.16l.32.32-3.038 3.039q.685.64 1.458.685.785.033 1.36-.541.397-.398.507-.84.122-.453.067-.95l.828-.1q.31 1.437-.817 2.564zm-4.121-3.923q-.464.464-.442 1.127.022.641.563 1.315l2.243-2.243-.055-.055q-.619-.553-1.227-.586-.596-.044-1.082.442zm8.02-4.53q1.028 1.028 1.183 2.133.155 1.082-.64 1.878-.852.85-1.923.707l.475.564-.696.696-6.364-6.364.762-.763 2.376 2.376q-.11-1.039.707-1.856.817-.818 1.9-.663 1.072.143 2.155 1.226l.066.066zm-.85.674q-.784-.784-1.514-.895-.729-.132-1.292.431-.763.763-.398 1.79l1.945 1.945q1.06.353 1.8-.387.553-.552.431-1.293-.121-.74-.972-1.59zm3.536-3.491l-2.022 2.022-.619-.619 2.022-2.022.619.619zm6.65-2.143l-3.955 3.955-.552-.552-.232-4.409q-.066-.994-.21-1.491-.155-.509-.508-.862-.475-.475-1.06-.486-.586-.033-1.073.453-.563.563-.552 1.215 0 .64.586 1.226l-.763.763q-.84-.84-.817-1.878.022-1.061.917-1.956.85-.85 1.779-.895.928-.044 1.668.696.884.884.983 3.26l.133 3.358 3.027-3.027.63.63zm2.21-7.359q1.348 1.348 1.547 2.475.2 1.105-.784 2.088-.961.962-2.066.785-1.105-.177-2.409-1.437l-1.016-1.016q-1.337-1.337-1.525-2.43-.188-1.117.796-2.1.972-.972 2.066-.806 1.082.154 2.397 1.447l.995.994zm-1.822-.276q-.973-.972-1.69-1.138-.72-.188-1.316.409-.585.585-.408 1.315.176.707 1.093 1.624l1.227 1.226q.972.972 1.723 1.171.752.177 1.326-.397.564-.564.398-1.282-.166-.718-1.094-1.668l-1.26-1.26zm8.076-.829l-.762.763-5.105-5.105-.983 2.11-.696-.695 1.37-3.028.11-.11 6.066 6.065zm1.635-10.562q.453.453.564 1.05.11.596-.089 1.193.663-.265 1.337-.144.663.11 1.16.608.774.773.718 1.779-.055.983-.917 1.845-.872.873-1.867.939-.994.044-1.768-.73-.497-.496-.618-1.148-.133-.663.143-1.337-.596.199-1.182.077-.585-.121-1.038-.574-.763-.763-.719-1.69.034-.94.84-1.746.796-.796 1.735-.83.939-.054 1.701.708zm2.188 3.447q-.508-.508-1.138-.497-.641 0-1.16.52-.52.519-.52 1.16 0 .618.52 1.137.508.509 1.116.498.596-.023 1.138-.564.53-.53.541-1.138.011-.608-.497-1.116zm-4.994-2.696q-.453.453-.453 1.028 0 .552.486 1.038.453.453 1.016.464.564.011 1.017-.442.464-.464.453-1.027-.011-.564-.464-1.017-.464-.464-1.039-.464-.585-.01-1.016.42zM98.664 475.652l-.763.762-5.104-5.105-.983 2.11-.696-.695 1.37-3.028.11-.11 6.066 6.066zm1.856-6.364l-2.022 2.021-.619-.618 2.022-2.022.619.619zm-2.11-5.447l6.894 2.939-2.95-6.884 1.039-1.038 6.032 6.032-.795.796-2.354-2.354-2.453-2.607 2.895 6.872-.607.608-6.85-2.895 2.596 2.442 2.353 2.353-.795.796-6.033-6.033 1.028-1.027zm14.727-2.663q-.198-.066-.585-.365.033 1.094-.707 1.834-.663.663-1.47.719-.795.044-1.38-.542-.697-.696-.553-1.613.143-.917 1.116-1.89l.74-.74-.354-.353q-.397-.398-.872-.387-.476-.01-.95.464-.41.41-.476.895-.077.475.221.774l-.773.773q-.343-.342-.42-.884-.066-.552.166-1.138.22-.597.707-1.083.784-.784 1.602-.828.829-.055 1.525.596l2.066 2.066q.618.62 1.138.83l.066.065-.807.807zm-1.856.685q.365-.365.497-.873.133-.508-.022-.95l-.917-.917-.596.596q-1.415 1.415-.586 2.243.354.354.807.32.442-.043.817-.419zm2.409-8.839q-.199.155-.398.354-.762.762-.387 1.668l3.182 3.182-.762.762-4.486-4.485.74-.74.53.508q-.22-.973.476-1.669.221-.22.398-.287l.707.707zm3.8-.707l-2.021 2.022-.62-.619 2.023-2.022.619.619zm6.652-2.143l-3.956 3.955-.552-.552-.232-4.409q-.066-.994-.21-1.491-.155-.509-.508-.862-.475-.475-1.06-.486-.586-.033-1.073.453-.563.563-.552 1.215 0 .64.586 1.226l-.763.763q-.84-.84-.817-1.879.022-1.06.917-1.955.85-.85 1.778-.895.929-.044 1.669.696.884.884.983 3.26l.133 3.358 3.027-3.027.63.63zm2.21-7.359q1.347 1.348 1.546 2.475.2 1.105-.784 2.088-.961.962-2.066.785-1.105-.177-2.409-1.437l-1.016-1.016q-1.337-1.337-1.525-2.43-.188-1.117.795-2.1.973-.972 2.067-.807 1.082.155 2.397 1.448l.994.994zm-1.824-.276q-.972-.972-1.69-1.138-.718-.188-1.315.409-.585.585-.409 1.315.177.707 1.094 1.624l1.227 1.226q.972.972 1.723 1.171.752.177 1.326-.397.564-.564.398-1.282-.166-.718-1.094-1.668l-1.26-1.26zm8.077-.829l-.762.763-5.105-5.105-.983 2.11-.696-.695 1.37-3.028.11-.11 6.066 6.065zm1.635-10.562q.453.453.564 1.05.11.596-.089 1.193.663-.265 1.337-.144.663.11 1.16.608.774.773.718 1.779-.055.983-.917 1.845-.873.873-1.867.939-.994.044-1.768-.73-.497-.496-.618-1.148-.133-.663.143-1.337-.596.199-1.182.077-.586-.121-1.038-.574-.763-.763-.719-1.69.033-.94.84-1.747.796-.795 1.735-.828.939-.055 1.701.707zm2.188 3.447q-.508-.508-1.138-.497-.641 0-1.16.52-.52.519-.52 1.16 0 .618.52 1.137.508.509 1.116.498.596-.023 1.138-.564.53-.53.54-1.138.012-.608-.496-1.116zm-4.994-2.696q-.453.453-.453 1.028 0 .552.486 1.038.453.453 1.016.464.564.011 1.017-.442.464-.464.453-1.027-.011-.564-.464-1.017-.464-.464-1.039-.464-.585-.01-1.016.42zM142.68 474.237l-.762.763-5.105-5.105-.983 2.11-.696-.696 1.37-3.027.11-.11 6.066 6.065zm1.856-6.364l-2.022 2.022-.619-.618 2.022-2.022.62.618zm4.652-3.303l-2.53 2.53 1.016 2.143-.818.818-3.734-8.33.696-.697 8.342 3.724-.818.817-2.154-1.005zm-2.94 1.635l2.056-2.055-3.845-1.79 1.79 3.845zm8.32-8.231q1.017 1.016 1.182 2.11.166 1.094-.64 1.9-.818.818-1.801.763l2.154 2.154-.762.763-6.21-6.21.697-.696.53.464q-.1-1.05.73-1.878.806-.806 1.877-.663 1.083.133 2.166 1.216l.077.077zm-.85.674q-.763-.763-1.525-.862-.763-.122-1.326.442-.696.696-.431 1.646l2.143 2.144q.962.276 1.669-.431.552-.553.442-1.304-.11-.773-.973-1.635zm2.574-5.624q-.2.155-.398.354-.762.762-.387 1.668l3.182 3.182-.762.762-4.486-4.485.74-.74.53.508q-.22-.973.476-1.669.22-.22.398-.287l.707.707zm3.8-.707l-2.021 2.022-.62-.619 2.023-2.022.618.619zm6.652-2.143l-3.956 3.955-.552-.552-.232-4.409q-.066-.994-.21-1.491-.155-.509-.508-.862-.475-.475-1.061-.486-.586-.033-1.072.453-.563.563-.552 1.215 0 .64.585 1.226l-.762.763q-.84-.84-.817-1.878.022-1.061.917-1.956.85-.85 1.778-.895.928-.044 1.669.696.884.884.983 3.26l.133 3.358 3.027-3.027.63.63zm2.21-7.359q1.347 1.348 1.546 2.475.199 1.105-.784 2.088-.962.962-2.066.785-1.105-.177-2.409-1.437l-1.016-1.016q-1.337-1.337-1.525-2.43-.188-1.117.795-2.1.973-.972 2.066-.806 1.083.154 2.398 1.447l.994.994zm-1.824-.276q-.972-.972-1.69-1.138-.718-.188-1.315.409-.585.585-.409 1.315.177.707 1.094 1.624l1.227 1.226q.972.972 1.723 1.171.751.177 1.326-.397.563-.564.398-1.282-.166-.718-1.094-1.668l-1.26-1.26zm8.077-.829l-.762.763-5.105-5.105-.983 2.11-.696-.695 1.37-3.028.11-.11 6.066 6.065zm1.635-10.562q.453.453.564 1.05.11.596-.089 1.193.663-.265 1.337-.144.663.11 1.16.608.774.773.718 1.779-.055.983-.917 1.845-.873.873-1.867.939-.994.044-1.768-.73-.497-.496-.618-1.148-.133-.663.143-1.337-.596.199-1.182.077-.586-.121-1.039-.574-.762-.763-.718-1.69.033-.94.84-1.746.795-.796 1.735-.83.939-.054 1.701.708zm2.188 3.447q-.509-.508-1.138-.497-.641 0-1.16.52-.52.519-.52 1.16 0 .618.52 1.137.508.509 1.115.498.597-.023 1.138-.564.53-.53.542-1.138.01-.608-.497-1.116zm-4.994-2.696q-.453.453-.453 1.028 0 .552.486 1.038.453.453 1.016.464.564.011 1.017-.442.464-.464.453-1.027-.011-.564-.464-1.017-.464-.464-1.039-.464-.585-.01-1.016.42zM182.453 477.066l-.762.762-5.104-5.104-.984 2.11-.696-.696 1.37-3.027.11-.11 6.066 6.065zm1.857-6.364l-2.022 2.022-.619-.62 2.022-2.02.619.618zm-2.11-5.447l6.894 2.939-2.95-6.883 1.038-1.04 6.033 6.033-.796.796-2.353-2.353-2.453-2.608 2.895 6.872-.608.608-6.85-2.895 2.596 2.442 2.354 2.353-.796.796-6.032-6.033 1.027-1.027zm14.727-2.663q-.199-.066-.586-.364.034 1.093-.707 1.834-.663.663-1.47.718-.795.044-1.38-.542-.696-.696-.553-1.613.144-.917 1.116-1.889l.74-.74-.353-.354q-.398-.398-.873-.387-.475-.01-.95.464-.409.41-.475.895-.077.476.22.774l-.773.773q-.342-.342-.42-.884-.066-.552.166-1.138.221-.596.707-1.082.785-.785 1.602-.829.83-.055 1.525.597l2.066 2.066q.619.618 1.138.828l.067.067-.807.806zm-1.856.685q.364-.364.497-.873.133-.508-.022-.95l-.917-.917-.597.597q-1.414 1.414-.585 2.243.353.353.806.32.442-.044.818-.42zm4.375-5.458l-2.309-4.408.818-.818 3.38 6.983q.696 1.536-.21 2.442l-.165.143-.332.221-.618-.618.21-.188q.397-.398.452-.763.067-.375-.21-.939l-.298-.63-6.032-2.828.84-.84 4.474 2.243zm3.248-5.502l-2.022 2.022-.618-.619 2.022-2.022.618.619zm6.652-2.143l-3.956 3.955-.552-.552-.232-4.409q-.067-.994-.21-1.491-.155-.509-.508-.862-.475-.475-1.061-.486-.586-.033-1.072.453-.563.563-.552 1.215 0 .64.585 1.226l-.762.763q-.84-.84-.818-1.878.023-1.061.917-1.956.851-.85 1.78-.895.927-.044 1.668.696.884.884.983 3.26l.133 3.358 3.027-3.027.63.63zm2.21-7.359q1.347 1.348 1.546 2.475.199 1.105-.784 2.088-.962.962-2.066.785-1.105-.177-2.409-1.437l-1.016-1.016q-1.337-1.337-1.525-2.43-.188-1.117.795-2.1.973-.972 2.066-.806 1.083.154 2.398 1.447l.994.994zm-1.824-.276q-.972-.972-1.69-1.138-.718-.188-1.315.409-.585.585-.409 1.315.177.707 1.094 1.624l1.226 1.226q.973.972 1.724 1.171.751.177 1.326-.397.563-.564.398-1.282-.166-.718-1.094-1.668l-1.26-1.26zm8.077-.829l-.763.763-5.104-5.105-.983 2.11-.696-.695 1.37-3.028.11-.11 6.066 6.065zm1.635-10.562q.453.453.563 1.05.11.596-.088 1.193.663-.265 1.337-.144.663.11 1.16.608.773.773.718 1.779-.055.983-.917 1.845-.873.873-1.867.939-.994.044-1.768-.73-.497-.496-.619-1.148-.132-.663.144-1.337-.597.199-1.182.077-.586-.121-1.039-.574-.762-.763-.718-1.69.033-.94.84-1.746.795-.796 1.734-.83.94-.054 1.702.708zm2.188 3.447q-.509-.508-1.138-.497-.641 0-1.16.52-.52.519-.52 1.16 0 .618.52 1.137.508.509 1.115.498.597-.023 1.138-.564.53-.53.542-1.138.01-.608-.497-1.116zm-4.994-2.696q-.453.453-.453 1.028 0 .552.486 1.038.453.453 1.016.464.564.011 1.017-.442.464-.464.453-1.027-.011-.564-.464-1.017-.464-.464-1.039-.464-.585-.01-1.016.42zM226.47 475.652l-.763.762-5.104-5.105-.984 2.11-.696-.695 1.37-3.028.11-.11 6.067 6.066zm1.856-6.364l-2.022 2.021-.619-.618 2.022-2.022.619.619zm-.608-6.95l.807-.807 4.275 4.276q.862.862.829 1.89-.033 1.005-.895 1.867-.895.895-1.867.939-.961.033-1.79-.796l.796-.795q.519.52 1.093.541.575 0 1.116-.541.497-.497.486-1.105-.01-.63-.563-1.182l-4.287-4.287zm10.662.52q.088.972-.785 1.844-.718.719-1.513.674-.796-.044-1.613-.861l-2.917-2.917.762-.763 2.895 2.895q1.028 1.028 1.856.199.884-.884.508-1.834l-3.259-3.26.773-.773 4.486 4.486-.729.73-.464-.42zm-1.138-6.95l.585.541q-.121-1.16.708-1.989 1.425-1.425 3.038.166l2.961 2.961-.773.774-2.972-2.972q-.476-.476-.929-.487-.442-.022-.906.442-.375.376-.464.862-.077.475.089.95l3.193 3.193-.763.763-4.485-4.486.718-.718zm8.054-3.591l-2.022 2.022-.618-.619 2.022-2.022.618.619zm6.652-2.143l-3.956 3.955-.552-.553-.232-4.408q-.067-.994-.21-1.491-.155-.509-.508-.862-.476-.475-1.061-.486-.586-.033-1.072.453-.563.563-.552 1.215 0 .64.585 1.226l-.762.763q-.84-.84-.818-1.879.022-1.06.917-1.955.851-.85 1.78-.895.927-.044 1.668.696.883.884.983 3.26l.132 3.358 3.028-3.027.63.63zm2.21-7.359q1.347 1.348 1.546 2.475.199 1.105-.784 2.088-.962.962-2.066.785-1.105-.177-2.41-1.437l-1.016-1.016q-1.336-1.337-1.524-2.43-.188-1.117.795-2.1.973-.972 2.066-.807 1.083.155 2.398 1.448l.994.994zm-1.824-.276q-.972-.972-1.69-1.138-.718-.188-1.315.409-.586.585-.409 1.315.177.707 1.094 1.624l1.226 1.226q.973.972 1.724 1.171.751.177 1.326-.398.563-.563.398-1.281-.166-.718-1.094-1.668l-1.26-1.26zm8.077-.829l-.763.763-5.104-5.105-.983 2.11-.696-.695 1.37-3.028.11-.11 6.066 6.065zm1.635-10.562q.453.453.563 1.05.11.596-.088 1.193.663-.265 1.337-.144.663.11 1.16.608.773.773.718 1.779-.055.983-.917 1.845-.873.873-1.867.939-.994.044-1.768-.73-.497-.496-.619-1.148-.132-.663.144-1.337-.597.199-1.182.077-.586-.121-1.039-.574-.762-.763-.718-1.69.033-.94.84-1.747.795-.795 1.734-.828.94-.055 1.702.707zm2.188 3.447q-.509-.508-1.138-.497-.641 0-1.16.52-.52.519-.52 1.16 0 .618.52 1.137.508.509 1.115.498.597-.023 1.138-.564.53-.53.542-1.138.01-.608-.497-1.116zm-4.994-2.696q-.453.453-.453 1.028 0 .552.486 1.038.453.453 1.016.464.564.011 1.017-.442.464-.464.453-1.027-.011-.564-.464-1.017-.464-.464-1.039-.464-.586-.01-1.016.42zM271.9 472.823l-.762.762-5.105-5.104-.983 2.11-.696-.696 1.37-3.027.11-.11 6.066 6.065zm1.856-6.364l-2.022 2.022-.619-.619 2.022-2.022.62.62zm-.608-6.95l.807-.806 4.276 4.276q.862.862.828 1.89-.033 1.005-.895 1.866-.894.895-1.867.94-.961.033-1.79-.796l.796-.796q.52.52 1.094.542.574 0 1.116-.541.497-.498.486-1.105-.011-.63-.564-1.183l-4.287-4.286zm10.662.52q.089.972-.784 1.845-.718.718-1.514.674-.795-.044-1.613-.862l-2.917-2.917.763-.762 2.894 2.895q1.028 1.027 1.856.199.884-.884.509-1.834l-3.26-3.26.774-.773 4.486 4.486-.73.729-.464-.42zm3.458-2.574l-.762.762-6.364-6.364.762-.762 6.364 6.364zm.63-5.138l-2.022 2.022-.618-.619 2.022-2.022.618.619zm6.651-2.143l-3.955 3.955-.552-.552-.232-4.409q-.067-.994-.21-1.491-.155-.509-.509-.862-.475-.475-1.06-.486-.586-.033-1.072.453-.563.563-.552 1.215 0 .64.585 1.226l-.762.763q-.84-.84-.818-1.878.022-1.061.917-1.956.851-.85 1.78-.895.927-.044 1.667.696.884.884.984 3.26l.132 3.358 3.028-3.027.63.63zm2.21-7.359q1.348 1.348 1.547 2.475.199 1.105-.784 2.088-.962.962-2.067.785-1.104-.177-2.408-1.437l-1.017-1.016q-1.337-1.337-1.524-2.43-.188-1.117.795-2.1.972-.972 2.066-.806 1.083.154 2.398 1.447l.994.994zm-1.823-.276q-.972-.972-1.69-1.138-.718-.188-1.315.409-.586.585-.409 1.315.177.707 1.094 1.624l1.226 1.226q.973.972 1.724 1.171.751.177 1.326-.397.563-.564.397-1.282-.165-.718-1.093-1.668l-1.26-1.26zm8.077-.829l-.763.763-5.104-5.105-.983 2.11-.697-.695 1.37-3.028.111-.11 6.066 6.065zm1.635-10.562q.453.453.563 1.05.11.596-.088 1.193.663-.265 1.337-.144.663.11 1.16.608.773.773.718 1.779-.055.983-.917 1.845-.873.873-1.867.939-.995.044-1.768-.73-.497-.496-.619-1.148-.132-.663.144-1.337-.597.199-1.182.077-.586-.121-1.039-.574-.762-.763-.718-1.69.033-.94.84-1.746.795-.796 1.734-.83.94-.054 1.702.708zm2.187 3.447q-.508-.508-1.138-.497-.64 0-1.16.52-.519.519-.519 1.16 0 .618.52 1.137.508.509 1.115.498.597-.023 1.138-.564.53-.53.542-1.138.01-.608-.498-1.116zm-4.993-2.696q-.453.453-.453 1.028 0 .552.486 1.038.453.453 1.016.464.564.011 1.017-.442.464-.464.453-1.027-.012-.564-.464-1.017-.465-.464-1.04-.464-.585-.01-1.016.42zM310.966 476.359l-.762.762-5.104-5.104-.984 2.11-.696-.696 1.37-3.028.11-.11 6.066 6.066zm1.856-6.364l-2.021 2.022-.62-.62 2.023-2.021.618.619zm4.652-3.304l-2.53 2.53 1.016 2.144-.817.817-3.735-8.33.696-.696 8.342 3.723-.818.818-2.154-1.006zm-2.939 1.635l2.055-2.055-3.845-1.79 1.79 3.845zm9.049-5.469q.088.973-.785 1.845-.718.719-1.513.674-.796-.044-1.613-.861l-2.917-2.917.762-.763 2.895 2.895q1.027 1.028 1.856.199.884-.884.508-1.834l-3.26-3.26.774-.773 4.486 4.486-.73.73-.463-.42zm.165-3.834q-1.05-1.05-1.182-2.154-.132-1.105.663-1.9.818-.818 1.856-.707l-.464-.53.707-.708 4.376 4.375q.872.873.85 1.89-.01 1.027-.872 1.889-.487.486-1.16.74-.675.254-1.271.144l-.066-.862q1.093.122 1.812-.597.552-.552.54-1.182.012-.63-.563-1.204l-.386-.387q.077 1.006-.718 1.801-.785.785-1.9.64-1.128-.154-2.222-1.248zm.862-.685q.752.752 1.503.884.74.122 1.304-.442.718-.718.397-1.723l-2.044-2.044q-.994-.287-1.701.42-.553.552-.442 1.303.121.74.983 1.602zm5.89-6.021l-2.023 2.022-.618-.619 2.021-2.022.62.619zm6.65-2.143l-3.955 3.955-.552-.552-.232-4.409q-.067-.994-.21-1.491-.155-.509-.509-.862-.475-.475-1.06-.486-.586-.033-1.072.453-.563.563-.552 1.215 0 .64.585 1.226l-.762.763q-.84-.84-.818-1.878.022-1.061.917-1.956.851-.85 1.78-.895.927-.044 1.667.696.884.884.984 3.26l.132 3.358 3.028-3.027.63.63zm2.21-7.359q1.348 1.348 1.547 2.475.199 1.105-.785 2.088-.96.962-2.066.785-1.105-.177-2.408-1.437l-1.017-1.016q-1.337-1.337-1.524-2.43-.188-1.117.795-2.1.972-.972 2.066-.806 1.083.154 2.398 1.447l.994.994zm-1.823-.276q-.972-.972-1.69-1.138-.719-.188-1.315.409-.586.585-.409 1.315.177.707 1.094 1.624l1.226 1.226q.973.972 1.724 1.171.751.177 1.326-.397.563-.564.397-1.282-.165-.718-1.093-1.668l-1.26-1.26zm8.077-.829l-.763.763-5.104-5.105-.984 2.11-.696-.695 1.37-3.028.11-.11 6.067 6.065zm1.635-10.562q.453.453.563 1.05.11.596-.088 1.193.663-.265 1.337-.144.663.11 1.16.608.773.773.718 1.779-.055.983-.917 1.845-.873.873-1.867.939-.995.044-1.768-.73-.497-.496-.619-1.148-.132-.663.144-1.337-.597.199-1.182.077-.586-.121-1.039-.574-.762-.763-.718-1.69.033-.94.84-1.746.795-.796 1.734-.83.94-.054 1.702.708zm2.187 3.447q-.508-.508-1.138-.497-.64 0-1.16.52-.519.519-.519 1.16 0 .618.52 1.137.507.509 1.115.498.597-.023 1.138-.564.53-.53.542-1.138.01-.608-.498-1.116zm-4.994-2.696q-.453.453-.453 1.028 0 .552.487 1.038.453.453 1.016.464.564.011 1.017-.442.464-.464.452-1.027-.01-.564-.464-1.017-.464-.464-1.038-.464-.586-.01-1.017.42zM354.982 474.944l-.762.763-5.104-5.105-.984 2.11-.696-.695 1.37-3.028.11-.11 6.066 6.065zm1.857-6.364l-2.022 2.022-.619-.618 2.022-2.022.619.618zm1.988-2.85q-1.314.718-2.22.762-.895.033-1.525-.596-.707-.707-.608-1.735.1-1.05 1.017-1.967.618-.618 1.348-.861.729-.243 1.414-.089.696.144 1.204.652l-.806.807q-.553-.553-1.216-.509-.652.034-1.281.663-.586.586-.652 1.182-.078.586.375 1.04.376.375.94.32.574-.067 1.535-.608.962-.542 1.635-.707.685-.177 1.227-.033.552.132 1.005.585.74.74.608 1.757-.133 1.016-1.083 1.967-.63.63-1.414.928-.773.287-1.48.176-.708-.132-1.227-.652l.796-.795q.54.541 1.27.453.73-.088 1.403-.762.63-.63.707-1.216.067-.596-.375-1.038-.442-.442-.995-.376-.552.066-1.602.652zm7.69-2.143q-.917.917-2.088.894-1.171-.044-2.177-1.05l-.132-.132q-.674-.674-.94-1.447-.276-.785-.11-1.525.166-.762.696-1.292.873-.873 1.934-.785 1.06.088 2.132 1.16l.32.32-3.038 3.039q.685.64 1.459.685.784.033 1.359-.541.397-.398.508-.84.121-.453.066-.95l.829-.1q.31 1.437-.818 2.564zm-4.121-3.923q-.464.464-.442 1.127.022.641.564 1.315l2.242-2.243-.055-.055q-.619-.553-1.226-.586-.597-.044-1.083.442zm8.01-4.519q1.017 1.017 1.182 2.11.166 1.095-.64 1.901-.818.818-1.801.762l2.154 2.155-.762.762-6.21-6.209.697-.696.53.464q-.1-1.05.73-1.878.806-.807 1.877-.663 1.083.132 2.166 1.215l.077.077zm-.85.674q-.763-.762-1.525-.861-.763-.122-1.326.442-.696.696-.43 1.646l2.142 2.143q.962.276 1.669-.43.552-.553.442-1.304-.11-.774-.973-1.636zm3.546-3.502l-2.022 2.022-.618-.619 2.021-2.022.62.619zm6.651-2.143l-3.955 3.955-.553-.552-.231-4.409q-.067-.994-.21-1.491-.155-.509-.509-.862-.475-.475-1.06-.486-.586-.033-1.072.453-.564.563-.552 1.215 0 .64.585 1.226l-.762.763q-.84-.84-.818-1.878.022-1.061.917-1.956.85-.85 1.779-.895.928-.044 1.668.696.884.884.984 3.26l.132 3.358 3.028-3.027.63.63zm2.21-7.359q1.348 1.348 1.547 2.475.199 1.105-.785 2.088-.96.962-2.066.785-1.105-.177-2.408-1.437l-1.017-1.016q-1.337-1.337-1.524-2.43-.188-1.117.795-2.1.972-.972 2.066-.806 1.083.154 2.398 1.447l.994.994zm-1.823-.276q-.972-.972-1.69-1.138-.719-.188-1.315.409-.586.585-.409 1.315.177.707 1.094 1.624l1.226 1.226q.972.972 1.724 1.171.751.177 1.326-.397.563-.564.397-1.282-.165-.718-1.093-1.668l-1.26-1.26zm8.077-.829l-.763.763-5.104-5.105-.984 2.11-.696-.695 1.37-3.028.11-.11 6.067 6.065zm1.635-10.562q.453.453.563 1.05.11.596-.088 1.193.663-.265 1.337-.144.663.11 1.16.608.773.773.718 1.779-.055.983-.917 1.845-.873.873-1.867.939-.995.044-1.768-.73-.497-.496-.619-1.148-.132-.663.144-1.337-.597.199-1.182.077-.586-.121-1.039-.574-.762-.763-.718-1.69.033-.94.84-1.746.795-.796 1.734-.83.94-.054 1.702.708zm2.187 3.447q-.508-.508-1.138-.497-.64 0-1.16.52-.52.519-.52 1.16 0 .618.52 1.137.508.509 1.116.498.597-.023 1.138-.564.53-.53.541-1.138.012-.608-.497-1.116zm-4.994-2.696q-.453.453-.453 1.028 0 .552.487 1.038.452.453 1.016.464.563.011 1.016-.442.464-.464.453-1.027-.01-.564-.464-1.017-.464-.464-1.038-.464-.586-.01-1.017.42zM398.999 473.53l-.763.763-5.104-5.105-.983 2.11-.697-.696 1.37-3.027.111-.11 6.066 6.065zm1.856-6.364l-2.022 2.022-.619-.619 2.022-2.021.619.618zm4.717-5.844q.884.883 1.249 1.845.354.95.155 1.856-.188.895-.917 1.624-.707.707-1.613.906-.906.199-1.857-.133-.95-.353-1.823-1.204l-.43-.43q-.873-.874-1.238-1.835-.354-.972-.155-1.878.188-.917.906-1.635.719-.719 1.624-.917.906-.2 1.868.165.96.365 1.845 1.249l.386.387zm-1.182.386q-1.071-1.071-2.077-1.215-1.005-.144-1.779.63-.762.762-.618 1.767.143 1.006 1.149 2.033l.453.453q1.038 1.039 2.066 1.205 1.027.143 1.79-.62.773-.772.64-1.745-.132-.994-1.17-2.055l-.454-.453zm6.154-.806q.41-.41.475-.962.056-.563-.287-.972l.73-.729q.364.409.463 1.017.1.585-.099 1.204-.188.607-.652 1.072-.917.917-2.066.85-1.149-.088-2.21-1.149l-.132-.132q-.652-.652-.928-1.393-.266-.75-.1-1.469.166-.74.785-1.359.751-.751 1.701-.795.95-.067 1.713.63l-.73.728q-.475-.408-1.05-.386-.574.022-1.005.453-.585.585-.486 1.326.1.74.895 1.535l.144.144q.773.773 1.514.873.74.1 1.325-.486zm-1.535-8.519l1.082 1.083.829-.829.597.597-.829.829 2.773 2.773q.276.276.52.298.243.022.508-.243.132-.132.32-.409l.619.619q-.21.387-.497.674-.509.508-1.083.464-.586-.055-1.16-.63l-2.773-2.773-.818.818-.597-.597.818-.818-1.083-1.082.774-.774zm6.695-.066l-2.022 2.022-.619-.619 2.022-2.022.619.619zm6.651-2.143l-3.955 3.955-.553-.552-.232-4.409q-.066-.994-.21-1.491-.154-.509-.508-.862-.475-.475-1.06-.486-.586-.033-1.072.453-.564.563-.553 1.215 0 .64.586 1.226l-.762.763q-.84-.84-.818-1.878.022-1.061.917-1.956.85-.85 1.779-.895.928-.044 1.668.696.884.884.984 3.26l.132 3.358 3.027-3.027.63.63zm2.21-7.359q1.348 1.348 1.547 2.475.199 1.105-.785 2.088-.96.962-2.066.785-1.105-.177-2.408-1.437l-1.017-1.016q-1.337-1.337-1.525-2.43-.187-1.117.796-2.1.972-.972 2.066-.806 1.083.154 2.398 1.447l.994.994zm-1.823-.276q-.972-.972-1.69-1.138-.719-.188-1.315.409-.586.585-.41 1.315.178.707 1.095 1.624l1.226 1.226q.972.972 1.724 1.171.751.177 1.325-.397.564-.564.398-1.282-.165-.718-1.094-1.668l-1.26-1.26zm8.076-.829l-.762.763-5.104-5.105-.984 2.11-.696-.695 1.37-3.028.11-.11 6.066 6.065zm1.636-10.562q.453.453.563 1.05.11.596-.088 1.193.663-.265 1.337-.144.662.11 1.16.608.773.773.718 1.779-.055.983-.917 1.845-.873.873-1.867.939-.995.044-1.768-.73-.497-.496-.619-1.148-.132-.663.144-1.337-.597.199-1.182.077-.586-.121-1.039-.574-.762-.763-.718-1.69.033-.94.84-1.746.795-.796 1.734-.83.94-.054 1.702.708zm2.187 3.447q-.508-.508-1.138-.497-.64 0-1.16.52-.52.519-.52 1.16 0 .618.52 1.137.508.509 1.116.498.597-.023 1.138-.564.53-.53.541-1.138.011-.608-.497-1.116zm-4.994-2.696q-.453.453-.453 1.028 0 .552.486 1.038.453.453 1.017.464.563.011 1.016-.442.464-.464.453-1.027-.01-.564-.464-1.017-.464-.464-1.038-.464-.586-.01-1.017.42zM438.772 476.359l-.762.762-5.105-5.104-.983 2.11-.696-.696 1.37-3.028.11-.11 6.066 6.066zm1.856-6.364l-2.022 2.022-.618-.62 2.022-2.021.618.619zm7.535-3.028l-.795.796-7.69-1.613 4.652 4.651-.807.807-6.033-6.033.807-.806 7.712 1.635-4.674-4.674.796-.795 6.032 6.032zm-.884-3.69q-.651-.652-.928-1.436-.265-.796-.077-1.536.177-.751.762-1.337.917-.917 2.11-.85 1.205.055 2.266 1.115l.055.056q.652.651.917 1.425.265.773.1 1.536-.177.75-.785 1.359-.906.906-2.11.85-1.205-.077-2.254-1.127l-.056-.055zm.873-.674q.74.74 1.536.85.807.1 1.381-.474.586-.586.475-1.381-.121-.807-.95-1.635-.73-.73-1.536-.83-.806-.12-1.392.465-.563.563-.464 1.37.1.784.95 1.635zm7.005-4.707l-2.331-4.563.784-.784 2.873 6.099-.586.585-6.11-2.861.785-.785 4.585 2.31zm3.149-5.579l-2.022 2.022-.619-.619 2.022-2.022.619.619zm6.651-2.143l-3.955 3.955-.553-.552-.232-4.409q-.066-.994-.21-1.491-.154-.509-.508-.862-.475-.475-1.06-.486-.586-.033-1.072.453-.564.563-.553 1.215 0 .64.586 1.226l-.762.763q-.84-.84-.818-1.878.022-1.061.917-1.956.85-.85 1.779-.895.928-.044 1.668.696.884.884.983 3.26l.133 3.358 3.027-3.027.63.63zm2.21-7.359q1.348 1.348 1.547 2.475.199 1.105-.785 2.088-.961.962-2.066.785-1.105-.177-2.408-1.437l-1.017-1.016q-1.337-1.337-1.525-2.43-.187-1.117.796-2.1.972-.972 2.066-.807 1.083.155 2.398 1.448l.994.994zm-1.823-.276q-.972-.972-1.69-1.138-.719-.188-1.315.409-.586.585-.41 1.315.178.707 1.095 1.624l1.226 1.226q.972.972 1.724 1.171.75.177 1.325-.397.564-.564.398-1.282-.166-.718-1.094-1.668l-1.26-1.26zm8.076-.829l-.762.763-5.104-5.105-.984 2.11-.696-.695 1.37-3.028.11-.11 6.066 6.065zm1.635-10.562q.454.453.564 1.05.11.596-.088 1.193.662-.265 1.337-.144.662.11 1.16.608.773.773.718 1.779-.055.983-.917 1.845-.873.873-1.867.939-.995.044-1.768-.73-.497-.496-.619-1.148-.133-.663.144-1.337-.597.199-1.183.077-.585-.121-1.038-.574-.762-.763-.718-1.69.033-.94.84-1.746.795-.796 1.734-.83.94-.054 1.702.708zm2.188 3.447q-.508-.508-1.138-.497-.64 0-1.16.52-.52.519-.52 1.16 0 .618.52 1.137.508.509 1.116.498.597-.023 1.138-.564.53-.53.541-1.138.011-.608-.497-1.116zm-4.994-2.696q-.453.453-.453 1.028 0 .552.486 1.038.453.453 1.017.464.563.011 1.016-.442.464-.464.453-1.027-.01-.564-.464-1.017-.464-.464-1.038-.464-.586-.01-1.017.42zM482.788 474.944l-.762.763-5.105-5.105-.983 2.11-.696-.695 1.37-3.028.11-.11 6.066 6.065zm1.856-6.364l-2.021 2.022-.62-.618 2.023-2.022.618.618zm2.895 1.614l-6.032-6.033 1.712-1.712q.785-.785 1.735-1.028.95-.265 1.922.044.972.31 1.812 1.15l.376.375q.862.862 1.171 1.834.32.961.044 1.922-.265.95-1.06 1.768l-1.68 1.68zm-4.585-6.177l4.729 4.73.84-.84q.916-.918.861-1.99-.055-1.093-1.116-2.154l-.353-.353q-1.028-1.028-2.077-1.105-1.05-.1-1.956.784l-.928.928zm12.076-1.138q-.917.917-2.088.895-1.171-.044-2.177-1.05l-.132-.132q-.674-.674-.94-1.447-.276-.785-.11-1.525.166-.762.696-1.293.873-.872 1.934-.784 1.06.088 2.132 1.16l.32.32-3.038 3.039q.685.64 1.458.685.785.033 1.36-.542.397-.397.508-.84.121-.452.066-.95l.829-.099q.309 1.436-.818 2.563zm-4.121-3.922q-.464.464-.442 1.127.022.64.563 1.315l2.243-2.243-.055-.055q-.619-.553-1.226-.586-.597-.044-1.083.442zm7.668-.884q.408-.408.475-.96.055-.564-.288-.973l.73-.73q.364.41.464 1.017.1.586-.1 1.204-.188.608-.652 1.072-.917.917-2.066.85-1.149-.088-2.21-1.148l-.132-.133q-.652-.652-.928-1.392-.265-.751-.1-1.47.166-.74.785-1.358.751-.752 1.701-.796.95-.066 1.713.63l-.73.73q-.474-.41-1.049-.388-.574.023-1.005.453-.586.586-.486 1.326.099.74.894 1.536l.144.144q.774.773 1.514.872.74.1 1.326-.486zm2.33-5.756l-2.021 2.022-.619-.619 2.022-2.022.619.619zm6.652-2.143l-3.955 3.955-.553-.552-.232-4.409q-.066-.994-.21-1.491-.154-.509-.508-.862-.475-.475-1.06-.486-.586-.033-1.072.453-.564.563-.553 1.215 0 .64.586 1.226l-.762.763q-.84-.84-.818-1.878.022-1.061.917-1.956.85-.85 1.779-.895.928-.044 1.668.696.884.884.983 3.26l.133 3.358 3.027-3.027.63.63zm2.21-7.359q1.348 1.348 1.547 2.475.198 1.105-.785 2.088-.961.962-2.066.785-1.105-.177-2.409-1.437l-1.016-1.016q-1.337-1.337-1.525-2.43-.188-1.117.796-2.1.972-.972 2.066-.806 1.083.154 2.397 1.447l.995.994zm-1.823-.276q-.973-.972-1.69-1.138-.719-.188-1.315.409-.586.585-.41 1.315.178.707 1.095 1.624l1.226 1.226q.972.972 1.724 1.171.75.177 1.325-.397.564-.564.398-1.282-.166-.718-1.094-1.668l-1.26-1.26zm8.076-.829l-.762.763-5.105-5.105-.983 2.11-.696-.695 1.37-3.028.11-.11 6.066 6.065zm1.635-10.562q.453.453.564 1.05.11.596-.088 1.193.662-.265 1.336-.144.663.11 1.16.608.774.773.719 1.779-.056.983-.917 1.845-.873.873-1.868.939-.994.044-1.767-.73-.498-.496-.62-1.148-.132-.663.145-1.337-.597.199-1.183.077-.585-.121-1.038-.574-.763-.763-.718-1.69.033-.94.84-1.746.795-.796 1.734-.83.94-.054 1.701.708zm2.188 3.447q-.508-.508-1.138-.497-.64 0-1.16.52-.52.519-.52 1.16 0 .618.52 1.137.508.509 1.116.498.596-.023 1.138-.564.53-.53.541-1.138.011-.608-.497-1.116zm-4.994-2.696q-.453.453-.453 1.028 0 .552.486 1.038.453.453 1.017.464.563.011 1.016-.441.464-.465.453-1.028-.01-.564-.464-1.017-.464-.464-1.038-.464-.586-.01-1.017.42zM524.683 475.652l-.762.762-5.105-5.105-.983 2.11-.696-.695 1.37-3.028.11-.11 6.066 6.066zm1.856-6.364l-2.022 2.021-.618-.618 2.021-2.022.62.619zm-.607-6.95l.806-.807 4.276 4.276q.862.862.828 1.89-.033 1.005-.894 1.867-.895.895-1.868.939-.96.033-1.79-.796l.796-.795q.52.52 1.094.541.574 0 1.116-.541.497-.497.486-1.105-.011-.63-.564-1.182l-4.286-4.287zm11.103.961q-.199-.066-.585-.364.033 1.093-.707 1.834-.663.663-1.47.718-.795.044-1.38-.542-.697-.696-.553-1.613.143-.917 1.116-1.889l.74-.74-.354-.354q-.398-.397-.872-.386-.476-.011-.95.464-.41.408-.476.895-.077.475.221.773l-.773.773q-.343-.342-.42-.883-.066-.553.166-1.139.22-.596.707-1.082.784-.785 1.602-.829.828-.055 1.524.597l2.067 2.066q.618.619 1.138.828l.066.067-.807.806zm-1.856.685q.365-.364.497-.873.133-.508-.022-.95l-.917-.917-.596.597q-1.415 1.414-.586 2.243.354.353.807.32.442-.044.817-.42zm.276-8.076l.586.541q-.122-1.16.707-1.989 1.425-1.425 3.038.166l2.961 2.961-.773.774-2.972-2.972q-.475-.476-.928-.487-.442-.022-.906.442-.376.376-.464.862-.077.475.088.95l3.193 3.193-.762.763-4.486-4.486.718-.718zm8.055-3.591l-2.022 2.022-.619-.619 2.022-2.022.619.619zm6.651-2.143l-3.955 3.955-.553-.552-.232-4.409q-.066-.994-.21-1.491-.154-.509-.508-.862-.475-.475-1.06-.486-.586-.033-1.072.453-.564.563-.553 1.215 0 .64.586 1.226l-.763.763q-.84-.84-.817-1.878.022-1.061.917-1.956.85-.85 1.779-.895.928-.044 1.668.696.884.884.983 3.26l.133 3.358 3.027-3.027.63.63zm2.21-7.359q1.348 1.348 1.547 2.475.198 1.105-.785 2.088-.961.962-2.066.785-1.105-.177-2.409-1.437l-1.016-1.016q-1.337-1.337-1.525-2.43-.188-1.117.796-2.1.972-.972 2.066-.806 1.082.154 2.397 1.447l.995.994zm-1.823-.276q-.973-.972-1.69-1.138-.719-.188-1.315.409-.586.585-.41 1.315.178.707 1.094 1.624l1.227 1.226q.972.972 1.723 1.171.752.177 1.326-.397.564-.564.398-1.282-.166-.718-1.094-1.668l-1.26-1.26zm8.076-.829l-.762.763-5.105-5.105-.983 2.11-.696-.695 1.37-3.028.11-.11 6.066 6.065zm2.718-8.02q.055.518-.11 1.038-.166.497-.564.895-.52.519-1.16.652-.64.132-1.315-.122-.685-.265-1.248-.829-.597-.596-.862-1.303-.254-.719-.088-1.393.165-.696.729-1.259.895-.895 2.077-.73 1.193.155 2.342 1.304l.221.221q1.768 1.768 1.878 3.27.111 1.503-1.27 2.929l-.155.154-.64-.64.165-.166q.928-.972.961-1.956.034-.983-.96-2.066zm-1.182 1.181q.387-.386.475-.939.088-.574-.1-1.071l-.309-.31q-.751-.751-1.558-.895-.806-.143-1.303.354-.509.508-.431 1.204.088.685.729 1.326.619.619 1.304.73.696.099 1.193-.399zM567.992 474.944l-.762.763-5.105-5.105-.983 2.11-.696-.695 1.37-3.028.11-.11 6.066 6.065zm1.856-6.364l-2.022 2.022-.618-.618 2.022-2.022.618.618zm3.569-4.386l-2.541 2.541 2.662 2.663-.795.796-6.033-6.033 3.746-3.745.652.651-2.95 2.95 2.066 2.067 2.541-2.542.652.652zm6.11-.607q-.917.917-2.088.894-1.172-.044-2.177-1.05l-.133-.132q-.673-.674-.939-1.447-.276-.785-.11-1.525.166-.762.696-1.292.873-.873 1.933-.785 1.061.088 2.133 1.16l.32.32-3.038 3.039q.685.64 1.458.685.785.033 1.36-.541.397-.398.507-.84.122-.453.067-.95l.828-.1q.31 1.437-.817 2.564zm-4.121-3.923q-.464.464-.442 1.127.022.641.563 1.315l2.243-2.243-.055-.055q-.619-.553-1.227-.586-.596-.044-1.082.442zm8.02-4.53q1.028 1.028 1.183 2.133.155 1.083-.64 1.878-.851.85-1.923.707l.475.564-.696.696-6.364-6.364.762-.763 2.376 2.376q-.11-1.039.707-1.856.817-.818 1.9-.663 1.072.143 2.155 1.226l.066.066zm-.85.674q-.784-.784-1.514-.895-.729-.132-1.292.431-.762.763-.398 1.79l1.945 1.945q1.06.353 1.8-.387.553-.552.431-1.293-.121-.74-.972-1.59zm3.536-3.491l-2.022 2.022-.619-.619 2.022-2.022.619.619zm6.65-2.143l-3.954 3.955-.553-.552-.232-4.409q-.066-.994-.21-1.491-.154-.509-.508-.862-.475-.475-1.06-.486-.586-.033-1.072.453-.564.563-.553 1.215 0 .64.586 1.226l-.763.763q-.84-.84-.817-1.878.022-1.061.917-1.956.85-.85 1.779-.895.928-.044 1.668.696.884.884.983 3.26l.133 3.358 3.027-3.027.63.63zm2.21-7.359q1.349 1.348 1.547 2.475.2 1.105-.784 2.088-.961.962-2.066.785-1.105-.177-2.409-1.437l-1.016-1.016q-1.337-1.337-1.525-2.43-.188-1.117.796-2.1.972-.972 2.066-.806 1.082.154 2.397 1.447l.995.994zm-1.822-.276q-.973-.972-1.69-1.138-.719-.188-1.316.409-.585.585-.408 1.315.176.707 1.093 1.624l1.227 1.226q.972.972 1.723 1.171.752.177 1.326-.397.564-.564.398-1.282-.166-.718-1.094-1.668l-1.26-1.26zm8.076-.829l-.762.763-5.105-5.105-.983 2.11-.696-.695 1.37-3.028.11-.11 6.066 6.065zm2.718-8.02q.055.518-.11 1.038-.166.497-.564.895-.52.519-1.16.652-.64.132-1.315-.122-.685-.265-1.248-.829-.597-.596-.862-1.303-.254-.719-.088-1.393.165-.696.729-1.259.895-.895 2.077-.73 1.193.155 2.342 1.304l.221.221q1.768 1.768 1.878 3.27.11 1.503-1.27 2.929l-.155.154-.64-.64.165-.166q.928-.972.961-1.956.033-.983-.961-2.066zm-1.182 1.181q.387-.386.475-.939.088-.574-.1-1.071l-.309-.31q-.751-.751-1.558-.895-.806-.143-1.303.354-.509.508-.431 1.204.088.685.729 1.326.619.619 1.304.73.696.099 1.193-.399zM609.887 475.652l-.762.762-5.105-5.105-.983 2.11-.696-.695 1.37-3.028.11-.11 6.066 6.066zm1.856-6.364l-2.022 2.021-.619-.618 2.022-2.022.619.619zm-2.11-5.447l6.894 2.939-2.95-6.884 1.039-1.038 6.032 6.032-.795.796-2.354-2.354-2.452-2.607 2.894 6.872-.607.608-6.85-2.895 2.596 2.442 2.353 2.353-.795.796-6.033-6.033 1.028-1.027zm14.727-2.663q-.198-.066-.585-.365.033 1.094-.707 1.834-.663.663-1.47.719-.795.044-1.38-.542-.697-.696-.553-1.613.144-.917 1.116-1.89l.74-.74-.353-.353q-.398-.398-.873-.387-.476-.01-.95.464-.41.41-.476.895-.077.475.221.774l-.773.773q-.343-.342-.42-.884-.066-.552.166-1.138.22-.596.707-1.083.784-.784 1.602-.828.829-.055 1.525.596l2.066 2.066q.619.62 1.138.83l.066.065-.807.807zm-1.856.685q.365-.365.497-.873.133-.508-.022-.95l-.917-.917-.596.597q-1.414 1.414-.586 2.242.354.354.807.32.442-.043.817-.419zm2.409-8.839q-.199.155-.398.354-.762.762-.386 1.668l3.182 3.182-.763.762-4.486-4.485.74-.74.531.508q-.221-.973.475-1.669.221-.22.398-.287l.707.707zm3.8-.707l-2.021 2.022-.619-.619 2.022-2.022.619.619zm6.652-2.143l-3.956 3.955-.552-.552-.232-4.409q-.066-.994-.21-1.491-.155-.509-.508-.862-.475-.475-1.06-.486-.586-.033-1.072.453-.564.563-.553 1.215 0 .64.586 1.226l-.763.763q-.84-.84-.817-1.878.022-1.061.917-1.956.85-.85 1.779-.895.928-.044 1.668.696.884.884.983 3.26l.133 3.358 3.027-3.027.63.63zm2.21-7.359q1.347 1.348 1.546 2.475.2 1.105-.784 2.088-.961.962-2.066.785-1.105-.177-2.409-1.437l-1.016-1.016q-1.337-1.337-1.525-2.43-.188-1.117.796-2.1.972-.972 2.066-.806 1.082.154 2.397 1.447l.994.994zm-1.824-.276q-.972-.972-1.69-1.138-.718-.188-1.315.409-.585.585-.409 1.315.177.707 1.094 1.624l1.227 1.226q.972.972 1.723 1.171.752.177 1.326-.397.564-.564.398-1.282-.166-.718-1.094-1.668l-1.26-1.26zm8.077-.829l-.762.763-5.105-5.105-.983 2.11-.696-.695 1.37-3.028.11-.11 6.066 6.065zm2.718-8.02q.055.518-.11 1.038-.166.497-.564.895-.52.519-1.16.652-.64.132-1.315-.122-.685-.265-1.248-.829-.597-.596-.862-1.303-.254-.719-.089-1.393.166-.696.73-1.259.895-.895 2.077-.73 1.193.155 2.342 1.304l.221.221q1.768 1.768 1.878 3.27.11 1.503-1.27 2.929l-.155.154-.64-.64.165-.166q.928-.972.961-1.956.033-.983-.961-2.066zm-1.182 1.181q.386-.386.475-.939.088-.574-.1-1.071l-.309-.31q-.751-.751-1.558-.895-.806-.143-1.303.354-.509.508-.431 1.204.088.685.729 1.326.619.619 1.304.73.696.099 1.193-.399zM653.903 474.237l-.762.763-5.105-5.105-.983 2.11-.696-.696 1.37-3.027.11-.11 6.066 6.065zm1.856-6.364l-2.022 2.022-.618-.618 2.021-2.022.62.618zm4.652-3.303l-2.53 2.53 1.016 2.143-.818.818-3.734-8.33.696-.697 8.342 3.724-.818.817-2.154-1.005zm-2.94 1.635l2.056-2.055-3.845-1.79 1.79 3.845zm8.32-8.231q1.017 1.016 1.182 2.11.166 1.094-.64 1.9-.818.818-1.801.763l2.154 2.154-.762.763-6.21-6.21.697-.696.53.464q-.1-1.05.73-1.878.806-.806 1.877-.663 1.083.133 2.166 1.216l.077.077zm-.85.674q-.763-.763-1.525-.862-.763-.122-1.326.442-.696.696-.43 1.646l2.143 2.144q.96.276 1.668-.431.552-.553.442-1.304-.11-.773-.972-1.635zm2.574-5.624q-.199.155-.398.354-.762.762-.387 1.668l3.182 3.182-.762.762-4.486-4.485.74-.74.53.508q-.22-.973.476-1.669.221-.22.398-.287l.707.707zm3.8-.707l-2.021 2.022-.62-.619 2.023-2.022.619.619zm6.652-2.143l-3.956 3.955-.552-.552-.232-4.409q-.066-.994-.21-1.491-.155-.509-.508-.862-.475-.475-1.06-.486-.586-.033-1.073.453-.563.563-.552 1.215 0 .64.586 1.226l-.763.763q-.84-.84-.817-1.878.022-1.061.917-1.956.85-.85 1.778-.895.929-.044 1.669.696.884.884.983 3.26l.133 3.358 3.027-3.027.63.63zm2.21-7.359q1.347 1.348 1.546 2.475.2 1.105-.784 2.088-.961.962-2.066.785-1.105-.177-2.409-1.437l-1.016-1.016q-1.337-1.337-1.525-2.43-.188-1.117.795-2.1.973-.972 2.067-.806 1.082.154 2.397 1.447l.994.994zm-1.824-.276q-.972-.972-1.69-1.138-.718-.188-1.315.409-.585.585-.409 1.315.177.707 1.094 1.624l1.227 1.226q.972.972 1.723 1.171.752.177 1.326-.397.564-.564.398-1.282-.166-.718-1.094-1.668l-1.26-1.26zm8.077-.829l-.762.763-5.105-5.105-.983 2.11-.696-.695 1.37-3.028.11-.11 6.066 6.065zm2.718-8.02q.055.518-.11 1.038-.166.497-.564.895-.52.519-1.16.652-.641.132-1.315-.122-.685-.265-1.248-.829-.597-.596-.862-1.303-.254-.719-.089-1.393.166-.696.73-1.259.895-.895 2.077-.73 1.193.155 2.342 1.304l.221.221q1.768 1.768 1.878 3.27.11 1.503-1.27 2.929l-.155.154-.64-.64.165-.166q.928-.972.961-1.956.033-.983-.961-2.066zm-1.182 1.181q.386-.386.475-.939.088-.574-.1-1.071l-.309-.31q-.751-.751-1.558-.895-.806-.143-1.304.354-.508.508-.43 1.204.088.685.729 1.326.618.619 1.303.73.696.099 1.194-.399z"/><path stroke="#36c" stroke-width="4" stroke-linecap="butt" d="M731.9 97.833h12"/><path fill="#757575" d="M755.681 97.068l2.031-3.266h1.329l-2.688 4.234 2.75 4.297h-1.328l-2.094-3.328-2.11 3.328h-1.343l2.766-4.297-2.688-4.234h1.313l2.062 3.266zm11.516 4.14q-.438.625-1.219.938-.781.312-1.812.312-1.032 0-1.844-.484-.813-.5-1.25-1.406-.438-.907-.453-2.094v-.734q0-1.938.89-3 .907-1.063 2.532-1.063 1.343 0 2.156.688.812.687 1 1.937h-1.125q-.328-1.687-2.016-1.687-1.14 0-1.719.796-.578.782-.593 2.297v.688q0 1.437.656 2.297.656.843 1.781.843.625 0 1.094-.14.484-.14.797-.485v-1.906h-1.969v-.922h3.094v3.125zm6.922-6.797l-3.532 7.922h-1.14l3.515-7.64h-4.609v-.89h5.766v.608zm4.281 4.125q-1.438-.421-2.11-1.03-.656-.61-.656-1.5 0-1 .797-1.657.813-.672 2.11-.672.875 0 1.562.344.688.344 1.063.937.39.594.39 1.313h-1.14q0-.781-.5-1.219-.485-.437-1.375-.437-.829 0-1.297.375-.469.359-.469 1 0 .53.438.89.453.36 1.515.656 1.063.297 1.656.657.61.36.891.843.297.485.297 1.125 0 1.047-.813 1.672-.812.625-2.156.625-.89 0-1.656-.343-.75-.344-1.172-.922-.406-.594-.406-1.328h1.125q0 .765.578 1.218.578.453 1.531.453.89 0 1.36-.359.468-.375.468-1t-.437-.969q-.438-.343-1.594-.672z"/><path stroke="#dc3912" stroke-width="4" stroke-linecap="butt" d="M731.9 122.833h12"/><path fill="#757575" d="M754.103 127.333h-1.125v-8.53h1.125v8.53zm3.625-2.687l.172 1.125.234-1.016 1.688-5.953h.953l1.64 5.953.235 1.031.188-1.156 1.328-5.828h1.125l-2.063 8.531h-1.031l-1.766-6.218-.125-.657-.14.657-1.813 6.218h-1.031l-2.063-8.53h1.125l1.344 5.843zm9.156 2.687v-8.53h2.422q1.11 0 1.953.5.86.483 1.328 1.39.47.906.47 2.093v.532q0 1.218-.47 2.125-.453.906-1.328 1.39-.859.485-2 .5h-2.375zm1.125-7.609v6.687h1.188q1.297 0 2.015-.796.735-.813.735-2.313v-.5q0-1.453-.688-2.25-.672-.812-1.937-.828h-1.313zm11.594 5.375h-3.578l-.797 2.234h-1.156l3.25-8.53h.984l3.266 8.53h-1.156l-.813-2.234zm-3.234-.922h2.906l-1.453-3.984-1.453 3.984z"/><path stroke="#f90" stroke-width="4" stroke-linecap="butt" d="M731.9 147.833h12"/><path fill="#757575" d="M754.103 152.333h-1.125v-8.53h1.125v8.53zm7.797-8.53v5.796q-.016 1.203-.766 1.984-.75.766-2.03.86l-.313.015q-1.391 0-2.235-.75-.828-.765-.828-2.093v-5.813h1.11v5.781q0 .922.5 1.438.515.515 1.453.515.968 0 1.468-.515.5-.516.5-1.438v-5.78h1.141zm4.5 4.733q-1.438-.421-2.11-1.03-.656-.61-.656-1.5 0-1 .797-1.657.813-.672 2.11-.672.875 0 1.562.344.688.344 1.063.937.39.594.39 1.313h-1.14q0-.781-.5-1.219-.485-.437-1.375-.437-.829 0-1.297.375-.469.359-.469 1 0 .53.438.89.453.36 1.515.656 1.063.297 1.656.657.61.36.891.843.297.485.297 1.125 0 1.047-.813 1.672-.812.625-2.156.625-.89 0-1.656-.343-.75-.344-1.172-.922-.406-.594-.406-1.328h1.125q0 .765.578 1.218.578.453 1.531.453.89 0 1.36-.359.468-.375.468-1t-.437-.969q-.438-.343-1.594-.672zm11.047 3.797h-1.125l-4.297-6.578v6.578h-1.14v-8.53h1.14l4.297 6.608v-6.609h1.125v8.531z"/><path stroke="#109618" stroke-width="4" stroke-linecap="butt" d="M731.9 172.833h12"/><path fill="#757575" d="M755.681 172.068l2.031-3.266h1.329l-2.688 4.234 2.75 4.297h-1.328l-2.094-3.328-2.11 3.328h-1.343l2.766-4.297-2.688-4.234h1.313l2.062 3.266zm6.656-3.266l2.797 6.953 2.782-6.953h1.468v8.531h-1.125v-3.328l.11-3.578-2.813 6.906h-.86l-2.796-6.89.11 3.562v3.328h-1.126v-8.53h1.453zm10 0l2.797 6.953 2.782-6.953h1.468v8.531h-1.125v-3.328l.11-3.578-2.813 6.906h-.86l-2.796-6.89.11 3.562v3.328h-1.126v-8.53h1.453zm13.375 4.594h-3.703v3.015h4.297v.922h-5.422v-8.53h5.375v.921h-4.25v2.75h3.703v.922z"/><path stroke="#909" stroke-width="4" stroke-linecap="butt" d="M731.9 197.833h12"/><path fill="#757575" d="M757.712 198.396h-3.703v3.015h4.297v.922h-5.422v-8.53h5.375v.921h-4.25v2.75h3.703v.922zm3.297.594v3.343h-1.125v-8.53h3.157q1.39 0 2.187.718.797.703.797 1.89 0 1.235-.781 1.907-.766.672-2.219.672h-2.016zm0-.922h2.032q.906 0 1.375-.422.484-.422.484-1.219 0-.766-.484-1.219-.47-.468-1.313-.484h-2.094v3.344zm10.016.812h-2.016v3.453h-1.125v-8.53h2.828q1.438 0 2.204.655.78.657.78 1.907 0 .796-.437 1.39-.422.594-1.187.89l2 3.61v.078h-1.203l-1.844-3.453zm-2.016-.922h1.735q.843 0 1.328-.422.5-.437.5-1.171 0-.782-.469-1.204-.469-.421-1.36-.437h-1.734v3.234zm10.594 2.141h-3.578l-.797 2.234h-1.156l3.25-8.53h.984l3.266 8.53h-1.156l-.813-2.234zm-3.234-.922h2.906l-1.453-3.984-1.453 3.984z"/><path fill="#bdbdbd" d="M29.194 65.162q-1.688-.484-2.469-1.187-.766-.719-.766-1.75 0-1.172.938-1.938.937-.78 2.453-.78 1.016 0 1.813.406.812.39 1.25 1.093.453.688.453 1.516h-1.328q0-.906-.579-1.422-.562-.516-1.609-.516-.969 0-1.516.438-.546.422-.546 1.187 0 .61.515 1.032.516.406 1.75.765 1.25.344 1.953.766.703.422 1.032.984.343.563.343 1.313 0 1.218-.953 1.953-.937.719-2.515.719-1.032 0-1.922-.391-.875-.406-1.36-1.078-.484-.688-.484-1.563h1.312q0 .907.672 1.438.672.515 1.782.515 1.046 0 1.593-.421.547-.422.547-1.157 0-.734-.515-1.125-.5-.406-1.844-.797zm6.234 4.438h-1.265v-7.39h1.265v7.39zm-1.36-9.36q0-.312.188-.515.188-.219.547-.219.375 0 .563.219.203.203.203.516 0 .312-.203.515-.188.203-.563.203-.36 0-.547-.203-.187-.203-.187-.515zm4.188 1.97l.032.921q.859-1.062 2.218-1.062 2.344 0 2.375 2.64V69.6h-1.265v-4.89q-.016-.797-.375-1.172-.36-.391-1.11-.391-.625 0-1.093.328-.454.328-.72.86V69.6h-1.265v-7.39h1.203zm9.766 6.5q.672 0 1.172-.407.515-.422.578-1.031h1.187q-.03.625-.437 1.203-.406.578-1.078.922-.672.344-1.422.344-1.516 0-2.406-1-.891-1.016-.891-2.766v-.219q0-1.078.39-1.922.407-.843 1.141-1.297.75-.468 1.766-.468 1.234 0 2.062.75.828.734.875 1.922h-1.187q-.063-.72-.547-1.172-.484-.469-1.203-.469-.969 0-1.5.703-.531.688-.531 2v.234q0 1.282.53 1.985.532.687 1.5.687zm7.11 1.03q-1.516 0-2.454-.984-.937-1-.937-2.656v-.219q0-1.11.422-1.968.421-.875 1.171-1.36.75-.484 1.641-.484 1.438 0 2.234.953.797.937.797 2.719v.515h-5q.016 1.094.625 1.781.625.672 1.563.672.672 0 1.125-.265.468-.282.828-.735l.766.594q-.922 1.438-2.782 1.438zm-.157-6.64q-.766 0-1.297.563-.515.562-.64 1.562h3.703v-.094q-.047-.969-.516-1.5-.469-.531-1.25-.531zm12.766 2.11h-4.172v4.39h-1.313v-9.953h6.172v1.078h-4.86v3.406h4.173v1.078zm5.39 4.53q-1.515 0-2.453-.984-.937-1-.937-2.656v-.219q0-1.11.421-1.968.422-.875 1.172-1.36.75-.484 1.641-.484 1.438 0 2.234.953.797.937.797 2.719v.515h-5q.016 1.094.625 1.781.625.672 1.563.672.672 0 1.125-.265.468-.282.828-.735l.765.594q-.921 1.438-2.78 1.438zm-.156-6.64q-.766 0-1.297.563-.516.562-.64 1.562h3.703v-.094q-.047-.969-.516-1.5-.469-.531-1.25-.531zm10.344 2.89q0 1.688-.782 2.72-.78 1.03-2.093 1.03-1.39 0-2.157-1l-.062.86h-1.172V59.1h1.266v3.922q.765-.953 2.11-.953 1.358 0 2.124 1.015.766 1.016.766 2.797v.11zm-1.266-.156q0-1.28-.5-1.984-.5-.703-1.437-.703-1.25 0-1.797 1.156v3.203q.578 1.156 1.812 1.156.906 0 1.406-.703.516-.703.516-2.125zM92.084 69.6H90.82v-8.422l-2.563.922v-1.14l3.625-1.36h.203v10zm8.282-1.969q0-.5-.391-.781-.39-.297-1.344-.5-.953-.203-1.531-.484-.563-.297-.828-.688-.266-.39-.266-.937 0-.922.766-1.547.765-.625 1.969-.625 1.25 0 2.03.656.782.64.782 1.656h-1.266q0-.531-.437-.906-.438-.375-1.11-.375-.687 0-1.078.313-.39.296-.39.78 0 .454.36.688.359.235 1.296.453.953.203 1.547.5t.875.72q.281.405.281 1 0 .983-.797 1.593-.797.594-2.062.594-.875 0-1.563-.313-.687-.328-1.078-.89-.375-.563-.375-1.22h1.266q.031.641.5 1.016.484.375 1.25.375.719 0 1.156-.297.438-.296.438-.78zm4.406-7.218v1.796h1.375v.97h-1.375v4.593q0 .437.187.672.188.218.625.218.22 0 .61-.093V69.6q-.5.14-.969.14-.86 0-1.297-.515-.422-.516-.422-1.453v-4.594h-1.344v-.969h1.344v-1.797h1.266zm12.672 9.187h-6.516v-.906l3.438-3.828q.765-.875 1.062-1.407.297-.547.297-1.14 0-.766-.484-1.266-.47-.5-1.25-.5-.938 0-1.47.531-.515.532-.515 1.5h-1.265q0-1.375.875-2.218.89-.86 2.375-.86 1.39 0 2.187.735.813.718.813 1.937 0 1.469-1.875 3.5l-2.657 2.89h4.985V69.6zm7.718-4.25q0 2.219-.765 3.313-.75 1.078-2.36 1.078-1.593 0-2.359-1.047-.766-1.063-.797-3.172v-1.688q0-2.187.75-3.25.766-1.078 2.39-1.078 1.61 0 2.36 1.032.766 1.03.781 3.171v1.641zm-1.265-1.719q0-1.61-.453-2.343-.438-.735-1.422-.735-.969 0-1.422.735-.438.718-.453 2.234v2.031q0 1.61.469 2.39.468.766 1.421.766.938 0 1.391-.718.453-.735.469-2.297V63.63zm7.187 5.969h-1.265v-8.422l-2.563.922v-1.14l3.625-1.36h.203v10zm9.875-7.36q0 .75-.39 1.329-.39.578-1.063.906.781.344 1.235.984.453.641.453 1.453 0 1.297-.875 2.063-.86.766-2.281.766-1.438 0-2.313-.766-.86-.781-.86-2.063 0-.812.438-1.453.438-.656 1.219-.984-.656-.328-1.047-.906-.375-.594-.375-1.328 0-1.25.797-1.985.812-.75 2.14-.75 1.313 0 2.11.75.812.735.812 1.985zm-1.03 4.641q0-.828-.532-1.344-.531-.53-1.39-.53-.845 0-1.36.515-.516.515-.516 1.375 0 .844.5 1.328.5.484 1.406.484.875 0 1.375-.484.516-.5.516-1.344zm-1.892-6.328q-.75 0-1.218.469-.453.453-.453 1.25 0 .75.453 1.219.453.468 1.203.468.766 0 1.219-.468.453-.47.453-1.22 0-.765-.469-1.233-.469-.485-1.188-.485z"/><path fill="#757575" d="M28.631 38.538V44.1h-1.875V29.881h5.235q2.343 0 3.656 1.188 1.328 1.187 1.328 3.156 0 2.078-1.297 3.203-1.297 1.11-3.703 1.11h-3.344zm0-1.532h3.36q1.515 0 2.312-.703.797-.719.797-2.062 0-1.266-.797-2.016-.797-.766-2.203-.797h-3.469v5.578zm15.219 7.297q-2.14 0-3.5-1.406-1.344-1.422-1.344-3.781v-.344q0-1.563.594-2.797.61-1.234 1.688-1.938 1.078-.703 2.343-.703 2.063 0 3.203 1.36 1.141 1.36 1.141 3.89v.75h-7.156q.031 1.563.906 2.532.875.953 2.219.953.968 0 1.625-.39.672-.392 1.172-1.032l1.093.86q-1.328 2.046-3.984 2.046zm-.219-9.484q-1.093 0-1.843.797-.735.797-.907 2.234h5.282v-.14q-.079-1.376-.75-2.126-.657-.765-1.782-.765zm11.938.328q-.407-.063-.875-.063-1.782 0-2.422 1.516v7.5h-1.797V33.537h1.75l.031 1.22q.89-1.423 2.516-1.423.531 0 .797.141v1.672zM58.35 44.1v-9.172h-1.656v-1.39h1.656v-1.094q0-1.688.906-2.61.922-.937 2.578-.937.625 0 1.235.156l-.094 1.469q-.453-.078-.969-.078-.89 0-1.375.515-.468.5-.468 1.454v1.125h2.25v1.39h-2.25V44.1H58.35zm5.64-5.375q0-1.563.61-2.797.61-1.25 1.688-1.922 1.093-.672 2.5-.672 2.156 0 3.484 1.5 1.344 1.485 1.344 3.97v.124q0 1.547-.594 2.781-.594 1.22-1.703 1.907-1.094.687-2.516.687-2.14 0-3.484-1.5-1.328-1.5-1.328-3.953v-.125zm1.813.203q0 1.766.813 2.828.828 1.063 2.187 1.063 1.375 0 2.188-1.078.812-1.078.812-3.016 0-1.75-.828-2.828-.828-1.078-2.188-1.078-1.343 0-2.171 1.062-.813 1.063-.813 3.047zm14.766-3.781q-.407-.063-.875-.063-1.782 0-2.422 1.516v7.5h-1.797V33.537h1.75l.031 1.22q.89-1.423 2.516-1.423.531 0 .797.141v1.672zm3.593-1.61l.047 1.172q1.172-1.375 3.141-1.375 2.219 0 3.016 1.703.53-.765 1.375-1.234.843-.469 2-.469 3.468 0 3.53 3.688V44.1H95.46v-6.969q0-1.14-.515-1.703-.516-.562-1.735-.562-1 0-1.672.609-.656.594-.765 1.61V44.1h-1.813v-6.922q0-2.312-2.265-2.312-1.782 0-2.422 1.515V44.1h-1.813V33.537h1.703zM106.992 44.1q-.157-.313-.25-1.11-1.266 1.313-3.016 1.313-1.563 0-2.563-.89-1-.891-1-2.25 0-1.641 1.25-2.547 1.266-.922 3.532-.922h1.765v-.828q0-.953-.578-1.516-.562-.563-1.656-.563-.969 0-1.625.5-.656.485-.656 1.172h-1.813q0-.78.563-1.515.562-.75 1.515-1.172.97-.438 2.125-.438 1.828 0 2.86.922 1.031.907 1.078 2.516v4.86q0 1.452.36 2.312v.156h-1.891zm-3-1.375q.859 0 1.609-.438.766-.437 1.11-1.14v-2.172h-1.422q-3.313 0-3.313 1.938 0 .859.563 1.343.562.469 1.453.469zm9.187-9.188l.063 1.329q1.203-1.532 3.156-1.532 3.36 0 3.375 3.782V44.1h-1.797v-7q-.016-1.14-.531-1.688-.5-.546-1.594-.546-.875 0-1.547.468-.656.47-1.031 1.235V44.1h-1.797V33.537h1.703zm13.531 9.282q.97 0 1.688-.578.719-.594.797-1.47h1.719q-.063.907-.641 1.735-.563.813-1.531 1.313-.954.484-2.032.484-2.156 0-3.437-1.437-1.266-1.453-1.266-3.953v-.297q0-1.547.563-2.75.562-1.203 1.625-1.86 1.062-.672 2.5-.672 1.781 0 2.953 1.063 1.187 1.062 1.266 2.766h-1.72q-.077-1.016-.78-1.672-.688-.672-1.72-.672-1.374 0-2.14 1-.75.984-.75 2.86v.343q0 1.828.75 2.812.75.985 2.156.985zm10.141 1.484q-2.14 0-3.5-1.406-1.344-1.422-1.344-3.781v-.344q0-1.563.594-2.797.61-1.234 1.688-1.938 1.078-.703 2.343-.703 2.063 0 3.203 1.36 1.141 1.36 1.141 3.89v.75h-7.156q.031 1.563.906 2.532.875.953 2.219.953.969 0 1.625-.39.672-.392 1.172-1.032l1.093.86q-1.328 2.046-3.984 2.046zm-.219-9.484q-1.094 0-1.844.797-.734.797-.906 2.234h5.281v-.14q-.078-1.376-.75-2.126-.656-.765-1.78-.765zm20.766 4.11q0 2.421-1.11 3.905-1.093 1.47-2.984 1.47-1.922 0-3.031-1.235v5.093h-1.797V33.538h1.64l.094 1.171q1.094-1.375 3.063-1.375 1.906 0 3.016 1.438 1.109 1.437 1.109 4v.156zm-1.813-.204q0-1.781-.765-2.813-.75-1.046-2.078-1.046-1.641 0-2.47 1.453v5.062q.813 1.438 2.485 1.438 1.297 0 2.063-1.032.765-1.03.765-3.062zm8.266 5.578q-2.14 0-3.5-1.406-1.344-1.422-1.344-3.781v-.344q0-1.563.594-2.797.61-1.234 1.688-1.938 1.078-.703 2.343-.703 2.063 0 3.203 1.36 1.141 1.36 1.141 3.89v.75h-7.156q.031 1.563.906 2.532.875.953 2.219.953.969 0 1.625-.39.672-.392 1.172-1.032l1.093.86q-1.328 2.046-3.984 2.046zm-.219-9.484q-1.094 0-1.844.797-.734.797-.906 2.234h5.281v-.14q-.078-1.376-.75-2.126-.656-.765-1.78-.765zm11.938.328q-.406-.063-.875-.063-1.781 0-2.422 1.516v7.5h-1.797V33.537h1.75l.031 1.22q.89-1.423 2.516-1.423.531 0 .797.141v1.672zM188.99 44.1q-.157-.313-.25-1.11-1.266 1.313-3.016 1.313-1.563 0-2.563-.89-1-.891-1-2.25 0-1.641 1.25-2.547 1.266-.922 3.532-.922h1.765v-.828q0-.953-.578-1.516-.562-.563-1.656-.563-.969 0-1.625.5-.656.485-.656 1.172h-1.813q0-.78.563-1.515.562-.75 1.515-1.172.97-.438 2.125-.438 1.828 0 2.86.922 1.031.907 1.078 2.516v4.86q0 1.452.36 2.312v.156h-1.891zm-3-1.375q.859 0 1.609-.438.766-.437 1.11-1.14v-2.172h-1.423q-3.312 0-3.312 1.938 0 .859.563 1.343.562.469 1.453.469zm13.625-1.422q0-.734-.547-1.14-.547-.407-1.922-.704t-2.188-.703q-.797-.406-1.187-.968-.375-.579-.375-1.36 0-1.297 1.094-2.187 1.093-.907 2.812-.907 1.797 0 2.906.938 1.125.922 1.125 2.36h-1.828q0-.735-.625-1.266-.625-.547-1.578-.547-1 0-1.562.437-.547.422-.547 1.125 0 .64.515.985.516.328 1.875.64 1.36.297 2.188.719.844.406 1.25 1t.406 1.438q0 1.421-1.14 2.28-1.126.86-2.938.86-1.266 0-2.25-.453-.969-.453-1.531-1.25-.547-.813-.547-1.75h1.812q.047.906.72 1.438.687.53 1.796.53 1.031 0 1.64-.405.626-.422.626-1.11zm10 0q0-.734-.547-1.14-.547-.407-1.922-.704t-2.188-.703q-.797-.406-1.187-.968-.375-.579-.375-1.36 0-1.297 1.094-2.187 1.093-.907 2.812-.907 1.797 0 2.906.938 1.125.922 1.125 2.36h-1.828q0-.735-.625-1.266-.625-.547-1.578-.547-1 0-1.562.437-.547.422-.547 1.125 0 .64.515.985.516.328 1.875.64 1.36.297 2.188.719.844.406 1.25 1t.406 1.438q0 1.421-1.14 2.28-1.126.86-2.938.86-1.266 0-2.25-.453-.969-.453-1.531-1.25-.547-.813-.547-1.75h1.812q.047.906.72 1.438.687.53 1.796.53 1.031 0 1.64-.405.626-.422.626-1.11zm8.234 3q-2.14 0-3.5-1.406-1.344-1.422-1.344-3.781v-.344q0-1.563.594-2.797.61-1.234 1.688-1.938 1.078-.703 2.343-.703 2.063 0 3.203 1.36 1.141 1.36 1.141 3.89v.75h-7.156q.031 1.563.906 2.532.875.953 2.219.953.969 0 1.625-.39.672-.392 1.172-1.032l1.093.86q-1.328 2.046-3.984 2.046zm-.219-9.484q-1.094 0-1.844.797-.734.797-.906 2.234h5.281v-.14q-.078-1.376-.75-2.126-.656-.765-1.78-.765zm9.281-3.844v2.563h1.985v1.39h-1.984v6.547q0 .64.265.969.266.312.906.312.313 0 .86-.125V44.1q-.719.203-1.39.203-1.204 0-1.829-.734-.61-.735-.61-2.094v-6.547h-1.921v-1.39h1.922v-2.563h1.796z"/></svg>