<svg fill="none" stroke-linecap="square" stroke-miterlimit="10" width="972" height="601" xmlns="http://www.w3.org/2000/svg"><path fill="#fff" d="M0 0h972v601H0V0z"/><path stroke="#ccc" stroke-linecap="butt" d="M99.5 116.5v400m207-400v400m211-400v400m212-400v400m212-400v400m-842 0h842m-842-133h842m-842-133h842m-842-134h842"/><clipPath id="a"><path d="M99.05 116.617h842.9V516.95H99.05V116.617z"/></clipPath><path stroke="#4285f4" stroke-width="2" stroke-linecap="butt" clip-path="url(#a)" d="M99.05 516.95s50.035-4.741 71.589-4.744c21.553-.002 43.107 6.843 64.66 4.27 21.554-2.574 48.496-19.448 71.59-21.821 23.092-2.373 46.186 9.04 69.279 6.878 23.093-2.163 48.495-14.549 71.589-20.516 23.093-5.968 46.186-12.049 69.279-15.95 23.093-3.902 47.726-.05 71.589-7.709s48.495-34.498 71.589-38.245c23.093-3.748 46.186 10.671 69.279 14.527 23.093 3.856 48.496 5.829 71.589 8.894 23.093 3.065 46.186 6.814 69.28 9.784 23.092 2.97 71.588 8.301 71.588 8.301"/><path stroke="#db4437" stroke-width="2" stroke-linecap="butt" clip-path="url(#a)" d="M99.05 516.95s50.035-74.322 71.589-98.62c21.553-24.296 43.107-41.687 64.66-56.706 21.554-15.018 48.496-21.72 71.59-36.982 23.092-15.262 46.186-58.663 69.279-55.782 23.093 2.882 48.495 73.087 71.589 75.506 23.093 2.42 46.186-39.6 69.279-58.555 23.093-18.955 47.726-52.084 71.589-57.015 23.863-4.93 48.495 31.737 71.589 27.429 23.093-4.308 46.186-44.008 69.279-52.392 23.093-8.384 48.496 13.88 71.589 2.158 23.093-11.723 46.186-58.514 69.28-72.424 23.092-13.91 71.588-11.403 71.588-11.403"/><path stroke="#f4b400" stroke-width="2" stroke-linecap="butt" clip-path="url(#a)" d="M99.05 516.95s50.035-78.128 71.589-106.071c21.553-27.944 43.107-58.334 64.66-71.855 21.554-13.521 48.496-.055 71.59-10.265 23.092-10.21 46.186-58.775 69.279-51.325 23.093 7.45 48.495 92.348 71.589 99.228 23.093 6.88 46.186-37.895 69.279-54.746 23.093-16.85 47.726-48.474 71.589-47.903 23.863.57 48.495 51.03 71.589 51.324 23.093.295 46.186-39.367 69.279-47.903 23.093-8.535 48.496 9.106 71.589-3.421 23.093-12.528 46.186-54.36 69.28-71.855 23.092-17.495 71.588-34.217 71.588-34.217"/><path stroke="#0f9d58" stroke-width="2" stroke-linecap="butt" clip-path="url(#a)" d="M99.05 516.95s50.035-98.842 71.589-115.89c21.553-17.049 43.107 7.376 64.66 2.386 21.554-4.99 48.496-24.223 71.59-35.79 23.092-11.567 46.186-46.895 69.279-34.767 23.093 12.127 48.495 103.365 71.589 111.118 23.093 7.754 46.186-49.634 69.279-61.013 23.093-11.378 47.726-15.225 71.589-7.499s48.495 52.838 71.589 53.855c23.093 1.018 46.186-35.927 69.279-46.015 23.093-10.088 48.496-9.227 71.589-14.997 23.093-5.771 46.186 2.977 69.28-20.11 23.092-23.09 71.588-122.368 71.588-122.368"/><path stroke="#ff6d00" stroke-width="2" stroke-linecap="butt" clip-path="url(#a)" d="M99.05 516.95s50.035-112.99 71.589-136.163c21.553-23.172 43.107-2.307 64.66-16.05 21.554-13.741 48.496-65.671 71.59-73.517 23.092-7.845 46.186 20.856 69.279 24.075 23.093 3.219 48.495-4.514 71.589-4.919 23.093-.405 46.186 9.04 69.279 2.33 23.093-6.71 47.726-29.812 71.589-44.007 23.863-14.194 48.495-25.33 71.589-41.16 23.093-15.827 46.186-46.073 69.279-55.137 23.093-9.065 48.496.91 71.589.776 23.093-.133 46.186-6.722 69.28-1.553 23.092 5.17 71.588 33.653 71.588 33.653"/><path clip-path="url(#a)" d="M102.05 516.95a3 3 0 11-6 0 3 3 0 016 0zm71.589-4.744a3 3 0 11-6 0 3 3 0 016 0zm64.661 4.27a3 3 0 11-6 0 3 3 0 016 0zm71.588-21.821a3 3 0 11-6 0 3 3 0 016 0zm69.28 6.878a3 3 0 11-6 0 3 3 0 016 0zm71.589-20.516a3 3 0 11-6 0 3 3 0 016 0zm69.279-15.951a3 3 0 11-6 0 3 3 0 016 0zm71.589-7.708a3 3 0 11-6 0 3 3 0 016 0zm71.589-38.245a3 3 0 11-6 0 3 3 0 016 0zm69.279 14.527a3 3 0 11-6 0 3 3 0 016 0zm71.589 8.894a3 3 0 11-6 0 3 3 0 016 0zm69.279 9.784a3 3 0 11-6 0 3 3 0 016 0zm71.589 8.302a3 3 0 11-6 0 3 3 0 016 0z"/><path clip-path="url(#a)" d="M102.05 516.95a3 3 0 11-6 0 3 3 0 016 0zm71.589-98.62a3 3 0 11-6 0 3 3 0 016 0zm64.661-56.706a3 3 0 11-6 0 3 3 0 016 0zm71.588-36.982a3 3 0 11-6 0 3 3 0 016 0zm69.28-55.782a3 3 0 11-6 0 3 3 0 016 0zm71.589 75.506a3 3 0 11-6 0 3 3 0 016 0zm69.279-58.556a3 3 0 11-6 0 3 3 0 016 0zm71.589-57.014a3 3 0 11-6 0 3 3 0 016 0zm71.589 27.429a3 3 0 11-6 0 3 3 0 016 0zm69.279-52.392a3 3 0 11-6 0 3 3 0 016 0zm71.589 2.157a3 3 0 11-6 0 3 3 0 016 0zm69.279-72.423a3 3 0 11-6 0 3 3 0 016 0zm71.589-11.403a3 3 0 11-6 0 3 3 0 016 0z"/><path clip-path="url(#a)" d="M102.05 516.95a3 3 0 11-6 0 3 3 0 016 0zm71.589-106.071a3 3 0 11-6 0 3 3 0 016 0zm64.661-71.855a3 3 0 11-6 0 3 3 0 016 0zm71.588-10.264a3 3 0 11-6 0 3 3 0 016 0zm69.28-51.326a3 3 0 11-6 0 3 3 0 016 0zm71.589 99.228a3 3 0 11-6 0 3 3 0 016 0zm69.279-54.746a3 3 0 11-6 0 3 3 0 016 0zm71.589-47.903a3 3 0 11-6 0 3 3 0 016 0zm71.589 51.324a3 3 0 11-6 0 3 3 0 016 0zm69.279-47.903a3 3 0 11-6 0 3 3 0 016 0zm71.589-3.421a3 3 0 11-6 0 3 3 0 016 0zm69.279-71.855a3 3 0 11-6 0 3 3 0 016 0zm71.589-34.217a3 3 0 11-6 0 3 3 0 016 0z"/><path clip-path="url(#a)" d="M102.05 516.95a3 3 0 11-6 0 3 3 0 016 0zm71.589-115.89a3 3 0 11-6 0 3 3 0 016 0zm64.661 2.386a3 3 0 11-6 0 3 3 0 016 0zm71.588-35.79a3 3 0 11-6 0 3 3 0 016 0zm69.28-34.767a3 3 0 11-6 0 3 3 0 016 0zm71.589 111.118a3 3 0 11-6 0 3 3 0 016 0zm69.279-61.013a3 3 0 11-6 0 3 3 0 016 0zm71.589-7.499a3 3 0 11-6 0 3 3 0 016 0zm71.589 53.855a3 3 0 11-6 0 3 3 0 016 0zm69.279-46.015a3 3 0 11-6 0 3 3 0 016 0zm71.589-14.997a3 3 0 11-6 0 3 3 0 016 0zm69.279-20.111a3 3 0 11-6 0 3 3 0 016 0zM944.95 225.86a3 3 0 11-6 0 3 3 0 016 0z"/><path clip-path="url(#a)" d="M102.05 516.95a3 3 0 11-6 0 3 3 0 016 0zm71.589-136.163a3 3 0 11-6 0 3 3 0 016 0zm64.661-16.049a3 3 0 11-6 0 3 3 0 016 0zm71.588-73.518a3 3 0 11-6 0 3 3 0 016 0zm69.28 24.075a3 3 0 11-6 0 3 3 0 016 0zm71.589-4.919a3 3 0 11-6 0 3 3 0 016 0zm69.279 2.33a3 3 0 11-6 0 3 3 0 016 0zm71.589-44.006a3 3 0 11-6 0 3 3 0 016 0zm71.589-41.16a3 3 0 11-6 0 3 3 0 016 0zm69.279-55.138a3 3 0 11-6 0 3 3 0 016 0zm71.589.776a3 3 0 11-6 0 3 3 0 016 0zm69.279-1.553a3 3 0 11-6 0 3 3 0 016 0zm71.589 33.653a3 3 0 11-6 0 3 3 0 016 0z"/><path fill="#424242" d="M513.89 560.34h-2.75v7.61h-1.109v-7.61h-2.75v-.921h6.61v.922zm2.11 7.61h-1.078v-6.344H516v6.344zm-1.172-8.016q0-.265.156-.453.172-.187.485-.187.312 0 .468.187.172.188.172.453 0 .25-.172.438-.156.172-.468.172-.313 0-.485-.172-.156-.188-.156-.438zm4.016 1.672l.031.703q.688-.812 1.875-.812 1.328 0 1.813 1.016.312-.454.812-.735.516-.281 1.203-.281 2.094 0 2.125 2.203v4.25h-1.078v-4.188q0-.671-.313-1-.312-.343-1.046-.343-.61 0-1.016.36-.39.359-.453.968v4.203h-1.078v-4.156q0-1.375-1.36-1.375-1.062 0-1.453.906v4.625h-1.093v-6.344h1.03zm12.61 6.469q-1.298 0-2.11-.844-.797-.86-.797-2.281v-.188q0-.953.36-1.687.359-.75 1-1.156.655-.422 1.405-.422 1.235 0 1.922.812.688.813.688 2.329v.453h-4.297q.031.937.547 1.515.531.578 1.344.578.562 0 .953-.234.406-.234.718-.625l.657.516q-.797 1.234-2.39 1.234zm-.141-5.688q-.657 0-1.11.485-.437.469-.531 1.328h3.172v-.078q-.047-.828-.453-1.281-.391-.453-1.078-.453zM38.597 361.908v2.016h3.453v1.125h-8.531v-2.828q0-1.438.656-2.203.656-.782 1.906-.782.797 0 1.39.438.595.422.892 1.187l3.609-2h.078v1.204l-3.453 1.843zm-.922 2.016v-1.734q0-.844-.422-1.329-.437-.5-1.172-.5-.781 0-1.203.47-.422.468-.437 1.359v1.734h3.234zm4.5-8.344q0 1.297-.844 2.11-.86.796-2.281.796h-.187q-.954 0-1.688-.359-.75-.36-1.156-1-.422-.656-.422-1.406 0-1.235.812-1.922.813-.688 2.329-.688h.453v4.297q.937-.03 1.515-.547.578-.53.578-1.343 0-.563-.234-.953-.234-.407-.625-.72l.516-.655q1.234.796 1.234 2.39zm-5.687.14q0 .657.484 1.11.469.438 1.328.531v-3.171h-.078q-.828.046-1.281.453-.453.39-.453 1.078zm5.562-4.687v1.078h-9v-1.078h9zm0-5.734q-.187.094-.672.156.797.75.797 1.797 0 .938-.531 1.547-.531.594-1.36.594-.984 0-1.53-.75-.548-.75-.548-2.125v-1.047h-.5q-.562 0-.89.344-.344.328-.344 1 0 .578.297.968.281.39.703.39v1.095q-.484 0-.922-.328-.437-.344-.687-.922-.266-.578-.266-1.266 0-1.11.547-1.719.547-.625 1.5-.656h2.922q.875 0 1.39-.219h.094v1.14zm-.828 1.797q0-.516-.266-.969-.265-.453-.687-.656h-1.297v.844q0 2 1.172 2 .5 0 .797-.344.28-.344.28-.875zm-7.047-6.36h1.531v-1.171h.844v1.171h3.922q.39 0 .578-.156.188-.156.188-.531 0-.188-.063-.516h.875q.125.422.125.828 0 .72-.437 1.094-.454.375-1.266.375H36.55v1.156h-.844v-1.156h-1.531v-1.094zm7.875-3.703v1.078h-6.344v-1.078h6.344zm-8.016 1.172q-.265 0-.453-.156-.187-.172-.187-.484 0-.313.187-.47.188-.171.453-.171.25 0 .438.172.172.156.172.469 0 .312-.172.484-.188.156-.438.156zm6.547-5.078l-4.875-1.578v-1.11l6.344 2.282v.828l-6.344 2.297v-1.11l4.875-1.609zm1.594-6.547q0 1.297-.844 2.11-.86.796-2.281.796h-.187q-.954 0-1.688-.359-.75-.36-1.156-1-.422-.656-.422-1.406 0-1.235.812-1.922.813-.688 2.329-.688h.453v4.297q.937-.03 1.515-.547.578-.53.578-1.343 0-.563-.234-.953-.234-.407-.625-.72l.516-.655q1.234.796 1.234 2.39zm-5.687.14q0 .657.484 1.11.469.438 1.328.531v-3.171h-.078q-.828.046-1.281.453-.453.39-.453 1.078zm4.796-9.046q0-.578-.343-1.016-.36-.437-.891-.484v-1.031q.547.031 1.047.39.484.344.781.922.297.563.297 1.219 0 1.297-.86 2.062-.874.75-2.374.75h-.188q-.922 0-1.64-.328-.72-.343-1.11-.968-.406-.641-.406-1.516 0-1.063.64-1.766.626-.718 1.657-.765v1.031q-.625.047-1.016.469-.39.422-.39 1.031 0 .828.593 1.281.594.453 1.719.453h.203q1.094 0 1.688-.453.593-.453.593-1.281zm-4.812-4.547q-.875-.719-.875-1.875 0-2.016 2.266-2.031h4.187v1.094h-4.203q-.672 0-1 .312-.328.297-.328.953 0 .531.281.938.281.39.734.61h4.516v1.077h-9v-1.078h3.422zm5.578-9.828q-.187.094-.672.156.797.75.797 1.797 0 .938-.531 1.547-.531.594-1.36.594-.984 0-1.53-.75-.548-.75-.548-2.125v-1.047h-.5q-.562 0-.89.344-.344.328-.344 1 0 .578.297.968.281.39.703.39v1.095q-.484 0-.922-.328-.437-.344-.687-.922-.266-.578-.266-1.266 0-1.11.547-1.719.547-.625 1.5-.656h2.922q.875 0 1.39-.219h.094v1.14zm-.828 1.797q0-.516-.266-.969-.265-.453-.687-.656h-1.297v.844q0 2 1.172 2 .5 0 .797-.344.28-.344.28-.875zm-5.516-5.906l.797-.032q-.906-.734-.906-1.906 0-2.016 2.266-2.031h4.187v1.094h-4.203q-.672 0-1 .312-.328.297-.328.953 0 .531.281.938.281.39.734.61h4.516v1.077h-6.344v-1.015zm3.125-5.72q-1.484 0-2.36-.687-.874-.687-.874-1.812 0-1.156.812-1.813l-.703-.047v-1h6.188q1.234 0 1.937.735.719.734.719 1.953 0 .687-.297 1.344-.297.656-.797 1l-.656-.563q.86-.687.86-1.703 0-.781-.454-1.219-.437-.453-1.25-.453h-.547q.766.656.766 1.781 0 1.11-.89 1.797-.907.688-2.454.688zm.125-1.093q1.063 0 1.688-.437.61-.438.61-1.235 0-1.015-.938-1.5h-2.891q-.906.5-.906 1.5 0 .781.61 1.235.609.437 1.827.437zm3.219-8.797q0 1.297-.844 2.11-.86.796-2.281.796h-.187q-.954 0-1.688-.359-.75-.36-1.156-1-.422-.656-.422-1.406 0-1.235.812-1.922.813-.688 2.329-.688h.453v4.297q.937-.03 1.515-.547.578-.53.578-1.343 0-.563-.234-.953-.234-.407-.625-.72l.516-.655q1.234.796 1.234 2.39zm-5.687.14q0 .657.484 1.11.469.438 1.328.531v-3.171h-.078q-.828.046-1.281.453-.453.39-.453 1.078z"/><path fill="#757575" d="M67.316 521.45h-1.079v-7.219l-2.187.797v-.984l3.11-1.172h.156v8.578zm8.796-3.64q0 1.906-.656 2.843-.64.922-2.031.922-1.36 0-2.016-.906-.656-.906-.687-2.719v-1.438q0-1.89.64-2.796.657-.922 2.047-.922 1.375 0 2.032.89.656.875.671 2.72v1.405zm-1.093-1.485q0-1.375-.39-2-.376-.64-1.22-.64-.828 0-1.218.64-.375.625-.375 1.922v1.734q0 1.375.39 2.047.406.656 1.219.656.797 0 1.188-.625.39-.625.406-1.953v-1.781zm8.093 1.484q0 1.907-.656 2.844-.64.922-2.031.922-1.36 0-2.016-.906-.656-.906-.687-2.719v-1.438q0-1.89.64-2.796.657-.922 2.047-.922 1.375 0 2.032.89.656.875.671 2.72v1.405zm-1.093-1.484q0-1.375-.39-2-.376-.64-1.22-.64-.828 0-1.218.64-.375.625-.375 1.922v1.734q0 1.375.39 2.047.406.656 1.219.656.797 0 1.188-.625.39-.625.406-1.953v-1.781zm2.64-1.766q0-.765.485-1.265.5-.5 1.265-.5.782 0 1.266.5t.484 1.297v.422q0 .765-.5 1.265-.484.485-1.234.485-.766 0-1.266-.485-.5-.5-.5-1.312v-.407zm.813.454q0 .453.25.75.266.296.703.296.422 0 .672-.28.25-.298.25-.798v-.422q0-.453-.25-.75-.25-.312-.688-.312-.437 0-.687.312-.25.297-.25.766v.438zm3.344 4.343q0-.765.484-1.25.5-.5 1.266-.5.765 0 1.25.5.5.485.5 1.297v.406q0 .766-.485 1.266-.484.5-1.25.5-.765 0-1.265-.484-.5-.5-.5-1.313v-.422zm.812.453q0 .47.25.766.266.297.703.297.422 0 .672-.281.25-.297.25-.797v-.438q0-.468-.266-.75-.25-.297-.671-.297-.422 0-.688.297-.25.282-.25.782v.421zm-2.953 1l-.625-.39 4.172-6.672.61.39-4.157 6.672zM67.316 388.006h-1.079v-7.22l-2.187.798v-.985l3.11-1.172h.156v8.579zm7 0h-1.079v-7.22l-2.187.798v-.985l3.11-1.172h.156v8.579zm8.796-3.641q0 1.906-.656 2.844-.64.922-2.031.922-1.36 0-2.016-.907-.656-.906-.687-2.718v-1.438q0-1.89.64-2.797.657-.922 2.047-.922 1.375 0 2.032.89.656.876.671 2.72v1.406zm-1.093-1.484q0-1.375-.39-2-.376-.641-1.22-.641-.828 0-1.218.64-.375.626-.375 1.922v1.735q0 1.375.39 2.047.406.656 1.219.656.797 0 1.188-.625.39-.625.406-1.953v-1.781zm2.64-1.766q0-.766.485-1.266.5-.5 1.265-.5.782 0 1.266.5t.484 1.297v.422q0 .766-.5 1.266-.484.484-1.234.484-.766 0-1.266-.484-.5-.5-.5-1.313v-.406zm.813.453q0 .453.25.75.266.297.703.297.422 0 .672-.281.25-.297.25-.797v-.422q0-.453-.25-.75-.25-.313-.688-.313-.437 0-.687.313-.25.297-.25.766v.437zm3.344 4.344q0-.766.484-1.25.5-.5 1.266-.5.765 0 1.25.5.5.484.5 1.297v.406q0 .766-.485 1.266-.484.5-1.25.5-.765 0-1.265-.485-.5-.5-.5-1.312v-.422zm.812.453q0 .469.25.766.266.296.703.296.422 0 .672-.28.25-.298.25-.798v-.437q0-.469-.266-.75-.25-.297-.671-.297-.422 0-.688.297-.25.281-.25.781v.422zm-2.953 1l-.625-.39 4.172-6.673.61.391-4.157 6.672zM67.316 254.561h-1.079v-7.219l-2.187.797v-.984l3.11-1.172h.156v8.578zm9.03 0h-5.593v-.781l2.953-3.281q.656-.75.906-1.204.25-.468.25-.968 0-.672-.406-1.094-.39-.438-1.078-.438-.797 0-1.25.47-.453.452-.453 1.28h-1.078q0-1.187.75-1.906.766-.734 2.031-.734 1.203 0 1.89.625.688.625.688 1.672 0 1.25-1.61 3l-2.28 2.468h4.28v.891zm6.766-3.64q0 1.906-.656 2.843-.64.922-2.031.922-1.36 0-2.016-.906-.656-.906-.687-2.719v-1.437q0-1.891.64-2.797.657-.922 2.047-.922 1.375 0 2.032.89.656.875.671 2.72v1.405zm-1.093-1.485q0-1.375-.39-2-.376-.64-1.22-.64-.828 0-1.218.64-.375.625-.375 1.922v1.734q0 1.375.39 2.047.406.656 1.219.656.797 0 1.188-.625.39-.625.406-1.953v-1.78zm2.64-1.766q0-.765.485-1.265.5-.5 1.265-.5.782 0 1.266.5t.484 1.297v.422q0 .765-.5 1.265-.484.485-1.234.485-.766 0-1.266-.485-.5-.5-.5-1.312v-.407zm.813.454q0 .453.25.75.266.296.703.296.422 0 .672-.28.25-.298.25-.798v-.422q0-.453-.25-.75-.25-.312-.688-.312-.437 0-.687.312-.25.297-.25.766v.438zm3.344 4.343q0-.765.484-1.25.5-.5 1.266-.5.765 0 1.25.5.5.485.5 1.297v.406q0 .766-.485 1.266-.484.5-1.25.5-.765 0-1.265-.484-.5-.5-.5-1.313v-.422zm.812.453q0 .47.25.766.266.297.703.297.422 0 .672-.281.25-.297.25-.797v-.438q0-.468-.266-.75-.25-.297-.671-.297-.422 0-.688.297-.25.282-.25.782v.421zm-2.953 1l-.625-.39 4.172-6.672.61.39-4.157 6.672zM67.316 121.117h-1.079v-7.22l-2.187.798v-.985l3.11-1.171h.156v8.578zm5.015-4.797h.813q.781-.016 1.218-.406.438-.391.438-1.063 0-1.5-1.5-1.5-.703 0-1.125.406-.406.407-.406 1.063h-1.094q0-1.016.734-1.688.75-.672 1.891-.672 1.203 0 1.89.641.688.64.688 1.781 0 .563-.36 1.078-.359.516-.984.782.703.218 1.078.734.391.516.391 1.266 0 1.14-.75 1.828-.75.672-1.953.672-1.188 0-1.953-.657-.75-.656-.75-1.718h1.094q0 .672.437 1.078.438.406 1.188.406.78 0 1.187-.406.422-.422.422-1.188 0-.734-.453-1.125-.453-.406-1.328-.422h-.813v-.89zm10.781 1.156q0 1.906-.656 2.844-.64.922-2.031.922-1.36 0-2.016-.907-.656-.906-.687-2.718v-1.438q0-1.89.64-2.797.657-.922 2.047-.922 1.375 0 2.032.891.656.875.671 2.719v1.406zm-1.093-1.484q0-1.375-.39-2-.376-.641-1.22-.641-.828 0-1.218.64-.375.626-.375 1.923v1.734q0 1.375.39 2.047.406.656 1.219.656.797 0 1.188-.625.39-.625.406-1.953v-1.781zm2.64-1.766q0-.766.485-1.266.5-.5 1.265-.5.782 0 1.266.5t.484 1.297v.422q0 .766-.5 1.266-.484.484-1.234.484-.766 0-1.266-.484-.5-.5-.5-1.313v-.406zm.813.453q0 .453.25.75.266.297.703.297.422 0 .672-.281.25-.297.25-.797v-.422q0-.453-.25-.75-.25-.312-.688-.312-.437 0-.687.312-.25.297-.25.766v.437zm3.344 4.344q0-.766.484-1.25.5-.5 1.266-.5.765 0 1.25.5.5.484.5 1.297v.406q0 .766-.485 1.266-.484.5-1.25.5-.765 0-1.265-.485-.5-.5-.5-1.312v-.422zm.812.453q0 .469.25.766.266.297.703.297.422 0 .672-.282.25-.297.25-.797v-.437q0-.469-.266-.75-.25-.297-.671-.297-.422 0-.688.297-.25.281-.25.781v.422zm-2.953 1l-.625-.39 4.172-6.672.61.39-4.157 6.672zM72.316 534.95h-1.079v-7.219l-2.187.797v-.984l3.11-1.172h.156v8.578zm5.812-3.188h-2.86v-.874h2.86v.875zm4.484-5.343h1.141v6.047q0 1.218-.75 1.922-.734.687-1.953.687-1.266 0-1.984-.656-.704-.656-.704-1.828h1.126q0 .734.39 1.156.406.406 1.172.406.703 0 1.125-.437.438-.453.438-1.235v-6.062zm7.172 8.531q-.093-.188-.156-.672-.75.797-1.797.797-.937 0-1.547-.531-.593-.531-.593-1.36 0-.984.75-1.53.75-.548 2.125-.548h1.046v-.5q0-.562-.343-.89-.328-.344-1-.344-.578 0-.969.297-.39.281-.39.703h-1.094q0-.484.328-.922.343-.438.922-.688.578-.265 1.265-.265 1.11 0 1.719.547.625.547.656 1.5v2.922q0 .875.219 1.39v.094h-1.14zm-1.797-.828q.516 0 .97-.266.452-.265.656-.687v-1.297h-.844q-2 0-2 1.172 0 .5.343.797.344.28.876.28zm5.907-5.516l.031.797q.734-.906 1.906-.906 2.016 0 2.031 2.266v4.187H96.77v-4.203q0-.672-.313-1-.297-.328-.953-.328-.531 0-.937.281-.391.281-.61.734v4.516h-1.078v-6.344h1.016zm8.234 3.157h-2.86v-.875h2.86v.875zm6.219 3.187h-5.594v-.781l2.953-3.281q.656-.75.906-1.204.25-.468.25-.968 0-.672-.406-1.094-.39-.438-1.078-.438-.797 0-1.25.47-.453.452-.453 1.28h-1.078q0-1.187.75-1.906.766-.734 2.031-.734 1.203 0 1.89.625.688.625.688 1.672 0 1.25-1.61 3l-2.28 2.468h4.28v.891zm6.766-3.64q0 1.906-.657 2.843-.64.922-2.031.922-1.36 0-2.016-.906-.656-.906-.687-2.719v-1.438q0-1.89.64-2.796.657-.922 2.047-.922 1.375 0 2.032.89.656.875.671 2.72v1.405zm-1.094-1.485q0-1.375-.39-2-.376-.64-1.22-.64-.828 0-1.218.64-.375.625-.375 1.922v1.734q0 1.375.39 2.047.406.656 1.219.656.797 0 1.188-.625.39-.625.406-1.953v-1.781zm6.297 5.125h-1.079v-7.219l-2.187.797v-.984l3.11-1.172h.156v8.578zm7.593-3.75q-.328.406-.812.656-.469.235-1.031.235-.735 0-1.282-.36t-.843-1.015q-.297-.672-.297-1.47 0-.843.312-1.53.328-.688.922-1.047.61-.375 1.406-.375 1.266 0 1.985.953.734.953.734 2.578v.313q0 2.5-.984 3.64-.985 1.14-2.969 1.172h-.219v-.906h.235q1.343-.031 2.062-.703.719-.672.781-2.141zm-1.672 0q.547 0 1-.328.47-.344.688-.828v-.438q0-1.062-.469-1.734-.469-.672-1.172-.672-.718 0-1.156.547-.422.547-.422 1.453 0 .875.406 1.438.422.562 1.126.562zm154.917 3.75h-1.078v-7.219l-2.188.797v-.984l3.11-1.172h.156v8.578zm5.813-3.188h-2.86v-.874h2.86v.875zm5.625.954h-3.579l-.796 2.234h-1.157l3.25-8.531h.985l3.265 8.531h-1.156l-.813-2.234zm-3.235-.922h2.906l-1.453-3.985-1.453 3.985zm11.703.062q0 1.438-.656 2.328-.656.891-1.797.891-1.156 0-1.812-.734v3.047h-1.079v-8.782h.985l.047.703q.672-.812 1.844-.812 1.14 0 1.796.86.672.859.672 2.39v.11zm-1.078-.125q0-1.078-.469-1.687-.453-.625-1.25-.625-.984 0-1.468.86v3.03q.484.875 1.484.875.781 0 1.234-.609.47-.625.47-1.844zm5.797-2.156q-.25-.031-.531-.031-1.078 0-1.453.906v4.5h-1.079v-6.344h1.047l.016.735q.531-.844 1.516-.844.312 0 .484.078v1zm3.188 2.188h-2.86v-.875h2.86v.875zm6.218 3.187h-5.594v-.781l2.954-3.281q.656-.75.906-1.204.25-.468.25-.968 0-.672-.406-1.094-.391-.438-1.079-.438-.796 0-1.25.47-.453.452-.453 1.28h-1.078q0-1.187.75-1.906.766-.734 2.031-.734 1.204 0 1.891.625.688.625.688 1.672 0 1.25-1.61 3l-2.281 2.468h4.281v.891zm6.766-3.64q0 1.906-.656 2.843-.641.922-2.032.922-1.359 0-2.015-.906-.656-.906-.688-2.719v-1.438q0-1.89.64-2.796.657-.922 2.048-.922 1.375 0 2.031.89.656.875.672 2.72v1.405zm-1.094-1.485q0-1.375-.39-2-.375-.64-1.22-.64-.827 0-1.218.64-.375.625-.375 1.922v1.734q0 1.375.39 2.047.407.656 1.22.656.796 0 1.187-.625.39-.625.406-1.953v-1.781zm6.297 5.125h-1.078v-7.219l-2.188.797v-.984l3.11-1.172h.156v8.578zm7.594-3.75q-.328.406-.813.656-.469.235-1.031.235-.734 0-1.281-.36-.547-.36-.844-1.015-.297-.672-.297-1.47 0-.843.313-1.53.328-.688.921-1.047.61-.375 1.407-.375 1.265 0 1.984.953.734.953.734 2.578v.313q0 2.5-.984 3.64-.984 1.14-2.969 1.172h-.218v-.906h.234q1.344-.031 2.063-.703.718-.672.78-2.141zm-1.672 0q.547 0 1-.328.469-.344.687-.828v-.438q0-1.062-.468-1.734-.47-.672-1.172-.672-.719 0-1.156.547-.422.547-.422 1.453 0 .875.406 1.438.422.562 1.125.562zm159.226 3.75h-1.078v-7.219l-2.188.797v-.984l3.11-1.172h.156v8.578zm5.812-3.188h-2.86v-.874h2.86v.875zm4.485-5.343h1.14v6.047q0 1.218-.75 1.922-.734.687-1.953.687-1.266 0-1.984-.656-.703-.656-.703-1.828h1.125q0 .734.39 1.156.406.406 1.172.406.703 0 1.125-.437.438-.453.438-1.235v-6.062zm7.171 7.906q-.625.75-1.859.75-1.016 0-1.547-.594-.531-.593-.531-1.75v-4.125h1.078v4.094q0 1.453 1.172 1.453 1.25 0 1.656-.937v-4.61h1.094v6.344h-1.031l-.032-.625zm4.266.625h-1.078v-9h1.078v9zm4.078-3.188h-2.86v-.874h2.86v.875zm6.219 3.188h-5.594v-.781l2.953-3.281q.656-.75.906-1.204.25-.468.25-.968 0-.672-.406-1.094-.39-.438-1.078-.438-.797 0-1.25.47-.453.452-.453 1.28h-1.078q0-1.187.75-1.906.765-.734 2.031-.734 1.203 0 1.89.625.688.625.688 1.672 0 1.25-1.61 3l-2.28 2.468h4.28v.891zm6.765-3.64q0 1.906-.656 2.843-.64.922-2.031.922-1.36 0-2.016-.906-.656-.906-.687-2.719v-1.438q0-1.89.64-2.796.657-.922 2.047-.922 1.375 0 2.032.89.656.875.671 2.72v1.405zm-1.093-1.485q0-1.375-.39-2-.376-.64-1.22-.64-.828 0-1.218.64-.375.625-.375 1.922v1.734q0 1.375.39 2.047.406.656 1.219.656.797 0 1.188-.625.39-.625.406-1.953v-1.781zm6.297 5.125h-1.079v-7.219l-2.187.797v-.984l3.11-1.172h.156v8.578zm7.593-3.75q-.328.406-.812.656-.469.235-1.031.235-.735 0-1.282-.36t-.843-1.015q-.297-.672-.297-1.47 0-.843.312-1.53.328-.688.922-1.047.61-.375 1.406-.375 1.266 0 1.985.953.734.953.734 2.578v.313q0 2.5-.984 3.64-.985 1.14-2.969 1.172h-.219v-.906h.235q1.343-.031 2.062-.703.719-.672.781-2.141zm-1.672 0q.547 0 1-.328.47-.344.688-.828v-.438q0-1.062-.469-1.734-.469-.672-1.172-.672-.718 0-1.156.547-.422.547-.422 1.453 0 .875.406 1.438.422.562 1.125.562zm162.036 3.75h-1.078v-7.219l-2.188.797v-.984l3.11-1.172h.156v8.578zm5.812-3.188h-2.86v-.874h2.86v.875zm7.469-.796q0 1.25-.422 2.187-.422.922-1.203 1.422-.766.5-1.797.5-1 0-1.781-.5-.781-.5-1.219-1.406-.422-.922-.437-2.14v-.61q0-1.235.421-2.172.438-.938 1.22-1.438.78-.515 1.796-.515t1.797.5q.781.5 1.203 1.437.422.938.422 2.188v.547zm-1.11-.563q0-1.515-.609-2.328-.61-.813-1.703-.813-1.078 0-1.687.813-.61.813-.625 2.25v.64q0 1.47.609 2.313.625.828 1.703.828 1.094 0 1.688-.781.609-.797.625-2.281v-.64zm4.922 3.781q.579 0 1.016-.343.438-.36.484-.891h1.032q-.032.547-.391 1.047-.344.484-.922.781-.562.297-1.219.297-1.296 0-2.062-.86-.75-.874-.75-2.374v-.188q0-.922.328-1.64.344-.72.969-1.11.64-.406 1.515-.406 1.063 0 1.766.64.719.626.766 1.657h-1.032q-.046-.625-.468-1.016-.422-.39-1.032-.39-.828 0-1.28.593-.454.594-.454 1.719v.203q0 1.094.453 1.688.453.593 1.281.593zm4.938-7.109v1.531h1.172v.844h-1.172v3.922q0 .39.156.578.156.188.531.188.188 0 .516-.063v.875q-.422.125-.828.125-.719 0-1.094-.438-.375-.453-.375-1.265v-3.922h-1.156v-.844h1.156v-1.531h1.094zm4.781 4.688h-2.86v-.875h2.86v.875zm6.219 3.187h-5.594v-.781l2.953-3.281q.657-.75.907-1.204.25-.468.25-.968 0-.672-.407-1.094-.39-.438-1.078-.438-.797 0-1.25.47-.453.452-.453 1.28h-1.078q0-1.187.75-1.906.766-.734 2.031-.734 1.203 0 1.89.625.688.625.688 1.672 0 1.25-1.61 3l-2.28 2.468h4.28v.891zm6.766-3.64q0 1.906-.657 2.843-.64.922-2.031.922-1.36 0-2.016-.906-.656-.906-.687-2.719v-1.438q0-1.89.64-2.796.657-.922 2.047-.922 1.375 0 2.032.89.656.875.672 2.72v1.405zm-1.094-1.485q0-1.375-.39-2-.376-.64-1.22-.64-.828 0-1.218.64-.375.625-.375 1.922v1.734q0 1.375.39 2.047.407.656 1.219.656.797 0 1.188-.625.39-.625.406-1.953v-1.781zm6.297 5.125h-1.078v-7.219l-2.188.797v-.984l3.11-1.172h.156v8.578zm7.593-3.75q-.328.406-.812.656-.469.235-1.031.235-.735 0-1.282-.36-.546-.36-.843-1.015-.297-.672-.297-1.47 0-.843.312-1.53.328-.688.922-1.047.61-.375 1.406-.375 1.266 0 1.985.953.734.953.734 2.578v.313q0 2.5-.984 3.64-.985 1.14-2.969 1.172h-.219v-.906h.235q1.343-.031 2.062-.703.719-.672.781-2.141zm-1.671 0q.546 0 1-.328.468-.344.687-.828v-.438q0-1.062-.469-1.734-.468-.672-1.172-.672-.718 0-1.156.547-.422.547-.422 1.453 0 .875.407 1.438.421.562 1.125.562z"/><path stroke="#4285f4" stroke-width="4" stroke-linecap="butt" d="M328.5 81.583h12"/><path fill="#757575" d="M349.484 86.083v-8.53h2.422q1.11 0 1.953.5.86.483 1.329 1.39.468.906.468 2.093v.532q0 1.218-.469 2.125-.453.906-1.328 1.39-.859.485-2 .5h-2.375zm1.125-7.609v6.687h1.188q1.297 0 2.015-.796.735-.813.735-2.313v-.5q0-1.453-.688-2.25-.671-.812-1.937-.828h-1.313zm6.875 7.61v-8.532h2.797q1.39 0 2.078.578.704.563.704 1.688 0 .61-.344 1.078-.328.453-.922.703.703.187 1.094.734.406.532.406 1.282 0 1.156-.75 1.812-.735.656-2.094.656h-2.969zm1.125-3.985v3.062h1.86q.797 0 1.25-.406.453-.406.453-1.125 0-1.531-1.688-1.531h-1.875zm0-.906h1.704q.734 0 1.171-.36.454-.375.454-1.015 0-.703-.407-1.016-.406-.328-1.25-.328h-1.672v2.719zm6.72 3.968h4.89v.922H364v-.843l4.688-6.766h-4.61v-.922h5.953v.828l-4.703 6.781zm6.155.922v-8.53h2.797q1.39 0 2.078.577.704.563.704 1.688 0 .61-.344 1.078-.328.453-.922.703.703.187 1.094.734.406.532.406 1.282 0 1.156-.75 1.812-.735.656-2.094.656h-2.969zm1.125-3.984v3.062h1.86q.797 0 1.25-.406.453-.406.453-1.125 0-1.531-1.688-1.531h-1.875zm0-.906h1.704q.734 0 1.171-.36.454-.375.454-1.015 0-.703-.407-1.016-.406-.328-1.25-.328h-1.672v2.719z"/><path stroke="#db4437" stroke-width="4" stroke-linecap="butt" d="M393.5 81.583h12"/><path fill="#757575" d="M415.703 86.083h-1.125v-8.53h1.125v8.53zm3.625-2.687l.172 1.125.234-1.016 1.688-5.953h.953l1.64 5.953.235 1.031.188-1.156 1.328-5.828h1.125l-2.063 8.531h-1.031l-1.766-6.218-.125-.657-.14.657-1.813 6.218h-1.031l-2.063-8.53h1.125l1.344 5.843zm9.156 2.687v-8.53h2.422q1.11 0 1.953.5.86.483 1.329 1.39.468.906.468 2.093v.532q0 1.218-.469 2.125-.453.906-1.328 1.39-.859.485-2 .5h-2.375zm1.125-7.609v6.687h1.188q1.297 0 2.015-.796.735-.813.735-2.313v-.5q0-1.453-.688-2.25-.671-.812-1.937-.828h-1.313zm11.594 5.375h-3.578l-.797 2.234h-1.156l3.25-8.53h.984l3.266 8.53h-1.156l-.813-2.234zm-3.234-.922h2.906l-1.453-3.984-1.453 3.984z"/><path stroke="#f4b400" stroke-width="4" stroke-linecap="butt" d="M459.5 81.583h12"/><path fill="#757575" d="M481.703 86.083h-1.125v-8.53h1.125v8.53zm7.797-8.53v5.796q-.016 1.203-.766 1.984-.75.766-2.03.86l-.313.015q-1.391 0-2.235-.75-.828-.765-.828-2.093v-5.813h1.11v5.781q0 .922.5 1.438.515.515 1.453.515.968 0 1.468-.515.5-.516.5-1.438v-5.78h1.141zm4.5 4.733q-1.438-.421-2.11-1.03-.656-.61-.656-1.5 0-1 .797-1.657.813-.672 2.11-.672.875 0 1.562.344.688.344 1.063.937.39.594.39 1.313h-1.14q0-.781-.5-1.219-.485-.437-1.375-.437-.829 0-1.297.375-.469.359-.469 1 0 .53.438.89.453.36 1.515.656 1.063.297 1.656.657.61.36.891.843.297.485.297 1.125 0 1.047-.813 1.672-.812.625-2.156.625-.89 0-1.656-.343-.75-.344-1.172-.922-.406-.594-.406-1.328h1.125q0 .765.578 1.218.578.453 1.531.453.89 0 1.36-.359.468-.375.468-1t-.437-.969q-.438-.343-1.594-.672zm11.047 3.797h-1.125l-4.297-6.578v6.578h-1.14v-8.53h1.14l4.297 6.608v-6.609h1.125v8.531z"/><path stroke="#0f9d58" stroke-width="4" stroke-linecap="butt" d="M522.5 81.583h12"/><path fill="#757575" d="M546.281 80.818l2.032-3.266h1.328l-2.688 4.234 2.75 4.297h-1.328l-2.094-3.328-2.11 3.328h-1.343l2.766-4.297-2.688-4.234h1.313l2.062 3.266zm6.657-3.266l2.796 6.953 2.782-6.953h1.468v8.531h-1.125v-3.328l.11-3.578-2.813 6.906h-.86l-2.796-6.89.11 3.562v3.328h-1.126v-8.53h1.453zm10 0l2.796 6.953 2.782-6.953h1.468v8.531h-1.125v-3.328l.11-3.578-2.813 6.906h-.86l-2.796-6.89.11 3.562v3.328h-1.126v-8.53h1.453zm13.375 4.594h-3.704v3.015h4.297v.922h-5.422v-8.53h5.375v.921h-4.25v2.75h3.703v.922z"/><path stroke="#ff6d00" stroke-width="4" stroke-linecap="butt" d="M593.5 81.583h12"/><path fill="#757575" d="M619.313 82.146h-3.704v3.015h4.297v.922h-5.422v-8.53h5.375v.921h-4.25v2.75h3.703v.922zm3.296.594v3.343h-1.125v-8.53h3.157q1.39 0 2.187.718.797.703.797 1.89 0 1.235-.781 1.907-.766.672-2.219.672h-2.016zm0-.922h2.032q.906 0 1.375-.422.484-.422.484-1.219 0-.766-.484-1.219-.47-.468-1.313-.484h-2.094v3.344zm10.016.812h-2.016v3.453h-1.125v-8.53h2.828q1.438 0 2.204.655.78.657.78 1.907 0 .796-.437 1.39-.422.594-1.187.89l2 3.61v.078h-1.203l-1.844-3.453zm-2.016-.922h1.735q.843 0 1.328-.422.5-.437.5-1.171 0-.782-.469-1.204-.469-.421-1.36-.437h-1.734v3.234zm10.594 2.141h-3.578l-.797 2.234h-1.156l3.25-8.53h.984l3.266 8.53h-1.156l-.813-2.234zm-3.234-.922h2.906l-1.453-3.984-1.453 3.984zM33.581 43.487v5.563h-1.875V34.831h5.235q2.343 0 3.656 1.188 1.328 1.187 1.328 3.156 0 2.078-1.297 3.203-1.297 1.11-3.703 1.11h-3.344zm0-1.53h3.36q1.515 0 2.312-.704.797-.719.797-2.062 0-1.266-.797-2.016-.797-.766-2.203-.797h-3.469v5.578zM48.8 49.252q-2.14 0-3.5-1.406-1.344-1.422-1.344-3.781v-.344q0-1.563.594-2.797.61-1.234 1.688-1.938 1.078-.703 2.343-.703 2.063 0 3.203 1.36 1.141 1.36 1.141 3.89v.75h-7.156q.031 1.563.906 2.532.875.953 2.219.953.968 0 1.625-.39.672-.392 1.172-1.032l1.093.86q-1.328 2.046-3.984 2.046zm-.219-9.484q-1.094 0-1.844.797-.734.796-.906 2.234h5.281v-.14q-.078-1.376-.75-2.126-.656-.765-1.78-.765zm11.938.328q-.407-.063-.875-.063-1.782 0-2.422 1.516v7.5h-1.797V38.487h1.75l.031 1.22q.89-1.423 2.516-1.423.531 0 .797.141v1.672zM63.3 49.05v-9.172h-1.656v-1.39H63.3v-1.094q0-1.688.906-2.61.922-.937 2.578-.937.625 0 1.235.156l-.094 1.469q-.453-.078-.969-.078-.89 0-1.375.515-.469.5-.469 1.453v1.125h2.25v1.391h-2.25v9.172H63.3zm5.64-5.375q0-1.563.61-2.797.61-1.25 1.688-1.922 1.093-.672 2.5-.672 2.156 0 3.484 1.5 1.344 1.485 1.344 3.97v.124q0 1.547-.594 2.781-.594 1.22-1.703 1.907-1.094.687-2.516.687-2.14 0-3.484-1.5-1.328-1.5-1.328-3.953v-.125zm1.813.203q0 1.766.813 2.828.828 1.063 2.187 1.063 1.375 0 2.188-1.078.812-1.079.812-3.016 0-1.75-.828-2.828-.828-1.078-2.188-1.078-1.343 0-2.171 1.062-.813 1.063-.813 3.047zm14.766-3.781q-.407-.063-.875-.063-1.782 0-2.422 1.516v7.5h-1.797V38.487h1.75l.031 1.22q.89-1.423 2.516-1.423.531 0 .797.141v1.672zm3.593-1.61l.047 1.172q1.172-1.375 3.141-1.375 2.219 0 3.016 1.703.53-.765 1.375-1.234.843-.469 2-.469 3.468 0 3.53 3.688v7.078h-1.812v-6.969q0-1.14-.515-1.703-.516-.562-1.735-.562-1 0-1.672.609-.656.594-.765 1.61v7.015h-1.813v-6.922q0-2.312-2.265-2.312-1.782 0-2.422 1.515v7.719h-1.813V38.487h1.703zm22.829 10.563q-.157-.313-.25-1.11-1.266 1.313-3.016 1.313-1.563 0-2.563-.89-1-.891-1-2.25 0-1.641 1.25-2.547 1.266-.922 3.532-.922h1.765v-.828q0-.954-.578-1.516-.562-.563-1.656-.563-.969 0-1.625.5-.656.485-.656 1.172h-1.813q0-.78.563-1.515.562-.75 1.515-1.172.97-.438 2.125-.438 1.828 0 2.86.922 1.031.906 1.078 2.516v4.86q0 1.452.36 2.312v.156h-1.891zm-3-1.375q.859 0 1.609-.438.766-.437 1.11-1.14v-2.172h-1.422q-3.313 0-3.313 1.938 0 .859.563 1.343.562.469 1.453.469zm9.187-9.188l.063 1.329q1.203-1.532 3.156-1.532 3.36 0 3.375 3.782v6.984h-1.797v-7q-.016-1.14-.531-1.688-.5-.546-1.594-.546-.875 0-1.547.468-.656.47-1.031 1.235v7.531h-1.797V38.487h1.703zm13.531 9.282q.97 0 1.688-.578.719-.594.797-1.47h1.719q-.063.907-.641 1.735-.563.813-1.531 1.313-.953.484-2.032.484-2.156 0-3.437-1.437-1.266-1.454-1.266-3.954v-.296q0-1.547.563-2.75.562-1.204 1.625-1.86 1.062-.672 2.5-.672 1.781 0 2.953 1.063 1.187 1.062 1.266 2.765h-1.72q-.077-1.015-.78-1.671-.688-.672-1.72-.672-1.374 0-2.14 1-.75.984-.75 2.86v.343q0 1.828.75 2.812.75.985 2.156.985zm10.141 1.484q-2.14 0-3.5-1.406-1.344-1.422-1.344-3.781v-.344q0-1.563.594-2.797.61-1.234 1.688-1.938 1.078-.703 2.343-.703 2.063 0 3.203 1.36 1.141 1.36 1.141 3.89v.75h-7.156q.031 1.563.906 2.532.875.953 2.219.953.969 0 1.625-.39.672-.392 1.172-1.032l1.093.86q-1.328 2.046-3.984 2.046zm-.219-9.484q-1.093 0-1.843.797-.735.796-.907 2.234h5.282v-.14q-.079-1.376-.75-2.126-.657-.765-1.782-.765zm11.36 3.906q0-1.563.609-2.797.61-1.25 1.688-1.922 1.093-.672 2.5-.672 2.156 0 3.484 1.5 1.344 1.485 1.344 3.97v.124q0 1.547-.594 2.781-.594 1.22-1.703 1.907-1.094.687-2.516.687-2.14 0-3.484-1.5-1.328-1.5-1.328-3.953v-.125zm1.812.203q0 1.766.813 2.828.828 1.063 2.187 1.063 1.375 0 2.188-1.078.812-1.079.812-3.016 0-1.75-.828-2.828-.828-1.078-2.188-1.078-1.343 0-2.171 1.062-.813 1.063-.813 3.047zM165.3 49.05v-9.172h-1.656v-1.39h1.656v-1.094q0-1.688.906-2.61.922-.937 2.578-.937.625 0 1.235.156l-.094 1.469q-.453-.078-.969-.078-.89 0-1.375.515-.468.5-.468 1.453v1.125h2.25v1.391h-2.25v9.172H165.3zm17.64 0q-.156-.313-.25-1.11-1.265 1.313-3.015 1.313-1.563 0-2.563-.89-1-.891-1-2.25 0-1.641 1.25-2.547 1.266-.922 3.532-.922h1.765v-.828q0-.954-.578-1.516-.562-.563-1.656-.563-.969 0-1.625.5-.656.485-.656 1.172h-1.813q0-.78.563-1.515.562-.75 1.515-1.172.97-.438 2.125-.438 1.829 0 2.86.922 1.031.906 1.078 2.516v4.86q0 1.452.36 2.312v.156h-1.891zm-3-1.375q.86 0 1.61-.438.766-.437 1.11-1.14v-2.172h-1.422q-3.313 0-3.313 1.938 0 .859.563 1.343.562.469 1.453.469zm13.626-1.422q0-.734-.547-1.14-.547-.407-1.922-.704t-2.188-.703q-.796-.406-1.187-.969-.375-.578-.375-1.359 0-1.297 1.094-2.187 1.093-.907 2.812-.907 1.797 0 2.906.938 1.125.922 1.125 2.36h-1.828q0-.735-.625-1.266-.625-.547-1.578-.547-1 0-1.562.437-.547.422-.547 1.125 0 .64.515.985.516.328 1.875.64 1.36.297 2.188.719.844.406 1.25 1t.406 1.438q0 1.421-1.14 2.28-1.125.86-2.938.86-1.266 0-2.25-.453-.969-.453-1.531-1.25-.547-.813-.547-1.75h1.812q.047.906.72 1.438.687.53 1.796.53 1.031 0 1.64-.406.626-.421.626-1.109zm10 0q0-.734-.547-1.14-.547-.407-1.922-.704t-2.188-.703q-.796-.406-1.187-.969-.375-.578-.375-1.359 0-1.297 1.094-2.187 1.093-.907 2.812-.907 1.797 0 2.906.938 1.125.922 1.125 2.36h-1.828q0-.735-.625-1.266-.625-.547-1.578-.547-1 0-1.562.437-.547.422-.547 1.125 0 .64.515.985.516.328 1.875.64 1.36.297 2.188.719.844.406 1.25 1t.406 1.438q0 1.421-1.14 2.28-1.125.86-2.938.86-1.266 0-2.25-.453-.969-.453-1.531-1.25-.547-.813-.547-1.75h1.812q.047.906.72 1.438.687.53 1.796.53 1.031 0 1.64-.406.626-.421.626-1.109zm8.234 3q-2.14 0-3.5-1.406-1.344-1.422-1.344-3.781v-.344q0-1.563.594-2.797.61-1.234 1.688-1.938 1.078-.703 2.343-.703 2.063 0 3.203 1.36 1.141 1.36 1.141 3.89v.75h-7.156q.031 1.563.906 2.532.875.953 2.219.953.969 0 1.625-.39.672-.392 1.172-1.032l1.093.86q-1.328 2.046-3.984 2.046zm-.219-9.484q-1.093 0-1.843.797-.735.796-.907 2.234h5.282v-.14q-.079-1.376-.75-2.126-.657-.765-1.782-.765zm9.282-3.844v2.563h1.984v1.39h-1.984v6.547q0 .64.265.969.266.312.906.312.313 0 .86-.125v1.469q-.719.203-1.39.203-1.204 0-1.829-.734-.61-.735-.61-2.094v-6.547h-1.921v-1.39h1.922v-2.563h1.797zm10.703 10.328q0-.734-.547-1.14-.547-.407-1.922-.704t-2.188-.703q-.796-.406-1.187-.969-.375-.578-.375-1.359 0-1.297 1.094-2.187 1.093-.907 2.812-.907 1.797 0 2.906.938 1.125.922 1.125 2.36h-1.828q0-.735-.625-1.266-.625-.547-1.578-.547-1 0-1.562.437-.547.422-.547 1.125 0 .64.515.985.516.328 1.875.64 1.36.297 2.188.719.844.406 1.25 1t.406 1.438q0 1.421-1.14 2.28-1.125.86-2.938.86-1.266 0-2.25-.453-.969-.453-1.531-1.25-.547-.813-.547-1.75h1.812q.047.906.72 1.438.687.53 1.796.53 1.031 0 1.64-.406.626-.421.626-1.109zm10.812 2.797h-1.797V38.487h1.797V49.05zm-1.953-13.375q0-.438.266-.734.28-.313.797-.313.53 0 .796.313.282.296.282.734t-.282.734q-.265.297-.796.297-.516 0-.797-.297-.266-.297-.266-.734zm6.703 2.813l.063 1.328q1.203-1.532 3.156-1.532 3.36 0 3.375 3.782v6.984h-1.797v-7q-.016-1.14-.531-1.688-.5-.546-1.594-.546-.875 0-1.547.468-.656.47-1.031 1.235v7.531h-1.797V38.487h1.703zm15.985 0l.046 1.171q1.172-1.375 3.141-1.375 2.219 0 3.016 1.703.53-.765 1.375-1.234.843-.469 2-.469 3.468 0 3.53 3.688v7.078h-1.812v-6.969q0-1.14-.515-1.703-.516-.562-1.735-.562-1 0-1.671.609-.657.594-.766 1.61v7.015h-1.813v-6.922q0-2.312-2.265-2.312-1.781 0-2.422 1.515v7.719h-1.813V38.487h1.704zm19.765 7.921l2.453-7.922h1.938l-4.25 12.188q-.985 2.64-3.125 2.64l-.344-.03-.672-.126v-1.468l.485.046q.921 0 1.421-.375.516-.375.844-1.359l.406-1.078-3.765-10.438h1.969l2.64 7.922zm19.469-2.53q0 2.421-1.11 3.905-1.093 1.47-2.984 1.47-1.922 0-3.031-1.235v5.093h-1.797V38.487h1.64l.094 1.172q1.094-1.375 3.063-1.375 1.906 0 3.016 1.438 1.109 1.437 1.109 4v.156zm-1.813-.204q0-1.781-.765-2.813-.75-1.046-2.078-1.046-1.641 0-2.47 1.453v5.062q.813 1.438 2.485 1.438 1.297 0 2.063-1.032.765-1.03.765-3.062zm3.407 0q0-1.563.609-2.797.61-1.25 1.688-1.922 1.093-.672 2.5-.672 2.156 0 3.484 1.5 1.344 1.485 1.344 3.97v.124q0 1.547-.594 2.781-.594 1.22-1.703 1.907-1.094.687-2.516.687-2.14 0-3.484-1.5-1.328-1.5-1.328-3.953v-.125zm1.812.203q0 1.766.813 2.828.828 1.063 2.187 1.063 1.375 0 2.188-1.078.812-1.079.812-3.016 0-1.75-.828-2.828-.828-1.078-2.188-1.078-1.343 0-2.171 1.062-.813 1.063-.813 3.047zm14.766-3.781q-.406-.063-.875-.063-1.781 0-2.422 1.516v7.5h-1.797V38.487h1.75l.031 1.22q.89-1.423 2.516-1.423.531 0 .797.141v1.672zm4.344-4.172v2.563h1.984v1.39h-1.984v6.547q0 .64.265.969.266.312.906.312.313 0 .86-.125v1.469q-.719.203-1.39.203-1.204 0-1.829-.734-.61-.735-.61-2.094v-6.547h-1.921v-1.39h1.922v-2.563h1.797zM330.3 49.05v-9.172h-1.656v-1.39h1.656v-1.094q0-1.688.906-2.61.922-.937 2.578-.937.625 0 1.235.156l-.094 1.469q-.453-.078-.969-.078-.89 0-1.375.515-.469.5-.469 1.453v1.125h2.25v1.391h-2.25v9.172H330.3zm5.64-5.375q0-1.563.61-2.797.61-1.25 1.688-1.922 1.093-.672 2.5-.672 2.156 0 3.484 1.5 1.344 1.485 1.344 3.97v.124q0 1.547-.594 2.781-.594 1.22-1.703 1.907-1.094.687-2.516.687-2.14 0-3.484-1.5-1.328-1.5-1.328-3.953v-.125zm1.813.203q0 1.766.813 2.828.828 1.063 2.187 1.063 1.375 0 2.188-1.078.812-1.079.812-3.016 0-1.75-.828-2.828-.828-1.078-2.188-1.078-1.343 0-2.171 1.062-.813 1.063-.813 3.047zm11.625 5.172h-1.797v-15h1.797v15zm5 0h-1.797V38.487h1.797V49.05zm-1.953-13.375q0-.438.266-.734.28-.313.797-.313.53 0 .796.313.282.296.282.734t-.282.734q-.265.297-.796.297-.516 0-.797-.297-.266-.297-.266-.734zm4.516 8q0-1.563.609-2.797.61-1.25 1.688-1.922 1.093-.672 2.5-.672 2.156 0 3.484 1.5 1.344 1.485 1.344 3.97v.124q0 1.547-.594 2.781-.594 1.22-1.703 1.907-1.094.687-2.516.687-2.14 0-3.484-1.5-1.328-1.5-1.328-3.953v-.125zm1.812.203q0 1.766.813 2.828.828 1.063 2.187 1.063 1.375 0 2.188-1.078.812-1.079.812-3.016 0-1.75-.828-2.828-.828-1.078-2.188-1.078-1.343 0-2.171 1.062-.813 1.063-.813 3.047zm14.219-.203q0-2.422 1.156-3.906 1.156-1.485 3.016-1.485t2.937 1.266v-5.5h1.813v15h-1.656l-.094-1.14q-1.078 1.343-3.016 1.343-1.828 0-3-1.5-1.156-1.516-1.156-3.937v-.141zm1.812.203q0 1.797.735 2.813.75 1.015 2.062 1.015 1.719 0 2.5-1.531v-4.86q-.797-1.5-2.484-1.5-1.328 0-2.078 1.032-.735 1.031-.735 3.031zm16.157 4.125q-1.047 1.25-3.094 1.25-1.688 0-2.578-.984-.875-.985-.89-2.907v-6.875h1.812v6.829q0 2.39 1.953 2.39 2.062 0 2.75-1.531v-7.688h1.812V49.05h-1.719l-.046-1.047zm9.578-7.906q-.406-.063-.875-.063-1.781 0-2.422 1.516v7.5h-1.797V38.487h1.75l.031 1.22q.89-1.423 2.516-1.423.531 0 .797.141v1.672zm3.86 8.953h-1.798V38.487h1.797V49.05zm-1.954-13.375q0-.438.266-.734.28-.313.797-.313.53 0 .796.313.282.296.282.734t-.282.734q-.265.297-.796.297-.516 0-.797-.297-.266-.297-.266-.734zm6.703 2.813l.063 1.328q1.203-1.532 3.156-1.532 3.36 0 3.375 3.782v6.984h-1.797v-7q-.016-1.14-.531-1.688-.5-.546-1.594-.546-.875 0-1.547.468-.656.47-1.031 1.235v7.531h-1.797V38.487h1.703zm8.86 5.187q0-2.469 1.14-3.922 1.14-1.469 3.031-1.469 1.938 0 3.016 1.375l.094-1.172h1.64V48.8q0 2.047-1.218 3.219-1.203 1.187-3.266 1.187-1.14 0-2.234-.484-1.094-.485-1.672-1.344l.937-1.078q1.172 1.438 2.844 1.438 1.328 0 2.063-.75.734-.735.734-2.079v-.922q-1.078 1.266-2.953 1.266-1.86 0-3.016-1.5-1.14-1.5-1.14-4.078zm1.812.203q0 1.797.734 2.813.735 1.015 2.047 1.015 1.719 0 2.516-1.547v-4.828q-.828-1.515-2.484-1.515-1.329 0-2.079 1.03-.734 1.032-.734 3.032zm23.75 5.172h-9.313v-1.297l4.922-5.469q1.094-1.25 1.5-2.015.422-.782.422-1.61 0-1.109-.672-1.828-.671-.719-1.796-.719-1.36 0-2.11.782-.734.765-.734 2.125h-1.813q0-1.969 1.266-3.172 1.266-1.219 3.39-1.219 1.985 0 3.125 1.047 1.157 1.047 1.157 2.766 0 2.109-2.672 5l-3.813 4.14h7.141v1.469zm10.594-6.063q0 3.172-1.078 4.72-1.078 1.546-3.391 1.546-2.281 0-3.375-1.516-1.094-1.515-1.125-4.515v-2.406q0-3.141 1.078-4.657 1.094-1.53 3.406-1.53 2.297 0 3.375 1.483 1.079 1.47 1.11 4.532v2.343zm-1.797-2.468q0-2.297-.656-3.344-.641-1.063-2.032-1.063-1.39 0-2.03 1.047-.626 1.047-.642 3.22v2.89q0 2.297.657 3.406.672 1.094 2.031 1.094 1.344 0 1.984-1.032.657-1.03.688-3.265v-2.953zm9.828 8.531h-1.828V37.003l-3.64 1.344v-1.64l5.187-1.938h.281V49.05zm11.984-6.25q-.562.672-1.359 1.094-.781.406-1.719.406-1.234 0-2.156-.61-.906-.609-1.406-1.703-.485-1.109-.485-2.437 0-1.422.532-2.563.547-1.14 1.53-1.75 1-.609 2.329-.609 2.11 0 3.328 1.578 1.219 1.578 1.219 4.313v.515q0 4.157-1.64 6.063-1.641 1.906-4.954 1.969h-.344v-1.532h.375q2.235-.03 3.438-1.156 1.203-1.14 1.312-3.578zm-2.78 0q.905 0 1.671-.547.766-.562 1.11-1.39v-.72q0-1.78-.766-2.89t-1.953-1.11q-1.188 0-1.922.923-.719.906-.719 2.39 0 1.453.703 2.406.703.938 1.875.938z"/></svg>