<svg version="1.1" viewBox="0.0 0.0 794.0 491.0" fill="none" stroke="none" stroke-linecap="square" stroke-miterlimit="10" width="794" height="491" xmlns:xlink="http://www.w3.org/1999/xlink" xmlns="http://www.w3.org/2000/svg"><path fill="#ffffff" d="M0 0L794.0 0L794.0 491.0L0 491.0L0 0Z" fill-rule="nonzero"/><path stroke="#cccccc" stroke-width="1.0" stroke-linecap="butt" d="M128.5 72.5L128.5 445.5" fill-rule="nonzero"/><path stroke="#cccccc" stroke-width="1.0" stroke-linecap="butt" d="M316.5 72.5L316.5 445.5" fill-rule="nonzero"/><path stroke="#cccccc" stroke-width="1.0" stroke-linecap="butt" d="M500.5 72.5L500.5 445.5" fill-rule="nonzero"/><path stroke="#cccccc" stroke-width="1.0" stroke-linecap="butt" d="M687.5 72.5L687.5 445.5" fill-rule="nonzero"/><path stroke="#cccccc" stroke-width="1.0" stroke-linecap="butt" d="M66.5 445.5L687.5 445.5" fill-rule="nonzero"/><path stroke="#cccccc" stroke-width="1.0" stroke-linecap="butt" d="M66.5 370.5L687.5 370.5" fill-rule="nonzero"/><path stroke="#333333" stroke-width="1.0" stroke-linecap="butt" d="M66.5 296.5L687.5 296.5" fill-rule="nonzero"/><path stroke="#cccccc" stroke-width="1.0" stroke-linecap="butt" d="M66.5 221.5L687.5 221.5" fill-rule="nonzero"/><path stroke="#cccccc" stroke-width="1.0" stroke-linecap="butt" d="M66.5 147.5L687.5 147.5" fill-rule="nonzero"/><path stroke="#cccccc" stroke-width="1.0" stroke-linecap="butt" d="M66.5 72.5L687.5 72.5" fill-rule="nonzero"/><clipPath id="id_0"><path d="M66.55 72.416664L687.6811 72.416664L687.6811 445.45L66.55 445.45L66.55 72.416664Z" clip-rule="nonzero"/></clipPath><path stroke="#4285f4" stroke-width="2.0" stroke-linecap="butt" clip-path="url(#id_0)" d="M531.8892 296.23666C531.8892 296.23666 553.2724 277.77377 563.4549 275.76822C573.6374 273.76266 583.8198 281.4795 594.0023 283.54306C604.1848 285.60663 615.3855 286.66272 625.568 288.30316C635.7505 289.9436 645.933 291.95 656.1154 293.53928C666.2979 295.12854 687.6811 297.98203 687.6811 297.98203" fill-rule="nonzero"/><path stroke="#db4437" stroke-width="2.0" stroke-linecap="butt" clip-path="url(#id_0)" d="M66.55 296.23666C66.55 296.23666 87.933205 273.88727 98.11568 269.26044C108.29816 264.6336 118.48064 270.92432 128.66312 267.60544C138.84558 264.2866 149.7069 254.5035 160.22879 248.73863C170.75069 242.97377 181.612 236.46239 191.79446 233.01628C201.97694 229.57019 212.15942 222.0587 222.3419 227.55484C232.52438 233.051 243.7251 261.41974 253.90758 267.27444C264.09006 273.12918 274.27252 254.55956 284.45502 263.96448C294.63748 273.36942 305.4988 324.2335 316.0207 325.69537C326.54257 327.1573 338.08273 285.78357 347.58636 272.7359C357.09003 259.68823 366.59366 250.34912 376.09732 242.2842C385.60095 234.21927 397.4805 230.62012 407.663 222.4244C417.84546 214.22867 428.02795 190.92186 438.21042 192.4692C448.39288 194.01651 459.59363 231.71721 469.7761 233.01628C479.9586 234.31537 490.14105 211.75064 500.32352 201.5716C510.506 191.39256 521.3673 173.60237 531.8892 170.95439C542.41113 168.30643 553.2724 187.99718 563.4549 185.68375C573.6374 183.37033 583.8198 162.0513 594.0023 157.54903C604.1848 153.04677 615.3855 165.00269 625.568 158.70752C635.7505 152.41235 645.933 127.28507 656.1154 119.8154C666.2979 112.345726 687.6811 113.69196 687.6811 113.69196" fill-rule="nonzero"/><path stroke="#f4b400" stroke-width="2.0" stroke-linecap="butt" clip-path="url(#id_0)" d="M191.79446 296.23666C191.79446 296.23666 212.15942 295.71686 222.3419 305.9049C232.52438 316.09296 243.7251 351.3093 253.90758 359.0803C264.09006 366.8513 274.27252 345.43558 284.45502 354.24615C294.63748 363.05676 305.4988 412.25568 316.0207 413.86703C326.54257 415.47842 338.08273 377.07397 347.58636 363.91443C357.09003 350.75485 366.59366 336.44308 376.09732 330.07553C385.60095 323.708 397.4805 330.04956 407.663 325.24142C417.84546 320.4333 428.02795 297.56216 438.21042 301.0708C448.39288 304.57944 459.59363 344.5606 469.7761 347.80066C479.9586 351.04074 490.14105 329.95425 500.32352 322.01868C510.506 314.08307 521.3673 299.19086 531.8892 299.4594C542.41113 299.72797 553.2724 323.49142 563.4549 323.63004C573.6374 323.76865 583.8198 305.09058 594.0023 301.0708C604.1848 297.05103 615.3855 305.35913 625.568 299.4594C635.7505 293.5597 645.933 273.85934 656.1154 265.62054C666.2979 257.38174 687.6811 249.50679 687.6811 249.50679" fill-rule="nonzero"/><path stroke="#0f9d58" stroke-width="2.0" stroke-linecap="butt" clip-path="url(#id_0)" d="M66.55 296.23666C66.55 296.23666 87.933205 287.0907 98.11568 292.6091C108.29816 298.12753 118.48064 326.86005 128.66312 329.23013C138.84558 331.6002 149.7069 306.28442 160.22879 306.0829C170.75069 305.88135 181.612 323.7052 191.79446 328.02094C201.97694 332.33667 212.15942 325.1373 222.3419 332.68494C232.52438 340.23257 243.7251 373.1016 253.90758 374.6609C264.09006 376.2202 274.27252 344.95602 284.45502 343.39484C294.63748 341.83368 305.4988 372.04102 316.0207 366.02386C326.54257 360.00674 338.08273 315.9319 347.58636 307.29205C357.09003 298.65225 366.59366 311.03012 376.09732 308.50125C385.60095 305.97235 397.4805 296.22552 407.663 290.3635C417.84546 284.50146 428.02795 266.59772 438.21042 272.74396C448.39288 278.89017 459.59363 325.128 469.7761 329.05737C479.9586 332.98676 490.14105 303.9032 500.32352 298.1368C510.506 292.37042 521.3673 290.42108 531.8892 294.33652C542.41113 298.25198 553.2724 321.1141 563.4549 321.62955C573.6374 322.14496 583.8198 303.42212 594.0023 298.30954C604.1848 293.197 615.3855 293.63348 625.568 290.70895C635.7505 287.78445 645.933 292.21814 656.1154 280.51727C666.2979 268.8164 687.6811 218.50339 687.6811 218.50339" fill-rule="nonzero"/><path stroke="#ff6d00" stroke-width="2.0" stroke-linecap="butt" clip-path="url(#id_0)" d="M66.55 296.23666C66.55 296.23666 87.933205 265.73618 98.11568 257.55283C108.29816 249.36946 118.48064 248.73758 128.66312 245.88861C138.84558 243.03963 149.7069 243.1325 160.22879 240.27797C170.75069 237.42345 181.612 226.70624 191.79446 228.76141C201.97694 230.81657 212.15942 247.94377 222.3419 252.23749C232.52438 256.5312 243.7251 257.36865 253.90758 254.59985C264.09006 251.83105 274.27252 231.51593 284.45502 235.70088C294.63748 239.88583 305.4988 286.5411 316.0207 281.17654C326.54257 275.81198 338.08273 216.73045 347.58636 203.51357C357.09003 190.29666 366.59366 202.19742 376.09732 194.35936C385.60095 186.5213 397.4805 156.90195 407.663 152.42726C417.84546 147.95256 428.02795 164.32246 438.21042 166.15855C448.39288 167.99463 459.59363 163.58423 469.7761 163.35323C479.9586 163.12224 490.14105 168.50902 500.32352 164.68207C510.506 160.85512 521.3673 147.6779 531.8892 139.58186C542.41113 131.48581 553.2724 125.133766 563.4549 116.10579C573.6374 107.07781 583.8198 89.826775 594.0023 84.65671C604.1848 79.48663 615.3855 85.17586 625.568 85.099655C635.7505 85.023445 645.933 81.265564 656.1154 84.21376C666.2979 87.161964 687.6811 103.408035 687.6811 103.408035" fill-rule="nonzero"/><path fill="#000000" fill-opacity="0.0" clip-path="url(#id_0)" d="M534.8892 296.23666C534.8892 297.89352 533.5461 299.23666 531.8892 299.23666C530.23236 299.23666 528.8892 297.89352 528.8892 296.23666C528.8892 294.5798 530.23236 293.23666 531.8892 293.23666C533.5461 293.23666 534.8892 294.5798 534.8892 296.23666Z" fill-rule="nonzero"/><path fill="#000000" fill-opacity="0.0" clip-path="url(#id_0)" d="M566.4549 275.76822C566.4549 277.42508 565.11176 278.76822 563.4549 278.76822C561.79803 278.76822 560.4549 277.42508 560.4549 275.76822C560.4549 274.11136 561.79803 272.76822 563.4549 272.76822C565.11176 272.76822 566.4549 274.11136 566.4549 275.76822Z" fill-rule="nonzero"/><path fill="#000000" fill-opacity="0.0" clip-path="url(#id_0)" d="M597.0023 283.54306C597.0023 285.19992 595.6592 286.54306 594.0023 286.54306C592.34546 286.54306 591.0023 285.19992 591.0023 283.54306C591.0023 281.8862 592.34546 280.54306 594.0023 280.54306C595.6592 280.54306 597.0023 281.8862 597.0023 283.54306Z" fill-rule="nonzero"/><path fill="#000000" fill-opacity="0.0" clip-path="url(#id_0)" d="M628.568 288.30316C628.568 289.96002 627.22485 291.30316 625.568 291.30316C623.91113 291.30316 622.568 289.96002 622.568 288.30316C622.568 286.6463 623.91113 285.30316 625.568 285.30316C627.22485 285.30316 628.568 286.6463 628.568 288.30316Z" fill-rule="nonzero"/><path fill="#000000" fill-opacity="0.0" clip-path="url(#id_0)" d="M659.1154 293.53928C659.1154 295.19614 657.7723 296.53928 656.1154 296.53928C654.45856 296.53928 653.1154 295.19614 653.1154 293.53928C653.1154 291.88242 654.45856 290.53928 656.1154 290.53928C657.7723 290.53928 659.1154 291.88242 659.1154 293.53928Z" fill-rule="nonzero"/><path fill="#000000" fill-opacity="0.0" clip-path="url(#id_0)" d="M690.6811 297.98203C690.6811 299.6389 689.33795 300.98203 687.6811 300.98203C686.02423 300.98203 684.6811 299.6389 684.6811 297.98203C684.6811 296.3252 686.02423 294.98203 687.6811 294.98203C689.33795 294.98203 690.6811 296.3252 690.6811 297.98203Z" fill-rule="nonzero"/><path fill="#000000" fill-opacity="0.0" clip-path="url(#id_0)" d="M69.55 296.23666C69.55 297.89352 68.206856 299.23666 66.55 299.23666C64.89314 299.23666 63.55 297.89352 63.55 296.23666C63.55 294.5798 64.89314 293.23666 66.55 293.23666C68.206856 293.23666 69.55 294.5798 69.55 296.23666Z" fill-rule="nonzero"/><path fill="#000000" fill-opacity="0.0" clip-path="url(#id_0)" d="M101.11568 269.26044C101.11568 270.9173 99.77254 272.26044 98.11568 272.26044C96.458824 272.26044 95.11568 270.9173 95.11568 269.26044C95.11568 267.60358 96.458824 266.26044 98.11568 266.26044C99.77254 266.26044 101.11568 267.60358 101.11568 269.26044Z" fill-rule="nonzero"/><path fill="#000000" fill-opacity="0.0" clip-path="url(#id_0)" d="M131.66312 267.60544C131.66312 269.2623 130.31996 270.60544 128.66312 270.60544C127.006256 270.60544 125.66311 269.2623 125.66311 267.60544C125.66311 265.9486 127.006256 264.60544 128.66312 264.60544C130.31996 264.60544 131.66312 265.9486 131.66312 267.60544Z" fill-rule="nonzero"/><path fill="#000000" fill-opacity="0.0" clip-path="url(#id_0)" d="M163.22879 248.73863C163.22879 250.3955 161.88565 251.73863 160.22879 251.73863C158.57193 251.73863 157.22879 250.3955 157.22879 248.73863C157.22879 247.08177 158.57193 245.73863 160.22879 245.73863C161.88565 245.73863 163.22879 247.08177 163.22879 248.73863Z" fill-rule="nonzero"/><path fill="#000000" fill-opacity="0.0" clip-path="url(#id_0)" d="M194.79446 233.01628C194.79446 234.67314 193.45132 236.01628 191.79446 236.01628C190.13762 236.01628 188.79446 234.67314 188.79446 233.01628C188.79446 231.35944 190.13762 230.01628 191.79446 230.01628C193.45132 230.01628 194.79446 231.35944 194.79446 233.01628Z" fill-rule="nonzero"/><path fill="#000000" fill-opacity="0.0" clip-path="url(#id_0)" d="M225.3419 227.55484C225.3419 229.2117 223.99875 230.55484 222.3419 230.55484C220.68504 230.55484 219.3419 229.2117 219.3419 227.55484C219.3419 225.898 220.68504 224.55484 222.3419 224.55484C223.99875 224.55484 225.3419 225.898 225.3419 227.55484Z" fill-rule="nonzero"/><path fill="#000000" fill-opacity="0.0" clip-path="url(#id_0)" d="M256.9076 267.27444C256.9076 268.9313 255.56444 270.27444 253.90758 270.27444C252.25073 270.27444 250.90758 268.9313 250.90758 267.27444C250.90758 265.61758 252.25073 264.27444 253.90758 264.27444C255.56444 264.27444 256.9076 265.61758 256.9076 267.27444Z" fill-rule="nonzero"/><path fill="#000000" fill-opacity="0.0" clip-path="url(#id_0)" d="M287.45502 263.96448C287.45502 265.62134 286.11188 266.96448 284.45502 266.96448C282.79816 266.96448 281.45502 265.62134 281.45502 263.96448C281.45502 262.30762 282.79816 260.96448 284.45502 260.96448C286.11188 260.96448 287.45502 262.30762 287.45502 263.96448Z" fill-rule="nonzero"/><path fill="#000000" fill-opacity="0.0" clip-path="url(#id_0)" d="M319.0207 325.69537C319.0207 327.35223 317.67755 328.69537 316.0207 328.69537C314.36383 328.69537 313.0207 327.35223 313.0207 325.69537C313.0207 324.0385 314.36383 322.69537 316.0207 322.69537C317.67755 322.69537 319.0207 324.0385 319.0207 325.69537Z" fill-rule="nonzero"/><path fill="#000000" fill-opacity="0.0" clip-path="url(#id_0)" d="M350.58636 272.7359C350.58636 274.39276 349.24323 275.7359 347.58636 275.7359C345.9295 275.7359 344.58636 274.39276 344.58636 272.7359C344.58636 271.07904 345.9295 269.7359 347.58636 269.7359C349.24323 269.7359 350.58636 271.07904 350.58636 272.7359Z" fill-rule="nonzero"/><path fill="#000000" fill-opacity="0.0" clip-path="url(#id_0)" d="M379.09732 242.2842C379.09732 243.94106 377.75415 245.2842 376.09732 245.2842C374.44046 245.2842 373.09732 243.94106 373.09732 242.2842C373.09732 240.62735 374.44046 239.2842 376.09732 239.2842C377.75415 239.2842 379.09732 240.62735 379.09732 242.2842Z" fill-rule="nonzero"/><path fill="#000000" fill-opacity="0.0" clip-path="url(#id_0)" d="M410.663 222.4244C410.663 224.08125 409.31985 225.4244 407.663 225.4244C406.00613 225.4244 404.663 224.08125 404.663 222.4244C404.663 220.76753 406.00613 219.4244 407.663 219.4244C409.31985 219.4244 410.663 220.76753 410.663 222.4244Z" fill-rule="nonzero"/><path fill="#000000" fill-opacity="0.0" clip-path="url(#id_0)" d="M441.21042 192.4692C441.21042 194.12604 439.86728 195.4692 438.21042 195.4692C436.55356 195.4692 435.21042 194.12604 435.21042 192.4692C435.21042 190.81233 436.55356 189.4692 438.21042 189.4692C439.86728 189.4692 441.21042 190.81233 441.21042 192.4692Z" fill-rule="nonzero"/><path fill="#000000" fill-opacity="0.0" clip-path="url(#id_0)" d="M472.7761 233.01628C472.7761 234.67314 471.43295 236.01628 469.7761 236.01628C468.11923 236.01628 466.7761 234.67314 466.7761 233.01628C466.7761 231.35944 468.11923 230.01628 469.7761 230.01628C471.43295 230.01628 472.7761 231.35944 472.7761 233.01628Z" fill-rule="nonzero"/><path fill="#000000" fill-opacity="0.0" clip-path="url(#id_0)" d="M503.32352 201.5716C503.32352 203.22845 501.98038 204.5716 500.32352 204.5716C498.6667 204.5716 497.32352 203.22845 497.32352 201.5716C497.32352 199.91475 498.6667 198.5716 500.32352 198.5716C501.98038 198.5716 503.32352 199.91475 503.32352 201.5716Z" fill-rule="nonzero"/><path fill="#000000" fill-opacity="0.0" clip-path="url(#id_0)" d="M534.8892 170.95439C534.8892 172.61125 533.5461 173.95439 531.8892 173.95439C530.23236 173.95439 528.8892 172.61125 528.8892 170.95439C528.8892 169.29755 530.23236 167.95439 531.8892 167.95439C533.5461 167.95439 534.8892 169.29755 534.8892 170.95439Z" fill-rule="nonzero"/><path fill="#000000" fill-opacity="0.0" clip-path="url(#id_0)" d="M566.4549 185.68375C566.4549 187.3406 565.11176 188.68375 563.4549 188.68375C561.79803 188.68375 560.4549 187.3406 560.4549 185.68375C560.4549 184.0269 561.79803 182.68375 563.4549 182.68375C565.11176 182.68375 566.4549 184.0269 566.4549 185.68375Z" fill-rule="nonzero"/><path fill="#000000" fill-opacity="0.0" clip-path="url(#id_0)" d="M597.0023 157.54903C597.0023 159.20589 595.6592 160.54903 594.0023 160.54903C592.34546 160.54903 591.0023 159.20589 591.0023 157.54903C591.0023 155.89218 592.34546 154.54903 594.0023 154.54903C595.6592 154.54903 597.0023 155.89218 597.0023 157.54903Z" fill-rule="nonzero"/><path fill="#000000" fill-opacity="0.0" clip-path="url(#id_0)" d="M628.568 158.70752C628.568 160.36438 627.22485 161.70752 625.568 161.70752C623.91113 161.70752 622.568 160.36438 622.568 158.70752C622.568 157.05066 623.91113 155.70752 625.568 155.70752C627.22485 155.70752 628.568 157.05066 628.568 158.70752Z" fill-rule="nonzero"/><path fill="#000000" fill-opacity="0.0" clip-path="url(#id_0)" d="M659.1154 119.8154C659.1154 121.47225 657.7723 122.8154 656.1154 122.8154C654.45856 122.8154 653.1154 121.47225 653.1154 119.8154C653.1154 118.15855 654.45856 116.8154 656.1154 116.8154C657.7723 116.8154 659.1154 118.15855 659.1154 119.8154Z" fill-rule="nonzero"/><path fill="#000000" fill-opacity="0.0" clip-path="url(#id_0)" d="M690.6811 113.69196C690.6811 115.348816 689.33795 116.69196 687.6811 116.69196C686.02423 116.69196 684.6811 115.348816 684.6811 113.69196C684.6811 112.03511 686.02423 110.69196 687.6811 110.69196C689.33795 110.69196 690.6811 112.03511 690.6811 113.69196Z" fill-rule="nonzero"/><path fill="#000000" fill-opacity="0.0" clip-path="url(#id_0)" d="M194.79446 296.23666C194.79446 297.89352 193.45132 299.23666 191.79446 299.23666C190.13762 299.23666 188.79446 297.89352 188.79446 296.23666C188.79446 294.5798 190.13762 293.23666 191.79446 293.23666C193.45132 293.23666 194.79446 294.5798 194.79446 296.23666Z" fill-rule="nonzero"/><path fill="#000000" fill-opacity="0.0" clip-path="url(#id_0)" d="M225.3419 305.9049C225.3419 307.56177 223.99875 308.9049 222.3419 308.9049C220.68504 308.9049 219.3419 307.56177 219.3419 305.9049C219.3419 304.24808 220.68504 302.9049 222.3419 302.9049C223.99875 302.9049 225.3419 304.24808 225.3419 305.9049Z" fill-rule="nonzero"/><path fill="#000000" fill-opacity="0.0" clip-path="url(#id_0)" d="M256.9076 359.0803C256.9076 360.73715 255.56444 362.0803 253.90758 362.0803C252.25073 362.0803 250.90758 360.73715 250.90758 359.0803C250.90758 357.42343 252.25073 356.0803 253.90758 356.0803C255.56444 356.0803 256.9076 357.42343 256.9076 359.0803Z" fill-rule="nonzero"/><path fill="#000000" fill-opacity="0.0" clip-path="url(#id_0)" d="M287.45502 354.24615C287.45502 355.903 286.11188 357.24615 284.45502 357.24615C282.79816 357.24615 281.45502 355.903 281.45502 354.24615C281.45502 352.58932 282.79816 351.24615 284.45502 351.24615C286.11188 351.24615 287.45502 352.58932 287.45502 354.24615Z" fill-rule="nonzero"/><path fill="#000000" fill-opacity="0.0" clip-path="url(#id_0)" d="M319.0207 413.86703C319.0207 415.5239 317.67755 416.86703 316.0207 416.86703C314.36383 416.86703 313.0207 415.5239 313.0207 413.86703C313.0207 412.2102 314.36383 410.86703 316.0207 410.86703C317.67755 410.86703 319.0207 412.2102 319.0207 413.86703Z" fill-rule="nonzero"/><path fill="#000000" fill-opacity="0.0" clip-path="url(#id_0)" d="M350.58636 363.91443C350.58636 365.5713 349.24323 366.91443 347.58636 366.91443C345.9295 366.91443 344.58636 365.5713 344.58636 363.91443C344.58636 362.25757 345.9295 360.91443 347.58636 360.91443C349.24323 360.91443 350.58636 362.25757 350.58636 363.91443Z" fill-rule="nonzero"/><path fill="#000000" fill-opacity="0.0" clip-path="url(#id_0)" d="M379.09732 330.07553C379.09732 331.7324 377.75415 333.07553 376.09732 333.07553C374.44046 333.07553 373.09732 331.7324 373.09732 330.07553C373.09732 328.4187 374.44046 327.07553 376.09732 327.07553C377.75415 327.07553 379.09732 328.4187 379.09732 330.07553Z" fill-rule="nonzero"/><path fill="#000000" fill-opacity="0.0" clip-path="url(#id_0)" d="M410.663 325.24142C410.663 326.8983 409.31985 328.24142 407.663 328.24142C406.00613 328.24142 404.663 326.8983 404.663 325.24142C404.663 323.58456 406.00613 322.24142 407.663 322.24142C409.31985 322.24142 410.663 323.58456 410.663 325.24142Z" fill-rule="nonzero"/><path fill="#000000" fill-opacity="0.0" clip-path="url(#id_0)" d="M441.21042 301.0708C441.21042 302.72766 439.86728 304.0708 438.21042 304.0708C436.55356 304.0708 435.21042 302.72766 435.21042 301.0708C435.21042 299.41394 436.55356 298.0708 438.21042 298.0708C439.86728 298.0708 441.21042 299.41394 441.21042 301.0708Z" fill-rule="nonzero"/><path fill="#000000" fill-opacity="0.0" clip-path="url(#id_0)" d="M472.7761 347.80066C472.7761 349.45752 471.43295 350.80066 469.7761 350.80066C468.11923 350.80066 466.7761 349.45752 466.7761 347.80066C466.7761 346.14383 468.11923 344.80066 469.7761 344.80066C471.43295 344.80066 472.7761 346.14383 472.7761 347.80066Z" fill-rule="nonzero"/><path fill="#000000" fill-opacity="0.0" clip-path="url(#id_0)" d="M503.32352 322.01868C503.32352 323.67554 501.98038 325.01868 500.32352 325.01868C498.6667 325.01868 497.32352 323.67554 497.32352 322.01868C497.32352 320.36182 498.6667 319.01868 500.32352 319.01868C501.98038 319.01868 503.32352 320.36182 503.32352 322.01868Z" fill-rule="nonzero"/><path fill="#000000" fill-opacity="0.0" clip-path="url(#id_0)" d="M534.8892 299.4594C534.8892 301.11627 533.5461 302.4594 531.8892 302.4594C530.23236 302.4594 528.8892 301.11627 528.8892 299.4594C528.8892 297.80255 530.23236 296.4594 531.8892 296.4594C533.5461 296.4594 534.8892 297.80255 534.8892 299.4594Z" fill-rule="nonzero"/><path fill="#000000" fill-opacity="0.0" clip-path="url(#id_0)" d="M566.4549 323.63004C566.4549 325.2869 565.11176 326.63004 563.4549 326.63004C561.79803 326.63004 560.4549 325.2869 560.4549 323.63004C560.4549 321.97318 561.79803 320.63004 563.4549 320.63004C565.11176 320.63004 566.4549 321.97318 566.4549 323.63004Z" fill-rule="nonzero"/><path fill="#000000" fill-opacity="0.0" clip-path="url(#id_0)" d="M597.0023 301.0708C597.0023 302.72766 595.6592 304.0708 594.0023 304.0708C592.34546 304.0708 591.0023 302.72766 591.0023 301.0708C591.0023 299.41394 592.34546 298.0708 594.0023 298.0708C595.6592 298.0708 597.0023 299.41394 597.0023 301.0708Z" fill-rule="nonzero"/><path fill="#000000" fill-opacity="0.0" clip-path="url(#id_0)" d="M628.568 299.4594C628.568 301.11627 627.22485 302.4594 625.568 302.4594C623.91113 302.4594 622.568 301.11627 622.568 299.4594C622.568 297.80255 623.91113 296.4594 625.568 296.4594C627.22485 296.4594 628.568 297.80255 628.568 299.4594Z" fill-rule="nonzero"/><path fill="#000000" fill-opacity="0.0" clip-path="url(#id_0)" d="M659.1154 265.62054C659.1154 267.2774 657.7723 268.62054 656.1154 268.62054C654.45856 268.62054 653.1154 267.2774 653.1154 265.62054C653.1154 263.96368 654.45856 262.62054 656.1154 262.62054C657.7723 262.62054 659.1154 263.96368 659.1154 265.62054Z" fill-rule="nonzero"/><path fill="#000000" fill-opacity="0.0" clip-path="url(#id_0)" d="M690.6811 249.50679C690.6811 251.16365 689.33795 252.50679 687.6811 252.50679C686.02423 252.50679 684.6811 251.16365 684.6811 249.50679C684.6811 247.84993 686.02423 246.50679 687.6811 246.50679C689.33795 246.50679 690.6811 247.84993 690.6811 249.50679Z" fill-rule="nonzero"/><path fill="#000000" fill-opacity="0.0" clip-path="url(#id_0)" d="M69.55 296.23666C69.55 297.89352 68.206856 299.23666 66.55 299.23666C64.89314 299.23666 63.55 297.89352 63.55 296.23666C63.55 294.5798 64.89314 293.23666 66.55 293.23666C68.206856 293.23666 69.55 294.5798 69.55 296.23666Z" fill-rule="nonzero"/><path fill="#000000" fill-opacity="0.0" clip-path="url(#id_0)" d="M101.11568 292.6091C101.11568 294.26596 99.77254 295.6091 98.11568 295.6091C96.458824 295.6091 95.11568 294.26596 95.11568 292.6091C95.11568 290.95227 96.458824 289.6091 98.11568 289.6091C99.77254 289.6091 101.11568 290.95227 101.11568 292.6091Z" fill-rule="nonzero"/><path fill="#000000" fill-opacity="0.0" clip-path="url(#id_0)" d="M131.66312 329.23013C131.66312 330.88696 130.31996 332.23013 128.66312 332.23013C127.006256 332.23013 125.66311 330.88696 125.66311 329.23013C125.66311 327.57327 127.006256 326.23013 128.66312 326.23013C130.31996 326.23013 131.66312 327.57327 131.66312 329.23013Z" fill-rule="nonzero"/><path fill="#000000" fill-opacity="0.0" clip-path="url(#id_0)" d="M163.22879 306.0829C163.22879 307.73975 161.88565 309.0829 160.22879 309.0829C158.57193 309.0829 157.22879 307.73975 157.22879 306.0829C157.22879 304.42603 158.57193 303.0829 160.22879 303.0829C161.88565 303.0829 163.22879 304.42603 163.22879 306.0829Z" fill-rule="nonzero"/><path fill="#000000" fill-opacity="0.0" clip-path="url(#id_0)" d="M194.79446 328.02094C194.79446 329.6778 193.45132 331.02094 191.79446 331.02094C190.13762 331.02094 188.79446 329.6778 188.79446 328.02094C188.79446 326.36407 190.13762 325.02094 191.79446 325.02094C193.45132 325.02094 194.79446 326.36407 194.79446 328.02094Z" fill-rule="nonzero"/><path fill="#000000" fill-opacity="0.0" clip-path="url(#id_0)" d="M225.3419 332.68494C225.3419 334.3418 223.99875 335.68494 222.3419 335.68494C220.68504 335.68494 219.3419 334.3418 219.3419 332.68494C219.3419 331.02808 220.68504 329.68494 222.3419 329.68494C223.99875 329.68494 225.3419 331.02808 225.3419 332.68494Z" fill-rule="nonzero"/><path fill="#000000" fill-opacity="0.0" clip-path="url(#id_0)" d="M256.9076 374.6609C256.9076 376.31775 255.56444 377.6609 253.90758 377.6609C252.25073 377.6609 250.90758 376.31775 250.90758 374.6609C250.90758 373.00406 252.25073 371.6609 253.90758 371.6609C255.56444 371.6609 256.9076 373.00406 256.9076 374.6609Z" fill-rule="nonzero"/><path fill="#000000" fill-opacity="0.0" clip-path="url(#id_0)" d="M287.45502 343.39484C287.45502 345.0517 286.11188 346.39484 284.45502 346.39484C282.79816 346.39484 281.45502 345.0517 281.45502 343.39484C281.45502 341.738 282.79816 340.39484 284.45502 340.39484C286.11188 340.39484 287.45502 341.738 287.45502 343.39484Z" fill-rule="nonzero"/><path fill="#000000" fill-opacity="0.0" clip-path="url(#id_0)" d="M319.0207 366.02386C319.0207 367.68073 317.67755 369.02386 316.0207 369.02386C314.36383 369.02386 313.0207 367.68073 313.0207 366.02386C313.0207 364.367 314.36383 363.02386 316.0207 363.02386C317.67755 363.02386 319.0207 364.367 319.0207 366.02386Z" fill-rule="nonzero"/><path fill="#000000" fill-opacity="0.0" clip-path="url(#id_0)" d="M350.58636 307.29205C350.58636 308.9489 349.24323 310.29205 347.58636 310.29205C345.9295 310.29205 344.58636 308.9489 344.58636 307.29205C344.58636 305.63522 345.9295 304.29205 347.58636 304.29205C349.24323 304.29205 350.58636 305.63522 350.58636 307.29205Z" fill-rule="nonzero"/><path fill="#000000" fill-opacity="0.0" clip-path="url(#id_0)" d="M379.09732 308.50125C379.09732 310.1581 377.75415 311.50125 376.09732 311.50125C374.44046 311.50125 373.09732 310.1581 373.09732 308.50125C373.09732 306.8444 374.44046 305.50125 376.09732 305.50125C377.75415 305.50125 379.09732 306.8444 379.09732 308.50125Z" fill-rule="nonzero"/><path fill="#000000" fill-opacity="0.0" clip-path="url(#id_0)" d="M410.663 290.3635C410.663 292.02036 409.31985 293.3635 407.663 293.3635C406.00613 293.3635 404.663 292.02036 404.663 290.3635C404.663 288.70663 406.00613 287.3635 407.663 287.3635C409.31985 287.3635 410.663 288.70663 410.663 290.3635Z" fill-rule="nonzero"/><path fill="#000000" fill-opacity="0.0" clip-path="url(#id_0)" d="M441.21042 272.74396C441.21042 274.4008 439.86728 275.74396 438.21042 275.74396C436.55356 275.74396 435.21042 274.4008 435.21042 272.74396C435.21042 271.0871 436.55356 269.74396 438.21042 269.74396C439.86728 269.74396 441.21042 271.0871 441.21042 272.74396Z" fill-rule="nonzero"/><path fill="#000000" fill-opacity="0.0" clip-path="url(#id_0)" d="M472.7761 329.05737C472.7761 330.71423 471.43295 332.05737 469.7761 332.05737C468.11923 332.05737 466.7761 330.71423 466.7761 329.05737C466.7761 327.4005 468.11923 326.05737 469.7761 326.05737C471.43295 326.05737 472.7761 327.4005 472.7761 329.05737Z" fill-rule="nonzero"/><path fill="#000000" fill-opacity="0.0" clip-path="url(#id_0)" d="M503.32352 298.1368C503.32352 299.79367 501.98038 301.1368 500.32352 301.1368C498.6667 301.1368 497.32352 299.79367 497.32352 298.1368C497.32352 296.47995 498.6667 295.1368 500.32352 295.1368C501.98038 295.1368 503.32352 296.47995 503.32352 298.1368Z" fill-rule="nonzero"/><path fill="#000000" fill-opacity="0.0" clip-path="url(#id_0)" d="M534.8892 294.33652C534.8892 295.99338 533.5461 297.33652 531.8892 297.33652C530.23236 297.33652 528.8892 295.99338 528.8892 294.33652C528.8892 292.67966 530.23236 291.33652 531.8892 291.33652C533.5461 291.33652 534.8892 292.67966 534.8892 294.33652Z" fill-rule="nonzero"/><path fill="#000000" fill-opacity="0.0" clip-path="url(#id_0)" d="M566.4549 321.62955C566.4549 323.28638 565.11176 324.62955 563.4549 324.62955C561.79803 324.62955 560.4549 323.28638 560.4549 321.62955C560.4549 319.9727 561.79803 318.62955 563.4549 318.62955C565.11176 318.62955 566.4549 319.9727 566.4549 321.62955Z" fill-rule="nonzero"/><path fill="#000000" fill-opacity="0.0" clip-path="url(#id_0)" d="M597.0023 298.30954C597.0023 299.9664 595.6592 301.30954 594.0023 301.30954C592.34546 301.30954 591.0023 299.9664 591.0023 298.30954C591.0023 296.6527 592.34546 295.30954 594.0023 295.30954C595.6592 295.30954 597.0023 296.6527 597.0023 298.30954Z" fill-rule="nonzero"/><path fill="#000000" fill-opacity="0.0" clip-path="url(#id_0)" d="M628.568 290.70895C628.568 292.3658 627.22485 293.70895 625.568 293.70895C623.91113 293.70895 622.568 292.3658 622.568 290.70895C622.568 289.05212 623.91113 287.70895 625.568 287.70895C627.22485 287.70895 628.568 289.05212 628.568 290.70895Z" fill-rule="nonzero"/><path fill="#000000" fill-opacity="0.0" clip-path="url(#id_0)" d="M659.1154 280.51727C659.1154 282.17413 657.7723 283.51727 656.1154 283.51727C654.45856 283.51727 653.1154 282.17413 653.1154 280.51727C653.1154 278.8604 654.45856 277.51727 656.1154 277.51727C657.7723 277.51727 659.1154 278.8604 659.1154 280.51727Z" fill-rule="nonzero"/><path fill="#000000" fill-opacity="0.0" clip-path="url(#id_0)" d="M690.6811 218.50339C690.6811 220.16025 689.33795 221.50339 687.6811 221.50339C686.02423 221.50339 684.6811 220.16025 684.6811 218.50339C684.6811 216.84654 686.02423 215.50339 687.6811 215.50339C689.33795 215.50339 690.6811 216.84654 690.6811 218.50339Z" fill-rule="nonzero"/><path fill="#000000" fill-opacity="0.0" clip-path="url(#id_0)" d="M69.55 296.23666C69.55 297.89352 68.206856 299.23666 66.55 299.23666C64.89314 299.23666 63.55 297.89352 63.55 296.23666C63.55 294.5798 64.89314 293.23666 66.55 293.23666C68.206856 293.23666 69.55 294.5798 69.55 296.23666Z" fill-rule="nonzero"/><path fill="#000000" fill-opacity="0.0" clip-path="url(#id_0)" d="M101.11568 257.55283C101.11568 259.2097 99.77254 260.55283 98.11568 260.55283C96.458824 260.55283 95.11568 259.2097 95.11568 257.55283C95.11568 255.89597 96.458824 254.55283 98.11568 254.55283C99.77254 254.55283 101.11568 255.89597 101.11568 257.55283Z" fill-rule="nonzero"/><path fill="#000000" fill-opacity="0.0" clip-path="url(#id_0)" d="M131.66312 245.88861C131.66312 247.54547 130.31996 248.88861 128.66312 248.88861C127.006256 248.88861 125.66311 247.54547 125.66311 245.88861C125.66311 244.23175 127.006256 242.88861 128.66312 242.88861C130.31996 242.88861 131.66312 244.23175 131.66312 245.88861Z" fill-rule="nonzero"/><path fill="#000000" fill-opacity="0.0" clip-path="url(#id_0)" d="M163.22879 240.27797C163.22879 241.93483 161.88565 243.27797 160.22879 243.27797C158.57193 243.27797 157.22879 241.93483 157.22879 240.27797C157.22879 238.62112 158.57193 237.27797 160.22879 237.27797C161.88565 237.27797 163.22879 238.62112 163.22879 240.27797Z" fill-rule="nonzero"/><path fill="#000000" fill-opacity="0.0" clip-path="url(#id_0)" d="M194.79446 228.76141C194.79446 230.41826 193.45132 231.76141 191.79446 231.76141C190.13762 231.76141 188.79446 230.41826 188.79446 228.76141C188.79446 227.10455 190.13762 225.76141 191.79446 225.76141C193.45132 225.76141 194.79446 227.10455 194.79446 228.76141Z" fill-rule="nonzero"/><path fill="#000000" fill-opacity="0.0" clip-path="url(#id_0)" d="M225.3419 252.23749C225.3419 253.89433 223.99875 255.23749 222.3419 255.23749C220.68504 255.23749 219.3419 253.89433 219.3419 252.23749C219.3419 250.58063 220.68504 249.23749 222.3419 249.23749C223.99875 249.23749 225.3419 250.58063 225.3419 252.23749Z" fill-rule="nonzero"/><path fill="#000000" fill-opacity="0.0" clip-path="url(#id_0)" d="M256.9076 254.59985C256.9076 256.2567 255.56444 257.59985 253.90758 257.59985C252.25073 257.59985 250.90758 256.2567 250.90758 254.59985C250.90758 252.94301 252.25073 251.59985 253.90758 251.59985C255.56444 251.59985 256.9076 252.94301 256.9076 254.59985Z" fill-rule="nonzero"/><path fill="#000000" fill-opacity="0.0" clip-path="url(#id_0)" d="M287.45502 235.70088C287.45502 237.35773 286.11188 238.70088 284.45502 238.70088C282.79816 238.70088 281.45502 237.35773 281.45502 235.70088C281.45502 234.04402 282.79816 232.70088 284.45502 232.70088C286.11188 232.70088 287.45502 234.04402 287.45502 235.70088Z" fill-rule="nonzero"/><path fill="#000000" fill-opacity="0.0" clip-path="url(#id_0)" d="M319.0207 281.17654C319.0207 282.8334 317.67755 284.17654 316.0207 284.17654C314.36383 284.17654 313.0207 282.8334 313.0207 281.17654C313.0207 279.51968 314.36383 278.17654 316.0207 278.17654C317.67755 278.17654 319.0207 279.51968 319.0207 281.17654Z" fill-rule="nonzero"/><path fill="#000000" fill-opacity="0.0" clip-path="url(#id_0)" d="M350.58636 203.51357C350.58636 205.17041 349.24323 206.51357 347.58636 206.51357C345.9295 206.51357 344.58636 205.17041 344.58636 203.51357C344.58636 201.8567 345.9295 200.51357 347.58636 200.51357C349.24323 200.51357 350.58636 201.8567 350.58636 203.51357Z" fill-rule="nonzero"/><path fill="#000000" fill-opacity="0.0" clip-path="url(#id_0)" d="M379.09732 194.35936C379.09732 196.01622 377.75415 197.35936 376.09732 197.35936C374.44046 197.35936 373.09732 196.01622 373.09732 194.35936C373.09732 192.70251 374.44046 191.35936 376.09732 191.35936C377.75415 191.35936 379.09732 192.70251 379.09732 194.35936Z" fill-rule="nonzero"/><path fill="#000000" fill-opacity="0.0" clip-path="url(#id_0)" d="M410.663 152.42726C410.663 154.0841 409.31985 155.42726 407.663 155.42726C406.00613 155.42726 404.663 154.0841 404.663 152.42726C404.663 150.7704 406.00613 149.42726 407.663 149.42726C409.31985 149.42726 410.663 150.7704 410.663 152.42726Z" fill-rule="nonzero"/><path fill="#000000" fill-opacity="0.0" clip-path="url(#id_0)" d="M441.21042 166.15855C441.21042 167.8154 439.86728 169.15855 438.21042 169.15855C436.55356 169.15855 435.21042 167.8154 435.21042 166.15855C435.21042 164.5017 436.55356 163.15855 438.21042 163.15855C439.86728 163.15855 441.21042 164.5017 441.21042 166.15855Z" fill-rule="nonzero"/><path fill="#000000" fill-opacity="0.0" clip-path="url(#id_0)" d="M472.7761 163.35323C472.7761 165.01009 471.43295 166.35323 469.7761 166.35323C468.11923 166.35323 466.7761 165.01009 466.7761 163.35323C466.7761 161.69638 468.11923 160.35323 469.7761 160.35323C471.43295 160.35323 472.7761 161.69638 472.7761 163.35323Z" fill-rule="nonzero"/><path fill="#000000" fill-opacity="0.0" clip-path="url(#id_0)" d="M503.32352 164.68207C503.32352 166.33891 501.98038 167.68207 500.32352 167.68207C498.6667 167.68207 497.32352 166.33891 497.32352 164.68207C497.32352 163.0252 498.6667 161.68207 500.32352 161.68207C501.98038 161.68207 503.32352 163.0252 503.32352 164.68207Z" fill-rule="nonzero"/><path fill="#000000" fill-opacity="0.0" clip-path="url(#id_0)" d="M534.8892 139.58186C534.8892 141.23871 533.5461 142.58186 531.8892 142.58186C530.23236 142.58186 528.8892 141.23871 528.8892 139.58186C528.8892 137.925 530.23236 136.58186 531.8892 136.58186C533.5461 136.58186 534.8892 137.925 534.8892 139.58186Z" fill-rule="nonzero"/><path fill="#000000" fill-opacity="0.0" clip-path="url(#id_0)" d="M566.4549 116.10579C566.4549 117.76264 565.11176 119.10579 563.4549 119.10579C561.79803 119.10579 560.4549 117.76264 560.4549 116.10579C560.4549 114.44894 561.79803 113.10579 563.4549 113.10579C565.11176 113.10579 566.4549 114.44894 566.4549 116.10579Z" fill-rule="nonzero"/><path fill="#000000" fill-opacity="0.0" clip-path="url(#id_0)" d="M597.0023 84.65671C597.0023 86.31356 595.6592 87.65671 594.0023 87.65671C592.34546 87.65671 591.0023 86.31356 591.0023 84.65671C591.0023 82.999855 592.34546 81.65671 594.0023 81.65671C595.6592 81.65671 597.0023 82.999855 597.0023 84.65671Z" fill-rule="nonzero"/><path fill="#000000" fill-opacity="0.0" clip-path="url(#id_0)" d="M628.568 85.099655C628.568 86.75651 627.22485 88.099655 625.568 88.099655C623.91113 88.099655 622.568 86.75651 622.568 85.099655C622.568 83.442795 623.91113 82.099655 625.568 82.099655C627.22485 82.099655 628.568 83.442795 628.568 85.099655Z" fill-rule="nonzero"/><path fill="#000000" fill-opacity="0.0" clip-path="url(#id_0)" d="M659.1154 84.21376C659.1154 85.87062 657.7723 87.21376 656.1154 87.21376C654.45856 87.21376 653.1154 85.87062 653.1154 84.21376C653.1154 82.55691 654.45856 81.21376 656.1154 81.21376C657.7723 81.21376 659.1154 82.55691 659.1154 84.21376Z" fill-rule="nonzero"/><path fill="#000000" fill-opacity="0.0" clip-path="url(#id_0)" d="M690.6811 103.408035C690.6811 105.06489 689.33795 106.408035 687.6811 106.408035C686.02423 106.408035 684.6811 105.06489 684.6811 103.408035C684.6811 101.75118 686.02423 100.408035 687.6811 100.408035C689.33795 100.408035 690.6811 101.75118 690.6811 103.408035Z" fill-rule="nonzero"/><path fill="#757575" d="M27.628124 446.7625L24.76875 446.7625L24.76875 445.8875L27.628124 445.8875L27.628124 446.7625ZM33.846874 449.95L28.253124 449.95L28.253124 449.16876L31.20625 445.8875Q31.8625 445.1375 32.1125 444.6844Q32.3625 444.21564 32.3625 443.71564Q32.3625 443.04376 31.95625 442.6219Q31.565624 442.1844 30.878124 442.1844Q30.08125 442.1844 29.628124 442.65314Q29.175 443.10626 29.175 443.9344L28.096874 443.9344Q28.096874 442.7469 28.846874 442.02814Q29.6125 441.29376 30.878124 441.29376Q32.08125 441.29376 32.76875 441.91876Q33.45625 442.54376 33.45625 443.59064Q33.45625 444.84064 31.846874 446.59064L29.565624 449.0594L33.846874 449.0594L33.846874 449.95ZM40.6125 446.3094Q40.6125 448.21564 39.95625 449.15314Q39.315624 450.075 37.925 450.075Q36.565624 450.075 35.909374 449.16876Q35.253124 448.2625 35.221874 446.45L35.221874 445.0125Q35.221874 443.1219 35.8625 442.21564Q36.51875 441.29376 37.909374 441.29376Q39.284374 441.29376 39.940624 442.1844Q40.596874 443.0594 40.6125 444.90314L40.6125 446.3094ZM39.51875 444.825Q39.51875 443.45 39.128124 442.825Q38.753124 442.1844 37.909374 442.1844Q37.08125 442.1844 36.690624 442.825Q36.315624 443.45 36.315624 444.7469L36.315624 446.48126Q36.315624 447.85626 36.70625 448.52814Q37.1125 449.1844 37.925 449.1844Q38.721874 449.1844 39.1125 448.5594Q39.503124 447.9344 39.51875 446.60626L39.51875 444.825ZM42.39375 449.3875Q42.39375 449.10626 42.55 448.91876Q42.721874 448.73126 43.05 448.73126Q43.39375 448.73126 43.565624 448.91876Q43.7375 449.10626 43.7375 449.3875Q43.7375 449.65314 43.565624 449.84064Q43.39375 450.0125 43.05 450.0125Q42.721874 450.0125 42.55 449.84064Q42.39375 449.65314 42.39375 449.3875ZM50.6125 446.3094Q50.6125 448.21564 49.95625 449.15314Q49.315624 450.075 47.925 450.075Q46.565624 450.075 45.909374 449.16876Q45.253124 448.2625 45.221874 446.45L45.221874 445.0125Q45.221874 443.1219 45.8625 442.21564Q46.51875 441.29376 47.909374 441.29376Q49.284374 441.29376 49.940624 442.1844Q50.596874 443.0594 50.6125 444.90314L50.6125 446.3094ZM49.51875 444.825Q49.51875 443.45 49.128124 442.825Q48.753124 442.1844 47.909374 442.1844Q47.08125 442.1844 46.690624 442.825Q46.315624 443.45 46.315624 444.7469L46.315624 446.48126Q46.315624 447.85626 46.70625 448.52814Q47.1125 449.1844 47.925 449.1844Q48.721874 449.1844 49.1125 448.5594Q49.503124 447.9344 49.51875 446.60626L49.51875 444.825ZM52.159374 443.0594Q52.159374 442.29376 52.64375 441.79376Q53.14375 441.29376 53.909374 441.29376Q54.690624 441.29376 55.175 441.79376Q55.659374 442.29376 55.659374 443.09064L55.659374 443.5125Q55.659374 444.27814 55.159374 444.77814Q54.675 445.2625 53.925 445.2625Q53.159374 445.2625 52.659374 444.77814Q52.159374 444.27814 52.159374 443.46564L52.159374 443.0594ZM52.971874 443.5125Q52.971874 443.96564 53.221874 444.2625Q53.4875 444.5594 53.925 444.5594Q54.346874 444.5594 54.596874 444.27814Q54.846874 443.98126 54.846874 443.48126L54.846874 443.0594Q54.846874 442.60626 54.596874 442.3094Q54.346874 441.9969 53.909374 441.9969Q53.471874 441.9969 53.221874 442.3094Q52.971874 442.60626 52.971874 443.075L52.971874 443.5125ZM56.315624 447.85626Q56.315624 447.09064 56.8 446.60626Q57.3 446.10626 58.065624 446.10626Q58.83125 446.10626 59.315624 446.60626Q59.815624 447.09064 59.815624 447.90314L59.815624 448.3094Q59.815624 449.075 59.33125 449.575Q58.846874 450.075 58.08125 450.075Q57.315624 450.075 56.815624 449.59064Q56.315624 449.09064 56.315624 448.27814L56.315624 447.85626ZM57.128124 448.3094Q57.128124 448.77814 57.378124 449.075Q57.64375 449.3719 58.08125 449.3719Q58.503124 449.3719 58.753124 449.09064Q59.003124 448.79376 59.003124 448.29376L59.003124 447.85626Q59.003124 447.3875 58.7375 447.10626Q58.4875 446.8094 58.065624 446.8094Q57.64375 446.8094 57.378124 447.10626Q57.128124 447.3875 57.128124 447.8875L57.128124 448.3094ZM54.175 449.3094L53.55 448.91876L57.721874 442.2469L58.33125 442.6375L54.175 449.3094Z" fill-rule="nonzero"/><path fill="#757575" d="M27.628124 372.15582L24.76875 372.15582L24.76875 371.28082L27.628124 371.28082L27.628124 372.15582ZM31.815624 375.34332L30.7375 375.34332L30.7375 368.12457L28.55 368.92145L28.55 367.93707L31.659374 366.7652L31.815624 366.7652L31.815624 375.34332ZM40.6125 371.7027Q40.6125 373.60895 39.95625 374.54645Q39.315624 375.46832 37.925 375.46832Q36.565624 375.46832 35.909374 374.56207Q35.253124 373.65582 35.221874 371.84332L35.221874 370.40582Q35.221874 368.5152 35.8625 367.60895Q36.51875 366.68707 37.909374 366.68707Q39.284374 366.68707 39.940624 367.5777Q40.596874 368.4527 40.6125 370.29645L40.6125 371.7027ZM39.51875 370.21832Q39.51875 368.84332 39.128124 368.21832Q38.753124 367.5777 37.909374 367.5777Q37.08125 367.5777 36.690624 368.21832Q36.315624 368.84332 36.315624 370.1402L36.315624 371.87457Q36.315624 373.24957 36.70625 373.92145Q37.1125 374.5777 37.925 374.5777Q38.721874 374.5777 39.1125 373.9527Q39.503124 373.3277 39.51875 371.99957L39.51875 370.21832ZM42.39375 374.78082Q42.39375 374.49957 42.55 374.31207Q42.721874 374.12457 43.05 374.12457Q43.39375 374.12457 43.565624 374.31207Q43.7375 374.49957 43.7375 374.78082Q43.7375 375.04645 43.565624 375.23395Q43.39375 375.40582 43.05 375.40582Q42.721874 375.40582 42.55 375.23395Q42.39375 375.04645 42.39375 374.78082ZM50.6125 371.7027Q50.6125 373.60895 49.95625 374.54645Q49.315624 375.46832 47.925 375.46832Q46.565624 375.46832 45.909374 374.56207Q45.253124 373.65582 45.221874 371.84332L45.221874 370.40582Q45.221874 368.5152 45.8625 367.60895Q46.51875 366.68707 47.909374 366.68707Q49.284374 366.68707 49.940624 367.5777Q50.596874 368.4527 50.6125 370.29645L50.6125 371.7027ZM49.51875 370.21832Q49.51875 368.84332 49.128124 368.21832Q48.753124 367.5777 47.909374 367.5777Q47.08125 367.5777 46.690624 368.21832Q46.315624 368.84332 46.315624 370.1402L46.315624 371.87457Q46.315624 373.24957 46.70625 373.92145Q47.1125 374.5777 47.925 374.5777Q48.721874 374.5777 49.1125 373.9527Q49.503124 373.3277 49.51875 371.99957L49.51875 370.21832ZM52.159374 368.4527Q52.159374 367.68707 52.64375 367.18707Q53.14375 366.68707 53.909374 366.68707Q54.690624 366.68707 55.175 367.18707Q55.659374 367.68707 55.659374 368.48395L55.659374 368.90582Q55.659374 369.67145 55.159374 370.17145Q54.675 370.65582 53.925 370.65582Q53.159374 370.65582 52.659374 370.17145Q52.159374 369.67145 52.159374 368.85895L52.159374 368.4527ZM52.971874 368.90582Q52.971874 369.35895 53.221874 369.65582Q53.4875 369.9527 53.925 369.9527Q54.346874 369.9527 54.596874 369.67145Q54.846874 369.37457 54.846874 368.87457L54.846874 368.4527Q54.846874 367.99957 54.596874 367.7027Q54.346874 367.3902 53.909374 367.3902Q53.471874 367.3902 53.221874 367.7027Q52.971874 367.99957 52.971874 368.46832L52.971874 368.90582ZM56.315624 373.24957Q56.315624 372.48395 56.8 371.99957Q57.3 371.49957 58.065624 371.49957Q58.83125 371.49957 59.315624 371.99957Q59.815624 372.48395 59.815624 373.29645L59.815624 373.7027Q59.815624 374.46832 59.33125 374.96832Q58.846874 375.46832 58.08125 375.46832Q57.315624 375.46832 56.815624 374.98395Q56.315624 374.48395 56.315624 373.67145L56.315624 373.24957ZM57.128124 373.7027Q57.128124 374.17145 57.378124 374.46832Q57.64375 374.7652 58.08125 374.7652Q58.503124 374.7652 58.753124 374.48395Q59.003124 374.18707 59.003124 373.68707L59.003124 373.24957Q59.003124 372.78082 58.7375 372.49957Q58.4875 372.2027 58.065624 372.2027Q57.64375 372.2027 57.378124 372.49957Q57.128124 372.78082 57.128124 373.28082L57.128124 373.7027ZM54.175 374.7027L53.55 374.31207L57.721874 367.6402L58.33125 368.03082L54.175 374.7027Z" fill-rule="nonzero"/><path fill="#757575" d="M40.6125 297.09604Q40.6125 299.0023 39.95625 299.9398Q39.315624 300.86166 37.925 300.86166Q36.565624 300.86166 35.909374 299.9554Q35.253124 299.04916 35.221874 297.23666L35.221874 295.79916Q35.221874 293.90854 35.8625 293.0023Q36.51875 292.0804 37.909374 292.0804Q39.284374 292.0804 39.940624 292.97104Q40.596874 293.84604 40.6125 295.6898L40.6125 297.09604ZM39.51875 295.61166Q39.51875 294.23666 39.128124 293.61166Q38.753124 292.97104 37.909374 292.97104Q37.08125 292.97104 36.690624 293.61166Q36.315624 294.23666 36.315624 295.53354L36.315624 297.2679Q36.315624 298.6429 36.70625 299.3148Q37.1125 299.97104 37.925 299.97104Q38.721874 299.97104 39.1125 299.34604Q39.503124 298.72104 39.51875 297.3929L39.51875 295.61166ZM42.39375 300.17416Q42.39375 299.8929 42.55 299.7054Q42.721874 299.5179 43.05 299.5179Q43.39375 299.5179 43.565624 299.7054Q43.7375 299.8929 43.7375 300.17416Q43.7375 300.4398 43.565624 300.6273Q43.39375 300.79916 43.05 300.79916Q42.721874 300.79916 42.55 300.6273Q42.39375 300.4398 42.39375 300.17416ZM50.6125 297.09604Q50.6125 299.0023 49.95625 299.9398Q49.315624 300.86166 47.925 300.86166Q46.565624 300.86166 45.909374 299.9554Q45.253124 299.04916 45.221874 297.23666L45.221874 295.79916Q45.221874 293.90854 45.8625 293.0023Q46.51875 292.0804 47.909374 292.0804Q49.284374 292.0804 49.940624 292.97104Q50.596874 293.84604 50.6125 295.6898L50.6125 297.09604ZM49.51875 295.61166Q49.51875 294.23666 49.128124 293.61166Q48.753124 292.97104 47.909374 292.97104Q47.08125 292.97104 46.690624 293.61166Q46.315624 294.23666 46.315624 295.53354L46.315624 297.2679Q46.315624 298.6429 46.70625 299.3148Q47.1125 299.97104 47.925 299.97104Q48.721874 299.97104 49.1125 299.34604Q49.503124 298.72104 49.51875 297.3929L49.51875 295.61166ZM52.159374 293.84604Q52.159374 293.0804 52.64375 292.5804Q53.14375 292.0804 53.909374 292.0804Q54.690624 292.0804 55.175 292.5804Q55.659374 293.0804 55.659374 293.8773L55.659374 294.29916Q55.659374 295.0648 55.159374 295.5648Q54.675 296.04916 53.925 296.04916Q53.159374 296.04916 52.659374 295.5648Q52.159374 295.0648 52.159374 294.2523L52.159374 293.84604ZM52.971874 294.29916Q52.971874 294.7523 53.221874 295.04916Q53.4875 295.34604 53.925 295.34604Q54.346874 295.34604 54.596874 295.0648Q54.846874 294.7679 54.846874 294.2679L54.846874 293.84604Q54.846874 293.3929 54.596874 293.09604Q54.346874 292.78354 53.909374 292.78354Q53.471874 292.78354 53.221874 293.09604Q52.971874 293.3929 52.971874 293.86166L52.971874 294.29916ZM56.315624 298.6429Q56.315624 297.8773 56.8 297.3929Q57.3 296.8929 58.065624 296.8929Q58.83125 296.8929 59.315624 297.3929Q59.815624 297.8773 59.815624 298.6898L59.815624 299.09604Q59.815624 299.86166 59.33125 300.36166Q58.846874 300.86166 58.08125 300.86166Q57.315624 300.86166 56.815624 300.3773Q56.315624 299.8773 56.315624 299.0648L56.315624 298.6429ZM57.128124 299.09604Q57.128124 299.5648 57.378124 299.86166Q57.64375 300.15854 58.08125 300.15854Q58.503124 300.15854 58.753124 299.8773Q59.003124 299.5804 59.003124 299.0804L59.003124 298.6429Q59.003124 298.17416 58.7375 297.8929Q58.4875 297.59604 58.065624 297.59604Q57.64375 297.59604 57.378124 297.8929Q57.128124 298.17416 57.128124 298.67416L57.128124 299.09604ZM54.175 300.09604L53.55 299.7054L57.721874 293.03354L58.33125 293.42416L54.175 300.09604Z" fill-rule="nonzero"/><path fill="#757575" d="M31.815624 226.13L30.7375 226.13L30.7375 218.91125L28.55 219.70813L28.55 218.72375L31.659374 217.55188L31.815624 217.55188L31.815624 226.13ZM40.6125 222.48938Q40.6125 224.39563 39.95625 225.33313Q39.315624 226.255 37.925 226.255Q36.565624 226.255 35.909374 225.34875Q35.253124 224.4425 35.221874 222.63L35.221874 221.1925Q35.221874 219.30188 35.8625 218.39563Q36.51875 217.47375 37.909374 217.47375Q39.284374 217.47375 39.940624 218.36438Q40.596874 219.23938 40.6125 221.08313L40.6125 222.48938ZM39.51875 221.005Q39.51875 219.63 39.128124 219.005Q38.753124 218.36438 37.909374 218.36438Q37.08125 218.36438 36.690624 219.005Q36.315624 219.63 36.315624 220.92688L36.315624 222.66125Q36.315624 224.03625 36.70625 224.70813Q37.1125 225.36438 37.925 225.36438Q38.721874 225.36438 39.1125 224.73938Q39.503124 224.11438 39.51875 222.78625L39.51875 221.005ZM42.39375 225.5675Q42.39375 225.28625 42.55 225.09875Q42.721874 224.91125 43.05 224.91125Q43.39375 224.91125 43.565624 225.09875Q43.7375 225.28625 43.7375 225.5675Q43.7375 225.83313 43.565624 226.02063Q43.39375 226.1925 43.05 226.1925Q42.721874 226.1925 42.55 226.02063Q42.39375 225.83313 42.39375 225.5675ZM50.6125 222.48938Q50.6125 224.39563 49.95625 225.33313Q49.315624 226.255 47.925 226.255Q46.565624 226.255 45.909374 225.34875Q45.253124 224.4425 45.221874 222.63L45.221874 221.1925Q45.221874 219.30188 45.8625 218.39563Q46.51875 217.47375 47.909374 217.47375Q49.284374 217.47375 49.940624 218.36438Q50.596874 219.23938 50.6125 221.08313L50.6125 222.48938ZM49.51875 221.005Q49.51875 219.63 49.128124 219.005Q48.753124 218.36438 47.909374 218.36438Q47.08125 218.36438 46.690624 219.005Q46.315624 219.63 46.315624 220.92688L46.315624 222.66125Q46.315624 224.03625 46.70625 224.70813Q47.1125 225.36438 47.925 225.36438Q48.721874 225.36438 49.1125 224.73938Q49.503124 224.11438 49.51875 222.78625L49.51875 221.005ZM52.159374 219.23938Q52.159374 218.47375 52.64375 217.97375Q53.14375 217.47375 53.909374 217.47375Q54.690624 217.47375 55.175 217.97375Q55.659374 218.47375 55.659374 219.27063L55.659374 219.6925Q55.659374 220.45813 55.159374 220.95813Q54.675 221.4425 53.925 221.4425Q53.159374 221.4425 52.659374 220.95813Q52.159374 220.45813 52.159374 219.64563L52.159374 219.23938ZM52.971874 219.6925Q52.971874 220.14563 53.221874 220.4425Q53.4875 220.73938 53.925 220.73938Q54.346874 220.73938 54.596874 220.45813Q54.846874 220.16125 54.846874 219.66125L54.846874 219.23938Q54.846874 218.78625 54.596874 218.48938Q54.346874 218.17688 53.909374 218.17688Q53.471874 218.17688 53.221874 218.48938Q52.971874 218.78625 52.971874 219.255L52.971874 219.6925ZM56.315624 224.03625Q56.315624 223.27063 56.8 222.78625Q57.3 222.28625 58.065624 222.28625Q58.83125 222.28625 59.315624 222.78625Q59.815624 223.27063 59.815624 224.08313L59.815624 224.48938Q59.815624 225.255 59.33125 225.755Q58.846874 226.255 58.08125 226.255Q57.315624 226.255 56.815624 225.77063Q56.315624 225.27063 56.315624 224.45813L56.315624 224.03625ZM57.128124 224.48938Q57.128124 224.95813 57.378124 225.255Q57.64375 225.55188 58.08125 225.55188Q58.503124 225.55188 58.753124 225.27063Q59.003124 224.97375 59.003124 224.47375L59.003124 224.03625Q59.003124 223.5675 58.7375 223.28625Q58.4875 222.98938 58.065624 222.98938Q57.64375 222.98938 57.378124 223.28625Q57.128124 223.5675 57.128124 224.0675L57.128124 224.48938ZM54.175 225.48938L53.55 225.09875L57.721874 218.42688L58.33125 218.8175L54.175 225.48938Z" fill-rule="nonzero"/><path fill="#757575" d="M33.846874 151.52333L28.253124 151.52333L28.253124 150.74208L31.20625 147.46083Q31.8625 146.71083 32.1125 146.2577Q32.3625 145.78896 32.3625 145.28896Q32.3625 144.61708 31.95625 144.1952Q31.565624 143.7577 30.878124 143.7577Q30.08125 143.7577 29.628124 144.22646Q29.175 144.67958 29.175 145.5077L28.096874 145.5077Q28.096874 144.3202 28.846874 143.60146Q29.6125 142.86708 30.878124 142.86708Q32.08125 142.86708 32.76875 143.49208Q33.45625 144.11708 33.45625 145.16396Q33.45625 146.41396 31.846874 148.16396L29.565624 150.6327L33.846874 150.6327L33.846874 151.52333ZM40.6125 147.8827Q40.6125 149.78896 39.95625 150.72646Q39.315624 151.64833 37.925 151.64833Q36.565624 151.64833 35.909374 150.74208Q35.253124 149.83583 35.221874 148.02333L35.221874 146.58583Q35.221874 144.6952 35.8625 143.78896Q36.51875 142.86708 37.909374 142.86708Q39.284374 142.86708 39.940624 143.7577Q40.596874 144.6327 40.6125 146.47646L40.6125 147.8827ZM39.51875 146.39833Q39.51875 145.02333 39.128124 144.39833Q38.753124 143.7577 37.909374 143.7577Q37.08125 143.7577 36.690624 144.39833Q36.315624 145.02333 36.315624 146.3202L36.315624 148.05458Q36.315624 149.42958 36.70625 150.10146Q37.1125 150.7577 37.925 150.7577Q38.721874 150.7577 39.1125 150.1327Q39.503124 149.5077 39.51875 148.17958L39.51875 146.39833ZM42.39375 150.96083Q42.39375 150.67958 42.55 150.49208Q42.721874 150.30458 43.05 150.30458Q43.39375 150.30458 43.565624 150.49208Q43.7375 150.67958 43.7375 150.96083Q43.7375 151.22646 43.565624 151.41396Q43.39375 151.58583 43.05 151.58583Q42.721874 151.58583 42.55 151.41396Q42.39375 151.22646 42.39375 150.96083ZM50.6125 147.8827Q50.6125 149.78896 49.95625 150.72646Q49.315624 151.64833 47.925 151.64833Q46.565624 151.64833 45.909374 150.74208Q45.253124 149.83583 45.221874 148.02333L45.221874 146.58583Q45.221874 144.6952 45.8625 143.78896Q46.51875 142.86708 47.909374 142.86708Q49.284374 142.86708 49.940624 143.7577Q50.596874 144.6327 50.6125 146.47646L50.6125 147.8827ZM49.51875 146.39833Q49.51875 145.02333 49.128124 144.39833Q48.753124 143.7577 47.909374 143.7577Q47.08125 143.7577 46.690624 144.39833Q46.315624 145.02333 46.315624 146.3202L46.315624 148.05458Q46.315624 149.42958 46.70625 150.10146Q47.1125 150.7577 47.925 150.7577Q48.721874 150.7577 49.1125 150.1327Q49.503124 149.5077 49.51875 148.17958L49.51875 146.39833ZM52.159374 144.6327Q52.159374 143.86708 52.64375 143.36708Q53.14375 142.86708 53.909374 142.86708Q54.690624 142.86708 55.175 143.36708Q55.659374 143.86708 55.659374 144.66396L55.659374 145.08583Q55.659374 145.85146 55.159374 146.35146Q54.675 146.83583 53.925 146.83583Q53.159374 146.83583 52.659374 146.35146Q52.159374 145.85146 52.159374 145.03896L52.159374 144.6327ZM52.971874 145.08583Q52.971874 145.53896 53.221874 145.83583Q53.4875 146.1327 53.925 146.1327Q54.346874 146.1327 54.596874 145.85146Q54.846874 145.55458 54.846874 145.05458L54.846874 144.6327Q54.846874 144.17958 54.596874 143.8827Q54.346874 143.5702 53.909374 143.5702Q53.471874 143.5702 53.221874 143.8827Q52.971874 144.17958 52.971874 144.64833L52.971874 145.08583ZM56.315624 149.42958Q56.315624 148.66396 56.8 148.17958Q57.3 147.67958 58.065624 147.67958Q58.83125 147.67958 59.315624 148.17958Q59.815624 148.66396 59.815624 149.47646L59.815624 149.8827Q59.815624 150.64833 59.33125 151.14833Q58.846874 151.64833 58.08125 151.64833Q57.315624 151.64833 56.815624 151.16396Q56.315624 150.66396 56.315624 149.85146L56.315624 149.42958ZM57.128124 149.8827Q57.128124 150.35146 57.378124 150.64833Q57.64375 150.9452 58.08125 150.9452Q58.503124 150.9452 58.753124 150.66396Q59.003124 150.36708 59.003124 149.86708L59.003124 149.42958Q59.003124 148.96083 58.7375 148.67958Q58.4875 148.3827 58.065624 148.3827Q57.64375 148.3827 57.378124 148.67958Q57.128124 148.96083 57.128124 149.46083L57.128124 149.8827ZM54.175 150.8827L53.55 150.49208L57.721874 143.8202L58.33125 144.21083L54.175 150.8827Z" fill-rule="nonzero"/><path fill="#757575" d="M29.83125 72.11979L30.64375 72.11979Q31.425 72.104164 31.8625 71.71354Q32.3 71.322914 32.3 70.65104Q32.3 69.15104 30.8 69.15104Q30.096874 69.15104 29.675 69.55729Q29.26875 69.96354 29.26875 70.61979L28.175 70.61979Q28.175 69.604164 28.909374 68.93229Q29.659374 68.260414 30.8 68.260414Q32.003124 68.260414 32.690624 68.90104Q33.378124 69.541664 33.378124 70.68229Q33.378124 71.24479 33.01875 71.760414Q32.659374 72.27604 32.034374 72.541664Q32.7375 72.760414 33.1125 73.27604Q33.503124 73.791664 33.503124 74.541664Q33.503124 75.68229 32.753124 76.36979Q32.003124 77.041664 30.8 77.041664Q29.6125 77.041664 28.846874 76.385414Q28.096874 75.729164 28.096874 74.666664L29.190624 74.666664Q29.190624 75.33854 29.628124 75.74479Q30.065624 76.15104 30.815624 76.15104Q31.596874 76.15104 32.003124 75.74479Q32.425 75.322914 32.425 74.55729Q32.425 73.822914 31.971874 73.43229Q31.51875 73.02604 30.64375 73.010414L29.83125 73.010414L29.83125 72.11979ZM40.6125 73.27604Q40.6125 75.18229 39.95625 76.11979Q39.315624 77.041664 37.925 77.041664Q36.565624 77.041664 35.909374 76.135414Q35.253124 75.229164 35.221874 73.416664L35.221874 71.979164Q35.221874 70.08854 35.8625 69.18229Q36.51875 68.260414 37.909374 68.260414Q39.284374 68.260414 39.940624 69.15104Q40.596874 70.02604 40.6125 71.86979L40.6125 73.27604ZM39.51875 71.791664Q39.51875 70.416664 39.128124 69.791664Q38.753124 69.15104 37.909374 69.15104Q37.08125 69.15104 36.690624 69.791664Q36.315624 70.416664 36.315624 71.71354L36.315624 73.447914Q36.315624 74.822914 36.70625 75.49479Q37.1125 76.15104 37.925 76.15104Q38.721874 76.15104 39.1125 75.52604Q39.503124 74.90104 39.51875 73.572914L39.51875 71.791664ZM42.39375 76.354164Q42.39375 76.072914 42.55 75.885414Q42.721874 75.697914 43.05 75.697914Q43.39375 75.697914 43.565624 75.885414Q43.7375 76.072914 43.7375 76.354164Q43.7375 76.61979 43.565624 76.80729Q43.39375 76.979164 43.05 76.979164Q42.721874 76.979164 42.55 76.80729Q42.39375 76.61979 42.39375 76.354164ZM50.6125 73.27604Q50.6125 75.18229 49.95625 76.11979Q49.315624 77.041664 47.925 77.041664Q46.565624 77.041664 45.909374 76.135414Q45.253124 75.229164 45.221874 73.416664L45.221874 71.979164Q45.221874 70.08854 45.8625 69.18229Q46.51875 68.260414 47.909374 68.260414Q49.284374 68.260414 49.940624 69.15104Q50.596874 70.02604 50.6125 71.86979L50.6125 73.27604ZM49.51875 71.791664Q49.51875 70.416664 49.128124 69.791664Q48.753124 69.15104 47.909374 69.15104Q47.08125 69.15104 46.690624 69.791664Q46.315624 70.416664 46.315624 71.71354L46.315624 73.447914Q46.315624 74.822914 46.70625 75.49479Q47.1125 76.15104 47.925 76.15104Q48.721874 76.15104 49.1125 75.52604Q49.503124 74.90104 49.51875 73.572914L49.51875 71.791664ZM52.159374 70.02604Q52.159374 69.260414 52.64375 68.760414Q53.14375 68.260414 53.909374 68.260414Q54.690624 68.260414 55.175 68.760414Q55.659374 69.260414 55.659374 70.05729L55.659374 70.479164Q55.659374 71.24479 55.159374 71.74479Q54.675 72.229164 53.925 72.229164Q53.159374 72.229164 52.659374 71.74479Q52.159374 71.24479 52.159374 70.43229L52.159374 70.02604ZM52.971874 70.479164Q52.971874 70.93229 53.221874 71.229164Q53.4875 71.52604 53.925 71.52604Q54.346874 71.52604 54.596874 71.24479Q54.846874 70.947914 54.846874 70.447914L54.846874 70.02604Q54.846874 69.572914 54.596874 69.27604Q54.346874 68.96354 53.909374 68.96354Q53.471874 68.96354 53.221874 69.27604Q52.971874 69.572914 52.971874 70.041664L52.971874 70.479164ZM56.315624 74.822914Q56.315624 74.05729 56.8 73.572914Q57.3 73.072914 58.065624 73.072914Q58.83125 73.072914 59.315624 73.572914Q59.815624 74.05729 59.815624 74.86979L59.815624 75.27604Q59.815624 76.041664 59.33125 76.541664Q58.846874 77.041664 58.08125 77.041664Q57.315624 77.041664 56.815624 76.55729Q56.315624 76.05729 56.315624 75.24479L56.315624 74.822914ZM57.128124 75.27604Q57.128124 75.74479 57.378124 76.041664Q57.64375 76.33854 58.08125 76.33854Q58.503124 76.33854 58.753124 76.05729Q59.003124 75.760414 59.003124 75.260414L59.003124 74.822914Q59.003124 74.354164 58.7375 74.072914Q58.4875 73.77604 58.065624 73.77604Q57.64375 73.77604 57.378124 74.072914Q57.128124 74.354164 57.128124 74.854164L57.128124 75.27604ZM54.175 76.27604L53.55 75.885414L57.721874 69.21354L58.33125 69.604164L54.175 76.27604Z" fill-rule="nonzero"/><path fill="#757575" d="M103.928734 463.45L102.85061 463.45L102.85061 456.23126L100.66311 457.02814L100.66311 456.04376L103.772484 454.8719L103.928734 454.8719L103.928734 463.45ZM109.741234 460.2625L106.88186 460.2625L106.88186 459.3875L109.741234 459.3875L109.741234 460.2625ZM114.22561 454.91876L115.366234 454.91876L115.366234 460.96564Q115.366234 462.1844 114.616234 462.8875Q113.88186 463.575 112.66311 463.575Q111.397484 463.575 110.678734 462.91876Q109.97561 462.2625 109.97561 461.09064L111.10061 461.09064Q111.10061 461.825 111.491234 462.2469Q111.897484 462.65314 112.66311 462.65314Q113.366234 462.65314 113.78811 462.21564Q114.22561 461.7625 114.22561 460.98126L114.22561 454.91876ZM121.397484 462.825Q120.772484 463.575 119.53811 463.575Q118.522484 463.575 117.991234 462.98126Q117.459984 462.3875 117.459984 461.23126L117.459984 457.10626L118.53811 457.10626L118.53811 461.2Q118.53811 462.65314 119.709984 462.65314Q120.959984 462.65314 121.366234 461.71564L121.366234 457.10626L122.459984 457.10626L122.459984 463.45L121.428734 463.45L121.397484 462.825ZM125.66311 463.45L124.584984 463.45L124.584984 454.45L125.66311 454.45L125.66311 463.45ZM129.74124 460.2625L126.88186 460.2625L126.88186 459.3875L129.74124 459.3875L129.74124 460.2625ZM135.95999 463.45L130.36624 463.45L130.36624 462.66876L133.31937 459.3875Q133.97562 458.6375 134.22562 458.1844Q134.47562 457.71564 134.47562 457.21564Q134.47562 456.54376 134.06937 456.1219Q133.67874 455.6844 132.99124 455.6844Q132.19437 455.6844 131.74124 456.15314Q131.28812 456.60626 131.28812 457.4344L130.20999 457.4344Q130.20999 456.2469 130.95999 455.52814Q131.72562 454.79376 132.99124 454.79376Q134.19437 454.79376 134.88187 455.41876Q135.56937 456.04376 135.56937 457.09064Q135.56937 458.34064 133.95999 460.09064L131.67874 462.5594L135.95999 462.5594L135.95999 463.45ZM142.72562 459.8094Q142.72562 461.71564 142.06937 462.65314Q141.42874 463.575 140.03812 463.575Q138.67874 463.575 138.02249 462.66876Q137.36624 461.7625 137.33499 459.95L137.33499 458.5125Q137.33499 456.6219 137.97562 455.71564Q138.63187 454.79376 140.02249 454.79376Q141.39749 454.79376 142.05374 455.6844Q142.70999 456.5594 142.72562 458.40314L142.72562 459.8094ZM141.63187 458.325Q141.63187 456.95 141.24124 456.325Q140.86624 455.6844 140.02249 455.6844Q139.19437 455.6844 138.80374 456.325Q138.42874 456.95 138.42874 458.2469L138.42874 459.98126Q138.42874 461.35626 138.81937 462.02814Q139.22562 462.6844 140.03812 462.6844Q140.83499 462.6844 141.22562 462.0594Q141.61624 461.4344 141.63187 460.10626L141.63187 458.325ZM147.92874 463.45L146.85062 463.45L146.85062 456.23126L144.66312 457.02814L144.66312 456.04376L147.77249 454.8719L147.92874 454.8719L147.92874 463.45ZM156.55374 457.1375Q156.55374 457.77814 156.20999 458.27814Q155.86624 458.77814 155.30374 459.0594Q155.95999 459.34064 156.35062 459.90314Q156.74124 460.45 156.74124 461.15314Q156.74124 462.2469 155.99124 462.91876Q155.25687 463.575 154.03812 463.575Q152.80374 463.575 152.05374 462.91876Q151.31937 462.2469 151.31937 461.15314Q151.31937 460.45 151.69437 459.90314Q152.06937 459.34064 152.74124 459.0594Q152.17874 458.77814 151.85062 458.27814Q151.52249 457.77814 151.52249 457.1375Q151.52249 456.0594 152.20999 455.4344Q152.89749 454.79376 154.03812 454.79376Q155.16312 454.79376 155.85062 455.4344Q156.55374 456.0594 156.55374 457.1375ZM155.66312 461.1219Q155.66312 460.40314 155.20999 459.96564Q154.75687 459.5125 154.02249 459.5125Q153.28812 459.5125 152.83499 459.96564Q152.39749 460.40314 152.39749 461.1375Q152.39749 461.85626 152.83499 462.27814Q153.27249 462.6844 154.03812 462.6844Q154.78812 462.6844 155.22562 462.2625Q155.66312 461.84064 155.66312 461.1219ZM154.03812 455.6844Q153.39749 455.6844 152.99124 456.09064Q152.60062 456.48126 152.60062 457.16876Q152.60062 457.8094 152.99124 458.21564Q153.38187 458.6219 154.02249 458.6219Q154.67874 458.6219 155.06937 458.21564Q155.45999 457.8094 155.45999 457.16876Q155.45999 456.5125 155.05374 456.10626Q154.64749 455.6844 154.03812 455.6844Z" fill-rule="nonzero"/><path fill="#757575" d="M289.28632 463.45L288.2082 463.45L288.2082 456.23126L286.0207 457.02814L286.0207 456.04376L289.13007 454.8719L289.28632 454.8719L289.28632 463.45ZM295.09882 460.2625L292.23944 460.2625L292.23944 459.3875L295.09882 459.3875L295.09882 460.2625ZM299.5832 454.91876L300.72382 454.91876L300.72382 460.96564Q300.72382 462.1844 299.97382 462.8875Q299.23944 463.575 298.0207 463.575Q296.75507 463.575 296.03632 462.91876Q295.3332 462.2625 295.3332 461.09064L296.4582 461.09064Q296.4582 461.825 296.84882 462.2469Q297.25507 462.65314 298.0207 462.65314Q298.72382 462.65314 299.1457 462.21564Q299.5832 461.7625 299.5832 460.98126L299.5832 454.91876ZM306.75507 463.45Q306.66132 463.2625 306.59882 462.77814Q305.84882 463.575 304.80194 463.575Q303.86444 463.575 303.25507 463.04376Q302.66132 462.5125 302.66132 461.6844Q302.66132 460.7 303.41132 460.15314Q304.16132 459.60626 305.53632 459.60626L306.5832 459.60626L306.5832 459.10626Q306.5832 458.54376 306.23944 458.21564Q305.91132 457.8719 305.23944 457.8719Q304.66132 457.8719 304.2707 458.16876Q303.88007 458.45 303.88007 458.8719L302.78632 458.8719Q302.78632 458.3875 303.11444 457.95Q303.4582 457.5125 304.03632 457.2625Q304.61444 456.9969 305.30194 456.9969Q306.41132 456.9969 307.0207 457.54376Q307.6457 458.09064 307.67694 459.04376L307.67694 461.96564Q307.67694 462.84064 307.8957 463.35626L307.8957 463.45L306.75507 463.45ZM304.9582 462.6219Q305.47382 462.6219 305.92694 462.35626Q306.38007 462.09064 306.5832 461.66876L306.5832 460.3719L305.73944 460.3719Q303.73944 460.3719 303.73944 461.54376Q303.73944 462.04376 304.0832 462.34064Q304.42694 462.6219 304.9582 462.6219ZM310.86444 457.10626L310.8957 457.90314Q311.63007 456.9969 312.80194 456.9969Q314.81757 456.9969 314.8332 459.2625L314.8332 463.45L313.73944 463.45L313.73944 459.2469Q313.73944 458.575 313.42694 458.2469Q313.13007 457.91876 312.47382 457.91876Q311.94257 457.91876 311.53632 458.2Q311.1457 458.48126 310.92694 458.9344L310.92694 463.45L309.84882 463.45L309.84882 457.10626L310.86444 457.10626ZM319.09882 460.2625L316.23944 460.2625L316.23944 459.3875L319.09882 459.3875L319.09882 460.2625ZM325.31757 463.45L319.72382 463.45L319.72382 462.66876L322.67694 459.3875Q323.3332 458.6375 323.5832 458.1844Q323.8332 457.71564 323.8332 457.21564Q323.8332 456.54376 323.42694 456.1219Q323.03632 455.6844 322.34882 455.6844Q321.55194 455.6844 321.09882 456.15314Q320.6457 456.60626 320.6457 457.4344L319.56757 457.4344Q319.56757 456.2469 320.31757 455.52814Q321.0832 454.79376 322.34882 454.79376Q323.55194 454.79376 324.23944 455.41876Q324.92694 456.04376 324.92694 457.09064Q324.92694 458.34064 323.31757 460.09064L321.03632 462.5594L325.31757 462.5594L325.31757 463.45ZM332.0832 459.8094Q332.0832 461.71564 331.42694 462.65314Q330.78632 463.575 329.3957 463.575Q328.03632 463.575 327.38007 462.66876Q326.72382 461.7625 326.69257 459.95L326.69257 458.5125Q326.69257 456.6219 327.3332 455.71564Q327.98944 454.79376 329.38007 454.79376Q330.75507 454.79376 331.41132 455.6844Q332.06757 456.5594 332.0832 458.40314L332.0832 459.8094ZM330.98944 458.325Q330.98944 456.95 330.59882 456.325Q330.22382 455.6844 329.38007 455.6844Q328.55194 455.6844 328.16132 456.325Q327.78632 456.95 327.78632 458.2469L327.78632 459.98126Q327.78632 461.35626 328.17694 462.02814Q328.5832 462.6844 329.3957 462.6844Q330.19257 462.6844 330.5832 462.0594Q330.97382 461.4344 330.98944 460.10626L330.98944 458.325ZM337.28632 463.45L336.2082 463.45L336.2082 456.23126L334.0207 457.02814L334.0207 456.04376L337.13007 454.8719L337.28632 454.8719L337.28632 463.45ZM344.88007 459.7Q344.55194 460.10626 344.06757 460.35626Q343.59882 460.59064 343.03632 460.59064Q342.30194 460.59064 341.75507 460.23126Q341.2082 459.8719 340.91132 459.21564Q340.61444 458.54376 340.61444 457.7469Q340.61444 456.90314 340.92694 456.21564Q341.25507 455.52814 341.84882 455.16876Q342.4582 454.79376 343.25507 454.79376Q344.5207 454.79376 345.23944 455.7469Q345.97382 456.7 345.97382 458.325L345.97382 458.6375Q345.97382 461.1375 344.98944 462.27814Q344.00507 463.41876 342.0207 463.45L341.80194 463.45L341.80194 462.54376L342.03632 462.54376Q343.38007 462.5125 344.09882 461.84064Q344.81757 461.16876 344.88007 459.7ZM343.2082 459.7Q343.75507 459.7 344.2082 459.3719Q344.67694 459.02814 344.8957 458.54376L344.8957 458.10626Q344.8957 457.04376 344.42694 456.3719Q343.9582 455.7 343.25507 455.7Q342.53632 455.7 342.09882 456.2469Q341.67694 456.79376 341.67694 457.7Q341.67694 458.575 342.0832 459.1375Q342.50507 459.7 343.2082 459.7Z" fill-rule="nonzero"/><path fill="#757575" d="M475.58914 463.45L474.51102 463.45L474.51102 456.23126L472.32352 457.02814L472.32352 456.04376L475.4329 454.8719L475.58914 454.8719L475.58914 463.45ZM481.40164 460.2625L478.54227 460.2625L478.54227 459.3875L481.40164 459.3875L481.40164 460.2625ZM485.88602 454.91876L487.02664 454.91876L487.02664 460.96564Q487.02664 462.1844 486.27664 462.8875Q485.54227 463.575 484.32352 463.575Q483.0579 463.575 482.33914 462.91876Q481.63602 462.2625 481.63602 461.09064L482.76102 461.09064Q482.76102 461.825 483.15164 462.2469Q483.5579 462.65314 484.32352 462.65314Q485.02664 462.65314 485.44852 462.21564Q485.88602 461.7625 485.88602 460.98126L485.88602 454.91876ZM493.0579 462.825Q492.4329 463.575 491.19852 463.575Q490.1829 463.575 489.65164 462.98126Q489.1204 462.3875 489.1204 461.23126L489.1204 457.10626L490.19852 457.10626L490.19852 461.2Q490.19852 462.65314 491.3704 462.65314Q492.6204 462.65314 493.02664 461.71564L493.02664 457.10626L494.1204 457.10626L494.1204 463.45L493.08914 463.45L493.0579 462.825ZM497.32352 463.45L496.2454 463.45L496.2454 454.45L497.32352 454.45L497.32352 463.45ZM501.40164 460.2625L498.54227 460.2625L498.54227 459.3875L501.40164 459.3875L501.40164 460.2625ZM507.6204 463.45L502.02664 463.45L502.02664 462.66876L504.97977 459.3875Q505.63602 458.6375 505.88602 458.1844Q506.13602 457.71564 506.13602 457.21564Q506.13602 456.54376 505.72977 456.1219Q505.33914 455.6844 504.65164 455.6844Q503.85477 455.6844 503.40164 456.15314Q502.94852 456.60626 502.94852 457.4344L501.8704 457.4344Q501.8704 456.2469 502.6204 455.52814Q503.38602 454.79376 504.65164 454.79376Q505.85477 454.79376 506.54227 455.41876Q507.22977 456.04376 507.22977 457.09064Q507.22977 458.34064 505.6204 460.09064L503.33914 462.5594L507.6204 462.5594L507.6204 463.45ZM514.386 459.8094Q514.386 461.71564 513.72974 462.65314Q513.0891 463.575 511.69852 463.575Q510.33914 463.575 509.6829 462.66876Q509.02664 461.7625 508.9954 459.95L508.9954 458.5125Q508.9954 456.6219 509.63602 455.71564Q510.29227 454.79376 511.6829 454.79376Q513.05786 454.79376 513.7141 455.6844Q514.37036 456.5594 514.386 458.40314L514.386 459.8094ZM513.29224 458.325Q513.29224 456.95 512.9016 456.325Q512.5266 455.6844 511.6829 455.6844Q510.85477 455.6844 510.46414 456.325Q510.08914 456.95 510.08914 458.2469L510.08914 459.98126Q510.08914 461.35626 510.47977 462.02814Q510.88602 462.6844 511.69852 462.6844Q512.49536 462.6844 512.886 462.0594Q513.2766 461.4344 513.29224 460.10626L513.29224 458.325ZM519.5891 463.45L518.511 463.45L518.511 456.23126L516.3235 457.02814L516.3235 456.04376L519.43286 454.8719L519.5891 454.8719L519.5891 463.45ZM527.18286 459.7Q526.85474 460.10626 526.37036 460.35626Q525.9016 460.59064 525.3391 460.59064Q524.60474 460.59064 524.05786 460.23126Q523.511 459.8719 523.2141 459.21564Q522.91724 458.54376 522.91724 457.7469Q522.91724 456.90314 523.22974 456.21564Q523.55786 455.52814 524.1516 455.16876Q524.761 454.79376 525.55786 454.79376Q526.8235 454.79376 527.54224 455.7469Q528.2766 456.7 528.2766 458.325L528.2766 458.6375Q528.2766 461.1375 527.29224 462.27814Q526.30786 463.41876 524.3235 463.45L524.10474 463.45L524.10474 462.54376L524.3391 462.54376Q525.68286 462.5125 526.4016 461.84064Q527.12036 461.16876 527.18286 459.7ZM525.511 459.7Q526.05786 459.7 526.511 459.3719Q526.97974 459.02814 527.1985 458.54376L527.1985 458.10626Q527.1985 457.04376 526.72974 456.3719Q526.261 455.7 525.55786 455.7Q524.8391 455.7 524.4016 456.2469Q523.97974 456.79376 523.97974 457.7Q523.97974 458.575 524.386 459.1375Q524.80786 459.7 525.511 459.7Z" fill-rule="nonzero"/><path fill="#757575" d="M660.9467 463.45L659.8686 463.45L659.8686 456.23126L657.6811 457.02814L657.6811 456.04376L660.79047 454.8719L660.9467 454.8719L660.9467 463.45ZM666.7592 460.2625L663.89984 460.2625L663.89984 459.3875L666.7592 459.3875L666.7592 460.2625ZM671.2436 454.91876L672.3842 454.91876L672.3842 460.96564Q672.3842 462.1844 671.6342 462.8875Q670.89984 463.575 669.6811 463.575Q668.41547 463.575 667.6967 462.91876Q666.9936 462.2625 666.9936 461.09064L668.1186 461.09064Q668.1186 461.825 668.5092 462.2469Q668.91547 462.65314 669.6811 462.65314Q670.3842 462.65314 670.8061 462.21564Q671.2436 461.7625 671.2436 460.98126L671.2436 454.91876ZM678.41547 463.45Q678.3217 463.2625 678.2592 462.77814Q677.5092 463.575 676.46234 463.575Q675.52484 463.575 674.91547 463.04376Q674.3217 462.5125 674.3217 461.6844Q674.3217 460.7 675.0717 460.15314Q675.8217 459.60626 677.1967 459.60626L678.2436 459.60626L678.2436 459.10626Q678.2436 458.54376 677.89984 458.21564Q677.5717 457.8719 676.89984 457.8719Q676.3217 457.8719 675.9311 458.16876Q675.54047 458.45 675.54047 458.8719L674.4467 458.8719Q674.4467 458.3875 674.77484 457.95Q675.1186 457.5125 675.6967 457.2625Q676.27484 456.9969 676.96234 456.9969Q678.0717 456.9969 678.6811 457.54376Q679.3061 458.09064 679.33734 459.04376L679.33734 461.96564Q679.33734 462.84064 679.5561 463.35626L679.5561 463.45L678.41547 463.45ZM676.6186 462.6219Q677.1342 462.6219 677.58734 462.35626Q678.04047 462.09064 678.2436 461.66876L678.2436 460.3719L677.39984 460.3719Q675.39984 460.3719 675.39984 461.54376Q675.39984 462.04376 675.7436 462.34064Q676.08734 462.6219 676.6186 462.6219ZM682.52484 457.10626L682.5561 457.90314Q683.29047 456.9969 684.46234 456.9969Q686.47797 456.9969 686.4936 459.2625L686.4936 463.45L685.39984 463.45L685.39984 459.2469Q685.39984 458.575 685.08734 458.2469Q684.79047 457.91876 684.1342 457.91876Q683.60297 457.91876 683.1967 458.2Q682.8061 458.48126 682.58734 458.9344L682.58734 463.45L681.5092 463.45L681.5092 457.10626L682.52484 457.10626ZM690.7592 460.2625L687.89984 460.2625L687.89984 459.3875L690.7592 459.3875L690.7592 460.2625ZM696.97797 463.45L691.3842 463.45L691.3842 462.66876L694.33734 459.3875Q694.9936 458.6375 695.2436 458.1844Q695.4936 457.71564 695.4936 457.21564Q695.4936 456.54376 695.08734 456.1219Q694.6967 455.6844 694.0092 455.6844Q693.21234 455.6844 692.7592 456.15314Q692.3061 456.60626 692.3061 457.4344L691.22797 457.4344Q691.22797 456.2469 691.97797 455.52814Q692.7436 454.79376 694.0092 454.79376Q695.21234 454.79376 695.89984 455.41876Q696.58734 456.04376 696.58734 457.09064Q696.58734 458.34064 694.97797 460.09064L692.6967 462.5594L696.97797 462.5594L696.97797 463.45ZM703.7436 459.8094Q703.7436 461.71564 703.08734 462.65314Q702.4467 463.575 701.0561 463.575Q699.6967 463.575 699.04047 462.66876Q698.3842 461.7625 698.35297 459.95L698.35297 458.5125Q698.35297 456.6219 698.9936 455.71564Q699.64984 454.79376 701.04047 454.79376Q702.41547 454.79376 703.0717 455.6844Q703.72797 456.5594 703.7436 458.40314L703.7436 459.8094ZM702.64984 458.325Q702.64984 456.95 702.2592 456.325Q701.8842 455.6844 701.04047 455.6844Q700.21234 455.6844 699.8217 456.325Q699.4467 456.95 699.4467 458.2469L699.4467 459.98126Q699.4467 461.35626 699.83734 462.02814Q700.2436 462.6844 701.0561 462.6844Q701.85297 462.6844 702.2436 462.0594Q702.6342 461.4344 702.64984 460.10626L702.64984 458.325ZM710.97797 463.45L705.3842 463.45L705.3842 462.66876L708.33734 459.3875Q708.9936 458.6375 709.2436 458.1844Q709.4936 457.71564 709.4936 457.21564Q709.4936 456.54376 709.08734 456.1219Q708.6967 455.6844 708.0092 455.6844Q707.21234 455.6844 706.7592 456.15314Q706.3061 456.60626 706.3061 457.4344L705.22797 457.4344Q705.22797 456.2469 705.97797 455.52814Q706.7436 454.79376 708.0092 454.79376Q709.21234 454.79376 709.89984 455.41876Q710.58734 456.04376 710.58734 457.09064Q710.58734 458.34064 708.97797 460.09064L706.6967 462.5594L710.97797 462.5594L710.97797 463.45ZM717.7436 459.8094Q717.7436 461.71564 717.08734 462.65314Q716.4467 463.575 715.0561 463.575Q713.6967 463.575 713.04047 462.66876Q712.3842 461.7625 712.35297 459.95L712.35297 458.5125Q712.35297 456.6219 712.9936 455.71564Q713.64984 454.79376 715.04047 454.79376Q716.41547 454.79376 717.0717 455.6844Q717.72797 456.5594 717.7436 458.40314L717.7436 459.8094ZM716.64984 458.325Q716.64984 456.95 716.2592 456.325Q715.8842 455.6844 715.04047 455.6844Q714.21234 455.6844 713.8217 456.325Q713.4467 456.95 713.4467 458.2469L713.4467 459.98126Q713.4467 461.35626 713.83734 462.02814Q714.2436 462.6844 715.0561 462.6844Q715.85297 462.6844 716.2436 462.0594Q716.6342 461.4344 716.64984 460.10626L716.64984 458.325Z" fill-rule="nonzero"/><path stroke="#4285f4" stroke-width="4.0" stroke-linecap="butt" d="M714.45 72.416664L726.45 72.416664" fill-rule="nonzero"/><path fill="#757575" d="M735.4344 76.916664L735.4344 68.385414L737.85626 68.385414Q738.96564 68.385414 739.8094 68.885414Q740.66876 69.36979 741.1375 70.27604Q741.60626 71.18229 741.60626 72.36979L741.60626 72.90104Q741.60626 74.11979 741.1375 75.02604Q740.6844 75.93229 739.8094 76.416664Q738.95 76.90104 737.8094 76.916664L735.4344 76.916664ZM736.5594 69.30729L736.5594 75.99479L737.7469 75.99479Q739.04376 75.99479 739.7625 75.197914Q740.4969 74.385414 740.4969 72.885414L740.4969 72.385414Q740.4969 70.93229 739.8094 70.135414Q739.1375 69.322914 737.8719 69.30729L736.5594 69.30729ZM743.4344 76.916664L743.4344 68.385414L746.23126 68.385414Q747.6219 68.385414 748.3094 68.96354Q749.0125 69.52604 749.0125 70.65104Q749.0125 71.260414 748.66876 71.729164Q748.34064 72.18229 747.7469 72.43229Q748.45 72.61979 748.84064 73.166664Q749.2469 73.697914 749.2469 74.447914Q749.2469 75.604164 748.4969 76.260414Q747.7625 76.916664 746.40314 76.916664L743.4344 76.916664ZM744.5594 72.93229L744.5594 75.99479L746.41876 75.99479Q747.21564 75.99479 747.66876 75.58854Q748.1219 75.18229 748.1219 74.46354Q748.1219 72.93229 746.4344 72.93229L744.5594 72.93229ZM744.5594 72.02604L746.2625 72.02604Q746.9969 72.02604 747.4344 71.666664Q747.8875 71.291664 747.8875 70.65104Q747.8875 69.947914 747.48126 69.635414Q747.075 69.30729 746.23126 69.30729L744.5594 69.30729L744.5594 72.02604ZM751.27814 75.99479L756.16876 75.99479L756.16876 76.916664L749.95 76.916664L749.95 76.072914L754.6375 69.30729L750.02814 69.30729L750.02814 68.385414L755.98126 68.385414L755.98126 69.21354L751.27814 75.99479ZM757.4344 76.916664L757.4344 68.385414L760.23126 68.385414Q761.6219 68.385414 762.3094 68.96354Q763.0125 69.52604 763.0125 70.65104Q763.0125 71.260414 762.66876 71.729164Q762.34064 72.18229 761.7469 72.43229Q762.45 72.61979 762.84064 73.166664Q763.2469 73.697914 763.2469 74.447914Q763.2469 75.604164 762.4969 76.260414Q761.7625 76.916664 760.40314 76.916664L757.4344 76.916664ZM758.5594 72.93229L758.5594 75.99479L760.41876 75.99479Q761.21564 75.99479 761.66876 75.58854Q762.1219 75.18229 762.1219 74.46354Q762.1219 72.93229 760.4344 72.93229L758.5594 72.93229ZM758.5594 72.02604L760.2625 72.02604Q760.9969 72.02604 761.4344 71.666664Q761.8875 71.291664 761.8875 70.65104Q761.8875 69.947914 761.48126 69.635414Q761.075 69.30729 760.23126 69.30729L758.5594 69.30729L758.5594 72.02604Z" fill-rule="nonzero"/><path stroke="#db4437" stroke-width="4.0" stroke-linecap="butt" d="M714.45 97.416664L726.45 97.416664" fill-rule="nonzero"/><path fill="#757575" d="M736.65314 101.916664L735.52814 101.916664L735.52814 93.385414L736.65314 93.385414L736.65314 101.916664ZM740.27814 99.229164L740.45 100.354164L740.6844 99.33854L742.3719 93.385414L743.325 93.385414L744.96564 99.33854L745.2 100.36979L745.3875 99.21354L746.71564 93.385414L747.84064 93.385414L745.77814 101.916664L744.7469 101.916664L742.98126 95.697914L742.85626 95.041664L742.71564 95.697914L740.90314 101.916664L739.8719 101.916664L737.8094 93.385414L738.9344 93.385414L740.27814 99.229164ZM749.4344 101.916664L749.4344 93.385414L751.85626 93.385414Q752.96564 93.385414 753.8094 93.885414Q754.66876 94.36979 755.1375 95.27604Q755.60626 96.18229 755.60626 97.36979L755.60626 97.90104Q755.60626 99.11979 755.1375 100.02604Q754.6844 100.93229 753.8094 101.416664Q752.95 101.90104 751.8094 101.916664L749.4344 101.916664ZM750.5594 94.30729L750.5594 100.99479L751.7469 100.99479Q753.04376 100.99479 753.7625 100.197914Q754.4969 99.385414 754.4969 97.885414L754.4969 97.385414Q754.4969 95.93229 753.8094 95.135414Q753.1375 94.322914 751.8719 94.30729L750.5594 94.30729ZM762.15314 99.68229L758.575 99.68229L757.77814 101.916664L756.6219 101.916664L759.8719 93.385414L760.85626 93.385414L764.1219 101.916664L762.96564 101.916664L762.15314 99.68229ZM758.91876 98.760414L761.825 98.760414L760.3719 94.77604L758.91876 98.760414Z" fill-rule="nonzero"/><path stroke="#f4b400" stroke-width="4.0" stroke-linecap="butt" d="M714.45 122.416664L726.45 122.416664" fill-rule="nonzero"/><path fill="#757575" d="M736.65314 126.916664L735.52814 126.916664L735.52814 118.385414L736.65314 118.385414L736.65314 126.916664ZM744.45 118.385414L744.45 124.18229Q744.4344 125.385414 743.6844 126.166664Q742.9344 126.93229 741.65314 127.02604L741.34064 127.041664Q739.95 127.041664 739.10626 126.291664Q738.27814 125.52604 738.27814 124.197914L738.27814 118.385414L739.3875 118.385414L739.3875 124.166664Q739.3875 125.08854 739.8875 125.604164Q740.40314 126.11979 741.34064 126.11979Q742.3094 126.11979 742.8094 125.604164Q743.3094 125.08854 743.3094 124.166664L743.3094 118.385414L744.45 118.385414ZM748.95 123.11979Q747.5125 122.697914 746.84064 122.08854Q746.1844 121.479164 746.1844 120.58854Q746.1844 119.58854 746.98126 118.93229Q747.79376 118.260414 749.09064 118.260414Q749.96564 118.260414 750.65314 118.604164Q751.34064 118.947914 751.71564 119.541664Q752.10626 120.135414 752.10626 120.854164L750.96564 120.854164Q750.96564 120.072914 750.46564 119.635414Q749.98126 119.197914 749.09064 119.197914Q748.2625 119.197914 747.79376 119.572914Q747.325 119.93229 747.325 120.572914Q747.325 121.104164 747.7625 121.46354Q748.21564 121.822914 749.27814 122.11979Q750.34064 122.416664 750.9344 122.77604Q751.54376 123.135414 751.825 123.61979Q752.1219 124.104164 752.1219 124.74479Q752.1219 125.791664 751.3094 126.416664Q750.4969 127.041664 749.15314 127.041664Q748.2625 127.041664 747.4969 126.697914Q746.7469 126.354164 746.325 125.77604Q745.91876 125.18229 745.91876 124.447914L747.04376 124.447914Q747.04376 125.21354 747.6219 125.666664Q748.2 126.11979 749.15314 126.11979Q750.04376 126.11979 750.5125 125.760414Q750.98126 125.385414 750.98126 124.760414Q750.98126 124.135414 750.54376 123.791664Q750.10626 123.447914 748.95 123.11979ZM759.9969 126.916664L758.8719 126.916664L754.575 120.33854L754.575 126.916664L753.4344 126.916664L753.4344 118.385414L754.575 118.385414L758.8719 124.99479L758.8719 118.385414L759.9969 118.385414L759.9969 126.916664Z" fill-rule="nonzero"/><path stroke="#0f9d58" stroke-width="4.0" stroke-linecap="butt" d="M714.45 147.41667L726.45 147.41667" fill-rule="nonzero"/><path fill="#757575" d="M738.23126 146.65105L740.2625 143.38542L741.59064 143.38542L738.90314 147.6198L741.65314 151.91667L740.325 151.91667L738.23126 148.58855L736.1219 151.91667L734.77814 151.91667L737.54376 147.6198L734.85626 143.38542L736.16876 143.38542L738.23126 146.65105ZM744.8875 143.38542L747.6844 150.33855L750.46564 143.38542L751.9344 143.38542L751.9344 151.91667L750.8094 151.91667L750.8094 148.58855L750.91876 145.01042L748.10626 151.91667L747.2469 151.91667L744.45 145.02605L744.5594 148.58855L744.5594 151.91667L743.4344 151.91667L743.4344 143.38542L744.8875 143.38542ZM754.8875 143.38542L757.6844 150.33855L760.46564 143.38542L761.9344 143.38542L761.9344 151.91667L760.8094 151.91667L760.8094 148.58855L760.91876 145.01042L758.10626 151.91667L757.2469 151.91667L754.45 145.02605L754.5594 148.58855L754.5594 151.91667L753.4344 151.91667L753.4344 143.38542L754.8875 143.38542ZM768.2625 147.97917L764.5594 147.97917L764.5594 150.9948L768.85626 150.9948L768.85626 151.91667L763.4344 151.91667L763.4344 143.38542L768.8094 143.38542L768.8094 144.3073L764.5594 144.3073L764.5594 147.0573L768.2625 147.0573L768.2625 147.97917Z" fill-rule="nonzero"/><path stroke="#ff6d00" stroke-width="4.0" stroke-linecap="butt" d="M714.45 172.41667L726.45 172.41667" fill-rule="nonzero"/><path fill="#757575" d="M740.2625 172.97917L736.5594 172.97917L736.5594 175.9948L740.85626 175.9948L740.85626 176.91667L735.4344 176.91667L735.4344 168.38542L740.8094 168.38542L740.8094 169.3073L736.5594 169.3073L736.5594 172.0573L740.2625 172.0573L740.2625 172.97917ZM743.5594 173.57292L743.5594 176.91667L742.4344 176.91667L742.4344 168.38542L745.59064 168.38542Q746.98126 168.38542 747.77814 169.10417Q748.575 169.8073 748.575 170.9948Q748.575 172.22917 747.79376 172.90105Q747.02814 173.57292 745.575 173.57292L743.5594 173.57292ZM743.5594 172.65105L745.59064 172.65105Q746.4969 172.65105 746.96564 172.22917Q747.45 171.8073 747.45 171.01042Q747.45 170.2448 746.96564 169.79167Q746.4969 169.32292 745.65314 169.3073L743.5594 169.3073L743.5594 172.65105ZM753.575 173.46355L751.5594 173.46355L751.5594 176.91667L750.4344 176.91667L750.4344 168.38542L753.2625 168.38542Q754.7 168.38542 755.46564 169.04167Q756.2469 169.69792 756.2469 170.94792Q756.2469 171.7448 755.8094 172.33855Q755.3875 172.9323 754.6219 173.22917L756.6219 176.83855L756.6219 176.91667L755.41876 176.91667L753.575 173.46355ZM751.5594 172.54167L753.29376 172.54167Q754.1375 172.54167 754.6219 172.1198Q755.1219 171.6823 755.1219 170.94792Q755.1219 170.16667 754.65314 169.7448Q754.1844 169.32292 753.29376 169.3073L751.5594 169.3073L751.5594 172.54167ZM762.15314 174.6823L758.575 174.6823L757.77814 176.91667L756.6219 176.91667L759.8719 168.38542L760.85626 168.38542L764.1219 176.91667L762.96564 176.91667L762.15314 174.6823ZM758.91876 173.76042L761.825 173.76042L760.3719 169.77605L758.91876 173.76042Z" fill-rule="nonzero"/><path fill="#757575" d="M28.08125 37.9875L28.08125 43.55L26.20625 43.55L26.20625 29.33125L31.440624 29.33125Q33.784374 29.33125 35.096874 30.51875Q36.425 31.70625 36.425 33.675Q36.425 35.753124 35.128124 36.878124Q33.83125 37.9875 31.425 37.9875L28.08125 37.9875ZM28.08125 36.45625L31.440624 36.45625Q32.95625 36.45625 33.753124 35.753124Q34.55 35.034374 34.55 33.690624Q34.55 32.425 33.753124 31.675Q32.95625 30.909374 31.55 30.878124L28.08125 30.878124L28.08125 36.45625ZM43.3 43.753124Q41.159374 43.753124 39.8 42.346874Q38.45625 40.925 38.45625 38.565624L38.45625 38.221874Q38.45625 36.659374 39.05 35.425Q39.659374 34.190624 40.7375 33.4875Q41.815624 32.784374 43.08125 32.784374Q45.14375 32.784374 46.284374 34.14375Q47.425 35.503124 47.425 38.034374L47.425 38.784374L40.26875 38.784374Q40.3 40.346874 41.175 41.315624Q42.05 42.26875 43.39375 42.26875Q44.3625 42.26875 45.01875 41.878124Q45.690624 41.4875 46.190624 40.846874L47.284374 41.70625Q45.95625 43.753124 43.3 43.753124ZM43.08125 34.26875Q41.9875 34.26875 41.2375 35.065624Q40.503124 35.8625 40.33125 37.3L45.6125 37.3L45.6125 37.159374Q45.534374 35.784374 44.8625 35.034374Q44.20625 34.26875 43.08125 34.26875ZM55.01875 34.596874Q54.6125 34.534374 54.14375 34.534374Q52.3625 34.534374 51.721874 36.05L51.721874 43.55L49.925 43.55L49.925 32.9875L51.675 32.9875L51.70625 34.20625Q52.596874 32.784374 54.221874 32.784374Q54.753124 32.784374 55.01875 32.925L55.01875 34.596874ZM57.8 43.55L57.8 34.378124L56.14375 34.378124L56.14375 32.9875L57.8 32.9875L57.8 31.89375Q57.8 30.20625 58.70625 29.284374Q59.628124 28.346874 61.284374 28.346874Q61.909374 28.346874 62.51875 28.503124L62.425 29.971874Q61.971874 29.89375 61.45625 29.89375Q60.565624 29.89375 60.08125 30.409374Q59.6125 30.909374 59.6125 31.8625L59.6125 32.9875L61.8625 32.9875L61.8625 34.378124L59.6125 34.378124L59.6125 43.55L57.8 43.55ZM63.440624 38.175Q63.440624 36.6125 64.05 35.378124Q64.65938 34.128124 65.7375 33.45625Q66.83125 32.784374 68.2375 32.784374Q70.39375 32.784374 71.72188 34.284374Q73.06563 35.76875 73.06563 38.253124L73.06563 38.378124Q73.06563 39.925 72.47188 41.159374Q71.87813 42.378124 70.76875 43.065624Q69.675 43.753124 68.25313 43.753124Q66.1125 43.753124 64.76875 42.253124Q63.440624 40.753124 63.440624 38.3L63.440624 38.175ZM65.25313 38.378124Q65.25313 40.14375 66.06563 41.20625Q66.89375 42.26875 68.25313 42.26875Q69.62813 42.26875 70.44063 41.190624Q71.25313 40.1125 71.25313 38.175Q71.25313 36.425 70.425 35.346874Q69.59688 34.26875 68.2375 34.26875Q66.89375 34.26875 66.06563 35.33125Q65.25313 36.39375 65.25313 38.378124ZM80.01875 34.596874Q79.6125 34.534374 79.14375 34.534374Q77.3625 34.534374 76.72188 36.05L76.72188 43.55L74.925 43.55L74.925 32.9875L76.675 32.9875L76.70625 34.20625Q77.59688 32.784374 79.22188 32.784374Q79.75313 32.784374 80.01875 32.925L80.01875 34.596874ZM83.6125 32.9875L83.65938 34.159374Q84.83125 32.784374 86.8 32.784374Q89.01875 32.784374 89.81563 34.4875Q90.34688 33.721874 91.19063 33.253124Q92.03438 32.784374 93.19063 32.784374Q96.65938 32.784374 96.72188 36.471874L96.72188 43.55L94.90938 43.55L94.90938 36.58125Q94.90938 35.440624 94.39375 34.878124Q93.87813 34.315624 92.65938 34.315624Q91.65938 34.315624 90.9875 34.925Q90.33125 35.51875 90.22188 36.534374L90.22188 43.55L88.40938 43.55L88.40938 36.628124Q88.40938 34.315624 86.14375 34.315624Q84.3625 34.315624 83.72188 35.83125L83.72188 43.55L81.90938 43.55L81.90938 32.9875L83.6125 32.9875ZM106.44063 43.55Q106.28438 43.2375 106.19063 42.440624Q104.925 43.753124 103.175 43.753124Q101.6125 43.753124 100.6125 42.8625Q99.6125 41.971874 99.6125 40.6125Q99.6125 38.971874 100.8625 38.065624Q102.12813 37.14375 104.39375 37.14375L106.15938 37.14375L106.15938 36.315624Q106.15938 35.3625 105.58125 34.8Q105.01875 34.2375 103.925 34.2375Q102.95625 34.2375 102.3 34.7375Q101.64375 35.221874 101.64375 35.909374L99.83125 35.909374Q99.83125 35.128124 100.39375 34.39375Q100.95625 33.64375 101.90938 33.221874Q102.87813 32.784374 104.03438 32.784374Q105.8625 32.784374 106.89375 33.70625Q107.925 34.6125 107.97188 36.221874L107.97188 41.08125Q107.97188 42.534374 108.33125 43.39375L108.33125 43.55L106.44063 43.55ZM103.44063 42.175Q104.3 42.175 105.05 41.7375Q105.81563 41.3 106.15938 40.596874L106.15938 38.425L104.7375 38.425Q101.425 38.425 101.425 40.3625Q101.425 41.221874 101.9875 41.70625Q102.55 42.175 103.44063 42.175ZM112.62813 32.9875L112.69063 34.315624Q113.89375 32.784374 115.84688 32.784374Q119.20625 32.784374 119.22188 36.565624L119.22188 43.55L117.425 43.55L117.425 36.55Q117.40938 35.409374 116.89375 34.8625Q116.39375 34.315624 115.3 34.315624Q114.425 34.315624 113.75313 34.784374Q113.09688 35.253124 112.72188 36.01875L112.72188 43.55L110.925 43.55L110.925 32.9875L112.62813 32.9875ZM126.15938 42.26875Q127.12813 42.26875 127.84688 41.690624Q128.56563 41.096874 128.64375 40.221874L130.3625 40.221874Q130.3 41.128124 129.72188 41.95625Q129.15938 42.76875 128.19063 43.26875Q127.2375 43.753124 126.15938 43.753124Q124.00313 43.753124 122.72188 42.315624Q121.45625 40.8625 121.45625 38.3625L121.45625 38.065624Q121.45625 36.51875 122.01875 35.315624Q122.58125 34.1125 123.64375 33.45625Q124.70625 32.784374 126.14375 32.784374Q127.925 32.784374 129.09688 33.846874Q130.28438 34.909374 130.3625 36.6125L128.64375 36.6125Q128.56563 35.596874 127.8625 34.940624Q127.175 34.26875 126.14375 34.26875Q124.76875 34.26875 124.00313 35.26875Q123.25313 36.253124 123.25313 38.128124L123.25313 38.471874Q123.25313 40.3 124.00313 41.284374Q124.75313 42.26875 126.15938 42.26875ZM136.3 43.753124Q134.15938 43.753124 132.8 42.346874Q131.45625 40.925 131.45625 38.565624L131.45625 38.221874Q131.45625 36.659374 132.05 35.425Q132.65938 34.190624 133.7375 33.4875Q134.81563 32.784374 136.08125 32.784374Q138.14375 32.784374 139.28438 34.14375Q140.425 35.503124 140.425 38.034374L140.425 38.784374L133.26875 38.784374Q133.3 40.346874 134.175 41.315624Q135.05 42.26875 136.39375 42.26875Q137.3625 42.26875 138.01875 41.878124Q138.69063 41.4875 139.19063 40.846874L140.28438 41.70625Q138.95625 43.753124 136.3 43.753124ZM136.08125 34.26875Q134.9875 34.26875 134.2375 35.065624Q133.50313 35.8625 133.33125 37.3L138.6125 37.3L138.6125 37.159374Q138.53438 35.784374 137.8625 35.034374Q137.20625 34.26875 136.08125 34.26875ZM156.84688 38.378124Q156.84688 40.8 155.7375 42.284374Q154.64375 43.753124 152.75313 43.753124Q150.83125 43.753124 149.72188 42.51875L149.72188 47.6125L147.925 47.6125L147.925 32.9875L149.56563 32.9875L149.65938 34.159374Q150.75313 32.784374 152.72188 32.784374Q154.62813 32.784374 155.7375 34.221874Q156.84688 35.659374 156.84688 38.221874L156.84688 38.378124ZM155.03438 38.175Q155.03438 36.39375 154.26875 35.3625Q153.51875 34.315624 152.19063 34.315624Q150.55 34.315624 149.72188 35.76875L149.72188 40.83125Q150.53438 42.26875 152.20625 42.26875Q153.50313 42.26875 154.26875 41.2375Q155.03438 40.20625 155.03438 38.175ZM163.3 43.753124Q161.15938 43.753124 159.8 42.346874Q158.45625 40.925 158.45625 38.565624L158.45625 38.221874Q158.45625 36.659374 159.05 35.425Q159.65938 34.190624 160.7375 33.4875Q161.81563 32.784374 163.08125 32.784374Q165.14375 32.784374 166.28438 34.14375Q167.425 35.503124 167.425 38.034374L167.425 38.784374L160.26875 38.784374Q160.3 40.346874 161.175 41.315624Q162.05 42.26875 163.39375 42.26875Q164.3625 42.26875 165.01875 41.878124Q165.69063 41.4875 166.19063 40.846874L167.28438 41.70625Q165.95625 43.753124 163.3 43.753124ZM163.08125 34.26875Q161.9875 34.26875 161.2375 35.065624Q160.50313 35.8625 160.33125 37.3L165.6125 37.3L165.6125 37.159374Q165.53438 35.784374 164.8625 35.034374Q164.20625 34.26875 163.08125 34.26875ZM175.01875 34.596874Q174.6125 34.534374 174.14375 34.534374Q172.3625 34.534374 171.72188 36.05L171.72188 43.55L169.925 43.55L169.925 32.9875L171.675 32.9875L171.70625 34.20625Q172.59688 32.784374 174.22188 32.784374Q174.75313 32.784374 175.01875 32.925L175.01875 34.596874ZM188.44063 43.55Q188.28438 43.2375 188.19063 42.440624Q186.925 43.753124 185.175 43.753124Q183.6125 43.753124 182.6125 42.8625Q181.6125 41.971874 181.6125 40.6125Q181.6125 38.971874 182.8625 38.065624Q184.12813 37.14375 186.39375 37.14375L188.15938 37.14375L188.15938 36.315624Q188.15938 35.3625 187.58125 34.8Q187.01875 34.2375 185.925 34.2375Q184.95625 34.2375 184.3 34.7375Q183.64375 35.221874 183.64375 35.909374L181.83125 35.909374Q181.83125 35.128124 182.39375 34.39375Q182.95625 33.64375 183.90938 33.221874Q184.87813 32.784374 186.03438 32.784374Q187.8625 32.784374 188.89375 33.70625Q189.925 34.6125 189.97188 36.221874L189.97188 41.08125Q189.97188 42.534374 190.33125 43.39375L190.33125 43.55L188.44063 43.55ZM185.44063 42.175Q186.3 42.175 187.05 41.7375Q187.81563 41.3 188.15938 40.596874L188.15938 38.425L186.7375 38.425Q183.425 38.425 183.425 40.3625Q183.425 41.221874 183.9875 41.70625Q184.55 42.175 185.44063 42.175ZM199.06563 40.753124Q199.06563 40.01875 198.51875 39.6125Q197.97188 39.20625 196.59688 38.909374Q195.22188 38.6125 194.40938 38.20625Q193.6125 37.8 193.22188 37.2375Q192.84688 36.659374 192.84688 35.878124Q192.84688 34.58125 193.94063 33.690624Q195.03438 32.784374 196.75313 32.784374Q198.55 32.784374 199.65938 33.721874Q200.78438 34.64375 200.78438 36.08125L198.95625 36.08125Q198.95625 35.346874 198.33125 34.815624Q197.70625 34.26875 196.75313 34.26875Q195.75313 34.26875 195.19063 34.70625Q194.64375 35.128124 194.64375 35.83125Q194.64375 36.471874 195.15938 36.815624Q195.675 37.14375 197.03438 37.45625Q198.39375 37.753124 199.22188 38.175Q200.06563 38.58125 200.47188 39.175Q200.87813 39.76875 200.87813 40.6125Q200.87813 42.034374 199.7375 42.89375Q198.6125 43.753124 196.8 43.753124Q195.53438 43.753124 194.55 43.3Q193.58125 42.846874 193.01875 42.05Q192.47188 41.2375 192.47188 40.3L194.28438 40.3Q194.33125 41.20625 195.00313 41.7375Q195.69063 42.26875 196.8 42.26875Q197.83125 42.26875 198.44063 41.8625Q199.06563 41.440624 199.06563 40.753124ZM209.06563 40.753124Q209.06563 40.01875 208.51875 39.6125Q207.97188 39.20625 206.59688 38.909374Q205.22188 38.6125 204.40938 38.20625Q203.6125 37.8 203.22188 37.2375Q202.84688 36.659374 202.84688 35.878124Q202.84688 34.58125 203.94063 33.690624Q205.03438 32.784374 206.75313 32.784374Q208.55 32.784374 209.65938 33.721874Q210.78438 34.64375 210.78438 36.08125L208.95625 36.08125Q208.95625 35.346874 208.33125 34.815624Q207.70625 34.26875 206.75313 34.26875Q205.75313 34.26875 205.19063 34.70625Q204.64375 35.128124 204.64375 35.83125Q204.64375 36.471874 205.15938 36.815624Q205.675 37.14375 207.03438 37.45625Q208.39375 37.753124 209.22188 38.175Q210.06563 38.58125 210.47188 39.175Q210.87813 39.76875 210.87813 40.6125Q210.87813 42.034374 209.7375 42.89375Q208.6125 43.753124 206.8 43.753124Q205.53438 43.753124 204.55 43.3Q203.58125 42.846874 203.01875 42.05Q202.47188 41.2375 202.47188 40.3L204.28438 40.3Q204.33125 41.20625 205.00313 41.7375Q205.69063 42.26875 206.8 42.26875Q207.83125 42.26875 208.44063 41.8625Q209.06563 41.440624 209.06563 40.753124ZM217.3 43.753124Q215.15938 43.753124 213.8 42.346874Q212.45625 40.925 212.45625 38.565624L212.45625 38.221874Q212.45625 36.659374 213.05 35.425Q213.65938 34.190624 214.7375 33.4875Q215.81563 32.784374 217.08125 32.784374Q219.14375 32.784374 220.28438 34.14375Q221.425 35.503124 221.425 38.034374L221.425 38.784374L214.26875 38.784374Q214.3 40.346874 215.175 41.315624Q216.05 42.26875 217.39375 42.26875Q218.3625 42.26875 219.01875 41.878124Q219.69063 41.4875 220.19063 40.846874L221.28438 41.70625Q219.95625 43.753124 217.3 43.753124ZM217.08125 34.26875Q215.9875 34.26875 215.2375 35.065624Q214.50313 35.8625 214.33125 37.3L219.6125 37.3L219.6125 37.159374Q219.53438 35.784374 218.8625 35.034374Q218.20625 34.26875 217.08125 34.26875ZM226.3625 30.425L226.3625 32.9875L228.34688 32.9875L228.34688 34.378124L226.3625 34.378124L226.3625 40.925Q226.3625 41.565624 226.62813 41.89375Q226.89375 42.20625 227.53438 42.20625Q227.84688 42.20625 228.39375 42.08125L228.39375 43.55Q227.675 43.753124 227.00313 43.753124Q225.8 43.753124 225.175 43.01875Q224.56563 42.284374 224.56563 40.925L224.56563 34.378124L222.64375 34.378124L222.64375 32.9875L224.56563 32.9875L224.56563 30.425L226.3625 30.425Z" fill-rule="nonzero"/></svg>