<svg version="1.1" viewBox="0.0 0.0 972.0 601.0" fill="none" stroke="none" stroke-linecap="square" stroke-miterlimit="10" width="972" height="601" xmlns:xlink="http://www.w3.org/1999/xlink" xmlns="http://www.w3.org/2000/svg"><path fill="#ffffff" d="M0 0L972.0 0L972.0 601.0L0 601.0L0 0Z" fill-rule="nonzero"/><path stroke="#cccccc" stroke-width="1.0" stroke-linecap="butt" d="M99.5 116.5L99.5 516.5" fill-rule="nonzero"/><path stroke="#cccccc" stroke-width="1.0" stroke-linecap="butt" d="M306.5 116.5L306.5 516.5" fill-rule="nonzero"/><path stroke="#cccccc" stroke-width="1.0" stroke-linecap="butt" d="M517.5 116.5L517.5 516.5" fill-rule="nonzero"/><path stroke="#cccccc" stroke-width="1.0" stroke-linecap="butt" d="M729.5 116.5L729.5 516.5" fill-rule="nonzero"/><path stroke="#cccccc" stroke-width="1.0" stroke-linecap="butt" d="M941.5 116.5L941.5 516.5" fill-rule="nonzero"/><path stroke="#cccccc" stroke-width="1.0" stroke-linecap="butt" d="M99.5 516.5L941.5 516.5" fill-rule="nonzero"/><path stroke="#cccccc" stroke-width="1.0" stroke-linecap="butt" d="M99.5 383.5L941.5 383.5" fill-rule="nonzero"/><path stroke="#cccccc" stroke-width="1.0" stroke-linecap="butt" d="M99.5 250.5L941.5 250.5" fill-rule="nonzero"/><path stroke="#cccccc" stroke-width="1.0" stroke-linecap="butt" d="M99.5 116.5L941.5 116.5" fill-rule="nonzero"/><clipPath id="id_0"><path d="M99.05 116.61667L941.95 116.61667L941.95 516.95L99.05 516.95L99.05 116.61667Z" clip-rule="nonzero"/></clipPath><path stroke="#4285f4" stroke-width="2.0" stroke-linecap="butt" clip-path="url(#id_0)" d="M99.05 516.95C99.05 516.95 149.08516 512.2089 170.63876 512.20636C192.19237 512.2038 213.74599 519.04895 235.29959 516.47565C256.8532 513.90234 283.7952 497.02798 306.88837 494.6549C329.9815 492.2818 353.07465 503.69586 376.16782 501.53317C399.26096 499.37048 424.66342 486.98444 447.75656 481.01694C470.84973 475.04947 493.94287 468.96817 517.036 465.06647C540.12915 461.16476 564.7619 465.01706 588.6248 457.35806C612.48773 449.69907 637.1204 422.8599 660.21356 419.1125C683.3067 415.36508 706.39984 429.78406 729.49304 433.63986C752.5862 437.49567 777.98865 439.469 801.0818 442.53418C824.1749 445.5994 847.26807 449.3484 870.3612 452.31793C893.4544 455.2875 941.95 460.6193 941.95 460.6193" fill-rule="nonzero"/><path stroke="#db4437" stroke-width="2.0" stroke-linecap="butt" clip-path="url(#id_0)" d="M99.05 516.95C99.05 516.95 149.08516 442.62753 170.63876 418.33054C192.19237 394.03357 213.74599 376.6426 235.29959 361.62436C256.8532 346.6061 283.7952 339.9039 306.88837 324.64206C329.9815 309.38025 353.07465 265.97906 376.16782 268.86044C399.26096 271.74182 424.66342 341.94687 447.75656 344.36597C470.84973 346.78506 493.94287 304.76575 517.036 285.81067C540.12915 266.8556 564.7619 233.72726 588.6248 228.7963C612.48773 223.86533 637.1204 260.5328 660.21356 256.22482C683.3067 251.91685 706.39984 212.21722 729.49304 203.83324C752.5862 195.44926 777.98865 217.7132 801.0818 205.99054C824.1749 194.26788 847.26807 147.47667 870.3612 133.56688C893.4544 119.657104 941.95 122.16401 941.95 122.16401" fill-rule="nonzero"/><path stroke="#f4b400" stroke-width="2.0" stroke-linecap="butt" clip-path="url(#id_0)" d="M99.05 516.95C99.05 516.95 149.08516 438.82227 170.63876 410.87878C192.19237 382.93527 213.74599 352.5451 235.29959 339.02408C256.8532 325.50302 283.7952 338.96887 306.88837 328.75912C329.9815 318.54935 353.07465 269.98395 376.16782 277.43433C399.26096 284.8847 424.66342 369.78217 447.75656 376.66226C470.84973 383.54236 493.94287 338.76654 517.036 321.9158C540.12915 305.0651 564.7619 273.4424 588.6248 274.01266C612.48773 274.58295 637.1204 325.04312 660.21356 325.33746C683.3067 325.6318 706.39984 285.97006 729.49304 277.43433C752.5862 268.8986 777.98865 286.54034 801.0818 274.01266C824.1749 261.48502 847.26807 219.65256 870.3612 202.15797C893.4544 184.6634 941.95 167.94145 941.95 167.94145" fill-rule="nonzero"/><path stroke="#0f9d58" stroke-width="2.0" stroke-linecap="butt" clip-path="url(#id_0)" d="M99.05 516.95C99.05 516.95 149.08516 418.10776 170.63876 401.05954C192.19237 384.01135 213.74599 408.43558 235.29959 403.44553C256.8532 398.4555 283.7952 379.2229 306.88837 367.65582C329.9815 356.08878 353.07465 320.7609 376.16782 332.8887C399.26096 345.0165 424.66342 436.25366 447.75656 444.0072C470.84973 451.7607 493.94287 394.3726 517.036 382.99426C540.12915 371.61597 564.7619 367.76944 588.6248 375.49548C612.48773 383.2215 637.1204 428.33337 660.21356 429.35046C683.3067 430.36752 706.39984 393.4233 729.49304 383.3351C752.5862 373.24695 777.98865 374.10825 801.0818 368.33755C824.1749 362.56683 847.26807 371.31543 870.3612 348.22714C893.4544 325.13885 941.95 225.86046 941.95 225.86046" fill-rule="nonzero"/><path stroke="#ff6d00" stroke-width="2.0" stroke-linecap="butt" clip-path="url(#id_0)" d="M99.05 516.95C99.05 516.95 149.08516 403.96 170.63876 380.78748C192.19237 357.61496 213.74599 378.47998 235.29959 364.7379C256.8532 350.99585 283.7952 299.06577 306.88837 291.2205C329.9815 283.37524 353.07465 312.07578 376.16782 315.29486C399.26096 318.51398 424.66342 310.78143 447.75656 310.37643C470.84973 309.97144 493.94287 319.4158 517.036 312.70624C540.12915 305.99664 564.7619 282.8937 588.6248 268.69934C612.48773 254.50494 637.1204 243.36823 660.21356 227.53993C683.3067 211.71164 706.39984 181.4663 729.49304 172.40189C752.5862 163.33746 777.98865 173.31207 801.0818 173.17847C824.1749 173.04486 847.26807 166.45636 870.3612 171.62529C893.4544 176.79422 941.95 205.27762 941.95 205.27762" fill-rule="nonzero"/><path fill="#000000" fill-opacity="0.0" clip-path="url(#id_0)" d="M102.05 516.95C102.05 518.6069 100.706856 519.95 99.05 519.95C97.39314 519.95 96.05 518.6069 96.05 516.95C96.05 515.29315 97.39314 513.95 99.05 513.95C100.706856 513.95 102.05 515.29315 102.05 516.95Z" fill-rule="nonzero"/><path fill="#000000" fill-opacity="0.0" clip-path="url(#id_0)" d="M173.63876 512.20636C173.63876 513.8632 172.29562 515.20636 170.63876 515.20636C168.98192 515.20636 167.63876 513.8632 167.63876 512.20636C167.63876 510.5495 168.98192 509.20636 170.63876 509.20636C172.29562 509.20636 173.63876 510.5495 173.63876 512.20636Z" fill-rule="nonzero"/><path fill="#000000" fill-opacity="0.0" clip-path="url(#id_0)" d="M238.29959 516.47565C238.29959 518.1325 236.95644 519.47565 235.29959 519.47565C233.64273 519.47565 232.29959 518.1325 232.29959 516.47565C232.29959 514.8188 233.64273 513.47565 235.29959 513.47565C236.95644 513.47565 238.29959 514.8188 238.29959 516.47565Z" fill-rule="nonzero"/><path fill="#000000" fill-opacity="0.0" clip-path="url(#id_0)" d="M309.88837 494.6549C309.88837 496.31177 308.5452 497.6549 306.88837 497.6549C305.2315 497.6549 303.88837 496.31177 303.88837 494.6549C303.88837 492.99805 305.2315 491.6549 306.88837 491.6549C308.5452 491.6549 309.88837 492.99805 309.88837 494.6549Z" fill-rule="nonzero"/><path fill="#000000" fill-opacity="0.0" clip-path="url(#id_0)" d="M379.16782 501.53317C379.16782 503.19003 377.82468 504.53317 376.16782 504.53317C374.51096 504.53317 373.16782 503.19003 373.16782 501.53317C373.16782 499.8763 374.51096 498.53317 376.16782 498.53317C377.82468 498.53317 379.16782 499.8763 379.16782 501.53317Z" fill-rule="nonzero"/><path fill="#000000" fill-opacity="0.0" clip-path="url(#id_0)" d="M450.75656 481.01694C450.75656 482.6738 449.41342 484.01694 447.75656 484.01694C446.09973 484.01694 444.75656 482.6738 444.75656 481.01694C444.75656 479.3601 446.09973 478.01694 447.75656 478.01694C449.41342 478.01694 450.75656 479.3601 450.75656 481.01694Z" fill-rule="nonzero"/><path fill="#000000" fill-opacity="0.0" clip-path="url(#id_0)" d="M520.036 465.06647C520.036 466.72333 518.6929 468.06647 517.036 468.06647C515.37915 468.06647 514.036 466.72333 514.036 465.06647C514.036 463.4096 515.37915 462.06647 517.036 462.06647C518.6929 462.06647 520.036 463.4096 520.036 465.06647Z" fill-rule="nonzero"/><path fill="#000000" fill-opacity="0.0" clip-path="url(#id_0)" d="M591.6248 457.35806C591.6248 459.01492 590.2817 460.35806 588.6248 460.35806C586.96796 460.35806 585.6248 459.01492 585.6248 457.35806C585.6248 455.7012 586.96796 454.35806 588.6248 454.35806C590.2817 454.35806 591.6248 455.7012 591.6248 457.35806Z" fill-rule="nonzero"/><path fill="#000000" fill-opacity="0.0" clip-path="url(#id_0)" d="M663.21356 419.1125C663.21356 420.76935 661.8704 422.1125 660.21356 422.1125C658.5567 422.1125 657.21356 420.76935 657.21356 419.1125C657.21356 417.45563 658.5567 416.1125 660.21356 416.1125C661.8704 416.1125 663.21356 417.45563 663.21356 419.1125Z" fill-rule="nonzero"/><path fill="#000000" fill-opacity="0.0" clip-path="url(#id_0)" d="M732.49304 433.63986C732.49304 435.29672 731.14984 436.63986 729.49304 436.63986C727.8362 436.63986 726.49304 435.29672 726.49304 433.63986C726.49304 431.98303 727.8362 430.63986 729.49304 430.63986C731.14984 430.63986 732.49304 431.98303 732.49304 433.63986Z" fill-rule="nonzero"/><path fill="#000000" fill-opacity="0.0" clip-path="url(#id_0)" d="M804.0818 442.53418C804.0818 444.19104 802.73865 445.53418 801.0818 445.53418C799.4249 445.53418 798.0818 444.19104 798.0818 442.53418C798.0818 440.87735 799.4249 439.53418 801.0818 439.53418C802.73865 439.53418 804.0818 440.87735 804.0818 442.53418Z" fill-rule="nonzero"/><path fill="#000000" fill-opacity="0.0" clip-path="url(#id_0)" d="M873.3612 452.31793C873.3612 453.9748 872.01807 455.31793 870.3612 455.31793C868.7044 455.31793 867.3612 453.9748 867.3612 452.31793C867.3612 450.6611 868.7044 449.31793 870.3612 449.31793C872.01807 449.31793 873.3612 450.6611 873.3612 452.31793Z" fill-rule="nonzero"/><path fill="#000000" fill-opacity="0.0" clip-path="url(#id_0)" d="M944.95 460.6193C944.95 462.27615 943.6069 463.6193 941.95 463.6193C940.29315 463.6193 938.95 462.27615 938.95 460.6193C938.95 458.96246 940.29315 457.6193 941.95 457.6193C943.6069 457.6193 944.95 458.96246 944.95 460.6193Z" fill-rule="nonzero"/><path fill="#000000" fill-opacity="0.0" clip-path="url(#id_0)" d="M102.05 516.95C102.05 518.6069 100.706856 519.95 99.05 519.95C97.39314 519.95 96.05 518.6069 96.05 516.95C96.05 515.29315 97.39314 513.95 99.05 513.95C100.706856 513.95 102.05 515.29315 102.05 516.95Z" fill-rule="nonzero"/><path fill="#000000" fill-opacity="0.0" clip-path="url(#id_0)" d="M173.63876 418.33054C173.63876 419.9874 172.29562 421.33054 170.63876 421.33054C168.98192 421.33054 167.63876 419.9874 167.63876 418.33054C167.63876 416.6737 168.98192 415.33054 170.63876 415.33054C172.29562 415.33054 173.63876 416.6737 173.63876 418.33054Z" fill-rule="nonzero"/><path fill="#000000" fill-opacity="0.0" clip-path="url(#id_0)" d="M238.29959 361.62436C238.29959 363.28122 236.95644 364.62436 235.29959 364.62436C233.64273 364.62436 232.29959 363.28122 232.29959 361.62436C232.29959 359.9675 233.64273 358.62436 235.29959 358.62436C236.95644 358.62436 238.29959 359.9675 238.29959 361.62436Z" fill-rule="nonzero"/><path fill="#000000" fill-opacity="0.0" clip-path="url(#id_0)" d="M309.88837 324.64206C309.88837 326.29892 308.5452 327.64206 306.88837 327.64206C305.2315 327.64206 303.88837 326.29892 303.88837 324.64206C303.88837 322.98523 305.2315 321.64206 306.88837 321.64206C308.5452 321.64206 309.88837 322.98523 309.88837 324.64206Z" fill-rule="nonzero"/><path fill="#000000" fill-opacity="0.0" clip-path="url(#id_0)" d="M379.16782 268.86044C379.16782 270.5173 377.82468 271.86044 376.16782 271.86044C374.51096 271.86044 373.16782 270.5173 373.16782 268.86044C373.16782 267.20358 374.51096 265.86044 376.16782 265.86044C377.82468 265.86044 379.16782 267.20358 379.16782 268.86044Z" fill-rule="nonzero"/><path fill="#000000" fill-opacity="0.0" clip-path="url(#id_0)" d="M450.75656 344.36597C450.75656 346.02283 449.41342 347.36597 447.75656 347.36597C446.09973 347.36597 444.75656 346.02283 444.75656 344.36597C444.75656 342.7091 446.09973 341.36597 447.75656 341.36597C449.41342 341.36597 450.75656 342.7091 450.75656 344.36597Z" fill-rule="nonzero"/><path fill="#000000" fill-opacity="0.0" clip-path="url(#id_0)" d="M520.036 285.81067C520.036 287.46753 518.6929 288.81067 517.036 288.81067C515.37915 288.81067 514.036 287.46753 514.036 285.81067C514.036 284.1538 515.37915 282.81067 517.036 282.81067C518.6929 282.81067 520.036 284.1538 520.036 285.81067Z" fill-rule="nonzero"/><path fill="#000000" fill-opacity="0.0" clip-path="url(#id_0)" d="M591.6248 228.7963C591.6248 230.45314 590.2817 231.7963 588.6248 231.7963C586.96796 231.7963 585.6248 230.45314 585.6248 228.7963C585.6248 227.13943 586.96796 225.7963 588.6248 225.7963C590.2817 225.7963 591.6248 227.13943 591.6248 228.7963Z" fill-rule="nonzero"/><path fill="#000000" fill-opacity="0.0" clip-path="url(#id_0)" d="M663.21356 256.22482C663.21356 257.88168 661.8704 259.22482 660.21356 259.22482C658.5567 259.22482 657.21356 257.88168 657.21356 256.22482C657.21356 254.56798 658.5567 253.22482 660.21356 253.22482C661.8704 253.22482 663.21356 254.56798 663.21356 256.22482Z" fill-rule="nonzero"/><path fill="#000000" fill-opacity="0.0" clip-path="url(#id_0)" d="M732.49304 203.83324C732.49304 205.4901 731.14984 206.83324 729.49304 206.83324C727.8362 206.83324 726.49304 205.4901 726.49304 203.83324C726.49304 202.17639 727.8362 200.83324 729.49304 200.83324C731.14984 200.83324 732.49304 202.17639 732.49304 203.83324Z" fill-rule="nonzero"/><path fill="#000000" fill-opacity="0.0" clip-path="url(#id_0)" d="M804.0818 205.99054C804.0818 207.6474 802.73865 208.99054 801.0818 208.99054C799.4249 208.99054 798.0818 207.6474 798.0818 205.99054C798.0818 204.3337 799.4249 202.99054 801.0818 202.99054C802.73865 202.99054 804.0818 204.3337 804.0818 205.99054Z" fill-rule="nonzero"/><path fill="#000000" fill-opacity="0.0" clip-path="url(#id_0)" d="M873.3612 133.56688C873.3612 135.22374 872.01807 136.56688 870.3612 136.56688C868.7044 136.56688 867.3612 135.22374 867.3612 133.56688C867.3612 131.91003 868.7044 130.56688 870.3612 130.56688C872.01807 130.56688 873.3612 131.91003 873.3612 133.56688Z" fill-rule="nonzero"/><path fill="#000000" fill-opacity="0.0" clip-path="url(#id_0)" d="M944.95 122.16401C944.95 123.82086 943.6069 125.16401 941.95 125.16401C940.29315 125.16401 938.95 123.82086 938.95 122.16401C938.95 120.50716 940.29315 119.16401 941.95 119.16401C943.6069 119.16401 944.95 120.50716 944.95 122.16401Z" fill-rule="nonzero"/><path fill="#000000" fill-opacity="0.0" clip-path="url(#id_0)" d="M102.05 516.95C102.05 518.6069 100.706856 519.95 99.05 519.95C97.39314 519.95 96.05 518.6069 96.05 516.95C96.05 515.29315 97.39314 513.95 99.05 513.95C100.706856 513.95 102.05 515.29315 102.05 516.95Z" fill-rule="nonzero"/><path fill="#000000" fill-opacity="0.0" clip-path="url(#id_0)" d="M173.63876 410.87878C173.63876 412.5356 172.29562 413.87878 170.63876 413.87878C168.98192 413.87878 167.63876 412.5356 167.63876 410.87878C167.63876 409.22192 168.98192 407.87878 170.63876 407.87878C172.29562 407.87878 173.63876 409.22192 173.63876 410.87878Z" fill-rule="nonzero"/><path fill="#000000" fill-opacity="0.0" clip-path="url(#id_0)" d="M238.29959 339.02408C238.29959 340.68094 236.95644 342.02408 235.29959 342.02408C233.64273 342.02408 232.29959 340.68094 232.29959 339.02408C232.29959 337.36722 233.64273 336.02408 235.29959 336.02408C236.95644 336.02408 238.29959 337.36722 238.29959 339.02408Z" fill-rule="nonzero"/><path fill="#000000" fill-opacity="0.0" clip-path="url(#id_0)" d="M309.88837 328.75912C309.88837 330.416 308.5452 331.75912 306.88837 331.75912C305.2315 331.75912 303.88837 330.416 303.88837 328.75912C303.88837 327.10226 305.2315 325.75912 306.88837 325.75912C308.5452 325.75912 309.88837 327.10226 309.88837 328.75912Z" fill-rule="nonzero"/><path fill="#000000" fill-opacity="0.0" clip-path="url(#id_0)" d="M379.16782 277.43433C379.16782 279.0912 377.82468 280.43433 376.16782 280.43433C374.51096 280.43433 373.16782 279.0912 373.16782 277.43433C373.16782 275.77747 374.51096 274.43433 376.16782 274.43433C377.82468 274.43433 379.16782 275.77747 379.16782 277.43433Z" fill-rule="nonzero"/><path fill="#000000" fill-opacity="0.0" clip-path="url(#id_0)" d="M450.75656 376.66226C450.75656 378.3191 449.41342 379.66226 447.75656 379.66226C446.09973 379.66226 444.75656 378.3191 444.75656 376.66226C444.75656 375.0054 446.09973 373.66226 447.75656 373.66226C449.41342 373.66226 450.75656 375.0054 450.75656 376.66226Z" fill-rule="nonzero"/><path fill="#000000" fill-opacity="0.0" clip-path="url(#id_0)" d="M520.036 321.9158C520.036 323.57266 518.6929 324.9158 517.036 324.9158C515.37915 324.9158 514.036 323.57266 514.036 321.9158C514.036 320.25897 515.37915 318.9158 517.036 318.9158C518.6929 318.9158 520.036 320.25897 520.036 321.9158Z" fill-rule="nonzero"/><path fill="#000000" fill-opacity="0.0" clip-path="url(#id_0)" d="M591.6248 274.01266C591.6248 275.66953 590.2817 277.01266 588.6248 277.01266C586.96796 277.01266 585.6248 275.66953 585.6248 274.01266C585.6248 272.35583 586.96796 271.01266 588.6248 271.01266C590.2817 271.01266 591.6248 272.35583 591.6248 274.01266Z" fill-rule="nonzero"/><path fill="#000000" fill-opacity="0.0" clip-path="url(#id_0)" d="M663.21356 325.33746C663.21356 326.99432 661.8704 328.33746 660.21356 328.33746C658.5567 328.33746 657.21356 326.99432 657.21356 325.33746C657.21356 323.6806 658.5567 322.33746 660.21356 322.33746C661.8704 322.33746 663.21356 323.6806 663.21356 325.33746Z" fill-rule="nonzero"/><path fill="#000000" fill-opacity="0.0" clip-path="url(#id_0)" d="M732.49304 277.43433C732.49304 279.0912 731.14984 280.43433 729.49304 280.43433C727.8362 280.43433 726.49304 279.0912 726.49304 277.43433C726.49304 275.77747 727.8362 274.43433 729.49304 274.43433C731.14984 274.43433 732.49304 275.77747 732.49304 277.43433Z" fill-rule="nonzero"/><path fill="#000000" fill-opacity="0.0" clip-path="url(#id_0)" d="M804.0818 274.01266C804.0818 275.66953 802.73865 277.01266 801.0818 277.01266C799.4249 277.01266 798.0818 275.66953 798.0818 274.01266C798.0818 272.35583 799.4249 271.01266 801.0818 271.01266C802.73865 271.01266 804.0818 272.35583 804.0818 274.01266Z" fill-rule="nonzero"/><path fill="#000000" fill-opacity="0.0" clip-path="url(#id_0)" d="M873.3612 202.15797C873.3612 203.81483 872.01807 205.15797 870.3612 205.15797C868.7044 205.15797 867.3612 203.81483 867.3612 202.15797C867.3612 200.50113 868.7044 199.15797 870.3612 199.15797C872.01807 199.15797 873.3612 200.50113 873.3612 202.15797Z" fill-rule="nonzero"/><path fill="#000000" fill-opacity="0.0" clip-path="url(#id_0)" d="M944.95 167.94145C944.95 169.59831 943.6069 170.94145 941.95 170.94145C940.29315 170.94145 938.95 169.59831 938.95 167.94145C938.95 166.28459 940.29315 164.94145 941.95 164.94145C943.6069 164.94145 944.95 166.28459 944.95 167.94145Z" fill-rule="nonzero"/><path fill="#000000" fill-opacity="0.0" clip-path="url(#id_0)" d="M102.05 516.95C102.05 518.6069 100.706856 519.95 99.05 519.95C97.39314 519.95 96.05 518.6069 96.05 516.95C96.05 515.29315 97.39314 513.95 99.05 513.95C100.706856 513.95 102.05 515.29315 102.05 516.95Z" fill-rule="nonzero"/><path fill="#000000" fill-opacity="0.0" clip-path="url(#id_0)" d="M173.63876 401.05954C173.63876 402.7164 172.29562 404.05954 170.63876 404.05954C168.98192 404.05954 167.63876 402.7164 167.63876 401.05954C167.63876 399.4027 168.98192 398.05954 170.63876 398.05954C172.29562 398.05954 173.63876 399.4027 173.63876 401.05954Z" fill-rule="nonzero"/><path fill="#000000" fill-opacity="0.0" clip-path="url(#id_0)" d="M238.29959 403.44553C238.29959 405.1024 236.95644 406.44553 235.29959 406.44553C233.64273 406.44553 232.29959 405.1024 232.29959 403.44553C232.29959 401.78867 233.64273 400.44553 235.29959 400.44553C236.95644 400.44553 238.29959 401.78867 238.29959 403.44553Z" fill-rule="nonzero"/><path fill="#000000" fill-opacity="0.0" clip-path="url(#id_0)" d="M309.88837 367.65582C309.88837 369.31268 308.5452 370.65582 306.88837 370.65582C305.2315 370.65582 303.88837 369.31268 303.88837 367.65582C303.88837 365.999 305.2315 364.65582 306.88837 364.65582C308.5452 364.65582 309.88837 365.999 309.88837 367.65582Z" fill-rule="nonzero"/><path fill="#000000" fill-opacity="0.0" clip-path="url(#id_0)" d="M379.16782 332.8887C379.16782 334.54556 377.82468 335.8887 376.16782 335.8887C374.51096 335.8887 373.16782 334.54556 373.16782 332.8887C373.16782 331.23184 374.51096 329.8887 376.16782 329.8887C377.82468 329.8887 379.16782 331.23184 379.16782 332.8887Z" fill-rule="nonzero"/><path fill="#000000" fill-opacity="0.0" clip-path="url(#id_0)" d="M450.75656 444.0072C450.75656 445.66403 449.41342 447.0072 447.75656 447.0072C446.09973 447.0072 444.75656 445.66403 444.75656 444.0072C444.75656 442.35034 446.09973 441.0072 447.75656 441.0072C449.41342 441.0072 450.75656 442.35034 450.75656 444.0072Z" fill-rule="nonzero"/><path fill="#000000" fill-opacity="0.0" clip-path="url(#id_0)" d="M520.036 382.99426C520.036 384.65112 518.6929 385.99426 517.036 385.99426C515.37915 385.99426 514.036 384.65112 514.036 382.99426C514.036 381.33743 515.37915 379.99426 517.036 379.99426C518.6929 379.99426 520.036 381.33743 520.036 382.99426Z" fill-rule="nonzero"/><path fill="#000000" fill-opacity="0.0" clip-path="url(#id_0)" d="M591.6248 375.49548C591.6248 377.15234 590.2817 378.49548 588.6248 378.49548C586.96796 378.49548 585.6248 377.15234 585.6248 375.49548C585.6248 373.83862 586.96796 372.49548 588.6248 372.49548C590.2817 372.49548 591.6248 373.83862 591.6248 375.49548Z" fill-rule="nonzero"/><path fill="#000000" fill-opacity="0.0" clip-path="url(#id_0)" d="M663.21356 429.35046C663.21356 431.0073 661.8704 432.35046 660.21356 432.35046C658.5567 432.35046 657.21356 431.0073 657.21356 429.35046C657.21356 427.6936 658.5567 426.35046 660.21356 426.35046C661.8704 426.35046 663.21356 427.6936 663.21356 429.35046Z" fill-rule="nonzero"/><path fill="#000000" fill-opacity="0.0" clip-path="url(#id_0)" d="M732.49304 383.3351C732.49304 384.99197 731.14984 386.3351 729.49304 386.3351C727.8362 386.3351 726.49304 384.99197 726.49304 383.3351C726.49304 381.67828 727.8362 380.3351 729.49304 380.3351C731.14984 380.3351 732.49304 381.67828 732.49304 383.3351Z" fill-rule="nonzero"/><path fill="#000000" fill-opacity="0.0" clip-path="url(#id_0)" d="M804.0818 368.33755C804.0818 369.9944 802.73865 371.33755 801.0818 371.33755C799.4249 371.33755 798.0818 369.9944 798.0818 368.33755C798.0818 366.6807 799.4249 365.33755 801.0818 365.33755C802.73865 365.33755 804.0818 366.6807 804.0818 368.33755Z" fill-rule="nonzero"/><path fill="#000000" fill-opacity="0.0" clip-path="url(#id_0)" d="M873.3612 348.22714C873.3612 349.884 872.01807 351.22714 870.3612 351.22714C868.7044 351.22714 867.3612 349.884 867.3612 348.22714C867.3612 346.57028 868.7044 345.22714 870.3612 345.22714C872.01807 345.22714 873.3612 346.57028 873.3612 348.22714Z" fill-rule="nonzero"/><path fill="#000000" fill-opacity="0.0" clip-path="url(#id_0)" d="M944.95 225.86046C944.95 227.51732 943.6069 228.86046 941.95 228.86046C940.29315 228.86046 938.95 227.51732 938.95 225.86046C938.95 224.2036 940.29315 222.86046 941.95 222.86046C943.6069 222.86046 944.95 224.2036 944.95 225.86046Z" fill-rule="nonzero"/><path fill="#000000" fill-opacity="0.0" clip-path="url(#id_0)" d="M102.05 516.95C102.05 518.6069 100.706856 519.95 99.05 519.95C97.39314 519.95 96.05 518.6069 96.05 516.95C96.05 515.29315 97.39314 513.95 99.05 513.95C100.706856 513.95 102.05 515.29315 102.05 516.95Z" fill-rule="nonzero"/><path fill="#000000" fill-opacity="0.0" clip-path="url(#id_0)" d="M173.63876 380.78748C173.63876 382.44434 172.29562 383.78748 170.63876 383.78748C168.98192 383.78748 167.63876 382.44434 167.63876 380.78748C167.63876 379.1306 168.98192 377.78748 170.63876 377.78748C172.29562 377.78748 173.63876 379.1306 173.63876 380.78748Z" fill-rule="nonzero"/><path fill="#000000" fill-opacity="0.0" clip-path="url(#id_0)" d="M238.29959 364.7379C238.29959 366.39478 236.95644 367.7379 235.29959 367.7379C233.64273 367.7379 232.29959 366.39478 232.29959 364.7379C232.29959 363.08105 233.64273 361.7379 235.29959 361.7379C236.95644 361.7379 238.29959 363.08105 238.29959 364.7379Z" fill-rule="nonzero"/><path fill="#000000" fill-opacity="0.0" clip-path="url(#id_0)" d="M309.88837 291.2205C309.88837 292.87735 308.5452 294.2205 306.88837 294.2205C305.2315 294.2205 303.88837 292.87735 303.88837 291.2205C303.88837 289.56366 305.2315 288.2205 306.88837 288.2205C308.5452 288.2205 309.88837 289.56366 309.88837 291.2205Z" fill-rule="nonzero"/><path fill="#000000" fill-opacity="0.0" clip-path="url(#id_0)" d="M379.16782 315.29486C379.16782 316.95172 377.82468 318.29486 376.16782 318.29486C374.51096 318.29486 373.16782 316.95172 373.16782 315.29486C373.16782 313.638 374.51096 312.29486 376.16782 312.29486C377.82468 312.29486 379.16782 313.638 379.16782 315.29486Z" fill-rule="nonzero"/><path fill="#000000" fill-opacity="0.0" clip-path="url(#id_0)" d="M450.75656 310.37643C450.75656 312.0333 449.41342 313.37643 447.75656 313.37643C446.09973 313.37643 444.75656 312.0333 444.75656 310.37643C444.75656 308.7196 446.09973 307.37643 447.75656 307.37643C449.41342 307.37643 450.75656 308.7196 450.75656 310.37643Z" fill-rule="nonzero"/><path fill="#000000" fill-opacity="0.0" clip-path="url(#id_0)" d="M520.036 312.70624C520.036 314.36307 518.6929 315.70624 517.036 315.70624C515.37915 315.70624 514.036 314.36307 514.036 312.70624C514.036 311.04938 515.37915 309.70624 517.036 309.70624C518.6929 309.70624 520.036 311.04938 520.036 312.70624Z" fill-rule="nonzero"/><path fill="#000000" fill-opacity="0.0" clip-path="url(#id_0)" d="M591.6248 268.69934C591.6248 270.35617 590.2817 271.69934 588.6248 271.69934C586.96796 271.69934 585.6248 270.35617 585.6248 268.69934C585.6248 267.04248 586.96796 265.69934 588.6248 265.69934C590.2817 265.69934 591.6248 267.04248 591.6248 268.69934Z" fill-rule="nonzero"/><path fill="#000000" fill-opacity="0.0" clip-path="url(#id_0)" d="M663.21356 227.53993C663.21356 229.1968 661.8704 230.53993 660.21356 230.53993C658.5567 230.53993 657.21356 229.1968 657.21356 227.53993C657.21356 225.88309 658.5567 224.53993 660.21356 224.53993C661.8704 224.53993 663.21356 225.88309 663.21356 227.53993Z" fill-rule="nonzero"/><path fill="#000000" fill-opacity="0.0" clip-path="url(#id_0)" d="M732.49304 172.40189C732.49304 174.05873 731.14984 175.40189 729.49304 175.40189C727.8362 175.40189 726.49304 174.05873 726.49304 172.40189C726.49304 170.74503 727.8362 169.40189 729.49304 169.40189C731.14984 169.40189 732.49304 170.74503 732.49304 172.40189Z" fill-rule="nonzero"/><path fill="#000000" fill-opacity="0.0" clip-path="url(#id_0)" d="M804.0818 173.17847C804.0818 174.83533 802.73865 176.17847 801.0818 176.17847C799.4249 176.17847 798.0818 174.83533 798.0818 173.17847C798.0818 171.52162 799.4249 170.17847 801.0818 170.17847C802.73865 170.17847 804.0818 171.52162 804.0818 173.17847Z" fill-rule="nonzero"/><path fill="#000000" fill-opacity="0.0" clip-path="url(#id_0)" d="M873.3612 171.62529C873.3612 173.28214 872.01807 174.62529 870.3612 174.62529C868.7044 174.62529 867.3612 173.28214 867.3612 171.62529C867.3612 169.96843 868.7044 168.62529 870.3612 168.62529C872.01807 168.62529 873.3612 169.96843 873.3612 171.62529Z" fill-rule="nonzero"/><path fill="#000000" fill-opacity="0.0" clip-path="url(#id_0)" d="M944.95 205.27762C944.95 206.93448 943.6069 208.27762 941.95 208.27762C940.29315 208.27762 938.95 206.93448 938.95 205.27762C938.95 203.62077 940.29315 202.27762 941.95 202.27762C943.6069 202.27762 944.95 203.62077 944.95 205.27762Z" fill-rule="nonzero"/><path fill="#424242" d="M513.8906 560.34064L511.14062 560.34064L511.14062 567.95L510.03125 567.95L510.03125 560.34064L507.28125 560.34064L507.28125 559.41876L513.8906 559.41876L513.8906 560.34064ZM516.0 567.95L514.9219 567.95L514.9219 561.60626L516.0 561.60626L516.0 567.95ZM514.8281 559.9344Q514.8281 559.66876 514.9844 559.48126Q515.15625 559.29376 515.46875 559.29376Q515.78125 559.29376 515.9375 559.48126Q516.1094 559.66876 516.1094 559.9344Q516.1094 560.1844 515.9375 560.3719Q515.78125 560.54376 515.46875 560.54376Q515.15625 560.54376 514.9844 560.3719Q514.8281 560.1844 514.8281 559.9344ZM518.84375 561.60626L518.875 562.3094Q519.5625 561.4969 520.75 561.4969Q522.0781 561.4969 522.5625 562.5125Q522.875 562.0594 523.375 561.77814Q523.8906 561.4969 524.5781 561.4969Q526.6719 561.4969 526.7031 563.7L526.7031 567.95L525.625 567.95L525.625 563.7625Q525.625 563.09064 525.3125 562.7625Q525.0 562.41876 524.2656 562.41876Q523.65625 562.41876 523.25 562.77814Q522.8594 563.1375 522.7969 563.7469L522.7969 567.95L521.71875 567.95L521.71875 563.79376Q521.71875 562.41876 520.3594 562.41876Q519.2969 562.41876 518.90625 563.325L518.90625 567.95L517.8125 567.95L517.8125 561.60626L518.84375 561.60626ZM531.4531 568.075Q530.15625 568.075 529.34375 567.23126Q528.5469 566.3719 528.5469 564.95L528.5469 564.7625Q528.5469 563.8094 528.90625 563.075Q529.2656 562.325 529.90625 561.91876Q530.5625 561.4969 531.3125 561.4969Q532.5469 561.4969 533.2344 562.3094Q533.9219 563.1219 533.9219 564.6375L533.9219 565.09064L529.625 565.09064Q529.65625 566.02814 530.1719 566.60626Q530.7031 567.1844 531.5156 567.1844Q532.0781 567.1844 532.46875 566.95Q532.875 566.71564 533.1875 566.325L533.84375 566.84064Q533.0469 568.075 531.4531 568.075ZM531.3125 562.3875Q530.65625 562.3875 530.2031 562.8719Q529.7656 563.34064 529.6719 564.2L532.84375 564.2L532.84375 564.1219Q532.7969 563.29376 532.3906 562.84064Q532.0 562.3875 531.3125 562.3875Z" fill-rule="nonzero"/><path fill="#424242" d="M38.596886 361.90833L38.596886 363.92395L42.05001 363.92395L42.05001 365.04895L33.51876 365.04895L33.51876 362.22083Q33.51876 360.78333 34.17501 360.0177Q34.83126 359.23645 36.08126 359.23645Q36.878136 359.23645 37.471886 359.67395Q38.065636 360.09583 38.36251 360.86145L41.971886 358.86145L42.05001 358.86145L42.05001 360.06458L38.596886 361.90833ZM37.67501 363.92395L37.67501 362.18958Q37.67501 361.34583 37.253136 360.86145Q36.815636 360.36145 36.08126 360.36145Q35.30001 360.36145 34.878136 360.8302Q34.45626 361.29895 34.440636 362.18958L34.440636 363.92395L37.67501 363.92395ZM42.17501 355.5802Q42.17501 356.87708 41.33126 357.68958Q40.471886 358.48645 39.05001 358.48645L38.86251 358.48645Q37.909386 358.48645 37.17501 358.12708Q36.42501 357.7677 36.01876 357.12708Q35.596886 356.47083 35.596886 355.72083Q35.596886 354.48645 36.409386 353.79895Q37.221886 353.11145 38.73751 353.11145L39.190636 353.11145L39.190636 357.40833Q40.128136 357.37708 40.70626 356.86145Q41.284386 356.3302 41.284386 355.5177Q41.284386 354.9552 41.05001 354.56458Q40.815636 354.15833 40.42501 353.84583L40.940636 353.18958Q42.17501 353.98645 42.17501 355.5802ZM36.48751 355.72083Q36.48751 356.37708 36.971886 356.8302Q37.440636 357.2677 38.30001 357.36145L38.30001 354.18958L38.221886 354.18958Q37.39376 354.23645 36.940636 354.6427Q36.48751 355.03333 36.48751 355.72083ZM42.05001 351.03333L42.05001 352.11145L33.05001 352.11145L33.05001 351.03333L42.05001 351.03333ZM42.05001 345.29895Q41.86251 345.3927 41.378136 345.4552Q42.17501 346.2052 42.17501 347.25208Q42.17501 348.18958 41.64376 348.79895Q41.11251 349.3927 40.284386 349.3927Q39.30001 349.3927 38.753136 348.6427Q38.20626 347.8927 38.20626 346.5177L38.20626 345.47083L37.70626 345.47083Q37.14376 345.47083 36.815636 345.81458Q36.471886 346.1427 36.471886 346.81458Q36.471886 347.3927 36.76876 347.78333Q37.05001 348.17395 37.471886 348.17395L37.471886 349.2677Q36.98751 349.2677 36.55001 348.93958Q36.11251 348.59583 35.86251 348.0177Q35.596886 347.43958 35.596886 346.75208Q35.596886 345.6427 36.14376 345.03333Q36.690636 344.40833 37.64376 344.37708L40.565636 344.37708Q41.440636 344.37708 41.95626 344.15833L42.05001 344.15833L42.05001 345.29895ZM41.221886 347.09583Q41.221886 346.5802 40.95626 346.12708Q40.690636 345.67395 40.26876 345.47083L38.971886 345.47083L38.971886 346.31458Q38.971886 348.31458 40.14376 348.31458Q40.64376 348.31458 40.940636 347.97083Q41.221886 347.62708 41.221886 347.09583ZM34.17501 340.73645L35.70626 340.73645L35.70626 339.56458L36.55001 339.56458L36.55001 340.73645L40.471886 340.73645Q40.86251 340.73645 41.05001 340.5802Q41.23751 340.42395 41.23751 340.04895Q41.23751 339.86145 41.17501 339.53333L42.05001 339.53333Q42.17501 339.9552 42.17501 340.36145Q42.17501 341.0802 41.73751 341.4552Q41.284386 341.8302 40.471886 341.8302L36.55001 341.8302L36.55001 342.98645L35.70626 342.98645L35.70626 341.8302L34.17501 341.8302L34.17501 340.73645ZM42.05001 337.03333L42.05001 338.11145L35.70626 338.11145L35.70626 337.03333L42.05001 337.03333ZM34.034386 338.2052Q33.76876 338.2052 33.58126 338.04895Q33.39376 337.87708 33.39376 337.56458Q33.39376 337.25208 33.58126 337.09583Q33.76876 336.92395 34.034386 336.92395Q34.284386 336.92395 34.471886 337.09583Q34.64376 337.25208 34.64376 337.56458Q34.64376 337.87708 34.471886 338.04895Q34.284386 338.2052 34.034386 338.2052ZM40.58126 333.12708L35.70626 331.54895L35.70626 330.43958L42.05001 332.72083L42.05001 333.54895L35.70626 335.84583L35.70626 334.73645L40.58126 333.12708ZM42.17501 326.5802Q42.17501 327.87708 41.33126 328.68958Q40.471886 329.48645 39.05001 329.48645L38.86251 329.48645Q37.909386 329.48645 37.17501 329.12708Q36.42501 328.7677 36.01876 328.12708Q35.596886 327.47083 35.596886 326.72083Q35.596886 325.48645 36.409386 324.79895Q37.221886 324.11145 38.73751 324.11145L39.190636 324.11145L39.190636 328.40833Q40.128136 328.37708 40.70626 327.86145Q41.284386 327.3302 41.284386 326.5177Q41.284386 325.9552 41.05001 325.56458Q40.815636 325.15833 40.42501 324.84583L40.940636 324.18958Q42.17501 324.98645 42.17501 326.5802ZM36.48751 326.72083Q36.48751 327.37708 36.971886 327.8302Q37.440636 328.2677 38.30001 328.36145L38.30001 325.18958L38.221886 325.18958Q37.39376 325.23645 36.940636 325.6427Q36.48751 326.03333 36.48751 326.72083ZM41.284386 317.67395Q41.284386 317.09583 40.940636 316.65833Q40.58126 316.22083 40.05001 316.17395L40.05001 315.1427Q40.596886 315.17395 41.096886 315.53333Q41.58126 315.87708 41.878136 316.4552Q42.17501 317.0177 42.17501 317.67395Q42.17501 318.97083 41.315636 319.73645Q40.440636 320.48645 38.940636 320.48645L38.753136 320.48645Q37.83126 320.48645 37.11251 320.15833Q36.39376 319.81458 36.003136 319.18958Q35.596886 318.54895 35.596886 317.67395Q35.596886 316.61145 36.23751 315.90833Q36.86251 315.18958 37.89376 315.1427L37.89376 316.17395Q37.26876 316.22083 36.878136 316.6427Q36.48751 317.06458 36.48751 317.67395Q36.48751 318.50208 37.08126 318.9552Q37.67501 319.40833 38.80001 319.40833L39.003136 319.40833Q40.096886 319.40833 40.690636 318.9552Q41.284386 318.50208 41.284386 317.67395ZM36.471886 313.12708Q35.596886 312.40833 35.596886 311.25208Q35.596886 309.23645 37.86251 309.22083L42.05001 309.22083L42.05001 310.31458L37.846886 310.31458Q37.17501 310.31458 36.846886 310.62708Q36.51876 310.92395 36.51876 311.5802Q36.51876 312.11145 36.80001 312.5177Q37.08126 312.90833 37.534386 313.12708L42.05001 313.12708L42.05001 314.2052L33.05001 314.2052L33.05001 313.12708L36.471886 313.12708ZM42.05001 303.29895Q41.86251 303.3927 41.378136 303.4552Q42.17501 304.2052 42.17501 305.25208Q42.17501 306.18958 41.64376 306.79895Q41.11251 307.3927 40.284386 307.3927Q39.30001 307.3927 38.753136 306.6427Q38.20626 305.8927 38.20626 304.5177L38.20626 303.47083L37.70626 303.47083Q37.14376 303.47083 36.815636 303.81458Q36.471886 304.1427 36.471886 304.81458Q36.471886 305.3927 36.76876 305.78333Q37.05001 306.17395 37.471886 306.17395L37.471886 307.2677Q36.98751 307.2677 36.55001 306.93958Q36.11251 306.59583 35.86251 306.0177Q35.596886 305.43958 35.596886 304.75208Q35.596886 303.6427 36.14376 303.03333Q36.690636 302.40833 37.64376 302.37708L40.565636 302.37708Q41.440636 302.37708 41.95626 302.15833L42.05001 302.15833L42.05001 303.29895ZM41.221886 305.09583Q41.221886 304.5802 40.95626 304.12708Q40.690636 303.67395 40.26876 303.47083L38.971886 303.47083L38.971886 304.31458Q38.971886 306.31458 40.14376 306.31458Q40.64376 306.31458 40.940636 305.97083Q41.221886 305.62708 41.221886 305.09583ZM35.70626 299.18958L36.503136 299.15833Q35.596886 298.42395 35.596886 297.25208Q35.596886 295.23645 37.86251 295.22083L42.05001 295.22083L42.05001 296.31458L37.846886 296.31458Q37.17501 296.31458 36.846886 296.62708Q36.51876 296.92395 36.51876 297.5802Q36.51876 298.11145 36.80001 298.5177Q37.08126 298.90833 37.534386 299.12708L42.05001 299.12708L42.05001 300.2052L35.70626 300.2052L35.70626 299.18958ZM38.83126 293.47083Q37.346886 293.47083 36.471886 292.78333Q35.596886 292.09583 35.596886 290.97083Q35.596886 289.81458 36.409386 289.15833L35.70626 289.11145L35.70626 288.11145L41.89376 288.11145Q43.128136 288.11145 43.83126 288.84583Q44.55001 289.5802 44.55001 290.79895Q44.55001 291.48645 44.253136 292.1427Q43.95626 292.79895 43.45626 293.1427L42.80001 292.5802Q43.659386 291.8927 43.659386 290.87708Q43.659386 290.09583 43.20626 289.65833Q42.76876 289.2052 41.95626 289.2052L41.409386 289.2052Q42.17501 289.86145 42.17501 290.98645Q42.17501 292.09583 41.284386 292.78333Q40.378136 293.47083 38.83126 293.47083ZM38.95626 292.37708Q40.01876 292.37708 40.64376 291.93958Q41.253136 291.50208 41.253136 290.7052Q41.253136 289.68958 40.315636 289.2052L37.42501 289.2052Q36.51876 289.7052 36.51876 290.7052Q36.51876 291.48645 37.128136 291.93958Q37.73751 292.37708 38.95626 292.37708ZM42.17501 283.5802Q42.17501 284.87708 41.33126 285.68958Q40.471886 286.48645 39.05001 286.48645L38.86251 286.48645Q37.909386 286.48645 37.17501 286.12708Q36.42501 285.7677 36.01876 285.12708Q35.596886 284.47083 35.596886 283.72083Q35.596886 282.48645 36.409386 281.79895Q37.221886 281.11145 38.73751 281.11145L39.190636 281.11145L39.190636 285.40833Q40.128136 285.37708 40.70626 284.86145Q41.284386 284.3302 41.284386 283.5177Q41.284386 282.9552 41.05001 282.56458Q40.815636 282.15833 40.42501 281.84583L40.940636 281.18958Q42.17501 281.98645 42.17501 283.5802ZM36.48751 283.72083Q36.48751 284.37708 36.971886 284.8302Q37.440636 285.2677 38.30001 285.36145L38.30001 282.18958L38.221886 282.18958Q37.39376 282.23645 36.940636 282.6427Q36.48751 283.03333 36.48751 283.72083Z" fill-rule="nonzero"/><path fill="#757575" d="M67.31563 521.45L66.2375 521.45L66.2375 514.23126L64.05 515.02814L64.05 514.04376L67.15938 512.8719L67.31563 512.8719L67.31563 521.45ZM76.1125 517.8094Q76.1125 519.71564 75.45625 520.65314Q74.81563 521.575 73.425 521.575Q72.06563 521.575 71.40938 520.66876Q70.75313 519.7625 70.72188 517.95L70.72188 516.5125Q70.72188 514.6219 71.3625 513.71564Q72.01875 512.79376 73.40938 512.79376Q74.78438 512.79376 75.44063 513.6844Q76.09688 514.5594 76.1125 516.40314L76.1125 517.8094ZM75.01875 516.325Q75.01875 514.95 74.62813 514.325Q74.25313 513.6844 73.40938 513.6844Q72.58125 513.6844 72.19063 514.325Q71.81563 514.95 71.81563 516.2469L71.81563 517.98126Q71.81563 519.35626 72.20625 520.02814Q72.6125 520.6844 73.425 520.6844Q74.22188 520.6844 74.6125 520.0594Q75.00313 519.4344 75.01875 518.10626L75.01875 516.325ZM83.1125 517.8094Q83.1125 519.71564 82.45625 520.65314Q81.81563 521.575 80.425 521.575Q79.06563 521.575 78.40938 520.66876Q77.75313 519.7625 77.72188 517.95L77.72188 516.5125Q77.72188 514.6219 78.3625 513.71564Q79.01875 512.79376 80.40938 512.79376Q81.78438 512.79376 82.44063 513.6844Q83.09688 514.5594 83.1125 516.40314L83.1125 517.8094ZM82.01875 516.325Q82.01875 514.95 81.62813 514.325Q81.25313 513.6844 80.40938 513.6844Q79.58125 513.6844 79.19063 514.325Q78.81563 514.95 78.81563 516.2469L78.81563 517.98126Q78.81563 519.35626 79.20625 520.02814Q79.6125 520.6844 80.425 520.6844Q81.22188 520.6844 81.6125 520.0594Q82.00313 519.4344 82.01875 518.10626L82.01875 516.325ZM84.65938 514.5594Q84.65938 513.79376 85.14375 513.29376Q85.64375 512.79376 86.40938 512.79376Q87.19063 512.79376 87.675 513.29376Q88.15938 513.79376 88.15938 514.59064L88.15938 515.0125Q88.15938 515.77814 87.65938 516.27814Q87.175 516.7625 86.425 516.7625Q85.65938 516.7625 85.15938 516.27814Q84.65938 515.77814 84.65938 514.96564L84.65938 514.5594ZM85.47188 515.0125Q85.47188 515.46564 85.72188 515.7625Q85.9875 516.0594 86.425 516.0594Q86.84688 516.0594 87.09688 515.77814Q87.34688 515.48126 87.34688 514.98126L87.34688 514.5594Q87.34688 514.10626 87.09688 513.8094Q86.84688 513.4969 86.40938 513.4969Q85.97188 513.4969 85.72188 513.8094Q85.47188 514.10626 85.47188 514.575L85.47188 515.0125ZM88.81563 519.35626Q88.81563 518.59064 89.3 518.10626Q89.8 517.60626 90.56563 517.60626Q91.33125 517.60626 91.81563 518.10626Q92.31563 518.59064 92.31563 519.40314L92.31563 519.8094Q92.31563 520.575 91.83125 521.075Q91.34688 521.575 90.58125 521.575Q89.81563 521.575 89.31563 521.09064Q88.81563 520.59064 88.81563 519.77814L88.81563 519.35626ZM89.62813 519.8094Q89.62813 520.27814 89.87813 520.575Q90.14375 520.8719 90.58125 520.8719Q91.00313 520.8719 91.25313 520.59064Q91.50313 520.29376 91.50313 519.79376L91.50313 519.35626Q91.50313 518.8875 91.2375 518.60626Q90.9875 518.3094 90.56563 518.3094Q90.14375 518.3094 89.87813 518.60626Q89.62813 518.8875 89.62813 519.3875L89.62813 519.8094ZM86.675 520.8094L86.05 520.41876L90.22188 513.7469L90.83125 514.1375L86.675 520.8094Z" fill-rule="nonzero"/><path fill="#757575" d="M67.31563 388.00555L66.2375 388.00555L66.2375 380.7868L64.05 381.58368L64.05 380.5993L67.15938 379.42743L67.31563 379.42743L67.31563 388.00555ZM74.31563 388.00555L73.2375 388.00555L73.2375 380.7868L71.05 381.58368L71.05 380.5993L74.15938 379.42743L74.31563 379.42743L74.31563 388.00555ZM83.1125 384.36493Q83.1125 386.27118 82.45625 387.20868Q81.81563 388.13055 80.425 388.13055Q79.06563 388.13055 78.40938 387.2243Q77.75313 386.31805 77.72188 384.50555L77.72188 383.06805Q77.72188 381.17743 78.3625 380.27118Q79.01875 379.3493 80.40938 379.3493Q81.78438 379.3493 82.44063 380.23993Q83.09688 381.11493 83.1125 382.95868L83.1125 384.36493ZM82.01875 382.88055Q82.01875 381.50555 81.62813 380.88055Q81.25313 380.23993 80.40938 380.23993Q79.58125 380.23993 79.19063 380.88055Q78.81563 381.50555 78.81563 382.80243L78.81563 384.5368Q78.81563 385.9118 79.20625 386.58368Q79.6125 387.23993 80.425 387.23993Q81.22188 387.23993 81.6125 386.61493Q82.00313 385.98993 82.01875 384.6618L82.01875 382.88055ZM84.65938 381.11493Q84.65938 380.3493 85.14375 379.8493Q85.64375 379.3493 86.40938 379.3493Q87.19063 379.3493 87.675 379.8493Q88.15938 380.3493 88.15938 381.14618L88.15938 381.56805Q88.15938 382.33368 87.65938 382.83368Q87.175 383.31805 86.425 383.31805Q85.65938 383.31805 85.15938 382.83368Q84.65938 382.33368 84.65938 381.52118L84.65938 381.11493ZM85.47188 381.56805Q85.47188 382.02118 85.72188 382.31805Q85.9875 382.61493 86.425 382.61493Q86.84688 382.61493 87.09688 382.33368Q87.34688 382.0368 87.34688 381.5368L87.34688 381.11493Q87.34688 380.6618 87.09688 380.36493Q86.84688 380.05243 86.40938 380.05243Q85.97188 380.05243 85.72188 380.36493Q85.47188 380.6618 85.47188 381.13055L85.47188 381.56805ZM88.81563 385.9118Q88.81563 385.14618 89.3 384.6618Q89.8 384.1618 90.56563 384.1618Q91.33125 384.1618 91.81563 384.6618Q92.31563 385.14618 92.31563 385.95868L92.31563 386.36493Q92.31563 387.13055 91.83125 387.63055Q91.34688 388.13055 90.58125 388.13055Q89.81563 388.13055 89.31563 387.64618Q88.81563 387.14618 88.81563 386.33368L88.81563 385.9118ZM89.62813 386.36493Q89.62813 386.83368 89.87813 387.13055Q90.14375 387.42743 90.58125 387.42743Q91.00313 387.42743 91.25313 387.14618Q91.50313 386.8493 91.50313 386.3493L91.50313 385.9118Q91.50313 385.44305 91.2375 385.1618Q90.9875 384.86493 90.56563 384.86493Q90.14375 384.86493 89.87813 385.1618Q89.62813 385.44305 89.62813 385.94305L89.62813 386.36493ZM86.675 387.36493L86.05 386.9743L90.22188 380.30243L90.83125 380.69305L86.675 387.36493Z" fill-rule="nonzero"/><path fill="#757575" d="M67.31563 254.56111L66.2375 254.56111L66.2375 247.34236L64.05 248.13924L64.05 247.15486L67.15938 245.98299L67.31563 245.98299L67.31563 254.56111ZM76.34688 254.56111L70.75313 254.56111L70.75313 253.77986L73.70625 250.49861Q74.3625 249.74861 74.6125 249.29549Q74.8625 248.82674 74.8625 248.32674Q74.8625 247.65486 74.45625 247.23299Q74.06563 246.79549 73.37813 246.79549Q72.58125 246.79549 72.12813 247.26424Q71.675 247.71736 71.675 248.54549L70.59688 248.54549Q70.59688 247.35799 71.34688 246.63924Q72.1125 245.90486 73.37813 245.90486Q74.58125 245.90486 75.26875 246.52986Q75.95625 247.15486 75.95625 248.20174Q75.95625 249.45174 74.34688 251.20174L72.06563 253.67049L76.34688 253.67049L76.34688 254.56111ZM83.1125 250.92049Q83.1125 252.82674 82.45625 253.76424Q81.81563 254.68611 80.425 254.68611Q79.06563 254.68611 78.40938 253.77986Q77.75313 252.87361 77.72188 251.06111L77.72188 249.62361Q77.72188 247.73299 78.3625 246.82674Q79.01875 245.90486 80.40938 245.90486Q81.78438 245.90486 82.44063 246.79549Q83.09688 247.67049 83.1125 249.51424L83.1125 250.92049ZM82.01875 249.43611Q82.01875 248.06111 81.62813 247.43611Q81.25313 246.79549 80.40938 246.79549Q79.58125 246.79549 79.19063 247.43611Q78.81563 248.06111 78.81563 249.35799L78.81563 251.09236Q78.81563 252.46736 79.20625 253.13924Q79.6125 253.79549 80.425 253.79549Q81.22188 253.79549 81.6125 253.17049Q82.00313 252.54549 82.01875 251.21736L82.01875 249.43611ZM84.65938 247.67049Q84.65938 246.90486 85.14375 246.40486Q85.64375 245.90486 86.40938 245.90486Q87.19063 245.90486 87.675 246.40486Q88.15938 246.90486 88.15938 247.70174L88.15938 248.12361Q88.15938 248.88924 87.65938 249.38924Q87.175 249.87361 86.425 249.87361Q85.65938 249.87361 85.15938 249.38924Q84.65938 248.88924 84.65938 248.07674L84.65938 247.67049ZM85.47188 248.12361Q85.47188 248.57674 85.72188 248.87361Q85.9875 249.17049 86.425 249.17049Q86.84688 249.17049 87.09688 248.88924Q87.34688 248.59236 87.34688 248.09236L87.34688 247.67049Q87.34688 247.21736 87.09688 246.92049Q86.84688 246.60799 86.40938 246.60799Q85.97188 246.60799 85.72188 246.92049Q85.47188 247.21736 85.47188 247.68611L85.47188 248.12361ZM88.81563 252.46736Q88.81563 251.70174 89.3 251.21736Q89.8 250.71736 90.56563 250.71736Q91.33125 250.71736 91.81563 251.21736Q92.31563 251.70174 92.31563 252.51424L92.31563 252.92049Q92.31563 253.68611 91.83125 254.18611Q91.34688 254.68611 90.58125 254.68611Q89.81563 254.68611 89.31563 254.20174Q88.81563 253.70174 88.81563 252.88924L88.81563 252.46736ZM89.62813 252.92049Q89.62813 253.38924 89.87813 253.68611Q90.14375 253.98299 90.58125 253.98299Q91.00313 253.98299 91.25313 253.70174Q91.50313 253.40486 91.50313 252.90486L91.50313 252.46736Q91.50313 251.99861 91.2375 251.71736Q90.9875 251.42049 90.56563 251.42049Q90.14375 251.42049 89.87813 251.71736Q89.62813 251.99861 89.62813 252.49861L89.62813 252.92049ZM86.675 253.92049L86.05 253.52986L90.22188 246.85799L90.83125 247.24861L86.675 253.92049Z" fill-rule="nonzero"/><path fill="#757575" d="M67.31563 121.11667L66.2375 121.11667L66.2375 113.89792L64.05 114.69479L64.05 113.71042L67.15938 112.53854L67.31563 112.53854L67.31563 121.11667ZM72.33125 116.31979L73.14375 116.31979Q73.925 116.30417 74.3625 115.91354Q74.8 115.52292 74.8 114.85104Q74.8 113.35104 73.3 113.35104Q72.59688 113.35104 72.175 113.75729Q71.76875 114.16354 71.76875 114.81979L70.675 114.81979Q70.675 113.80417 71.40938 113.13229Q72.15938 112.46042 73.3 112.46042Q74.50313 112.46042 75.19063 113.10104Q75.87813 113.74167 75.87813 114.88229Q75.87813 115.44479 75.51875 115.96042Q75.15938 116.47604 74.53438 116.74167Q75.2375 116.96042 75.6125 117.47604Q76.00313 117.99167 76.00313 118.74167Q76.00313 119.88229 75.25313 120.56979Q74.50313 121.24167 73.3 121.24167Q72.1125 121.24167 71.34688 120.58542Q70.59688 119.92917 70.59688 118.86667L71.69063 118.86667Q71.69063 119.53854 72.12813 119.94479Q72.56563 120.35104 73.31563 120.35104Q74.09688 120.35104 74.50313 119.94479Q74.925 119.52292 74.925 118.75729Q74.925 118.02292 74.47188 117.63229Q74.01875 117.22604 73.14375 117.21042L72.33125 117.21042L72.33125 116.31979ZM83.1125 117.47604Q83.1125 119.38229 82.45625 120.31979Q81.81563 121.24167 80.425 121.24167Q79.06563 121.24167 78.40938 120.33542Q77.75313 119.42917 77.72188 117.61667L77.72188 116.17917Q77.72188 114.28854 78.3625 113.38229Q79.01875 112.46042 80.40938 112.46042Q81.78438 112.46042 82.44063 113.35104Q83.09688 114.22604 83.1125 116.06979L83.1125 117.47604ZM82.01875 115.99167Q82.01875 114.61667 81.62813 113.99167Q81.25313 113.35104 80.40938 113.35104Q79.58125 113.35104 79.19063 113.99167Q78.81563 114.61667 78.81563 115.91354L78.81563 117.64792Q78.81563 119.02292 79.20625 119.69479Q79.6125 120.35104 80.425 120.35104Q81.22188 120.35104 81.6125 119.72604Q82.00313 119.10104 82.01875 117.77292L82.01875 115.99167ZM84.65938 114.22604Q84.65938 113.46042 85.14375 112.96042Q85.64375 112.46042 86.40938 112.46042Q87.19063 112.46042 87.675 112.96042Q88.15938 113.46042 88.15938 114.25729L88.15938 114.67917Q88.15938 115.44479 87.65938 115.94479Q87.175 116.42917 86.425 116.42917Q85.65938 116.42917 85.15938 115.94479Q84.65938 115.44479 84.65938 114.63229L84.65938 114.22604ZM85.47188 114.67917Q85.47188 115.13229 85.72188 115.42917Q85.9875 115.72604 86.425 115.72604Q86.84688 115.72604 87.09688 115.44479Q87.34688 115.14792 87.34688 114.64792L87.34688 114.22604Q87.34688 113.77292 87.09688 113.47604Q86.84688 113.16354 86.40938 113.16354Q85.97188 113.16354 85.72188 113.47604Q85.47188 113.77292 85.47188 114.24167L85.47188 114.67917ZM88.81563 119.02292Q88.81563 118.25729 89.3 117.77292Q89.8 117.27292 90.56563 117.27292Q91.33125 117.27292 91.81563 117.77292Q92.31563 118.25729 92.31563 119.06979L92.31563 119.47604Q92.31563 120.24167 91.83125 120.74167Q91.34688 121.24167 90.58125 121.24167Q89.81563 121.24167 89.31563 120.75729Q88.81563 120.25729 88.81563 119.44479L88.81563 119.02292ZM89.62813 119.47604Q89.62813 119.94479 89.87813 120.24167Q90.14375 120.53854 90.58125 120.53854Q91.00313 120.53854 91.25313 120.25729Q91.50313 119.96042 91.50313 119.46042L91.50313 119.02292Q91.50313 118.55417 91.2375 118.27292Q90.9875 117.97604 90.56563 117.97604Q90.14375 117.97604 89.87813 118.27292Q89.62813 118.55417 89.62813 119.05417L89.62813 119.47604ZM86.675 120.47604L86.05 120.08542L90.22188 113.41354L90.83125 113.80417L86.675 120.47604Z" fill-rule="nonzero"/><path fill="#757575" d="M72.31563 534.95L71.2375 534.95L71.2375 527.73126L69.05 528.52814L69.05 527.54376L72.15938 526.3719L72.31563 526.3719L72.31563 534.95ZM78.12813 531.7625L75.26875 531.7625L75.26875 530.8875L78.12813 530.8875L78.12813 531.7625ZM82.6125 526.41876L83.75313 526.41876L83.75313 532.46564Q83.75313 533.6844 83.00313 534.3875Q82.26875 535.075 81.05 535.075Q79.78438 535.075 79.06563 534.41876Q78.3625 533.7625 78.3625 532.59064L79.4875 532.59064Q79.4875 533.325 79.87813 533.7469Q80.28438 534.15314 81.05 534.15314Q81.75313 534.15314 82.175 533.71564Q82.6125 533.2625 82.6125 532.48126L82.6125 526.41876ZM89.78438 534.95Q89.69063 534.7625 89.62813 534.27814Q88.87813 535.075 87.83125 535.075Q86.89375 535.075 86.28438 534.54376Q85.69063 534.0125 85.69063 533.1844Q85.69063 532.2 86.44063 531.65314Q87.19063 531.10626 88.56563 531.10626L89.6125 531.10626L89.6125 530.60626Q89.6125 530.04376 89.26875 529.71564Q88.94063 529.3719 88.26875 529.3719Q87.69063 529.3719 87.3 529.66876Q86.90938 529.95 86.90938 530.3719L85.81563 530.3719Q85.81563 529.8875 86.14375 529.45Q86.4875 529.0125 87.06563 528.7625Q87.64375 528.4969 88.33125 528.4969Q89.44063 528.4969 90.05 529.04376Q90.675 529.59064 90.70625 530.54376L90.70625 533.46564Q90.70625 534.34064 90.925 534.85626L90.925 534.95L89.78438 534.95ZM87.9875 534.1219Q88.50313 534.1219 88.95625 533.85626Q89.40938 533.59064 89.6125 533.16876L89.6125 531.8719L88.76875 531.8719Q86.76875 531.8719 86.76875 533.04376Q86.76875 533.54376 87.1125 533.84064Q87.45625 534.1219 87.9875 534.1219ZM93.89375 528.60626L93.925 529.40314Q94.65938 528.4969 95.83125 528.4969Q97.84688 528.4969 97.8625 530.7625L97.8625 534.95L96.76875 534.95L96.76875 530.7469Q96.76875 530.075 96.45625 529.7469Q96.15938 529.41876 95.50313 529.41876Q94.97188 529.41876 94.56563 529.7Q94.175 529.98126 93.95625 530.4344L93.95625 534.95L92.87813 534.95L92.87813 528.60626L93.89375 528.60626ZM102.12813 531.7625L99.26875 531.7625L99.26875 530.8875L102.12813 530.8875L102.12813 531.7625ZM108.34688 534.95L102.75313 534.95L102.75313 534.16876L105.70625 530.8875Q106.3625 530.1375 106.6125 529.6844Q106.8625 529.21564 106.8625 528.71564Q106.8625 528.04376 106.45625 527.6219Q106.06563 527.1844 105.37813 527.1844Q104.58125 527.1844 104.12813 527.65314Q103.675 528.10626 103.675 528.9344L102.59688 528.9344Q102.59688 527.7469 103.34688 527.02814Q104.1125 526.29376 105.37813 526.29376Q106.58125 526.29376 107.26875 526.91876Q107.95625 527.54376 107.95625 528.59064Q107.95625 529.84064 106.34688 531.59064L104.06563 534.0594L108.34688 534.0594L108.34688 534.95ZM115.1125 531.3094Q115.1125 533.21564 114.45625 534.15314Q113.81563 535.075 112.425 535.075Q111.06563 535.075 110.40938 534.16876Q109.75313 533.2625 109.72188 531.45L109.72188 530.0125Q109.72188 528.1219 110.3625 527.21564Q111.01875 526.29376 112.40938 526.29376Q113.78438 526.29376 114.44063 527.1844Q115.09688 528.0594 115.1125 529.90314L115.1125 531.3094ZM114.01875 529.825Q114.01875 528.45 113.62813 527.825Q113.25313 527.1844 112.40938 527.1844Q111.58125 527.1844 111.19063 527.825Q110.81563 528.45 110.81563 529.7469L110.81563 531.48126Q110.81563 532.85626 111.20625 533.52814Q111.6125 534.1844 112.425 534.1844Q113.22188 534.1844 113.6125 533.5594Q114.00313 532.9344 114.01875 531.60626L114.01875 529.825ZM120.31563 534.95L119.2375 534.95L119.2375 527.73126L117.05 528.52814L117.05 527.54376L120.15938 526.3719L120.31563 526.3719L120.31563 534.95ZM127.90938 531.2Q127.58125 531.60626 127.09688 531.85626Q126.62813 532.09064 126.06563 532.09064Q125.33125 532.09064 124.78438 531.73126Q124.2375 531.3719 123.94063 530.71564Q123.64375 530.04376 123.64375 529.2469Q123.64375 528.40314 123.95625 527.71564Q124.28438 527.02814 124.87813 526.66876Q125.4875 526.29376 126.28438 526.29376Q127.55 526.29376 128.26875 527.2469Q129.00313 528.2 129.00313 529.825L129.00313 530.1375Q129.00313 532.6375 128.01875 533.77814Q127.03438 534.91876 125.05 534.95L124.83125 534.95L124.83125 534.04376L125.06563 534.04376Q126.40938 534.0125 127.12813 533.34064Q127.84688 532.66876 127.90938 531.2ZM126.2375 531.2Q126.78438 531.2 127.2375 530.8719Q127.70625 530.52814 127.925 530.04376L127.925 529.60626Q127.925 528.54376 127.45625 527.8719Q126.9875 527.2 126.28438 527.2Q125.56563 527.2 125.12813 527.7469Q124.70625 528.29376 124.70625 529.2Q124.70625 530.075 125.1125 530.6375Q125.53438 531.2 126.2375 531.2Z" fill-rule="nonzero"/><path fill="#757575" d="M281.154 534.95L280.07587 534.95L280.07587 527.73126L277.88837 528.52814L277.88837 527.54376L280.99774 526.3719L281.154 526.3719L281.154 534.95ZM286.9665 531.7625L284.10712 531.7625L284.10712 530.8875L286.9665 530.8875L286.9665 531.7625ZM292.5915 532.71564L289.01337 532.71564L288.2165 534.95L287.06024 534.95L290.31024 526.41876L291.29462 526.41876L294.56024 534.95L293.404 534.95L292.5915 532.71564ZM289.35712 531.79376L292.26337 531.79376L290.81024 527.8094L289.35712 531.79376ZM301.06024 531.85626Q301.06024 533.29376 300.404 534.1844Q299.74774 535.075 298.60712 535.075Q297.45087 535.075 296.79462 534.34064L296.79462 537.3875L295.7165 537.3875L295.7165 528.60626L296.70087 528.60626L296.74774 529.3094Q297.41962 528.4969 298.5915 528.4969Q299.73212 528.4969 300.38837 529.35626Q301.06024 530.21564 301.06024 531.7469L301.06024 531.85626ZM299.98212 531.73126Q299.98212 530.65314 299.51337 530.04376Q299.06024 529.41876 298.26337 529.41876Q297.279 529.41876 296.79462 530.27814L296.79462 533.3094Q297.279 534.1844 298.279 534.1844Q299.06024 534.1844 299.51337 533.575Q299.98212 532.95 299.98212 531.73126ZM305.779 529.575Q305.529 529.54376 305.24774 529.54376Q304.16962 529.54376 303.79462 530.45L303.79462 534.95L302.7165 534.95L302.7165 528.60626L303.76337 528.60626L303.779 529.34064Q304.31024 528.4969 305.29462 528.4969Q305.60712 528.4969 305.779 528.575L305.779 529.575ZM308.9665 531.7625L306.10712 531.7625L306.10712 530.8875L308.9665 530.8875L308.9665 531.7625ZM315.18524 534.95L309.5915 534.95L309.5915 534.16876L312.54462 530.8875Q313.20087 530.1375 313.45087 529.6844Q313.70087 529.21564 313.70087 528.71564Q313.70087 528.04376 313.29462 527.6219Q312.904 527.1844 312.2165 527.1844Q311.41962 527.1844 310.9665 527.65314Q310.51337 528.10626 310.51337 528.9344L309.43524 528.9344Q309.43524 527.7469 310.18524 527.02814Q310.95087 526.29376 312.2165 526.29376Q313.41962 526.29376 314.10712 526.91876Q314.79462 527.54376 314.79462 528.59064Q314.79462 529.84064 313.18524 531.59064L310.904 534.0594L315.18524 534.0594L315.18524 534.95ZM321.95087 531.3094Q321.95087 533.21564 321.29462 534.15314Q320.654 535.075 319.26337 535.075Q317.904 535.075 317.24774 534.16876Q316.5915 533.2625 316.56024 531.45L316.56024 530.0125Q316.56024 528.1219 317.20087 527.21564Q317.85712 526.29376 319.24774 526.29376Q320.62274 526.29376 321.279 527.1844Q321.93524 528.0594 321.95087 529.90314L321.95087 531.3094ZM320.85712 529.825Q320.85712 528.45 320.4665 527.825Q320.0915 527.1844 319.24774 527.1844Q318.41962 527.1844 318.029 527.825Q317.654 528.45 317.654 529.7469L317.654 531.48126Q317.654 532.85626 318.04462 533.52814Q318.45087 534.1844 319.26337 534.1844Q320.06024 534.1844 320.45087 533.5594Q320.8415 532.9344 320.85712 531.60626L320.85712 529.825ZM327.154 534.95L326.07587 534.95L326.07587 527.73126L323.88837 528.52814L323.88837 527.54376L326.99774 526.3719L327.154 526.3719L327.154 534.95ZM334.74774 531.2Q334.41962 531.60626 333.93524 531.85626Q333.4665 532.09064 332.904 532.09064Q332.16962 532.09064 331.62274 531.73126Q331.07587 531.3719 330.779 530.71564Q330.48212 530.04376 330.48212 529.2469Q330.48212 528.40314 330.79462 527.71564Q331.12274 527.02814 331.7165 526.66876Q332.32587 526.29376 333.12274 526.29376Q334.38837 526.29376 335.10712 527.2469Q335.8415 528.2 335.8415 529.825L335.8415 530.1375Q335.8415 532.6375 334.85712 533.77814Q333.87274 534.91876 331.88837 534.95L331.66962 534.95L331.66962 534.04376L331.904 534.04376Q333.24774 534.0125 333.9665 533.34064Q334.68524 532.66876 334.74774 531.2ZM333.07587 531.2Q333.62274 531.2 334.07587 530.8719Q334.54462 530.52814 334.76337 530.04376L334.76337 529.60626Q334.76337 528.54376 334.29462 527.8719Q333.82587 527.2 333.12274 527.2Q332.404 527.2 331.9665 527.7469Q331.54462 528.29376 331.54462 529.2Q331.54462 530.075 331.95087 530.6375Q332.37274 531.2 333.07587 531.2Z" fill-rule="nonzero"/><path fill="#757575" d="M492.30167 534.95L491.22354 534.95L491.22354 527.73126L489.03604 528.52814L489.03604 527.54376L492.14542 526.3719L492.30167 526.3719L492.30167 534.95ZM498.11417 531.7625L495.2548 531.7625L495.2548 530.8875L498.11417 530.8875L498.11417 531.7625ZM502.59854 526.41876L503.73917 526.41876L503.73917 532.46564Q503.73917 533.6844 502.98917 534.3875Q502.2548 535.075 501.03604 535.075Q499.77042 535.075 499.05167 534.41876Q498.34854 533.7625 498.34854 532.59064L499.47354 532.59064Q499.47354 533.325 499.86417 533.7469Q500.27042 534.15314 501.03604 534.15314Q501.73917 534.15314 502.16104 533.71564Q502.59854 533.2625 502.59854 532.48126L502.59854 526.41876ZM509.77042 534.325Q509.14542 535.075 507.91104 535.075Q506.89542 535.075 506.36417 534.48126Q505.83292 533.8875 505.83292 532.73126L505.83292 528.60626L506.91104 528.60626L506.91104 532.7Q506.91104 534.15314 508.08292 534.15314Q509.33292 534.15314 509.73917 533.21564L509.73917 528.60626L510.83292 528.60626L510.83292 534.95L509.80167 534.95L509.77042 534.325ZM514.036 534.95L512.9579 534.95L512.9579 525.95L514.036 525.95L514.036 534.95ZM518.11414 531.7625L515.25476 531.7625L515.25476 530.8875L518.11414 530.8875L518.11414 531.7625ZM524.3329 534.95L518.73914 534.95L518.73914 534.16876L521.69226 530.8875Q522.3485 530.1375 522.5985 529.6844Q522.8485 529.21564 522.8485 528.71564Q522.8485 528.04376 522.44226 527.6219Q522.05164 527.1844 521.36414 527.1844Q520.56726 527.1844 520.11414 527.65314Q519.661 528.10626 519.661 528.9344L518.5829 528.9344Q518.5829 527.7469 519.3329 527.02814Q520.0985 526.29376 521.36414 526.29376Q522.56726 526.29376 523.25476 526.91876Q523.94226 527.54376 523.94226 528.59064Q523.94226 529.84064 522.3329 531.59064L520.05164 534.0594L524.3329 534.0594L524.3329 534.95ZM531.0985 531.3094Q531.0985 533.21564 530.44226 534.15314Q529.80164 535.075 528.411 535.075Q527.05164 535.075 526.3954 534.16876Q525.73914 533.2625 525.7079 531.45L525.7079 530.0125Q525.7079 528.1219 526.3485 527.21564Q527.00476 526.29376 528.3954 526.29376Q529.7704 526.29376 530.42664 527.1844Q531.0829 528.0594 531.0985 529.90314L531.0985 531.3094ZM530.00476 529.825Q530.00476 528.45 529.61414 527.825Q529.23914 527.1844 528.3954 527.1844Q527.56726 527.1844 527.17664 527.825Q526.80164 528.45 526.80164 529.7469L526.80164 531.48126Q526.80164 532.85626 527.19226 533.52814Q527.5985 534.1844 528.411 534.1844Q529.2079 534.1844 529.5985 533.5594Q529.98914 532.9344 530.00476 531.60626L530.00476 529.825ZM536.30164 534.95L535.2235 534.95L535.2235 527.73126L533.036 528.52814L533.036 527.54376L536.1454 526.3719L536.30164 526.3719L536.30164 534.95ZM543.8954 531.2Q543.56726 531.60626 543.0829 531.85626Q542.61414 532.09064 542.05164 532.09064Q541.31726 532.09064 540.7704 531.73126Q540.2235 531.3719 539.92664 530.71564Q539.62976 530.04376 539.62976 529.2469Q539.62976 528.40314 539.94226 527.71564Q540.2704 527.02814 540.86414 526.66876Q541.4735 526.29376 542.2704 526.29376Q543.536 526.29376 544.25476 527.2469Q544.98914 528.2 544.98914 529.825L544.98914 530.1375Q544.98914 532.6375 544.00476 533.77814Q543.0204 534.91876 541.036 534.95L540.81726 534.95L540.81726 534.04376L541.05164 534.04376Q542.3954 534.0125 543.11414 533.34064Q543.8329 532.66876 543.8954 531.2ZM542.2235 531.2Q542.7704 531.2 543.2235 530.8719Q543.69226 530.52814 543.911 530.04376L543.911 529.60626Q543.911 528.54376 543.44226 527.8719Q542.9735 527.2 542.2704 527.2Q541.55164 527.2 541.11414 527.7469Q540.69226 528.29376 540.69226 529.2Q540.69226 530.075 541.0985 530.6375Q541.5204 531.2 542.2235 531.2Z" fill-rule="nonzero"/><path fill="#757575" d="M704.25867 534.95L703.18054 534.95L703.18054 527.73126L700.99304 528.52814L700.99304 527.54376L704.1024 526.3719L704.25867 526.3719L704.25867 534.95ZM710.07117 531.7625L707.2118 531.7625L707.2118 530.8875L710.07117 530.8875L710.07117 531.7625ZM717.5399 530.96564Q717.5399 532.21564 717.11804 533.15314Q716.69617 534.075 715.9149 534.575Q715.1493 535.075 714.11804 535.075Q713.11804 535.075 712.3368 534.575Q711.55554 534.075 711.11804 533.16876Q710.69617 532.2469 710.68054 531.02814L710.68054 530.41876Q710.68054 529.1844 711.1024 528.2469Q711.5399 527.3094 712.32117 526.8094Q713.1024 526.29376 714.11804 526.29376Q715.13367 526.29376 715.9149 526.79376Q716.69617 527.29376 717.11804 528.23126Q717.5399 529.16876 717.5399 530.41876L717.5399 530.96564ZM716.43054 530.40314Q716.43054 528.8875 715.82117 528.075Q715.2118 527.2625 714.11804 527.2625Q713.0399 527.2625 712.43054 528.075Q711.82117 528.8875 711.80554 530.325L711.80554 530.96564Q711.80554 532.4344 712.4149 533.27814Q713.0399 534.10626 714.11804 534.10626Q715.2118 534.10626 715.80554 533.325Q716.4149 532.52814 716.43054 531.04376L716.43054 530.40314ZM721.3524 534.1844Q721.93054 534.1844 722.36804 533.84064Q722.80554 533.48126 722.8524 532.95L723.88367 532.95Q723.8524 533.4969 723.49304 533.9969Q723.1493 534.48126 722.57117 534.77814Q722.00867 535.075 721.3524 535.075Q720.05554 535.075 719.2899 534.21564Q718.5399 533.34064 718.5399 531.84064L718.5399 531.65314Q718.5399 530.73126 718.86804 530.0125Q719.2118 529.29376 719.8368 528.90314Q720.4774 528.4969 721.3524 528.4969Q722.4149 528.4969 723.11804 529.1375Q723.8368 529.7625 723.88367 530.79376L722.8524 530.79376Q722.80554 530.16876 722.38367 529.77814Q721.9618 529.3875 721.3524 529.3875Q720.5243 529.3875 720.07117 529.98126Q719.61804 530.575 719.61804 531.7L719.61804 531.90314Q719.61804 532.9969 720.07117 533.59064Q720.5243 534.1844 721.3524 534.1844ZM726.2899 527.075L726.2899 528.60626L727.4618 528.60626L727.4618 529.45L726.2899 529.45L726.2899 533.3719Q726.2899 533.7625 726.44617 533.95Q726.6024 534.1375 726.9774 534.1375Q727.1649 534.1375 727.49304 534.075L727.49304 534.95Q727.07117 535.075 726.6649 535.075Q725.94617 535.075 725.57117 534.6375Q725.19617 534.1844 725.19617 533.3719L725.19617 529.45L724.0399 529.45L724.0399 528.60626L725.19617 528.60626L725.19617 527.075L726.2899 527.075ZM731.07117 531.7625L728.2118 531.7625L728.2118 530.8875L731.07117 530.8875L731.07117 531.7625ZM737.2899 534.95L731.69617 534.95L731.69617 534.16876L734.6493 530.8875Q735.30554 530.1375 735.55554 529.6844Q735.80554 529.21564 735.80554 528.71564Q735.80554 528.04376 735.3993 527.6219Q735.00867 527.1844 734.32117 527.1844Q733.5243 527.1844 733.07117 527.65314Q732.61804 528.10626 732.61804 528.9344L731.5399 528.9344Q731.5399 527.7469 732.2899 527.02814Q733.05554 526.29376 734.32117 526.29376Q735.5243 526.29376 736.2118 526.91876Q736.8993 527.54376 736.8993 528.59064Q736.8993 529.84064 735.2899 531.59064L733.00867 534.0594L737.2899 534.0594L737.2899 534.95ZM744.05554 531.3094Q744.05554 533.21564 743.3993 534.15314Q742.75867 535.075 741.36804 535.075Q740.00867 535.075 739.3524 534.16876Q738.69617 533.2625 738.6649 531.45L738.6649 530.0125Q738.6649 528.1219 739.30554 527.21564Q739.9618 526.29376 741.3524 526.29376Q742.7274 526.29376 743.38367 527.1844Q744.0399 528.0594 744.05554 529.90314L744.05554 531.3094ZM742.9618 529.825Q742.9618 528.45 742.57117 527.825Q742.19617 527.1844 741.3524 527.1844Q740.5243 527.1844 740.13367 527.825Q739.75867 528.45 739.75867 529.7469L739.75867 531.48126Q739.75867 532.85626 740.1493 533.52814Q740.55554 534.1844 741.36804 534.1844Q742.1649 534.1844 742.55554 533.5594Q742.94617 532.9344 742.9618 531.60626L742.9618 529.825ZM749.25867 534.95L748.18054 534.95L748.18054 527.73126L745.99304 528.52814L745.99304 527.54376L749.1024 526.3719L749.25867 526.3719L749.25867 534.95ZM756.8524 531.2Q756.5243 531.60626 756.0399 531.85626Q755.57117 532.09064 755.00867 532.09064Q754.2743 532.09064 753.7274 531.73126Q753.18054 531.3719 752.88367 530.71564Q752.5868 530.04376 752.5868 529.2469Q752.5868 528.40314 752.8993 527.71564Q753.2274 527.02814 753.82117 526.66876Q754.43054 526.29376 755.2274 526.29376Q756.49304 526.29376 757.2118 527.2469Q757.94617 528.2 757.94617 529.825L757.94617 530.1375Q757.94617 532.6375 756.9618 533.77814Q755.9774 534.91876 753.99304 534.95L753.7743 534.95L753.7743 534.04376L754.00867 534.04376Q755.3524 534.0125 756.07117 533.34064Q756.7899 532.66876 756.8524 531.2ZM755.18054 531.2Q755.7274 531.2 756.18054 530.8719Q756.6493 530.52814 756.86804 530.04376L756.86804 529.60626Q756.86804 528.54376 756.3993 527.8719Q755.93054 527.2 755.2274 527.2Q754.50867 527.2 754.07117 527.7469Q753.6493 528.29376 753.6493 529.2Q753.6493 530.075 754.05554 530.6375Q754.4774 531.2 755.18054 531.2Z" fill-rule="nonzero"/><path stroke="#4285f4" stroke-width="4.0" stroke-linecap="butt" d="M328.5 81.583336L340.5 81.583336" fill-rule="nonzero"/><path fill="#757575" d="M349.48438 86.083336L349.48438 77.552086L351.90625 77.552086Q353.01562 77.552086 353.85938 78.052086Q354.71875 78.53646 355.1875 79.44271Q355.65625 80.34896 355.65625 81.53646L355.65625 82.06771Q355.65625 83.28646 355.1875 84.19271Q354.73438 85.09896 353.85938 85.583336Q353.0 86.06771 351.85938 86.083336L349.48438 86.083336ZM350.60938 78.47396L350.60938 85.16146L351.79688 85.16146Q353.09375 85.16146 353.8125 84.364586Q354.54688 83.552086 354.54688 82.052086L354.54688 81.552086Q354.54688 80.09896 353.85938 79.302086Q353.1875 78.489586 351.92188 78.47396L350.60938 78.47396ZM357.48438 86.083336L357.48438 77.552086L360.28125 77.552086Q361.67188 77.552086 362.35938 78.13021Q363.0625 78.69271 363.0625 79.81771Q363.0625 80.427086 362.71875 80.895836Q362.39062 81.34896 361.79688 81.59896Q362.5 81.78646 362.89062 82.333336Q363.29688 82.864586 363.29688 83.614586Q363.29688 84.770836 362.54688 85.427086Q361.8125 86.083336 360.45312 86.083336L357.48438 86.083336ZM358.60938 82.09896L358.60938 85.16146L360.46875 85.16146Q361.26562 85.16146 361.71875 84.75521Q362.17188 84.34896 362.17188 83.63021Q362.17188 82.09896 360.48438 82.09896L358.60938 82.09896ZM358.60938 81.19271L360.3125 81.19271Q361.04688 81.19271 361.48438 80.833336Q361.9375 80.458336 361.9375 79.81771Q361.9375 79.114586 361.53125 78.802086Q361.125 78.47396 360.28125 78.47396L358.60938 78.47396L358.60938 81.19271ZM365.32812 85.16146L370.21875 85.16146L370.21875 86.083336L364.0 86.083336L364.0 85.239586L368.6875 78.47396L364.07812 78.47396L364.07812 77.552086L370.03125 77.552086L370.03125 78.38021L365.32812 85.16146ZM371.48438 86.083336L371.48438 77.552086L374.28125 77.552086Q375.67188 77.552086 376.35938 78.13021Q377.0625 78.69271 377.0625 79.81771Q377.0625 80.427086 376.71875 80.895836Q376.39062 81.34896 375.79688 81.59896Q376.5 81.78646 376.89062 82.333336Q377.29688 82.864586 377.29688 83.614586Q377.29688 84.770836 376.54688 85.427086Q375.8125 86.083336 374.45312 86.083336L371.48438 86.083336ZM372.60938 82.09896L372.60938 85.16146L374.46875 85.16146Q375.26562 85.16146 375.71875 84.75521Q376.17188 84.34896 376.17188 83.63021Q376.17188 82.09896 374.48438 82.09896L372.60938 82.09896ZM372.60938 81.19271L374.3125 81.19271Q375.04688 81.19271 375.48438 80.833336Q375.9375 80.458336 375.9375 79.81771Q375.9375 79.114586 375.53125 78.802086Q375.125 78.47396 374.28125 78.47396L372.60938 78.47396L372.60938 81.19271Z" fill-rule="nonzero"/><path stroke="#db4437" stroke-width="4.0" stroke-linecap="butt" d="M393.5 81.583336L405.5 81.583336" fill-rule="nonzero"/><path fill="#757575" d="M415.70312 86.083336L414.57812 86.083336L414.57812 77.552086L415.70312 77.552086L415.70312 86.083336ZM419.32812 83.395836L419.5 84.520836L419.73438 83.50521L421.42188 77.552086L422.375 77.552086L424.01562 83.50521L424.25 84.53646L424.4375 83.38021L425.76562 77.552086L426.89062 77.552086L424.82812 86.083336L423.79688 86.083336L422.03125 79.864586L421.90625 79.208336L421.76562 79.864586L419.95312 86.083336L418.92188 86.083336L416.85938 77.552086L417.98438 77.552086L419.32812 83.395836ZM428.48438 86.083336L428.48438 77.552086L430.90625 77.552086Q432.01562 77.552086 432.85938 78.052086Q433.71875 78.53646 434.1875 79.44271Q434.65625 80.34896 434.65625 81.53646L434.65625 82.06771Q434.65625 83.28646 434.1875 84.19271Q433.73438 85.09896 432.85938 85.583336Q432.0 86.06771 430.85938 86.083336L428.48438 86.083336ZM429.60938 78.47396L429.60938 85.16146L430.79688 85.16146Q432.09375 85.16146 432.8125 84.364586Q433.54688 83.552086 433.54688 82.052086L433.54688 81.552086Q433.54688 80.09896 432.85938 79.302086Q432.1875 78.489586 430.92188 78.47396L429.60938 78.47396ZM441.20312 83.84896L437.625 83.84896L436.82812 86.083336L435.67188 86.083336L438.92188 77.552086L439.90625 77.552086L443.17188 86.083336L442.01562 86.083336L441.20312 83.84896ZM437.96875 82.927086L440.875 82.927086L439.42188 78.94271L437.96875 82.927086Z" fill-rule="nonzero"/><path stroke="#f4b400" stroke-width="4.0" stroke-linecap="butt" d="M459.5 81.583336L471.5 81.583336" fill-rule="nonzero"/><path fill="#757575" d="M481.70312 86.083336L480.57812 86.083336L480.57812 77.552086L481.70312 77.552086L481.70312 86.083336ZM489.5 77.552086L489.5 83.34896Q489.48438 84.552086 488.73438 85.333336Q487.98438 86.09896 486.70312 86.19271L486.39062 86.208336Q485.0 86.208336 484.15625 85.458336Q483.32812 84.69271 483.32812 83.364586L483.32812 77.552086L484.4375 77.552086L484.4375 83.333336Q484.4375 84.25521 484.9375 84.770836Q485.45312 85.28646 486.39062 85.28646Q487.35938 85.28646 487.85938 84.770836Q488.35938 84.25521 488.35938 83.333336L488.35938 77.552086L489.5 77.552086ZM494.0 82.28646Q492.5625 81.864586 491.89062 81.25521Q491.23438 80.645836 491.23438 79.75521Q491.23438 78.75521 492.03125 78.09896Q492.84375 77.427086 494.14062 77.427086Q495.01562 77.427086 495.70312 77.770836Q496.39062 78.114586 496.76562 78.708336Q497.15625 79.302086 497.15625 80.020836L496.01562 80.020836Q496.01562 79.239586 495.51562 78.802086Q495.03125 78.364586 494.14062 78.364586Q493.3125 78.364586 492.84375 78.739586Q492.375 79.09896 492.375 79.739586Q492.375 80.270836 492.8125 80.63021Q493.26562 80.989586 494.32812 81.28646Q495.39062 81.583336 495.98438 81.94271Q496.59375 82.302086 496.875 82.78646Q497.17188 83.270836 497.17188 83.91146Q497.17188 84.958336 496.35938 85.583336Q495.54688 86.208336 494.20312 86.208336Q493.3125 86.208336 492.54688 85.864586Q491.79688 85.520836 491.375 84.94271Q490.96875 84.34896 490.96875 83.614586L492.09375 83.614586Q492.09375 84.38021 492.67188 84.833336Q493.25 85.28646 494.20312 85.28646Q495.09375 85.28646 495.5625 84.927086Q496.03125 84.552086 496.03125 83.927086Q496.03125 83.302086 495.59375 82.958336Q495.15625 82.614586 494.0 82.28646ZM505.04688 86.083336L503.92188 86.083336L499.625 79.50521L499.625 86.083336L498.48438 86.083336L498.48438 77.552086L499.625 77.552086L503.92188 84.16146L503.92188 77.552086L505.04688 77.552086L505.04688 86.083336Z" fill-rule="nonzero"/><path stroke="#0f9d58" stroke-width="4.0" stroke-linecap="butt" d="M522.5 81.583336L534.5 81.583336" fill-rule="nonzero"/><path fill="#757575" d="M546.28125 80.81771L548.3125 77.552086L549.6406 77.552086L546.9531 81.78646L549.7031 86.083336L548.375 86.083336L546.28125 82.75521L544.1719 86.083336L542.8281 86.083336L545.59375 81.78646L542.90625 77.552086L544.21875 77.552086L546.28125 80.81771ZM552.9375 77.552086L555.7344 84.50521L558.5156 77.552086L559.9844 77.552086L559.9844 86.083336L558.8594 86.083336L558.8594 82.75521L558.96875 79.177086L556.15625 86.083336L555.2969 86.083336L552.5 79.19271L552.6094 82.75521L552.6094 86.083336L551.4844 86.083336L551.4844 77.552086L552.9375 77.552086ZM562.9375 77.552086L565.7344 84.50521L568.5156 77.552086L569.9844 77.552086L569.9844 86.083336L568.8594 86.083336L568.8594 82.75521L568.96875 79.177086L566.15625 86.083336L565.2969 86.083336L562.5 79.19271L562.6094 82.75521L562.6094 86.083336L561.4844 86.083336L561.4844 77.552086L562.9375 77.552086ZM576.3125 82.145836L572.6094 82.145836L572.6094 85.16146L576.90625 85.16146L576.90625 86.083336L571.4844 86.083336L571.4844 77.552086L576.8594 77.552086L576.8594 78.47396L572.6094 78.47396L572.6094 81.22396L576.3125 81.22396L576.3125 82.145836Z" fill-rule="nonzero"/><path stroke="#ff6d00" stroke-width="4.0" stroke-linecap="butt" d="M593.5 81.583336L605.5 81.583336" fill-rule="nonzero"/><path fill="#757575" d="M619.3125 82.145836L615.6094 82.145836L615.6094 85.16146L619.90625 85.16146L619.90625 86.083336L614.4844 86.083336L614.4844 77.552086L619.8594 77.552086L619.8594 78.47396L615.6094 78.47396L615.6094 81.22396L619.3125 81.22396L619.3125 82.145836ZM622.6094 82.739586L622.6094 86.083336L621.4844 86.083336L621.4844 77.552086L624.6406 77.552086Q626.03125 77.552086 626.8281 78.270836Q627.625 78.97396 627.625 80.16146Q627.625 81.395836 626.84375 82.06771Q626.0781 82.739586 624.625 82.739586L622.6094 82.739586ZM622.6094 81.81771L624.6406 81.81771Q625.5469 81.81771 626.0156 81.395836Q626.5 80.97396 626.5 80.177086Q626.5 79.41146 626.0156 78.958336Q625.5469 78.489586 624.7031 78.47396L622.6094 78.47396L622.6094 81.81771ZM632.625 82.63021L630.6094 82.63021L630.6094 86.083336L629.4844 86.083336L629.4844 77.552086L632.3125 77.552086Q633.75 77.552086 634.5156 78.208336Q635.2969 78.864586 635.2969 80.114586Q635.2969 80.91146 634.8594 81.50521Q634.4375 82.09896 633.6719 82.395836L635.6719 86.00521L635.6719 86.083336L634.46875 86.083336L632.625 82.63021ZM630.6094 81.708336L632.34375 81.708336Q633.1875 81.708336 633.6719 81.28646Q634.1719 80.84896 634.1719 80.114586Q634.1719 79.333336 633.7031 78.91146Q633.2344 78.489586 632.34375 78.47396L630.6094 78.47396L630.6094 81.708336ZM641.2031 83.84896L637.625 83.84896L636.8281 86.083336L635.6719 86.083336L638.9219 77.552086L639.90625 77.552086L643.1719 86.083336L642.0156 86.083336L641.2031 83.84896ZM637.96875 82.927086L640.875 82.927086L639.4219 78.94271L637.96875 82.927086Z" fill-rule="nonzero"/><path fill="#757575" d="M33.58125 43.4875L33.58125 49.05L31.70625 49.05L31.70625 34.83125L36.940624 34.83125Q39.284374 34.83125 40.596874 36.01875Q41.925 37.20625 41.925 39.175Q41.925 41.253124 40.628124 42.378124Q39.33125 43.4875 36.925 43.4875L33.58125 43.4875ZM33.58125 41.95625L36.940624 41.95625Q38.45625 41.95625 39.253124 41.253124Q40.05 40.534374 40.05 39.190624Q40.05 37.925 39.253124 37.175Q38.45625 36.409374 37.05 36.378124L33.58125 36.378124L33.58125 41.95625ZM48.8 49.253124Q46.659374 49.253124 45.3 47.846874Q43.95625 46.425 43.95625 44.065624L43.95625 43.721874Q43.95625 42.159374 44.55 40.925Q45.159374 39.690624 46.2375 38.9875Q47.315624 38.284374 48.58125 38.284374Q50.64375 38.284374 51.784374 39.64375Q52.925 41.003124 52.925 43.534374L52.925 44.284374L45.76875 44.284374Q45.8 45.846874 46.675 46.815624Q47.55 47.76875 48.89375 47.76875Q49.8625 47.76875 50.51875 47.378124Q51.190624 46.9875 51.690624 46.346874L52.784374 47.20625Q51.45625 49.253124 48.8 49.253124ZM48.58125 39.76875Q47.4875 39.76875 46.7375 40.565624Q46.003124 41.3625 45.83125 42.8L51.1125 42.8L51.1125 42.659374Q51.034374 41.284374 50.3625 40.534374Q49.70625 39.76875 48.58125 39.76875ZM60.51875 40.096874Q60.1125 40.034374 59.64375 40.034374Q57.8625 40.034374 57.221874 41.55L57.221874 49.05L55.425 49.05L55.425 38.4875L57.175 38.4875L57.20625 39.70625Q58.096874 38.284374 59.721874 38.284374Q60.253124 38.284374 60.51875 38.425L60.51875 40.096874ZM63.3 49.05L63.3 39.878124L61.64375 39.878124L61.64375 38.4875L63.3 38.4875L63.3 37.39375Q63.3 35.70625 64.20625 34.784374Q65.12813 33.846874 66.78438 33.846874Q67.40938 33.846874 68.01875 34.003124L67.925 35.471874Q67.47188 35.39375 66.95625 35.39375Q66.06563 35.39375 65.58125 35.909374Q65.1125 36.409374 65.1125 37.3625L65.1125 38.4875L67.3625 38.4875L67.3625 39.878124L65.1125 39.878124L65.1125 49.05L63.3 49.05ZM68.94063 43.675Q68.94063 42.1125 69.55 40.878124Q70.15938 39.628124 71.2375 38.95625Q72.33125 38.284374 73.7375 38.284374Q75.89375 38.284374 77.22188 39.784374Q78.56563 41.26875 78.56563 43.753124L78.56563 43.878124Q78.56563 45.425 77.97188 46.659374Q77.37813 47.878124 76.26875 48.565624Q75.175 49.253124 73.75313 49.253124Q71.6125 49.253124 70.26875 47.753124Q68.94063 46.253124 68.94063 43.8L68.94063 43.675ZM70.75313 43.878124Q70.75313 45.64375 71.56563 46.70625Q72.39375 47.76875 73.75313 47.76875Q75.12813 47.76875 75.94063 46.690624Q76.75313 45.6125 76.75313 43.675Q76.75313 41.925 75.925 40.846874Q75.09688 39.76875 73.7375 39.76875Q72.39375 39.76875 71.56563 40.83125Q70.75313 41.89375 70.75313 43.878124ZM85.51875 40.096874Q85.1125 40.034374 84.64375 40.034374Q82.8625 40.034374 82.22188 41.55L82.22188 49.05L80.425 49.05L80.425 38.4875L82.175 38.4875L82.20625 39.70625Q83.09688 38.284374 84.72188 38.284374Q85.25313 38.284374 85.51875 38.425L85.51875 40.096874ZM89.1125 38.4875L89.15938 39.659374Q90.33125 38.284374 92.3 38.284374Q94.51875 38.284374 95.31563 39.9875Q95.84688 39.221874 96.69063 38.753124Q97.53438 38.284374 98.69063 38.284374Q102.15938 38.284374 102.22188 41.971874L102.22188 49.05L100.40938 49.05L100.40938 42.08125Q100.40938 40.940624 99.89375 40.378124Q99.37813 39.815624 98.15938 39.815624Q97.15938 39.815624 96.4875 40.425Q95.83125 41.01875 95.72188 42.034374L95.72188 49.05L93.90938 49.05L93.90938 42.128124Q93.90938 39.815624 91.64375 39.815624Q89.8625 39.815624 89.22188 41.33125L89.22188 49.05L87.40938 49.05L87.40938 38.4875L89.1125 38.4875ZM111.94063 49.05Q111.78438 48.7375 111.69063 47.940624Q110.425 49.253124 108.675 49.253124Q107.1125 49.253124 106.1125 48.3625Q105.1125 47.471874 105.1125 46.1125Q105.1125 44.471874 106.3625 43.565624Q107.62813 42.64375 109.89375 42.64375L111.65938 42.64375L111.65938 41.815624Q111.65938 40.8625 111.08125 40.3Q110.51875 39.7375 109.425 39.7375Q108.45625 39.7375 107.8 40.2375Q107.14375 40.721874 107.14375 41.409374L105.33125 41.409374Q105.33125 40.628124 105.89375 39.89375Q106.45625 39.14375 107.40938 38.721874Q108.37813 38.284374 109.53438 38.284374Q111.3625 38.284374 112.39375 39.20625Q113.425 40.1125 113.47188 41.721874L113.47188 46.58125Q113.47188 48.034374 113.83125 48.89375L113.83125 49.05L111.94063 49.05ZM108.94063 47.675Q109.8 47.675 110.55 47.2375Q111.31563 46.8 111.65938 46.096874L111.65938 43.925L110.2375 43.925Q106.925 43.925 106.925 45.8625Q106.925 46.721874 107.4875 47.20625Q108.05 47.675 108.94063 47.675ZM118.12813 38.4875L118.19063 39.815624Q119.39375 38.284374 121.34688 38.284374Q124.70625 38.284374 124.72188 42.065624L124.72188 49.05L122.925 49.05L122.925 42.05Q122.90938 40.909374 122.39375 40.3625Q121.89375 39.815624 120.8 39.815624Q119.925 39.815624 119.25313 40.284374Q118.59688 40.753124 118.22188 41.51875L118.22188 49.05L116.425 49.05L116.425 38.4875L118.12813 38.4875ZM131.65938 47.76875Q132.62813 47.76875 133.34688 47.190624Q134.06563 46.596874 134.14375 45.721874L135.8625 45.721874Q135.8 46.628124 135.22188 47.45625Q134.65938 48.26875 133.69063 48.76875Q132.7375 49.253124 131.65938 49.253124Q129.50313 49.253124 128.22188 47.815624Q126.95625 46.3625 126.95625 43.8625L126.95625 43.565624Q126.95625 42.01875 127.51875 40.815624Q128.08125 39.6125 129.14375 38.95625Q130.20625 38.284374 131.64375 38.284374Q133.425 38.284374 134.59688 39.346874Q135.78438 40.409374 135.8625 42.1125L134.14375 42.1125Q134.06563 41.096874 133.3625 40.440624Q132.675 39.76875 131.64375 39.76875Q130.26875 39.76875 129.50313 40.76875Q128.75313 41.753124 128.75313 43.628124L128.75313 43.971874Q128.75313 45.8 129.50313 46.784374Q130.25313 47.76875 131.65938 47.76875ZM141.8 49.253124Q139.65938 49.253124 138.3 47.846874Q136.95625 46.425 136.95625 44.065624L136.95625 43.721874Q136.95625 42.159374 137.55 40.925Q138.15938 39.690624 139.2375 38.9875Q140.31563 38.284374 141.58125 38.284374Q143.64375 38.284374 144.78438 39.64375Q145.925 41.003124 145.925 43.534374L145.925 44.284374L138.76875 44.284374Q138.8 45.846874 139.675 46.815624Q140.55 47.76875 141.89375 47.76875Q142.8625 47.76875 143.51875 47.378124Q144.19063 46.9875 144.69063 46.346874L145.78438 47.20625Q144.45625 49.253124 141.8 49.253124ZM141.58125 39.76875Q140.4875 39.76875 139.7375 40.565624Q139.00313 41.3625 138.83125 42.8L144.1125 42.8L144.1125 42.659374Q144.03438 41.284374 143.3625 40.534374Q142.70625 39.76875 141.58125 39.76875ZM152.94063 43.675Q152.94063 42.1125 153.55 40.878124Q154.15938 39.628124 155.2375 38.95625Q156.33125 38.284374 157.7375 38.284374Q159.89375 38.284374 161.22188 39.784374Q162.56563 41.26875 162.56563 43.753124L162.56563 43.878124Q162.56563 45.425 161.97188 46.659374Q161.37813 47.878124 160.26875 48.565624Q159.175 49.253124 157.75313 49.253124Q155.6125 49.253124 154.26875 47.753124Q152.94063 46.253124 152.94063 43.8L152.94063 43.675ZM154.75313 43.878124Q154.75313 45.64375 155.56563 46.70625Q156.39375 47.76875 157.75313 47.76875Q159.12813 47.76875 159.94063 46.690624Q160.75313 45.6125 160.75313 43.675Q160.75313 41.925 159.925 40.846874Q159.09688 39.76875 157.7375 39.76875Q156.39375 39.76875 155.56563 40.83125Q154.75313 41.89375 154.75313 43.878124ZM165.3 49.05L165.3 39.878124L163.64375 39.878124L163.64375 38.4875L165.3 38.4875L165.3 37.39375Q165.3 35.70625 166.20625 34.784374Q167.12813 33.846874 168.78438 33.846874Q169.40938 33.846874 170.01875 34.003124L169.925 35.471874Q169.47188 35.39375 168.95625 35.39375Q168.06563 35.39375 167.58125 35.909374Q167.1125 36.409374 167.1125 37.3625L167.1125 38.4875L169.3625 38.4875L169.3625 39.878124L167.1125 39.878124L167.1125 49.05L165.3 49.05ZM182.94063 49.05Q182.78438 48.7375 182.69063 47.940624Q181.425 49.253124 179.675 49.253124Q178.1125 49.253124 177.1125 48.3625Q176.1125 47.471874 176.1125 46.1125Q176.1125 44.471874 177.3625 43.565624Q178.62813 42.64375 180.89375 42.64375L182.65938 42.64375L182.65938 41.815624Q182.65938 40.8625 182.08125 40.3Q181.51875 39.7375 180.425 39.7375Q179.45625 39.7375 178.8 40.2375Q178.14375 40.721874 178.14375 41.409374L176.33125 41.409374Q176.33125 40.628124 176.89375 39.89375Q177.45625 39.14375 178.40938 38.721874Q179.37813 38.284374 180.53438 38.284374Q182.3625 38.284374 183.39375 39.20625Q184.425 40.1125 184.47188 41.721874L184.47188 46.58125Q184.47188 48.034374 184.83125 48.89375L184.83125 49.05L182.94063 49.05ZM179.94063 47.675Q180.8 47.675 181.55 47.2375Q182.31563 46.8 182.65938 46.096874L182.65938 43.925L181.2375 43.925Q177.925 43.925 177.925 45.8625Q177.925 46.721874 178.4875 47.20625Q179.05 47.675 179.94063 47.675ZM193.56563 46.253124Q193.56563 45.51875 193.01875 45.1125Q192.47188 44.70625 191.09688 44.409374Q189.72188 44.1125 188.90938 43.70625Q188.1125 43.3 187.72188 42.7375Q187.34688 42.159374 187.34688 41.378124Q187.34688 40.08125 188.44063 39.190624Q189.53438 38.284374 191.25313 38.284374Q193.05 38.284374 194.15938 39.221874Q195.28438 40.14375 195.28438 41.58125L193.45625 41.58125Q193.45625 40.846874 192.83125 40.315624Q192.20625 39.76875 191.25313 39.76875Q190.25313 39.76875 189.69063 40.20625Q189.14375 40.628124 189.14375 41.33125Q189.14375 41.971874 189.65938 42.315624Q190.175 42.64375 191.53438 42.95625Q192.89375 43.253124 193.72188 43.675Q194.56563 44.08125 194.97188 44.675Q195.37813 45.26875 195.37813 46.1125Q195.37813 47.534374 194.2375 48.39375Q193.1125 49.253124 191.3 49.253124Q190.03438 49.253124 189.05 48.8Q188.08125 48.346874 187.51875 47.55Q186.97188 46.7375 186.97188 45.8L188.78438 45.8Q188.83125 46.70625 189.50313 47.2375Q190.19063 47.76875 191.3 47.76875Q192.33125 47.76875 192.94063 47.3625Q193.56563 46.940624 193.56563 46.253124ZM203.56563 46.253124Q203.56563 45.51875 203.01875 45.1125Q202.47188 44.70625 201.09688 44.409374Q199.72188 44.1125 198.90938 43.70625Q198.1125 43.3 197.72188 42.7375Q197.34688 42.159374 197.34688 41.378124Q197.34688 40.08125 198.44063 39.190624Q199.53438 38.284374 201.25313 38.284374Q203.05 38.284374 204.15938 39.221874Q205.28438 40.14375 205.28438 41.58125L203.45625 41.58125Q203.45625 40.846874 202.83125 40.315624Q202.20625 39.76875 201.25313 39.76875Q200.25313 39.76875 199.69063 40.20625Q199.14375 40.628124 199.14375 41.33125Q199.14375 41.971874 199.65938 42.315624Q200.175 42.64375 201.53438 42.95625Q202.89375 43.253124 203.72188 43.675Q204.56563 44.08125 204.97188 44.675Q205.37813 45.26875 205.37813 46.1125Q205.37813 47.534374 204.2375 48.39375Q203.1125 49.253124 201.3 49.253124Q200.03438 49.253124 199.05 48.8Q198.08125 48.346874 197.51875 47.55Q196.97188 46.7375 196.97188 45.8L198.78438 45.8Q198.83125 46.70625 199.50313 47.2375Q200.19063 47.76875 201.3 47.76875Q202.33125 47.76875 202.94063 47.3625Q203.56563 46.940624 203.56563 46.253124ZM211.8 49.253124Q209.65938 49.253124 208.3 47.846874Q206.95625 46.425 206.95625 44.065624L206.95625 43.721874Q206.95625 42.159374 207.55 40.925Q208.15938 39.690624 209.2375 38.9875Q210.31563 38.284374 211.58125 38.284374Q213.64375 38.284374 214.78438 39.64375Q215.925 41.003124 215.925 43.534374L215.925 44.284374L208.76875 44.284374Q208.8 45.846874 209.675 46.815624Q210.55 47.76875 211.89375 47.76875Q212.8625 47.76875 213.51875 47.378124Q214.19063 46.9875 214.69063 46.346874L215.78438 47.20625Q214.45625 49.253124 211.8 49.253124ZM211.58125 39.76875Q210.4875 39.76875 209.7375 40.565624Q209.00313 41.3625 208.83125 42.8L214.1125 42.8L214.1125 42.659374Q214.03438 41.284374 213.3625 40.534374Q212.70625 39.76875 211.58125 39.76875ZM220.8625 35.925L220.8625 38.4875L222.84688 38.4875L222.84688 39.878124L220.8625 39.878124L220.8625 46.425Q220.8625 47.065624 221.12813 47.39375Q221.39375 47.70625 222.03438 47.70625Q222.34688 47.70625 222.89375 47.58125L222.89375 49.05Q222.175 49.253124 221.50313 49.253124Q220.3 49.253124 219.675 48.51875Q219.06563 47.784374 219.06563 46.425L219.06563 39.878124L217.14375 39.878124L217.14375 38.4875L219.06563 38.4875L219.06563 35.925L220.8625 35.925ZM231.56563 46.253124Q231.56563 45.51875 231.01875 45.1125Q230.47188 44.70625 229.09688 44.409374Q227.72188 44.1125 226.90938 43.70625Q226.1125 43.3 225.72188 42.7375Q225.34688 42.159374 225.34688 41.378124Q225.34688 40.08125 226.44063 39.190624Q227.53438 38.284374 229.25313 38.284374Q231.05 38.284374 232.15938 39.221874Q233.28438 40.14375 233.28438 41.58125L231.45625 41.58125Q231.45625 40.846874 230.83125 40.315624Q230.20625 39.76875 229.25313 39.76875Q228.25313 39.76875 227.69063 40.20625Q227.14375 40.628124 227.14375 41.33125Q227.14375 41.971874 227.65938 42.315624Q228.175 42.64375 229.53438 42.95625Q230.89375 43.253124 231.72188 43.675Q232.56563 44.08125 232.97188 44.675Q233.37813 45.26875 233.37813 46.1125Q233.37813 47.534374 232.2375 48.39375Q231.1125 49.253124 229.3 49.253124Q228.03438 49.253124 227.05 48.8Q226.08125 48.346874 225.51875 47.55Q224.97188 46.7375 224.97188 45.8L226.78438 45.8Q226.83125 46.70625 227.50313 47.2375Q228.19063 47.76875 229.3 47.76875Q230.33125 47.76875 230.94063 47.3625Q231.56563 46.940624 231.56563 46.253124ZM242.37813 49.05L240.58125 49.05L240.58125 38.4875L242.37813 38.4875L242.37813 49.05ZM240.425 35.675Q240.425 35.2375 240.69063 34.940624Q240.97188 34.628124 241.4875 34.628124Q242.01875 34.628124 242.28438 34.940624Q242.56563 35.2375 242.56563 35.675Q242.56563 36.1125 242.28438 36.409374Q242.01875 36.70625 241.4875 36.70625Q240.97188 36.70625 240.69063 36.409374Q240.425 36.1125 240.425 35.675ZM247.12813 38.4875L247.19063 39.815624Q248.39375 38.284374 250.34688 38.284374Q253.70625 38.284374 253.72188 42.065624L253.72188 49.05L251.925 49.05L251.925 42.05Q251.90938 40.909374 251.39375 40.3625Q250.89375 39.815624 249.8 39.815624Q248.925 39.815624 248.25313 40.284374Q247.59688 40.753124 247.22188 41.51875L247.22188 49.05L245.425 49.05L245.425 38.4875L247.12813 38.4875ZM263.1125 38.4875L263.15936 39.659374Q264.33124 38.284374 266.3 38.284374Q268.51874 38.284374 269.3156 39.9875Q269.84686 39.221874 270.6906 38.753124Q271.53436 38.284374 272.6906 38.284374Q276.15936 38.284374 276.22186 41.971874L276.22186 49.05L274.40936 49.05L274.40936 42.08125Q274.40936 40.940624 273.89374 40.378124Q273.3781 39.815624 272.15936 39.815624Q271.15936 39.815624 270.4875 40.425Q269.83124 41.01875 269.72186 42.034374L269.72186 49.05L267.90936 49.05L267.90936 42.128124Q267.90936 39.815624 265.64374 39.815624Q263.8625 39.815624 263.22186 41.33125L263.22186 49.05L261.40936 49.05L261.40936 38.4875L263.1125 38.4875ZM282.8781 46.409374L285.33124 38.4875L287.26874 38.4875L283.01874 50.675Q282.03436 53.315624 279.89374 53.315624L279.55 53.284374L278.8781 53.159374L278.8781 51.690624L279.3625 51.7375Q280.28436 51.7375 280.78436 51.3625Q281.3 50.9875 281.6281 50.003124L282.03436 48.925L278.26874 38.4875L280.2375 38.4875L282.8781 46.409374ZM302.34686 43.878124Q302.34686 46.3 301.2375 47.784374Q300.14374 49.253124 298.2531 49.253124Q296.33124 49.253124 295.22186 48.01875L295.22186 53.1125L293.425 53.1125L293.425 38.4875L295.0656 38.4875L295.15936 39.659374Q296.2531 38.284374 298.22186 38.284374Q300.1281 38.284374 301.2375 39.721874Q302.34686 41.159374 302.34686 43.721874L302.34686 43.878124ZM300.53436 43.675Q300.53436 41.89375 299.76874 40.8625Q299.01874 39.815624 297.6906 39.815624Q296.05 39.815624 295.22186 41.26875L295.22186 46.33125Q296.03436 47.76875 297.70624 47.76875Q299.0031 47.76875 299.76874 46.7375Q300.53436 45.70625 300.53436 43.675ZM303.9406 43.675Q303.9406 42.1125 304.55 40.878124Q305.15936 39.628124 306.2375 38.95625Q307.33124 38.284374 308.7375 38.284374Q310.89374 38.284374 312.22186 39.784374Q313.5656 41.26875 313.5656 43.753124L313.5656 43.878124Q313.5656 45.425 312.97186 46.659374Q312.3781 47.878124 311.26874 48.565624Q310.175 49.253124 308.7531 49.253124Q306.6125 49.253124 305.26874 47.753124Q303.9406 46.253124 303.9406 43.8L303.9406 43.675ZM305.7531 43.878124Q305.7531 45.64375 306.5656 46.70625Q307.39374 47.76875 308.7531 47.76875Q310.1281 47.76875 310.9406 46.690624Q311.7531 45.6125 311.7531 43.675Q311.7531 41.925 310.925 40.846874Q310.09686 39.76875 308.7375 39.76875Q307.39374 39.76875 306.5656 40.83125Q305.7531 41.89375 305.7531 43.878124ZM320.51874 40.096874Q320.1125 40.034374 319.64374 40.034374Q317.8625 40.034374 317.22186 41.55L317.22186 49.05L315.425 49.05L315.425 38.4875L317.175 38.4875L317.20624 39.70625Q318.09686 38.284374 319.72186 38.284374Q320.2531 38.284374 320.51874 38.425L320.51874 40.096874ZM324.8625 35.925L324.8625 38.4875L326.84686 38.4875L326.84686 39.878124L324.8625 39.878124L324.8625 46.425Q324.8625 47.065624 325.1281 47.39375Q325.39374 47.70625 326.03436 47.70625Q326.34686 47.70625 326.89374 47.58125L326.89374 49.05Q326.175 49.253124 325.5031 49.253124Q324.3 49.253124 323.675 48.51875Q323.0656 47.784374 323.0656 46.425L323.0656 39.878124L321.14374 39.878124L321.14374 38.4875L323.0656 38.4875L323.0656 35.925L324.8625 35.925ZM330.3 49.05L330.3 39.878124L328.64374 39.878124L328.64374 38.4875L330.3 38.4875L330.3 37.39375Q330.3 35.70625 331.20624 34.784374Q332.1281 33.846874 333.78436 33.846874Q334.40936 33.846874 335.01874 34.003124L334.925 35.471874Q334.47186 35.39375 333.95624 35.39375Q333.0656 35.39375 332.58124 35.909374Q332.1125 36.409374 332.1125 37.3625L332.1125 38.4875L334.3625 38.4875L334.3625 39.878124L332.1125 39.878124L332.1125 49.05L330.3 49.05ZM335.9406 43.675Q335.9406 42.1125 336.55 40.878124Q337.15936 39.628124 338.2375 38.95625Q339.33124 38.284374 340.7375 38.284374Q342.89374 38.284374 344.22186 39.784374Q345.5656 41.26875 345.5656 43.753124L345.5656 43.878124Q345.5656 45.425 344.97186 46.659374Q344.3781 47.878124 343.26874 48.565624Q342.175 49.253124 340.7531 49.253124Q338.6125 49.253124 337.26874 47.753124Q335.9406 46.253124 335.9406 43.8L335.9406 43.675ZM337.7531 43.878124Q337.7531 45.64375 338.5656 46.70625Q339.39374 47.76875 340.7531 47.76875Q342.1281 47.76875 342.9406 46.690624Q343.7531 45.6125 343.7531 43.675Q343.7531 41.925 342.925 40.846874Q342.09686 39.76875 340.7375 39.76875Q339.39374 39.76875 338.5656 40.83125Q337.7531 41.89375 337.7531 43.878124ZM349.3781 49.05L347.58124 49.05L347.58124 34.05L349.3781 34.05L349.3781 49.05ZM354.3781 49.05L352.58124 49.05L352.58124 38.4875L354.3781 38.4875L354.3781 49.05ZM352.425 35.675Q352.425 35.2375 352.6906 34.940624Q352.97186 34.628124 353.4875 34.628124Q354.01874 34.628124 354.28436 34.940624Q354.5656 35.2375 354.5656 35.675Q354.5656 36.1125 354.28436 36.409374Q354.01874 36.70625 353.4875 36.70625Q352.97186 36.70625 352.6906 36.409374Q352.425 36.1125 352.425 35.675ZM356.9406 43.675Q356.9406 42.1125 357.55 40.878124Q358.15936 39.628124 359.2375 38.95625Q360.33124 38.284374 361.7375 38.284374Q363.89374 38.284374 365.22186 39.784374Q366.5656 41.26875 366.5656 43.753124L366.5656 43.878124Q366.5656 45.425 365.97186 46.659374Q365.3781 47.878124 364.26874 48.565624Q363.175 49.253124 361.7531 49.253124Q359.6125 49.253124 358.26874 47.753124Q356.9406 46.253124 356.9406 43.8L356.9406 43.675ZM358.7531 43.878124Q358.7531 45.64375 359.5656 46.70625Q360.39374 47.76875 361.7531 47.76875Q363.1281 47.76875 363.9406 46.690624Q364.7531 45.6125 364.7531 43.675Q364.7531 41.925 363.925 40.846874Q363.09686 39.76875 361.7375 39.76875Q360.39374 39.76875 359.5656 40.83125Q358.7531 41.89375 358.7531 43.878124ZM372.97186 43.675Q372.97186 41.253124 374.1281 39.76875Q375.28436 38.284374 377.14374 38.284374Q379.0031 38.284374 380.08124 39.55L380.08124 34.05L381.89374 34.05L381.89374 49.05L380.2375 49.05L380.14374 47.909374Q379.0656 49.253124 377.1281 49.253124Q375.3 49.253124 374.1281 47.753124Q372.97186 46.2375 372.97186 43.815624L372.97186 43.675ZM374.78436 43.878124Q374.78436 45.675 375.51874 46.690624Q376.26874 47.70625 377.58124 47.70625Q379.3 47.70625 380.08124 46.175L380.08124 41.315624Q379.28436 39.815624 377.59686 39.815624Q376.26874 39.815624 375.51874 40.846874Q374.78436 41.878124 374.78436 43.878124ZM390.9406 48.003124Q389.89374 49.253124 387.84686 49.253124Q386.15936 49.253124 385.26874 48.26875Q384.39374 47.284374 384.3781 45.3625L384.3781 38.4875L386.1906 38.4875L386.1906 45.315624Q386.1906 47.70625 388.14374 47.70625Q390.20624 47.70625 390.89374 46.175L390.89374 38.4875L392.70624 38.4875L392.70624 49.05L390.9875 49.05L390.9406 48.003124ZM400.51874 40.096874Q400.1125 40.034374 399.64374 40.034374Q397.8625 40.034374 397.22186 41.55L397.22186 49.05L395.425 49.05L395.425 38.4875L397.175 38.4875L397.20624 39.70625Q398.09686 38.284374 399.72186 38.284374Q400.2531 38.284374 400.51874 38.425L400.51874 40.096874ZM404.3781 49.05L402.58124 49.05L402.58124 38.4875L404.3781 38.4875L404.3781 49.05ZM402.425 35.675Q402.425 35.2375 402.6906 34.940624Q402.97186 34.628124 403.4875 34.628124Q404.01874 34.628124 404.28436 34.940624Q404.5656 35.2375 404.5656 35.675Q404.5656 36.1125 404.28436 36.409374Q404.01874 36.70625 403.4875 36.70625Q402.97186 36.70625 402.6906 36.409374Q402.425 36.1125 402.425 35.675ZM409.1281 38.4875L409.1906 39.815624Q410.39374 38.284374 412.34686 38.284374Q415.70624 38.284374 415.72186 42.065624L415.72186 49.05L413.925 49.05L413.925 42.05Q413.90936 40.909374 413.39374 40.3625Q412.89374 39.815624 411.8 39.815624Q410.925 39.815624 410.2531 40.284374Q409.59686 40.753124 409.22186 41.51875L409.22186 49.05L407.425 49.05L407.425 38.4875L409.1281 38.4875ZM417.9875 43.675Q417.9875 41.20625 419.1281 39.753124Q420.26874 38.284374 422.15936 38.284374Q424.09686 38.284374 425.175 39.659374L425.26874 38.4875L426.90936 38.4875L426.90936 48.8Q426.90936 50.846874 425.6906 52.01875Q424.4875 53.20625 422.425 53.20625Q421.28436 53.20625 420.1906 52.721874Q419.09686 52.2375 418.51874 51.378124L419.45624 50.3Q420.6281 51.7375 422.3 51.7375Q423.6281 51.7375 424.3625 50.9875Q425.09686 50.253124 425.09686 48.909374L425.09686 47.9875Q424.01874 49.253124 422.14374 49.253124Q420.28436 49.253124 419.1281 47.753124Q417.9875 46.253124 417.9875 43.675ZM419.8 43.878124Q419.8 45.675 420.53436 46.690624Q421.26874 47.70625 422.58124 47.70625Q424.3 47.70625 425.09686 46.159374L425.09686 41.33125Q424.26874 39.815624 422.6125 39.815624Q421.28436 39.815624 420.53436 40.846874Q419.8 41.878124 419.8 43.878124ZM443.55 49.05L434.2375 49.05L434.2375 47.753124L439.15936 42.284374Q440.2531 41.034374 440.65936 40.26875Q441.08124 39.4875 441.08124 38.659374Q441.08124 37.55 440.40936 36.83125Q439.7375 36.1125 438.6125 36.1125Q437.2531 36.1125 436.5031 36.89375Q435.76874 37.659374 435.76874 39.01875L433.95624 39.01875Q433.95624 37.05 435.22186 35.846874Q436.4875 34.628124 438.6125 34.628124Q440.59686 34.628124 441.7375 35.675Q442.89374 36.721874 442.89374 38.440624Q442.89374 40.55 440.22186 43.440624L436.40936 47.58125L443.55 47.58125L443.55 49.05ZM454.14374 42.9875Q454.14374 46.159374 453.0656 47.70625Q451.9875 49.253124 449.675 49.253124Q447.39374 49.253124 446.3 47.7375Q445.20624 46.221874 445.175 43.221874L445.175 40.815624Q445.175 37.675 446.2531 36.159374Q447.34686 34.628124 449.65936 34.628124Q451.95624 34.628124 453.03436 36.1125Q454.1125 37.58125 454.14374 40.64375L454.14374 42.9875ZM452.34686 40.51875Q452.34686 38.221874 451.6906 37.175Q451.05 36.1125 449.65936 36.1125Q448.26874 36.1125 447.6281 37.159374Q447.0031 38.20625 446.9875 40.378124L446.9875 43.26875Q446.9875 45.565624 447.64374 46.675Q448.3156 47.76875 449.675 47.76875Q451.01874 47.76875 451.65936 46.7375Q452.3156 45.70625 452.34686 43.471874L452.34686 40.51875ZM462.175 49.05L460.34686 49.05L460.34686 37.003124L456.70624 38.346874L456.70624 36.70625L461.89374 34.76875L462.175 34.76875L462.175 49.05ZM474.15936 42.8Q473.59686 43.471874 472.8 43.89375Q472.01874 44.3 471.08124 44.3Q469.84686 44.3 468.925 43.690624Q468.01874 43.08125 467.51874 41.9875Q467.03436 40.878124 467.03436 39.55Q467.03436 38.128124 467.5656 36.9875Q468.1125 35.846874 469.09686 35.2375Q470.09686 34.628124 471.425 34.628124Q473.53436 34.628124 474.7531 36.20625Q475.97186 37.784374 475.97186 40.51875L475.97186 41.034374Q475.97186 45.190624 474.33124 47.096874Q472.6906 49.003124 469.3781 49.065624L469.03436 49.065624L469.03436 47.534374L469.40936 47.534374Q471.64374 47.503124 472.84686 46.378124Q474.05 45.2375 474.15936 42.8ZM471.3781 42.8Q472.28436 42.8 473.05 42.253124Q473.8156 41.690624 474.15936 40.8625L474.15936 40.14375Q474.15936 38.3625 473.39374 37.253124Q472.6281 36.14375 471.4406 36.14375Q470.2531 36.14375 469.51874 37.065624Q468.8 37.971874 468.8 39.45625Q468.8 40.909374 469.5031 41.8625Q470.20624 42.8 471.3781 42.8Z" fill-rule="nonzero"/></svg>