<svg fill="none" stroke-linecap="square" stroke-miterlimit="10" width="794" height="491" xmlns="http://www.w3.org/2000/svg"><path fill="#fff" d="M0 0h794v491H0V0z"/><path stroke="#ccc" stroke-linecap="butt" d="M120.5 72.5v373m163-373v373m161-373v373m163-373v373m-541 0h621m-621-62h621m-621-62h621"/><path stroke="#333" stroke-linecap="butt" d="M66.5 258.5h621"/><path stroke="#ccc" stroke-linecap="butt" d="M66.5 196.5h621m-621-62h621m-621-62h621"/><clipPath id="a"><path d="M66.55 72.417h621.131V445.45H66.55V72.417z"/></clipPath><path stroke="#4285f4" stroke-width="2" stroke-linecap="butt" clip-path="url(#a)" d="M471.481 258.933s18.608-15.385 27.468-17.057c8.861-1.671 17.722 4.76 26.582 6.48 8.861 1.719 18.608 2.6 27.468 3.966 8.861 1.367 17.722 3.04 26.582 4.364 8.86 1.324 18.312 5.178 27.468 3.702 9.156-1.477 18.903-9.616 27.468-12.562 8.565-2.945 17.13-4.899 25.696-5.923 8.565-1.025 27.468-.238 27.468-.238"/><path stroke="#db4437" stroke-width="2" stroke-linecap="butt" clip-path="url(#a)" d="M66.55 258.933s18.607-18.624 27.468-22.48c8.86-3.856 17.721 1.387 26.582-1.379 8.86-2.766 18.312-10.918 27.468-15.722 9.156-4.804 18.607-10.23 27.468-13.102 8.86-2.872 17.721-9.132 26.582-4.552 8.86 4.58 18.607 28.221 27.468 33.1 8.86 4.88 17.721-10.596 26.582-2.758 8.86 7.837 18.312 50.224 27.468 51.442 9.156 1.218 19.198-33.26 27.468-44.133 8.27-10.873 16.54-18.655 24.81-25.376 8.27-6.72 18.607-9.72 27.468-16.55 8.86-6.83 17.72-26.252 26.582-24.963 8.86 1.29 18.607 32.707 27.468 33.79 8.86 1.082 17.72-17.722 26.581-26.204 8.861-8.483 18.312-23.308 27.468-25.515 9.156-2.206 18.608 14.203 27.468 12.275 8.861-1.928 17.722-19.694 26.582-23.446 8.861-3.752 18.608 6.212 27.468.966 8.861-5.246 17.722-26.186 26.582-32.41 8.86-6.225 18.312-2.92 27.468-5.103 9.156-2.184 18.903-18.015 27.468-8 8.565 10.017 17.13 44.167 25.696 67.58 8.565 23.411 27.468 77.921 27.468 77.921"/><path stroke="#f4b400" stroke-width="2" stroke-linecap="butt" clip-path="url(#a)" d="M175.536 258.933s17.721-.433 26.582 8.057c8.86 8.49 18.607 37.837 27.468 44.313 8.86 6.476 17.721-11.37 26.582-4.028 8.86 7.342 18.312 48.34 27.468 49.684 9.156 1.342 19.198-30.661 27.468-41.628 8.27-10.966 16.54-22.892 24.81-28.199 8.27-5.306 18.607-.021 27.468-4.028 8.86-4.007 17.72-23.066 26.582-20.142 8.86 2.924 18.607 36.241 27.468 38.941 8.86 2.7 17.72-14.872 26.581-21.485 8.861-6.613 18.312-19.023 27.468-18.799 9.156.224 18.608 20.027 27.468 20.142 8.861.116 17.722-15.45 26.582-18.8 8.861-3.349 18.608 3.574 27.468-1.342 8.861-4.916 17.722-21.333 26.582-28.2 8.86-6.865 18.312-13.875 27.468-13.427 9.156.447 18.903 4.873 27.468 16.114 8.565 11.24 17.13 24.589 25.696 52.37 8.565 27.78 27.468 122.195 27.468 122.195"/><path stroke="#0f9d58" stroke-width="2" stroke-linecap="butt" clip-path="url(#a)" d="M66.55 258.933s18.607-7.621 27.468-3.023c8.86 4.6 17.721 28.543 26.582 30.518 8.86 1.975 18.312-19.122 27.468-19.29 9.156-.167 18.607 14.686 27.468 18.282 8.86 3.597 17.721-2.403 26.582 3.887 8.86 6.29 18.607 33.68 27.468 34.98 8.86 1.3 17.721-24.754 26.582-26.055 8.86-1.301 18.312 23.872 27.468 18.857 9.156-5.014 19.198-41.743 27.468-48.943 8.27-7.2 16.54 3.115 24.81 1.008 8.27-2.108 18.607-10.23 27.468-15.115 8.86-4.885 17.72-19.805 26.582-14.683 8.86 5.122 18.607 43.653 27.468 46.928 8.86 3.274 17.72-20.962 26.581-25.767 8.861-4.806 18.312-6.43 27.468-3.167 9.156 3.263 18.608 22.315 27.468 22.744 8.861.43 17.722-15.173 26.582-19.433 8.861-4.26 18.608-3.897 27.468-6.334 8.861-2.437 17.722 1.258 26.582-8.493 8.86-9.75 18.312-51.079 27.468-51.678 9.156-.6 18.903 36.24 27.468 48.08 8.565 11.838 17.13 8.11 25.696 26.054 8.565 17.944 27.468 87.234 27.468 87.234"/><path stroke="#ff6d00" stroke-width="2" stroke-linecap="butt" clip-path="url(#a)" d="M66.55 258.933s18.607-25.417 27.468-32.236c8.86-6.82 17.721-7.346 26.582-9.72 8.86-2.375 18.312-2.297 27.468-4.676 9.156-2.379 18.607-11.31 27.468-9.597 8.86 1.713 17.721 15.985 26.582 19.563 8.86 3.578 18.607 4.276 27.468 1.969 8.86-2.307 17.721-19.237 26.582-15.75 8.86 3.488 18.312 42.368 27.468 37.897 9.156-4.47 19.198-53.705 27.468-64.719 8.27-11.014 16.54-1.097 24.81-7.628 8.27-6.532 18.607-31.215 27.468-34.944 8.86-3.729 17.72 9.913 26.582 11.443 8.86 1.53 18.607-2.145 27.468-2.338 8.86-.192 17.72 4.297 26.581 1.107 8.861-3.189 18.312-14.17 27.468-20.916 9.156-6.747 18.608-12.04 27.468-19.564 8.861-7.523 17.722-21.899 26.582-26.207 8.861-4.309 18.608.432 27.468.369 8.861-.064 17.722-3.195 26.582-.738 8.86 2.456 18.312 16.364 27.468 15.995 9.156-.37 18.903-25.645 27.468-18.21 8.565 7.435 17.13 25.394 25.696 61.643 8.565 36.249 27.468 166.596 27.468 166.596"/><path clip-path="url(#a)" d="M474.481 258.933a3 3 0 11-6 0 3 3 0 016 0zm27.469-17.057a3 3 0 11-6 0 3 3 0 016 0zm26.581 6.479a3 3 0 11-6 0 3 3 0 016 0zM556 252.322a3 3 0 11-6 0 3 3 0 016 0zm26.581 4.364a3 3 0 11-6 0 3 3 0 016 0zm27.469 3.702a3 3 0 11-6 0 3 3 0 016 0zm27.467-12.562a3 3 0 11-6 0 3 3 0 016 0zm25.696-5.923a3 3 0 11-6 0 3 3 0 016 0zm27.468-.238a3 3 0 11-6 0 3 3 0 016 0zM69.55 258.933a3 3 0 11-6 0 3 3 0 016 0zm27.468-22.48a3 3 0 11-6 0 3 3 0 016 0zm26.582-1.379a3 3 0 11-6 0 3 3 0 016 0zm27.468-15.722a3 3 0 11-6 0 3 3 0 016 0zm27.468-13.102a3 3 0 11-6 0 3 3 0 016 0zm26.582-4.552a3 3 0 11-6 0 3 3 0 016 0zm27.468 33.1a3 3 0 11-6 0 3 3 0 016 0zm26.582-2.758a3 3 0 11-6 0 3 3 0 016 0zm27.468 51.442a3 3 0 11-6 0 3 3 0 016 0zm27.468-44.132a3 3 0 11-6 0 3 3 0 016 0zm24.81-25.377a3 3 0 11-6 0 3 3 0 016 0zm27.468-16.55a3 3 0 11-6 0 3 3 0 016 0zm26.582-24.963a3 3 0 11-6 0 3 3 0 016 0zm27.468 33.79a3 3 0 11-6 0 3 3 0 016 0zm26.581-26.204a3 3 0 11-6 0 3 3 0 016 0zm27.468-25.515a3 3 0 11-6 0 3 3 0 016 0zm27.469 12.275a3 3 0 11-6 0 3 3 0 016 0zm26.581-23.446a3 3 0 11-6 0 3 3 0 016 0zm27.469.966a3 3 0 11-6 0 3 3 0 016 0zm26.581-32.41a3 3 0 11-6 0 3 3 0 016 0zm27.469-5.103a3 3 0 11-6 0 3 3 0 016 0zm27.467-7.999a3 3 0 11-6 0 3 3 0 016 0zm25.696 67.578a3 3 0 11-6 0 3 3 0 016 0z"/><path clip-path="url(#a)" d="M690.681 244.314a3 3 0 11-6 0 3 3 0 016 0zm-512.145 14.619a3 3 0 11-6 0 3 3 0 016 0zm26.582 8.057a3 3 0 11-6 0 3 3 0 016 0zm27.468 44.313a3 3 0 11-6 0 3 3 0 016 0zm26.582-4.028a3 3 0 11-6 0 3 3 0 016 0zm27.468 49.684a3 3 0 11-6 0 3 3 0 016 0zm27.468-41.628a3 3 0 11-6 0 3 3 0 016 0zm24.81-28.199a3 3 0 11-6 0 3 3 0 016 0zm27.468-4.028a3 3 0 11-6 0 3 3 0 016 0zm26.582-20.142a3 3 0 11-6 0 3 3 0 016 0zm27.468 38.941a3 3 0 11-6 0 3 3 0 016 0zm26.581-21.485a3 3 0 11-6 0 3 3 0 016 0zm27.468-18.799a3 3 0 11-6 0 3 3 0 016 0zm27.469 20.142a3 3 0 11-6 0 3 3 0 016 0zm26.581-18.799a3 3 0 11-6 0 3 3 0 016 0zM556 261.619a3 3 0 11-6 0 3 3 0 016 0zm26.581-28.199a3 3 0 11-6 0 3 3 0 016 0zm27.469-13.428a3 3 0 11-6 0 3 3 0 016 0zm27.467 16.114a3 3 0 11-6 0 3 3 0 016 0zm25.696 52.369a3 3 0 11-6 0 3 3 0 016 0zm27.468 122.196a3 3 0 11-6 0 3 3 0 016 0zM69.55 258.933a3 3 0 11-6 0 3 3 0 016 0zm27.468-3.023a3 3 0 11-6 0 3 3 0 016 0zm26.582 30.518a3 3 0 11-6 0 3 3 0 016 0zm27.468-19.289a3 3 0 11-6 0 3 3 0 016 0zm27.468 18.281a3 3 0 11-6 0 3 3 0 016 0zm26.582 3.887a3 3 0 11-6 0 3 3 0 016 0zm27.468 34.98a3 3 0 11-6 0 3 3 0 016 0zm26.582-26.055a3 3 0 11-6 0 3 3 0 016 0zm27.468 18.858a3 3 0 11-6 0 3 3 0 016 0zm27.468-48.944a3 3 0 11-6 0 3 3 0 016 0zm24.81 1.008a3 3 0 11-6 0 3 3 0 016 0zm27.468-15.115a3 3 0 11-6 0 3 3 0 016 0zm26.582-14.683a3 3 0 11-6 0 3 3 0 016 0zm27.468 46.928a3 3 0 11-6 0 3 3 0 016 0zm26.581-25.767a3 3 0 11-6 0 3 3 0 016 0z"/><path clip-path="url(#a)" d="M474.481 257.35a3 3 0 11-6 0 3 3 0 016 0zm27.469 22.744a3 3 0 11-6 0 3 3 0 016 0zm26.581-19.434a3 3 0 11-6 0 3 3 0 016 0zM556 254.327a3 3 0 11-6 0 3 3 0 016 0zm26.581-8.493a3 3 0 11-6 0 3 3 0 016 0zm27.469-51.678a3 3 0 11-6 0 3 3 0 016 0zm27.467 48.079a3 3 0 11-6 0 3 3 0 016 0zm25.696 26.055a3 3 0 11-6 0 3 3 0 016 0zm27.468 87.234a3 3 0 11-6 0 3 3 0 016 0zM69.55 258.933a3 3 0 11-6 0 3 3 0 016 0zm27.468-32.236a3 3 0 11-6 0 3 3 0 016 0zm26.582-9.72a3 3 0 11-6 0 3 3 0 016 0zm27.468-4.676a3 3 0 11-6 0 3 3 0 016 0zm27.468-9.597a3 3 0 11-6 0 3 3 0 016 0zm26.582 19.563a3 3 0 11-6 0 3 3 0 016 0zm27.468 1.969a3 3 0 11-6 0 3 3 0 016 0zm26.582-15.749a3 3 0 11-6 0 3 3 0 016 0zm27.468 37.896a3 3 0 11-6 0 3 3 0 016 0zm27.468-64.719a3 3 0 11-6 0 3 3 0 016 0zm24.81-7.628a3 3 0 11-6 0 3 3 0 016 0zm27.468-34.944a3 3 0 11-6 0 3 3 0 016 0zm26.582 11.443a3 3 0 11-6 0 3 3 0 016 0zm27.468-2.338a3 3 0 11-6 0 3 3 0 016 0zm26.581 1.107a3 3 0 11-6 0 3 3 0 016 0zm27.468-20.916a3 3 0 11-6 0 3 3 0 016 0zm27.469-19.564a3 3 0 11-6 0 3 3 0 016 0zm26.581-26.207a3 3 0 11-6 0 3 3 0 016 0zm27.469.369a3 3 0 11-6 0 3 3 0 016 0zm26.581-.738a3 3 0 11-6 0 3 3 0 016 0zm27.469 15.995a3 3 0 11-6 0 3 3 0 016 0zm27.467-18.21a3 3 0 11-6 0 3 3 0 016 0zm25.696 61.643a3 3 0 11-6 0 3 3 0 016 0zm27.468 166.596a3 3 0 11-6 0 3 3 0 016 0z"/><path fill="#757575" d="M27.628 446.762h-2.86v-.875h2.86v.875zm2.203-1.609h.813q.781-.016 1.219-.406.437-.39.437-1.063 0-1.5-1.5-1.5-.703 0-1.125.407-.406.406-.406 1.062h-1.094q0-1.016.734-1.687.75-.672 1.891-.672 1.203 0 1.89.64.688.641.688 1.782 0 .562-.36 1.078-.359.515-.984.781.703.219 1.078.734.391.516.391 1.266 0 1.14-.75 1.828-.75.672-1.953.672-1.188 0-1.953-.656-.75-.656-.75-1.719h1.094q0 .672.437 1.078.438.406 1.188.406.78 0 1.187-.406.422-.422.422-1.187 0-.735-.453-1.125-.453-.407-1.328-.422h-.813v-.89zm10.781 1.156q0 1.907-.656 2.844-.64.922-2.031.922-1.36 0-2.016-.906-.656-.906-.687-2.719v-1.438q0-1.89.64-2.796.657-.922 2.047-.922 1.375 0 2.032.89.656.875.671 2.72v1.405zm-1.093-1.484q0-1.375-.39-2-.376-.64-1.22-.64-.828 0-1.218.64-.375.625-.375 1.922v1.734q0 1.375.39 2.047.406.656 1.219.656.797 0 1.188-.625.39-.625.406-1.953v-1.781zm2.875 4.563q0-.282.156-.47.172-.187.5-.187.344 0 .516.188.171.187.171.469 0 .265-.171.453-.172.171-.516.171-.328 0-.5-.171-.156-.188-.156-.454zm8.218-3.079q0 1.907-.656 2.844-.64.922-2.031.922-1.36 0-2.016-.906-.656-.906-.687-2.719v-1.438q0-1.89.64-2.796.657-.922 2.047-.922 1.375 0 2.032.89.656.875.671 2.72v1.405zm-1.093-1.484q0-1.375-.39-2-.376-.64-1.22-.64-.828 0-1.218.64-.375.625-.375 1.922v1.734q0 1.375.39 2.047.406.656 1.219.656.797 0 1.188-.625.39-.625.406-1.953v-1.781zm2.64-1.766q0-.765.485-1.265.5-.5 1.265-.5.782 0 1.266.5t.484 1.297v.421q0 .766-.5 1.266-.484.484-1.234.484-.766 0-1.266-.484-.5-.5-.5-1.312v-.407zm.813.453q0 .454.25.75.265.297.703.297.422 0 .672-.28.25-.298.25-.798v-.422q0-.453-.25-.75-.25-.312-.688-.312-.437 0-.687.312-.25.297-.25.766v.438zm3.344 4.344q0-.765.484-1.25.5-.5 1.266-.5.765 0 1.25.5.5.485.5 1.297v.406q0 .766-.485 1.266-.484.5-1.25.5-.765 0-1.265-.484-.5-.5-.5-1.313v-.422zm.812.453q0 .47.25.766.266.297.703.297.422 0 .672-.281.25-.297.25-.797v-.438q0-.469-.266-.75-.25-.297-.671-.297-.422 0-.688.297-.25.281-.25.781v.422zm-2.953 1l-.625-.39 4.172-6.672.61.39-4.157 6.672zM27.628 384.59h-2.86v-.875h2.86v.875zm6.219 3.188h-5.594v-.781l2.953-3.282q.657-.75.906-1.203.25-.469.25-.969 0-.671-.406-1.093-.39-.438-1.078-.438-.797 0-1.25.469-.453.453-.453 1.281h-1.078q0-1.187.75-1.906.765-.734 2.031-.734 1.203 0 1.89.625.688.625.688 1.671 0 1.25-1.61 3l-2.28 2.47h4.28v.89zm6.765-3.64q0 1.905-.656 2.843-.64.922-2.031.922-1.36 0-2.016-.906-.656-.907-.687-2.72v-1.437q0-1.89.64-2.797.657-.921 2.047-.921 1.375 0 2.032.89.656.875.671 2.719v1.406zm-1.093-1.485q0-1.375-.39-2-.376-.64-1.22-.64-.828 0-1.218.64-.375.625-.375 1.922v1.734q0 1.375.39 2.047.406.656 1.219.656.797 0 1.188-.625.39-.625.406-1.953v-1.781zm2.875 4.562q0-.281.156-.468.172-.188.5-.188.344 0 .516.188.171.187.171.468 0 .266-.171.453-.172.172-.516.172-.328 0-.5-.172-.156-.187-.156-.453zm8.218-3.078q0 1.906-.656 2.844-.64.922-2.031.922-1.36 0-2.016-.906-.656-.907-.687-2.72v-1.437q0-1.89.64-2.797.657-.921 2.047-.921 1.375 0 2.032.89.656.875.671 2.719v1.406zm-1.093-1.484q0-1.375-.39-2-.376-.64-1.22-.64-.828 0-1.218.64-.375.625-.375 1.922v1.734q0 1.375.39 2.047.406.656 1.219.656.797 0 1.188-.625.39-.625.406-1.953v-1.781zm2.64-1.766q0-.765.485-1.265.5-.5 1.265-.5.782 0 1.266.5t.484 1.296v.422q0 .766-.5 1.266-.484.484-1.234.484-.766 0-1.266-.484-.5-.5-.5-1.313v-.406zm.813.453q0 .453.25.75.265.297.703.297.422 0 .672-.281.25-.297.25-.797v-.422q0-.453-.25-.75-.25-.312-.688-.312-.437 0-.687.312-.25.297-.25.766v.437zm3.344 4.344q0-.766.484-1.25.5-.5 1.266-.5.765 0 1.25.5.5.484.5 1.297v.406q0 .766-.485 1.266-.484.5-1.25.5-.765 0-1.265-.485-.5-.5-.5-1.312v-.422zm.812.453q0 .469.25.766.266.297.703.297.422 0 .672-.282.25-.296.25-.796v-.438q0-.469-.266-.75-.25-.297-.671-.297-.422 0-.688.297-.25.281-.25.781v.422zm-2.953 1l-.625-.39 4.172-6.672.61.39-4.157 6.672zm-26.547-64.719h-2.86v-.875h2.86v.875zm4.188 3.188h-1.078v-7.22l-2.188.798v-.985l3.11-1.172h.156v8.579zm8.796-3.641q0 1.906-.656 2.844-.64.922-2.031.922-1.36 0-2.016-.907-.656-.906-.687-2.718v-1.438q0-1.89.64-2.797.657-.922 2.047-.922 1.375 0 2.032.89.656.876.671 2.72v1.406zm-1.093-1.484q0-1.375-.39-2-.376-.641-1.22-.641-.828 0-1.218.64-.375.626-.375 1.922v1.735q0 1.375.39 2.047.406.656 1.219.656.797 0 1.188-.625.39-.625.406-1.953v-1.781zm2.875 4.562q0-.281.156-.469.172-.187.5-.187.344 0 .516.187.171.188.171.47 0 .265-.171.452-.172.172-.516.172-.328 0-.5-.172-.156-.187-.156-.453zm8.218-3.078q0 1.906-.656 2.844-.64.922-2.031.922-1.36 0-2.016-.907-.656-.906-.687-2.718v-1.438q0-1.89.64-2.797.657-.922 2.047-.922 1.375 0 2.032.89.656.876.671 2.72v1.406zm-1.093-1.484q0-1.375-.39-2-.376-.641-1.22-.641-.828 0-1.218.64-.375.626-.375 1.922v1.735q0 1.375.39 2.047.406.656 1.219.656.797 0 1.188-.625.39-.625.406-1.953v-1.781zm2.64-1.766q0-.766.485-1.266.5-.5 1.265-.5.782 0 1.266.5t.484 1.297v.422q0 .766-.5 1.266-.484.484-1.234.484-.766 0-1.266-.484-.5-.5-.5-1.313v-.406zm.813.453q0 .453.25.75.265.297.703.297.422 0 .672-.281.25-.297.25-.797v-.422q0-.453-.25-.75-.25-.313-.688-.313-.437 0-.687.313-.25.297-.25.766v.437zm3.344 4.344q0-.766.484-1.25.5-.5 1.266-.5.765 0 1.25.5.5.484.5 1.297v.406q0 .766-.485 1.266-.484.5-1.25.5-.765 0-1.265-.485-.5-.5-.5-1.312v-.422zm.812.453q0 .469.25.766.266.296.703.296.422 0 .672-.28.25-.298.25-.798v-.437q0-.469-.266-.75-.25-.297-.671-.297-.422 0-.688.297-.25.281-.25.781v.422zm-2.953 1l-.625-.39 4.172-6.673.61.391-4.157 6.672zm-13.563-65.172q0 1.906-.656 2.843-.64.922-2.031.922-1.36 0-2.016-.906-.656-.906-.687-2.719v-1.437q0-1.89.64-2.797.657-.922 2.047-.922 1.375 0 2.032.89.656.876.671 2.72v1.406zm-1.093-1.485q0-1.375-.39-2-.376-.64-1.22-.64-.828 0-1.218.64-.375.625-.375 1.922v1.735q0 1.375.39 2.046.406.657 1.219.657.797 0 1.188-.625.39-.625.406-1.953v-1.782zm2.875 4.563q0-.281.156-.469.172-.187.5-.187.344 0 .516.187.171.188.171.469 0 .265-.171.453-.172.172-.516.172-.328 0-.5-.172-.156-.188-.156-.453zm8.218-3.078q0 1.906-.656 2.843-.64.922-2.031.922-1.36 0-2.016-.906-.656-.906-.687-2.719v-1.437q0-1.89.64-2.797.657-.922 2.047-.922 1.375 0 2.032.89.656.876.671 2.72v1.406zm-1.093-1.485q0-1.375-.39-2-.376-.64-1.22-.64-.828 0-1.218.64-.375.625-.375 1.922v1.735q0 1.375.39 2.046.406.657 1.219.657.797 0 1.188-.625.39-.625.406-1.953v-1.782zm2.64-1.765q0-.766.485-1.266.5-.5 1.265-.5.782 0 1.266.5t.484 1.297v.422q0 .765-.5 1.265-.484.485-1.234.485-.766 0-1.266-.485-.5-.5-.5-1.312v-.406zm.813.453q0 .453.25.75.265.297.703.297.422 0 .672-.282.25-.296.25-.796v-.422q0-.453-.25-.75-.25-.313-.688-.313-.437 0-.687.313-.25.297-.25.765v.438zm3.344 4.344q0-.766.484-1.25.5-.5 1.266-.5.765 0 1.25.5.5.484.5 1.296v.407q0 .765-.485 1.265-.484.5-1.25.5-.765 0-1.265-.484-.5-.5-.5-1.313v-.421zm.812.453q0 .468.25.765.266.297.703.297.422 0 .672-.281.25-.297.25-.797v-.437q0-.47-.266-.75-.25-.297-.671-.297-.422 0-.688.297-.25.28-.25.78v.423zm-2.953 1l-.625-.39 4.172-6.673.61.39-4.157 6.673zm-22.359-61.532h-1.078v-7.219l-2.188.797v-.984l3.11-1.172h.156v8.578zm8.796-3.64q0 1.906-.656 2.843-.64.922-2.031.922-1.36 0-2.016-.906-.656-.906-.687-2.719v-1.437q0-1.891.64-2.797.657-.922 2.047-.922 1.375 0 2.032.89.656.875.671 2.72v1.405zm-1.093-1.485q0-1.375-.39-2-.376-.64-1.22-.64-.828 0-1.218.64-.375.625-.375 1.922v1.734q0 1.375.39 2.047.406.656 1.219.656.797 0 1.188-.625.39-.625.406-1.953v-1.78zm2.875 4.563q0-.282.156-.47.172-.187.5-.187.344 0 .516.188.171.187.171.469 0 .265-.171.453-.172.172-.516.172-.328 0-.5-.172-.156-.188-.156-.453zm8.218-3.079q0 1.907-.656 2.844-.64.922-2.031.922-1.36 0-2.016-.906-.656-.906-.687-2.719v-1.437q0-1.891.64-2.797.657-.922 2.047-.922 1.375 0 2.032.89.656.875.671 2.72v1.405zm-1.093-1.484q0-1.375-.39-2-.376-.64-1.22-.64-.828 0-1.218.64-.375.625-.375 1.922v1.734q0 1.375.39 2.047.406.656 1.219.656.797 0 1.188-.625.39-.625.406-1.953v-1.78zm2.64-1.766q0-.765.485-1.265.5-.5 1.265-.5.782 0 1.266.5t.484 1.297v.422q0 .765-.5 1.265-.484.485-1.234.485-.766 0-1.266-.485-.5-.5-.5-1.312v-.407zm.813.454q0 .453.25.75.265.296.703.296.422 0 .672-.28.25-.298.25-.798v-.422q0-.453-.25-.75-.25-.312-.688-.312-.437 0-.687.312-.25.297-.25.766v.438zm3.344 4.343q0-.765.484-1.25.5-.5 1.266-.5.765 0 1.25.5.5.485.5 1.297v.406q0 .766-.485 1.266-.484.5-1.25.5-.765 0-1.265-.484-.5-.5-.5-1.313v-.422zm.812.453q0 .47.25.766.266.297.703.297.422 0 .672-.281.25-.297.25-.797v-.438q0-.468-.266-.75-.25-.297-.671-.297-.422 0-.688.297-.25.282-.25.782v.421zm-2.953 1l-.625-.39 4.172-6.672.61.39-4.157 6.672zm-20.328-61.531h-5.594v-.781l2.953-3.282q.657-.75.906-1.203.25-.469.25-.969 0-.671-.406-1.093-.39-.438-1.078-.438-.797 0-1.25.469-.453.453-.453 1.281h-1.078q0-1.187.75-1.906.765-.734 2.031-.734 1.203 0 1.89.625.688.625.688 1.672 0 1.25-1.61 3l-2.28 2.468h4.28v.89zm6.765-3.64q0 1.905-.656 2.843-.64.922-2.031.922-1.36 0-2.016-.906-.656-.907-.687-2.72v-1.437q0-1.89.64-2.797.657-.921 2.047-.921 1.375 0 2.032.89.656.875.671 2.719v1.406zm-1.093-1.485q0-1.375-.39-2-.376-.64-1.22-.64-.828 0-1.218.64-.375.625-.375 1.922v1.734q0 1.375.39 2.047.406.656 1.219.656.797 0 1.188-.625.39-.625.406-1.953v-1.781zm2.875 4.562q0-.28.156-.468.172-.188.5-.188.344 0 .516.188.171.187.171.468 0 .266-.171.453-.172.172-.516.172-.328 0-.5-.172-.156-.187-.156-.453zm8.218-3.078q0 1.906-.656 2.844-.64.922-2.031.922-1.36 0-2.016-.906-.656-.907-.687-2.72v-1.437q0-1.89.64-2.797.657-.921 2.047-.921 1.375 0 2.032.89.656.875.671 2.719v1.406zm-1.093-1.484q0-1.375-.39-2-.376-.64-1.22-.64-.828 0-1.218.64-.375.625-.375 1.922v1.734q0 1.375.39 2.047.406.656 1.219.656.797 0 1.188-.625.39-.625.406-1.953v-1.781zm2.64-1.766q0-.765.485-1.265.5-.5 1.265-.5.782 0 1.266.5t.484 1.297v.421q0 .766-.5 1.266-.484.484-1.234.484-.766 0-1.266-.484-.5-.5-.5-1.313v-.406zm.813.453q0 .453.25.75.265.297.703.297.422 0 .672-.281.25-.297.25-.797v-.422q0-.453-.25-.75-.25-.312-.688-.312-.437 0-.687.312-.25.297-.25.766v.437zm3.344 4.344q0-.766.484-1.25.5-.5 1.266-.5.765 0 1.25.5.5.484.5 1.297v.406q0 .766-.485 1.266-.484.5-1.25.5-.765 0-1.265-.484-.5-.5-.5-1.313v-.422zm.812.453q0 .469.25.766.266.297.703.297.422 0 .672-.281.25-.297.25-.797v-.438q0-.469-.266-.75-.25-.297-.671-.297-.422 0-.688.297-.25.281-.25.781v.422zm-2.953 1l-.625-.39 4.172-6.672.61.39-4.157 6.672zM29.831 72.12h.813q.781-.016 1.219-.406.437-.391.437-1.063 0-1.5-1.5-1.5-.703 0-1.125.406-.406.407-.406 1.063h-1.094q0-1.016.734-1.688.75-.672 1.891-.672 1.203 0 1.89.641.688.64.688 1.781 0 .563-.36 1.078-.359.516-.984.782.703.218 1.078.734.391.516.391 1.266 0 1.14-.75 1.828-.75.672-1.953.672-1.188 0-1.953-.657-.75-.656-.75-1.718h1.094q0 .672.437 1.078.438.406 1.188.406.78 0 1.187-.406.422-.422.422-1.188 0-.734-.453-1.125-.453-.406-1.328-.422h-.813v-.89zm10.781 1.156q0 1.906-.656 2.844-.64.922-2.031.922-1.36 0-2.016-.907-.656-.906-.687-2.718v-1.438q0-1.89.64-2.797.657-.922 2.047-.922 1.375 0 2.032.891.656.875.671 2.719v1.406zm-1.093-1.484q0-1.375-.39-2-.376-.641-1.22-.641-.828 0-1.218.64-.375.626-.375 1.923v1.734q0 1.375.39 2.047.406.656 1.219.656.797 0 1.188-.625.39-.625.406-1.953v-1.781zm2.875 4.562q0-.281.156-.469.172-.187.5-.187.344 0 .516.187.171.188.171.47 0 .265-.171.452-.172.172-.516.172-.328 0-.5-.172-.156-.187-.156-.453zm8.218-3.078q0 1.906-.656 2.844-.64.922-2.031.922-1.36 0-2.016-.907-.656-.906-.687-2.718v-1.438q0-1.89.64-2.797.657-.922 2.047-.922 1.375 0 2.032.891.656.875.671 2.719v1.406zm-1.093-1.484q0-1.375-.39-2-.376-.641-1.22-.641-.828 0-1.218.64-.375.626-.375 1.923v1.734q0 1.375.39 2.047.406.656 1.219.656.797 0 1.188-.625.39-.625.406-1.953v-1.781zm2.64-1.766q0-.766.485-1.266.5-.5 1.265-.5.782 0 1.266.5t.484 1.297v.422q0 .766-.5 1.266-.484.484-1.234.484-.766 0-1.266-.484-.5-.5-.5-1.313v-.406zm.813.453q0 .453.25.75.265.297.703.297.422 0 .672-.281.25-.297.25-.797v-.422q0-.453-.25-.75-.25-.312-.688-.312-.437 0-.687.312-.25.297-.25.766v.437zm3.344 4.344q0-.766.484-1.25.5-.5 1.266-.5.765 0 1.25.5.5.484.5 1.297v.406q0 .766-.485 1.266-.484.5-1.25.5-.765 0-1.265-.485-.5-.5-.5-1.312v-.422zm.812.453q0 .469.25.766.266.297.703.297.422 0 .672-.282.25-.297.25-.797v-.437q0-.469-.266-.75-.25-.297-.671-.297-.422 0-.688.297-.25.281-.25.781v.422zm-2.953 1l-.625-.39 4.172-6.672.61.39-4.157 6.672zM95.866 463.45h-1.079v-7.219l-2.187.797v-.984l3.11-1.172h.156v8.578zm5.812-3.188h-2.86v-.875h2.86v.875zm4.484-5.343h1.141v6.047q0 1.218-.75 1.921-.734.688-1.953.688-1.266 0-1.984-.656-.704-.656-.704-1.828h1.125q0 .734.391 1.156.406.406 1.172.406.703 0 1.125-.437.437-.454.437-1.235v-6.062zm7.172 7.906q-.625.75-1.86.75-1.015 0-1.546-.594-.531-.594-.531-1.75v-4.125h1.078v4.094q0 1.453 1.172 1.453 1.25 0 1.656-.937v-4.61h1.094v6.344h-1.031l-.032-.625zm4.266.625h-1.078v-9h1.078v9zm4.078-3.188h-2.86v-.875h2.86v.875zm6.219 3.188h-5.594v-.781l2.953-3.281q.656-.75.906-1.204.25-.468.25-.968 0-.672-.406-1.094-.39-.438-1.078-.438-.797 0-1.25.47-.453.452-.453 1.28h-1.078q0-1.187.75-1.906.765-.734 2.031-.734 1.203 0 1.89.625.688.625.688 1.672 0 1.25-1.61 3l-2.28 2.468h4.28v.891zm6.765-3.64q0 1.906-.656 2.843-.64.922-2.031.922-1.36 0-2.016-.906-.656-.906-.687-2.719v-1.438q0-1.89.64-2.796.657-.922 2.047-.922 1.375 0 2.032.89.656.875.671 2.72v1.405zm-1.093-1.485q0-1.375-.391-2-.375-.64-1.219-.64-.828 0-1.218.64-.375.625-.375 1.922v1.734q0 1.375.39 2.047.406.656 1.219.656.797 0 1.187-.625.391-.625.407-1.953v-1.781zm6.297 5.125h-1.079v-7.219l-2.187.797v-.984l3.11-1.172h.156v8.578zm8.625-6.313q0 .641-.344 1.141t-.906.781q.656.282 1.046.844.391.547.391 1.25 0 1.094-.75 1.766-.734.656-1.953.656-1.234 0-1.984-.656-.735-.672-.735-1.766 0-.703.375-1.25.375-.562 1.047-.844-.562-.28-.89-.78-.329-.5-.329-1.142 0-1.078.688-1.703.687-.64 1.828-.64 1.125 0 1.812.64.704.625.704 1.703zm-.891 3.985q0-.719-.453-1.156-.453-.454-1.188-.454-.734 0-1.187.454-.438.437-.438 1.171 0 .72.438 1.141.437.406 1.203.406.75 0 1.187-.422.438-.421.438-1.14zm-1.625-5.438q-.64 0-1.047.407-.39.39-.39 1.078 0 .64.39 1.047.39.406 1.031.406.657 0 1.047-.406.39-.407.39-1.047 0-.656-.405-1.063-.407-.422-1.016-.422zm110.926 7.766h-1.078v-7.219l-2.187.797v-.984l3.11-1.172h.155v8.578zm5.813-3.188h-2.86v-.875h2.86v.875zm4.484-5.343h1.14v6.047q0 1.218-.75 1.921-.733.688-1.952.688-1.266 0-1.985-.656-.703-.656-.703-1.828h1.125q0 .734.39 1.156.407.406 1.173.406.703 0 1.125-.437.437-.454.437-1.235v-6.062zm7.172 8.531q-.094-.188-.156-.672-.75.797-1.797.797-.937 0-1.547-.531-.594-.531-.594-1.36 0-.984.75-1.53.75-.548 2.125-.548h1.047v-.5q0-.562-.343-.89-.329-.344-1-.344-.579 0-.97.297-.39.281-.39.703h-1.094q0-.485.329-.922.343-.438.921-.688.579-.265 1.266-.265 1.11 0 1.719.547.625.547.656 1.5v2.922q0 .875.219 1.39v.094h-1.14zm-1.797-.828q.516 0 .969-.266.453-.265.656-.687v-1.297h-.843q-2 0-2 1.172 0 .5.343.797.344.28.875.28zm5.907-5.516l.03.797q.735-.906 1.907-.906 2.016 0 2.031 2.265v4.188h-1.093v-4.203q0-.672-.313-1-.297-.328-.953-.328-.531 0-.938.281-.39.281-.609.734v4.516h-1.078v-6.344h1.016zm8.234 3.156h-2.86v-.875h2.86v.875zm6.219 3.188h-5.594v-.781l2.953-3.281q.656-.75.906-1.204.25-.468.25-.968 0-.672-.406-1.094-.39-.438-1.078-.438-.797 0-1.25.47-.453.452-.453 1.28h-1.078q0-1.187.75-1.906.765-.734 2.03-.734 1.204 0 1.892.625.687.625.687 1.672 0 1.25-1.61 3l-2.28 2.468h4.28v.891zm6.765-3.64q0 1.906-.656 2.843-.64.922-2.031.922-1.36 0-2.016-.906-.656-.906-.687-2.719v-1.438q0-1.89.64-2.796.657-.922 2.047-.922 1.375 0 2.031.89.657.875.672 2.72v1.405zm-1.093-1.485q0-1.375-.391-2-.375-.64-1.219-.64-.828 0-1.219.64-.375.625-.375 1.922v1.734q0 1.375.391 2.047.406.656 1.219.656.797 0 1.187-.625t.407-1.953v-1.781zm6.296 5.125h-1.078v-7.219l-2.187.797v-.984l3.11-1.172h.155v8.578zm7.594-3.75q-.328.406-.812.656-.47.235-1.032.235-.734 0-1.28-.36-.548-.36-.845-1.015-.296-.672-.296-1.47 0-.843.312-1.53.328-.688.922-1.047.61-.375 1.406-.375 1.266 0 1.985.953.734.953.734 2.578v.313q0 2.5-.984 3.64-.985 1.14-2.97 1.172h-.218v-.906h.234q1.344-.031 2.063-.703.719-.672.781-2.141zm-1.672 0q.547 0 1-.328.469-.344.688-.828v-.438q0-1.062-.469-1.734-.469-.672-1.172-.672-.719 0-1.156.547-.422.547-.422 1.453 0 .875.406 1.438.422.562 1.125.562zm108.457 3.75h-1.08v-7.219l-2.187.797v-.984l3.11-1.172h.156v8.578zm5.812-3.188h-2.86v-.875h2.86v.875zm4.484-5.343h1.14v6.047q0 1.218-.75 1.921-.734.688-1.953.688-1.265 0-1.984-.656-.703-.656-.703-1.828h1.125q0 .734.39 1.156.407.406 1.172.406.704 0 1.125-.437.438-.454.438-1.235v-6.062zm7.172 7.906q-.625.75-1.86.75-1.015 0-1.546-.594-.532-.594-.532-1.75v-4.125h1.078v4.094q0 1.453 1.172 1.453 1.25 0 1.657-.937v-4.61h1.093v6.344h-1.031l-.031-.625zm4.265.625h-1.078v-9h1.078v9zm4.079-3.188h-2.86v-.875h2.86v.875zm6.218 3.188h-5.593v-.781l2.953-3.281q.656-.75.906-1.204.25-.468.25-.968 0-.672-.406-1.094-.391-.438-1.078-.438-.797 0-1.25.47-.454.452-.454 1.28h-1.078q0-1.187.75-1.906.766-.734 2.032-.734 1.203 0 1.89.625.688.625.688 1.672 0 1.25-1.61 3l-2.281 2.468h4.281v.891zm6.766-3.64q0 1.906-.656 2.843-.641.922-2.032.922-1.359 0-2.015-.906-.656-.906-.688-2.719v-1.438q0-1.89.64-2.796.657-.922 2.048-.922 1.375 0 2.031.89.656.875.672 2.72v1.405zm-1.094-1.485q0-1.375-.39-2-.375-.64-1.22-.64-.827 0-1.218.64-.375.625-.375 1.922v1.734q0 1.375.39 2.047.407.656 1.22.656.796 0 1.187-.625.39-.625.406-1.953v-1.781zm6.297 5.125h-1.078v-7.219l-2.188.797v-.984l3.11-1.172h.156v8.578zm7.594-3.75q-.328.406-.813.656-.468.235-1.031.235-.734 0-1.281-.36-.547-.36-.844-1.015-.297-.672-.297-1.47 0-.843.313-1.53.328-.688.922-1.047.609-.375 1.406-.375 1.265 0 1.984.953.735.953.735 2.578v.313q0 2.5-.985 3.64-.984 1.14-2.969 1.172h-.218v-.906h.234q1.344-.031 2.063-.703.718-.672.78-2.141zm-1.672 0q.547 0 1-.328.469-.344.687-.828v-.438q0-1.062-.468-1.734-.47-.672-1.172-.672-.719 0-1.156.547-.422.547-.422 1.453 0 .875.406 1.438.422.562 1.125.562zm111.114 3.75h-1.078v-7.219l-2.188.797v-.984l3.11-1.172h.156v8.578zm5.812-3.188h-2.859v-.875h2.86v.875zm4.485-5.343h1.14v6.047q0 1.218-.75 1.921-.734.688-1.953.688-1.265 0-1.984-.656-.703-.656-.703-1.828h1.125q0 .734.39 1.156.407.406 1.172.406.703 0 1.125-.437.438-.454.438-1.235v-6.062zm7.172 8.531q-.094-.188-.157-.672-.75.797-1.796.797-.938 0-1.547-.531-.594-.531-.594-1.36 0-.984.75-1.53.75-.548 2.125-.548h1.047v-.5q0-.562-.344-.89-.328-.344-1-.344-.578 0-.969.297-.39.281-.39.703h-1.094q0-.485.328-.922.344-.438.922-.688.578-.265 1.265-.265 1.11 0 1.72.547.624.547.656 1.5v2.922q0 .875.218 1.39v.094h-1.14zm-1.797-.828q.515 0 .969-.266.453-.265.656-.687v-1.297h-.844q-2 0-2 1.172 0 .5.344.797.344.28.875.28zm5.906-5.516l.031.797q.735-.906 1.907-.906 2.015 0 2.03 2.265v4.188h-1.093v-4.203q0-.672-.313-1-.296-.328-.953-.328-.53 0-.937.281-.39.281-.61.734v4.516h-1.078v-6.344h1.016zm8.234 3.156h-2.859v-.875h2.86v.875zm6.22 3.188h-5.595v-.781l2.954-3.281q.656-.75.906-1.204.25-.468.25-.968 0-.672-.406-1.094-.391-.438-1.079-.438-.796 0-1.25.47-.453.452-.453 1.28h-1.078q0-1.187.75-1.906.766-.734 2.031-.734 1.204 0 1.891.625.688.625.688 1.672 0 1.25-1.61 3l-2.281 2.468h4.281v.891zm6.765-3.64q0 1.906-.656 2.843-.641.922-2.032.922-1.36 0-2.015-.906-.657-.906-.688-2.719v-1.438q0-1.89.64-2.796.657-.922 2.048-.922 1.375 0 2.03.89.657.875.673 2.72v1.405zm-1.094-1.485q0-1.375-.39-2-.376-.64-1.22-.64-.827 0-1.218.64-.375.625-.375 1.922v1.734q0 1.375.39 2.047.407.656 1.22.656.796 0 1.187-.625.39-.625.406-1.953v-1.781zm8.328 5.125h-5.594v-.781l2.954-3.281q.656-.75.906-1.204.25-.468.25-.968 0-.672-.406-1.094-.391-.438-1.079-.438-.796 0-1.25.47-.453.452-.453 1.28h-1.078q0-1.187.75-1.906.766-.734 2.031-.734 1.204 0 1.891.625.688.625.688 1.672 0 1.25-1.61 3l-2.281 2.468h4.281v.891zm6.766-3.64q0 1.906-.656 2.843-.641.922-2.032.922-1.36 0-2.015-.906-.657-.906-.688-2.719v-1.438q0-1.89.64-2.796.657-.922 2.048-.922 1.375 0 2.03.89.657.875.673 2.72v1.405zm-1.094-1.485q0-1.375-.39-2-.376-.64-1.22-.64-.827 0-1.218.64-.375.625-.375 1.922v1.734q0 1.375.39 2.047.407.656 1.22.656.796 0 1.187-.625.39-.625.406-1.953v-1.781z"/><path stroke="#4285f4" stroke-width="4" stroke-linecap="butt" d="M714.45 72.417h12"/><path fill="#757575" d="M735.434 76.917v-8.532h2.422q1.11 0 1.953.5.86.485 1.329 1.391.468.906.468 2.094v.531q0 1.219-.468 2.125-.454.906-1.329 1.39-.859.485-2 .5h-2.375zm1.125-7.61v6.688h1.188q1.297 0 2.016-.797.734-.813.734-2.313v-.5q0-1.453-.688-2.25-.671-.812-1.937-.828h-1.313zm6.875 7.61v-8.532h2.797q1.39 0 2.078.579.704.562.704 1.687 0 .61-.344 1.078-.328.453-.922.703.703.188 1.094.735.406.53.406 1.28 0 1.157-.75 1.813-.734.657-2.094.657h-2.969zm1.125-3.985v3.063h1.86q.797 0 1.25-.406.453-.407.453-1.125 0-1.532-1.688-1.532h-1.875zm0-.906h1.704q.734 0 1.171-.36.454-.374.454-1.015 0-.703-.407-1.016-.406-.328-1.25-.328h-1.672v2.719zm6.72 3.969h4.89v.922h-6.219v-.844l4.688-6.766h-4.61v-.922h5.953v.829l-4.703 6.78zm6.155.922v-8.532h2.797q1.39 0 2.078.579.704.562.704 1.687 0 .61-.344 1.078-.328.453-.922.703.703.188 1.094.735.406.53.406 1.28 0 1.157-.75 1.813-.734.657-2.094.657h-2.969zm1.125-3.985v3.063h1.86q.797 0 1.25-.406.453-.407.453-1.125 0-1.532-1.688-1.532h-1.875zm0-.906h1.704q.734 0 1.171-.36.454-.374.454-1.015 0-.703-.407-1.016-.406-.328-1.25-.328h-1.672v2.719z"/><path stroke="#db4437" stroke-width="4" stroke-linecap="butt" d="M714.45 97.417h12"/><path fill="#757575" d="M736.653 101.917h-1.125v-8.532h1.125v8.532zm3.625-2.688l.172 1.125.234-1.015 1.688-5.954h.953l1.64 5.954.235 1.03.188-1.155 1.328-5.829h1.125l-2.063 8.532h-1.031l-1.766-6.22-.125-.655-.14.656-1.813 6.219h-1.031l-2.063-8.532h1.125l1.344 5.844zm9.156 2.688v-8.532h2.422q1.11 0 1.953.5.86.485 1.329 1.391.468.906.468 2.094v.531q0 1.219-.468 2.125-.454.906-1.329 1.39-.859.485-2 .5h-2.375zm1.125-7.61v6.688h1.188q1.297 0 2.016-.797.734-.813.734-2.313v-.5q0-1.453-.688-2.25-.671-.812-1.937-.828h-1.313zm11.594 5.375h-3.578l-.797 2.235h-1.156l3.25-8.532h.984l3.266 8.532h-1.156l-.813-2.235zm-3.234-.922h2.906l-1.453-3.984-1.453 3.984z"/><path stroke="#f4b400" stroke-width="4" stroke-linecap="butt" d="M714.45 122.417h12"/><path fill="#757575" d="M736.653 126.917h-1.125v-8.532h1.125v8.532zm7.797-8.532v5.797q-.016 1.203-.766 1.985-.75.765-2.03.859l-.313.016q-1.391 0-2.235-.75-.828-.766-.828-2.094v-5.813h1.11v5.782q0 .922.5 1.437.515.516 1.453.516.968 0 1.468-.516.5-.515.5-1.437v-5.782h1.141zm4.5 4.735q-1.438-.422-2.11-1.031-.656-.61-.656-1.5 0-1 .797-1.657.813-.672 2.11-.672.875 0 1.562.344.688.344 1.063.938.39.593.39 1.312h-1.14q0-.781-.5-1.219-.485-.437-1.375-.437-.828 0-1.297.375-.469.36-.469 1 0 .531.438.89.453.36 1.515.657 1.063.297 1.656.656.61.36.891.844.297.484.297 1.125 0 1.047-.813 1.672-.812.625-2.156.625-.89 0-1.656-.344-.75-.344-1.172-.922-.406-.594-.406-1.328h1.125q0 .766.578 1.219.578.453 1.531.453.89 0 1.36-.36.468-.375.468-1t-.437-.968q-.438-.344-1.594-.672zm11.047 3.797h-1.125l-4.297-6.578v6.578h-1.14v-8.532h1.14l4.297 6.61v-6.61h1.125v8.532z"/><path stroke="#0f9d58" stroke-width="4" stroke-linecap="butt" d="M714.45 147.417h12"/><path fill="#757575" d="M738.231 146.651l2.032-3.266h1.328l-2.688 4.235 2.75 4.297h-1.328l-2.094-3.328-2.11 3.328h-1.343l2.766-4.297-2.688-4.235h1.313l2.062 3.266zm6.657-3.266l2.796 6.954 2.782-6.954h1.468v8.532h-1.125v-3.328l.11-3.579-2.813 6.907h-.86l-2.796-6.891.11 3.563v3.328h-1.126v-8.532h1.454zm10 0l2.796 6.954 2.782-6.954h1.468v8.532h-1.125v-3.328l.11-3.579-2.813 6.907h-.86l-2.796-6.891.11 3.563v3.328h-1.126v-8.532h1.454zm13.375 4.594h-3.704v3.016h4.297v.922h-5.422v-8.532h5.375v.922h-4.25v2.75h3.704v.922z"/><path stroke="#ff6d00" stroke-width="4" stroke-linecap="butt" d="M714.45 172.417h12"/><path fill="#757575" d="M740.263 172.98h-3.704v3.015h4.297v.922h-5.422v-8.532h5.375v.922h-4.25v2.75h3.704v.922zm3.296.593v3.344h-1.125v-8.532h3.157q1.39 0 2.187.72.797.702.797 1.89 0 1.234-.781 1.906-.766.672-2.219.672h-2.016zm0-.922h2.032q.906 0 1.375-.422.484-.422.484-1.219 0-.765-.484-1.218-.47-.47-1.313-.485h-2.094v3.344zm10.016.813h-2.016v3.453h-1.125v-8.532h2.829q1.437 0 2.203.657.78.656.78 1.906 0 .797-.437 1.39-.421.594-1.187.891l2 3.61v.078h-1.203l-1.844-3.453zm-2.016-.922h1.735q.844 0 1.328-.422.5-.438.5-1.172 0-.781-.469-1.203-.469-.422-1.36-.438h-1.734v3.235zm10.594 2.14h-3.578l-.797 2.235h-1.156l3.25-8.532h.984l3.266 8.532h-1.156l-.813-2.235zm-3.234-.922h2.906l-1.453-3.984-1.453 3.984zM28.081 37.987v5.563h-1.875V29.331h5.235q2.343 0 3.656 1.188 1.328 1.187 1.328 3.156 0 2.078-1.297 3.203-1.297 1.11-3.703 1.11h-3.344zm0-1.53h3.36q1.515 0 2.312-.704.797-.719.797-2.062 0-1.266-.797-2.016-.797-.766-2.203-.797h-3.469v5.578zM43.3 43.752q-2.14 0-3.5-1.406-1.344-1.422-1.344-3.781v-.344q0-1.563.594-2.797.61-1.234 1.688-1.938 1.078-.703 2.343-.703 2.063 0 3.203 1.36 1.141 1.36 1.141 3.89v.75h-7.156q.031 1.563.906 2.532.875.953 2.219.953.968 0 1.625-.39.672-.392 1.172-1.032l1.093.86q-1.328 2.046-3.984 2.046zm-.219-9.484q-1.094 0-1.844.797-.734.796-.906 2.234h5.281v-.14q-.078-1.376-.75-2.126-.656-.765-1.78-.765zm11.938.328q-.407-.063-.875-.063-1.782 0-2.422 1.516v7.5h-1.797V32.987h1.75l.031 1.22q.89-1.423 2.516-1.423.531 0 .797.141v1.672zM57.8 43.55v-9.172h-1.656v-1.39H57.8v-1.094q0-1.688.906-2.61.922-.937 2.578-.937.625 0 1.235.156l-.094 1.469q-.453-.078-.969-.078-.89 0-1.375.515-.469.5-.469 1.454v1.124h2.25v1.391h-2.25v9.172H57.8zm5.64-5.375q0-1.563.61-2.797.61-1.25 1.688-1.922 1.093-.672 2.5-.672 2.156 0 3.484 1.5 1.344 1.485 1.344 3.97v.124q0 1.547-.594 2.781-.594 1.22-1.703 1.907-1.094.687-2.516.687-2.14 0-3.484-1.5-1.328-1.5-1.328-3.953v-.125zm1.813.203q0 1.766.813 2.828.828 1.063 2.187 1.063 1.375 0 2.188-1.078.812-1.079.812-3.016 0-1.75-.828-2.828-.828-1.078-2.188-1.078-1.343 0-2.171 1.062-.813 1.063-.813 3.047zm14.766-3.781q-.407-.063-.875-.063-1.782 0-2.422 1.516v7.5h-1.797V32.987h1.75l.031 1.22q.89-1.423 2.516-1.423.531 0 .797.141v1.672zm3.593-1.61l.047 1.172q1.172-1.375 3.141-1.375 2.219 0 3.016 1.703.53-.765 1.375-1.234.843-.469 2-.469 3.468 0 3.53 3.688v7.078H94.91v-6.969q0-1.14-.515-1.703-.516-.562-1.735-.562-1 0-1.672.609-.656.594-.765 1.61v7.015H88.41v-6.922q0-2.312-2.265-2.312-1.782 0-2.422 1.515v7.719H81.91V32.987h1.703zm22.829 10.563q-.157-.313-.25-1.11-1.266 1.313-3.016 1.313-1.563 0-2.563-.89-1-.891-1-2.25 0-1.641 1.25-2.547 1.266-.922 3.532-.922h1.765v-.828q0-.954-.578-1.516-.562-.563-1.656-.563-.969 0-1.625.5-.656.485-.656 1.172H99.83q0-.78.563-1.515.562-.75 1.515-1.172.97-.438 2.125-.438 1.828 0 2.86.922 1.031.906 1.078 2.516v4.86q0 1.452.36 2.312v.156h-1.891zm-3-1.375q.859 0 1.609-.438.766-.437 1.11-1.14v-2.172h-1.422q-3.313 0-3.313 1.938 0 .859.563 1.343.562.469 1.453.469zm9.187-9.188l.063 1.329q1.203-1.532 3.156-1.532 3.36 0 3.375 3.782v6.984h-1.797v-7q-.016-1.14-.531-1.688-.5-.546-1.594-.546-.875 0-1.547.468-.656.47-1.031 1.235v7.531h-1.797V32.987h1.703zm13.531 9.282q.97 0 1.688-.578.719-.594.797-1.47h1.719q-.063.907-.641 1.735-.563.813-1.531 1.313-.954.484-2.032.484-2.156 0-3.437-1.437-1.266-1.454-1.266-3.954v-.296q0-1.547.563-2.75.562-1.204 1.625-1.86 1.062-.672 2.5-.672 1.781 0 2.953 1.063 1.187 1.062 1.266 2.765h-1.72q-.077-1.015-.78-1.671-.688-.672-1.72-.672-1.374 0-2.14 1-.75.984-.75 2.86v.343q0 1.828.75 2.812.75.985 2.156.985zm10.141 1.484q-2.14 0-3.5-1.406-1.344-1.422-1.344-3.781v-.344q0-1.563.594-2.797.61-1.234 1.688-1.938 1.078-.703 2.343-.703 2.063 0 3.203 1.36 1.141 1.36 1.141 3.89v.75h-7.156q.031 1.563.906 2.532.875.953 2.219.953.969 0 1.625-.39.672-.392 1.172-1.032l1.093.86q-1.328 2.046-3.984 2.046zm-.219-9.484q-1.093 0-1.843.797-.735.796-.907 2.234h5.282v-.14q-.079-1.376-.75-2.126-.657-.765-1.782-.765zm20.766 4.11q0 2.421-1.11 3.905-1.093 1.47-2.984 1.47-1.922 0-3.031-1.235v5.093h-1.797V32.987h1.64l.094 1.172q1.094-1.375 3.063-1.375 1.906 0 3.016 1.438 1.109 1.437 1.109 4v.156zm-1.813-.204q0-1.781-.765-2.813-.75-1.046-2.078-1.046-1.641 0-2.47 1.453v5.062q.813 1.438 2.485 1.438 1.297 0 2.063-1.032.765-1.03.765-3.062zm8.266 5.578q-2.14 0-3.5-1.406-1.344-1.422-1.344-3.781v-.344q0-1.563.594-2.797.61-1.234 1.688-1.938 1.078-.703 2.343-.703 2.063 0 3.203 1.36 1.141 1.36 1.141 3.89v.75h-7.156q.031 1.563.906 2.532.875.953 2.219.953.969 0 1.625-.39.672-.392 1.172-1.032l1.093.86q-1.328 2.046-3.984 2.046zm-.219-9.484q-1.093 0-1.843.797-.735.796-.907 2.234h5.282v-.14q-.079-1.376-.75-2.126-.657-.765-1.782-.765zm11.938.328q-.406-.063-.875-.063-1.781 0-2.422 1.516v7.5h-1.797V32.987h1.75l.031 1.22q.89-1.423 2.516-1.423.531 0 .797.141v1.672zm13.422 8.953q-.157-.313-.25-1.11-1.266 1.313-3.016 1.313-1.563 0-2.563-.89-1-.891-1-2.25 0-1.641 1.25-2.547 1.266-.922 3.532-.922h1.765v-.828q0-.954-.578-1.516-.562-.563-1.656-.563-.969 0-1.625.5-.656.485-.656 1.172h-1.813q0-.78.563-1.515.562-.75 1.515-1.172.97-.438 2.125-.438 1.829 0 2.86.922 1.031.906 1.078 2.516v4.86q0 1.452.36 2.312v.156h-1.891zm-3-1.375q.859 0 1.609-.438.766-.437 1.11-1.14v-2.172h-1.422q-3.313 0-3.313 1.938 0 .859.563 1.343.562.469 1.453.469zm13.625-1.422q0-.734-.547-1.14-.547-.407-1.922-.704t-2.188-.703q-.796-.406-1.187-.969-.375-.578-.375-1.359 0-1.297 1.094-2.187 1.093-.907 2.812-.907 1.797 0 2.906.938 1.125.922 1.125 2.36h-1.828q0-.735-.625-1.266-.625-.547-1.578-.547-1 0-1.562.437-.547.422-.547 1.125 0 .64.515.985.516.328 1.875.64 1.36.297 2.188.719.844.406 1.25 1t.406 1.438q0 1.421-1.14 2.28-1.125.86-2.938.86-1.266 0-2.25-.453-.969-.453-1.531-1.25-.547-.813-.547-1.75h1.812q.047.906.72 1.438.687.53 1.796.53 1.031 0 1.64-.406.626-.421.626-1.109zm10 0q0-.734-.547-1.14-.547-.407-1.922-.704t-2.188-.703q-.796-.406-1.187-.969-.375-.578-.375-1.359 0-1.297 1.094-2.187 1.093-.907 2.812-.907 1.797 0 2.906.938 1.125.922 1.125 2.36h-1.828q0-.735-.625-1.266-.625-.547-1.578-.547-1 0-1.562.437-.547.422-.547 1.125 0 .64.515.985.516.328 1.875.64 1.36.297 2.188.719.844.406 1.25 1t.406 1.438q0 1.421-1.14 2.28-1.125.86-2.938.86-1.266 0-2.25-.453-.969-.453-1.531-1.25-.547-.813-.547-1.75h1.812q.047.906.72 1.438.687.53 1.796.53 1.031 0 1.64-.406.626-.421.626-1.109zm8.234 3q-2.14 0-3.5-1.406-1.344-1.422-1.344-3.781v-.344q0-1.563.594-2.797.61-1.234 1.688-1.938 1.078-.703 2.343-.703 2.063 0 3.203 1.36 1.141 1.36 1.141 3.89v.75h-7.156q.031 1.563.906 2.532.875.953 2.219.953.969 0 1.625-.39.672-.392 1.172-1.032l1.093.86q-1.328 2.046-3.984 2.046zm-.219-9.484q-1.093 0-1.843.797-.735.796-.907 2.234h5.282v-.14q-.079-1.376-.75-2.126-.657-.765-1.782-.765zm9.282-3.844v2.562h1.984v1.391h-1.984v6.547q0 .64.265.969.266.312.906.312.313 0 .86-.125v1.469q-.719.203-1.39.203-1.204 0-1.829-.734-.61-.735-.61-2.094v-6.547h-1.921v-1.39h1.922v-2.563h1.797z"/></svg>