<svg fill="none" stroke-linecap="square" stroke-miterlimit="10" width="794" height="491" xmlns="http://www.w3.org/2000/svg"><path fill="#fff" d="M0 0h794v491H0V0z"/><path stroke="#ccc" stroke-linecap="butt" d="M114.5 72.5v373M258.5 72.5v373M400.5 72.5v373M544.5 72.5v373M687.5 72.5v373M66.5 445.5h621M66.5 370.5h621"/><path stroke="#333" stroke-linecap="butt" d="M66.5 296.5h621"/><path stroke="#ccc" stroke-linecap="butt" d="M66.5 221.5h621M66.5 147.5h621M66.5 72.5h621"/><clipPath id="a"><path d="M66.55 72.417h621.131V445.45H66.55V72.417z"/></clipPath><path stroke="#4285f4" stroke-width="2" stroke-linecap="butt" clip-path="url(#a)" d="M424.955 296.237s16.47-18.463 24.312-20.469c7.843-2.005 15.685 5.712 23.528 7.775 7.842 2.064 16.47 3.12 24.312 4.76 7.842 1.64 15.685 3.647 23.527 5.236 7.843 1.59 16.208 6.215 24.312 4.443 8.104-1.772 16.731-11.539 24.312-15.074 7.582-3.535 15.163-5.879 22.744-7.108 7.581-1.23 16.47 1.014 24.312-.286 7.842-1.3 15.685-6.636 23.528-7.52 7.842-.886 16.469 2.249 24.311 2.284 7.843.036 23.528-1.999 23.528-1.999"/><path stroke="#db4437" stroke-width="2" stroke-linecap="butt" clip-path="url(#a)" d="M66.55 296.237s16.47-22.35 24.312-26.977c7.843-4.626 15.685 1.664 23.528-1.655 7.842-3.318 16.208-13.102 24.312-18.866 8.104-5.765 16.469-12.277 24.312-15.723 7.842-3.446 15.685-10.957 23.527-5.461 7.843 5.496 16.47 33.865 24.312 39.72 7.843 5.854 15.685-12.715 23.528-3.31 7.842 9.404 16.208 60.269 24.312 61.73 8.104 1.462 16.992-39.911 24.312-52.96 7.32-13.047 14.64-22.386 21.959-30.45 7.32-8.066 16.47-11.665 24.312-19.86 7.842-8.196 15.685-31.503 23.528-29.956 7.842 1.548 16.469 39.248 24.312 40.547 7.842 1.3 15.685-21.265 23.527-31.444 7.843-10.18 16.208-27.97 24.312-30.618 8.104-2.648 16.47 17.043 24.312 14.73 7.843-2.314 15.685-23.633 23.528-28.135 7.842-4.502 16.47 7.454 24.312 1.159 7.842-6.296 15.685-31.423 23.527-38.893 7.843-7.47 16.208-3.503 24.312-6.123 8.104-2.62 16.731-21.618 24.312-9.599 7.582 12.02 15.163 53 22.744 81.094 7.581 28.095 16.47 90.506 24.312 93.507 7.842 3 15.685-57.07 23.528-72.488 7.842-15.418 16.469-14.786 24.311-20.688 7.843-5.902 23.528-15.391 23.528-15.391"/><path stroke="#f4b400" stroke-width="2" stroke-linecap="butt" clip-path="url(#a)" d="M66.55 296.237s16.47-9.146 24.312-3.628c7.843 5.519 15.685 34.251 23.528 36.621 7.842 2.37 16.208-22.946 24.312-23.147 8.104-.202 16.469 17.622 24.312 21.938 7.842 4.316 15.685-2.884 23.527 4.664 7.843 7.548 16.47 40.417 24.312 41.976 7.843 1.56 15.685-29.705 23.528-31.266 7.842-1.561 16.208 28.646 24.312 22.629 8.104-6.017 16.992-50.092 24.312-58.732s14.64 3.738 21.959 1.21c7.32-2.53 16.47-12.276 24.312-18.139 7.842-5.862 15.685-23.765 23.528-17.619 7.842 6.146 16.469 52.384 24.312 56.313 7.842 3.93 15.685-25.154 23.527-30.92 7.843-5.767 16.208-7.716 24.312-3.8 8.104 3.915 16.47 26.777 24.312 27.293 7.843.515 15.685-18.208 23.528-23.32 7.842-5.113 16.47-4.677 24.312-7.601 7.842-2.925 15.685 1.51 23.527-10.192 7.843-11.7 16.208-61.294 24.312-62.014 8.104-.72 16.731 43.49 24.312 57.696 7.582 14.206 15.163 9.734 22.744 31.266 7.581 21.532 16.47 95.023 24.312 104.68 7.842 9.658 15.685-35.602 23.528-43.357 7.842-7.756 16.469 4.732 24.311-3.282 7.843-8.015 23.528-44.913 23.528-44.913"/><path fill="none" clip-path="url(#a)" d="M427.955 296.237a3 3 0 11-6 0 3 3 0 016 0zM452.267 275.768a3 3 0 11-6 0 3 3 0 016 0zM475.795 283.543a3 3 0 11-6 0 3 3 0 016 0zM500.107 288.303a3 3 0 11-6 0 3 3 0 016 0zM523.634 293.54a3 3 0 11-6 0 3 3 0 016 0zM547.946 297.982a3 3 0 11-6 0 3 3 0 016 0zM572.258 282.908a3 3 0 11-6 0 3 3 0 016 0zM595.002 275.8a3 3 0 11-6 0 3 3 0 016 0zM619.314 275.514a3 3 0 11-6 0 3 3 0 016 0zM642.841 267.993a3 3 0 11-6 0 3 3 0 016 0zM667.153 270.278a3 3 0 11-6 0 3 3 0 016 0zM690.681 268.279a3 3 0 11-6 0 3 3 0 016 0zM69.55 296.237a3 3 0 11-6 0 3 3 0 016 0zM93.862 269.26a3 3 0 11-6 0 3 3 0 016 0zM117.39 267.605a3 3 0 11-6 0 3 3 0 016 0zM141.702 248.739a3 3 0 11-6 0 3 3 0 016 0zM166.014 233.016a3 3 0 11-6 0 3 3 0 016 0zM189.541 227.555a3 3 0 11-6 0 3 3 0 016 0zM213.853 267.274a3 3 0 11-6 0 3 3 0 016 0zM237.38 263.964a3 3 0 11-6 0 3 3 0 016 0zM261.693 325.695a3 3 0 11-6 0 3 3 0 016 0zM286.005 272.736a3 3 0 11-6 0 3 3 0 016 0zM307.964 242.284a3 3 0 11-6 0 3 3 0 016 0zM332.276 222.424a3 3 0 11-6 0 3 3 0 016 0zM355.804 192.47a3 3 0 11-6 0 3 3 0 016 0zM380.116 233.016a3 3 0 11-6 0 3 3 0 016 0zM403.643 201.572a3 3 0 11-6 0 3 3 0 016 0zM427.955 170.954a3 3 0 11-6 0 3 3 0 016 0zM452.267 185.684a3 3 0 11-6 0 3 3 0 016 0zM475.795 157.549a3 3 0 11-6 0 3 3 0 016 0zM500.107 158.708a3 3 0 11-6 0 3 3 0 016 0zM523.634 119.815a3 3 0 11-6 0 3 3 0 016 0zM547.946 113.692a3 3 0 11-6 0 3 3 0 016 0zM572.258 104.093a3 3 0 11-6 0 3 3 0 016 0zM595.002 185.187a3 3 0 11-6 0 3 3 0 016 0z"/><path fill="none" clip-path="url(#a)" d="M619.314 278.694a3 3 0 11-6 0 3 3 0 016 0zM642.841 206.206a3 3 0 11-6 0 3 3 0 016 0zM667.153 185.518a3 3 0 11-6 0 3 3 0 016 0zM690.681 170.127a3 3 0 11-6 0 3 3 0 016 0zM69.55 296.237a3 3 0 11-6 0 3 3 0 016 0zM93.862 292.61a3 3 0 11-6 0 3 3 0 016 0zM117.39 329.23a3 3 0 11-6 0 3 3 0 016 0zM141.702 306.083a3 3 0 11-6 0 3 3 0 016 0zM166.014 328.02a3 3 0 11-6 0 3 3 0 016 0zM189.541 332.685a3 3 0 11-6 0 3 3 0 016 0zM213.853 374.66a3 3 0 11-6 0 3 3 0 016 0zM237.38 343.395a3 3 0 11-6 0 3 3 0 016 0zM261.693 366.024a3 3 0 11-6 0 3 3 0 016 0zM286.005 307.292a3 3 0 11-6 0 3 3 0 016 0zM307.964 308.501a3 3 0 11-6 0 3 3 0 016 0zM332.276 290.363a3 3 0 11-6 0 3 3 0 016 0zM355.804 272.744a3 3 0 11-6 0 3 3 0 016 0zM380.116 329.057a3 3 0 11-6 0 3 3 0 016 0zM403.643 298.137a3 3 0 11-6 0 3 3 0 016 0zM427.955 294.337a3 3 0 11-6 0 3 3 0 016 0zM452.267 321.63a3 3 0 11-6 0 3 3 0 016 0zM475.795 298.31a3 3 0 11-6 0 3 3 0 016 0zM500.107 290.709a3 3 0 11-6 0 3 3 0 016 0zM523.634 280.517a3 3 0 11-6 0 3 3 0 016 0zM547.946 218.503a3 3 0 11-6 0 3 3 0 016 0zM572.258 276.199a3 3 0 11-6 0 3 3 0 016 0zM595.002 307.465a3 3 0 11-6 0 3 3 0 016 0zM619.314 412.146a3 3 0 11-6 0 3 3 0 016 0zM642.841 368.788a3 3 0 11-6 0 3 3 0 016 0zM667.153 365.506a3 3 0 11-6 0 3 3 0 016 0zM690.681 320.593a3 3 0 11-6 0 3 3 0 016 0z"/><path fill="#757575" d="M27.628 446.762h-2.86v-.875h2.86v.875zm6.219 3.188h-5.594v-.781l2.953-3.281q.657-.75.906-1.204.25-.468.25-.968 0-.672-.406-1.094-.39-.438-1.078-.438-.797 0-1.25.47-.453.452-.453 1.28h-1.078q0-1.187.75-1.906.765-.734 2.031-.734 1.203 0 1.89.625.688.625.688 1.672 0 1.25-1.61 3l-2.28 2.468h4.28v.891zm6.765-3.64q0 1.906-.656 2.843-.64.922-2.031.922-1.36 0-2.016-.906-.656-.906-.687-2.719v-1.438q0-1.89.64-2.796.657-.922 2.047-.922 1.375 0 2.032.89.656.875.671 2.72v1.405zm-1.093-1.485q0-1.375-.39-2-.376-.64-1.22-.64-.828 0-1.218.64-.375.625-.375 1.922v1.734q0 1.375.39 2.047.406.656 1.219.656.797 0 1.188-.625.39-.625.406-1.953v-1.781zm2.875 4.563q0-.282.156-.47.172-.187.5-.187.344 0 .516.188.171.187.171.469 0 .265-.171.453-.172.171-.516.171-.328 0-.5-.171-.156-.188-.156-.454zm8.218-3.079q0 1.907-.656 2.844-.64.922-2.031.922-1.36 0-2.016-.906-.656-.906-.687-2.719v-1.438q0-1.89.64-2.796.657-.922 2.047-.922 1.375 0 2.032.89.656.875.671 2.72v1.405zm-1.093-1.484q0-1.375-.39-2-.376-.64-1.22-.64-.828 0-1.218.64-.375.625-.375 1.922v1.734q0 1.375.39 2.047.406.656 1.219.656.797 0 1.188-.625.39-.625.406-1.953v-1.781zm2.64-1.766q0-.765.485-1.265.5-.5 1.265-.5.782 0 1.266.5t.484 1.297v.421q0 .766-.5 1.266-.484.484-1.234.484-.766 0-1.266-.484-.5-.5-.5-1.312v-.407zm.813.453q0 .454.25.75.265.297.703.297.422 0 .672-.28.25-.298.25-.798v-.422q0-.453-.25-.75-.25-.312-.688-.312-.437 0-.687.312-.25.297-.25.766v.438zm3.344 4.344q0-.765.484-1.25.5-.5 1.266-.5.765 0 1.25.5.5.485.5 1.297v.406q0 .766-.485 1.266-.484.5-1.25.5-.765 0-1.265-.484-.5-.5-.5-1.313v-.422zm.812.453q0 .47.25.766.266.297.703.297.422 0 .672-.281.25-.297.25-.797v-.438q0-.469-.266-.75-.25-.297-.671-.297-.422 0-.688.297-.25.281-.25.781v.422zm-2.953 1l-.625-.39 4.172-6.672.61.39-4.157 6.672zM27.628 372.156h-2.86v-.875h2.86v.875zm4.188 3.187h-1.078v-7.218l-2.188.796v-.984l3.11-1.172h.156v8.578zm8.796-3.64q0 1.906-.656 2.843-.64.922-2.031.922-1.36 0-2.016-.906-.656-.906-.687-2.719v-1.437q0-1.89.64-2.797.657-.922 2.047-.922 1.375 0 2.032.89.656.876.671 2.72v1.406zm-1.093-1.485q0-1.375-.39-2-.376-.64-1.22-.64-.828 0-1.218.64-.375.625-.375 1.922v1.735q0 1.375.39 2.046.406.657 1.219.657.797 0 1.188-.625.39-.625.406-1.953v-1.782zm2.875 4.563q0-.281.156-.469.172-.187.5-.187.344 0 .516.187.171.188.171.469 0 .265-.171.453-.172.172-.516.172-.328 0-.5-.172-.156-.188-.156-.453zm8.218-3.078q0 1.906-.656 2.843-.64.922-2.031.922-1.36 0-2.016-.906-.656-.906-.687-2.719v-1.437q0-1.89.64-2.797.657-.922 2.047-.922 1.375 0 2.032.89.656.876.671 2.72v1.406zm-1.093-1.485q0-1.375-.39-2-.376-.64-1.22-.64-.828 0-1.218.64-.375.625-.375 1.922v1.735q0 1.375.39 2.046.406.657 1.219.657.797 0 1.188-.625.39-.625.406-1.953v-1.782zm2.64-1.765q0-.766.485-1.266.5-.5 1.265-.5.782 0 1.266.5t.484 1.297v.422q0 .765-.5 1.265-.484.485-1.234.485-.766 0-1.266-.485-.5-.5-.5-1.312v-.406zm.813.453q0 .453.25.75.265.297.703.297.422 0 .672-.282.25-.296.25-.796v-.422q0-.453-.25-.75-.25-.313-.688-.313-.437 0-.687.313-.25.297-.25.765v.438zm3.344 4.344q0-.766.484-1.25.5-.5 1.266-.5.765 0 1.25.5.5.484.5 1.296v.407q0 .765-.485 1.265-.484.5-1.25.5-.765 0-1.265-.484-.5-.5-.5-1.313v-.421zm.812.453q0 .468.25.765.266.297.703.297.422 0 .672-.281.25-.297.25-.797v-.437q0-.47-.266-.75-.25-.297-.671-.297-.422 0-.688.297-.25.28-.25.78v.423zm-2.953 1l-.625-.39 4.172-6.673.61.39-4.157 6.673zM40.612 297.096q0 1.906-.656 2.844-.64.922-2.031.922-1.36 0-2.016-.907-.656-.906-.687-2.718v-1.438q0-1.89.64-2.797.657-.922 2.047-.922 1.375 0 2.032.891.656.875.671 2.719v1.406zm-1.093-1.484q0-1.375-.39-2-.376-.641-1.22-.641-.828 0-1.218.64-.375.626-.375 1.923v1.734q0 1.375.39 2.047.406.656 1.219.656.797 0 1.188-.625.39-.625.406-1.953v-1.781zm2.875 4.562q0-.281.156-.469.172-.187.5-.187.344 0 .516.187.171.188.171.47 0 .265-.171.452-.172.172-.516.172-.328 0-.5-.172-.156-.187-.156-.453zm8.218-3.078q0 1.906-.656 2.844-.64.922-2.031.922-1.36 0-2.016-.907-.656-.906-.687-2.718v-1.438q0-1.89.64-2.797.657-.922 2.047-.922 1.375 0 2.032.891.656.875.671 2.719v1.406zm-1.093-1.484q0-1.375-.39-2-.376-.641-1.22-.641-.828 0-1.218.64-.375.626-.375 1.923v1.734q0 1.375.39 2.047.406.656 1.219.656.797 0 1.188-.625.39-.625.406-1.953v-1.781zm2.64-1.766q0-.766.485-1.266.5-.5 1.265-.5.782 0 1.266.5t.484 1.297v.422q0 .766-.5 1.266-.484.484-1.234.484-.766 0-1.266-.484-.5-.5-.5-1.313v-.406zm.813.453q0 .453.25.75.265.297.703.297.422 0 .672-.281.25-.297.25-.797v-.422q0-.453-.25-.75-.25-.312-.688-.312-.437 0-.687.312-.25.297-.25.766v.437zm3.344 4.344q0-.766.484-1.25.5-.5 1.266-.5.765 0 1.25.5.5.484.5 1.297v.406q0 .766-.485 1.266-.484.5-1.25.5-.765 0-1.265-.485-.5-.5-.5-1.312v-.422zm.812.453q0 .469.25.766.266.297.703.297.422 0 .672-.282.25-.297.25-.797v-.437q0-.469-.266-.75-.25-.297-.671-.297-.422 0-.688.297-.25.281-.25.781v.422zm-2.953 1l-.625-.39 4.172-6.672.61.39-4.157 6.672zM31.816 226.13h-1.078v-7.219l-2.188.797v-.984l3.11-1.172h.156v8.578zm8.796-3.64q0 1.906-.656 2.843-.64.922-2.031.922-1.36 0-2.016-.906-.656-.906-.687-2.719v-1.438q0-1.89.64-2.796.657-.922 2.047-.922 1.375 0 2.032.89.656.875.671 2.72v1.405zm-1.093-1.485q0-1.375-.39-2-.376-.64-1.22-.64-.828 0-1.218.64-.375.625-.375 1.922v1.734q0 1.375.39 2.047.406.656 1.219.656.797 0 1.188-.625.39-.625.406-1.953v-1.781zm2.875 4.563q0-.282.156-.47.172-.187.5-.187.344 0 .516.188.171.187.171.469 0 .265-.171.453-.172.172-.516.172-.328 0-.5-.172-.156-.188-.156-.453zm8.218-3.079q0 1.907-.656 2.844-.64.922-2.031.922-1.36 0-2.016-.906-.656-.906-.687-2.719v-1.438q0-1.89.64-2.796.657-.922 2.047-.922 1.375 0 2.032.89.656.875.671 2.72v1.405zm-1.093-1.484q0-1.375-.39-2-.376-.64-1.22-.64-.828 0-1.218.64-.375.625-.375 1.922v1.734q0 1.375.39 2.047.406.656 1.219.656.797 0 1.188-.625.39-.625.406-1.953v-1.781zm2.64-1.766q0-.765.485-1.265.5-.5 1.265-.5.782 0 1.266.5t.484 1.297v.422q0 .765-.5 1.265-.484.484-1.234.484-.766 0-1.266-.484-.5-.5-.5-1.312v-.407zm.813.453q0 .454.25.75.265.297.703.297.422 0 .672-.28.25-.298.25-.798v-.422q0-.453-.25-.75-.25-.312-.688-.312-.437 0-.687.312-.25.297-.25.766v.438zm3.344 4.344q0-.765.484-1.25.5-.5 1.266-.5.765 0 1.25.5.5.485.5 1.297v.406q0 .766-.485 1.266-.484.5-1.25.5-.765 0-1.265-.484-.5-.5-.5-1.313v-.422zm.812.453q0 .47.25.766.266.297.703.297.422 0 .672-.281.25-.297.25-.797v-.438q0-.469-.266-.75-.25-.297-.671-.297-.422 0-.688.297-.25.281-.25.781v.422zm-2.953 1l-.625-.39 4.172-6.672.61.39-4.157 6.672zM33.847 151.523h-5.594v-.78l2.953-3.282q.657-.75.906-1.203.25-.469.25-.969 0-.672-.406-1.094-.39-.437-1.078-.437-.797 0-1.25.468-.453.454-.453 1.282h-1.078q0-1.188.75-1.907.765-.734 2.031-.734 1.203 0 1.89.625.688.625.688 1.672 0 1.25-1.61 3l-2.28 2.469h4.28v.89zm6.765-3.64q0 1.906-.656 2.843-.64.922-2.031.922-1.36 0-2.016-.906-.656-.906-.687-2.719v-1.437q0-1.89.64-2.797.657-.922 2.047-.922 1.375 0 2.032.89.656.876.671 2.72v1.406zm-1.093-1.485q0-1.375-.39-2-.376-.64-1.22-.64-.828 0-1.218.64-.375.625-.375 1.922v1.735q0 1.375.39 2.046.406.657 1.219.657.797 0 1.188-.625.39-.625.406-1.953v-1.782zm2.875 4.563q0-.281.156-.469.172-.187.5-.187.344 0 .516.187.171.188.171.469 0 .265-.171.453-.172.172-.516.172-.328 0-.5-.172-.156-.188-.156-.453zm8.218-3.078q0 1.906-.656 2.843-.64.922-2.031.922-1.36 0-2.016-.906-.656-.906-.687-2.719v-1.437q0-1.89.64-2.797.657-.922 2.047-.922 1.375 0 2.032.89.656.876.671 2.72v1.406zm-1.093-1.485q0-1.375-.39-2-.376-.64-1.22-.64-.828 0-1.218.64-.375.625-.375 1.922v1.735q0 1.375.39 2.046.406.657 1.219.657.797 0 1.188-.625.39-.625.406-1.953v-1.782zm2.64-1.765q0-.766.485-1.266.5-.5 1.265-.5.782 0 1.266.5t.484 1.297v.422q0 .765-.5 1.265-.484.485-1.234.485-.766 0-1.266-.485-.5-.5-.5-1.312v-.406zm.813.453q0 .453.25.75.265.297.703.297.422 0 .672-.282.25-.296.25-.796v-.422q0-.453-.25-.75-.25-.313-.688-.313-.437 0-.687.313-.25.297-.25.765v.438zm3.344 4.344q0-.766.484-1.25.5-.5 1.266-.5.765 0 1.25.5.5.484.5 1.296v.407q0 .765-.485 1.265-.484.5-1.25.5-.765 0-1.265-.484-.5-.5-.5-1.313v-.421zm.812.453q0 .468.25.765.266.297.703.297.422 0 .672-.281.25-.297.25-.797v-.437q0-.47-.266-.75-.25-.297-.671-.297-.422 0-.688.297-.25.28-.25.78v.423zm-2.953 1l-.625-.39 4.172-6.673.61.39-4.157 6.673zM29.831 72.12h.813q.781-.016 1.219-.406.437-.391.437-1.063 0-1.5-1.5-1.5-.703 0-1.125.406-.406.407-.406 1.063h-1.094q0-1.016.734-1.688.75-.672 1.891-.672 1.203 0 1.89.641.688.64.688 1.781 0 .563-.36 1.078-.359.516-.984.782.703.218 1.078.734.391.516.391 1.266 0 1.14-.75 1.828-.75.672-1.953.672-1.188 0-1.953-.657-.75-.656-.75-1.718h1.094q0 .672.437 1.078.438.406 1.188.406.78 0 1.187-.406.422-.422.422-1.188 0-.734-.453-1.125-.453-.406-1.328-.422h-.813v-.89zm10.781 1.156q0 1.906-.656 2.844-.64.922-2.031.922-1.36 0-2.016-.907-.656-.906-.687-2.718v-1.438q0-1.89.64-2.797.657-.922 2.047-.922 1.375 0 2.032.891.656.875.671 2.719v1.406zm-1.093-1.484q0-1.375-.39-2-.376-.641-1.22-.641-.828 0-1.218.64-.375.626-.375 1.923v1.734q0 1.375.39 2.047.406.656 1.219.656.797 0 1.188-.625.39-.625.406-1.953v-1.781zm2.875 4.562q0-.281.156-.469.172-.187.5-.187.344 0 .516.187.171.188.171.47 0 .265-.171.452-.172.172-.516.172-.328 0-.5-.172-.156-.187-.156-.453zm8.218-3.078q0 1.906-.656 2.844-.64.922-2.031.922-1.36 0-2.016-.907-.656-.906-.687-2.718v-1.438q0-1.89.64-2.797.657-.922 2.047-.922 1.375 0 2.032.891.656.875.671 2.719v1.406zm-1.093-1.484q0-1.375-.39-2-.376-.641-1.22-.641-.828 0-1.218.64-.375.626-.375 1.923v1.734q0 1.375.39 2.047.406.656 1.219.656.797 0 1.188-.625.39-.625.406-1.953v-1.781zm2.64-1.766q0-.766.485-1.266.5-.5 1.265-.5.782 0 1.266.5t.484 1.297v.422q0 .766-.5 1.266-.484.484-1.234.484-.766 0-1.266-.484-.5-.5-.5-1.313v-.406zm.813.453q0 .453.25.75.265.297.703.297.422 0 .672-.281.25-.297.25-.797v-.422q0-.453-.25-.75-.25-.312-.688-.312-.437 0-.687.312-.25.297-.25.766v.437zm3.344 4.344q0-.766.484-1.25.5-.5 1.266-.5.765 0 1.25.5.5.484.5 1.297v.406q0 .766-.485 1.266-.484.5-1.25.5-.765 0-1.265-.485-.5-.5-.5-1.312v-.422zm.812.453q0 .469.25.766.266.297.703.297.422 0 .672-.282.25-.297.25-.797v-.437q0-.469-.266-.75-.25-.297-.671-.297-.422 0-.688.297-.25.281-.25.781v.422zm-2.953 1l-.625-.39 4.172-6.672.61.39-4.157 6.672zM89.655 463.45h-1.078v-7.219l-2.187.797v-.984l3.109-1.172h.156v8.578zm5.813-3.188h-2.86v-.875h2.86v.875zm4.484-5.343h1.14v6.047q0 1.218-.75 1.921-.734.688-1.952.688-1.266 0-1.985-.656-.703-.656-.703-1.828h1.125q0 .734.39 1.156.407.406 1.173.406.703 0 1.125-.437.437-.454.437-1.235v-6.062zm7.172 7.906q-.625.75-1.86.75-1.015 0-1.546-.594-.531-.594-.531-1.75v-4.125h1.078v4.094q0 1.453 1.172 1.453 1.25 0 1.656-.937v-4.61h1.094v6.344h-1.032l-.031-.625zm4.266.625h-1.078v-9h1.078v9zm4.078-3.188h-2.86v-.875h2.86v.875zm6.219 3.188h-5.594v-.781l2.953-3.281q.656-.75.906-1.204.25-.468.25-.968 0-.672-.406-1.094-.39-.438-1.078-.438-.797 0-1.25.47-.453.452-.453 1.28h-1.078q0-1.187.75-1.906.765-.734 2.03-.734 1.204 0 1.891.625.688.625.688 1.672 0 1.25-1.61 3l-2.28 2.468h4.28v.891zm6.765-3.64q0 1.906-.656 2.843-.64.922-2.031.922-1.36 0-2.016-.906-.656-.906-.687-2.719v-1.438q0-1.89.64-2.796.656-.922 2.047-.922 1.375 0 2.031.89.657.875.672 2.72v1.405zm-1.094-1.485q0-1.375-.39-2-.375-.64-1.219-.64-.828 0-1.219.64-.375.625-.375 1.922v1.734q0 1.375.39 2.047.407.656 1.22.656.797 0 1.187-.625t.406-1.953v-1.781zm6.297 5.125h-1.078v-7.219l-2.187.797v-.984l3.109-1.172h.156v8.578zm8.625-6.313q0 .641-.343 1.141-.344.5-.907.781.657.282 1.047.844.39.547.39 1.25 0 1.094-.75 1.766-.734.656-1.952.656-1.235 0-1.985-.656-.734-.672-.734-1.766 0-.703.375-1.25.375-.562 1.047-.844-.563-.28-.89-.78-.329-.5-.329-1.142 0-1.078.688-1.703.687-.64 1.828-.64 1.125 0 1.812.64.703.625.703 1.703zm-.89 3.985q0-.719-.453-1.156-.454-.454-1.188-.454t-1.187.454q-.438.437-.438 1.171 0 .72.438 1.141.437.406 1.203.406.75 0 1.187-.422.438-.421.438-1.14zm-1.625-5.438q-.641 0-1.047.407-.39.39-.39 1.078 0 .64.39 1.047.39.406 1.031.406.656 0 1.047-.406.39-.407.39-1.047 0-.656-.406-1.063-.406-.422-1.015-.422zM231.958 463.45h-1.078v-7.219l-2.187.797v-.984l3.11-1.172h.155v8.578zm5.813-3.188h-2.86v-.875h2.86v.875zm4.484-5.343h1.141v6.047q0 1.218-.75 1.921-.734.688-1.953.688-1.266 0-1.985-.656-.703-.656-.703-1.828h1.125q0 .734.391 1.156.406.406 1.172.406.703 0 1.125-.437.437-.454.437-1.235v-6.062zm7.172 8.531q-.094-.188-.156-.672-.75.797-1.797.797-.937 0-1.547-.531-.594-.531-.594-1.36 0-.984.75-1.53.75-.548 2.125-.548h1.047v-.5q0-.562-.343-.89-.329-.344-1-.344-.579 0-.97.297-.39.281-.39.703h-1.094q0-.485.329-.922.343-.438.921-.688.579-.265 1.266-.265 1.11 0 1.719.547.625.547.656 1.5v2.922q0 .875.219 1.39v.094h-1.14zm-1.797-.828q.516 0 .97-.266.452-.265.655-.687v-1.297h-.843q-2 0-2 1.172 0 .5.343.797.344.28.875.28zm5.907-5.516l.03.797q.735-.906 1.907-.906 2.016 0 2.031 2.265v4.188h-1.093v-4.203q0-.672-.313-1-.297-.328-.953-.328-.531 0-.938.281-.39.281-.609.734v4.516h-1.078v-6.344h1.016zm8.234 3.156h-2.86v-.875h2.86v.875zm6.219 3.188h-5.594v-.781l2.953-3.281q.656-.75.906-1.204.25-.468.25-.968 0-.672-.406-1.094-.39-.438-1.078-.438-.797 0-1.25.47-.453.452-.453 1.28h-1.078q0-1.187.75-1.906.765-.734 2.03-.734 1.204 0 1.892.625.687.625.687 1.672 0 1.25-1.61 3l-2.28 2.468h4.28v.891zm6.765-3.64q0 1.906-.656 2.843-.64.922-2.031.922-1.36 0-2.016-.906-.656-.906-.687-2.719v-1.438q0-1.89.64-2.796.657-.922 2.047-.922 1.375 0 2.031.89.657.875.672 2.72v1.405zm-1.093-1.485q0-1.375-.391-2-.375-.64-1.219-.64-.828 0-1.219.64-.375.625-.375 1.922v1.734q0 1.375.391 2.047.406.656 1.219.656.797 0 1.187-.625t.407-1.953v-1.781zm6.296 5.125h-1.078v-7.219l-2.187.797v-.984l3.11-1.172h.155v8.578zm7.594-3.75q-.328.406-.812.656-.47.235-1.032.235-.734 0-1.28-.36-.548-.36-.845-1.015-.296-.672-.296-1.47 0-.843.312-1.53.328-.688.922-1.047.61-.375 1.406-.375 1.266 0 1.985.953.734.953.734 2.578v.313q0 2.5-.984 3.64-.985 1.14-2.97 1.172h-.218v-.906h.234q1.344-.031 2.063-.703.719-.672.781-2.141zm-1.672 0q.547 0 1-.328.47-.344.688-.828v-.438q0-1.062-.469-1.734-.469-.672-1.172-.672-.719 0-1.156.547-.422.547-.422 1.453 0 .875.406 1.438.422.562 1.125.562zM375.909 463.45h-1.078v-7.219l-2.188.797v-.984l3.11-1.172h.156v8.578zm5.812-3.188h-2.859v-.875h2.86v.875zm4.485-5.343h1.14v6.047q0 1.218-.75 1.921-.734.688-1.953.688-1.265 0-1.984-.656-.703-.656-.703-1.828h1.125q0 .734.39 1.156.407.406 1.172.406.703 0 1.125-.437.438-.454.438-1.235v-6.062zm7.172 7.906q-.625.75-1.86.75-1.015 0-1.547-.594-.53-.594-.53-1.75v-4.125h1.077v4.094q0 1.453 1.172 1.453 1.25 0 1.656-.937v-4.61h1.094v6.344h-1.031l-.031-.625zm4.265.625h-1.078v-9h1.078v9zm4.078-3.188h-2.859v-.875h2.86v.875zm6.22 3.188h-5.595v-.781l2.954-3.281q.656-.75.906-1.204.25-.468.25-.968 0-.672-.406-1.094-.391-.438-1.079-.438-.796 0-1.25.47-.453.452-.453 1.28h-1.078q0-1.187.75-1.906.766-.734 2.031-.734 1.204 0 1.891.625.688.625.688 1.672 0 1.25-1.61 3l-2.281 2.468h4.281v.891zm6.765-3.64q0 1.906-.656 2.843-.641.922-2.032.922-1.36 0-2.015-.906-.657-.906-.688-2.719v-1.438q0-1.89.64-2.796.657-.922 2.048-.922 1.375 0 2.03.89.657.875.673 2.72v1.405zm-1.094-1.485q0-1.375-.39-2-.376-.64-1.22-.64-.827 0-1.218.64-.375.625-.375 1.922v1.734q0 1.375.39 2.047.407.656 1.22.656.796 0 1.187-.625.39-.625.406-1.953v-1.781zm6.297 5.125h-1.078v-7.219l-2.188.797v-.984l3.11-1.172h.156v8.578zm7.594-3.75q-.328.406-.813.656-.469.235-1.031.235-.734 0-1.281-.36-.547-.36-.844-1.015-.297-.672-.297-1.47 0-.843.313-1.53.328-.688.921-1.047.61-.375 1.407-.375 1.265 0 1.984.953.734.953.734 2.578v.313q0 2.5-.984 3.64-.984 1.14-2.969 1.172h-.218v-.906h.234q1.344-.031 2.062-.703.72-.672.782-2.141zm-1.672 0q.547 0 1-.328.469-.344.687-.828v-.438q0-1.062-.468-1.734-.47-.672-1.172-.672-.72 0-1.157.547-.421.547-.421 1.453 0 .875.406 1.438.422.562 1.125.562zM518.212 463.45h-1.078v-7.219l-2.188.797v-.984l3.11-1.172h.156v8.578zm5.813-3.188h-2.86v-.875h2.86v.875zm4.484-5.343h1.14v6.047q0 1.218-.75 1.921-.734.688-1.953.688-1.265 0-1.984-.656-.703-.656-.703-1.828h1.125q0 .734.39 1.156.407.406 1.172.406.704 0 1.125-.437.438-.454.438-1.235v-6.062zm7.172 8.531q-.094-.188-.156-.672-.75.797-1.797.797-.938 0-1.547-.531-.594-.531-.594-1.36 0-.984.75-1.53.75-.548 2.125-.548h1.047v-.5q0-.562-.344-.89-.328-.344-1-.344-.578 0-.969.297-.39.281-.39.703h-1.094q0-.485.328-.922.344-.438.922-.688.578-.265 1.266-.265 1.109 0 1.718.547.625.547.657 1.5v2.922q0 .875.218 1.39v.094h-1.14zm-1.797-.828q.516 0 .969-.266.453-.265.656-.687v-1.297h-.844q-2 0-2 1.172 0 .5.344.797.344.28.875.28zm5.906-5.516l.031.797q.735-.906 1.907-.906 2.015 0 2.03 2.265v4.188h-1.093v-4.203q0-.672-.312-1-.297-.328-.953-.328-.532 0-.938.281-.39.281-.61.734v4.516h-1.077v-6.344h1.015zm8.235 3.156h-2.86v-.875h2.86v.875zm6.218 3.188h-5.593v-.781l2.953-3.281q.656-.75.906-1.204.25-.468.25-.968 0-.672-.406-1.094-.391-.438-1.078-.438-.797 0-1.25.47-.454.452-.454 1.28h-1.078q0-1.187.75-1.906.766-.734 2.032-.734 1.203 0 1.89.625.688.625.688 1.672 0 1.25-1.61 3l-2.281 2.468h4.281v.891zm6.766-3.64q0 1.906-.656 2.843-.641.922-2.032.922-1.359 0-2.015-.906-.656-.906-.688-2.719v-1.438q0-1.89.64-2.796.657-.922 2.048-.922 1.375 0 2.031.89.656.875.672 2.72v1.405zm-1.094-1.485q0-1.375-.39-2-.375-.64-1.22-.64-.827 0-1.218.64-.375.625-.375 1.922v1.734q0 1.375.39 2.047.407.656 1.22.656.796 0 1.187-.625.39-.625.406-1.953v-1.781zm8.328 5.125h-5.593v-.781l2.953-3.281q.656-.75.906-1.204.25-.468.25-.968 0-.672-.406-1.094-.391-.438-1.078-.438-.797 0-1.25.47-.454.452-.454 1.28h-1.078q0-1.187.75-1.906.766-.734 2.032-.734 1.203 0 1.89.625.688.625.688 1.672 0 1.25-1.61 3l-2.281 2.468h4.281v.891zm6.766-3.64q0 1.906-.656 2.843-.641.922-2.032.922-1.359 0-2.015-.906-.656-.906-.688-2.719v-1.438q0-1.89.64-2.796.657-.922 2.048-.922 1.375 0 2.031.89.656.875.672 2.72v1.405zm-1.094-1.485q0-1.375-.39-2-.375-.64-1.22-.64-.827 0-1.218.64-.375.625-.375 1.922v1.734q0 1.375.39 2.047.407.656 1.22.656.796 0 1.187-.625.39-.625.406-1.953v-1.781zM662.947 463.45h-1.078v-7.219l-2.188.797v-.984l3.11-1.172h.156v8.578zm5.812-3.188h-2.86v-.875h2.86v.875zm4.485-5.343h1.14v6.047q0 1.218-.75 1.921-.734.688-1.953.688-1.266 0-1.984-.656-.703-.656-.703-1.828h1.125q0 .734.39 1.156.406.406 1.172.406.703 0 1.125-.437.438-.454.438-1.235v-6.062zm7.171 7.906q-.625.75-1.859.75-1.016 0-1.547-.594-.531-.594-.531-1.75v-4.125h1.078v4.094q0 1.453 1.172 1.453 1.25 0 1.656-.937v-4.61h1.094v6.344h-1.031l-.032-.625zm4.266.625h-1.078v-9h1.078v9zm4.078-3.188h-2.86v-.875h2.86v.875zm6.219 3.188h-5.594v-.781l2.953-3.281q.657-.75.907-1.204.25-.468.25-.968 0-.672-.407-1.094-.39-.438-1.078-.438-.797 0-1.25.47-.453.452-.453 1.28h-1.078q0-1.187.75-1.906.766-.734 2.031-.734 1.203 0 1.89.625.688.625.688 1.672 0 1.25-1.609 3l-2.281 2.468h4.281v.891zm6.766-3.64q0 1.906-.657 2.843-.64.922-2.03.922-1.36 0-2.017-.906-.656-.906-.687-2.719v-1.438q0-1.89.64-2.796.657-.922 2.047-.922 1.375 0 2.032.89.656.875.672 2.72v1.405zm-1.094-1.485q0-1.375-.39-2-.376-.64-1.22-.64-.828 0-1.218.64-.375.625-.375 1.922v1.734q0 1.375.39 2.047.407.656 1.22.656.796 0 1.187-.625.39-.625.406-1.953v-1.781zm8.328 5.125h-5.594v-.781l2.953-3.281q.657-.75.907-1.204.25-.468.25-.968 0-.672-.407-1.094-.39-.438-1.078-.438-.797 0-1.25.47-.453.452-.453 1.28h-1.078q0-1.187.75-1.906.766-.734 2.031-.734 1.203 0 1.89.625.688.625.688 1.672 0 1.25-1.609 3l-2.281 2.468h4.281v.891zm6.766-3.64q0 1.906-.657 2.843-.64.922-2.03.922-1.36 0-2.017-.906-.656-.906-.687-2.719v-1.438q0-1.89.64-2.796.657-.922 2.047-.922 1.375 0 2.032.89.656.875.672 2.72v1.405zm-1.094-1.485q0-1.375-.39-2-.376-.64-1.22-.64-.828 0-1.218.64-.375.625-.375 1.922v1.734q0 1.375.39 2.047.407.656 1.22.656.796 0 1.187-.625.39-.625.406-1.953v-1.781z"/><path stroke="#4285f4" stroke-width="4" stroke-linecap="butt" d="M714.45 72.417h12"/><path fill="#757575" d="M735.434 76.917v-8.532h2.422q1.11 0 1.953.5.86.485 1.329 1.391.468.906.468 2.094v.531q0 1.219-.468 2.125-.454.906-1.329 1.39-.859.485-2 .5h-2.375zm1.125-7.61v6.688h1.188q1.297 0 2.016-.797.734-.813.734-2.313v-.5q0-1.453-.688-2.25-.671-.812-1.937-.828h-1.313zm6.875 7.61v-8.532h2.797q1.39 0 2.078.579.704.562.704 1.687 0 .61-.344 1.078-.328.453-.922.703.703.188 1.094.735.406.53.406 1.28 0 1.157-.75 1.813-.734.657-2.094.657h-2.969zm1.125-3.985v3.063h1.86q.797 0 1.25-.406.453-.407.453-1.125 0-1.532-1.688-1.532h-1.875zm0-.906h1.704q.734 0 1.171-.36.454-.374.454-1.015 0-.703-.407-1.016-.406-.328-1.25-.328h-1.672v2.719zm6.72 3.969h4.89v.922h-6.219v-.844l4.688-6.766h-4.61v-.922h5.953v.829l-4.703 6.78zm6.155.922v-8.532h2.797q1.39 0 2.078.579.704.562.704 1.687 0 .61-.344 1.078-.328.453-.922.703.703.188 1.094.735.406.53.406 1.28 0 1.157-.75 1.813-.734.657-2.094.657h-2.969zm1.125-3.985v3.063h1.86q.797 0 1.25-.406.453-.407.453-1.125 0-1.532-1.688-1.532h-1.875zm0-.906h1.704q.734 0 1.171-.36.454-.374.454-1.015 0-.703-.407-1.016-.406-.328-1.25-.328h-1.672v2.719z"/><path stroke="#db4437" stroke-width="4" stroke-linecap="butt" d="M714.45 97.417h12"/><path fill="#757575" d="M736.653 101.917h-1.125v-8.532h1.125v8.532zm3.625-2.688l.172 1.125.234-1.015 1.688-5.954h.953l1.64 5.954.235 1.03.188-1.155 1.328-5.829h1.125l-2.063 8.532h-1.031l-1.766-6.22-.125-.655-.14.656-1.813 6.219h-1.031l-2.063-8.532h1.125l1.344 5.844zm9.156 2.688v-8.532h2.422q1.11 0 1.953.5.86.485 1.329 1.391.468.906.468 2.094v.531q0 1.219-.468 2.125-.454.906-1.329 1.39-.859.485-2 .5h-2.375zm1.125-7.61v6.688h1.188q1.297 0 2.016-.797.734-.813.734-2.313v-.5q0-1.453-.688-2.25-.671-.812-1.937-.828h-1.313zm11.594 5.375h-3.578l-.797 2.235h-1.156l3.25-8.532h.984l3.266 8.532h-1.156l-.813-2.235zm-3.234-.922h2.906l-1.453-3.984-1.453 3.984z"/><path stroke="#f4b400" stroke-width="4" stroke-linecap="butt" d="M714.45 122.417h12"/><path fill="#757575" d="M738.231 121.651l2.032-3.266h1.328l-2.688 4.235 2.75 4.297h-1.328l-2.094-3.328-2.11 3.328h-1.343l2.766-4.297-2.688-4.235h1.313l2.062 3.266zm6.657-3.266l2.796 6.954 2.782-6.954h1.468v8.532h-1.125v-3.328l.11-3.579-2.813 6.907h-.86l-2.796-6.891.11 3.563v3.328h-1.126v-8.532h1.454zm10 0l2.796 6.954 2.782-6.954h1.468v8.532h-1.125v-3.328l.11-3.579-2.813 6.907h-.86l-2.796-6.891.11 3.563v3.328h-1.126v-8.532h1.454zm13.375 4.594h-3.704v3.016h4.297v.922h-5.422v-8.532h5.375v.922h-4.25v2.75h3.704v.922zM28.081 37.987v5.563h-1.875V29.331h5.235q2.343 0 3.656 1.188 1.328 1.187 1.328 3.156 0 2.078-1.297 3.203-1.297 1.11-3.703 1.11h-3.344zm0-1.53h3.36q1.515 0 2.312-.704.797-.719.797-2.062 0-1.266-.797-2.016-.797-.766-2.203-.797h-3.469v5.578zM43.3 43.752q-2.14 0-3.5-1.406-1.344-1.422-1.344-3.781v-.344q0-1.563.594-2.797.61-1.234 1.688-1.938 1.078-.703 2.343-.703 2.063 0 3.203 1.36 1.141 1.36 1.141 3.89v.75h-7.156q.031 1.563.906 2.532.875.953 2.219.953.968 0 1.625-.39.672-.392 1.172-1.032l1.093.86q-1.328 2.046-3.984 2.046zm-.219-9.484q-1.094 0-1.844.797-.734.796-.906 2.234h5.281v-.14q-.078-1.376-.75-2.126-.656-.765-1.78-.765zm11.938.328q-.407-.063-.875-.063-1.782 0-2.422 1.516v7.5h-1.797V32.987h1.75l.031 1.22q.89-1.423 2.516-1.423.531 0 .797.141v1.672zM57.8 43.55v-9.172h-1.656v-1.39H57.8v-1.094q0-1.688.906-2.61.922-.937 2.578-.937.625 0 1.235.156l-.094 1.469q-.453-.078-.969-.078-.89 0-1.375.515-.469.5-.469 1.454v1.124h2.25v1.391h-2.25v9.172H57.8zm5.64-5.375q0-1.563.61-2.797.61-1.25 1.688-1.922 1.093-.672 2.5-.672 2.156 0 3.484 1.5 1.344 1.485 1.344 3.97v.124q0 1.547-.594 2.781-.594 1.22-1.703 1.907-1.094.687-2.516.687-2.14 0-3.484-1.5-1.328-1.5-1.328-3.953v-.125zm1.813.203q0 1.766.813 2.828.828 1.063 2.187 1.063 1.375 0 2.188-1.078.812-1.079.812-3.016 0-1.75-.828-2.828-.828-1.078-2.188-1.078-1.343 0-2.171 1.062-.813 1.063-.813 3.047zm14.766-3.781q-.407-.063-.875-.063-1.782 0-2.422 1.516v7.5h-1.797V32.987h1.75l.031 1.22q.89-1.423 2.516-1.423.531 0 .797.141v1.672zm3.593-1.61l.047 1.172q1.172-1.375 3.141-1.375 2.219 0 3.016 1.703.53-.765 1.375-1.234.843-.469 2-.469 3.468 0 3.53 3.688v7.078H94.91v-6.969q0-1.14-.515-1.703-.516-.562-1.735-.562-1 0-1.672.609-.656.594-.765 1.61v7.015h-1.813v-6.922q0-2.312-2.265-2.312-1.782 0-2.422 1.515v7.719h-1.813V32.987h1.703zm22.829 10.563q-.157-.313-.25-1.11-1.266 1.313-3.016 1.313-1.563 0-2.563-.89-1-.891-1-2.25 0-1.641 1.25-2.547 1.266-.922 3.532-.922h1.765v-.828q0-.954-.578-1.516-.562-.563-1.656-.563-.969 0-1.625.5-.656.485-.656 1.172H99.83q0-.78.563-1.515.562-.75 1.515-1.172.97-.438 2.125-.438 1.828 0 2.86.922 1.031.906 1.078 2.516v4.86q0 1.452.36 2.312v.156h-1.891zm-3-1.375q.859 0 1.609-.438.766-.437 1.11-1.14v-2.172h-1.422q-3.313 0-3.313 1.938 0 .859.563 1.343.562.469 1.453.469zm9.187-9.188l.063 1.329q1.203-1.532 3.156-1.532 3.36 0 3.375 3.782v6.984h-1.797v-7q-.016-1.14-.531-1.688-.5-.546-1.594-.546-.875 0-1.547.468-.656.47-1.031 1.235v7.531h-1.797V32.987h1.703zm13.531 9.282q.97 0 1.688-.578.719-.594.797-1.47h1.719q-.063.907-.641 1.735-.563.813-1.531 1.313-.954.484-2.032.484-2.156 0-3.437-1.437-1.266-1.454-1.266-3.954v-.296q0-1.547.563-2.75.562-1.204 1.625-1.86 1.062-.672 2.5-.672 1.781 0 2.953 1.063 1.187 1.062 1.266 2.765h-1.72q-.077-1.015-.78-1.671-.688-.672-1.72-.672-1.374 0-2.14 1-.75.984-.75 2.86v.343q0 1.828.75 2.812.75.985 2.156.985zm10.141 1.484q-2.14 0-3.5-1.406-1.344-1.422-1.344-3.781v-.344q0-1.563.594-2.797.61-1.234 1.688-1.938 1.078-.703 2.343-.703 2.063 0 3.203 1.36 1.141 1.36 1.141 3.89v.75h-7.156q.031 1.563.906 2.532.875.953 2.219.953.969 0 1.625-.39.672-.392 1.172-1.032l1.093.86q-1.328 2.046-3.984 2.046zm-.219-9.484q-1.093 0-1.843.797-.735.796-.907 2.234h5.282v-.14q-.079-1.376-.75-2.126-.657-.765-1.782-.765zm20.766 4.11q0 2.421-1.11 3.905-1.093 1.47-2.984 1.47-1.922 0-3.031-1.235v5.093h-1.797V32.987h1.64l.094 1.172q1.094-1.375 3.063-1.375 1.906 0 3.016 1.438 1.109 1.437 1.109 4v.156zm-1.813-.204q0-1.781-.765-2.813-.75-1.046-2.078-1.046-1.641 0-2.47 1.453v5.062q.813 1.438 2.485 1.438 1.297 0 2.063-1.032.765-1.03.765-3.062zm8.266 5.578q-2.14 0-3.5-1.406-1.344-1.422-1.344-3.781v-.344q0-1.563.594-2.797.61-1.234 1.688-1.938 1.078-.703 2.343-.703 2.063 0 3.203 1.36 1.141 1.36 1.141 3.89v.75h-7.156q.031 1.563.906 2.532.875.953 2.219.953.969 0 1.625-.39.672-.392 1.172-1.032l1.093.86q-1.328 2.046-3.984 2.046zm-.219-9.484q-1.093 0-1.843.797-.735.796-.907 2.234h5.282v-.14q-.079-1.376-.75-2.126-.657-.765-1.782-.765zm11.938.328q-.406-.063-.875-.063-1.781 0-2.422 1.516v7.5h-1.797V32.987h1.75l.031 1.22q.89-1.423 2.516-1.423.531 0 .797.141v1.672zm13.422 8.953q-.157-.313-.25-1.11-1.266 1.313-3.016 1.313-1.563 0-2.563-.89-1-.891-1-2.25 0-1.641 1.25-2.547 1.266-.922 3.532-.922h1.765v-.828q0-.954-.578-1.516-.562-.563-1.656-.563-.969 0-1.625.5-.656.485-.656 1.172h-1.813q0-.78.563-1.515.562-.75 1.515-1.172.97-.438 2.125-.438 1.829 0 2.86.922 1.031.906 1.078 2.516v4.86q0 1.452.36 2.312v.156h-1.891zm-3-1.375q.859 0 1.609-.438.766-.437 1.11-1.14v-2.172h-1.422q-3.313 0-3.313 1.938 0 .859.563 1.343.562.469 1.453.469zm13.625-1.422q0-.734-.547-1.14-.547-.407-1.922-.704t-2.188-.703q-.796-.406-1.187-.969-.375-.578-.375-1.359 0-1.297 1.094-2.187 1.093-.907 2.812-.907 1.797 0 2.906.938 1.125.922 1.125 2.36h-1.828q0-.735-.625-1.266-.625-.547-1.578-.547-1 0-1.562.437-.547.422-.547 1.125 0 .64.515.985.516.328 1.875.64 1.36.297 2.188.719.844.406 1.25 1t.406 1.438q0 1.421-1.14 2.28-1.125.86-2.938.86-1.266 0-2.25-.453-.969-.453-1.531-1.25-.547-.813-.547-1.75h1.812q.047.906.72 1.438.687.53 1.796.53 1.031 0 1.64-.406.626-.421.626-1.109zm10 0q0-.734-.547-1.14-.547-.407-1.922-.704t-2.188-.703q-.796-.406-1.187-.969-.375-.578-.375-1.359 0-1.297 1.094-2.187 1.093-.907 2.812-.907 1.797 0 2.906.938 1.125.922 1.125 2.36h-1.828q0-.735-.625-1.266-.625-.547-1.578-.547-1 0-1.562.437-.547.422-.547 1.125 0 .64.515.985.516.328 1.875.64 1.36.297 2.188.719.844.406 1.25 1t.406 1.438q0 1.421-1.14 2.28-1.125.86-2.938.86-1.266 0-2.25-.453-.969-.453-1.531-1.25-.547-.813-.547-1.75h1.812q.047.906.72 1.438.687.53 1.796.53 1.031 0 1.64-.406.626-.421.626-1.109zm8.234 3q-2.14 0-3.5-1.406-1.344-1.422-1.344-3.781v-.344q0-1.563.594-2.797.61-1.234 1.688-1.938 1.078-.703 2.343-.703 2.063 0 3.203 1.36 1.141 1.36 1.141 3.89v.75h-7.156q.031 1.563.906 2.532.875.953 2.219.953.969 0 1.625-.39.672-.392 1.172-1.032l1.093.86q-1.328 2.046-3.984 2.046zm-.219-9.484q-1.093 0-1.843.797-.735.796-.907 2.234h5.282v-.14q-.079-1.376-.75-2.126-.657-.765-1.782-.765zm9.282-3.844v2.562h1.984v1.391h-1.984v6.547q0 .64.265.969.266.312.906.312.313 0 .86-.125v1.469q-.719.203-1.39.203-1.204 0-1.829-.734-.61-.735-.61-2.094v-6.547h-1.921v-1.39h1.922v-2.563h1.797z"/></svg>