<svg fill="none" stroke-linecap="square" stroke-miterlimit="10" width="794" height="491" xmlns="http://www.w3.org/2000/svg"><path fill="#fff" d="M0 0h794v491H0V0z"/><path stroke="#ccc" stroke-linecap="butt" d="M102.5 72.5v373M209.5 72.5v373M314.5 72.5v373M421.5 72.5v373M528.5 72.5v373M635.5 72.5v373M66.5 445.5h621"/><path stroke="#333" stroke-linecap="butt" d="M66.5 352.5h621"/><path stroke="#ccc" stroke-linecap="butt" d="M66.5 258.5h621M66.5 165.5h621M66.5 72.5h621"/><clipPath id="a"><path d="M66.55 72.417h621.131V445.45H66.55V72.417z"/></clipPath><path stroke="#4285f4" stroke-width="2" stroke-linecap="butt" clip-path="url(#a)" d="M332.832 352.192s12.236-11.54 18.063-12.793c5.827-1.254 11.654 3.57 17.48 4.86 5.827 1.289 12.237 1.949 18.063 2.974 5.827 1.026 11.654 2.28 17.48 3.273 5.827.993 12.043 3.884 18.063 2.777 6.021-1.108 12.43-7.212 18.063-9.422 5.633-2.209 11.265-3.674 16.898-4.442 5.632-.769 12.236.633 18.063-.179 5.827-.812 11.653-4.147 17.48-4.7 5.827-.554 12.236 1.406 18.063 1.428 5.827.022 11.654-.357 17.48-1.25 5.827-.893 12.042-4.45 18.063-4.244 6.021.205 12.236 5.298 18.063 5.474 5.827.175 11.654-3.835 17.48-4.245 5.827-.41 12.236 1.71 18.063 1.845 5.827.135 11.654-.826 17.48-.972 5.827-.146 12.042-.955 18.063.1 6.021 1.054 12.625 3.713 18.063 6.227 5.439 2.514 10.877 7.8 16.315 9.46 5.438 1.661 18.063.556 18.063.556"/><path stroke="#db4437" stroke-width="2" stroke-linecap="butt" clip-path="url(#a)" d="M66.55 352.192s12.236-13.969 18.063-16.86c5.827-2.892 11.653 1.04 17.48-1.035 5.827-2.074 12.042-8.189 18.063-11.792 6.021-3.603 12.236-7.672 18.063-9.826 5.827-2.154 11.653-6.849 17.48-3.413 5.827 3.435 12.236 21.165 18.063 24.824 5.827 3.66 11.654-7.947 17.48-2.068 5.827 5.878 12.042 37.668 18.063 38.581 6.021.914 12.625-24.945 18.063-33.1 5.438-8.154 10.877-13.991 16.315-19.032 5.438-5.04 12.236-7.29 18.063-12.412 5.827-5.122 11.653-19.69 17.48-18.722 5.827.967 12.236 24.53 18.063 25.342 5.827.812 11.654-13.291 17.48-19.653 5.827-6.362 12.042-17.48 18.063-19.136 6.021-1.655 12.236 10.652 18.063 9.206 5.827-1.446 11.654-14.77 17.48-17.584 5.827-2.814 12.237 4.658 18.063.724 5.827-3.935 11.654-19.64 17.48-24.308 5.827-4.668 12.043-2.189 18.063-3.827 6.021-1.638 12.43-13.511 18.063-6 5.633 7.513 11.265 33.126 16.898 50.685 5.632 17.559 12.236 56.566 18.063 58.441 5.827 1.876 11.653-35.668 17.48-45.305 5.827-9.636 12.236-9.24 18.063-12.93 5.827-3.688 11.654-8.25 17.48-9.619 5.827-1.37 12.042 6.5 18.063 1.448 6.021-5.051 12.236-27.788 18.063-31.755 5.827-3.967 11.654 3.373 17.48 6.93 5.827 3.558 12.236 21.216 18.063 14.895 5.827-6.32 11.654-41.93 17.48-52.339 5.827-10.408 12.042-8.05 18.063-10.447 6.021-2.396 12.625-.15 18.063-3.93 5.439-3.781 10.877-9.952 16.315-19.136 5.438-9.184 18.063-39.823 18.063-39.823"/><path stroke="#f4b400" stroke-width="2" stroke-linecap="butt" clip-path="url(#a)" d="M66.55 352.192s12.236-5.717 18.063-2.268c5.827 3.45 11.653 21.407 17.48 22.889 5.827 1.48 12.042-14.341 18.063-14.467 6.021-.126 12.236 11.014 18.063 13.71 5.827 2.698 11.653-1.801 17.48 2.916s12.236 25.26 18.063 26.235c5.827.974 11.654-18.566 17.48-19.541 5.827-.976 12.042 17.903 18.063 14.143 6.021-3.761 12.625-31.308 18.063-36.708 5.438-5.4 10.877 2.337 16.315.756 5.438-1.58 12.236-7.672 18.063-11.336 5.827-3.664 11.653-14.854 17.48-11.012 5.827 3.841 12.236 32.74 18.063 35.196 5.827 2.456 11.654-15.722 17.48-19.326 5.827-3.604 12.042-4.822 18.063-2.375 6.021 2.447 12.236 16.736 18.063 17.058 5.827.322 11.654-11.38 17.48-14.575 5.827-3.195 12.237-2.922 18.063-4.75 5.827-1.828 11.654.943 17.48-6.37 5.827-7.313 12.043-38.309 18.063-38.759 6.021-.45 12.43 27.18 18.063 36.06 5.633 8.88 11.265 6.084 16.898 19.541 5.632 13.458 12.236 59.39 18.063 65.426 5.827 6.036 11.653-22.252 17.48-27.099 5.827-4.847 12.236 2.958 18.063-2.051 5.827-5.01 11.654-20.728 17.48-28.07 5.827-7.343 12.042-12.56 18.063-16.519 6.021-3.959 12.236-5.815 18.063-7.233 5.827-1.419 11.654.69 17.48-1.512 5.827-2.202 12.236-4.671 18.063-12.092 5.827-7.42 11.654-22.596 17.48-32.82 5.827-10.224 12.042-21.557 18.063-29.474 6.021-7.918 12.625-13.84 18.063-18.03 5.439-4.19 10.877-6.646 16.315-8.853 5.438-2.207 18.063-4.858 18.063-4.858"/><path fill="none" clip-path="url(#a)" d="M335.832 352.192a3 3 0 1 1-6 0 3 3 0 0 1 6 0zM353.895 339.399a3 3 0 1 1-6 0 3 3 0 0 1 6 0zM371.375 344.258a3 3 0 1 1-6 0 3 3 0 0 1 6 0zM389.438 347.233a3 3 0 1 1-6 0 3 3 0 0 1 6 0zM406.919 350.506a3 3 0 1 1-6 0 3 3 0 0 1 6 0zM424.981 353.283a3 3 0 1 1-6 0 3 3 0 0 1 6 0zM443.044 343.861a3 3 0 1 1-6 0 3 3 0 0 1 6 0zM459.942 339.419a3 3 0 1 1-6 0 3 3 0 0 1 6 0zM478.005 339.24a3 3 0 1 1-6 0 3 3 0 0 1 6 0zM495.485 334.54a3 3 0 1 1-6 0 3 3 0 0 1 6 0zM513.548 335.968a3 3 0 1 1-6 0 3 3 0 0 1 6 0zM531.028 334.718a3 3 0 1 1-6 0 3 3 0 0 1 6 0zM549.091 330.474a3 3 0 1 1-6 0 3 3 0 0 1 6 0zM567.154 335.948a3 3 0 1 1-6 0 3 3 0 0 1 6 0zM584.634 331.703a3 3 0 1 1-6 0 3 3 0 0 1 6 0zM602.697 333.548a3 3 0 1 1-6 0 3 3 0 0 1 6 0zM620.178 332.576a3 3 0 1 1-6 0 3 3 0 0 1 6 0zM638.24 332.675a3 3 0 1 1-6 0 3 3 0 0 1 6 0zM656.303 338.903a3 3 0 1 1-6 0 3 3 0 0 1 6 0zM672.618 348.364a3 3 0 1 1-6 0 3 3 0 0 1 6 0zM690.681 348.92a3 3 0 1 1-6 0 3 3 0 0 1 6 0zM69.55 352.192a3 3 0 1 1-6 0 3 3 0 0 1 6 0zM87.613 335.332a3 3 0 1 1-6 0 3 3 0 0 1 6 0zM105.093 334.297a3 3 0 1 1-6 0 3 3 0 0 1 6 0zM123.156 322.505a3 3 0 1 1-6 0 3 3 0 0 1 6 0zM141.219 312.679a3 3 0 1 1-6 0 3 3 0 0 1 6 0zM158.7 309.266a3 3 0 1 1-6 0 3 3 0 0 1 6 0zM176.762 334.09a3 3 0 1 1-6 0 3 3 0 0 1 6 0zM194.242 332.022a3 3 0 1 1-6 0 3 3 0 0 1 6 0zM212.305 370.603a3 3 0 1 1-6 0 3 3 0 0 1 6 0zM230.368 337.504a3 3 0 1 1-6 0 3 3 0 0 1 6 0zM246.683 318.471a3 3 0 1 1-6 0 3 3 0 0 1 6 0zM264.746 306.059a3 3 0 1 1-6 0 3 3 0 0 1 6 0zM282.226 287.337a3 3 0 1 1-6 0 3 3 0 0 1 6 0zM300.29 312.679a3 3 0 1 1-6 0 3 3 0 0 1 6 0zM317.77 293.026a3 3 0 1 1-6 0 3 3 0 0 1 6 0zM335.832 273.89a3 3 0 1 1-6 0 3 3 0 0 1 6 0zM353.895 283.096a3 3 0 1 1-6 0 3 3 0 0 1 6 0zM371.375 265.512a3 3 0 1 1-6 0 3 3 0 0 1 6 0zM389.438 266.236a3 3 0 1 1-6 0 3 3 0 0 1 6 0zM406.919 241.928a3 3 0 1 1-6 0 3 3 0 0 1 6 0zM424.981 238.101a3 3 0 1 1-6 0 3 3 0 0 1 6 0zM443.044 232.102a3 3 0 1 1-6 0 3 3 0 0 1 6 0zM459.942 282.786a3 3 0 1 1-6 0 3 3 0 0 1 6 0z"/><path fill="none" clip-path="url(#a)" d="M478.005 341.227a3 3 0 1 1-6 0 3 3 0 0 1 6 0zM495.485 295.922a3 3 0 1 1-6 0 3 3 0 0 1 6 0zM513.548 282.993a3 3 0 1 1-6 0 3 3 0 0 1 6 0zM531.028 273.373a3 3 0 1 1-6 0 3 3 0 0 1 6 0zM549.091 274.821a3 3 0 1 1-6 0 3 3 0 0 1 6 0zM567.154 243.066a3 3 0 1 1-6 0 3 3 0 0 1 6 0zM584.634 249.996a3 3 0 1 1-6 0 3 3 0 0 1 6 0zM602.697 264.891a3 3 0 1 1-6 0 3 3 0 0 1 6 0zM620.178 212.552a3 3 0 1 1-6 0 3 3 0 0 1 6 0zM638.24 202.105a3 3 0 1 1-6 0 3 3 0 0 1 6 0zM656.303 198.175a3 3 0 1 1-6 0 3 3 0 0 1 6 0zM672.618 179.039a3 3 0 1 1-6 0 3 3 0 0 1 6 0zM690.681 139.216a3 3 0 1 1-6 0 3 3 0 0 1 6 0zM69.55 352.192a3 3 0 1 1-6 0 3 3 0 0 1 6 0zM87.613 349.924a3 3 0 1 1-6 0 3 3 0 0 1 6 0zM105.093 372.813a3 3 0 1 1-6 0 3 3 0 0 1 6 0zM123.156 358.346a3 3 0 1 1-6 0 3 3 0 0 1 6 0zM141.219 372.057a3 3 0 1 1-6 0 3 3 0 0 1 6 0zM158.7 374.972a3 3 0 1 1-6 0 3 3 0 0 1 6 0zM176.762 401.207a3 3 0 1 1-6 0 3 3 0 0 1 6 0zM194.242 381.666a3 3 0 1 1-6 0 3 3 0 0 1 6 0zM212.305 395.809a3 3 0 1 1-6 0 3 3 0 0 1 6 0zM230.368 359.101a3 3 0 1 1-6 0 3 3 0 0 1 6 0zM246.683 359.857a3 3 0 1 1-6 0 3 3 0 0 1 6 0zM264.746 348.52a3 3 0 1 1-6 0 3 3 0 0 1 6 0zM282.226 337.509a3 3 0 1 1-6 0 3 3 0 0 1 6 0zM300.29 372.705a3 3 0 1 1-6 0 3 3 0 0 1 6 0zM317.77 353.38a3 3 0 1 1-6 0 3 3 0 0 1 6 0zM335.832 351.004a3 3 0 1 1-6 0 3 3 0 0 1 6 0zM353.895 368.062a3 3 0 1 1-6 0 3 3 0 0 1 6 0zM371.375 353.487a3 3 0 1 1-6 0 3 3 0 0 1 6 0zM389.438 348.737a3 3 0 1 1-6 0 3 3 0 0 1 6 0zM406.919 342.367a3 3 0 1 1-6 0 3 3 0 0 1 6 0zM424.981 303.608a3 3 0 1 1-6 0 3 3 0 0 1 6 0zM443.044 339.668a3 3 0 1 1-6 0 3 3 0 0 1 6 0zM459.942 359.21a3 3 0 1 1-6 0 3 3 0 0 1 6 0zM478.005 424.635a3 3 0 1 1-6 0 3 3 0 0 1 6 0zM495.485 397.536a3 3 0 1 1-6 0 3 3 0 0 1 6 0zM513.548 395.485a3 3 0 1 1-6 0 3 3 0 0 1 6 0zM531.028 367.414a3 3 0 1 1-6 0 3 3 0 0 1 6 0zM549.091 350.896a3 3 0 1 1-6 0 3 3 0 0 1 6 0zM567.154 343.663a3 3 0 1 1-6 0 3 3 0 0 1 6 0zM584.634 342.151a3 3 0 1 1-6 0 3 3 0 0 1 6 0zM602.697 330.06a3 3 0 1 1-6 0 3 3 0 0 1 6 0zM620.178 297.239a3 3 0 1 1-6 0 3 3 0 0 1 6 0zM638.24 267.765a3 3 0 1 1-6 0 3 3 0 0 1 6 0zM656.303 249.735a3 3 0 1 1-6 0 3 3 0 0 1 6 0zM672.618 240.882a3 3 0 1 1-6 0 3 3 0 0 1 6 0zM690.681 236.024a3 3 0 1 1-6 0 3 3 0 0 1 6 0z"/><path fill="#757575" d="M27.628 446.762h-2.86v-.875h2.86v.875zm6.219 3.188h-5.594v-.781l2.953-3.281q.657-.75.906-1.204.25-.468.25-.968 0-.672-.406-1.094-.39-.438-1.078-.438-.797 0-1.25.47-.453.452-.453 1.28h-1.078q0-1.187.75-1.906.765-.734 2.031-.734 1.203 0 1.89.625.688.625.688 1.672 0 1.25-1.61 3l-2.28 2.468h4.28v.891zm6.765-3.64q0 1.906-.656 2.843-.64.922-2.031.922-1.36 0-2.016-.906-.656-.906-.687-2.719v-1.438q0-1.89.64-2.796.657-.922 2.047-.922 1.375 0 2.032.89.656.875.671 2.72v1.405zm-1.093-1.485q0-1.375-.39-2-.376-.64-1.22-.64-.828 0-1.218.64-.375.625-.375 1.922v1.734q0 1.375.39 2.047.406.656 1.219.656.797 0 1.188-.625.39-.625.406-1.953v-1.781zm2.875 4.563q0-.282.156-.47.172-.187.5-.187.344 0 .516.188.171.187.171.469 0 .265-.171.453-.172.171-.516.171-.328 0-.5-.171-.156-.188-.156-.454zm8.218-3.079q0 1.907-.656 2.844-.64.922-2.031.922-1.36 0-2.016-.906-.656-.906-.687-2.719v-1.438q0-1.89.64-2.796.657-.922 2.047-.922 1.375 0 2.032.89.656.875.671 2.72v1.405zm-1.093-1.484q0-1.375-.39-2-.376-.64-1.22-.64-.828 0-1.218.64-.375.625-.375 1.922v1.734q0 1.375.39 2.047.406.656 1.219.656.797 0 1.188-.625.39-.625.406-1.953v-1.781zm2.64-1.766q0-.765.485-1.265.5-.5 1.265-.5.782 0 1.266.5t.484 1.297v.421q0 .766-.5 1.266-.484.484-1.234.484-.766 0-1.266-.484-.5-.5-.5-1.312v-.407zm.813.453q0 .454.25.75.265.297.703.297.422 0 .672-.28.25-.298.25-.798v-.422q0-.453-.25-.75-.25-.312-.688-.312-.437 0-.687.312-.25.297-.25.766v.438zm3.344 4.344q0-.765.484-1.25.5-.5 1.266-.5.765 0 1.25.5.5.485.5 1.297v.406q0 .766-.485 1.266-.484.5-1.25.5-.765 0-1.265-.484-.5-.5-.5-1.313v-.422zm.812.453q0 .47.25.766.266.297.703.297.422 0 .672-.281.25-.297.25-.797v-.438q0-.469-.266-.75-.25-.297-.671-.297-.422 0-.688.297-.25.281-.25.781v.422zm-2.953 1-.625-.39 4.172-6.672.61.39-4.157 6.672zM40.612 353.051q0 1.906-.656 2.844-.64.922-2.031.922-1.36 0-2.016-.907-.656-.906-.687-2.718v-1.438q0-1.89.64-2.797.657-.922 2.047-.922 1.375 0 2.032.891.656.875.671 2.719v1.406zm-1.093-1.484q0-1.375-.39-2-.376-.64-1.22-.64-.828 0-1.218.64-.375.625-.375 1.922v1.734q0 1.375.39 2.047.406.656 1.219.656.797 0 1.188-.625.39-.625.406-1.953v-1.781zm2.875 4.562q0-.281.156-.469.172-.187.5-.187.344 0 .516.187.171.188.171.47 0 .265-.171.452-.172.172-.516.172-.328 0-.5-.172-.156-.187-.156-.453zm8.218-3.078q0 1.906-.656 2.844-.64.922-2.031.922-1.36 0-2.016-.907-.656-.906-.687-2.718v-1.438q0-1.89.64-2.797.657-.922 2.047-.922 1.375 0 2.032.891.656.875.671 2.719v1.406zm-1.093-1.484q0-1.375-.39-2-.376-.64-1.22-.64-.828 0-1.218.64-.375.625-.375 1.922v1.734q0 1.375.39 2.047.406.656 1.219.656.797 0 1.188-.625.39-.625.406-1.953v-1.781zm2.64-1.766q0-.766.485-1.266.5-.5 1.265-.5.782 0 1.266.5t.484 1.297v.422q0 .766-.5 1.266-.484.484-1.234.484-.766 0-1.266-.484-.5-.5-.5-1.313v-.406zm.813.453q0 .453.25.75.265.297.703.297.422 0 .672-.281.25-.297.25-.797v-.422q0-.453-.25-.75-.25-.312-.688-.312-.437 0-.687.312-.25.297-.25.766v.437zm3.344 4.344q0-.766.484-1.25.5-.5 1.266-.5.765 0 1.25.5.5.484.5 1.297v.406q0 .766-.485 1.266-.484.5-1.25.5-.765 0-1.265-.485-.5-.5-.5-1.312v-.422zm.812.453q0 .469.25.766.266.297.703.297.422 0 .672-.282.25-.297.25-.797v-.437q0-.469-.266-.75-.25-.297-.671-.297-.422 0-.688.297-.25.281-.25.781v.422zm-2.953 1-.625-.39 4.172-6.672.61.39-4.157 6.672zM33.847 263.433h-5.594v-.78l2.953-3.282q.657-.75.906-1.203.25-.47.25-.97 0-.67-.406-1.093-.39-.437-1.078-.437-.797 0-1.25.468-.453.454-.453 1.282h-1.078q0-1.188.75-1.907.765-.734 2.031-.734 1.203 0 1.89.625.688.625.688 1.672 0 1.25-1.61 3l-2.28 2.469h4.28v.89zm6.765-3.64q0 1.906-.656 2.843-.64.922-2.031.922-1.36 0-2.016-.906-.656-.906-.687-2.719v-1.437q0-1.89.64-2.797.657-.922 2.047-.922 1.375 0 2.032.89.656.876.671 2.72v1.406zm-1.093-1.485q0-1.375-.39-2-.376-.64-1.22-.64-.828 0-1.218.64-.375.625-.375 1.922v1.735q0 1.375.39 2.046.406.657 1.219.657.797 0 1.188-.625.39-.625.406-1.953v-1.782zm2.875 4.563q0-.281.156-.469.172-.187.5-.187.344 0 .516.187.171.188.171.469 0 .265-.171.453-.172.172-.516.172-.328 0-.5-.172-.156-.188-.156-.453zm8.218-3.078q0 1.906-.656 2.843-.64.922-2.031.922-1.36 0-2.016-.906-.656-.906-.687-2.719v-1.437q0-1.89.64-2.797.657-.922 2.047-.922 1.375 0 2.032.89.656.876.671 2.72v1.406zm-1.093-1.485q0-1.375-.39-2-.376-.64-1.22-.64-.828 0-1.218.64-.375.625-.375 1.922v1.735q0 1.375.39 2.046.406.657 1.219.657.797 0 1.188-.625.39-.625.406-1.953v-1.782zm2.64-1.765q0-.766.485-1.266.5-.5 1.265-.5.782 0 1.266.5t.484 1.297v.422q0 .765-.5 1.265-.484.485-1.234.485-.766 0-1.266-.485-.5-.5-.5-1.312v-.406zm.813.453q0 .453.25.75.265.297.703.297.422 0 .672-.282.25-.296.25-.796v-.422q0-.453-.25-.75-.25-.313-.688-.313-.437 0-.687.313-.25.297-.25.765v.438zm3.344 4.344q0-.766.484-1.25.5-.5 1.266-.5.765 0 1.25.5.5.484.5 1.296v.407q0 .765-.485 1.265-.484.5-1.25.5-.765 0-1.265-.484-.5-.5-.5-1.313v-.421zm.812.453q0 .468.25.765.266.297.703.297.422 0 .672-.281.25-.297.25-.797v-.437q0-.47-.266-.75-.25-.297-.671-.297-.422 0-.688.297-.25.28-.25.78v.423zm-2.953 1-.625-.39 4.172-6.673.61.39-4.157 6.673zM32.831 167.316h1.188v.875H32.83v1.984h-1.078v-1.984h-3.89v-.641l3.812-5.906h1.156v5.672zm-3.734 0h2.656v-4.188l-.14.235-2.516 3.953zm11.515-.782q0 1.907-.656 2.844-.64.922-2.031.922-1.36 0-2.016-.906-.656-.906-.687-2.719v-1.438q0-1.89.64-2.796.657-.922 2.047-.922 1.375 0 2.032.89.656.875.671 2.72v1.405zm-1.093-1.484q0-1.375-.39-2-.376-.64-1.22-.64-.828 0-1.218.64-.375.625-.375 1.922v1.734q0 1.375.39 2.047.406.656 1.219.656.797 0 1.188-.625.39-.625.406-1.953v-1.781zm2.875 4.563q0-.282.156-.47.172-.187.5-.187.344 0 .516.188.171.187.171.469 0 .265-.171.453-.172.172-.516.172-.328 0-.5-.172-.156-.188-.156-.453zm8.218-3.079q0 1.907-.656 2.844-.64.922-2.031.922-1.36 0-2.016-.906-.656-.906-.687-2.719v-1.438q0-1.89.64-2.796.657-.922 2.047-.922 1.375 0 2.032.89.656.875.671 2.72v1.405zm-1.093-1.484q0-1.375-.39-2-.376-.64-1.22-.64-.828 0-1.218.64-.375.625-.375 1.922v1.734q0 1.375.39 2.047.406.656 1.219.656.797 0 1.188-.625.39-.625.406-1.953v-1.781zm2.64-1.766q0-.765.485-1.265.5-.5 1.265-.5.782 0 1.266.5t.484 1.297v.422q0 .765-.5 1.265-.484.485-1.234.485-.766 0-1.266-.485-.5-.5-.5-1.312v-.407zm.813.454q0 .453.25.75.265.296.703.296.422 0 .672-.28.25-.298.25-.798v-.422q0-.453-.25-.75-.25-.312-.688-.312-.437 0-.687.312-.25.297-.25.766v.438zm3.344 4.343q0-.765.484-1.25.5-.5 1.266-.5.765 0 1.25.5.5.485.5 1.297v.406q0 .766-.485 1.266-.484.5-1.25.5-.765 0-1.265-.484-.5-.5-.5-1.313v-.422zm.812.453q0 .47.25.766.266.297.703.297.422 0 .672-.281.25-.297.25-.797v-.438q0-.468-.266-.75-.25-.297-.671-.297-.422 0-.688.297-.25.282-.25.782v.421zm-2.953 1-.625-.39 4.172-6.672.61.39-4.157 6.672zM32.519 68.385v.907h-.203q-1.266.03-2.016.765-.75.719-.875 2.032.688-.766 1.844-.766 1.11 0 1.781.781.672.781.672 2.031 0 1.313-.719 2.11-.719.797-1.937.797-1.22 0-1.985-.938-.75-.953-.75-2.437v-.407q0-2.359 1-3.609t2.985-1.266h.203zm-1.422 3.844q-.563 0-1.031.328-.47.328-.657.844v.39q0 1.063.47 1.704.483.64 1.187.64.734 0 1.156-.53.422-.548.422-1.423t-.422-1.406q-.422-.547-1.125-.547zm9.515 1.047q0 1.906-.656 2.844-.64.922-2.031.922-1.36 0-2.016-.907-.656-.906-.687-2.718v-1.438q0-1.89.64-2.797.657-.922 2.047-.922 1.375 0 2.032.891.656.875.671 2.719v1.406zm-1.093-1.484q0-1.375-.39-2-.376-.641-1.22-.641-.828 0-1.218.64-.375.626-.375 1.923v1.734q0 1.375.39 2.047.406.656 1.219.656.797 0 1.188-.625.39-.625.406-1.953v-1.781zm2.875 4.562q0-.281.156-.469.172-.187.5-.187.344 0 .516.187.171.188.171.47 0 .265-.171.452-.172.172-.516.172-.328 0-.5-.172-.156-.187-.156-.453zm8.218-3.078q0 1.906-.656 2.844-.64.922-2.031.922-1.36 0-2.016-.907-.656-.906-.687-2.718v-1.438q0-1.89.64-2.797.657-.922 2.047-.922 1.375 0 2.032.891.656.875.671 2.719v1.406zm-1.093-1.484q0-1.375-.39-2-.376-.641-1.22-.641-.828 0-1.218.64-.375.626-.375 1.923v1.734q0 1.375.39 2.047.406.656 1.219.656.797 0 1.188-.625.39-.625.406-1.953v-1.781zm2.64-1.766q0-.766.485-1.266.5-.5 1.265-.5.782 0 1.266.5t.484 1.297v.422q0 .766-.5 1.266-.484.484-1.234.484-.766 0-1.266-.484-.5-.5-.5-1.313v-.406zm.813.453q0 .453.25.75.265.297.703.297.422 0 .672-.281.25-.297.25-.797v-.422q0-.453-.25-.75-.25-.312-.688-.312-.437 0-.687.312-.25.297-.25.766v.437zm3.344 4.344q0-.766.484-1.25.5-.5 1.266-.5.765 0 1.25.5.5.484.5 1.297v.406q0 .766-.485 1.266-.484.5-1.25.5-.765 0-1.265-.485-.5-.5-.5-1.312v-.422zm.812.453q0 .469.25.766.266.297.703.297.422 0 .672-.282.25-.297.25-.797v-.437q0-.469-.266-.75-.25-.297-.671-.297-.422 0-.688.297-.25.281-.25.781v.422zm-2.953 1-.625-.39 4.172-6.672.61.39-4.157 6.672zM77.359 463.45H76.28v-7.219l-2.188.797v-.984l3.11-1.172h.156v8.578zm5.812-3.188h-2.86v-.875h2.86v.875zm4.485-5.343h1.14v6.047q0 1.218-.75 1.921-.734.688-1.953.688-1.265 0-1.984-.656-.703-.656-.703-1.828h1.125q0 .734.39 1.156.407.406 1.172.406.703 0 1.125-.437.438-.454.438-1.235v-6.062zm7.172 7.906q-.625.75-1.86.75-1.015 0-1.547-.594-.531-.594-.531-1.75v-4.125h1.078v4.094q0 1.453 1.172 1.453 1.25 0 1.656-.937v-4.61h1.094v6.344h-1.031l-.031-.625zm4.265.625h-1.078v-9h1.078v9zm4.078-3.188h-2.86v-.875h2.86v.875zm6.219 3.188h-5.594v-.781l2.953-3.281q.657-.75.907-1.204.25-.468.25-.968 0-.672-.407-1.094-.39-.438-1.078-.438-.797 0-1.25.47-.453.452-.453 1.28h-1.078q0-1.187.75-1.906.766-.734 2.031-.734 1.203 0 1.89.625.688.625.688 1.672 0 1.25-1.609 3l-2.281 2.468h4.281v.891zm6.766-3.64q0 1.906-.657 2.843-.64.922-2.03.922-1.36 0-2.016-.906-.657-.906-.688-2.719v-1.438q0-1.89.64-2.796.657-.922 2.048-.922 1.375 0 2.03.89.657.875.673 2.72v1.405zm-1.094-1.485q0-1.375-.39-2-.376-.64-1.22-.64-.828 0-1.218.64-.375.625-.375 1.922v1.734q0 1.375.39 2.047.407.656 1.22.656.796 0 1.187-.625.39-.625.406-1.953v-1.781zm6.297 5.125h-1.078v-7.219l-2.188.797v-.984l3.11-1.172h.156v8.578zm8.625-6.313q0 .641-.344 1.141t-.906.781q.656.282 1.047.844.39.547.39 1.25 0 1.094-.75 1.766-.734.656-1.953.656-1.234 0-1.984-.656-.735-.672-.735-1.766 0-.703.375-1.25.375-.562 1.047-.844-.562-.28-.89-.78-.328-.5-.328-1.142 0-1.078.687-1.703.688-.64 1.828-.64 1.125 0 1.813.64.703.625.703 1.703zm-.89 3.985q0-.719-.454-1.156-.453-.454-1.187-.454-.735 0-1.188.454-.437.437-.437 1.171 0 .72.437 1.141.438.406 1.203.406.75 0 1.188-.422.437-.421.437-1.14zm-1.626-5.438q-.64 0-1.047.407-.39.39-.39 1.078 0 .64.39 1.047.39.406 1.032.406.656 0 1.046-.406.391-.407.391-1.047 0-.656-.406-1.063-.406-.422-1.016-.422zM182.57 463.45h-1.077v-7.219l-2.188.797v-.984l3.11-1.172h.156v8.578zm5.813-3.188h-2.859v-.875h2.86v.875zm4.485-5.343h1.14v6.047q0 1.218-.75 1.921-.734.688-1.953.688-1.265 0-1.984-.656-.703-.656-.703-1.828h1.125q0 .734.39 1.156.407.406 1.172.406.703 0 1.125-.437.438-.454.438-1.235v-6.062zm7.172 8.531q-.094-.188-.157-.672-.75.797-1.796.797-.938 0-1.547-.531-.594-.531-.594-1.36 0-.984.75-1.53.75-.548 2.125-.548h1.047v-.5q0-.562-.344-.89-.328-.344-1-.344-.578 0-.969.297-.39.281-.39.703h-1.094q0-.485.328-.922.344-.438.922-.688.578-.265 1.266-.265 1.109 0 1.718.547.625.547.657 1.5v2.922q0 .875.218 1.39v.094h-1.14zm-1.797-.828q.515 0 .969-.266.453-.265.656-.687v-1.297h-.844q-2 0-2 1.172 0 .5.344.797.344.28.875.28zm5.906-5.516.031.797q.735-.906 1.907-.906 2.015 0 2.03 2.265v4.188h-1.093v-4.203q0-.672-.312-1-.297-.328-.954-.328-.53 0-.937.281-.39.281-.61.734v4.516h-1.078v-6.344h1.016zm8.234 3.156h-2.859v-.875h2.86v.875zm6.22 3.188h-5.595v-.781l2.954-3.281q.656-.75.906-1.204.25-.468.25-.968 0-.672-.406-1.094-.391-.438-1.079-.438-.796 0-1.25.47-.453.452-.453 1.28h-1.078q0-1.187.75-1.906.766-.734 2.031-.734 1.204 0 1.891.625.688.625.688 1.672 0 1.25-1.61 3l-2.281 2.468h4.281v.891zm6.765-3.64q0 1.906-.656 2.843-.641.922-2.032.922-1.36 0-2.015-.906-.657-.906-.688-2.719v-1.438q0-1.89.64-2.796.657-.922 2.048-.922 1.375 0 2.03.89.657.875.673 2.72v1.405zm-1.094-1.485q0-1.375-.39-2-.376-.64-1.22-.64-.827 0-1.218.64-.375.625-.375 1.922v1.734q0 1.375.39 2.047.407.656 1.22.656.796 0 1.187-.625.39-.625.406-1.953v-1.781zm6.297 5.125h-1.078v-7.219l-2.188.797v-.984l3.11-1.172h.156v8.578zm7.594-3.75q-.328.406-.813.656-.469.235-1.031.235-.734 0-1.281-.36-.547-.36-.844-1.015-.297-.672-.297-1.47 0-.843.313-1.53.328-.688.921-1.047.61-.375 1.407-.375 1.265 0 1.984.953.734.953.734 2.578v.313q0 2.5-.984 3.64-.984 1.14-2.969 1.172h-.218v-.906h.234q1.344-.031 2.062-.703.72-.672.782-2.141zm-1.672 0q.547 0 1-.328.469-.344.687-.828v-.438q0-1.062-.468-1.734-.47-.672-1.172-.672-.72 0-1.157.547-.421.547-.421 1.453 0 .875.406 1.438.422.562 1.125.562zM290.035 463.45h-1.078v-7.219l-2.188.797v-.984l3.11-1.172h.156v8.578zm5.813-3.188h-2.86v-.875h2.86v.875zm4.484-5.343h1.14v6.047q0 1.218-.75 1.921-.734.688-1.953.688-1.265 0-1.984-.656-.703-.656-.703-1.828h1.125q0 .734.39 1.156.407.406 1.172.406.704 0 1.125-.437.438-.454.438-1.235v-6.062zm7.172 7.906q-.625.75-1.86.75-1.015 0-1.546-.594-.532-.594-.532-1.75v-4.125h1.078v4.094q0 1.453 1.172 1.453 1.25 0 1.657-.937v-4.61h1.093v6.344h-1.031l-.031-.625zm4.265.625h-1.078v-9h1.078v9zm4.079-3.188h-2.86v-.875h2.86v.875zm6.218 3.188h-5.593v-.781l2.953-3.281q.656-.75.906-1.204.25-.468.25-.968 0-.672-.406-1.094-.391-.438-1.078-.438-.797 0-1.25.47-.454.452-.454 1.28h-1.078q0-1.187.75-1.906.766-.734 2.032-.734 1.203 0 1.89.625.688.625.688 1.672 0 1.25-1.61 3l-2.281 2.468h4.281v.891zm6.766-3.64q0 1.906-.656 2.843-.641.922-2.032.922-1.359 0-2.015-.906-.656-.906-.688-2.719v-1.438q0-1.89.64-2.796.657-.922 2.048-.922 1.375 0 2.031.89.656.875.672 2.72v1.405zm-1.094-1.485q0-1.375-.39-2-.375-.64-1.22-.64-.827 0-1.218.64-.375.625-.375 1.922v1.734q0 1.375.39 2.047.407.656 1.22.656.796 0 1.187-.625.39-.625.406-1.953v-1.781zm6.297 5.125h-1.078v-7.219l-2.188.797v-.984l3.11-1.172h.156v8.578zm7.594-3.75q-.328.406-.813.656-.468.235-1.031.235-.734 0-1.281-.36-.547-.36-.844-1.015-.297-.672-.297-1.47 0-.843.313-1.53.328-.688.922-1.047.609-.375 1.406-.375 1.265 0 1.984.953.735.953.735 2.578v.313q0 2.5-.985 3.64-.984 1.14-2.969 1.172h-.218v-.906h.234q1.344-.031 2.063-.703.718-.672.78-2.141zm-1.672 0q.547 0 1-.328.469-.344.687-.828v-.438q0-1.062-.468-1.734-.47-.672-1.172-.672-.719 0-1.156.547-.422.547-.422 1.453 0 .875.406 1.438.422.562 1.125.562zM395.247 463.45h-1.078v-7.219l-2.188.797v-.984l3.11-1.172h.156v8.578zm5.813-3.188h-2.86v-.875h2.86v.875zm4.484-5.343h1.14v6.047q0 1.218-.75 1.921-.734.688-1.953.688-1.265 0-1.984-.656-.703-.656-.703-1.828h1.125q0 .734.39 1.156.407.406 1.172.406.704 0 1.125-.437.438-.454.438-1.235v-6.062zm7.172 8.531q-.094-.188-.156-.672-.75.797-1.797.797-.938 0-1.547-.531-.594-.531-.594-1.36 0-.984.75-1.53.75-.548 2.125-.548h1.047v-.5q0-.562-.344-.89-.328-.344-1-.344-.578 0-.969.297-.39.281-.39.703h-1.094q0-.485.328-.922.344-.438.922-.688.578-.265 1.266-.265 1.11 0 1.719.547.624.547.656 1.5v2.922q0 .875.219 1.39v.094h-1.141zm-1.797-.828q.516 0 .969-.266.453-.265.656-.687v-1.297h-.844q-2 0-2 1.172 0 .5.344.797.344.28.875.28zm5.906-5.516.031.797q.735-.906 1.907-.906 2.015 0 2.031 2.265v4.188H419.7v-4.203q0-.672-.312-1-.297-.328-.953-.328-.532 0-.938.281-.39.281-.61.734v4.516h-1.077v-6.344h1.015zm8.235 3.156h-2.86v-.875h2.86v.875zm6.218 3.188h-5.593v-.781l2.953-3.281q.656-.75.906-1.204.25-.468.25-.968 0-.672-.406-1.094-.39-.438-1.078-.438-.797 0-1.25.47-.454.452-.454 1.28h-1.078q0-1.187.75-1.906.766-.734 2.032-.734 1.203 0 1.89.625.688.625.688 1.672 0 1.25-1.61 3l-2.28 2.468h4.28v.891zm6.766-3.64q0 1.906-.656 2.843-.64.922-2.031.922-1.36 0-2.016-.906-.656-.906-.688-2.719v-1.438q0-1.89.641-2.796.656-.922 2.047-.922 1.375 0 2.031.89.656.875.672 2.72v1.405zm-1.094-1.485q0-1.375-.39-2-.375-.64-1.22-.64-.827 0-1.218.64-.375.625-.375 1.922v1.734q0 1.375.39 2.047.407.656 1.22.656.796 0 1.187-.625.39-.625.406-1.953v-1.781zm8.328 5.125h-5.593v-.781l2.953-3.281q.656-.75.906-1.204.25-.468.25-.968 0-.672-.406-1.094-.39-.438-1.078-.438-.797 0-1.25.47-.454.452-.454 1.28h-1.078q0-1.187.75-1.906.766-.734 2.032-.734 1.203 0 1.89.625.688.625.688 1.672 0 1.25-1.61 3l-2.28 2.468h4.28v.891zm6.766-3.64q0 1.906-.656 2.843-.64.922-2.031.922-1.36 0-2.016-.906-.656-.906-.688-2.719v-1.438q0-1.89.641-2.796.656-.922 2.047-.922 1.375 0 2.031.89.656.875.672 2.72v1.405zm-1.094-1.485q0-1.375-.39-2-.375-.64-1.22-.64-.827 0-1.218.64-.375.625-.375 1.922v1.734q0 1.375.39 2.047.407.656 1.22.656.796 0 1.187-.625.39-.625.406-1.953v-1.781zM503.294 463.45h-1.078v-7.219l-2.188.797v-.984l3.11-1.172h.156v8.578zm5.812-3.188h-2.859v-.875h2.86v.875zm4.485-5.343h1.14v6.047q0 1.218-.75 1.921-.734.688-1.953.688-1.265 0-1.984-.656-.703-.656-.703-1.828h1.125q0 .734.39 1.156.407.406 1.172.406.703 0 1.125-.437.438-.454.438-1.235v-6.062zm7.172 7.906q-.625.75-1.86.75-1.015 0-1.547-.594-.53-.594-.53-1.75v-4.125h1.077v4.094q0 1.453 1.172 1.453 1.25 0 1.656-.937v-4.61h1.094v6.344h-1.031l-.031-.625zm4.265.625h-1.078v-9h1.078v9zm4.078-3.188h-2.859v-.875h2.86v.875zm6.22 3.188h-5.595v-.781l2.953-3.281q.657-.75.907-1.204.25-.468.25-.968 0-.672-.407-1.094-.39-.438-1.078-.438-.797 0-1.25.47-.453.452-.453 1.28h-1.078q0-1.187.75-1.906.766-.734 2.031-.734 1.203 0 1.891.625t.688 1.672q0 1.25-1.61 3l-2.281 2.468h4.281v.891zm6.765-3.64q0 1.906-.657 2.843-.64.922-2.03.922-1.36 0-2.016-.906-.657-.906-.688-2.719v-1.438q0-1.89.64-2.796.657-.922 2.048-.922 1.375 0 2.03.89.657.875.673 2.72v1.405zm-1.094-1.485q0-1.375-.39-2-.376-.64-1.22-.64-.827 0-1.218.64-.375.625-.375 1.922v1.734q0 1.375.39 2.047.407.656 1.22.656.796 0 1.187-.625.39-.625.406-1.953v-1.781zm8.328 5.125h-5.594v-.781l2.953-3.281q.657-.75.907-1.204.25-.468.25-.968 0-.672-.407-1.094-.39-.438-1.078-.438-.797 0-1.25.47-.453.452-.453 1.28h-1.078q0-1.187.75-1.906.766-.734 2.031-.734 1.203 0 1.891.625t.688 1.672q0 1.25-1.61 3l-2.281 2.468h4.281v.891zm6.766-3.64q0 1.906-.657 2.843-.64.922-2.03.922-1.36 0-2.016-.906-.657-.906-.688-2.719v-1.438q0-1.89.64-2.796.657-.922 2.048-.922 1.375 0 2.03.89.657.875.673 2.72v1.405zm-1.094-1.485q0-1.375-.39-2-.376-.64-1.22-.64-.827 0-1.218.64-.375.625-.375 1.922v1.734q0 1.375.39 2.047.407.656 1.22.656.796 0 1.187-.625.39-.625.406-1.953v-1.781zM608.506 463.45h-1.078v-7.219l-2.188.797v-.984l3.11-1.172h.156v8.578zm5.813-3.188h-2.86v-.875h2.86v.875zm4.484-5.343h1.14v6.047q0 1.218-.75 1.921-.734.688-1.953.688-1.265 0-1.984-.656-.703-.656-.703-1.828h1.125q0 .734.39 1.156.407.406 1.172.406.704 0 1.125-.437.438-.454.438-1.235v-6.062zm7.172 8.531q-.094-.188-.156-.672-.75.797-1.797.797-.938 0-1.547-.531-.594-.531-.594-1.36 0-.984.75-1.53.75-.548 2.125-.548h1.047v-.5q0-.562-.344-.89-.328-.344-1-.344-.578 0-.969.297-.39.281-.39.703h-1.094q0-.485.328-.922.344-.438.922-.688.578-.265 1.266-.265 1.109 0 1.718.547.625.547.657 1.5v2.922q0 .875.218 1.39v.094h-1.14zm-1.797-.828q.516 0 .969-.266.453-.265.656-.687v-1.297h-.844q-2 0-2 1.172 0 .5.344.797.344.28.875.28zm5.906-5.516.031.797q.735-.906 1.907-.906 2.015 0 2.03 2.265v4.188h-1.093v-4.203q0-.672-.312-1-.297-.328-.953-.328-.532 0-.938.281-.39.281-.61.734v4.516h-1.077v-6.344h1.015zm8.235 3.156h-2.86v-.875h2.86v.875zm6.218 3.188h-5.593v-.781l2.953-3.281q.656-.75.906-1.204.25-.468.25-.968 0-.672-.406-1.094-.391-.438-1.078-.438-.797 0-1.25.47-.454.452-.454 1.28h-1.078q0-1.187.75-1.906.766-.734 2.032-.734 1.203 0 1.89.625.688.625.688 1.672 0 1.25-1.61 3l-2.281 2.468h4.281v.891zm6.766-3.64q0 1.906-.656 2.843-.641.922-2.032.922-1.359 0-2.015-.906-.656-.906-.688-2.719v-1.438q0-1.89.64-2.796.657-.922 2.048-.922 1.375 0 2.031.89.656.875.672 2.72v1.405zm-1.094-1.485q0-1.375-.39-2-.375-.64-1.22-.64-.827 0-1.218.64-.375.625-.375 1.922v1.734q0 1.375.39 2.047.407.656 1.22.656.796 0 1.187-.625.39-.625.406-1.953v-1.781zm8.328 5.125h-5.593v-.781l2.953-3.281q.656-.75.906-1.204.25-.468.25-.968 0-.672-.406-1.094-.391-.438-1.078-.438-.797 0-1.25.47-.454.452-.454 1.28h-1.078q0-1.187.75-1.906.766-.734 2.032-.734 1.203 0 1.89.625.688.625.688 1.672 0 1.25-1.61 3l-2.281 2.468h4.281v.891zm4.969 0h-1.078v-7.219l-2.188.797v-.984l3.11-1.172h.156v8.578z"/><path stroke="#4285f4" stroke-width="4" stroke-linecap="butt" d="M714.45 72.417h12"/><path fill="#757575" d="M735.434 76.917v-8.532h2.422q1.11 0 1.953.5.86.485 1.329 1.391.468.906.468 2.094v.531q0 1.219-.468 2.125-.454.906-1.329 1.39-.859.485-2 .5h-2.375zm1.125-7.61v6.688h1.188q1.297 0 2.016-.797.734-.813.734-2.313v-.5q0-1.453-.688-2.25-.671-.812-1.937-.828h-1.313zm6.875 7.61v-8.532h2.797q1.39 0 2.078.579.704.562.704 1.687 0 .61-.344 1.078-.328.453-.922.703.703.188 1.094.735.406.53.406 1.28 0 1.157-.75 1.813-.734.657-2.094.657h-2.969zm1.125-3.985v3.063h1.86q.797 0 1.25-.406.453-.407.453-1.125 0-1.532-1.688-1.532h-1.875zm0-.906h1.704q.734 0 1.171-.36.454-.374.454-1.015 0-.703-.407-1.016-.406-.328-1.25-.328h-1.672v2.719zm6.72 3.969h4.89v.922h-6.219v-.844l4.688-6.766h-4.61v-.922h5.953v.829l-4.703 6.78zm6.155.922v-8.532h2.797q1.39 0 2.078.579.704.562.704 1.687 0 .61-.344 1.078-.328.453-.922.703.703.188 1.094.735.406.53.406 1.28 0 1.157-.75 1.813-.734.657-2.094.657h-2.969zm1.125-3.985v3.063h1.86q.797 0 1.25-.406.453-.407.453-1.125 0-1.532-1.688-1.532h-1.875zm0-.906h1.704q.734 0 1.171-.36.454-.374.454-1.015 0-.703-.407-1.016-.406-.328-1.25-.328h-1.672v2.719z"/><path stroke="#db4437" stroke-width="4" stroke-linecap="butt" d="M714.45 97.417h12"/><path fill="#757575" d="M736.653 101.917h-1.125v-8.532h1.125v8.532zm3.625-2.688.172 1.125.234-1.015 1.688-5.954h.953l1.64 5.954.235 1.03.188-1.155 1.328-5.829h1.125l-2.063 8.532h-1.031l-1.766-6.22-.125-.655-.14.656-1.813 6.219h-1.031l-2.063-8.532h1.125l1.344 5.844zm9.156 2.688v-8.532h2.422q1.11 0 1.953.5.86.485 1.329 1.391.468.906.468 2.094v.531q0 1.219-.468 2.125-.454.906-1.329 1.39-.859.485-2 .5h-2.375zm1.125-7.61v6.688h1.188q1.297 0 2.016-.797.734-.813.734-2.313v-.5q0-1.453-.688-2.25-.671-.812-1.937-.828h-1.313zm11.594 5.375h-3.578l-.797 2.235h-1.156l3.25-8.532h.984l3.266 8.532h-1.156l-.813-2.235zm-3.234-.922h2.906l-1.453-3.984-1.453 3.984z"/><path stroke="#f4b400" stroke-width="4" stroke-linecap="butt" d="M714.45 122.417h12"/><path fill="#757575" d="m738.231 121.651 2.032-3.266h1.328l-2.688 4.235 2.75 4.297h-1.328l-2.094-3.328-2.11 3.328h-1.343l2.766-4.297-2.688-4.235h1.313l2.062 3.266zm6.657-3.266 2.796 6.954 2.782-6.954h1.468v8.532h-1.125v-3.328l.11-3.579-2.813 6.907h-.86l-2.796-6.891.11 3.563v3.328h-1.126v-8.532h1.454zm10 0 2.796 6.954 2.782-6.954h1.468v8.532h-1.125v-3.328l.11-3.579-2.813 6.907h-.86l-2.796-6.891.11 3.563v3.328h-1.126v-8.532h1.454zm13.375 4.594h-3.704v3.016h4.297v.922h-5.422v-8.532h5.375v.922h-4.25v2.75h3.704v.922zM28.081 37.987v5.563h-1.875V29.331h5.235q2.343 0 3.656 1.188 1.328 1.187 1.328 3.156 0 2.078-1.297 3.203-1.297 1.11-3.703 1.11h-3.344zm0-1.53h3.36q1.515 0 2.312-.704.797-.719.797-2.062 0-1.266-.797-2.016-.797-.766-2.203-.797h-3.469v5.578zM43.3 43.752q-2.14 0-3.5-1.406-1.344-1.422-1.344-3.781v-.344q0-1.563.594-2.797.61-1.234 1.688-1.938 1.078-.703 2.343-.703 2.063 0 3.203 1.36 1.141 1.36 1.141 3.89v.75h-7.156q.031 1.563.906 2.532.875.953 2.219.953.968 0 1.625-.39.672-.392 1.172-1.032l1.093.86q-1.328 2.046-3.984 2.046zm-.219-9.484q-1.094 0-1.844.797-.734.796-.906 2.234h5.281v-.14q-.078-1.376-.75-2.126-.656-.765-1.78-.765zm11.938.328q-.407-.063-.875-.063-1.782 0-2.422 1.516v7.5h-1.797V32.987h1.75l.031 1.22q.89-1.423 2.516-1.423.531 0 .797.141v1.672zM57.8 43.55v-9.172h-1.656v-1.39H57.8v-1.094q0-1.688.906-2.61.922-.937 2.578-.937.625 0 1.235.156l-.094 1.469q-.453-.078-.969-.078-.89 0-1.375.515-.469.5-.469 1.454v1.124h2.25v1.391h-2.25v9.172H57.8zm5.64-5.375q0-1.563.61-2.797.61-1.25 1.688-1.922 1.093-.672 2.5-.672 2.156 0 3.484 1.5 1.344 1.485 1.344 3.97v.124q0 1.547-.594 2.781-.594 1.22-1.703 1.907-1.094.687-2.516.687-2.14 0-3.484-1.5-1.328-1.5-1.328-3.953v-.125zm1.813.203q0 1.766.813 2.828.828 1.063 2.187 1.063 1.375 0 2.188-1.078.812-1.079.812-3.016 0-1.75-.828-2.828-.828-1.078-2.188-1.078-1.343 0-2.171 1.062-.813 1.063-.813 3.047zm14.766-3.781q-.407-.063-.875-.063-1.782 0-2.422 1.516v7.5h-1.797V32.987h1.75l.031 1.22q.89-1.423 2.516-1.423.531 0 .797.141v1.672zm3.593-1.61.047 1.172q1.172-1.375 3.141-1.375 2.219 0 3.016 1.703.53-.765 1.375-1.234.843-.469 2-.469 3.468 0 3.53 3.688v7.078H94.91v-6.969q0-1.14-.515-1.703-.516-.562-1.735-.562-1 0-1.672.609-.656.594-.765 1.61v7.015h-1.813v-6.922q0-2.312-2.265-2.312-1.782 0-2.422 1.515v7.719h-1.813V32.987h1.703zm22.829 10.563q-.157-.313-.25-1.11-1.266 1.313-3.016 1.313-1.563 0-2.563-.89-1-.891-1-2.25 0-1.641 1.25-2.547 1.266-.922 3.532-.922h1.765v-.828q0-.954-.578-1.516-.562-.563-1.656-.563-.969 0-1.625.5-.656.485-.656 1.172H99.83q0-.78.563-1.515.562-.75 1.515-1.172.97-.438 2.125-.438 1.828 0 2.86.922 1.031.906 1.078 2.516v4.86q0 1.452.36 2.312v.156h-1.891zm-3-1.375q.859 0 1.609-.438.766-.437 1.11-1.14v-2.172h-1.422q-3.313 0-3.313 1.938 0 .859.563 1.343.562.469 1.453.469zm9.187-9.188.063 1.329q1.203-1.532 3.156-1.532 3.36 0 3.375 3.782v6.984h-1.797v-7q-.016-1.14-.531-1.688-.5-.546-1.594-.546-.875 0-1.547.468-.656.47-1.031 1.235v7.531h-1.797V32.987h1.703zm13.531 9.282q.97 0 1.688-.578.719-.594.797-1.47h1.719q-.063.907-.641 1.735-.563.813-1.531 1.313-.954.484-2.032.484-2.156 0-3.437-1.437-1.266-1.454-1.266-3.954v-.296q0-1.547.563-2.75.562-1.204 1.625-1.86 1.062-.672 2.5-.672 1.781 0 2.953 1.063 1.187 1.062 1.266 2.765h-1.72q-.077-1.015-.78-1.671-.688-.672-1.72-.672-1.374 0-2.14 1-.75.984-.75 2.86v.343q0 1.828.75 2.812.75.985 2.156.985zm10.141 1.484q-2.14 0-3.5-1.406-1.344-1.422-1.344-3.781v-.344q0-1.563.594-2.797.61-1.234 1.688-1.938 1.078-.703 2.343-.703 2.063 0 3.203 1.36 1.141 1.36 1.141 3.89v.75h-7.156q.031 1.563.906 2.532.875.953 2.219.953.969 0 1.625-.39.672-.392 1.172-1.032l1.093.86q-1.328 2.046-3.984 2.046zm-.219-9.484q-1.093 0-1.843.797-.735.796-.907 2.234h5.282v-.14q-.079-1.376-.75-2.126-.657-.765-1.782-.765zm20.766 4.11q0 2.421-1.11 3.905-1.093 1.47-2.984 1.47-1.922 0-3.031-1.235v5.093h-1.797V32.987h1.64l.094 1.172q1.094-1.375 3.063-1.375 1.906 0 3.016 1.438 1.109 1.437 1.109 4v.156zm-1.813-.204q0-1.781-.765-2.813-.75-1.046-2.078-1.046-1.641 0-2.47 1.453v5.062q.813 1.438 2.485 1.438 1.297 0 2.063-1.032.765-1.03.765-3.062zm8.266 5.578q-2.14 0-3.5-1.406-1.344-1.422-1.344-3.781v-.344q0-1.563.594-2.797.61-1.234 1.688-1.938 1.078-.703 2.343-.703 2.063 0 3.203 1.36 1.141 1.36 1.141 3.89v.75h-7.156q.031 1.563.906 2.532.875.953 2.219.953.969 0 1.625-.39.672-.392 1.172-1.032l1.093.86q-1.328 2.046-3.984 2.046zm-.219-9.484q-1.093 0-1.843.797-.735.796-.907 2.234h5.282v-.14q-.079-1.376-.75-2.126-.657-.765-1.782-.765zm11.938.328q-.406-.063-.875-.063-1.781 0-2.422 1.516v7.5h-1.797V32.987h1.75l.031 1.22q.89-1.423 2.516-1.423.531 0 .797.141v1.672zm13.422 8.953q-.157-.313-.25-1.11-1.266 1.313-3.016 1.313-1.563 0-2.563-.89-1-.891-1-2.25 0-1.641 1.25-2.547 1.266-.922 3.532-.922h1.765v-.828q0-.954-.578-1.516-.562-.563-1.656-.563-.969 0-1.625.5-.656.485-.656 1.172h-1.813q0-.78.563-1.515.562-.75 1.515-1.172.97-.438 2.125-.438 1.829 0 2.86.922 1.031.906 1.078 2.516v4.86q0 1.452.36 2.312v.156h-1.891zm-3-1.375q.859 0 1.609-.438.766-.437 1.11-1.14v-2.172h-1.422q-3.313 0-3.313 1.938 0 .859.563 1.343.562.469 1.453.469zm13.625-1.422q0-.734-.547-1.14-.547-.407-1.922-.704t-2.188-.703q-.796-.406-1.187-.969-.375-.578-.375-1.359 0-1.297 1.094-2.187 1.093-.907 2.812-.907 1.797 0 2.906.938 1.125.922 1.125 2.36h-1.828q0-.735-.625-1.266-.625-.547-1.578-.547-1 0-1.562.437-.547.422-.547 1.125 0 .64.515.985.516.328 1.875.64 1.36.297 2.188.719.844.406 1.25 1t.406 1.438q0 1.421-1.14 2.28-1.125.86-2.938.86-1.266 0-2.25-.453-.969-.453-1.531-1.25-.547-.813-.547-1.75h1.812q.047.906.72 1.438.687.53 1.796.53 1.031 0 1.64-.406.626-.421.626-1.109zm10 0q0-.734-.547-1.14-.547-.407-1.922-.704t-2.188-.703q-.796-.406-1.187-.969-.375-.578-.375-1.359 0-1.297 1.094-2.187 1.093-.907 2.812-.907 1.797 0 2.906.938 1.125.922 1.125 2.36h-1.828q0-.735-.625-1.266-.625-.547-1.578-.547-1 0-1.562.437-.547.422-.547 1.125 0 .64.515.985.516.328 1.875.64 1.36.297 2.188.719.844.406 1.25 1t.406 1.438q0 1.421-1.14 2.28-1.125.86-2.938.86-1.266 0-2.25-.453-.969-.453-1.531-1.25-.547-.813-.547-1.75h1.812q.047.906.72 1.438.687.53 1.796.53 1.031 0 1.64-.406.626-.421.626-1.109zm8.234 3q-2.14 0-3.5-1.406-1.344-1.422-1.344-3.781v-.344q0-1.563.594-2.797.61-1.234 1.688-1.938 1.078-.703 2.343-.703 2.063 0 3.203 1.36 1.141 1.36 1.141 3.89v.75h-7.156q.031 1.563.906 2.532.875.953 2.219.953.969 0 1.625-.39.672-.392 1.172-1.032l1.093.86q-1.328 2.046-3.984 2.046zm-.219-9.484q-1.093 0-1.843.797-.735.796-.907 2.234h5.282v-.14q-.079-1.376-.75-2.126-.657-.765-1.782-.765zm9.282-3.844v2.562h1.984v1.391h-1.984v6.547q0 .64.265.969.266.312.906.312.313 0 .86-.125v1.469q-.719.203-1.39.203-1.204 0-1.829-.734-.61-.735-.61-2.094v-6.547h-1.921v-1.39h1.922v-2.563h1.797z"/></svg>