<svg xmlns="http://www.w3.org/2000/svg" class="chart-new-svg" viewBox="0 0 1226.1 634.231"><g class="x-axis axis"><path class="chart-new-axis-axis-line" font-family="-apple-system,BlinkMacSystemFont,&quot;Segoe UI&quot;,Roboto,Oxygen-Sans,Ubuntu,Cantarell,&quot;Helvetica Neue&quot;,sans-serif" font-size="16" stroke="#ddd" color="#333" d="M93.317 576.23h900"/><g class="axis-tick-labels"><path fill="none" font-family="-apple-system,BlinkMacSystemFont,&quot;Segoe UI&quot;,Roboto,Oxygen-Sans,Ubuntu,Cantarell,&quot;Helvetica Neue&quot;,sans-serif" font-size="16" color="#333" d="M93.317 576.23h1v10h-1z"/><text class="axis-tick-label" text-anchor="middle" x="2.586" y="10" dy="1em" font-family="-apple-system,BlinkMacSystemFont,&quot;Segoe UI&quot;,Roboto,Oxygen-Sans,Ubuntu,Cantarell,&quot;Helvetica Neue&quot;,sans-serif" font-size="12" fill="#999" color="#333" transform="translate(93.317 576.23)">1990</text><text class="axis-tick-label" text-anchor="middle" x="61.579" y="10" dy="1em" font-family="-apple-system,BlinkMacSystemFont,&quot;Segoe UI&quot;,Roboto,Oxygen-Sans,Ubuntu,Cantarell,&quot;Helvetica Neue&quot;,sans-serif" font-size="12" fill="#999" color="#333" transform="translate(93.317 576.23)">1992</text><text class="axis-tick-label" text-anchor="middle" x="120.652" y="10" dy="1em" font-family="-apple-system,BlinkMacSystemFont,&quot;Segoe UI&quot;,Roboto,Oxygen-Sans,Ubuntu,Cantarell,&quot;Helvetica Neue&quot;,sans-serif" font-size="12" fill="#999" color="#333" transform="translate(93.317 576.23)">1994</text><text class="axis-tick-label" text-anchor="middle" x="179.645" y="10" dy="1em" font-family="-apple-system,BlinkMacSystemFont,&quot;Segoe UI&quot;,Roboto,Oxygen-Sans,Ubuntu,Cantarell,&quot;Helvetica Neue&quot;,sans-serif" font-size="12" fill="#999" color="#333" transform="translate(93.317 576.23)">1996</text><text class="axis-tick-label" text-anchor="middle" x="238.719" y="10" dy="1em" font-family="-apple-system,BlinkMacSystemFont,&quot;Segoe UI&quot;,Roboto,Oxygen-Sans,Ubuntu,Cantarell,&quot;Helvetica Neue&quot;,sans-serif" font-size="12" fill="#999" color="#333" transform="translate(93.317 576.23)">1998</text><text class="axis-tick-label" text-anchor="middle" x="297.711" y="10" dy="1em" font-family="-apple-system,BlinkMacSystemFont,&quot;Segoe UI&quot;,Roboto,Oxygen-Sans,Ubuntu,Cantarell,&quot;Helvetica Neue&quot;,sans-serif" font-size="12" fill="#999" color="#333" transform="translate(93.317 576.23)">2000</text><text class="axis-tick-label" text-anchor="middle" x="356.785" y="10" dy="1em" font-family="-apple-system,BlinkMacSystemFont,&quot;Segoe UI&quot;,Roboto,Oxygen-Sans,Ubuntu,Cantarell,&quot;Helvetica Neue&quot;,sans-serif" font-size="12" fill="#999" color="#333" transform="translate(93.317 576.23)">2002</text><text class="axis-tick-label" text-anchor="middle" x="415.778" y="10" dy="1em" font-family="-apple-system,BlinkMacSystemFont,&quot;Segoe UI&quot;,Roboto,Oxygen-Sans,Ubuntu,Cantarell,&quot;Helvetica Neue&quot;,sans-serif" font-size="12" fill="#999" color="#333" transform="translate(93.317 576.23)">2004</text><text class="axis-tick-label" text-anchor="middle" x="474.851" y="10" dy="1em" font-family="-apple-system,BlinkMacSystemFont,&quot;Segoe UI&quot;,Roboto,Oxygen-Sans,Ubuntu,Cantarell,&quot;Helvetica Neue&quot;,sans-serif" font-size="12" fill="#999" color="#333" transform="translate(93.317 576.23)">2006</text><text class="axis-tick-label" text-anchor="middle" x="533.844" y="10" dy="1em" font-family="-apple-system,BlinkMacSystemFont,&quot;Segoe UI&quot;,Roboto,Oxygen-Sans,Ubuntu,Cantarell,&quot;Helvetica Neue&quot;,sans-serif" font-size="12" fill="#999" color="#333" transform="translate(93.317 576.23)">2008</text><text class="axis-tick-label" text-anchor="middle" x="592.918" y="10" dy="1em" font-family="-apple-system,BlinkMacSystemFont,&quot;Segoe UI&quot;,Roboto,Oxygen-Sans,Ubuntu,Cantarell,&quot;Helvetica Neue&quot;,sans-serif" font-size="12" fill="#999" color="#333" transform="translate(93.317 576.23)">2010</text><text class="axis-tick-label" text-anchor="middle" x="651.91" y="10" dy="1em" font-family="-apple-system,BlinkMacSystemFont,&quot;Segoe UI&quot;,Roboto,Oxygen-Sans,Ubuntu,Cantarell,&quot;Helvetica Neue&quot;,sans-serif" font-size="12" fill="#999" color="#333" transform="translate(93.317 576.23)">2012</text><text class="axis-tick-label" text-anchor="middle" x="710.984" y="10" dy="1em" font-family="-apple-system,BlinkMacSystemFont,&quot;Segoe UI&quot;,Roboto,Oxygen-Sans,Ubuntu,Cantarell,&quot;Helvetica Neue&quot;,sans-serif" font-size="12" fill="#999" color="#333" transform="translate(93.317 576.23)">2014</text><text class="axis-tick-label" text-anchor="middle" x="769.977" y="10" dy="1em" font-family="-apple-system,BlinkMacSystemFont,&quot;Segoe UI&quot;,Roboto,Oxygen-Sans,Ubuntu,Cantarell,&quot;Helvetica Neue&quot;,sans-serif" font-size="12" fill="#999" color="#333" transform="translate(93.317 576.23)">2016</text><text class="axis-tick-label" text-anchor="middle" x="829.05" y="10" dy="1em" font-family="-apple-system,BlinkMacSystemFont,&quot;Segoe UI&quot;,Roboto,Oxygen-Sans,Ubuntu,Cantarell,&quot;Helvetica Neue&quot;,sans-serif" font-size="12" fill="#999" color="#333" transform="translate(93.317 576.23)">2018</text><text class="axis-tick-label" text-anchor="middle" x="888.043" y="10" dy="1em" font-family="-apple-system,BlinkMacSystemFont,&quot;Segoe UI&quot;,Roboto,Oxygen-Sans,Ubuntu,Cantarell,&quot;Helvetica Neue&quot;,sans-serif" font-size="12" fill="#999" color="#333" transform="translate(93.317 576.23)">2020</text></g><g class="axis-label"><path fill="none" font-family="-apple-system,BlinkMacSystemFont,&quot;Segoe UI&quot;,Roboto,Oxygen-Sans,Ubuntu,Cantarell,&quot;Helvetica Neue&quot;,sans-serif" font-size="14" color="#333" d="M93.317 601.23h1v16h-1z"/><text class="axis-label-label" x="450" y="16" dy="1em" text-anchor="middle" font-family="-apple-system,BlinkMacSystemFont,&quot;Segoe UI&quot;,Roboto,Oxygen-Sans,Ubuntu,Cantarell,&quot;Helvetica Neue&quot;,sans-serif" font-size="14" fill="#999" color="#333" transform="translate(93.317 601.23)">Time</text></g><g class="axis-tick-lines"><path class="axis-tick-line" font-family="-apple-system,BlinkMacSystemFont,&quot;Segoe UI&quot;,Roboto,Oxygen-Sans,Ubuntu,Cantarell,&quot;Helvetica Neue&quot;,sans-serif" font-size="16" stroke="#ddd" color="#333" d="M95.903 20v556.23M154.896 20v556.23M213.969 20v556.23M272.962 20v556.23M332.036 20v556.23M391.028 20v556.23M450.102 20v556.23M509.095 20v556.23M568.168 20v556.23M627.16 20v556.23M686.235 20v556.23M745.227 20v556.23M804.3 20v556.23M863.294 20v556.23M922.367 20v556.23M981.36 20v556.23"/></g></g><g class="y-axis axis"><text class="axis-label" x="-278.115" dy="1em" text-anchor="middle" transform="rotate(-90 10 10)" font-family="-apple-system,BlinkMacSystemFont,&quot;Segoe UI&quot;,Roboto,Oxygen-Sans,Ubuntu,Cantarell,&quot;Helvetica Neue&quot;,sans-serif" font-size="14" fill="#999" color="#333">Value of portfolio</text><g class="axis-tick-labels"><text class="axis-tick-label" text-anchor="end" alignment-baseline="middle" x="-10" y="556.231" font-family="-apple-system,BlinkMacSystemFont,&quot;Segoe UI&quot;,Roboto,Oxygen-Sans,Ubuntu,Cantarell,&quot;Helvetica Neue&quot;,sans-serif" font-size="12" fill="#999" color="#333" transform="translate(93.317 20)">€0</text><text class="axis-tick-label" text-anchor="end" alignment-baseline="middle" x="-10" y="500.608" font-family="-apple-system,BlinkMacSystemFont,&quot;Segoe UI&quot;,Roboto,Oxygen-Sans,Ubuntu,Cantarell,&quot;Helvetica Neue&quot;,sans-serif" font-size="12" fill="#999" color="#333" transform="translate(93.317 20)">€10,000</text><text class="axis-tick-label" text-anchor="end" alignment-baseline="middle" x="-10" y="444.984" font-family="-apple-system,BlinkMacSystemFont,&quot;Segoe UI&quot;,Roboto,Oxygen-Sans,Ubuntu,Cantarell,&quot;Helvetica Neue&quot;,sans-serif" font-size="12" fill="#999" color="#333" transform="translate(93.317 20)">€20,000</text><text class="axis-tick-label" text-anchor="end" alignment-baseline="middle" x="-10" y="389.361" font-family="-apple-system,BlinkMacSystemFont,&quot;Segoe UI&quot;,Roboto,Oxygen-Sans,Ubuntu,Cantarell,&quot;Helvetica Neue&quot;,sans-serif" font-size="12" fill="#999" color="#333" transform="translate(93.317 20)">€30,000</text><text class="axis-tick-label" text-anchor="end" alignment-baseline="middle" x="-10" y="333.738" font-family="-apple-system,BlinkMacSystemFont,&quot;Segoe UI&quot;,Roboto,Oxygen-Sans,Ubuntu,Cantarell,&quot;Helvetica Neue&quot;,sans-serif" font-size="12" fill="#999" color="#333" transform="translate(93.317 20)">€40,000</text><text class="axis-tick-label" text-anchor="end" alignment-baseline="middle" x="-10" y="278.115" font-family="-apple-system,BlinkMacSystemFont,&quot;Segoe UI&quot;,Roboto,Oxygen-Sans,Ubuntu,Cantarell,&quot;Helvetica Neue&quot;,sans-serif" font-size="12" fill="#999" color="#333" transform="translate(93.317 20)">€50,000</text><text class="axis-tick-label" text-anchor="end" alignment-baseline="middle" x="-10" y="222.492" font-family="-apple-system,BlinkMacSystemFont,&quot;Segoe UI&quot;,Roboto,Oxygen-Sans,Ubuntu,Cantarell,&quot;Helvetica Neue&quot;,sans-serif" font-size="12" fill="#999" color="#333" transform="translate(93.317 20)">€60,000</text><text class="axis-tick-label" text-anchor="end" alignment-baseline="middle" x="-10" y="166.869" font-family="-apple-system,BlinkMacSystemFont,&quot;Segoe UI&quot;,Roboto,Oxygen-Sans,Ubuntu,Cantarell,&quot;Helvetica Neue&quot;,sans-serif" font-size="12" fill="#999" color="#333" transform="translate(93.317 20)">€70,000</text><text class="axis-tick-label" text-anchor="end" alignment-baseline="middle" x="-10" y="111.246" font-family="-apple-system,BlinkMacSystemFont,&quot;Segoe UI&quot;,Roboto,Oxygen-Sans,Ubuntu,Cantarell,&quot;Helvetica Neue&quot;,sans-serif" font-size="12" fill="#999" color="#333" transform="translate(93.317 20)">€80,000</text><text class="axis-tick-label" text-anchor="end" alignment-baseline="middle" x="-10" y="55.623" font-family="-apple-system,BlinkMacSystemFont,&quot;Segoe UI&quot;,Roboto,Oxygen-Sans,Ubuntu,Cantarell,&quot;Helvetica Neue&quot;,sans-serif" font-size="12" fill="#999" color="#333" transform="translate(93.317 20)">€90,000</text><text class="axis-tick-label" text-anchor="end" alignment-baseline="middle" x="-10" font-family="-apple-system,BlinkMacSystemFont,&quot;Segoe UI&quot;,Roboto,Oxygen-Sans,Ubuntu,Cantarell,&quot;Helvetica Neue&quot;,sans-serif" font-size="12" fill="#999" color="#333" transform="translate(93.317 20)">€100,000</text></g><path class="chart-new-axis-line" font-family="-apple-system,BlinkMacSystemFont,&quot;Segoe UI&quot;,Roboto,Oxygen-Sans,Ubuntu,Cantarell,&quot;Helvetica Neue&quot;,sans-serif" font-size="16" stroke="#ddd" color="#333" d="M93.317 20v556.231M993.317 20v556.231"/><g class="axis-tick-lines"><path class="axis-tick-line" font-family="-apple-system,BlinkMacSystemFont,&quot;Segoe UI&quot;,Roboto,Oxygen-Sans,Ubuntu,Cantarell,&quot;Helvetica Neue&quot;,sans-serif" font-size="16" stroke="#ddd" color="#333" d="M93.317 576.231h900M93.317 520.608h900M93.317 464.984h900M93.317 409.361h900M93.317 353.738h900M93.317 298.115h900M93.317 242.492h900M93.317 186.869h900M93.317 131.246h900M93.317 75.623h900M93.317 20h900"/></g></g><g class="data" font-family="-apple-system,BlinkMacSystemFont,&quot;Segoe UI&quot;,Roboto,Oxygen-Sans,Ubuntu,Cantarell,&quot;Helvetica Neue&quot;,sans-serif" font-size="16" fill="none" stroke-width="2" color="#333"><path d="M93.317 520.608h2.505c.835 0 1.67 2.94 2.505 4.15a27.316 27.316 0 002.263 2.859c.753.831 1.506 1.581 2.26 2.134.834.613 1.67 1.255 2.504 1.255.808 0 1.617-3.948 2.425-3.948.835 0 1.67.006 2.505.019.808.012 1.616.35 2.424 1.049.835.722 1.67 4.629 2.505 6.42.835 1.793 1.67 4.333 2.506 4.333.809 0 1.618-2.291 2.427-2.291.835 0 1.67 1.42 2.505 1.42.809 0 1.617-.803 2.425-1.262.835-.475 1.67-.78 2.505-1.547.835-.767 1.67-2.089 2.505-3.054.754-.871 1.509-1.64 2.263-2.485.834-.935 1.668-2.082 2.502-2.866.808-.76 1.616-1.797 2.424-1.797.835 0 1.67 1.37 2.505 1.37.808 0 1.616-2.424 2.425-2.424.835 0 1.67 1.242 2.505 1.313.835.071 1.67.107 2.505.107.81 0 1.618-.757 2.428-.757.835 0 1.67 4.097 2.505 4.097.808 0 1.616-1.841 2.424-1.841.835 0 1.67.572 2.505.572s1.67-.217 2.506-.217c.78 0 1.562 1.06 2.343 1.06.834 0 1.668-.077 2.502-.23.808-.15 1.616-.96 2.424-.96.835 0 1.67 2.148 2.505 3.005.809.83 1.617 2.04 2.425 2.082.835.044 1.67.066 2.505.066.836 0 1.672-.4 2.508-.605.809-.197 1.617-.199 2.425-.597.835-.412 1.67-3.573 2.505-3.824.808-.243 1.616-.123 2.424-.365.835-.25 1.67-.53 2.506-1.134.835-.603 1.67-1.443 2.505-2.486.754-.942 1.508-2.985 2.262-3.35.834-.404 1.668-.252 2.502-.606.808-.343 1.616-1.02 2.425-1.456.835-.452 1.67-.4 2.505-1.2.808-.775 1.616-2.622 2.424-3.81.835-1.225 1.67-3.413 2.505-3.413.836 0 1.673 3.844 2.509 3.844.808 0 1.616-2.496 2.424-2.496.835 0 1.67 2.046 2.505 2.046.809 0 1.617-1.706 2.425-3.075.835-1.416 1.67-5.35 2.505-5.35s1.67.402 2.505 1.204c.753.724 1.506 4.445 2.26 4.445.835 0 1.67-2.246 2.505-2.246.808 0 1.616.877 2.424 1.3.835.435 1.67.921 2.505 1.273.808.34 1.616.816 2.425.816.835 0 1.67-2.037 2.505-2.037.836 0 1.672 2.463 2.508 2.463.808 0 1.616-.569 2.425-.569.835 0 1.67 1.9 2.505 1.9.808 0 1.616-1.922 2.424-1.922.835 0 1.67 2.292 2.505 2.292s1.67-.094 2.505-.22a17.237 17.237 0 002.26-.474c.835-.244 1.67-.53 2.505-.96.808-.417 1.616-1.56 2.424-1.56.835 0 1.67.57 2.506.57.808 0 1.616-2.161 2.424-2.484.835-.333 1.67-.166 2.505-.5.836-.333 1.672-2.905 2.509-2.905.808 0 1.616 2.22 2.424 2.22.835 0 1.67-1.57 2.505-2.562.808-.96 1.616-2.355 2.425-3.272.835-.948 1.67-1.754 2.505-2.288.835-.535 1.67-.541 2.505-.92.781-.355 1.562-.65 2.343-1.254.834-.644 1.668-1.958 2.502-2.566.808-.59 1.616-1.07 2.425-1.07.835 0 1.67.076 2.505.227.808.147 1.616 4.148 2.424 4.148.835 0 1.67-.062 2.505-.185.835-.124 1.67-3.23 2.505-3.807.81-.559 1.619-.28 2.428-.838.835-.577 1.67-3.208 2.505-3.555.808-.336 1.617-.168 2.425-.503.835-.347 1.67-2.049 2.505-3.472.835-1.424 1.67-5.068 2.505-5.068.754 0 1.509.808 2.263.808.834 0 1.668-2.045 2.502-3.657.808-1.562 1.616-3.788 2.424-5.796.835-2.074 1.67-3.943 2.505-6.468.808-2.444 1.616-8.369 2.424-8.369.836 0 1.67 4.825 2.506 4.825.835 0 1.67-3.064 2.505-3.064.81 0 1.618 8.008 2.428 8.24.835.238 1.67.357 2.505.357.808 0 1.616-2.658 2.424-4.319a61.122 61.122 0 002.505-5.856c.835-2.276 1.67-5.432 2.505-7.804.755-2.143 1.509-5.631 2.263-5.865a8.4 8.4 0 012.502-.389c.808 0 1.616 3.687 2.424 3.687.835 0 1.67-3.978 2.506-4.046a29.89 29.89 0 012.424-.099c.835 0 1.67 16.056 2.505 18.354.835 2.299 1.67 3.448 2.505 3.448.81 0 1.619-2.985 2.428-5.627.835-2.726 1.67-7.934 2.505-10.624.808-2.603 1.616-3.324 2.424-5.416.836-2.161 1.67-6.864 2.506-7.402.835-.538 1.67-.269 2.505-.807.754-.485 1.508-6.852 2.263-9.72.833-3.17 1.667-8.142 2.501-8.142.808 0 1.617 3.773 2.425 3.773.835 0 1.67-9.31 2.505-9.31.808 0 1.616 6.151 2.424 6.151.835 0 1.67-1.533 2.505-1.533s1.67 2.94 2.506 2.94c.808 0 1.616-7.888 2.424-11.578.836-3.818 1.672-6.39 2.509-10.911.808-4.37 1.616-15.59 2.424-15.59.835 0 1.67 6.423 2.505 6.423s1.67-.67 2.505-2.01c.78-1.253 1.56-15.783 2.34-16.692.835-.973 1.67-1.46 2.506-1.46.808 0 1.616 10.113 2.424 10.113.835 0 1.67-.881 2.505-1.253.808-.36 1.616-.316 2.424-.948.836-.653 1.67-14.447 2.506-14.447.835 0 1.67 8.218 2.505 8.218.808 0 1.616-4.966 2.424-4.966.836 0 1.673 14.212 2.509 19.099.808 4.723 1.616 10.024 2.424 10.024.835 0 1.67-3.784 2.505-3.784s1.67 12.277 2.505 15.04c.754 2.492 1.507 3.737 2.26 3.737.835 0 1.67-8.64 2.505-11.603.808-2.866 1.616-6.054 2.424-6.054.835 0 1.67 3.49 2.505 5.851.809 2.286 1.617 4.193 2.425 8.014.835 3.948 1.67 10.7 2.505 15.526.835 4.827 1.67 13.436 2.505 13.436.808 0 1.616-1.69 2.425-4.188.836-2.584 1.672-9.536 2.508-11.289.808-1.693 1.616-2.54 2.424-2.54.836 0 1.67 1.154 2.506 1.714.835.56 1.67 1.644 2.505 1.644.754 0 1.508-5.626 2.263-5.626.833 0 1.667 7.781 2.501 10.538.808 2.671 1.617 2.169 2.425 5.883.835 3.838 1.67 12.806 2.505 17.131.808 4.185 1.616 8.411 2.424 8.661.835.259 1.67.13 2.505.388.835.259 1.67 13.65 2.506 13.65.809 0 1.618-5.704 2.427-7.914.835-2.28 1.67-5.472 2.505-5.472.809 0 1.617 8.955 2.425 12.03.835 3.178 1.67 5.567 2.505 6.538.835.971 1.67.966 2.505 1.457.754.443 1.509 1.341 2.263 1.341.834 0 1.668-6.594 2.502-6.594.808 0 1.616.462 2.424.462.835 0 1.67-4.08 2.505-5.584.808-1.455 1.616-1.732 2.425-3.364.835-1.686 1.67-6.693 2.505-6.693s1.67 6.864 2.505 6.864c.81 0 1.618-7.128 2.428-7.128.835 0 1.67 1.974 2.505 1.974.808 0 1.616-.371 2.424-1.114.835-.767 1.67-3.363 2.505-4.391s1.67-1.27 2.506-1.775c.78-.473 1.562-.98 2.343-1.19a9.56 9.56 0 012.502-.338c.808 0 1.616 1.434 2.424 1.434.835 0 1.67-3.106 2.505-3.106.809 0 1.617 2.918 2.425 3.028.835.115 1.67.058 2.505.172.835.114 1.67.534 2.505.687a13.4 13.4 0 002.425.233c.836 0 1.672-.608 2.508-1.087.808-.463 1.616-.984 2.424-1.714.835-.754 1.67-1.985 2.506-2.77.835-.784 1.67-1.638 2.505-1.935a6.695 6.695 0 012.26-.402c.834 0 1.67 2.78 2.504 2.78.808 0 1.617-7.003 2.425-9.207.835-2.277 1.67-2.51 2.505-4.06.808-1.499 1.616-5.048 2.424-5.048.835 0 1.67.126 2.505.126s1.67-5.893 2.506-5.893c.808 0 1.616 3.528 2.424 3.528.836 0 1.672-6.56 2.508-8.511.809-1.887 1.617-2.2 2.425-3.18.835-1.013 1.67-1.786 2.505-2.783.835-.996 1.67-2.828 2.505-3.196a5.571 5.571 0 012.26-.497c.835 0 1.67.277 2.505.83.808.535 1.616 9.869 2.424 9.869.835 0 1.67-1.71 2.505-1.936.808-.22 1.616-.11 2.425-.329.835-.226 1.67-1.889 2.505-3.168.835-1.278 1.67-2.762 2.505-4.503.808-1.684 1.616-5.724 2.424-5.724.836 0 1.673 2.503 2.509 2.503.808 0 1.616-2.458 2.424-3.927.835-1.518 1.67-5.068 2.505-5.068s1.67 4.416 2.506 4.416c.753 0 1.506-.943 2.259-1.84.835-.993 1.67-2.068 2.505-4.024.808-1.894 1.616-7.407 2.424-7.407.835 0 1.67.72 2.506 2.162.808 1.394 1.616 6.835 2.424 6.876.835.041 1.67.062 2.505.062s1.67-1.552 2.505-2.302c.808-.726 1.617-2.13 2.425-2.13.836 0 1.672 10.117 2.508 11.331.808 1.174 1.616.587 2.425 1.761.835 1.213 1.67 12.158 2.505 14.784.835 2.626 1.67 1.896 2.505 3.939.781 1.91 1.562 7.648 2.343 7.648.834 0 1.668-8.492 2.502-10.48.808-1.925 1.617-2.888 2.425-2.888.835 0 1.67 13.618 2.505 15.09.808 1.426 1.616 2.138 2.424 2.138.835 0 1.67-6.393 2.505-6.393s1.67 9.298 2.505 13.7c.81 4.266 1.619 9.034 2.428 12.332.835 3.404 1.67 5.24 2.505 7.614.809 2.297 1.617 5.797 2.425 6.434.835.658 1.67.329 2.505.987.835.657 1.67 9.658 2.505 9.658.754 0 1.509-.724 2.263-2.173.834-1.601 1.668-9.458 2.502-11.61.808-2.086 1.616-3.129 2.424-3.129.835 0 1.67.781 2.505.781.808 0 1.616-7.395 2.425-9.655.835-2.335 1.67-2.987 2.505-3.934.835-.947 1.67-1.749 2.505-1.749.81 0 1.618 3.65 2.428 3.65.835 0 1.67-1.315 2.505-3.242.808-1.865 1.616-7.973 2.424-7.973.835 0 1.67 1.522 2.505 1.522s1.67-3.108 2.505-5.958c.755-2.574 1.509-8.664 2.263-9.838.834-1.298 1.668-1.947 2.502-1.947.808 0 1.616 1.914 2.424 3.2.835 1.33 1.67 4.692 2.506 4.692.808 0 1.616-2.668 2.424-2.668.835 0 1.67 1.58 2.505 1.58s1.67-1.383 2.505-2.33c.808-.916 1.617-1.636 2.425-3.228.836-1.648 1.672-4.284 2.508-6.603.808-2.24 1.616-7.052 2.425-7.052.835 0 1.67.33 2.505.33s1.67-4.08 2.505-4.08c.753 0 1.506 5.748 2.26 6.031.834.315 1.67.473 2.504.473.809 0 1.617-2.033 2.425-2.033.835 0 1.67 2.811 2.505 3.34.808.51 1.616.255 2.424.766.835.528 1.67 11.097 2.505 13.267.836 2.17 1.67 3.254 2.506 3.254.808 0 1.616-7.463 2.424-9.285.836-1.886 1.672-1.36 2.509-2.83.808-1.42 1.616-3.958 2.424-5.74.835-1.84 1.67-3.455 2.505-5.097.835-1.642 1.67-3.357 2.505-4.752.78-1.303 1.56-3.415 2.34-3.415.835 0 1.67.012 2.506.034.808.022 1.616 4.516 2.424 4.516.835 0 1.67-3.915 2.505-6.1.808-2.113 1.616-6.765 2.425-6.765.835 0 1.67.168 2.505.168s1.67-.44 2.505-.44c.808 0 1.616 2.11 2.424 2.11.836 0 1.673-2.103 2.509-2.499.808-.382 1.616-.19 2.424-.573.835-.395 1.67-2.542 2.505-4.343.835-1.8 1.67-3.553 2.505-6.463.755-2.628 1.509-8.374 2.263-9.732.834-1.501 1.668-1.658 2.502-2.252.808-.576 1.616-1.285 2.424-1.285.835 0 1.67 6.26 2.506 6.26.808 0 1.616-7.57 2.424-7.57.835 0 1.67 3.803 2.505 3.803s1.67-3.979 2.505-6.042c.81-2 1.619-4.392 2.428-6.137.835-1.802 1.67-3.403 2.505-4.446.808-1.009 1.616-1.794 2.424-1.794.836 0 1.67 3.913 2.506 3.913.835 0 1.67-5.542 2.505-6.157.754-.556 1.508-.488 2.263-.833.834-.382 1.667-.465 2.501-1.393.808-.9 1.617-6.832 2.425-8.879.835-2.115 1.67-2.664 2.505-3.421.808-.733 1.616-.375 2.424-1.123.835-.773 1.67-6.674 2.505-9.011.835-2.338 1.67-3.686 2.506-5.015.809-1.288 1.618-1.43 2.427-2.9.835-1.517 1.67-4.597 2.506-6.159.808-1.511 1.616-1.05 2.424-3.153.835-2.172 1.67-9.166 2.505-14.693.835-5.526 1.67-13.853 2.505-18.466.754-4.167 1.509-8.728 2.263-8.728.834 0 1.668 5.548 2.502 5.548.808 0 1.616-8.114 2.424-8.114.835 0 1.67 13.217 2.505 13.217.808 0 1.617-11.636 2.425-11.636.835 0 1.67 20.83 2.505 27.024.835 6.193 1.67 10.139 2.505 10.139.81 0 1.618-20.536 2.428-26.832.835-6.497 1.67-11.032 2.505-11.032.808 0 1.616 8.764 2.424 14.121.835 5.536 1.67 17.929 2.505 18.69.835.762 1.67 1.143 2.506 1.143.78 0 1.56-4.397 2.34-6.072.835-1.794 1.67-2.04 2.505-4.185.808-2.076 1.616-8.337 2.424-8.337.835 0 1.67 1.862 2.505 1.862.809 0 1.617-12.213 2.425-12.213.835 0 1.67.166 2.505.166s1.67-.916 2.505-.918l2.425-.001c.836-.001 1.672-9.585 2.508-13.71.808-3.988 1.616-9.898 2.424-10.718.836-.848 1.67-.424 2.506-1.272.835-.848 1.67-13.91 2.505-14.505.753-.537 1.506-.806 2.26-.806.834 0 1.67 1.79 2.504 2.47.808.66 1.617.614 2.425 1.58.835.998 1.67 3.596 2.505 4.404.808.781 1.616.62 2.424 1.172.835.571 1.67 2.23 2.505 2.23s1.67-4.826 2.506-8.212c.808-3.278 1.616-10.778 2.424-11.656.836-.908 1.672-1.045 2.508-1.362.809-.307 1.617-.18 2.425-.538.835-.37 1.67-4.901 2.505-4.901s1.67 4.713 2.505 8.05c.753 3.01 1.506 10.624 2.26 10.624.835 0 1.67-6.828 2.505-11.138.808-4.17 1.616-13.414 2.424-14.189.835-.8 1.67-.4 2.505-1.2.808-.775 1.616-6.35 2.425-9.106.835-2.848 1.67-5.576 2.505-7.65.835-2.076 1.67-4.8 2.505-4.8.808 0 1.616 20.567 2.424 20.567.837 0 1.673-3.01 2.509-3.01.808 0 1.616 31.291 2.424 31.291.835 0 1.67-19.109 2.505-25.666.835-6.557 1.67-9.28 2.506-13.677.754-3.972 1.508-7.383 2.262-11.52.834-4.576 1.668-14.818 2.502-14.818.808 0 1.616 21.064 2.424 21.064.836 0 1.67-12.724 2.506-17.409.808-4.534 1.616-10.462 2.424-10.462.835 0 1.67 4.145 2.505 4.145s1.67-14.273 2.505-14.623c.81-.34 1.619-.17 2.428-.51.835-.35 1.67-16.786 2.505-18.962.808-2.107 1.616-1.881 2.425-3.16.835-1.32 1.67-4.685 2.505-4.685s1.67 19.728 2.505 35.508c.781 14.761 1.562 54.64 2.344 54.64.833 0 1.667-36.176 2.501-43 .808-6.614 1.617-8.267 2.425-9.92" stroke="#4285f4"/><path d="M93.317 520.608h2.505c.835 0 1.67 1.718 2.505 2.64.754.832 1.509 1.406 2.263 2.597.753 1.189 1.506 4.235 2.26 4.54.834.336 1.67.505 2.504.505.808 0 1.617-3.634 2.425-3.634.835 0 1.67.094 2.505.282.808.182 1.616.688 2.424 1.789.835 1.137 1.67 3.369 2.505 5.028.835 1.659 1.67 4.926 2.506 4.926.809 0 1.618-1.861 2.427-1.861.835 0 1.67 1.612 2.505 1.612.809 0 1.617-.18 2.425-.506.835-.337 1.67-.638 2.505-1.516s1.67-2.479 2.505-3.753c.754-1.152 1.509-3.178 2.263-3.51.834-.368 1.668-.552 2.502-.552.808 0 1.616 1.604 2.424 1.604.835 0 1.67-.01 2.505-.033.808-.02 1.616-1.563 2.425-1.563.835 0 1.67.902 2.505 1.083.835.18 1.67.27 2.505.27.81 0 1.618-.57 2.428-.57.835 0 1.67 2.209 2.505 2.847.808.619 1.616.984 2.424.984.835 0 1.67-.744 2.505-.744s1.67.09 2.506.272c.78.17 1.562 1.613 2.343 1.613.834 0 1.668-.117 2.502-.35.808-.227 1.616-3.716 2.424-3.716.835 0 1.67 3.053 2.505 4.302.809 1.208 1.617 2.27 2.425 3.102.835.86 1.67 1.938 2.505 1.938.836 0 1.672-.102 2.508-.304.809-.196 1.617-3.128 2.425-3.316.835-.194 1.67-.281 2.505-.29.808-.01 1.616-.006 2.424-.015a5.855 5.855 0 002.506-.605c.835-.404 1.67-3.464 2.505-4.595.754-1.021 1.508-1.37 2.262-2.084.834-.79 1.668-1.537 2.502-2.442.808-.877 1.616-2.111 2.425-2.889.835-.803 1.67-.98 2.505-1.816.808-.81 1.616-2.382 2.424-3.075.835-.716 1.67-1.086 2.505-1.086.836 0 1.673.86 2.509.86.808 0 1.616-6.61 2.424-6.61.835 0 1.67 1.906 2.505 1.906.809 0 1.617-10.489 2.425-11.495.835-1.04 1.67-1.56 2.505-1.56s1.67 1.627 2.505 3.343c.753 1.547 1.506 5.696 2.26 6.11.835.457 1.67.686 2.505.686.808 0 1.616-1.529 2.424-1.529.835 0 1.67 4.82 2.505 4.82.808 0 1.616-1.444 2.425-1.921.835-.493 1.67-.957 2.505-.957.836 0 1.672 1.426 2.508 2.037.808.59 1.616.853 2.425 1.58.835.752 1.67 2.424 2.505 2.897.808.457 1.616.228 2.424.685.835.473 1.67 2.745 2.505 2.745s1.67-.971 2.505-.971c.754 0 1.507.954 2.26.954.835 0 1.67-.111 2.505-.334.808-.215 1.616-3.314 2.424-3.314.835 0 1.67.873 2.506.873.808 0 1.616-1.171 2.424-1.802.835-.653 1.67-1.674 2.505-2.055.836-.381 1.672-.572 2.509-.572.808 0 1.616.792 2.424.792.835 0 1.67-1.97 2.505-2.737.808-.742 1.616-.606 2.425-1.817.835-1.252 1.67-7.766 2.505-7.766s1.67 1.41 2.505 1.585c.781.165 1.562.247 2.343.247.834 0 1.668-2.818 2.502-3 .808-.177 1.616-.238 2.425-.265a73.73 73.73 0 012.505-.043c.808 0 1.616 3.43 2.424 3.43.835 0 1.67-1.63 2.505-2.858.835-1.228 1.67-3.959 2.505-4.511.81-.536 1.619-.268 2.428-.803.835-.553 1.67-4.417 2.505-5.857.808-1.393 1.617-1.492 2.425-2.737.835-1.287 1.67-3.445 2.505-4.928s1.67-3.972 2.505-3.972c.754 0 1.509 4.96 2.263 4.96.834 0 1.668-1.401 2.502-2.96.808-1.512 1.616-5.202 2.424-6.148.835-.977 1.67-.488 2.505-1.465.808-.946 1.616-7.727 2.424-7.727.836 0 1.67 1.968 2.506 1.968.835 0 1.67-1.896 2.505-1.896.81 0 1.618 18.356 2.428 18.356.835 0 1.67-.004 2.505-.012.808-.008 1.616-.302 2.424-.302.835 0 1.67 1.714 2.505 1.714s1.67-4.734 2.505-5.568c.755-.754 1.509-1.13 2.263-1.13.834 0 1.668 3.633 2.502 5.289.808 1.605 1.616 3.444 2.424 4.513.835 1.103 1.67.638 2.506 1.914.808 1.235 1.616 3.368 2.424 5.916.835 2.633 1.67 9.747 2.505 9.747s1.67-.31 2.505-.927c.81-.598 1.619-4.351 2.428-6.075.835-1.779 1.67-4.375 2.505-4.375.808 0 1.616 2.034 2.424 2.034.836 0 1.67-.114 2.506-.343.835-.228 1.67-.804 2.505-1.972.754-1.054 1.508-2.179 2.263-4.41.833-2.469 1.667-10.198 2.501-10.198.808 0 1.617.758 2.425.758.835 0 1.67-2.864 2.505-2.864.808 0 1.616 4.637 2.424 4.637.835 0 1.67-.246 2.505-.246s1.67 4.936 2.506 4.966c.808.03 1.616.045 2.424.045.836 0 1.672-4.6 2.509-6.522.808-1.859 1.616-3.732 2.424-4.871.835-1.177 1.67-1.98 2.505-1.98s1.67 3.476 2.505 3.476c.78 0 1.56-5.042 2.34-7.132.835-2.238 1.67-5.726 2.506-5.726.808 0 1.616 6.44 2.424 6.44.835 0 1.67-2.426 2.505-4.701.808-2.202 1.616-5.792 2.424-8.593.836-2.895 1.67-8.377 2.506-8.482a19.96 19.96 0 012.505-.158c.808 0 1.616.777 2.424 1.189.836.425 1.673 1.325 2.509 1.325.808 0 1.616-.372 2.424-1.042.835-.693 1.67-2.527 2.505-3.112.835-.586 1.67-.878 2.505-.878.754 0 1.507 2.347 2.26 2.347.835 0 1.67-.649 2.505-1.947.808-1.257 1.616-5.687 2.424-7.384.835-1.754 1.67-2.813 2.505-2.813.809 0 1.617 5.034 2.425 6.566.835 1.584 1.67.883 2.505 2.65.835 1.765 1.67 12.982 2.505 12.982.808 0 1.616-.331 2.425-.994.836-.686 1.672-4.633 2.508-6.447.808-1.754 1.616-3.257 2.424-4.323.836-1.102 1.67-1.63 2.506-2.103.835-.474 1.67-.246 2.505-.737.754-.444 1.508-5.757 2.263-5.757.833 0 1.667.284 2.501.529.808.236 1.617.3 2.425.902.835.622 1.67 5.645 2.505 7.947.808 2.228 1.616 4.514 2.424 5.706.835 1.233 1.67.617 2.505 1.85.835 1.232 1.67 4.463 2.506 5.717.809 1.214 1.618 1.821 2.427 1.821.835 0 1.67-3.744 2.505-3.744.809 0 1.617 3.865 2.425 5.58.835 1.77 1.67 4.847 2.505 4.847s1.67-.085 2.505-.085c.754 0 1.509 1.436 2.263 1.436.834 0 1.668-1.234 2.502-1.937.808-.682 1.616-1.04 2.424-2.208.835-1.207 1.67-2.985 2.505-5.005.808-1.955 1.616-4.647 2.425-6.854.835-2.28 1.67-6.594 2.505-6.594s1.67 1.722 2.505 1.722c.81 0 1.618-3.603 2.428-3.99.835-.4 1.67-.599 2.505-.599.808 0 1.616.547 2.424.547.835 0 1.67-5.895 2.505-8.037.835-2.143 1.67-2.467 2.506-4.817.78-2.199 1.562-8.552 2.343-8.552.834 0 1.668 13.203 2.502 13.203.808 0 1.616-3.208 2.424-4.577a37.196 37.196 0 012.505-3.739c.809-1.053 1.617-1.171 2.425-2.716.835-1.596 1.67-6.835 2.505-6.835s1.67 1.742 2.505 1.742c.808 0 1.616-1.88 2.425-2.989.836-1.146 1.672-2.294 2.508-3.798.808-1.453 1.616-5.026 2.424-5.026.835 0 1.67.85 2.506.85.835 0 1.67-.474 2.505-.474.753 0 1.506.67 2.26.67.834 0 1.67-3.482 2.504-6.512.808-2.932 1.617-7.592 2.425-11.21.835-3.737 1.67-7.5 2.505-10.83.808-3.224 1.616-8.884 2.424-8.884.835 0 1.67 4.537 2.505 4.537s1.67-8.166 2.506-8.166c.808 0 1.616 4.883 2.424 4.883.836 0 1.672-7.264 2.508-10.501.809-3.13 1.617-5.94 2.425-8.65.835-2.8 1.67-4.967 2.505-7.849.835-2.882 1.67-6.573 2.505-9.441.753-2.586 1.506-7.076 2.26-7.076.835 0 1.67 6.87 2.505 10.807.808 3.81 1.616 12.365 2.424 12.365.835 0 1.67-6.033 2.505-9.041.808-2.911 1.616-5.933 2.425-8.716.835-2.876 1.67-5.5 2.505-8.239.835-2.738 1.67-4.67 2.505-8.192.808-3.408 1.616-10.495 2.424-12.443.836-2.016 1.673-1.008 2.509-3.024.808-1.948 1.616-4.515 2.424-8.831.835-4.46 1.67-17.775 2.505-17.775s1.67 2.45 2.506 2.81c.753.325 1.506.163 2.259.488.835.36 1.67 5.144 2.505 5.144.808 0 1.616-6.455 2.424-6.455.835 0 1.67 16.007 2.506 22.725.808 6.5 1.616 17.092 2.424 17.092.835 0 1.67-6.397 2.505-8.506s1.67-3.083 2.505-4.147c.808-1.03 1.617-2.197 2.425-2.197.836 0 1.672 18.458 2.508 24.576.808 5.913 1.616 7.868 2.425 11.928.835 4.196 1.67 9.136 2.505 12.855.835 3.72 1.67 6.435 2.505 9.461.781 2.831 1.562 8.16 2.343 8.16.834 0 1.668-16.59 2.502-16.59.808 0 1.617 1.688 2.425 5.063.835 3.487 1.67 28.063 2.505 28.063.808 0 1.616-1.645 2.424-3.354.835-1.766 1.67-7.19 2.505-7.19s1.67 3.245 2.505 9.734c.81 6.29 1.619 28.02 2.428 37.933.835 10.23 1.67 21.965 2.505 21.965.809 0 1.617-.102 2.425-.102.835 0 1.67 2.7 2.505 7.075s1.67 19.176 2.505 19.176c.754 0 1.509-.817 2.263-2.452.834-1.807 1.668-17.182 2.502-21.913.808-4.585 1.616-6.108 2.424-6.878.835-.795 1.67-.398 2.505-1.193.808-.77 1.616-8.405 2.425-11.895.835-3.607 1.67-6.793 2.505-9.3.835-2.505 1.67-5.737 2.505-5.737.81 0 1.618 3.298 2.428 3.298.835 0 1.67-.05 2.505-.151.808-.098 1.616-13.337 2.424-13.337.835 0 1.67 4.657 2.505 4.657s1.67-4.234 2.505-8.237c.755-3.617 1.509-10.317 2.263-13.927.834-3.99 1.668-8.186 2.502-8.186.808 0 1.616.664 2.424 1.468.835.83 1.67 3.5 2.506 3.5.808 0 1.616-4.25 2.424-5.85a20.091 20.091 0 012.505-3.833c.835-1.02 1.67-1.076 2.505-2.28.808-1.165 1.617-3.171 2.425-4.743.836-1.626 1.672-2.876 2.508-4.847.808-1.905 1.616-6.71 2.425-6.71.835 0 1.67 1.915 2.505 1.915s1.67-4.655 2.505-4.655c.753 0 1.506 8.594 2.26 8.594.834 0 1.67-.312 2.504-.937.809-.604 1.617-8.015 2.425-8.015.835 0 1.67 7.443 2.505 7.443.808 0 1.616-3.492 2.424-3.492.835 0 1.67 9.84 2.505 14.283.836 4.443 1.67 12.376 2.506 12.376.808 0 1.616-16.115 2.424-16.115.836 0 1.672 4.564 2.509 4.564.808 0 1.616-5.598 2.424-9.546.835-4.078 1.67-12.728 2.505-14.686.835-1.958 1.67-1.76 2.505-2.937.78-1.1 1.56-2.106 2.34-3.815.835-1.829 1.67-6.583 2.506-6.99.808-.395 1.616-.198 2.424-.593.835-.407 1.67-4.679 2.505-9.167.808-4.344 1.616-17.056 2.425-17.056.835 0 1.67 4.934 2.505 5.725.835.79 1.67 1.185 2.505 1.185.808 0 1.616-.082 2.424-.246.836-.17 1.673-.542 2.509-1.627.808-1.048 1.616-6.105 2.424-6.404.835-.31 1.67-.155 2.505-.465.835-.31 1.67-8.17 2.505-12.39.755-3.812 1.509-7.714 2.263-11.653.834-4.356 1.668-13.271 2.502-13.271.808 0 1.616 14.392 2.424 18.98.835 4.74 1.67 6.813 2.506 8.653.808 1.781 1.616.89 2.424 2.671.835 1.84 1.67 10.159 2.505 10.159s1.67-5.595 2.505-8.07c.81-2.4 1.619-6.594 2.428-6.594.835 0 1.67 8.3 2.505 10.202.808 1.84 1.616 2.761 2.424 2.761.836 0 1.67-3.53 2.506-5.142.835-1.613 1.67-3.84 2.505-4.536.754-.629 1.508-.314 2.263-.943.834-.695 1.667-3.287 2.501-6.87.808-3.473 1.617-12.109 2.425-14.061.835-2.018 1.67-1.116 2.505-3.026.808-1.849 1.616-5.166 2.424-8.077.835-3.009 1.67-9.726 2.505-9.726s1.67 7.082 2.506 7.082c.809 0 1.618-20.737 2.427-23.708.835-3.066 1.67-1.752 2.506-4.599.808-2.755 1.616-3.985 2.424-11.956.835-8.237 1.67-44.45 2.505-44.52.835-.07 1.67-.035 2.505-.104.754-.063 1.509-16.927 2.263-16.927.834 0 1.668 23.489 2.502 23.489.808 0 1.616-2.938 2.424-2.938.835 0 1.67 21.581 2.505 21.581.808 0 1.617-16.227 2.425-16.227.835 0 1.67 28.286 2.505 28.286s1.67-1.941 2.505-5.824c.81-3.762 1.618-19.45 2.428-25.153.835-5.884 1.67-9.084 2.505-9.084.808 0 1.616 3.852 2.424 7.614.835 3.888 1.67 15.534 2.505 15.585.835.05 1.67.076 2.506.076.78 0 1.56-16.651 2.34-16.651.835 0 1.67 2.457 2.505 2.457.808 0 1.616-6.779 2.424-11.119.835-4.485 1.67-9.781 2.505-15.486.809-5.52 1.617-18.086 2.425-18.086.835 0 1.67 6.843 2.505 9.823.835 2.98 1.67 4.266 2.505 8.056.808 3.668 1.616 14.106 2.425 14.106.836 0 1.672-.688 2.508-2.063.808-1.33 1.616-14.241 2.424-14.241.836 0 1.67 8.048 2.506 8.048.835 0 1.67-20.129 2.505-20.129.753 0 1.506 7.657 2.26 9.502.834 2.047 1.67 1.024 2.504 3.07.808 1.98 1.617 8.175 2.425 9.955.835 1.84 1.67 1.21 2.505 2.76.808 1.502 1.616 4.765 2.424 6.278.835 1.563 1.67 2.833 2.505 2.833s1.67-.279 2.506-.837c.808-.54 1.616-2.993 2.424-3.894.836-.933 1.672-.86 2.508-1.524.809-.642 1.617-2.364 2.425-2.364.835 0 1.67 9.376 2.505 14.979s1.67 18.638 2.505 18.638c.753 0 1.506-2.363 2.26-5.346.835-3.308 1.67-8.42 2.505-14.353.808-5.742 1.616-16.815 2.424-20.454.835-3.76 1.67-4.317 2.505-5.641.808-1.281 1.616-.916 2.425-2.281.835-1.41 1.67-6.17 2.505-6.17s1.67 5.942 2.505 8.323c.808 2.303 1.616 5.803 2.424 5.803.837 0 1.673-15.546 2.509-15.546.808 0 1.616 28.29 2.424 28.29.835 0 1.67-40.32 2.505-41.987.835-1.668 1.67-.834 2.506-2.502.754-1.506 1.508-22.079 2.262-22.079.834 0 1.668 5.578 2.502 5.578.808 0 1.616-.973 2.424-.973.836 0 1.67 3.138 2.506 3.138.808 0 1.616-7.643 2.424-11.858.835-4.356 1.67-8.893 2.505-13.909.835-5.015 1.67-15.836 2.505-16.185a6.248 6.248 0 012.428-.508c.835 0 1.67.185 2.505.557.808.36 1.616 6.793 2.425 6.793.835 0 1.67-10.317 2.505-10.317s1.67 12.652 2.505 37.957c.781 23.672 1.562 106.796 2.344 106.796.833 0 1.667-26.14 2.501-26.14.808 0 1.617 2.698 2.425 5.395" stroke="#db4437"/></g><g class="legends" dominant-baseline="middle" font-family="-apple-system,BlinkMacSystemFont,&quot;Segoe UI&quot;,Roboto,Oxygen-Sans,Ubuntu,Cantarell,&quot;Helvetica Neue&quot;,sans-serif" font-size="16" color="#333"><text x=".5em" y="138.255" fill="#4285f4" transform="translate(993.317 20)">MSCI World</text><text x=".5em" y="172.762" fill="#db4437" transform="translate(993.317 20)">FTSE EPRA/NAREIT Developed</text></g></svg>