<svg xmlns="http://www.w3.org/2000/svg" class="chart-new-svg" viewBox="0 0 1231.95 634.231"><g class="x-axis axis"><path class="chart-new-axis-axis-line" font-family="-apple-system,BlinkMacSystemFont,&quot;Segoe UI&quot;,Roboto,Oxygen-Sans,Ubuntu,Cantarell,&quot;Helvetica Neue&quot;,sans-serif" font-size="16" stroke="#ddd" color="#333" d="M93.317 576.23h900"/><g class="axis-tick-labels"><path fill="none" font-family="-apple-system,BlinkMacSystemFont,&quot;Segoe UI&quot;,Roboto,Oxygen-Sans,Ubuntu,Cantarell,&quot;Helvetica Neue&quot;,sans-serif" font-size="16" color="#333" d="M93.317 576.23h1v10h-1z"/><text class="axis-tick-label" text-anchor="middle" x="2.586" y="10" dy="1em" font-family="-apple-system,BlinkMacSystemFont,&quot;Segoe UI&quot;,Roboto,Oxygen-Sans,Ubuntu,Cantarell,&quot;Helvetica Neue&quot;,sans-serif" font-size="12" fill="#999" color="#333" transform="translate(93.317 576.23)">1990</text><text class="axis-tick-label" text-anchor="middle" x="61.579" y="10" dy="1em" font-family="-apple-system,BlinkMacSystemFont,&quot;Segoe UI&quot;,Roboto,Oxygen-Sans,Ubuntu,Cantarell,&quot;Helvetica Neue&quot;,sans-serif" font-size="12" fill="#999" color="#333" transform="translate(93.317 576.23)">1992</text><text class="axis-tick-label" text-anchor="middle" x="120.652" y="10" dy="1em" font-family="-apple-system,BlinkMacSystemFont,&quot;Segoe UI&quot;,Roboto,Oxygen-Sans,Ubuntu,Cantarell,&quot;Helvetica Neue&quot;,sans-serif" font-size="12" fill="#999" color="#333" transform="translate(93.317 576.23)">1994</text><text class="axis-tick-label" text-anchor="middle" x="179.645" y="10" dy="1em" font-family="-apple-system,BlinkMacSystemFont,&quot;Segoe UI&quot;,Roboto,Oxygen-Sans,Ubuntu,Cantarell,&quot;Helvetica Neue&quot;,sans-serif" font-size="12" fill="#999" color="#333" transform="translate(93.317 576.23)">1996</text><text class="axis-tick-label" text-anchor="middle" x="238.719" y="10" dy="1em" font-family="-apple-system,BlinkMacSystemFont,&quot;Segoe UI&quot;,Roboto,Oxygen-Sans,Ubuntu,Cantarell,&quot;Helvetica Neue&quot;,sans-serif" font-size="12" fill="#999" color="#333" transform="translate(93.317 576.23)">1998</text><text class="axis-tick-label" text-anchor="middle" x="297.711" y="10" dy="1em" font-family="-apple-system,BlinkMacSystemFont,&quot;Segoe UI&quot;,Roboto,Oxygen-Sans,Ubuntu,Cantarell,&quot;Helvetica Neue&quot;,sans-serif" font-size="12" fill="#999" color="#333" transform="translate(93.317 576.23)">2000</text><text class="axis-tick-label" text-anchor="middle" x="356.785" y="10" dy="1em" font-family="-apple-system,BlinkMacSystemFont,&quot;Segoe UI&quot;,Roboto,Oxygen-Sans,Ubuntu,Cantarell,&quot;Helvetica Neue&quot;,sans-serif" font-size="12" fill="#999" color="#333" transform="translate(93.317 576.23)">2002</text><text class="axis-tick-label" text-anchor="middle" x="415.778" y="10" dy="1em" font-family="-apple-system,BlinkMacSystemFont,&quot;Segoe UI&quot;,Roboto,Oxygen-Sans,Ubuntu,Cantarell,&quot;Helvetica Neue&quot;,sans-serif" font-size="12" fill="#999" color="#333" transform="translate(93.317 576.23)">2004</text><text class="axis-tick-label" text-anchor="middle" x="474.851" y="10" dy="1em" font-family="-apple-system,BlinkMacSystemFont,&quot;Segoe UI&quot;,Roboto,Oxygen-Sans,Ubuntu,Cantarell,&quot;Helvetica Neue&quot;,sans-serif" font-size="12" fill="#999" color="#333" transform="translate(93.317 576.23)">2006</text><text class="axis-tick-label" text-anchor="middle" x="533.844" y="10" dy="1em" font-family="-apple-system,BlinkMacSystemFont,&quot;Segoe UI&quot;,Roboto,Oxygen-Sans,Ubuntu,Cantarell,&quot;Helvetica Neue&quot;,sans-serif" font-size="12" fill="#999" color="#333" transform="translate(93.317 576.23)">2008</text><text class="axis-tick-label" text-anchor="middle" x="592.918" y="10" dy="1em" font-family="-apple-system,BlinkMacSystemFont,&quot;Segoe UI&quot;,Roboto,Oxygen-Sans,Ubuntu,Cantarell,&quot;Helvetica Neue&quot;,sans-serif" font-size="12" fill="#999" color="#333" transform="translate(93.317 576.23)">2010</text><text class="axis-tick-label" text-anchor="middle" x="651.91" y="10" dy="1em" font-family="-apple-system,BlinkMacSystemFont,&quot;Segoe UI&quot;,Roboto,Oxygen-Sans,Ubuntu,Cantarell,&quot;Helvetica Neue&quot;,sans-serif" font-size="12" fill="#999" color="#333" transform="translate(93.317 576.23)">2012</text><text class="axis-tick-label" text-anchor="middle" x="710.984" y="10" dy="1em" font-family="-apple-system,BlinkMacSystemFont,&quot;Segoe UI&quot;,Roboto,Oxygen-Sans,Ubuntu,Cantarell,&quot;Helvetica Neue&quot;,sans-serif" font-size="12" fill="#999" color="#333" transform="translate(93.317 576.23)">2014</text><text class="axis-tick-label" text-anchor="middle" x="769.977" y="10" dy="1em" font-family="-apple-system,BlinkMacSystemFont,&quot;Segoe UI&quot;,Roboto,Oxygen-Sans,Ubuntu,Cantarell,&quot;Helvetica Neue&quot;,sans-serif" font-size="12" fill="#999" color="#333" transform="translate(93.317 576.23)">2016</text><text class="axis-tick-label" text-anchor="middle" x="829.05" y="10" dy="1em" font-family="-apple-system,BlinkMacSystemFont,&quot;Segoe UI&quot;,Roboto,Oxygen-Sans,Ubuntu,Cantarell,&quot;Helvetica Neue&quot;,sans-serif" font-size="12" fill="#999" color="#333" transform="translate(93.317 576.23)">2018</text><text class="axis-tick-label" text-anchor="middle" x="888.043" y="10" dy="1em" font-family="-apple-system,BlinkMacSystemFont,&quot;Segoe UI&quot;,Roboto,Oxygen-Sans,Ubuntu,Cantarell,&quot;Helvetica Neue&quot;,sans-serif" font-size="12" fill="#999" color="#333" transform="translate(93.317 576.23)">2020</text></g><g class="axis-label"><path fill="none" font-family="-apple-system,BlinkMacSystemFont,&quot;Segoe UI&quot;,Roboto,Oxygen-Sans,Ubuntu,Cantarell,&quot;Helvetica Neue&quot;,sans-serif" font-size="14" color="#333" d="M93.317 601.23h1v16h-1z"/><text class="axis-label-label" x="450" y="16" dy="1em" text-anchor="middle" font-family="-apple-system,BlinkMacSystemFont,&quot;Segoe UI&quot;,Roboto,Oxygen-Sans,Ubuntu,Cantarell,&quot;Helvetica Neue&quot;,sans-serif" font-size="14" fill="#999" color="#333" transform="translate(93.317 601.23)">Time</text></g><g class="axis-tick-lines"><path class="axis-tick-line" font-family="-apple-system,BlinkMacSystemFont,&quot;Segoe UI&quot;,Roboto,Oxygen-Sans,Ubuntu,Cantarell,&quot;Helvetica Neue&quot;,sans-serif" font-size="16" stroke="#ddd" color="#333" d="M95.903 20v556.23M154.896 20v556.23M213.969 20v556.23M272.962 20v556.23M332.036 20v556.23M391.028 20v556.23M450.102 20v556.23M509.095 20v556.23M568.168 20v556.23M627.16 20v556.23M686.235 20v556.23M745.227 20v556.23M804.3 20v556.23M863.294 20v556.23M922.367 20v556.23M981.36 20v556.23"/></g></g><g class="y-axis axis"><text class="axis-label" x="-278.115" dy="1em" text-anchor="middle" transform="rotate(-90 10 10)" font-family="-apple-system,BlinkMacSystemFont,&quot;Segoe UI&quot;,Roboto,Oxygen-Sans,Ubuntu,Cantarell,&quot;Helvetica Neue&quot;,sans-serif" font-size="14" fill="#999" color="#333">Value of portfolio</text><g class="axis-tick-labels"><text class="axis-tick-label" text-anchor="end" alignment-baseline="middle" x="-10" y="556.231" font-family="-apple-system,BlinkMacSystemFont,&quot;Segoe UI&quot;,Roboto,Oxygen-Sans,Ubuntu,Cantarell,&quot;Helvetica Neue&quot;,sans-serif" font-size="12" fill="#999" color="#333" transform="translate(93.317 20)">€0</text><text class="axis-tick-label" text-anchor="end" alignment-baseline="middle" x="-10" y="500.608" font-family="-apple-system,BlinkMacSystemFont,&quot;Segoe UI&quot;,Roboto,Oxygen-Sans,Ubuntu,Cantarell,&quot;Helvetica Neue&quot;,sans-serif" font-size="12" fill="#999" color="#333" transform="translate(93.317 20)">€10,000</text><text class="axis-tick-label" text-anchor="end" alignment-baseline="middle" x="-10" y="444.984" font-family="-apple-system,BlinkMacSystemFont,&quot;Segoe UI&quot;,Roboto,Oxygen-Sans,Ubuntu,Cantarell,&quot;Helvetica Neue&quot;,sans-serif" font-size="12" fill="#999" color="#333" transform="translate(93.317 20)">€20,000</text><text class="axis-tick-label" text-anchor="end" alignment-baseline="middle" x="-10" y="389.361" font-family="-apple-system,BlinkMacSystemFont,&quot;Segoe UI&quot;,Roboto,Oxygen-Sans,Ubuntu,Cantarell,&quot;Helvetica Neue&quot;,sans-serif" font-size="12" fill="#999" color="#333" transform="translate(93.317 20)">€30,000</text><text class="axis-tick-label" text-anchor="end" alignment-baseline="middle" x="-10" y="333.738" font-family="-apple-system,BlinkMacSystemFont,&quot;Segoe UI&quot;,Roboto,Oxygen-Sans,Ubuntu,Cantarell,&quot;Helvetica Neue&quot;,sans-serif" font-size="12" fill="#999" color="#333" transform="translate(93.317 20)">€40,000</text><text class="axis-tick-label" text-anchor="end" alignment-baseline="middle" x="-10" y="278.115" font-family="-apple-system,BlinkMacSystemFont,&quot;Segoe UI&quot;,Roboto,Oxygen-Sans,Ubuntu,Cantarell,&quot;Helvetica Neue&quot;,sans-serif" font-size="12" fill="#999" color="#333" transform="translate(93.317 20)">€50,000</text><text class="axis-tick-label" text-anchor="end" alignment-baseline="middle" x="-10" y="222.492" font-family="-apple-system,BlinkMacSystemFont,&quot;Segoe UI&quot;,Roboto,Oxygen-Sans,Ubuntu,Cantarell,&quot;Helvetica Neue&quot;,sans-serif" font-size="12" fill="#999" color="#333" transform="translate(93.317 20)">€60,000</text><text class="axis-tick-label" text-anchor="end" alignment-baseline="middle" x="-10" y="166.869" font-family="-apple-system,BlinkMacSystemFont,&quot;Segoe UI&quot;,Roboto,Oxygen-Sans,Ubuntu,Cantarell,&quot;Helvetica Neue&quot;,sans-serif" font-size="12" fill="#999" color="#333" transform="translate(93.317 20)">€70,000</text><text class="axis-tick-label" text-anchor="end" alignment-baseline="middle" x="-10" y="111.246" font-family="-apple-system,BlinkMacSystemFont,&quot;Segoe UI&quot;,Roboto,Oxygen-Sans,Ubuntu,Cantarell,&quot;Helvetica Neue&quot;,sans-serif" font-size="12" fill="#999" color="#333" transform="translate(93.317 20)">€80,000</text><text class="axis-tick-label" text-anchor="end" alignment-baseline="middle" x="-10" y="55.623" font-family="-apple-system,BlinkMacSystemFont,&quot;Segoe UI&quot;,Roboto,Oxygen-Sans,Ubuntu,Cantarell,&quot;Helvetica Neue&quot;,sans-serif" font-size="12" fill="#999" color="#333" transform="translate(93.317 20)">€90,000</text><text class="axis-tick-label" text-anchor="end" alignment-baseline="middle" x="-10" font-family="-apple-system,BlinkMacSystemFont,&quot;Segoe UI&quot;,Roboto,Oxygen-Sans,Ubuntu,Cantarell,&quot;Helvetica Neue&quot;,sans-serif" font-size="12" fill="#999" color="#333" transform="translate(93.317 20)">€100,000</text></g><path class="chart-new-axis-line" font-family="-apple-system,BlinkMacSystemFont,&quot;Segoe UI&quot;,Roboto,Oxygen-Sans,Ubuntu,Cantarell,&quot;Helvetica Neue&quot;,sans-serif" font-size="16" stroke="#ddd" color="#333" d="M93.317 20v556.231M993.317 20v556.231"/><g class="axis-tick-lines"><path class="axis-tick-line" font-family="-apple-system,BlinkMacSystemFont,&quot;Segoe UI&quot;,Roboto,Oxygen-Sans,Ubuntu,Cantarell,&quot;Helvetica Neue&quot;,sans-serif" font-size="16" stroke="#ddd" color="#333" d="M93.317 576.231h900M93.317 520.608h900M93.317 464.984h900M93.317 409.361h900M93.317 353.738h900M93.317 298.115h900M93.317 242.492h900M93.317 186.869h900M93.317 131.246h900M93.317 75.623h900M93.317 20h900"/></g></g><g class="data" font-family="-apple-system,BlinkMacSystemFont,&quot;Segoe UI&quot;,Roboto,Oxygen-Sans,Ubuntu,Cantarell,&quot;Helvetica Neue&quot;,sans-serif" font-size="16" fill="none" stroke-width="2" color="#333"><path d="M93.317 520.608h2.505c.835 0 1.67 2.132 2.505 2.98.754.767 1.509 1.217 2.263 1.945.753.726 1.506 2.069 2.26 2.415.834.383 1.67.575 2.504.575.808 0 1.617-3.226 2.425-3.434.835-.215 1.67-.322 2.505-.322.808 0 1.616.131 2.424.394.835.27 1.67 4.082 2.505 5.656.835 1.574 1.67 3.789 2.506 3.789.809 0 1.618-1.637 2.427-1.637.835 0 1.67 1.136 2.505 1.136.809 0 1.617-.73 2.425-1.208.835-.495 1.67-.906 2.505-1.727.835-.82 1.67-2.144 2.505-3.197.754-.952 1.509-1.97 2.263-2.825.834-.944 1.668-1.798 2.502-2.512.808-.693 1.616-1.73 2.424-1.73.835 0 1.67.946 2.505.946.808 0 1.616-2.322 2.425-2.322.835 0 1.67.647 2.505.856.835.208 1.67.394 2.505.394.81 0 1.618-.953 2.428-.953.835 0 1.67 3.407 2.505 3.407.808 0 1.616-1.705 2.424-1.95.835-.251 1.67-.21 2.505-.378.835-.166 1.67-.622 2.506-.622.78 0 1.562.538 2.343.538.834 0 1.668-.064 2.502-.192.808-.124 1.616-1.14 2.424-1.14.835 0 1.67 2.445 2.505 3.306.809.833 1.617 1.476 2.425 1.821a6.34 6.34 0 002.505.535c.836 0 1.672-.443 2.508-.838.809-.382 1.617-.732 2.425-1.472.835-.765 1.67-2.634 2.505-3.092.808-.444 1.616-.352 2.424-.666.835-.324 1.67-.569 2.506-1.265.835-.695 1.67-1.868 2.505-2.91.754-.94 1.508-2.53 2.262-2.997.834-.517 1.668-.351 2.502-.775.808-.41 1.616-1.128 2.425-1.696.835-.587 1.67-.815 2.505-1.77.808-.924 1.616-2.584 2.424-3.797.835-1.253 1.67-3.591 2.505-3.591.836 0 1.673 2.834 2.509 2.834.808 0 1.616-3.635 2.424-3.635.835 0 1.67 1.058 2.505 1.058.809 0 1.617-3.813 2.425-5.464.835-1.707 1.67-4.576 2.505-4.576s1.67.563 2.505 1.688c.753 1.015 1.506 5.06 2.26 5.06.835 0 1.67-1.47 2.505-1.47.808 0 1.616.381 2.424.813.835.445 1.67 1.802 2.505 1.85.808.048 1.616.071 2.425.071.835 0 1.67-2.488 2.505-2.488.836 0 1.672 2.129 2.508 2.129.808 0 1.616-.015 2.425-.015.835 0 1.67 1.93 2.505 1.93.808 0 1.616-.983 2.424-.983.835 0 1.67 2.813 2.505 2.813s1.67-.159 2.505-.246c.754-.08 1.507-.084 2.26-.25.835-.184 1.67-.501 2.505-1.129.808-.607 1.616-2.529 2.424-2.529.835 0 1.67.545 2.506.545.808 0 1.616-1.735 2.424-2.24.835-.522 1.67-.264 2.505-.792.836-.528 1.672-2.492 2.509-2.492.808 0 1.616 1.937 2.424 1.937.835 0 1.67-1.471 2.505-2.432.808-.93 1.616-2.117 2.425-3.212.835-1.131 1.67-3.366 2.505-3.47.835-.104 1.67-.052 2.505-.156.781-.097 1.562-.41 2.343-.994.834-.624 1.668-2.124 2.502-2.738.808-.596 1.616-.949 2.425-.949.835 0 1.67.014 2.505.042.808.026 1.616 4.197 2.424 4.197.835 0 1.67-.248 2.505-.743s1.67-3.248 2.505-3.771c.81-.507 1.619-.254 2.428-.76.835-.524 1.67-3.007 2.505-3.612.808-.586 1.617-.293 2.425-.878.835-.605 1.67-2.6 2.505-4.143.835-1.544 1.67-5.12 2.505-5.12.754 0 1.509 1.406 2.263 1.406.834 0 1.668-1.778 2.502-3.218.808-1.396 1.616-3.403 2.424-5.223.835-1.88 1.67-3.565 2.505-5.893.808-2.253 1.616-7.78 2.424-7.78.836 0 1.67 5.164 2.506 5.164.835 0 1.67-2.705 2.505-2.705.81 0 1.618 9.42 2.428 9.888.835.482 1.67.723 2.505.723.808 0 1.616-2.676 2.424-3.854.835-1.218 1.67-1.566 2.505-3.314.835-1.747 1.67-5.104 2.505-7.172.755-1.868 1.509-4.812 2.263-4.812.834 0 1.668.174 2.502.522.808.336 1.616 4.724 2.424 4.724.835 0 1.67-1.531 2.506-1.531.808 0 1.616.06 2.424.183.835.126 1.67 15.021 2.505 16.084.835 1.063 1.67 1.594 2.505 1.594.81 0 1.619-2.708 2.428-4.927.835-2.29 1.67-6.734 2.505-8.714.808-1.916 1.616-1.81 2.424-3.15.836-1.384 1.67-4.383 2.506-5.08.835-.697 1.67-.349 2.505-1.045.754-.63 1.508-6.251 2.263-9.146.833-3.2 1.667-9.037 2.501-9.037.808 0 1.617 2.486 2.425 2.486.835 0 1.67-8.246 2.505-8.246.808 0 1.616 5.88 2.424 5.88.835 0 1.67-1.373 2.505-1.373s1.67 3.365 2.506 3.365c.808 0 1.616-4.993 2.424-7.989.836-3.1 1.672-6.322 2.509-10.37.808-3.912 1.616-13.395 2.424-13.395.835 0 1.67 2.962 2.505 2.962s1.67-.419 2.505-1.256c.78-.782 1.56-11.504 2.34-12.047.835-.58 1.67-.871 2.506-.871.808 0 1.616 8.214 2.424 8.214.835 0 1.67-1.24 2.505-1.871.808-.61 1.616-.618 2.424-1.853.836-1.276 1.67-10.879 2.506-10.879.835 0 1.67 6.068 2.505 6.068.808 0 1.616-2.425 2.424-2.425.836 0 1.673 9.8 2.509 12.993.808 3.086 1.616 6.07 2.424 6.07.835 0 1.67-5.552 2.505-5.552s1.67 8.129 2.505 10.461c.754 2.103 1.507 3.491 2.26 3.491.835 0 1.67-5.599 2.505-7.948.808-2.274 1.616-5.979 2.424-5.979.835 0 1.67 1.651 2.505 3.481.809 1.77 1.617 4.294 2.425 7.193.835 2.996 1.67 6.78 2.505 10.597.835 3.817 1.67 12.305 2.505 12.305.808 0 1.616-2.241 2.425-4.489.836-2.326 1.672-7.249 2.508-9.392.808-2.071 1.616-3.37 2.424-3.446.836-.079 1.67-.118 2.506-.118.835 0 1.67.61 2.505.61.754 0 1.508-5.086 2.263-5.086.833 0 1.667 5.11 2.501 7.147.808 1.973 1.617 1.859 2.425 4.944.835 3.187 1.67 10.638 2.505 14.166.808 3.413 1.616 6.884 2.424 6.884.835 0 1.67-.162 2.505-.162s1.67 10.83 2.506 10.83c.809 0 1.618-4.025 2.427-5.793.835-1.824 1.67-4.95 2.505-4.95.809 0 1.617 6.813 2.425 9.316.835 2.587 1.67 5.05 2.505 5.833.835.782 1.67.661 2.505 1.173.754.463 1.509 1.684 2.263 1.684.834 0 1.668-5.814 2.502-6.129.808-.305 1.616-.152 2.424-.458.835-.315 1.67-4.247 2.505-5.895.808-1.594 1.616-2.069 2.425-3.891.835-1.883 1.67-7.33 2.505-7.33s1.67 6.012 2.505 6.012c.81 0 1.618-7.026 2.428-7.026.835 0 1.67 1.731 2.505 1.731.808 0 1.616-.44 2.424-1.319.835-.909 1.67-3.867 2.505-5.204.835-1.338 1.67-1.927 2.506-2.822.78-.837 1.562-2.39 2.343-2.39.834 0 1.668 1.825 2.502 2.456.808.61 1.616 1.304 2.424 1.304.835 0 1.67-2.914 2.505-2.914.809 0 1.617 2.034 2.425 2.034.835 0 1.67-1.527 2.505-1.527s1.67.071 2.505.071c.808 0 1.616-.089 2.425-.267.836-.184 1.672-1.328 2.508-2.092.808-.74 1.616-1.495 2.424-2.403.835-.938 1.67-2.2 2.506-3.157.835-.957 1.67-2.584 2.505-2.584.753 0 1.506.142 2.26.426.834.315 1.67 1.714 2.504 1.714.808 0 1.617-7.449 2.425-10.002.835-2.64 1.67-3.491 2.505-5.416.808-1.863 1.616-5.926 2.424-5.926.835 0 1.67.25 2.505.25s1.67-7.44 2.506-7.44c.808 0 1.616 4.91 2.424 4.91.836 0 1.672-7.532 2.508-10.02.809-2.406 1.617-3.323 2.425-4.834a79.338 79.338 0 012.505-4.358c.835-1.348 1.67-3.47 2.505-3.727a7.656 7.656 0 012.26-.347c.835 0 1.67.344 2.505 1.032.808.666 1.616 11.638 2.424 11.638.835 0 1.67-1.752 2.505-2.41.808-.636 1.616-.6 2.425-1.498.835-.929 1.67-2.572 2.505-4.064s1.67-2.936 2.505-4.889c.808-1.89 1.616-6.577 2.424-6.577.836 0 1.673.764 2.509.764.808 0 1.616-3.013 2.424-4.65.835-1.69 1.67-5.349 2.505-5.349s1.67 3.88 2.506 3.88c.753 0 1.506-1.179 2.259-2.026.835-.94 1.67-1.591 2.505-3.453.808-1.803 1.616-7.405 2.424-7.405.835 0 1.67 1.164 2.506 2.481.808 1.275 1.616 5.204 2.424 5.204.835 0 1.67-.161 2.505-.482.835-.322 1.67-2.605 2.505-4.095.808-1.441 1.617-4.676 2.425-4.676.836 0 1.672 11.587 2.508 13.007.808 1.374 1.616.687 2.425 2.06.835 1.42 1.67 13.642 2.505 15.457.835 1.815 1.67.907 2.505 2.722.781 1.698 1.562 8.763 2.343 8.763.834 0 1.668-10.076 2.502-11.399.808-1.282 1.617-1.923 2.425-1.923.835 0 1.67 16.109 2.505 17.1.808.96 1.616 1.44 2.424 1.44.835 0 1.67-5.942 2.505-5.942s1.67 9.334 2.505 14.49c.81 4.998 1.619 12 2.428 15.913.835 4.039 1.67 5.634 2.505 7.676.809 1.975 1.617 3.419 2.425 4.473.835 1.088 1.67.621 2.505 1.864.835 1.244 1.67 11.36 2.505 11.36.754 0 1.509-1.272 2.263-3.814.834-2.811 1.668-12.013 2.502-15.475.808-3.356 1.616-5.288 2.424-5.288.835 0 1.67.694 2.505.694.808 0 1.616-9.674 2.425-12.501.835-2.921 1.67-3.096 2.505-4.47.835-1.375 1.67-3.775 2.505-3.775.81 0 1.618 3.908 2.428 3.908.835 0 1.67-1.397 2.505-3.845.808-2.37 1.616-10.389 2.424-10.389.835 0 1.67 2.159 2.505 2.159s1.67-3.6 2.505-7.054c.755-3.12 1.509-10.09 2.263-12.058.834-2.176 1.668-3.265 2.502-3.265.808 0 1.616 1.678 2.424 2.868.835 1.23 1.67 4.438 2.506 4.438.808 0 1.616-3.667 2.424-3.667.835 0 1.67.141 2.505.141s1.67-1.81 2.505-2.911c.808-1.065 1.617-1.88 2.425-3.561.836-1.74 1.672-4.302 2.508-6.81.808-2.425 1.616-7.942 2.425-7.942.835 0 1.67 1.872 2.505 1.872s1.67-3.642 2.505-3.642c.753 0 1.506 5.359 2.26 5.583.834.248 1.67.373 2.504.373.809 0 1.617-3.196 2.425-3.196.835 0 1.67 4.172 2.505 4.172.808 0 1.616-.275 2.424-.275.835 0 1.67 11.296 2.505 14.607.836 3.31 1.67 5.258 2.506 5.258.808 0 1.616-10.235 2.424-11.16.836-.957 1.672-.478 2.509-1.435.808-.925 1.616-4.715 2.424-7.274.835-2.645 1.67-6.044 2.505-8.365.835-2.321 1.67-4.19 2.505-5.56.78-1.281 1.56-2.052 2.34-2.58.835-.565 1.67-.847 2.506-.847.808 0 1.616 4.742 2.424 4.742.835 0 1.67-3.99 2.505-6.703.808-2.625 1.616-9.217 2.425-9.217.835 0 1.67 1.422 2.505 1.422s1.67-1.243 2.505-1.243c.808 0 1.616 2.113 2.424 2.113.836 0 1.673-2.176 2.509-3.007.808-.804 1.616-1.078 2.424-1.933.835-.884 1.67-1.512 2.505-3.327s1.67-4.394 2.505-7.566c.755-2.865 1.509-8.217 2.263-10.184.834-2.175 1.668-3.262 2.502-3.262.808 0 1.616.588 2.424 1.764.835 1.215 1.67 8.54 2.506 8.54.808 0 1.616-6.53 2.424-6.53.835 0 1.67 4.727 2.505 4.727s1.67-4.896 2.505-7.39c.81-2.416 1.619-5.66 2.428-7.335.835-1.728 1.67-2.49 2.505-2.72a9.087 9.087 0 012.424-.334c.836 0 1.67 3.238 2.506 3.238.835 0 1.67-4.718 2.505-6.015.754-1.172 1.508-1.168 2.263-1.782.834-.68 1.667-.704 2.501-2.111.808-1.363 1.617-8.24 2.425-10.692.835-2.534 1.67-2.81 2.505-4.039.808-1.188 1.616-1.078 2.424-3.234.835-2.228 1.67-8.804 2.505-10.342.835-1.538 1.67-.949 2.506-2.306.809-1.316 1.618-3.717 2.427-5.605.835-1.947 1.67-4.302 2.506-5.906.808-1.552 1.616-1.21 2.424-3.632.835-2.503 1.67-13.958 2.505-19.927.835-5.969 1.67-11.393 2.505-15.887.754-4.06 1.509-10.217 2.263-10.217.834 0 1.668 5.746 2.502 5.746.808 0 1.616-5.632 2.424-5.632.835 0 1.67 15.276 2.505 15.276.808 0 1.617-9.7 2.425-9.7.835 0 1.67 23.17 2.505 28.632s1.67 8.193 2.505 8.193c.81 0 1.618-20.839 2.428-26.957.835-6.312 1.67-9.777 2.505-9.777.808 0 1.616 8.942 2.424 14.063.835 5.29 1.67 17.219 2.505 17.26.835.042 1.67.063 2.506.063.78 0 1.56-7.466 2.34-9.348.835-2.015 1.67-1.253 2.505-3.023.808-1.712 1.616-5.552 2.424-7.28.835-1.786 1.67-1.04 2.505-3.12.809-2.013 1.617-13.238 2.425-13.238.835 0 1.67.347 2.505.347s1.67-.32 2.505-.32c.808 0 1.616 1.343 2.425 1.343.836 0 1.672-5.657 2.508-8.894.808-3.128 1.616-9.523 2.424-10.146.836-.644 1.67-.322 2.506-.966.835-.644 1.67-15.284 2.505-15.504a8.832 8.832 0 012.26-.298c.834 0 1.67 1.231 2.504 1.83.808.58 1.617.728 2.425 1.71.835 1.013 1.67 4.353 2.505 4.36.808.006 1.616.003 2.424.01.835.006 1.67.707 2.505.707s1.67-2.683 2.506-5.707c.808-2.926 1.616-11.631 2.424-11.928.836-.307 1.672-.153 2.508-.46.809-.297 1.617-.784 2.425-1.612.835-.856 1.67-3.5 2.505-3.5s1.67 6.287 2.505 9.333c.753 2.748 1.506 8.083 2.26 8.083.835 0 1.67-6.215 2.505-10.085.808-3.745 1.616-12.662 2.424-12.662.835 0 1.67.083 2.505.083.808 0 1.616-5.347 2.425-7.491.835-2.216 1.67-4.2 2.505-5.517.835-1.317 1.67-2.382 2.505-2.382.808 0 1.616 19.28 2.424 19.28.837 0 1.673-5.6 2.509-5.6.808 0 1.616 27.042 2.424 27.042.835 0 1.67-21.231 2.505-27.652.835-6.42 1.67-6.566 2.506-10.87.754-3.887 1.508-9.335 2.262-13.327.834-4.413 1.668-11.588 2.502-11.588.808 0 1.616 18.135 2.424 18.135.836 0 1.67-11.494 2.506-15.838.808-4.204 1.616-9.984 2.424-9.984.835 0 1.67 1.583 2.505 1.583s1.67-13.057 2.505-13.541c.81-.47 1.619-.235 2.428-.704.835-.484 1.67-12.256 2.505-14.697.808-2.363 1.616-2.189 2.425-3.544.835-1.4 1.67-4.757 2.505-4.757s1.67 15.02 2.505 30.521c.781 14.501 1.562 57.489 2.344 57.489.833 0 1.667-34.718 2.501-38.709.808-3.867 1.617-4.833 2.425-5.8" stroke="#4285f4"/><path d="M93.317 520.608h2.505c.835 0 1.67 2.242 2.505 3.116.754.79 1.509 1.273 2.263 1.968.753.694 1.506 1.812 2.26 2.199.834.428 1.67.642 2.504.642.808 0 1.617-3.24 2.425-3.462a9.387 9.387 0 012.505-.345c.808 0 1.616.109 2.424.326.835.226 1.67 4.196 2.505 5.782.835 1.586 1.67 3.736 2.506 3.736.809 0 1.618-1.676 2.427-1.676.835 0 1.67 1.12 2.505 1.12.809 0 1.617-.787 2.425-1.278.835-.507 1.67-.92 2.505-1.728.835-.809 1.67-2.102 2.505-3.123.754-.922 1.509-1.847 2.263-2.716.834-.961 1.668-1.935 2.502-2.75.808-.789 1.616-2.08 2.424-2.08.835 0 1.67 1.088 2.505 1.088.808 0 1.616-2.408 2.425-2.408.835 0 1.67.667 2.505.877.835.209 1.67.378 2.505.378.81 0 1.618-.972 2.428-.972.835 0 1.67 3.53 2.505 3.53.808 0 1.616-2.088 2.424-2.241.835-.159 1.67-.084 2.505-.238.835-.153 1.67-.684 2.506-.684.78 0 1.562.462 2.343.462.834 0 1.668-.059 2.502-.176.808-.114 1.616-.814 2.424-.814.835 0 1.67 2.334 2.505 3.145.809.785 1.617 1.483 2.425 1.69.835.212 1.67.318 2.505.318.836 0 1.672-.527 2.508-.873.809-.335 1.617-.411 2.425-1.16.835-.775 1.67-2.996 2.505-3.485.808-.473 1.616-.378 2.424-.71.835-.341 1.67-.669 2.506-1.327.835-.659 1.67-1.6 2.505-2.623.754-.924 1.508-2.813 2.262-3.133.834-.355 1.668-.183 2.502-.532.808-.34 1.616-.98 2.425-1.502.835-.54 1.67-.737 2.505-1.69.808-.924 1.616-2.597 2.424-3.866.835-1.312 1.67-3.875 2.505-3.875.836 0 1.673 3.18 2.509 3.18.808 0 1.616-3.098 2.424-3.098.835 0 1.67 1.044 2.505 1.044.809 0 1.617-2.855 2.425-4.38.835-1.576 1.67-4.936 2.505-4.936s1.67.49 2.505 1.468c.753.883 1.506 4.871 2.26 4.871.835 0 1.67-1.759 2.505-1.759.808 0 1.616.67 2.424 1.09.835.437 1.67 1.256 2.505 1.493a8.82 8.82 0 002.425.345c.835 0 1.67-2.578 2.505-2.578.836 0 1.672 2.165 2.508 2.165.808 0 1.616-.23 2.425-.23.835 0 1.67 1.824 2.505 1.824.808 0 1.616-1.243 2.424-1.243.835 0 1.67 2.738 2.505 2.738s1.67-.051 2.505-.154c.754-.092 1.507-.173 2.26-.416.835-.27 1.67-.596 2.505-1.196.808-.58 1.616-2.305 2.424-2.305.835 0 1.67.502 2.506.502.808 0 1.616-1.91 2.424-2.297.835-.4 1.67-.2 2.505-.6.836-.4 1.672-2.743 2.509-2.743.808 0 1.616 2.086 2.424 2.086.835 0 1.67-1.406 2.505-2.384.808-.947 1.616-2.343 2.425-3.355.835-1.046 1.67-2.503 2.505-2.798.835-.295 1.67-.157 2.505-.442.781-.267 1.562-.559 2.343-1.16.834-.643 1.668-2.045 2.502-2.662.808-.598 1.616-1.033 2.425-1.033.835 0 1.67.023 2.505.07.808.046 1.616 4.242 2.424 4.242.835 0 1.67-.141 2.505-.424.835-.282 1.67-3.128 2.505-3.648.81-.505 1.619-.252 2.428-.757.835-.52 1.67-2.882 2.505-3.3.808-.406 1.617-.203 2.425-.608.835-.418 1.67-2.436 2.505-3.961s1.67-5.19 2.505-5.19c.754 0 1.509.971 2.263.971.834 0 1.668-1.829 2.502-3.263.808-1.39 1.616-3.265 2.424-5.145.835-1.943 1.67-3.952 2.505-6.356.808-2.327 1.616-7.783 2.424-7.783.836 0 1.67 5.412 2.506 5.412.835 0 1.67-2.801 2.505-2.801.81 0 1.618 8.288 2.428 8.776.835.503 1.67.755 2.505.755.808 0 1.616-2.863 2.424-4.233.835-1.416 1.67-2.21 2.505-4.12.835-1.909 1.67-5.148 2.505-7.335.755-1.975 1.509-5.206 2.263-5.293a21.96 21.96 0 012.502-.143c.808 0 1.616 4.59 2.424 4.59.835 0 1.67-1.803 2.506-2.17a5.997 5.997 0 012.424-.53c.835 0 1.67 15.488 2.505 16.858.835 1.37 1.67 2.056 2.505 2.056.81 0 1.619-2.505 2.428-4.797.835-2.364 1.67-7.09 2.505-9.307.808-2.146 1.616-2.346 2.424-3.95.836-1.657 1.67-5.325 2.506-5.893.835-.568 1.67-.284 2.505-.852.754-.512 1.508-6.77 2.263-9.687.833-3.226 1.667-8.534 2.501-8.534.808 0 1.617 2.807 2.425 2.807.835 0 1.67-8.958 2.505-8.958.808 0 1.616 5.94 2.424 5.94.835 0 1.67-1.525 2.505-1.525s1.67 2.986 2.506 2.986c.808 0 1.616-6.065 2.424-9.35.836-3.4 1.672-6.426 2.509-10.74.808-4.168 1.616-14.56 2.424-14.56.835 0 1.67 4.03 2.505 4.03s1.67-.701 2.505-2.105c.78-1.312 1.56-12.865 2.34-12.893.835-.03 1.67-.044 2.506-.044.808 0 1.616 8.401 2.424 8.401.835 0 1.67-.956 2.505-1.254.808-.288 1.616-.175 2.424-.526.836-.363 1.67-11.23 2.506-11.23.835 0 1.67 7.133 2.505 7.133.808 0 1.616-3.198 2.424-3.198.836 0 1.673 11.333 2.509 15.117.808 3.656 1.616 7.45 2.424 7.45.835 0 1.67-5.587 2.505-5.587s1.67 9.518 2.505 12.132c.754 2.358 1.507 3.585 2.26 3.585.835 0 1.67-6.44 2.505-8.889.808-2.37 1.616-5.665 2.424-5.665.835 0 1.67 2.46 2.505 4.446.809 1.923 1.617 4.09 2.425 7.187.835 3.2 1.67 7.868 2.505 11.85.835 3.981 1.67 12.039 2.505 12.039.808 0 1.616-2.462 2.425-4.821.836-2.441 1.672-7.587 2.508-9.739.808-2.08 1.616-3.17 2.424-3.17.836 0 1.67.103 2.506.295.835.192 1.67.857 2.505.857.754 0 1.508-4.96 2.263-4.96.833 0 1.667 5.842 2.501 8.12.808 2.209 1.617 2.136 2.425 5.42.835 3.394 1.67 11.234 2.505 14.915.808 3.563 1.616 7.06 2.424 7.06.835 0 1.67-.345 2.505-.345s1.67 11.498 2.506 11.498c.809 0 1.618-4.838 2.427-6.79.835-2.014 1.67-5.048 2.505-5.048.809 0 1.617 7.233 2.425 9.84.835 2.693 1.67 5.045 2.505 5.924.835.88 1.67.79 2.505 1.319.754.477 1.509 1.647 2.263 1.647.834 0 1.668-6.41 2.502-6.527.808-.112 1.616-.056 2.424-.168.835-.116 1.67-4.299 2.505-5.867.808-1.518 1.616-1.731 2.425-3.465.835-1.792 1.67-7.23 2.505-7.23s1.67 6.465 2.505 6.465c.81 0 1.618-7.251 2.428-7.251.835 0 1.67 1.976 2.505 1.976.808 0 1.616-.49 2.424-1.473.835-1.015 1.67-3.554 2.505-4.759.835-1.204 1.67-1.775 2.506-2.469.78-.649 1.562-1.609 2.343-1.609.834 0 1.668.542 2.502 1.043.808.485 1.616 1.889 2.424 1.889.835 0 1.67-2.81 2.505-2.81.809 0 1.617 2.587 2.425 2.587.835 0 1.67-.77 2.505-.79.835-.021 1.67-.031 2.505-.031.808 0 1.616.063 2.425.063.836 0 1.672-1.135 2.508-1.784.808-.627 1.616-1.147 2.424-2.031.835-.914 1.67-2.396 2.506-3.406.835-1.01 1.67-2.654 2.505-2.654.753 0 1.506.103 2.26.31.834.228 1.67 2.496 2.504 2.496.808 0 1.617-7.28 2.425-9.668.835-2.469 1.67-2.996 2.505-4.734.808-1.682 1.616-5.413 2.424-5.495.835-.086 1.67-.043 2.505-.129.835-.085 1.67-7.102 2.506-7.102.808 0 1.616 4.69 2.424 4.69.836 0 1.672-7.338 2.508-9.67.809-2.253 1.617-2.929 2.425-4.261a61.463 61.463 0 012.505-3.845c.835-1.168 1.67-3.158 2.505-3.158.753 0 1.506.115 2.26.178.835.068 1.67.072 2.505.216.808.14 1.616 11.213 2.424 11.213.835 0 1.67-1.364 2.505-1.794.808-.416 1.616-.258 2.425-.775.835-.535 1.67-2.226 2.505-3.574.835-1.347 1.67-2.735 2.505-4.51.808-1.718 1.616-5.92 2.424-5.92.836 0 1.673 1.242 2.509 1.242.808 0 1.616-2.767 2.424-4.168.835-1.448 1.67-4.383 2.505-4.383s1.67 3.938 2.506 3.938c.753 0 1.506-1.189 2.259-2.138.835-1.053 1.67-2.087 2.505-4.032.808-1.881 1.616-7.333 2.424-7.333.835 0 1.67.346 2.506 1.036.808.669 1.616 4.404 2.424 4.486.835.084 1.67.126 2.505.126s1.67-2.412 2.505-3.824c.808-1.366 1.617-4.485 2.425-4.485.836 0 1.672 10.896 2.508 11.81.808.882 1.616.44 2.425 1.323.835.913 1.67 13.83 2.505 15.337.835 1.507 1.67.754 2.505 2.26.781 1.41 1.562 8.543 2.343 8.543.834 0 1.668-8.913 2.502-10.682.808-1.713 1.617-2.57 2.425-2.57.835 0 1.67 14.394 2.505 15.693.808 1.257 1.616 1.886 2.424 1.886.835 0 1.67-5.79 2.505-5.79s1.67 9.814 2.505 14.55c.81 4.589 1.619 10.155 2.428 13.444.835 3.393 1.67 4.452 2.505 6.37.809 1.856 1.617 4.23 2.425 4.99.835.787 1.67.394 2.505 1.18.835.787 1.67 10.14 2.505 10.14.754 0 1.509-1.23 2.263-3.688.834-2.72 1.668-10.924 2.502-14.063.808-3.042 1.616-4.766 2.424-4.766.835 0 1.67.892 2.505.892.808 0 1.616-9.535 2.425-12.002.835-2.55 1.67-2.644 2.505-3.824.835-1.18 1.67-3.254 2.505-3.254.81 0 1.618 3.873 2.428 3.873.835 0 1.67-1.74 2.505-4.092.808-2.277 1.616-9.606 2.424-9.606.835 0 1.67 1.798 2.505 1.798s1.67-3.418 2.505-6.687c.755-2.953 1.509-9.86 2.263-11.405.834-1.709 1.668-2.563 2.502-2.563.808 0 1.616 1.78 2.424 3.001.835 1.262 1.67 4.49 2.506 4.49.808 0 1.616-3.268 2.424-3.268.835 0 1.67.71 2.505.71s1.67-1.801 2.505-2.855c.808-1.02 1.617-1.69 2.425-3.345.836-1.713 1.672-4.372 2.508-6.87.808-2.414 1.616-7.826 2.425-7.826.835 0 1.67 1.652 2.505 1.652s1.67-3.544 2.505-3.544c.753 0 1.506 4.972 2.26 5.272.834.332 1.67.498 2.504.498.809 0 1.617-2.564 2.425-2.564.835 0 1.67 3.603 2.505 3.705.808.1 1.616.05 2.424.149.835.102 1.67 11.38 2.505 14.235.836 2.854 1.67 4.28 2.506 4.28.808 0 1.616-8.927 2.424-10.298.836-1.418 1.672-.709 2.509-2.127.808-1.371 1.616-4.466 2.424-6.762.835-2.372 1.67-5.107 2.505-7.25.835-2.144 1.67-4.243 2.505-5.612.78-1.28 1.56-2.425 2.34-2.526a19.54 19.54 0 012.506-.161c.808 0 1.616 5.127 2.424 5.127.835 0 1.67-3.853 2.505-6.293.808-2.362 1.616-8.048 2.425-8.048.835 0 1.67.85 2.505.85s1.67-1.348 2.505-1.348c.808 0 1.616 2.295 2.424 2.295.836 0 1.673-2.295 2.509-3.023.808-.703 1.616-.525 2.424-1.325.835-.826 1.67-1.87 2.505-3.625.835-1.756 1.67-3.909 2.505-6.908.755-2.71 1.509-8.468 2.263-9.834.834-1.511 1.668-2.24 2.502-2.267.808-.026 1.616-.04 2.424-.04.835 0 1.67 8.11 2.506 8.11.808 0 1.616-7.293 2.424-7.293.835 0 1.67 4.09 2.505 4.09s1.67-4.645 2.505-7.045c.81-2.326 1.619-5.294 2.428-7.126.835-1.89 1.67-3.416 2.505-3.937.808-.504 1.616-.756 2.424-.756.836 0 1.67 4.04 2.506 4.04.835 0 1.67-4.782 2.505-6.05.754-1.147 1.508-1.198 2.263-1.72.834-.576 1.667-.512 2.501-1.538.808-.994 1.617-7.638 2.425-9.957.835-2.396 1.67-2.898 2.505-3.984.808-1.051 1.616-.825 2.424-2.475.835-1.704 1.67-7.794 2.505-10.043.835-2.25 1.67-2.279 2.506-3.453.809-1.138 1.618-1.946 2.427-3.48.835-1.582 1.67-4.49 2.506-5.94.808-1.404 1.616-.908 2.424-2.722.835-1.874 1.67-11.206 2.505-16.88.835-5.673 1.67-12.647 2.505-17.16.754-4.078 1.509-9.28 2.263-9.28.834 0 1.668 4.122 2.502 4.122.808 0 1.616-6.015 2.424-6.015.835 0 1.67 14.205 2.505 14.205.808 0 1.617-9.167 2.425-9.167.835 0 1.67 21.673 2.505 27.89.835 6.216 1.67 9.408 2.505 9.408.81 0 1.618-20.489 2.428-26.534.835-6.238 1.67-9.77 2.505-9.77.808 0 1.616 9.165 2.424 14.315.835 5.322 1.67 17.06 2.505 17.177.835.117 1.67.176 2.506.176.78 0 1.56-6.262 2.34-8.206.835-2.081 1.67-1.734 2.505-3.524.808-1.733 1.616-5.946 2.424-6.926.835-1.014 1.67-.507 2.505-1.52.809-.98 1.617-12.164 2.425-12.45.835-.297 1.67-.196 2.505-.446s1.67-1.055 2.505-1.055c.808 0 1.616.14 2.425.14.836 0 1.672-6.476 2.508-9.77.808-3.184 1.616-8.543 2.424-9.658.836-1.151 1.67-.576 2.506-1.727.835-1.152 1.67-13.818 2.505-14.676.753-.774 1.506-1.161 2.26-1.161.834 0 1.67 1.297 2.504 1.755.808.443 1.617.324 2.425.972.835.67 1.67 4.403 2.505 4.403.808 0 1.616-.39 2.424-.39.835 0 1.67.677 2.505.677s1.67-3.073 2.506-6.253c.808-3.077 1.616-12.014 2.424-12.309.836-.305 1.672-.152 2.508-.457.809-.295 1.617-.467 2.425-1.4.835-.965 1.67-5.284 2.505-5.284s1.67 5.012 2.505 8.126c.753 2.809 1.506 9.416 2.26 9.416.835 0 1.67-5.936 2.505-9.575.808-3.52 1.616-11.817 2.424-11.817.835 0 1.67.477 2.505.477.808 0 1.616-5.745 2.425-7.978a38.166 38.166 0 012.505-5.558c.835-1.523 1.67-3.577 2.505-3.577.808 0 1.616 20.234 2.424 20.234.837 0 1.673-4.278 2.509-4.278.808 0 1.616 26.77 2.424 26.77.835 0 1.67-19.329 2.505-25.53.835-6.202 1.67-7.498 2.506-11.682.754-3.779 1.508-8.046 2.262-12.048.834-4.424 1.668-13.222 2.502-13.222.808 0 1.616 19.767 2.424 19.767.836 0 1.67-12.831 2.506-17.366.808-4.388 1.616-9.643 2.424-9.643.835 0 1.67 3.22 2.505 3.22s1.67-12.645 2.505-13.116c.81-.457 1.619-.228 2.428-.685.835-.471 1.67-13.197 2.505-16.2.808-2.905 1.616-2.964 2.425-4.358.835-1.44 1.67-4.131 2.505-4.131s1.67 15.41 2.505 29.643c.781 13.313 1.562 51.364 2.344 51.364.833 0 1.667-34.513 2.501-39.403.808-4.74 1.617-5.924 2.425-7.109" stroke="#db4437"/></g><g class="legends" dominant-baseline="middle" font-family="-apple-system,BlinkMacSystemFont,&quot;Segoe UI&quot;,Roboto,Oxygen-Sans,Ubuntu,Cantarell,&quot;Helvetica Neue&quot;,sans-serif" font-size="16" color="#333"><text x=".5em" y="60.764" fill="#4285f4" transform="translate(993.317 20)">Yoran&apos;s Portfolio</text><text x=".5em" y="80.764" fill="#db4437" transform="translate(993.317 20)">Yoran&apos;s Portfolio (without REIT)</text></g></svg>