<svg xmlns="http://www.w3.org/2000/svg" class="chart-new-svg" viewBox="0 0 1231.95 634.231"><g class="x-axis axis"><path class="chart-new-axis-axis-line" font-family="-apple-system,BlinkMacSystemFont,&quot;Segoe UI&quot;,Roboto,Oxygen-Sans,Ubuntu,Cantarell,&quot;Helvetica Neue&quot;,sans-serif" font-size="16" stroke="#ddd" color="#333" d="M93.317 576.23h900"/><g class="axis-tick-labels"><path fill="none" font-family="-apple-system,BlinkMacSystemFont,&quot;Segoe UI&quot;,Roboto,Oxygen-Sans,Ubuntu,Cantarell,&quot;Helvetica Neue&quot;,sans-serif" font-size="16" color="#333" d="M93.317 576.23h1v10h-1z"/><text class="axis-tick-label" text-anchor="middle" x="2.586" y="10" dy="1em" font-family="-apple-system,BlinkMacSystemFont,&quot;Segoe UI&quot;,Roboto,Oxygen-Sans,Ubuntu,Cantarell,&quot;Helvetica Neue&quot;,sans-serif" font-size="12" fill="#999" color="#333" transform="translate(93.317 576.23)">1990</text><text class="axis-tick-label" text-anchor="middle" x="61.579" y="10" dy="1em" font-family="-apple-system,BlinkMacSystemFont,&quot;Segoe UI&quot;,Roboto,Oxygen-Sans,Ubuntu,Cantarell,&quot;Helvetica Neue&quot;,sans-serif" font-size="12" fill="#999" color="#333" transform="translate(93.317 576.23)">1992</text><text class="axis-tick-label" text-anchor="middle" x="120.652" y="10" dy="1em" font-family="-apple-system,BlinkMacSystemFont,&quot;Segoe UI&quot;,Roboto,Oxygen-Sans,Ubuntu,Cantarell,&quot;Helvetica Neue&quot;,sans-serif" font-size="12" fill="#999" color="#333" transform="translate(93.317 576.23)">1994</text><text class="axis-tick-label" text-anchor="middle" x="179.645" y="10" dy="1em" font-family="-apple-system,BlinkMacSystemFont,&quot;Segoe UI&quot;,Roboto,Oxygen-Sans,Ubuntu,Cantarell,&quot;Helvetica Neue&quot;,sans-serif" font-size="12" fill="#999" color="#333" transform="translate(93.317 576.23)">1996</text><text class="axis-tick-label" text-anchor="middle" x="238.719" y="10" dy="1em" font-family="-apple-system,BlinkMacSystemFont,&quot;Segoe UI&quot;,Roboto,Oxygen-Sans,Ubuntu,Cantarell,&quot;Helvetica Neue&quot;,sans-serif" font-size="12" fill="#999" color="#333" transform="translate(93.317 576.23)">1998</text><text class="axis-tick-label" text-anchor="middle" x="297.711" y="10" dy="1em" font-family="-apple-system,BlinkMacSystemFont,&quot;Segoe UI&quot;,Roboto,Oxygen-Sans,Ubuntu,Cantarell,&quot;Helvetica Neue&quot;,sans-serif" font-size="12" fill="#999" color="#333" transform="translate(93.317 576.23)">2000</text><text class="axis-tick-label" text-anchor="middle" x="356.785" y="10" dy="1em" font-family="-apple-system,BlinkMacSystemFont,&quot;Segoe UI&quot;,Roboto,Oxygen-Sans,Ubuntu,Cantarell,&quot;Helvetica Neue&quot;,sans-serif" font-size="12" fill="#999" color="#333" transform="translate(93.317 576.23)">2002</text><text class="axis-tick-label" text-anchor="middle" x="415.778" y="10" dy="1em" font-family="-apple-system,BlinkMacSystemFont,&quot;Segoe UI&quot;,Roboto,Oxygen-Sans,Ubuntu,Cantarell,&quot;Helvetica Neue&quot;,sans-serif" font-size="12" fill="#999" color="#333" transform="translate(93.317 576.23)">2004</text><text class="axis-tick-label" text-anchor="middle" x="474.851" y="10" dy="1em" font-family="-apple-system,BlinkMacSystemFont,&quot;Segoe UI&quot;,Roboto,Oxygen-Sans,Ubuntu,Cantarell,&quot;Helvetica Neue&quot;,sans-serif" font-size="12" fill="#999" color="#333" transform="translate(93.317 576.23)">2006</text><text class="axis-tick-label" text-anchor="middle" x="533.844" y="10" dy="1em" font-family="-apple-system,BlinkMacSystemFont,&quot;Segoe UI&quot;,Roboto,Oxygen-Sans,Ubuntu,Cantarell,&quot;Helvetica Neue&quot;,sans-serif" font-size="12" fill="#999" color="#333" transform="translate(93.317 576.23)">2008</text><text class="axis-tick-label" text-anchor="middle" x="592.918" y="10" dy="1em" font-family="-apple-system,BlinkMacSystemFont,&quot;Segoe UI&quot;,Roboto,Oxygen-Sans,Ubuntu,Cantarell,&quot;Helvetica Neue&quot;,sans-serif" font-size="12" fill="#999" color="#333" transform="translate(93.317 576.23)">2010</text><text class="axis-tick-label" text-anchor="middle" x="651.91" y="10" dy="1em" font-family="-apple-system,BlinkMacSystemFont,&quot;Segoe UI&quot;,Roboto,Oxygen-Sans,Ubuntu,Cantarell,&quot;Helvetica Neue&quot;,sans-serif" font-size="12" fill="#999" color="#333" transform="translate(93.317 576.23)">2012</text><text class="axis-tick-label" text-anchor="middle" x="710.984" y="10" dy="1em" font-family="-apple-system,BlinkMacSystemFont,&quot;Segoe UI&quot;,Roboto,Oxygen-Sans,Ubuntu,Cantarell,&quot;Helvetica Neue&quot;,sans-serif" font-size="12" fill="#999" color="#333" transform="translate(93.317 576.23)">2014</text><text class="axis-tick-label" text-anchor="middle" x="769.977" y="10" dy="1em" font-family="-apple-system,BlinkMacSystemFont,&quot;Segoe UI&quot;,Roboto,Oxygen-Sans,Ubuntu,Cantarell,&quot;Helvetica Neue&quot;,sans-serif" font-size="12" fill="#999" color="#333" transform="translate(93.317 576.23)">2016</text><text class="axis-tick-label" text-anchor="middle" x="829.05" y="10" dy="1em" font-family="-apple-system,BlinkMacSystemFont,&quot;Segoe UI&quot;,Roboto,Oxygen-Sans,Ubuntu,Cantarell,&quot;Helvetica Neue&quot;,sans-serif" font-size="12" fill="#999" color="#333" transform="translate(93.317 576.23)">2018</text><text class="axis-tick-label" text-anchor="middle" x="888.043" y="10" dy="1em" font-family="-apple-system,BlinkMacSystemFont,&quot;Segoe UI&quot;,Roboto,Oxygen-Sans,Ubuntu,Cantarell,&quot;Helvetica Neue&quot;,sans-serif" font-size="12" fill="#999" color="#333" transform="translate(93.317 576.23)">2020</text></g><g class="axis-label"><path fill="none" font-family="-apple-system,BlinkMacSystemFont,&quot;Segoe UI&quot;,Roboto,Oxygen-Sans,Ubuntu,Cantarell,&quot;Helvetica Neue&quot;,sans-serif" font-size="14" color="#333" d="M93.317 601.23h1v16h-1z"/><text class="axis-label-label" x="450" y="16" dy="1em" text-anchor="middle" font-family="-apple-system,BlinkMacSystemFont,&quot;Segoe UI&quot;,Roboto,Oxygen-Sans,Ubuntu,Cantarell,&quot;Helvetica Neue&quot;,sans-serif" font-size="14" fill="#999" color="#333" transform="translate(93.317 601.23)">Time</text></g><g class="axis-tick-lines"><path class="axis-tick-line" font-family="-apple-system,BlinkMacSystemFont,&quot;Segoe UI&quot;,Roboto,Oxygen-Sans,Ubuntu,Cantarell,&quot;Helvetica Neue&quot;,sans-serif" font-size="16" stroke="#ddd" color="#333" d="M95.903 20v556.23M154.896 20v556.23M213.969 20v556.23M272.962 20v556.23M332.036 20v556.23M391.028 20v556.23M450.102 20v556.23M509.095 20v556.23M568.168 20v556.23M627.16 20v556.23M686.235 20v556.23M745.227 20v556.23M804.3 20v556.23M863.294 20v556.23M922.367 20v556.23M981.36 20v556.23"/></g></g><g class="y-axis axis"><text class="axis-label" x="-278.115" dy="1em" text-anchor="middle" transform="rotate(-90 10 10)" font-family="-apple-system,BlinkMacSystemFont,&quot;Segoe UI&quot;,Roboto,Oxygen-Sans,Ubuntu,Cantarell,&quot;Helvetica Neue&quot;,sans-serif" font-size="14" fill="#999" color="#333">Value of portfolio</text><g class="axis-tick-labels"><text class="axis-tick-label" text-anchor="end" alignment-baseline="middle" x="-10" y="556.231" font-family="-apple-system,BlinkMacSystemFont,&quot;Segoe UI&quot;,Roboto,Oxygen-Sans,Ubuntu,Cantarell,&quot;Helvetica Neue&quot;,sans-serif" font-size="12" fill="#999" color="#333" transform="translate(93.317 20)">€0</text><text class="axis-tick-label" text-anchor="end" alignment-baseline="middle" x="-10" y="513.444" font-family="-apple-system,BlinkMacSystemFont,&quot;Segoe UI&quot;,Roboto,Oxygen-Sans,Ubuntu,Cantarell,&quot;Helvetica Neue&quot;,sans-serif" font-size="12" fill="#999" color="#333" transform="translate(93.317 20)">€20,000</text><text class="axis-tick-label" text-anchor="end" alignment-baseline="middle" x="-10" y="470.657" font-family="-apple-system,BlinkMacSystemFont,&quot;Segoe UI&quot;,Roboto,Oxygen-Sans,Ubuntu,Cantarell,&quot;Helvetica Neue&quot;,sans-serif" font-size="12" fill="#999" color="#333" transform="translate(93.317 20)">€40,000</text><text class="axis-tick-label" text-anchor="end" alignment-baseline="middle" x="-10" y="427.87" font-family="-apple-system,BlinkMacSystemFont,&quot;Segoe UI&quot;,Roboto,Oxygen-Sans,Ubuntu,Cantarell,&quot;Helvetica Neue&quot;,sans-serif" font-size="12" fill="#999" color="#333" transform="translate(93.317 20)">€60,000</text><text class="axis-tick-label" text-anchor="end" alignment-baseline="middle" x="-10" y="385.083" font-family="-apple-system,BlinkMacSystemFont,&quot;Segoe UI&quot;,Roboto,Oxygen-Sans,Ubuntu,Cantarell,&quot;Helvetica Neue&quot;,sans-serif" font-size="12" fill="#999" color="#333" transform="translate(93.317 20)">€80,000</text><text class="axis-tick-label" text-anchor="end" alignment-baseline="middle" x="-10" y="342.296" font-family="-apple-system,BlinkMacSystemFont,&quot;Segoe UI&quot;,Roboto,Oxygen-Sans,Ubuntu,Cantarell,&quot;Helvetica Neue&quot;,sans-serif" font-size="12" fill="#999" color="#333" transform="translate(93.317 20)">€100,000</text><text class="axis-tick-label" text-anchor="end" alignment-baseline="middle" x="-10" y="299.509" font-family="-apple-system,BlinkMacSystemFont,&quot;Segoe UI&quot;,Roboto,Oxygen-Sans,Ubuntu,Cantarell,&quot;Helvetica Neue&quot;,sans-serif" font-size="12" fill="#999" color="#333" transform="translate(93.317 20)">€120,000</text><text class="axis-tick-label" text-anchor="end" alignment-baseline="middle" x="-10" y="256.722" font-family="-apple-system,BlinkMacSystemFont,&quot;Segoe UI&quot;,Roboto,Oxygen-Sans,Ubuntu,Cantarell,&quot;Helvetica Neue&quot;,sans-serif" font-size="12" fill="#999" color="#333" transform="translate(93.317 20)">€140,000</text><text class="axis-tick-label" text-anchor="end" alignment-baseline="middle" x="-10" y="213.935" font-family="-apple-system,BlinkMacSystemFont,&quot;Segoe UI&quot;,Roboto,Oxygen-Sans,Ubuntu,Cantarell,&quot;Helvetica Neue&quot;,sans-serif" font-size="12" fill="#999" color="#333" transform="translate(93.317 20)">€160,000</text><text class="axis-tick-label" text-anchor="end" alignment-baseline="middle" x="-10" y="171.148" font-family="-apple-system,BlinkMacSystemFont,&quot;Segoe UI&quot;,Roboto,Oxygen-Sans,Ubuntu,Cantarell,&quot;Helvetica Neue&quot;,sans-serif" font-size="12" fill="#999" color="#333" transform="translate(93.317 20)">€180,000</text><text class="axis-tick-label" text-anchor="end" alignment-baseline="middle" x="-10" y="128.361" font-family="-apple-system,BlinkMacSystemFont,&quot;Segoe UI&quot;,Roboto,Oxygen-Sans,Ubuntu,Cantarell,&quot;Helvetica Neue&quot;,sans-serif" font-size="12" fill="#999" color="#333" transform="translate(93.317 20)">€200,000</text><text class="axis-tick-label" text-anchor="end" alignment-baseline="middle" x="-10" y="85.574" font-family="-apple-system,BlinkMacSystemFont,&quot;Segoe UI&quot;,Roboto,Oxygen-Sans,Ubuntu,Cantarell,&quot;Helvetica Neue&quot;,sans-serif" font-size="12" fill="#999" color="#333" transform="translate(93.317 20)">€220,000</text><text class="axis-tick-label" text-anchor="end" alignment-baseline="middle" x="-10" y="42.787" font-family="-apple-system,BlinkMacSystemFont,&quot;Segoe UI&quot;,Roboto,Oxygen-Sans,Ubuntu,Cantarell,&quot;Helvetica Neue&quot;,sans-serif" font-size="12" fill="#999" color="#333" transform="translate(93.317 20)">€240,000</text><text class="axis-tick-label" text-anchor="end" alignment-baseline="middle" x="-10" font-family="-apple-system,BlinkMacSystemFont,&quot;Segoe UI&quot;,Roboto,Oxygen-Sans,Ubuntu,Cantarell,&quot;Helvetica Neue&quot;,sans-serif" font-size="12" fill="#999" color="#333" transform="translate(93.317 20)">€260,000</text></g><path class="chart-new-axis-line" font-family="-apple-system,BlinkMacSystemFont,&quot;Segoe UI&quot;,Roboto,Oxygen-Sans,Ubuntu,Cantarell,&quot;Helvetica Neue&quot;,sans-serif" font-size="16" stroke="#ddd" color="#333" d="M93.317 20v556.231M993.317 20v556.231"/><g class="axis-tick-lines"><path class="axis-tick-line" font-family="-apple-system,BlinkMacSystemFont,&quot;Segoe UI&quot;,Roboto,Oxygen-Sans,Ubuntu,Cantarell,&quot;Helvetica Neue&quot;,sans-serif" font-size="16" stroke="#ddd" color="#333" d="M93.317 576.231h900M93.317 533.444h900M93.317 490.657h900M93.317 447.87h900M93.317 405.083h900M93.317 362.296h900M93.317 319.509h900M93.317 276.722h900M93.317 233.935h900M93.317 191.148h900M93.317 148.361h900M93.317 105.574h900M93.317 62.787h900M93.317 20h900"/></g></g><g class="data" font-family="-apple-system,BlinkMacSystemFont,&quot;Segoe UI&quot;,Roboto,Oxygen-Sans,Ubuntu,Cantarell,&quot;Helvetica Neue&quot;,sans-serif" font-size="16" fill="none" stroke-width="2" color="#333"><path d="M93.317 575.803c.835.025 1.67.051 2.505.051s1.67-.232 2.505-.356c.754-.112 1.509-.237 2.263-.35.753-.112 1.506-.216 2.26-.325.834-.12 1.67-.211 2.504-.358.808-.143 1.617-.358 2.425-.506.835-.152 1.67-.264 2.505-.39.808-.121 1.616-.328 2.424-.352.835-.026 1.67-.013 2.505-.038.835-.026 1.67-.039 2.506-.116.809-.075 1.618-.378 2.427-.508.835-.133 1.67-.143 2.505-.274.809-.127 1.617-.32 2.425-.492.835-.176 1.67-.34 2.505-.553.835-.214 1.67-.477 2.505-.73.754-.23 1.509-.488 2.263-.712a83.536 83.536 0 012.502-.692c.808-.213 1.616-.464 2.424-.605.835-.146 1.67-.082 2.505-.245.808-.157 1.616-.556 2.425-.715.835-.164 1.67-.152 2.505-.247.835-.094 1.67-.173 2.505-.32.81-.14 1.618-.533 2.428-.533.835 0 1.67.21 2.505.21.808 0 1.616-.531 2.424-.725.835-.2 1.67-.29 2.505-.447.835-.158 1.67-.368 2.506-.498.78-.12 1.562-.158 2.343-.267.834-.116 1.668-.24 2.502-.417.808-.172 1.616-.623 2.424-.623.835 0 1.67.326 2.505.353.809.027 1.617.04 2.425.04.835 0 1.67-.114 2.505-.252.836-.139 1.672-.355 2.508-.58.809-.217 1.617-.43 2.425-.742.835-.323 1.67-.888 2.505-1.177.808-.28 1.616-.343 2.424-.55.835-.215 1.67-.403 2.506-.72.835-.316 1.67-.758 2.505-1.182.754-.384 1.508-.926 2.262-1.226.834-.332 1.668-.349 2.502-.6.808-.244 1.616-.584 2.425-.877.835-.302 1.67-.49 2.505-.908.808-.405 1.616-1.04 2.424-1.538.835-.514 1.67-1.494 2.505-1.494.836 0 1.673.517 2.509.517.808 0 1.616-1.52 2.424-1.54.835-.022 1.67-.011 2.505-.033.809-.021 1.617-1.504 2.425-2.177.835-.694 1.67-1.912 2.505-1.912s1.67.066 2.505.197c.753.12 1.506 1.367 2.26 1.367.835 0 1.67-.828 2.505-.89a32.97 32.97 0 012.424-.089c.835 0 1.67.289 2.505.289.808 0 1.616-.118 2.425-.353.835-.242 1.67-1.294 2.505-1.294.836 0 1.672.416 2.508.416.808 0 1.616-.38 2.425-.38.835 0 1.67.363 2.505.363.808 0 1.616-.754 2.424-.754.835 0 1.67.728 2.505.728s1.67-.307 2.505-.475c.754-.151 1.507-.274 2.26-.477.835-.224 1.67-.45 2.505-.836.808-.374 1.616-1.325 2.424-1.421.835-.1 1.67-.05 2.506-.15.808-.096 1.616-.985 2.424-1.322.835-.349 1.67-.354 2.505-.715.836-.36 1.672-1.452 2.509-1.452.808 0 1.616.472 2.424.472.835 0 1.67-.893 2.505-1.447.808-.536 1.616-1.196 2.425-1.81.835-.634 1.67-1.638 2.505-1.936.835-.298 1.67-.222 2.505-.447.781-.21 1.562-.441 2.343-.832.834-.418 1.668-1.23 2.502-1.641.808-.4 1.616-.623 2.425-.819.835-.202 1.67-.357 2.505-.357.808 0 1.616 1.61 2.424 1.61.835 0 1.67-.243 2.505-.73.835-.488 1.67-1.704 2.505-2.194.81-.475 1.619-.28 2.428-.747.835-.482 1.67-1.651 2.505-2.144.808-.478 1.617-.285 2.425-.81.835-.54 1.67-1.54 2.505-2.436.835-.897 1.67-2.941 2.505-2.941.754 0 1.509.332 2.263.332.834 0 1.668-1.149 2.502-2.01.808-.836 1.616-1.99 2.424-3.046.835-1.092 1.67-2.078 2.505-3.407.808-1.286 1.616-4.4 2.424-4.4.836 0 1.67 2.306 2.506 2.306.835 0 1.67-1.79 2.505-1.79.81 0 1.618 4.816 2.428 4.82.835.003 1.67.004 2.505.004.808 0 1.616-1.674 2.424-2.426.835-.778 1.67-1.087 2.505-2.152.835-1.066 1.67-2.992 2.505-4.24.755-1.13 1.509-2.928 2.263-2.983a33.995 33.995 0 012.502-.092c.808 0 1.616 2.209 2.424 2.209.835 0 1.67-1.027 2.506-1.216a10.937 10.937 0 012.424-.275c.835 0 1.67 8.22 2.505 8.56.835.34 1.67.51 2.505.51.81 0 1.619-1.772 2.428-3.148.835-1.42 1.67-4.055 2.505-5.301.808-1.207 1.616-1.272 2.424-2.158.836-.915 1.67-2.626 2.506-3.277.835-.65 1.67-.325 2.505-.976.754-.588 1.508-3.856 2.263-5.647.833-1.981 1.667-5.609 2.501-5.609.808 0 1.617 1.07 2.425 1.07.835 0 1.67-5.188 2.505-5.188.808 0 1.616 3.068 2.424 3.068.835 0 1.67-1.184 2.505-1.184s1.67 1.61 2.506 1.61c.808 0 1.616-3.21 2.424-5.113.836-1.969 1.672-4.003 2.509-6.543.808-2.455 1.616-8.37 2.424-8.37.835 0 1.67 1.4 2.505 1.4s1.67-.377 2.505-1.132c.78-.705 1.56-7.087 2.34-7.65.835-.604 1.67-.905 2.506-.905.808 0 1.616 4.614 2.424 4.614.835 0 1.67-1.004 2.505-1.517.808-.496 1.616-.503 2.424-1.51.836-1.039 1.67-7.05 2.506-7.05.835 0 1.67 3.358 2.505 3.358.808 0 1.616-1.873 2.424-1.873.836 0 1.673 5.818 2.509 7.67.808 1.79 1.616 3.395 2.424 3.395.835 0 1.67-3.836 2.505-3.836s1.67 4.837 2.505 6.164c.754 1.196 1.507 1.813 2.26 1.813.835 0 1.67-3.772 2.505-5.381.808-1.557 1.616-4.153 2.424-4.153.835 0 1.67.796 2.505 1.83.809 1.001 1.617 2.472 2.425 4.196.835 1.781 1.67 4.071 2.505 6.386.835 2.314 1.67 7.5 2.505 7.5.808 0 1.616-1.688 2.425-3.26.836-1.627 1.672-4.927 2.508-6.44.808-1.46 1.616-2.315 2.424-2.607a7.326 7.326 0 012.506-.453c.835 0 1.67.021 2.505.021.754 0 1.508-3.702 2.263-3.702.833 0 1.667 3.102 2.501 4.312.808 1.173 1.617.966 2.425 2.878.835 1.977 1.67 6.777 2.505 8.983.808 2.135 1.616 4.19 2.424 4.19.835 0 1.67-.484 2.505-.484s1.67 6.87 2.506 6.87c.809 0 1.618-2.958 2.427-4.273.835-1.356 1.67-3.717 2.505-3.717.809 0 1.617 4.368 2.425 5.944.835 1.628 1.67 3.303 2.505 3.586.835.283 1.67.206 2.505.424.754.197 1.509.778 2.263.778.834 0 1.668-4.12 2.502-4.597.808-.462 1.616-.23 2.424-.692.835-.478 1.67-3.197 2.505-4.47.808-1.233 1.616-1.694 2.425-3.09.835-1.444 1.67-5.507 2.505-5.507s1.67 3.847 2.505 3.847c.81 0 1.618-5.33 2.428-5.33.835 0 1.67.848 2.505.848.808 0 1.616-.442 2.424-1.313.835-.9 1.67-3.005 2.505-4.084.835-1.08 1.67-1.624 2.506-2.394.78-.721 1.562-2.09 2.343-2.09.834 0 1.668 1.062 2.502 1.389.808.317 1.616.565 2.424.565.835 0 1.67-2.487 2.505-2.487.809 0 1.617 1.102 2.425 1.102.835 0 1.67-1.273 2.505-1.49.835-.216 1.67-.171 2.505-.325.808-.148 1.616-.19 2.425-.572.836-.395 1.672-1.226 2.508-1.917.808-.669 1.616-1.356 2.424-2.152.835-.821 1.67-1.88 2.506-2.716.835-.836 1.67-2.254 2.505-2.298.753-.04 1.506-.059 2.26-.059.834 0 1.67.905 2.504.905.808 0 1.617-5.84 2.425-7.88.835-2.11 1.67-2.874 2.505-4.452.808-1.528 1.616-4.726 2.424-4.847.835-.125 1.67-.063 2.505-.188s1.67-6.017 2.506-6.017c.808 0 1.616 3.355 2.424 3.355.836 0 1.672-5.987 2.508-8.013.809-1.958 1.617-2.79 2.425-4.068a73.808 73.808 0 012.505-3.716c.835-1.16 1.67-2.763 2.505-3.239.753-.429 1.506-.643 2.26-.643.835 0 1.67.14 2.505.42.808.27 1.616 8.622 2.424 8.622.835 0 1.67-1.607 2.505-2.245.808-.617 1.616-.718 2.425-1.54.835-.85 1.67-2.253 2.505-3.542.835-1.29 1.67-2.54 2.505-4.193.808-1.6 1.616-5.523 2.424-5.523.836 0 1.673.224 2.509.224.808 0 1.616-2.619 2.424-4.03.835-1.457 1.67-4.589 2.505-4.589s1.67 2.685 2.506 2.685c.753 0 1.506-1.188 2.259-1.979.835-.876 1.67-1.508 2.505-3.113.808-1.554 1.616-6.258 2.424-6.258.835 0 1.67.676 2.506 1.598.808.892 1.616 3.772 2.424 3.772.835 0 1.67-.254 2.505-.762s1.67-2.332 2.505-3.654c.808-1.278 1.617-4.127 2.425-4.127.836 0 1.672 9.193 2.508 10.078.808.856 1.616.428 2.425 1.284.835.885 1.67 10.883 2.505 12.1.835 1.218 1.67.61 2.505 1.827.781 1.138 1.562 6.73 2.343 6.73.834 0 1.668-8.307 2.502-9.644.808-1.296 1.617-1.944 2.425-1.944.835 0 1.67 13.034 2.505 13.588.808.535 1.616.802 2.424.802.835 0 1.67-5.251 2.505-5.251s1.67 7.424 2.505 11.545c.81 3.993 1.619 9.64 2.428 12.75.835 3.207 1.67 4.413 2.505 5.977.809 1.514 1.617 2.587 2.425 3.34.835.776 1.67.39 2.505 1.172.835.782 1.67 9.092 2.505 9.092.754 0 1.509-1.189 2.263-3.566.834-2.627 1.668-10.323 2.502-13.357.808-2.94 1.616-4.823 2.424-4.823.835 0 1.67.208 2.505.208.808 0 1.616-8.43 2.425-10.946.835-2.6 1.67-2.877 2.505-4.169.835-1.291 1.67-3.58 2.505-3.58.81 0 1.618 2.952 2.428 2.952.835 0 1.67-1.438 2.505-3.659.808-2.149 1.616-9.26 2.424-9.26.835 0 1.67 1.474 2.505 1.474s1.67-3.334 2.505-6.44c.755-2.806 1.509-8.839 2.263-10.765.834-2.13 1.668-3.195 2.502-3.195.808 0 1.616 1.197 2.424 2.104.835.937 1.67 3.47 2.506 3.47.808 0 1.616-3.398 2.424-3.562.835-.169 1.67-.084 2.505-.253.835-.17 1.67-1.827 2.505-2.916.808-1.053 1.617-1.893 2.425-3.487.836-1.65 1.672-4.012 2.508-6.339.808-2.248 1.616-7.341 2.425-7.341.835 0 1.67 1.269 2.505 1.269s1.67-3.583 2.505-3.583c.753 0 1.506 4.547 2.26 4.547.834 0 1.67-.016 2.504-.047.809-.03 1.617-3.206 2.425-3.206.835 0 1.67 3.324 2.505 3.324.808 0 1.616-.621 2.424-.621.835 0 1.67 9.803 2.505 12.627.836 2.823 1.67 4.315 2.506 4.315.808 0 1.616-9.282 2.424-10.353.836-1.108 1.672-.554 2.509-1.661.808-1.071 1.616-4.481 2.424-6.903.835-2.502 1.67-5.682 2.505-7.895.835-2.213 1.67-4.017 2.505-5.382.78-1.275 1.56-2.065 2.34-2.703.835-.683 1.67-1.142 2.506-1.142.808 0 1.616 3.915 2.424 3.915.835 0 1.67-3.864 2.505-6.453.808-2.505 1.616-8.745 2.425-8.745.835 0 1.67.917 2.505.917s1.67-1.51 2.505-1.51c.808 0 1.616 1.552 2.424 1.552.836 0 1.673-2.237 2.509-3.125.808-.858 1.616-1.237 2.424-2.144.835-.937 1.67-1.635 2.505-3.427.835-1.791 1.67-4.275 2.505-7.323.755-2.752 1.509-7.702 2.263-9.74.834-2.255 1.668-3.381 2.502-3.381.808 0 1.616.417 2.424 1.25.835.862 1.67 7.51 2.506 7.51.808 0 1.616-6.413 2.424-6.413.835 0 1.67 4 2.505 4s1.67-4.788 2.505-7.23c.81-2.366 1.619-5.511 2.428-7.19.835-1.732 1.67-2.432 2.505-2.904.808-.457 1.616-.685 2.424-.685.836 0 1.67 2.643 2.506 2.643.835 0 1.67-4.65 2.505-5.994.754-1.215 1.508-1.35 2.263-2.044.834-.768 1.667-.784 2.501-2.353.808-1.52 1.617-7.98 2.425-10.404.835-2.504 1.67-2.887 2.505-4.169.808-1.24 1.616-1.234 2.424-3.417.835-2.256 1.67-8.412 2.505-10.113.835-1.7 1.67-1.142 2.506-2.55.809-1.365 1.618-3.759 2.427-5.664.835-1.967 1.67-4.313 2.506-5.957.808-1.59 1.616-1.27 2.424-3.812.835-2.625 1.67-13.465 2.505-19.246.835-5.78 1.67-11.042 2.505-15.437.754-3.97 1.509-10.072 2.263-10.072.834 0 1.668 5.081 2.502 5.081.808 0 1.616-5.731 2.424-5.731.835 0 1.67 14.163 2.505 14.163.808 0 1.617-9.618 2.425-9.618.835 0 1.67 21.966 2.505 26.93.835 4.963 1.67 7.444 2.505 7.444.81 0 1.618-20.17 2.428-26.142.835-6.163 1.67-9.73 2.505-9.73.808 0 1.616 8.307 2.424 13.091.835 4.944 1.67 16.176 2.505 16.176s1.67-.106 2.506-.317c.78-.197 1.56-7.315 2.34-9.36.835-2.19 1.67-1.453 2.505-3.285.808-1.773 1.616-5.6 2.424-7.39.835-1.847 1.67-1.127 2.505-3.383.809-2.183 1.617-13.128 2.425-13.154.835-.027 1.67-.013 2.505-.04.835-.027 1.67-.688 2.505-.688.808 0 1.616.924 2.425.924.836 0 1.672-5.73 2.508-8.997.808-3.157 1.616-9.37 2.424-10.219.836-.876 1.67-.438 2.506-1.314.835-.876 1.67-14.95 2.505-15.442.753-.444 1.506-.666 2.26-.666.834 0 1.67.949 2.504 1.405.808.441 1.617.455 2.425 1.289.835.86 1.67 3.875 2.505 3.875.808 0 1.616-.366 2.424-.366.835 0 1.67.315 2.505.315s1.67-2.871 2.506-5.957c.808-2.987 1.616-11.518 2.424-12.052.836-.552 1.672-.35 2.508-.828.809-.463 1.617-1.02 2.425-1.956.835-.968 1.67-3.813 2.505-3.813s1.67 5.932 2.505 8.793c.753 2.58 1.506 7.57 2.26 7.57.835 0 1.67-6.363 2.505-10.3.808-3.812 1.616-12.66 2.424-12.85.835-.196 1.67-.098 2.505-.294.808-.19 1.616-5.528 2.425-7.768.835-2.314 1.67-4.398 2.505-5.824.835-1.426 1.67-2.73 2.505-2.73.808 0 1.616 18.692 2.424 18.692.837 0 1.673-5.92 2.509-5.92.808 0 1.616 26.414 2.424 26.414.835 0 1.67-21.305 2.505-27.799s1.67-6.76 2.506-11.166c.754-3.98 1.508-9.528 2.262-13.615.834-4.517 1.668-11.896 2.502-11.896.808 0 1.616 17.665 2.424 17.665.836 0 1.67-11.692 2.506-16.146.808-4.31 1.616-10.325 2.424-10.325.835 0 1.67 1.2 2.505 1.2s1.67-13.146 2.505-13.889c.81-.72 1.619-.36 2.428-1.079.835-.742 1.67-12.363 2.505-15.064.808-2.614 1.616-2.441 2.425-3.92.835-1.53 1.67-5.14 2.505-5.14s1.67 14.792 2.505 30.198c.781 14.411 1.562 57.254 2.344 57.254.833 0 1.667-34.95 2.501-39.216.808-4.133 1.617-5.167 2.425-6.2" stroke="#4285f4"/><path d="M93.317 575.803c.835.019 1.67.038 2.505.038s1.67-.24 2.505-.367c.754-.116 1.509-.244 2.263-.361.753-.117 1.506-.229 2.26-.34.834-.125 1.67-.218 2.504-.37.808-.147 1.617-.37 2.425-.524.835-.158 1.67-.273 2.505-.404.808-.126 1.616-.348 2.424-.368.835-.021 1.67-.01 2.505-.032.835-.02 1.67-.04 2.506-.123.809-.08 1.618-.393 2.427-.528.835-.14 1.67-.149 2.505-.286.809-.132 1.617-.337 2.425-.515.835-.184 1.67-.353 2.505-.573.835-.22 1.67-.488 2.505-.746.754-.233 1.509-.489 2.263-.722.834-.258 1.668-.506 2.502-.746.808-.233 1.616-.524 2.424-.674.835-.155 1.67-.077 2.505-.232.808-.15 1.616-.59 2.425-.752.835-.169 1.67-.155 2.505-.253.835-.097 1.67-.181 2.505-.333.81-.147 1.618-.554 2.428-.554.835 0 1.67.236 2.505.236.808 0 1.616-.598 2.424-.803.835-.212 1.67-.275 2.505-.435.835-.16 1.67-.388 2.506-.526.78-.13 1.562-.178 2.343-.293a46.26 46.26 0 002.502-.427c.808-.165 1.616-.571 2.424-.571.835 0 1.67.32 2.505.325.809.006 1.617.009 2.425.009.835 0 1.67-.161 2.505-.315.836-.153 1.672-.387 2.508-.607.809-.212 1.617-.36 2.425-.685.835-.335 1.67-1 2.505-1.317.808-.307 1.616-.361 2.424-.58.835-.226 1.67-.443 2.506-.759.835-.316 1.67-.704 2.505-1.136.754-.39 1.508-.995 2.262-1.301.834-.339 1.668-.31 2.502-.548.808-.23 1.616-.556 2.425-.844.835-.297 1.67-.481 2.505-.911.808-.416 1.616-1.074 2.424-1.603.835-.548 1.67-1.628 2.505-1.628.836 0 1.673.64 2.509.64.808 0 1.616-1.384 2.424-1.41.835-.026 1.67-.013 2.505-.04.809-.026 1.617-1.226 2.425-1.875.835-.672 1.67-2.093 2.505-2.093s1.67.042 2.505.124c.753.075 1.506 1.337 2.26 1.337.835 0 1.67-1.021 2.505-1.021.808 0 1.616.002 2.424.007.835.005 1.67.162 2.505.162.808 0 1.616-.087 2.425-.262.835-.18 1.67-1.368 2.505-1.368.836 0 1.672.44 2.508.44.808 0 1.616-.477 2.425-.477.835 0 1.67.33 2.505.33.808 0 1.616-.884 2.424-.884.835 0 1.67.717 2.505.717s1.67-.271 2.505-.452a29.755 29.755 0 002.26-.562c.835-.25 1.67-.505 2.505-.89.808-.374 1.616-1.258 2.424-1.37.835-.116 1.67-.058 2.506-.174.808-.111 1.616-1.049 2.424-1.387.835-.35 1.67-.277 2.505-.653.836-.377 1.672-1.608 2.509-1.608.808 0 1.616.55 2.424.55.835 0 1.67-.89 2.505-1.47.808-.56 1.616-1.335 2.425-1.93.835-.613 1.67-1.303 2.505-1.683.835-.38 1.67-.328 2.505-.596.781-.251 1.562-.525 2.343-.936.834-.44 1.668-1.23 2.502-1.655.808-.413 1.616-.679 2.425-.885.835-.214 1.67-.356 2.505-.356.808 0 1.616 1.679 2.424 1.679.835 0 1.67-.2 2.505-.598.835-.399 1.67-1.705 2.505-2.2.81-.48 1.619-.312 2.428-.769.835-.47 1.67-1.595 2.505-2.054.808-.444 1.617-.232 2.425-.697.835-.481 1.67-1.505 2.505-2.419.835-.914 1.67-3.067 2.505-3.067.754 0 1.509.115 2.263.115.834 0 1.668-1.212 2.502-2.097.808-.858 1.616-1.978 2.424-3.098.835-1.159 1.67-2.347 2.505-3.757.808-1.365 1.616-4.537 2.424-4.537.836 0 1.67 2.509 2.506 2.509.835 0 1.67-1.9 2.505-1.9.81 0 1.618 4.349 2.428 4.362.835.015 1.67.022 2.505.022.808 0 1.616-1.829 2.424-2.71.835-.911 1.67-1.476 2.505-2.664.835-1.187 1.67-3.107 2.505-4.461.755-1.223 1.509-3.06 2.263-3.343a7.075 7.075 0 012.502-.47c.808 0 1.616 2.198 2.424 2.198.835 0 1.67-1.229 2.506-1.615.808-.374 1.616-.693 2.424-.693.835 0 1.67 8.73 2.505 9.256.835.526 1.67.79 2.505.79.81 0 1.619-1.706 2.428-3.165.835-1.505 1.67-4.381 2.505-5.804.808-1.377 1.616-1.625 2.424-2.692.836-1.103 1.67-3.257 2.506-3.852.835-.595 1.67-.297 2.505-.892.754-.537 1.508-4.276 2.263-6.133.833-2.053 1.667-5.47 2.501-5.47.808 0 1.617 1.289 2.425 1.289.835 0 1.67-5.763 2.505-5.763.808 0 1.616 3.188 2.424 3.188.835 0 1.67-1.312 2.505-1.312s1.67 1.422 2.506 1.422c.808 0 1.616-3.955 2.424-6.087.836-2.207 1.672-4.179 2.509-6.952.808-2.68 1.616-9.318 2.424-9.318.835 0 1.67 2.094 2.505 2.094s1.67-.564 2.505-1.691c.78-1.053 1.56-8.125 2.34-8.385a7.888 7.888 0 012.506-.417c.808 0 1.616 4.852 2.424 4.852.835 0 1.67-.856 2.505-1.174.808-.308 1.616-.24 2.424-.72.836-.496 1.67-7.461 2.506-7.461.835 0 1.67 4.116 2.505 4.116.808 0 1.616-2.415 2.424-2.415.836 0 1.673 6.941 2.509 9.216.808 2.198 1.616 4.36 2.424 4.36.835 0 1.67-3.963 2.505-3.963s1.67 5.976 2.505 7.395c.754 1.279 1.507 1.918 2.26 1.918.835 0 1.67-4.417 2.505-6.133.808-1.66 1.616-4.061 2.424-4.061.835 0 1.67 1.34 2.505 2.502a21.253 21.253 0 012.425 4.299c.835 1.96 1.67 4.887 2.505 7.368.835 2.482 1.67 7.52 2.505 7.52.808 0 1.616-1.88 2.425-3.568.836-1.746 1.672-5.281 2.508-6.84.808-1.506 1.616-2.372 2.424-2.496.836-.128 1.67-.192 2.506-.192.835 0 1.67.184 2.505.184.754 0 1.508-3.717 2.263-3.717.833 0 1.667 3.673 2.501 5.078.808 1.36 1.617 1.174 2.425 3.271.835 2.167 1.67 7.357 2.505 9.724.808 2.291 1.616 4.419 2.424 4.419.835 0 1.67-.625 2.505-.625s1.67 7.508 2.506 7.508c.809 0 1.618-3.598 2.427-5.076.835-1.524 1.67-3.888 2.505-3.888.809 0 1.617 4.776 2.425 6.466.835 1.745 1.67 3.388 2.505 3.744.835.357 1.67.301 2.505.535.754.212 1.509.771 2.263.771.834 0 1.668-4.657 2.502-5.007.808-.339 1.616-.17 2.424-.508.835-.35 1.67-3.323 2.505-4.576.808-1.213 1.616-1.5 2.425-2.873.835-1.42 1.67-5.59 2.505-5.59s1.67 4.279 2.505 4.279c.81 0 1.618-5.645 2.428-5.645.835 0 1.67 1.048 2.505 1.048.808 0 1.616-.601 2.424-1.464.835-.892 1.67-2.863 2.505-3.877.835-1.013 1.67-1.559 2.506-2.204.78-.604 1.562-1.577 2.343-1.577.834 0 1.668.143 2.502.383.808.232 1.616 1.013 2.424 1.013.835 0 1.67-2.484 2.505-2.484.809 0 1.617 1.546 2.425 1.546.835 0 1.67-.75 2.505-.983.835-.233 1.67-.285 2.505-.413.808-.123 1.616-.114 2.425-.341.836-.236 1.672-1.118 2.508-1.742.808-.604 1.616-1.133 2.424-1.935.835-.829 1.67-2.088 2.506-2.99.835-.901 1.67-2.309 2.505-2.421a16.945 16.945 0 012.26-.152c.834 0 1.67 1.535 2.504 1.535.808 0 1.617-5.888 2.425-7.864.835-2.042 1.67-2.578 2.505-4.06.808-1.433 1.616-4.346 2.424-4.661.835-.327 1.67-.164 2.505-.49.835-.326 1.67-5.94 2.506-5.94.808 0 1.616 3.286 2.424 3.286.836 0 1.672-6.022 2.508-7.988.809-1.9 1.617-2.568 2.425-3.747a61.87 61.87 0 012.505-3.428c.835-1.053 1.67-2.707 2.505-2.89.753-.166 1.506-.174 2.26-.249.835-.082 1.67-.217 2.505-.217.808 0 1.616 8.558 2.424 8.558.835 0 1.67-1.349 2.505-1.825.808-.46 1.616-.337 2.425-1.011.835-.697 1.67-2.048 2.505-3.263.835-1.215 1.67-2.46 2.505-4.025.808-1.514 1.616-5.17 2.424-5.17.836 0 1.673.616 2.509.616.808 0 1.616-2.506 2.424-3.772.835-1.31 1.67-3.956 2.505-3.956s1.67 2.822 2.506 2.822c.753 0 1.506-1.236 2.259-2.137.835-.999 1.67-1.964 2.505-3.691.808-1.671 1.616-6.409 2.424-6.409.835 0 1.67.155 2.506.463.808.299 1.616 3.308 2.424 3.308.835 0 1.67-.095 2.505-.286.835-.19 1.67-2.252 2.505-3.554.808-1.26 1.617-4.108 2.425-4.108.836 0 1.672 8.932 2.508 9.425.808.477 1.616.238 2.425.715.835.492 1.67 11.415 2.505 12.417.835 1.001 1.67.5 2.505 1.502.781.937 1.562 6.778 2.343 6.778.834 0 1.668-7.615 2.502-9.375.808-1.705 1.617-2.557 2.425-2.557.835 0 1.67 12.041 2.505 12.874.808.807 1.616 1.21 2.424 1.21.835 0 1.67-5.308 2.505-5.308s1.67 8.097 2.505 12.004c.81 3.787 1.619 8.41 2.428 11.095.835 2.77 1.67 3.558 2.505 5.073.809 1.466 1.617 3.5 2.425 3.905.835.417 1.67.208 2.505.626.835.417 1.67 8.365 2.505 8.365.754 0 1.509-1.195 2.263-3.585.834-2.642 1.668-9.747 2.502-12.61.808-2.772 1.616-4.54 2.424-4.54.835 0 1.67.389 2.505.389.808 0 1.616-8.485 2.425-10.905.835-2.5 1.67-2.583 2.505-3.75.835-1.168 1.67-3.253 2.505-3.253.81 0 1.618 3.032 2.428 3.032.835 0 1.67-1.795 2.505-4.011.808-2.145 1.616-8.906 2.424-8.906.835 0 1.67 1.21 2.505 1.21s1.67-3.295 2.505-6.351c.755-2.76 1.509-8.96 2.263-10.579.834-1.79 1.668-2.684 2.502-2.684.808 0 1.616 1.334 2.424 2.303.835 1.001 1.67 3.648 2.506 3.648.808 0 1.616-3.335 2.424-3.335.835 0 1.67.252 2.505.252s1.67-1.886 2.505-2.973c.808-1.05 1.617-1.792 2.425-3.422.836-1.687 1.672-4.226 2.508-6.63.808-2.323 1.616-7.513 2.425-7.513.835 0 1.67 1.117 2.505 1.117s1.67-3.628 2.505-3.628c.753 0 1.506 4.397 2.26 4.438.834.045 1.67.067 2.504.067.809 0 1.617-2.745 2.425-2.745.835 0 1.67 3.022 2.505 3.022.808 0 1.616-.252 2.424-.252.835 0 1.67 10.386 2.505 12.772.836 2.385 1.67 3.578 2.506 3.578.808 0 1.616-8.427 2.424-9.953.836-1.579 1.672-.806 2.509-2.368.808-1.51 1.616-4.422 2.424-6.692.835-2.345 1.67-5.027 2.505-7.16s1.67-4.223 2.505-5.64c.78-1.322 1.56-2.418 2.34-2.755a6.27 6.27 0 012.506-.542c.808 0 1.616 4.433 2.424 4.433.835 0 1.67-3.885 2.505-6.319.808-2.355 1.616-7.985 2.425-7.985.835 0 1.67.415 2.505.415s1.67-1.666 2.505-1.666c.808 0 1.616 1.787 2.424 1.787.836 0 1.673-2.438 2.509-3.262.808-.796 1.616-.76 2.424-1.65.835-.92 1.67-2.04 2.505-3.846.835-1.805 1.67-3.982 2.505-6.987.755-2.713 1.509-8.251 2.263-9.795.834-1.707 1.668-2.267 2.502-2.56a7.256 7.256 0 012.424-.427c.835 0 1.67 7.403 2.506 7.403.808 0 1.616-7.407 2.424-7.407.835 0 1.67 3.552 2.505 3.552s1.67-4.738 2.505-7.189c.81-2.375 1.619-5.378 2.428-7.277.835-1.96 1.67-3.427 2.505-4.199.808-.746 1.616-1.12 2.424-1.12.836 0 1.67 3.533 2.506 3.533.835 0 1.67-4.88 2.505-6.272.754-1.257 1.508-1.431 2.263-2.063.834-.698 1.667-.63 2.501-1.89.808-1.22 1.617-7.717 2.425-10.11.835-2.472 1.67-3.09 2.505-4.284.808-1.156 1.616-.937 2.424-2.812.835-1.937 1.67-7.899 2.505-10.234s1.67-2.492 2.506-3.777c.809-1.246 1.618-2.173 2.427-3.81.835-1.687 1.67-4.674 2.506-6.233.808-1.51 1.616-1.023 2.424-3.07.835-2.115 1.67-11.308 2.505-17.036.835-5.728 1.67-12.738 2.505-17.334.754-4.15 1.509-9.56 2.263-9.56.834 0 1.668 3.689 2.502 3.689.808 0 1.616-6.347 2.424-6.347.835 0 1.67 13.695 2.505 13.695.808 0 1.617-9.488 2.425-9.488.835 0 1.67 21.34 2.505 27.319.835 5.98 1.67 8.969 2.505 8.969.81 0 1.618-20.664 2.428-26.813.835-6.345 1.67-10.13 2.505-10.13.808 0 1.616 8.883 2.424 13.898.835 5.182 1.67 16.773 2.505 16.773s1.67-.07 2.506-.213c.78-.133 1.56-6.534 2.34-8.608.835-2.22 1.67-1.994 2.505-3.923.808-1.866 1.616-6.106 2.424-7.342.835-1.277 1.67-.639 2.505-1.916.809-1.236 1.617-12.374 2.425-12.915.835-.558 1.67-.455 2.505-.837.835-.382 1.67-1.281 2.505-1.453.808-.166 1.616-.083 2.425-.249.836-.172 1.672-6.798 2.508-10.26.808-3.347 1.616-8.777 2.424-10.156.836-1.425 1.67-.713 2.506-2.138.835-1.425 1.67-14.1 2.505-15.259.753-1.044 1.506-1.566 2.26-1.566.834 0 1.67 1.06 2.504 1.392.808.322 1.617.2 2.425.598.835.412 1.67 4.088 2.505 4.088.808 0 1.616-.785 2.424-.785.835 0 1.67.3 2.505.3s1.67-3.39 2.506-6.766c.808-3.268 1.616-12.401 2.424-12.953.836-.572 1.672-.398 2.508-.858.809-.444 1.617-.607 2.425-1.82.835-1.254 1.67-5.799 2.505-5.799s1.67 4.882 2.505 7.937c.753 2.755 1.506 9.266 2.26 9.266.835 0 1.67-6.349 2.505-10.217.808-3.743 1.616-12.53 2.424-12.53.835 0 1.67.101 2.505.101.808 0 1.616-6.172 2.425-8.6a47.149 47.149 0 012.505-6.113c.835-1.699 1.67-4.076 2.505-4.076.808 0 1.616 20.486 2.424 20.486.837 0 1.673-4.808 2.509-4.808.808 0 1.616 27.277 2.424 27.277.835 0 1.67-20.254 2.505-26.802.835-6.547 1.67-8.013 2.506-12.484.754-4.039 1.508-8.602 2.262-12.875.834-4.724 1.668-14.103 2.502-14.103.808 0 1.616 20.128 2.424 20.128.836 0 1.67-13.586 2.506-18.43.808-4.688 1.616-10.414 2.424-10.414.835 0 1.67 2.958 2.505 2.958s1.67-13.286 2.505-14.045c.81-.735 1.619-.367 2.428-1.103.835-.758 1.67-13.88 2.505-17.28.808-3.293 1.616-3.356 2.425-4.939.835-1.635 1.67-4.704 2.505-4.704s1.67 15.845 2.505 30.595c.781 13.798 1.562 53.343 2.344 53.343.833 0 1.667-36.254 2.501-41.646.808-5.226 1.617-6.532 2.425-7.839" stroke="#db4437"/></g><g class="legends" dominant-baseline="middle" font-family="-apple-system,BlinkMacSystemFont,&quot;Segoe UI&quot;,Roboto,Oxygen-Sans,Ubuntu,Cantarell,&quot;Helvetica Neue&quot;,sans-serif" font-size="16" color="#333"><text x=".5em" y="69.81" fill="#4285f4" transform="translate(993.317 20)">Yoran&apos;s Portfolio</text><text x=".5em" y="49.81" fill="#db4437" transform="translate(993.317 20)">Yoran&apos;s Portfolio (without REIT)</text></g></svg>