<svg xmlns="http://www.w3.org/2000/svg" class="chart-new-svg" viewBox="0 0 814 534.152" data-ember-extension="1"><g class="x-axis axis"><path class="chart-new-axis-axis-line" font-family="-apple-system,BlinkMacSystemFont,&quot;Segoe UI&quot;,Roboto,Oxygen-Sans,Ubuntu,Cantarell,&quot;Helvetica Neue&quot;,sans-serif" font-size="16" stroke="#ddd" color="#333" d="M64.313 477.152H804"/><g class="axis-tick-labels"><path fill="none" font-family="-apple-system,BlinkMacSystemFont,&quot;Segoe UI&quot;,Roboto,Oxygen-Sans,Ubuntu,Cantarell,&quot;Helvetica Neue&quot;,sans-serif" font-size="16" color="#333" d="M64.313 477.152h1v10h-1z"/><text class="axis-tick-label" text-anchor="middle" x="27.038" y="10" dy="1em" font-family="-apple-system,BlinkMacSystemFont,&quot;Segoe UI&quot;,Roboto,Oxygen-Sans,Ubuntu,Cantarell,&quot;Helvetica Neue&quot;,sans-serif" font-size="12" fill="#999" color="#333" transform="translate(64.313 477.152)">1994</text><text class="axis-tick-label" text-anchor="middle" x="80.965" y="10" dy="1em" font-family="-apple-system,BlinkMacSystemFont,&quot;Segoe UI&quot;,Roboto,Oxygen-Sans,Ubuntu,Cantarell,&quot;Helvetica Neue&quot;,sans-serif" font-size="12" fill="#999" color="#333" transform="translate(64.313 477.152)">1996</text><text class="axis-tick-label" text-anchor="middle" x="134.966" y="10" dy="1em" font-family="-apple-system,BlinkMacSystemFont,&quot;Segoe UI&quot;,Roboto,Oxygen-Sans,Ubuntu,Cantarell,&quot;Helvetica Neue&quot;,sans-serif" font-size="12" fill="#999" color="#333" transform="translate(64.313 477.152)">1998</text><text class="axis-tick-label" text-anchor="middle" x="188.893" y="10" dy="1em" font-family="-apple-system,BlinkMacSystemFont,&quot;Segoe UI&quot;,Roboto,Oxygen-Sans,Ubuntu,Cantarell,&quot;Helvetica Neue&quot;,sans-serif" font-size="12" fill="#999" color="#333" transform="translate(64.313 477.152)">2000</text><text class="axis-tick-label" text-anchor="middle" x="242.894" y="10" dy="1em" font-family="-apple-system,BlinkMacSystemFont,&quot;Segoe UI&quot;,Roboto,Oxygen-Sans,Ubuntu,Cantarell,&quot;Helvetica Neue&quot;,sans-serif" font-size="12" fill="#999" color="#333" transform="translate(64.313 477.152)">2002</text><text class="axis-tick-label" text-anchor="middle" x="296.822" y="10" dy="1em" font-family="-apple-system,BlinkMacSystemFont,&quot;Segoe UI&quot;,Roboto,Oxygen-Sans,Ubuntu,Cantarell,&quot;Helvetica Neue&quot;,sans-serif" font-size="12" fill="#999" color="#333" transform="translate(64.313 477.152)">2004</text><text class="axis-tick-label" text-anchor="middle" x="350.823" y="10" dy="1em" font-family="-apple-system,BlinkMacSystemFont,&quot;Segoe UI&quot;,Roboto,Oxygen-Sans,Ubuntu,Cantarell,&quot;Helvetica Neue&quot;,sans-serif" font-size="12" fill="#999" color="#333" transform="translate(64.313 477.152)">2006</text><text class="axis-tick-label" text-anchor="middle" x="404.75" y="10" dy="1em" font-family="-apple-system,BlinkMacSystemFont,&quot;Segoe UI&quot;,Roboto,Oxygen-Sans,Ubuntu,Cantarell,&quot;Helvetica Neue&quot;,sans-serif" font-size="12" fill="#999" color="#333" transform="translate(64.313 477.152)">2008</text><text class="axis-tick-label" text-anchor="middle" x="458.751" y="10" dy="1em" font-family="-apple-system,BlinkMacSystemFont,&quot;Segoe UI&quot;,Roboto,Oxygen-Sans,Ubuntu,Cantarell,&quot;Helvetica Neue&quot;,sans-serif" font-size="12" fill="#999" color="#333" transform="translate(64.313 477.152)">2010</text><text class="axis-tick-label" text-anchor="middle" x="512.679" y="10" dy="1em" font-family="-apple-system,BlinkMacSystemFont,&quot;Segoe UI&quot;,Roboto,Oxygen-Sans,Ubuntu,Cantarell,&quot;Helvetica Neue&quot;,sans-serif" font-size="12" fill="#999" color="#333" transform="translate(64.313 477.152)">2012</text><text class="axis-tick-label" text-anchor="middle" x="566.68" y="10" dy="1em" font-family="-apple-system,BlinkMacSystemFont,&quot;Segoe UI&quot;,Roboto,Oxygen-Sans,Ubuntu,Cantarell,&quot;Helvetica Neue&quot;,sans-serif" font-size="12" fill="#999" color="#333" transform="translate(64.313 477.152)">2014</text><text class="axis-tick-label" text-anchor="middle" x="620.607" y="10" dy="1em" font-family="-apple-system,BlinkMacSystemFont,&quot;Segoe UI&quot;,Roboto,Oxygen-Sans,Ubuntu,Cantarell,&quot;Helvetica Neue&quot;,sans-serif" font-size="12" fill="#999" color="#333" transform="translate(64.313 477.152)">2016</text><text class="axis-tick-label" text-anchor="middle" x="674.608" y="10" dy="1em" font-family="-apple-system,BlinkMacSystemFont,&quot;Segoe UI&quot;,Roboto,Oxygen-Sans,Ubuntu,Cantarell,&quot;Helvetica Neue&quot;,sans-serif" font-size="12" fill="#999" color="#333" transform="translate(64.313 477.152)">2018</text><text class="axis-tick-label" text-anchor="middle" x="728.536" y="10" dy="1em" font-family="-apple-system,BlinkMacSystemFont,&quot;Segoe UI&quot;,Roboto,Oxygen-Sans,Ubuntu,Cantarell,&quot;Helvetica Neue&quot;,sans-serif" font-size="12" fill="#999" color="#333" transform="translate(64.313 477.152)">2020</text></g><g class="axis-label"><path fill="none" font-family="-apple-system,BlinkMacSystemFont,&quot;Segoe UI&quot;,Roboto,Oxygen-Sans,Ubuntu,Cantarell,&quot;Helvetica Neue&quot;,sans-serif" font-size="14" color="#333" d="M64.313 501.152h1v16h-1z"/><text class="axis-label-label" x="369.844" y="16" dy="1em" text-anchor="middle" font-family="-apple-system,BlinkMacSystemFont,&quot;Segoe UI&quot;,Roboto,Oxygen-Sans,Ubuntu,Cantarell,&quot;Helvetica Neue&quot;,sans-serif" font-size="14" fill="#999" color="#333" transform="translate(64.313 501.152)">Time</text></g><g class="axis-tick-lines"><path class="axis-tick-line" font-family="-apple-system,BlinkMacSystemFont,&quot;Segoe UI&quot;,Roboto,Oxygen-Sans,Ubuntu,Cantarell,&quot;Helvetica Neue&quot;,sans-serif" font-size="16" stroke="#ddd" color="#333" d="M91.35 20v457.152M145.278 20v457.152M199.279 20v457.152M253.206 20v457.152M307.207 20v457.152M361.135 20v457.152M415.135 20v457.152M469.063 20v457.152M523.063 20v457.152M576.991 20v457.152M630.992 20v457.152M684.92 20v457.152M738.92 20v457.152M792.848 20v457.152"/></g></g><g class="y-axis axis"><text class="axis-label" x="-228.576" dy="1em" text-anchor="middle" transform="rotate(-90 10 10)" font-family="-apple-system,BlinkMacSystemFont,&quot;Segoe UI&quot;,Roboto,Oxygen-Sans,Ubuntu,Cantarell,&quot;Helvetica Neue&quot;,sans-serif" font-size="14" fill="#999" color="#333">Correlation</text><g class="axis-tick-labels"><text class="axis-tick-label" text-anchor="end" alignment-baseline="middle" x="-10" y="457.152" font-family="-apple-system,BlinkMacSystemFont,&quot;Segoe UI&quot;,Roboto,Oxygen-Sans,Ubuntu,Cantarell,&quot;Helvetica Neue&quot;,sans-serif" font-size="12" fill="#999" color="#333" transform="translate(64.313 20)">-1.0</text><text class="axis-tick-label" text-anchor="end" alignment-baseline="middle" x="-10" y="411.437" font-family="-apple-system,BlinkMacSystemFont,&quot;Segoe UI&quot;,Roboto,Oxygen-Sans,Ubuntu,Cantarell,&quot;Helvetica Neue&quot;,sans-serif" font-size="12" fill="#999" color="#333" transform="translate(64.313 20)">-0.8</text><text class="axis-tick-label" text-anchor="end" alignment-baseline="middle" x="-10" y="365.722" font-family="-apple-system,BlinkMacSystemFont,&quot;Segoe UI&quot;,Roboto,Oxygen-Sans,Ubuntu,Cantarell,&quot;Helvetica Neue&quot;,sans-serif" font-size="12" fill="#999" color="#333" transform="translate(64.313 20)">-0.6</text><text class="axis-tick-label" text-anchor="end" alignment-baseline="middle" x="-10" y="320.006" font-family="-apple-system,BlinkMacSystemFont,&quot;Segoe UI&quot;,Roboto,Oxygen-Sans,Ubuntu,Cantarell,&quot;Helvetica Neue&quot;,sans-serif" font-size="12" fill="#999" color="#333" transform="translate(64.313 20)">-0.4</text><text class="axis-tick-label" text-anchor="end" alignment-baseline="middle" x="-10" y="274.291" font-family="-apple-system,BlinkMacSystemFont,&quot;Segoe UI&quot;,Roboto,Oxygen-Sans,Ubuntu,Cantarell,&quot;Helvetica Neue&quot;,sans-serif" font-size="12" fill="#999" color="#333" transform="translate(64.313 20)">-0.2</text><text class="axis-tick-label" text-anchor="end" alignment-baseline="middle" x="-10" y="228.576" font-family="-apple-system,BlinkMacSystemFont,&quot;Segoe UI&quot;,Roboto,Oxygen-Sans,Ubuntu,Cantarell,&quot;Helvetica Neue&quot;,sans-serif" font-size="12" fill="#999" color="#333" transform="translate(64.313 20)">0.0</text><text class="axis-tick-label" text-anchor="end" alignment-baseline="middle" x="-10" y="182.861" font-family="-apple-system,BlinkMacSystemFont,&quot;Segoe UI&quot;,Roboto,Oxygen-Sans,Ubuntu,Cantarell,&quot;Helvetica Neue&quot;,sans-serif" font-size="12" fill="#999" color="#333" transform="translate(64.313 20)">0.2</text><text class="axis-tick-label" text-anchor="end" alignment-baseline="middle" x="-10" y="137.146" font-family="-apple-system,BlinkMacSystemFont,&quot;Segoe UI&quot;,Roboto,Oxygen-Sans,Ubuntu,Cantarell,&quot;Helvetica Neue&quot;,sans-serif" font-size="12" fill="#999" color="#333" transform="translate(64.313 20)">0.4</text><text class="axis-tick-label" text-anchor="end" alignment-baseline="middle" x="-10" y="91.43" font-family="-apple-system,BlinkMacSystemFont,&quot;Segoe UI&quot;,Roboto,Oxygen-Sans,Ubuntu,Cantarell,&quot;Helvetica Neue&quot;,sans-serif" font-size="12" fill="#999" color="#333" transform="translate(64.313 20)">0.6</text><text class="axis-tick-label" text-anchor="end" alignment-baseline="middle" x="-10" y="45.715" font-family="-apple-system,BlinkMacSystemFont,&quot;Segoe UI&quot;,Roboto,Oxygen-Sans,Ubuntu,Cantarell,&quot;Helvetica Neue&quot;,sans-serif" font-size="12" fill="#999" color="#333" transform="translate(64.313 20)">0.8</text><text class="axis-tick-label" text-anchor="end" alignment-baseline="middle" x="-10" font-family="-apple-system,BlinkMacSystemFont,&quot;Segoe UI&quot;,Roboto,Oxygen-Sans,Ubuntu,Cantarell,&quot;Helvetica Neue&quot;,sans-serif" font-size="12" fill="#999" color="#333" transform="translate(64.313 20)">1.0</text></g><path class="chart-new-axis-line" font-family="-apple-system,BlinkMacSystemFont,&quot;Segoe UI&quot;,Roboto,Oxygen-Sans,Ubuntu,Cantarell,&quot;Helvetica Neue&quot;,sans-serif" font-size="16" stroke="#ddd" color="#333" d="M64.313 20v457.152M804 20v457.152"/><g class="axis-tick-lines"><path class="axis-tick-line" font-family="-apple-system,BlinkMacSystemFont,&quot;Segoe UI&quot;,Roboto,Oxygen-Sans,Ubuntu,Cantarell,&quot;Helvetica Neue&quot;,sans-serif" font-size="16" stroke="#ddd" color="#333" d="M64.313 477.152H804M64.313 431.437H804M64.313 385.722H804M64.313 340.006H804M64.313 294.291H804M64.313 248.576H804M64.313 202.861H804M64.313 157.146H804M64.313 111.43H804M64.313 65.715H804M64.313 20H804"/></g></g><path d="M64.313 363.627c.763-1.055 1.526-2.111 2.29-4.5.689-2.16 1.379-3.378 2.068-8.653.762-5.833 1.525-17.294 2.287-26.27.739-8.699 1.477-17.134 2.216-26.714.764-9.9 1.527-19.04 2.29-31.862.739-12.409 1.478-29.508 2.216-43.413.764-14.37 1.527-28.979 2.29-41.298.764-12.32 1.527-24.003 2.29-32.618.74-8.348 1.48-14.262 2.22-18.686.763-4.565 1.527-4.769 2.29-7.93.739-3.06 1.477-7.83 2.216-10.635.763-2.899 1.527-4.282 2.29-6.328.764-2.047 1.527-3.886 2.29-5.95.69-1.862 1.38-3.928 2.069-5.784.762-2.051 1.524-3.716 2.287-5.888.738-2.105 1.477-4.717 2.216-6.904.763-2.26 1.527-4.53 2.29-6.418.739-1.827 1.477-3.265 2.216-4.772.763-1.556 1.527-2.694 2.29-4.399.764-1.705 1.527-4.074 2.29-5.83a61.016 61.016 0 012.22-4.58c.763-1.422 1.526-2.466 2.29-3.793.738-1.285 1.477-3.101 2.216-4.03.763-.962 1.526-1.477 2.29-1.558a21.506 21.506 0 012.29-.123c.69 0 1.379.578 2.068.937.763.396 1.525.486 2.287 1.361.739.849 1.478 2.339 2.216 3.733.764 1.441 1.527 3.483 2.29 4.805.74 1.28 1.478 1.317 2.217 3.055.763 1.795 1.526 4.812 2.29 7.692.763 2.879 1.527 6.133 2.29 9.583.74 3.344 1.48 6.963 2.22 10.75.762 3.91 1.526 7.827 2.29 12.382.738 4.408 1.477 9.747 2.215 14.427.764 4.835 1.527 9.585 2.29 14.091.764 4.507 1.527 11.528 2.29 12.946.715 1.328 1.429 1.31 2.143 1.991.763.729 1.527 1.347 2.29 2.246.738.869 1.475 3.03 2.213 3.03.763 0 1.527-.092 2.29-.276.739-.177 1.478-.69 2.216-1.46.764-.797 1.527-2.497 2.29-3.299.764-.802 1.527-.504 2.29-1.513.74-.976 1.478-2.893 2.217-5.012a72.659 72.659 0 002.293-8.017c.738-3.23 1.477-7.761 2.216-11.565.763-3.93 1.527-6.984 2.29-11.626.763-4.64 1.527-10.905 2.29-16.222.69-4.803 1.379-10.38 2.068-14.188.763-4.21 1.525-6.866 2.287-9.253.74-2.313 1.478-3.415 2.217-4.974.763-1.612 1.526-3.013 2.29-4.522.738-1.46 1.477-3.163 2.216-4.383.763-1.26 1.527-1.951 2.29-3.008.763-1.056 1.527-2.043 2.29-3.331.739-1.246 1.478-2.863 2.216-4.237.765-1.422 1.529-3.252 2.293-4.143.74-.862 1.478-1.292 2.217-1.292a26.1 26.1 0 012.29.1c.763.068 1.526.235 2.29.702.69.423 1.379 2.649 2.068 3.506.762.948 1.525 1.02 2.287 1.702.739.66 1.478 1.113 2.216 2.305.764 1.232 1.527 2.782 2.29 5.055.74 2.2 1.478 5.2 2.217 8.252.763 3.155 1.526 6.02 2.29 10.433.763 4.413 1.526 8.188 2.29 16.047.738 7.606 1.477 19.736 2.216 29.868.764 10.485 1.529 22.523 2.293 32.02a1028.87 1028.87 0 002.216 24.243c.764 7.315 1.527 12.246 2.29 18.734.764 6.488 1.527 13.867 2.29 20.194.69 5.714 1.38 10.938 2.069 16.153.762 5.768 1.524 11.29 2.287 16.683.739 5.227 1.477 11.8 2.216 15.207.763 3.52 1.527 2.933 2.29 5.281.739 2.272 1.478 5.518 2.216 8.465.764 3.045 1.527 4.454 2.29 9.536.764 5.082 1.527 13.796 2.29 20.954.74 6.927 1.478 14.578 2.217 21.27.763 6.913 1.526 12.912 2.29 19.465.74 6.35 1.48 14.899 2.219 19.23.763 4.47 1.527 5.426 2.29 6.77.763 1.344 1.527 2.017 2.29 2.017.714 0 1.428-2.715 2.142-4.37.763-1.766 1.525-3.812 2.287-5.975.739-2.096 1.478-3.245 2.217-6.769.763-3.641 1.526-9.748 2.29-14.984.738-5.067 1.477-9.473 2.216-15.878.763-6.619 1.526-12.765 2.29-23.42.763-10.654 1.527-26.282 2.29-40.506.739-13.765 1.477-29.366 2.216-43.323.764-14.441 1.529-31.781 2.293-41.769.739-9.652 1.478-11.845 2.216-17.929.764-6.287 1.527-12.971 2.29-19.206.764-6.235 1.527-12.472 2.29-18.203.69-5.176 1.38-9.805 2.069-14.706.762-5.418 1.525-11.398 2.287-16.248.739-4.7 1.477-9.02 2.216-12.505.764-3.6 1.527-6.187 2.29-8.606.739-2.342 1.478-4.115 2.216-5.764.764-1.703 1.527-4.236 2.29-4.236.764 0 1.527.205 2.29.615.74.397 1.478.834 2.217 2.02.764 1.227 1.528 2.908 2.293 5.328.739 2.338 1.477 8.002 2.216 8.82.763.845 1.527 1.267 2.29 1.267.763 0 1.527-.635 2.29-1.673.69-.937 1.38-3.033 2.069-3.984.763-1.054 1.526-.937 2.29-1.778.737-.812 1.475-2.306 2.213-3.13.763-.853 1.527-1.385 2.29-1.853.739-.453 1.477-.936 2.216-.936.763 0 1.527 1.578 2.29 3.657.763 2.078 1.527 5.17 2.29 8.812.739 3.523 1.478 7.144 2.216 12.548.765 5.592 1.53 13.16 2.294 20.7.738 7.288 1.477 16.282 2.216 23.653.763 7.618 1.526 12.28 2.29 21.21.763 8.93 1.526 19.329 2.29 32.372.69 11.782 1.379 27.015 2.068 40.857.763 15.305 1.525 32.276 2.287 46.732.739 14.01 1.478 27.668 2.216 38.87.764 11.577 1.527 17.777 2.29 29.11.74 10.969 1.478 26.924 2.217 37.487.763 10.914 1.526 20.489 2.29 26.55.763 6.06 1.526 9.815 2.29 9.815.739 0 1.477-3.438 2.216-5.015.764-1.63 1.529-2.846 2.293-4.587.739-1.682 1.478-3.884 2.216-5.639.764-1.812 1.527-3.118 2.29-5.036.764-1.917 1.527-2.157 2.29-6.47.715-4.037 1.429-12.275 2.143-19.745.762-7.974 1.524-16.972 2.287-26.959.739-9.677 1.477-24.53 2.216-31.849.763-7.563 1.527-6.375 2.29-12.124.739-5.564 1.478-13.736 2.216-21.49.764-8.013 1.527-18.267 2.29-25.93.764-7.663 1.527-12.941 2.29-20.045.74-6.875 1.478-16.779 2.217-21.811.763-5.2 1.526-5.295 2.29-8.431.74-3.039 1.48-6.22 2.219-10.034.763-3.936 1.527-8.28 2.29-13.307.763-5.026 1.527-10.857 2.29-16.852.69-5.415 1.379-12.032 2.068-17.171.763-5.682 1.525-8.778 2.287-14.9.74-5.93 1.478-14.165 2.217-21.045.763-7.109 1.526-13.702 2.29-20.892.738-6.957 1.477-15.662 2.216-21.506.763-6.04 1.527-10.378 2.29-13.875.763-3.497 1.527-5.066 2.29-7.107.739-1.975 1.477-4.15 2.216-5.003.765-.883 1.529-.932 2.293-1.324.74-.38 1.478-.615 2.217-1.001.763-.4 1.526-1.37 2.29-1.37.763 0 1.526.049 2.29.145.69.086 1.379.976 2.068 1.537.762.621 1.525.867 2.287 2.04.739 1.138 1.478 3.405 2.216 4.8.764 1.443 1.527 3.648 2.29 3.675.74.026 1.478.013 2.217.039.763.027 1.526 1.268 2.29 2 .763.734 1.526 2.192 2.29 2.4.738.2 1.477.16 2.216.3.764.147 1.529.405 2.293.569.739.158 1.477.403 2.216.403.764 0 1.527-.396 2.29-.396.764 0 1.527.858 2.29 1.752.69.807 1.38 3.118 2.069 3.181.762.07 1.524.081 2.287.105.738.022 1.477.011 2.216.035.763.024 1.527.123 2.29.368.739.237 1.477 1.3 2.216 1.3.764 0 1.527-.14 2.29-.287.764-.148 1.527-.6 2.29-.6.74 0 1.478 1.173 2.217 2.007.764.864 1.528 1.67 2.293 3.123.738 1.405 1.477 1.791 2.216 5.373.763 3.7 1.527 11.598 2.29 18.137.763 6.539 1.527 11.593 2.29 21.097.714 8.892 1.428 21.577 2.142 33.165a9063.26 9063.26 0 012.287 38.934c.739 12.911 1.478 29.435 2.216 39.71.764 10.617 1.527 15.537 2.29 22.363.74 6.605 1.478 11.566 2.217 18.05.763 6.699 1.526 14.051 2.29 21.595.763 7.544 1.527 16.18 2.29 23.668.739 7.245 1.477 13.662 2.216 20.604.764 7.184 1.529 13.053 2.293 21.79.739 8.443 1.478 20.037 2.216 29.459.764 9.736 1.527 20.271 2.29 27.932a321.364 321.364 0 002.29 18.035c.69 4.491 1.38 7.926 2.069 10.93.762 3.322 1.525 5.203 2.287 7.623.739 2.344 1.477 4.52 2.216 6.69.763 2.242 1.527 4.203 2.29 6.536.739 2.258 1.478 5.06 2.216 7.209.764 2.22 1.527 4.425 2.29 5.85.764 1.427 1.527 2.708 2.29 2.708.74 0 1.478-.194 2.217-.58.764-.4 1.528-1.425 2.293-2.107.739-.659 1.477-1.155 2.216-1.92.763-.792 1.527-1.812 2.29-2.775.763-.964 1.527-1.87 2.29-3.008a43.315 43.315 0 002.069-3.41c.762-1.396 1.524-2.667 2.287-4.65.738-1.922 1.477-4.28 2.216-6.985.763-2.795 1.526-5.636 2.29-9.59.739-3.825 1.477-8.865 2.216-13.605.763-4.898 1.527-9.914 2.29-15.352.763-5.438 1.527-10.204 2.29-17.278.739-6.845 1.478-15.832 2.216-24.227.764-8.675 1.527-17.093 2.29-27.048.74-9.646 1.48-21.906 2.22-31.585.763-9.987 1.526-18.073 2.29-27.246.763-9.174 1.526-19.309 2.29-27.793.69-7.663 1.379-14.767 2.068-21.082.763-6.982 1.525-12.768 2.287-18.334.739-5.394 1.478-8.186 2.216-14.643.764-6.673 1.527-15.49 2.29-25.07.74-9.27 1.478-22.783 2.217-31.248.763-8.747 1.526-12.924 2.29-19.99.763-7.066 1.526-15.038 2.29-22.407.739-7.13 1.477-15.628 2.216-21.11.764-5.672 1.529-9.328 2.293-12.02.739-2.601 1.478-4.12 2.216-4.12.764 0 1.527 2.861 2.29 4.102.764 1.24 1.527 2.39 2.29 3.341.715.89 1.429 1.825 2.143 2.24.762.445 1.524.667 2.287.667.739 0 1.477-2.764 2.216-3.487.763-.747 1.527-1.12 2.29-1.12.739 0 1.477.926 2.216.926.764 0 1.527-.436 2.29-1.037.764-.6 1.527-1.79 2.29-2.569a31.28 31.28 0 012.217-2.049c.764-.644 1.528-1.241 2.293-1.738.738-.48 1.477-.596 2.216-1.206.763-.63 1.527-2.314 2.29-2.556a7.55 7.55 0 012.29-.362c.69 0 1.379.004 2.068.012.764.01 1.527.209 2.29.209.738 0 1.476-.024 2.214-.072.763-.05 1.526-1.34 2.29-1.357.738-.016 1.477-.024 2.216-.024.763 0 1.527.601 2.29.808.763.208 1.527.435 2.29.435.739 0 1.477-.225 2.216-.294.765-.072 1.529-.08 2.293-.123.74-.04 1.478-.127 2.217-.127.763 0 1.526.267 2.29.267.763 0 1.526-.528 2.29-.913.69-.349 1.379-.557 2.068-1.243.762-.758 1.525-2.407 2.287-3.27.739-.835 1.478-1.19 2.216-1.868.764-.7 1.527-1.147 2.29-2.273.74-1.089 1.478-3.038 2.217-4.3.763-1.304 1.526-2.202 2.29-3.364.763-1.162 1.526-3.607 2.29-3.607.738 0 1.477.425 2.216.425.764 0 1.529-.805 2.293-.995.739-.184 1.477-.188 2.216-.277.764-.09 1.527-.086 2.29-.26.764-.174 1.527-1.25 2.29-1.735.69-.438 1.38-1.088 2.069-1.088.762 0 1.524.022 2.287.022.738 0 1.477-.007 2.216-.02.763-.014 1.527-.545 2.29-.56.739-.016 1.477-.023 2.216-.023.764 0 1.527.113 2.29.113.764 0 1.527-.374 2.29-.374.739 0 1.478.07 2.216.137.765.07 1.53.283 2.294.283.738 0 1.477-.15 2.216-.164.763-.014 1.527-.021 2.29-.021.763 0 1.527.004 2.29.012.714.007 1.428.59 2.142 1.07.763.512 1.525 1.774 2.287 1.958a9.414 9.414 0 002.216.268c.764 0 1.527-.021 2.29-.063.74-.04 1.478-.184 2.217-.184.763 0 1.526.217 2.29.217.763 0 1.526-.466 2.29-.466.739 0 1.477.144 2.216.28.764.14 1.529.358 2.293.561.739.196 1.478.36 2.216.633.764.284 1.527.534 2.29 1.051.764.517 1.527 1.24 2.29 2.05.69.733 1.38 1.55 2.069 2.506.762 1.058 1.525 2.323 2.287 3.62.739 1.259 1.477 2.73 2.216 4.032.763 1.344 1.527 2.598 2.29 3.897.739 1.258 1.478 2.337 2.216 3.774a61.044 61.044 0 012.29 5.025c.764 1.885 1.527 4.184 2.29 6.285.74 2.034 1.478 3.706 2.217 6.12.764 2.497 1.528 5.532 2.293 8.692.739 3.055 1.477 6.859 2.216 9.9.763 3.142 1.527 6.01 2.29 8.599.763 2.587 1.527 6.85 2.29 6.928.69.07 1.38.035 2.069.106.762.079 1.524 1.087 2.287 1.087.738 0 1.477-.858 2.216-.858.763 0 1.526.333 2.29.751.739.404 1.477.56 2.216 1.682.763 1.16 1.527 8.99 2.29 12.637.763 3.647 1.527 3.083 2.29 9.248.739 5.968 1.478 18.395 2.216 26.955.765 8.856 1.53 18.733 2.293 25.205.74 6.255 1.478 8.719 2.217 13.356.763 4.792 1.526 10.945 2.29 14.97.763 4.026 1.526 6.945 2.29 9.185.69 2.023 1.379 4.06 2.068 4.06.764 0 1.527-1.187 2.29-3.562.738-2.294 1.476-17.103 2.213-22.935.764-6.036 1.527-6.234 2.29-12.284.74-5.855 1.478-15.15 2.217-23.059.763-8.172 1.526-17.87 2.29-25.226.763-7.355 1.526-11.445 2.29-18.907.739-7.22 1.477-17.445 2.216-24.917.764-7.731 1.529-15.13 2.293-20.515.739-5.204 1.478-8.912 2.216-11.54.764-2.715 1.527-3.2 2.29-4.24.764-1.041 1.527-1.012 2.29-2.006.715-.93 1.429-3.641 2.143-3.641.762 0 1.524 1.376 2.287 4.13.738 2.667 1.477 33.1 2.216 45.167.763 12.468 1.527 20.149 2.29 27.83" font-family="-apple-system,BlinkMacSystemFont,&quot;Segoe UI&quot;,Roboto,Oxygen-Sans,Ubuntu,Cantarell,&quot;Helvetica Neue&quot;,sans-serif" font-size="16" fill="none" stroke="#4285f4" stroke-width="2" color="#333"/></svg>