<svg xmlns="http://www.w3.org/2000/svg" class="chart-new-svg" viewBox="0 0 814 534.152" data-ember-extension="1"><g class="x-axis axis"><path class="chart-new-axis-axis-line" font-family="-apple-system,BlinkMacSystemFont,&quot;Segoe UI&quot;,Roboto,Oxygen-Sans,Ubuntu,Cantarell,&quot;Helvetica Neue&quot;,sans-serif" font-size="16" stroke="#ddd" color="#333" d="M64.313 477.152H804"/><g class="axis-tick-labels"><path fill="none" font-family="-apple-system,BlinkMacSystemFont,&quot;Segoe UI&quot;,Roboto,Oxygen-Sans,Ubuntu,Cantarell,&quot;Helvetica Neue&quot;,sans-serif" font-size="16" color="#333" d="M64.313 477.152h1v10h-1z"/><text class="axis-tick-label" text-anchor="middle" x="27.038" y="10" dy="1em" font-family="-apple-system,BlinkMacSystemFont,&quot;Segoe UI&quot;,Roboto,Oxygen-Sans,Ubuntu,Cantarell,&quot;Helvetica Neue&quot;,sans-serif" font-size="12" fill="#999" color="#333" transform="translate(64.313 477.152)">1994</text><text class="axis-tick-label" text-anchor="middle" x="80.965" y="10" dy="1em" font-family="-apple-system,BlinkMacSystemFont,&quot;Segoe UI&quot;,Roboto,Oxygen-Sans,Ubuntu,Cantarell,&quot;Helvetica Neue&quot;,sans-serif" font-size="12" fill="#999" color="#333" transform="translate(64.313 477.152)">1996</text><text class="axis-tick-label" text-anchor="middle" x="134.966" y="10" dy="1em" font-family="-apple-system,BlinkMacSystemFont,&quot;Segoe UI&quot;,Roboto,Oxygen-Sans,Ubuntu,Cantarell,&quot;Helvetica Neue&quot;,sans-serif" font-size="12" fill="#999" color="#333" transform="translate(64.313 477.152)">1998</text><text class="axis-tick-label" text-anchor="middle" x="188.893" y="10" dy="1em" font-family="-apple-system,BlinkMacSystemFont,&quot;Segoe UI&quot;,Roboto,Oxygen-Sans,Ubuntu,Cantarell,&quot;Helvetica Neue&quot;,sans-serif" font-size="12" fill="#999" color="#333" transform="translate(64.313 477.152)">2000</text><text class="axis-tick-label" text-anchor="middle" x="242.894" y="10" dy="1em" font-family="-apple-system,BlinkMacSystemFont,&quot;Segoe UI&quot;,Roboto,Oxygen-Sans,Ubuntu,Cantarell,&quot;Helvetica Neue&quot;,sans-serif" font-size="12" fill="#999" color="#333" transform="translate(64.313 477.152)">2002</text><text class="axis-tick-label" text-anchor="middle" x="296.822" y="10" dy="1em" font-family="-apple-system,BlinkMacSystemFont,&quot;Segoe UI&quot;,Roboto,Oxygen-Sans,Ubuntu,Cantarell,&quot;Helvetica Neue&quot;,sans-serif" font-size="12" fill="#999" color="#333" transform="translate(64.313 477.152)">2004</text><text class="axis-tick-label" text-anchor="middle" x="350.823" y="10" dy="1em" font-family="-apple-system,BlinkMacSystemFont,&quot;Segoe UI&quot;,Roboto,Oxygen-Sans,Ubuntu,Cantarell,&quot;Helvetica Neue&quot;,sans-serif" font-size="12" fill="#999" color="#333" transform="translate(64.313 477.152)">2006</text><text class="axis-tick-label" text-anchor="middle" x="404.75" y="10" dy="1em" font-family="-apple-system,BlinkMacSystemFont,&quot;Segoe UI&quot;,Roboto,Oxygen-Sans,Ubuntu,Cantarell,&quot;Helvetica Neue&quot;,sans-serif" font-size="12" fill="#999" color="#333" transform="translate(64.313 477.152)">2008</text><text class="axis-tick-label" text-anchor="middle" x="458.751" y="10" dy="1em" font-family="-apple-system,BlinkMacSystemFont,&quot;Segoe UI&quot;,Roboto,Oxygen-Sans,Ubuntu,Cantarell,&quot;Helvetica Neue&quot;,sans-serif" font-size="12" fill="#999" color="#333" transform="translate(64.313 477.152)">2010</text><text class="axis-tick-label" text-anchor="middle" x="512.679" y="10" dy="1em" font-family="-apple-system,BlinkMacSystemFont,&quot;Segoe UI&quot;,Roboto,Oxygen-Sans,Ubuntu,Cantarell,&quot;Helvetica Neue&quot;,sans-serif" font-size="12" fill="#999" color="#333" transform="translate(64.313 477.152)">2012</text><text class="axis-tick-label" text-anchor="middle" x="566.68" y="10" dy="1em" font-family="-apple-system,BlinkMacSystemFont,&quot;Segoe UI&quot;,Roboto,Oxygen-Sans,Ubuntu,Cantarell,&quot;Helvetica Neue&quot;,sans-serif" font-size="12" fill="#999" color="#333" transform="translate(64.313 477.152)">2014</text><text class="axis-tick-label" text-anchor="middle" x="620.607" y="10" dy="1em" font-family="-apple-system,BlinkMacSystemFont,&quot;Segoe UI&quot;,Roboto,Oxygen-Sans,Ubuntu,Cantarell,&quot;Helvetica Neue&quot;,sans-serif" font-size="12" fill="#999" color="#333" transform="translate(64.313 477.152)">2016</text><text class="axis-tick-label" text-anchor="middle" x="674.608" y="10" dy="1em" font-family="-apple-system,BlinkMacSystemFont,&quot;Segoe UI&quot;,Roboto,Oxygen-Sans,Ubuntu,Cantarell,&quot;Helvetica Neue&quot;,sans-serif" font-size="12" fill="#999" color="#333" transform="translate(64.313 477.152)">2018</text><text class="axis-tick-label" text-anchor="middle" x="728.536" y="10" dy="1em" font-family="-apple-system,BlinkMacSystemFont,&quot;Segoe UI&quot;,Roboto,Oxygen-Sans,Ubuntu,Cantarell,&quot;Helvetica Neue&quot;,sans-serif" font-size="12" fill="#999" color="#333" transform="translate(64.313 477.152)">2020</text></g><g class="axis-label"><path fill="none" font-family="-apple-system,BlinkMacSystemFont,&quot;Segoe UI&quot;,Roboto,Oxygen-Sans,Ubuntu,Cantarell,&quot;Helvetica Neue&quot;,sans-serif" font-size="14" color="#333" d="M64.313 501.152h1v16h-1z"/><text class="axis-label-label" x="369.844" y="16" dy="1em" text-anchor="middle" font-family="-apple-system,BlinkMacSystemFont,&quot;Segoe UI&quot;,Roboto,Oxygen-Sans,Ubuntu,Cantarell,&quot;Helvetica Neue&quot;,sans-serif" font-size="14" fill="#999" color="#333" transform="translate(64.313 501.152)">Time</text></g><g class="axis-tick-lines"><path class="axis-tick-line" font-family="-apple-system,BlinkMacSystemFont,&quot;Segoe UI&quot;,Roboto,Oxygen-Sans,Ubuntu,Cantarell,&quot;Helvetica Neue&quot;,sans-serif" font-size="16" stroke="#ddd" color="#333" d="M91.35 20v457.152M145.278 20v457.152M199.279 20v457.152M253.206 20v457.152M307.207 20v457.152M361.135 20v457.152M415.135 20v457.152M469.063 20v457.152M523.063 20v457.152M576.991 20v457.152M630.992 20v457.152M684.92 20v457.152M738.92 20v457.152M792.848 20v457.152"/></g></g><g class="y-axis axis"><text class="axis-label" x="-228.576" dy="1em" text-anchor="middle" transform="rotate(-90 10 10)" font-family="-apple-system,BlinkMacSystemFont,&quot;Segoe UI&quot;,Roboto,Oxygen-Sans,Ubuntu,Cantarell,&quot;Helvetica Neue&quot;,sans-serif" font-size="14" fill="#999" color="#333">Correlation</text><g class="axis-tick-labels"><text class="axis-tick-label" text-anchor="end" alignment-baseline="middle" x="-10" y="457.152" font-family="-apple-system,BlinkMacSystemFont,&quot;Segoe UI&quot;,Roboto,Oxygen-Sans,Ubuntu,Cantarell,&quot;Helvetica Neue&quot;,sans-serif" font-size="12" fill="#999" color="#333" transform="translate(64.313 20)">-1.0</text><text class="axis-tick-label" text-anchor="end" alignment-baseline="middle" x="-10" y="411.437" font-family="-apple-system,BlinkMacSystemFont,&quot;Segoe UI&quot;,Roboto,Oxygen-Sans,Ubuntu,Cantarell,&quot;Helvetica Neue&quot;,sans-serif" font-size="12" fill="#999" color="#333" transform="translate(64.313 20)">-0.8</text><text class="axis-tick-label" text-anchor="end" alignment-baseline="middle" x="-10" y="365.722" font-family="-apple-system,BlinkMacSystemFont,&quot;Segoe UI&quot;,Roboto,Oxygen-Sans,Ubuntu,Cantarell,&quot;Helvetica Neue&quot;,sans-serif" font-size="12" fill="#999" color="#333" transform="translate(64.313 20)">-0.6</text><text class="axis-tick-label" text-anchor="end" alignment-baseline="middle" x="-10" y="320.006" font-family="-apple-system,BlinkMacSystemFont,&quot;Segoe UI&quot;,Roboto,Oxygen-Sans,Ubuntu,Cantarell,&quot;Helvetica Neue&quot;,sans-serif" font-size="12" fill="#999" color="#333" transform="translate(64.313 20)">-0.4</text><text class="axis-tick-label" text-anchor="end" alignment-baseline="middle" x="-10" y="274.291" font-family="-apple-system,BlinkMacSystemFont,&quot;Segoe UI&quot;,Roboto,Oxygen-Sans,Ubuntu,Cantarell,&quot;Helvetica Neue&quot;,sans-serif" font-size="12" fill="#999" color="#333" transform="translate(64.313 20)">-0.2</text><text class="axis-tick-label" text-anchor="end" alignment-baseline="middle" x="-10" y="228.576" font-family="-apple-system,BlinkMacSystemFont,&quot;Segoe UI&quot;,Roboto,Oxygen-Sans,Ubuntu,Cantarell,&quot;Helvetica Neue&quot;,sans-serif" font-size="12" fill="#999" color="#333" transform="translate(64.313 20)">0.0</text><text class="axis-tick-label" text-anchor="end" alignment-baseline="middle" x="-10" y="182.861" font-family="-apple-system,BlinkMacSystemFont,&quot;Segoe UI&quot;,Roboto,Oxygen-Sans,Ubuntu,Cantarell,&quot;Helvetica Neue&quot;,sans-serif" font-size="12" fill="#999" color="#333" transform="translate(64.313 20)">0.2</text><text class="axis-tick-label" text-anchor="end" alignment-baseline="middle" x="-10" y="137.146" font-family="-apple-system,BlinkMacSystemFont,&quot;Segoe UI&quot;,Roboto,Oxygen-Sans,Ubuntu,Cantarell,&quot;Helvetica Neue&quot;,sans-serif" font-size="12" fill="#999" color="#333" transform="translate(64.313 20)">0.4</text><text class="axis-tick-label" text-anchor="end" alignment-baseline="middle" x="-10" y="91.43" font-family="-apple-system,BlinkMacSystemFont,&quot;Segoe UI&quot;,Roboto,Oxygen-Sans,Ubuntu,Cantarell,&quot;Helvetica Neue&quot;,sans-serif" font-size="12" fill="#999" color="#333" transform="translate(64.313 20)">0.6</text><text class="axis-tick-label" text-anchor="end" alignment-baseline="middle" x="-10" y="45.715" font-family="-apple-system,BlinkMacSystemFont,&quot;Segoe UI&quot;,Roboto,Oxygen-Sans,Ubuntu,Cantarell,&quot;Helvetica Neue&quot;,sans-serif" font-size="12" fill="#999" color="#333" transform="translate(64.313 20)">0.8</text><text class="axis-tick-label" text-anchor="end" alignment-baseline="middle" x="-10" font-family="-apple-system,BlinkMacSystemFont,&quot;Segoe UI&quot;,Roboto,Oxygen-Sans,Ubuntu,Cantarell,&quot;Helvetica Neue&quot;,sans-serif" font-size="12" fill="#999" color="#333" transform="translate(64.313 20)">1.0</text></g><path class="chart-new-axis-line" font-family="-apple-system,BlinkMacSystemFont,&quot;Segoe UI&quot;,Roboto,Oxygen-Sans,Ubuntu,Cantarell,&quot;Helvetica Neue&quot;,sans-serif" font-size="16" stroke="#ddd" color="#333" d="M64.313 20v457.152M804 20v457.152"/><g class="axis-tick-lines"><path class="axis-tick-line" font-family="-apple-system,BlinkMacSystemFont,&quot;Segoe UI&quot;,Roboto,Oxygen-Sans,Ubuntu,Cantarell,&quot;Helvetica Neue&quot;,sans-serif" font-size="16" stroke="#ddd" color="#333" d="M64.313 477.152H804M64.313 431.437H804M64.313 385.722H804M64.313 340.006H804M64.313 294.291H804M64.313 248.576H804M64.313 202.861H804M64.313 157.146H804M64.313 111.43H804M64.313 65.715H804M64.313 20H804"/></g></g><path d="M64.313 72.445c.763 5.134 1.526 10.267 2.29 14.098.689 3.46 1.379 8.257 2.068 8.257.762 0 1.525-2.596 2.287-4.305.739-1.657 1.477-3.159 2.216-5.742.764-2.668 1.527-6.611 2.29-10.148.739-3.423 1.478-7.431 2.216-10.702.764-3.38 1.527-6.242 2.29-9.193.764-2.95 1.527-5.914 2.29-8.509.74-2.515 1.48-5.558 2.22-6.864.763-1.347 1.527-1.415 2.29-2.02.739-.586 1.477-1.139 2.216-1.565.763-.441 1.527-1.018 2.29-1.018.764 0 1.527 2.236 2.29 2.236.69 0 1.38-2.607 2.069-3.66.762-1.165 1.524-2.05 2.287-2.88.738-.804 1.477-1.57 2.216-2.047.763-.493 1.527-.615 2.29-.821.739-.2 1.477-.313 2.216-.41.763-.1 1.527-.111 2.29-.174.764-.064 1.527-.132 2.29-.207.74-.072 1.48-.173 2.22-.232.763-.06 1.526-.124 2.29-.124.738 0 1.477.006 2.216.006.763 0 1.526-.06 2.29-.06.763 0 1.527.503 2.29.747.69.22 1.379.458 2.068.65.763.211 1.525.277 2.287.544.739.26 1.478.64 2.216 1.018.764.391 1.527 1.075 2.29 1.3.74.217 1.478.155 2.217.326.763.175 1.526.341 2.29.724.763.383 1.527.953 2.29 1.573.74.6 1.48 1.052 2.22 2.07.762 1.05 1.526 3.054 2.29 4.196.738 1.106 1.477 1.387 2.215 2.597.764 1.25 1.527 2.666 2.29 4.855.764 2.188 1.527 6.15 2.29 8.275.715 1.986 1.429 2.92 2.143 4.294.763 1.47 1.527 2.93 2.29 4.211.738 1.24 1.475 3.376 2.213 3.376.763 0 1.527-.042 2.29-.128.739-.082 1.478-.744 2.216-1.197.764-.467 1.527-1.208 2.29-1.573.764-.365 1.527-.206 2.29-.618.74-.4 1.478-1.884 2.217-2.869.764-1.019 1.528-1.84 2.293-3.149.738-1.264 1.477-2.934 2.216-4.519.763-1.637 1.527-2.632 2.29-5.165.763-2.533 1.527-7.51 2.29-10.033.69-2.279 1.379-3.458 2.068-4.825.763-1.51 1.525-2.703 2.287-3.648.74-.915 1.478-1.482 2.217-1.98.763-.516 1.526-.586 2.29-1.027.738-.427 1.477-1.558 2.216-1.558l2.29.003c.763 0 1.527-.375 2.29-.58.739-.198 1.478-.443 2.216-.628.765-.191 1.529-.495 2.293-.495.74 0 1.478 1.037 2.217 1.49.763.468 1.526.701 2.29 1.263.763.561 1.526.92 2.29 2.106.69 1.07 1.379 3.044 2.068 4.393.762 1.491 1.525 2.582 2.287 4.05.739 1.422 1.478 2.772 2.216 4.596.764 1.886 1.527 4.25 2.29 6.595.74 2.27 1.478 4.413 2.217 7.223.763 2.904 1.526 5.941 2.29 10.002.763 4.06 1.526 9.598 2.29 14.36.738 4.609 1.477 9.536 2.216 13.755.764 4.365 1.529 7.72 2.293 11.922.739 4.06 1.477 8.422 2.216 12.817.764 4.542 1.527 8.707 2.29 14.019.764 5.311 1.527 11.706 2.29 17.85.69 5.55 1.38 11.806 2.069 17.125.762 5.88 1.524 11.066 2.287 16.212.739 4.987 1.477 13.74 2.216 14.235.763.51 1.527.255 2.29.766.739.494 1.478 2.63 2.216 3.083.764.47 1.527.235 2.29.704.764.469 1.527 8.342 2.29 12.6.74 4.122 1.478 8.155 2.217 12.53a835.85 835.85 0 012.29 14.2c.74 4.882 1.48 15.509 2.219 15.509.763 0 1.527-.258 2.29-.774.763-.516 1.527-7.75 2.29-12.902.714-4.82 1.428-11.694 2.142-16.695.763-5.337 1.525-8.414 2.287-14.083.739-5.493 1.478-12.149 2.217-19.224.763-7.312 1.526-17.038 2.29-24.074.738-6.81 1.477-11.603 2.216-17.652.763-6.25 1.526-11.918 2.29-19.28.763-7.362 1.527-16.42 2.29-24.89.739-8.198 1.477-17.798 2.216-25.081.764-7.537 1.529-14.856 2.293-19.151.739-4.15 1.478-4.967 2.216-6.599.764-1.686 1.527-2.884 2.29-3.242.764-.358 1.527-.537 2.29-.537.69 0 1.38.217 2.069.653.762.48 1.525 2.409 2.287 3.625.739 1.179 1.477 2.61 2.216 3.558.764.981 1.527 1.276 2.29 2.185.739.88 1.478 1.674 2.216 3.15.764 1.524 1.527 3.783 2.29 5.938.764 2.154 1.527 3.198 2.29 6.987.74 3.666 1.478 9.888 2.217 15.102.764 5.395 1.528 11.122 2.293 16.762.739 5.45 1.477 11.224 2.216 16.496.763 5.449 1.527 9.8 2.29 15.62.763 5.82 1.527 12.06 2.29 19.304.69 6.542 1.38 14.257 2.069 21.606.763 8.136 1.526 17.227 2.29 24.948.737 7.462 1.475 14.338 2.213 20.72.763 6.604 1.527 11.42 2.29 18.125.739 6.487 1.477 15.669 2.216 21.323.763 5.842 1.527 8.906 2.29 12.869.763 3.962 1.527 7.828 2.29 10.903.739 2.976 1.478 5.696 2.216 7.357.765 1.72 1.53 2.617 2.294 2.617.738 0 1.477-2.49 2.216-4.45.763-2.026 1.526-2.535 2.29-7.604.763-5.07 1.526-14.901 2.29-24.36.69-8.545 1.379-19.235 2.068-28.91.763-10.698 1.525-20.84 2.287-32.234.739-11.041 1.478-25.077 2.216-34.951.764-10.204 1.527-15.755 2.29-24.925.74-8.874 1.478-20.571 2.217-29.044.763-8.755 1.526-17.076 2.29-22.393.763-5.318 1.526-8.808 2.29-9.51.739-.68 1.477-.769 2.216-1.02.764-.262 1.529-.168 2.293-.502.739-.323 1.478-3.004 2.216-3.756.764-.778 1.527-1.167 2.29-1.167.764 0 1.527.076 2.29.226.715.141 1.429 3.433 2.143 6.164.762 2.915 1.524 6.771 2.287 11.057.739 4.153 1.477 13.939 2.216 14.15.763.218 1.527.11 2.29.328.739.211 1.478 4.774 2.216 7.635.764 2.957 1.527 7.337 2.29 9.88.764 2.545 1.527 3.313 2.29 5.384.74 2.005 1.478 6.791 2.217 6.791.763 0 1.526-.12 2.29-.36.74-.234 1.48-1.085 2.219-2.216.763-1.168 1.527-2.982 2.29-4.759.763-1.776 1.527-3.025 2.29-5.898.69-2.595 1.379-6.227 2.068-10.006.763-4.179 1.525-8.136 2.287-14.162.74-5.839 1.478-14.935 2.217-21.194.763-6.469 1.526-10.644 2.29-16.826.738-5.984 1.477-15.104 2.216-19.564.763-4.608 1.527-5.411 2.29-7.224.763-1.812 1.527-2.586 2.29-3.651.739-1.031 1.477-2.023 2.216-2.665.765-.663 1.529-.791 2.293-1.197.74-.392 1.478-.671 2.217-1.195.763-.54 1.526-1.689 2.29-2.024.763-.334 1.526-.325 2.29-.502.69-.16 1.379-.324 2.068-.5.762-.197 1.525-.42 2.287-.625.739-.199 1.478-.545 2.216-.59.764-.047 1.527-.07 2.29-.07.74 0 1.478.018 2.217.053.763.035 1.526.055 2.29.16.763.105 1.526.362 2.29.468.738.103 1.477.119 2.216.17.764.051 1.529.137 2.293.137.739 0 1.477-.157 2.216-.157.764 0 1.527.304 2.29.403.764.1 1.527.13 2.29.192.69.056 1.38.054 2.069.162.762.12 1.524.5 2.287.626.738.122 1.477.183 2.216.183.763 0 1.527-.292 2.29-.369a22.046 22.046 0 012.216-.112c.764 0 1.527.382 2.29.663.764.282 1.527.764 2.29 1.026.74.253 1.478.336 2.217.532.764.203 1.528.419 2.293.668.738.24 1.477.5 2.216.796.763.304 1.527.577 2.29 1.01.763.432 1.527 1.115 2.29 1.586.714.44 1.428.762 2.142 1.17.763.434 1.525.83 2.287 1.362.739.514 1.478 1.198 2.216 1.76.764.58 1.527 1.064 2.29 1.659.74.575 1.478 1.842 2.217 1.842.763 0 1.526-.233 2.29-.358.763-.125 1.527-.394 2.29-.394.739 0 1.477.04 2.216.053.764.013 1.529.023 2.293.023.739 0 1.478-1.873 2.216-3.003.764-1.167 1.527-2.874 2.29-3.915.764-1.04 1.527-1.605 2.29-2.33.69-.654 1.38-1.297 2.069-1.837.762-.598 1.525-1.12 2.287-1.526.739-.393 1.477-.639 2.216-.893a20.103 20.103 0 012.29-.648c.739-.16 1.478-.24 2.216-.335a46.468 46.468 0 012.29-.236c.764-.06 1.527-.085 2.29-.12.74-.033 1.478-.064 2.217-.085a121.49 121.49 0 012.293-.04c.739-.006 1.477-.003 2.216-.01.763-.007 1.527-.1 2.29-.131.763-.032 1.527-.02 2.29-.06.69-.036 1.38-.133 2.069-.298.762-.181 1.524-.542 2.287-.784.738-.235 1.477-.495 2.216-.651.763-.161 1.526-.216 2.29-.288.739-.07 1.477-.141 2.216-.141.763 0 1.527.13 2.29.181.763.05 1.527.05 2.29.122.739.07 1.478.19 2.216.293.764.106 1.527.201 2.29.335.74.13 1.48.336 2.22.454a32.92 32.92 0 002.29.255c.763.067 1.526.1 2.29.146.69.042 1.379.08 2.068.117.763.041 1.525.118 2.287.118.739 0 1.478-.256 2.216-.36.764-.108 1.527-.227 2.29-.274.74-.046 1.478-.041 2.217-.07.763-.028 1.526-.05 2.29-.101.763-.052 1.526-.204 2.29-.204.739 0 1.477.34 2.216.34.764 0 1.529-.66 2.293-.66.739 0 1.478.046 2.216.062.764.017 1.527.017 2.29.038.764.02 1.527.05 2.29.088.715.036 1.429.046 2.143.132.762.09 1.524.252 2.287.416.739.16 1.477.418 2.216.551.763.137 1.527.083 2.29.25.739.16 1.477.5 2.216.729.764.236 1.527.479 2.29.66.764.183 1.527.391 2.29.431.74.038 1.478.055 2.217.058.764.002 1.528 0 2.293.003.738.003 1.477.175 2.216.272.763.1 1.527.234 2.29.32.763.085 1.527.142 2.29.195.69.048 1.379.114 2.068.114.764 0 1.527-.181 2.29-.457.738-.267 1.476-.819 2.214-1.15.763-.34 1.526-.855 2.29-.855.738 0 1.477.333 2.216.471.763.143 1.527.123 2.29.37.763.246 1.527 1.202 2.29 1.886.739.662 1.477 1.462 2.216 2.139.765.7 1.529 1.342 2.293 1.98.74.618 1.478.761 2.217 1.792.763 1.066 1.526 3.068 2.29 4.585.763 1.517 1.526 3.493 2.29 4.518.69.925 1.379 1.127 2.068 1.598.762.521 1.525.885 2.287 1.338.739.44 1.478 1.116 2.216 1.338.764.23 1.527.344 2.29.344.74 0 1.478-.603 2.217-.846.763-.251 1.526-.372 2.29-.627.763-.255 1.526-.747 2.29-.905a10.938 10.938 0 012.216-.228c.764 0 1.529 1.076 2.293 1.076.739 0 1.477-.416 2.216-.809.764-.406 1.527-1.122 2.29-1.613.764-.49 1.527-1.329 2.29-1.329.69 0 1.38.592 2.069.592.762 0 1.524-2.239 2.287-3.225.738-.956 1.477-1.948 2.216-2.619.763-.693 1.527-1 2.29-1.43.739-.416 1.477-.917 2.216-1.114.764-.205 1.527-.103 2.29-.307.764-.204 1.527-1.037 2.29-1.168.739-.126 1.478-.19 2.216-.19.765 0 1.53.145 2.294.145.738 0 1.477-.345 2.216-.544.763-.205 1.527-.448 2.29-.67.763-.223 1.527-.665 2.29-.665h2.142c.763 0 1.525-.308 2.287-.44.739-.128 1.478-.114 2.216-.342.764-.235 1.527-1.592 2.29-1.912a5.688 5.688 0 012.217-.465c.763 0 1.526.154 2.29.288.763.134 1.526.382 2.29.517.739.131 1.477.264 2.216.29.764.026 1.529.012 2.293.039.739.026 1.478.072 2.216.216.764.15 1.527.952 2.29 1.427.764.474 1.527.679 2.29 1.42.69.67 1.38 1.885 2.069 2.663.762.86 1.525 1.204 2.287 2.179.739.944 1.477 2.317 2.216 3.531.763 1.254 1.527 2.366 2.29 3.88.739 1.467 1.478 3.346 2.216 5.022.764 1.732 1.527 3.068 2.29 5.203.764 2.135 1.527 4.95 2.29 7.606.74 2.57 1.478 5.205 2.217 8.052.764 2.945 1.528 5.515 2.293 9.359.739 3.715 1.477 8.914 2.216 13.174.763 4.401 1.527 8.547 2.29 12.783.763 4.235 1.527 8.434 2.29 12.628.69 3.788 1.38 6.408 2.069 11.326.762 5.437 1.524 15.86 2.287 20.5.738 4.494 1.477 5.093 2.216 7.302.763 2.283 1.526 6.128 2.29 6.128.739 0 1.477-2.903 2.216-3.814.763-.942 1.527-.557 2.29-1.67.763-1.112 1.527-5.746 2.29-5.746.739 0 1.478.587 2.216 1.76.765 1.212 1.53 9.417 2.293 10.96.74 1.492 1.478 2.237 2.217 2.237.763 0 1.526-5.89 2.29-5.89.763 0 1.526 2.984 2.29 5.561.69 2.328 1.379 6.24 2.068 8.754.764 2.784 1.527 6.868 2.29 6.868.738 0 1.476-8.78 2.213-12.88.764-4.245 1.527-8.87 2.29-12.115.74-3.14 1.478-2.929 2.217-7.191.763-4.404 1.526-11.225 2.29-19.188.763-7.963 1.526-20.5 2.29-28.59.739-7.829 1.477-13.532 2.216-19.443.764-6.115 1.529-12.169 2.293-16.512.739-4.197 1.478-6.66 2.216-9.338.764-2.765 1.527-4.857 2.29-6.9a61.368 61.368 0 012.29-5.364c.715-1.474 1.429-2.798 2.143-3.86.762-1.135 1.524-2.639 2.287-2.639.738 0 1.477 1.677 2.216 3.76.763 2.153 1.527 5.634 2.29 9.116" font-family="-apple-system,BlinkMacSystemFont,&quot;Segoe UI&quot;,Roboto,Oxygen-Sans,Ubuntu,Cantarell,&quot;Helvetica Neue&quot;,sans-serif" font-size="16" fill="none" stroke="#4285f4" stroke-width="2" color="#333"/></svg>