<svg xmlns="http://www.w3.org/2000/svg" class="chart-svg" viewBox="0 0 667 444.6666666666667"><g class="chart" transform="translate(70, 20)"><g class="x axis" transform="translate(0, 369.6666666666667)" fill="none" font-size="10" font-family="sans-serif" text-anchor="middle"><path class="domain" stroke="currentColor" d="M0.5,-369.6666666666667V0.5H577.5V-369.6666666666667" style="font-family: sans-serif; font-size: 10px; fill: none; stroke: rgb(221, 221, 221); color: rgb(51, 51, 51); text-anchor: middle"/><g class="tick" opacity="1" transform="translate(33.63701376983237,0)"><line stroke="currentColor" y2="-369.6666666666667" style="font-family: sans-serif; font-size: 10px; fill: none; stroke: rgb(221, 221, 221); color: rgb(51, 51, 51); text-anchor: middle"/><text fill="currentColor" y="10" dy="0.71em" style="font-family: sans-serif; font-size: 12px; fill: rgb(153, 153, 153); stroke: none; color: rgb(153, 153, 153); text-anchor: middle">2002</text></g><g class="tick" opacity="1" transform="translate(94.87757086344664,0)"><line stroke="currentColor" y2="-369.6666666666667" style="font-family: sans-serif; font-size: 10px; fill: none; stroke: rgb(221, 221, 221); color: rgb(51, 51, 51); text-anchor: middle"/><text fill="currentColor" y="10" dy="0.71em" style="font-family: sans-serif; font-size: 12px; fill: rgb(153, 153, 153); stroke: none; color: rgb(153, 153, 153); text-anchor: middle">2004</text></g><g class="tick" opacity="1" transform="translate(156.20201913116173,0)"><line stroke="currentColor" y2="-369.6666666666667" style="font-family: sans-serif; font-size: 10px; fill: none; stroke: rgb(221, 221, 221); color: rgb(51, 51, 51); text-anchor: middle"/><text fill="currentColor" y="10" dy="0.71em" style="font-family: sans-serif; font-size: 12px; fill: rgb(153, 153, 153); stroke: none; color: rgb(153, 153, 153); text-anchor: middle">2006</text></g><g class="tick" opacity="1" transform="translate(217.442576224776,0)"><line stroke="currentColor" y2="-369.6666666666667" style="font-family: sans-serif; font-size: 10px; fill: none; stroke: rgb(221, 221, 221); color: rgb(51, 51, 51); text-anchor: middle"/><text fill="currentColor" y="10" dy="0.71em" style="font-family: sans-serif; font-size: 12px; fill: rgb(153, 153, 153); stroke: none; color: rgb(153, 153, 153); text-anchor: middle">2008</text></g><g class="tick" opacity="1" transform="translate(278.7670244924911,0)"><line stroke="currentColor" y2="-369.6666666666667" style="font-family: sans-serif; font-size: 10px; fill: none; stroke: rgb(221, 221, 221); color: rgb(51, 51, 51); text-anchor: middle"/><text fill="currentColor" y="10" dy="0.71em" style="font-family: sans-serif; font-size: 12px; fill: rgb(153, 153, 153); stroke: none; color: rgb(153, 153, 153); text-anchor: middle">2010</text></g><g class="tick" opacity="1" transform="translate(340.0075815861054,0)"><line stroke="currentColor" y2="-369.6666666666667" style="font-family: sans-serif; font-size: 10px; fill: none; stroke: rgb(221, 221, 221); color: rgb(51, 51, 51); text-anchor: middle"/><text fill="currentColor" y="10" dy="0.71em" style="font-family: sans-serif; font-size: 12px; fill: rgb(153, 153, 153); stroke: none; color: rgb(153, 153, 153); text-anchor: middle">2012</text></g><g class="tick" opacity="1" transform="translate(401.3320298538205,0)"><line stroke="currentColor" y2="-369.6666666666667" style="font-family: sans-serif; font-size: 10px; fill: none; stroke: rgb(221, 221, 221); color: rgb(51, 51, 51); text-anchor: middle"/><text fill="currentColor" y="10" dy="0.71em" style="font-family: sans-serif; font-size: 12px; fill: rgb(153, 153, 153); stroke: none; color: rgb(153, 153, 153); text-anchor: middle">2014</text></g><g class="tick" opacity="1" transform="translate(462.5725869474348,0)"><line stroke="currentColor" y2="-369.6666666666667" style="font-family: sans-serif; font-size: 10px; fill: none; stroke: rgb(221, 221, 221); color: rgb(51, 51, 51); text-anchor: middle"/><text fill="currentColor" y="10" dy="0.71em" style="font-family: sans-serif; font-size: 12px; fill: rgb(153, 153, 153); stroke: none; color: rgb(153, 153, 153); text-anchor: middle">2016</text></g><g class="tick" opacity="1" transform="translate(523.8970352151498,0)"><line stroke="currentColor" y2="-369.6666666666667" style="font-family: sans-serif; font-size: 10px; fill: none; stroke: rgb(221, 221, 221); color: rgb(51, 51, 51); text-anchor: middle"/><text fill="currentColor" y="10" dy="0.71em" style="font-family: sans-serif; font-size: 12px; fill: rgb(153, 153, 153); stroke: none; color: rgb(153, 153, 153); text-anchor: middle">2018</text></g></g><g class="y axis" fill="none" font-size="10" font-family="sans-serif" text-anchor="end"><path class="domain" stroke="currentColor" d="M577,370.1666666666667H0.5V0.5H577" style="font-family: sans-serif; font-size: 10px; fill: none; stroke: rgb(221, 221, 221); color: rgb(51, 51, 51); text-anchor: end"/><g class="tick" opacity="1" transform="translate(0,341.73076923076934)"><line stroke="currentColor" x2="577" style="font-family: sans-serif; font-size: 10px; fill: none; stroke: rgb(221, 221, 221); color: rgb(51, 51, 51); text-anchor: end"/><text fill="currentColor" x="-10" dy="0.32em" style="font-family: sans-serif; font-size: 12px; fill: rgb(153, 153, 153); stroke: none; color: rgb(153, 153, 153); text-anchor: end">-6.0%</text></g><g class="tick" opacity="1" transform="translate(0,313.29487179487194)"><line stroke="currentColor" x2="577" style="font-family: sans-serif; font-size: 10px; fill: none; stroke: rgb(221, 221, 221); color: rgb(51, 51, 51); text-anchor: end"/><text fill="currentColor" x="-10" dy="0.32em" style="font-family: sans-serif; font-size: 12px; fill: rgb(153, 153, 153); stroke: none; color: rgb(153, 153, 153); text-anchor: end">-5.5%</text></g><g class="tick" opacity="1" transform="translate(0,284.85897435897454)"><line stroke="currentColor" x2="577" style="font-family: sans-serif; font-size: 10px; fill: none; stroke: rgb(221, 221, 221); color: rgb(51, 51, 51); text-anchor: end"/><text fill="currentColor" x="-10" dy="0.32em" style="font-family: sans-serif; font-size: 12px; fill: rgb(153, 153, 153); stroke: none; color: rgb(153, 153, 153); text-anchor: end">-5.0%</text></g><g class="tick" opacity="1" transform="translate(0,256.423076923077)"><line stroke="currentColor" x2="577" style="font-family: sans-serif; font-size: 10px; fill: none; stroke: rgb(221, 221, 221); color: rgb(51, 51, 51); text-anchor: end"/><text fill="currentColor" x="-10" dy="0.32em" style="font-family: sans-serif; font-size: 12px; fill: rgb(153, 153, 153); stroke: none; color: rgb(153, 153, 153); text-anchor: end">-4.5%</text></g><g class="tick" opacity="1" transform="translate(0,227.9871794871796)"><line stroke="currentColor" x2="577" style="font-family: sans-serif; font-size: 10px; fill: none; stroke: rgb(221, 221, 221); color: rgb(51, 51, 51); text-anchor: end"/><text fill="currentColor" x="-10" dy="0.32em" style="font-family: sans-serif; font-size: 12px; fill: rgb(153, 153, 153); stroke: none; color: rgb(153, 153, 153); text-anchor: end">-4.0%</text></g><g class="tick" opacity="1" transform="translate(0,199.5512820512822)"><line stroke="currentColor" x2="577" style="font-family: sans-serif; font-size: 10px; fill: none; stroke: rgb(221, 221, 221); color: rgb(51, 51, 51); text-anchor: end"/><text fill="currentColor" x="-10" dy="0.32em" style="font-family: sans-serif; font-size: 12px; fill: rgb(153, 153, 153); stroke: none; color: rgb(153, 153, 153); text-anchor: end">-3.5%</text></g><g class="tick" opacity="1" transform="translate(0,171.11538461538467)"><line stroke="currentColor" x2="577" style="font-family: sans-serif; font-size: 10px; fill: none; stroke: rgb(221, 221, 221); color: rgb(51, 51, 51); text-anchor: end"/><text fill="currentColor" x="-10" dy="0.32em" style="font-family: sans-serif; font-size: 12px; fill: rgb(153, 153, 153); stroke: none; color: rgb(153, 153, 153); text-anchor: end">-3.0%</text></g><g class="tick" opacity="1" transform="translate(0,142.67948717948727)"><line stroke="currentColor" x2="577" style="font-family: sans-serif; font-size: 10px; fill: none; stroke: rgb(221, 221, 221); color: rgb(51, 51, 51); text-anchor: end"/><text fill="currentColor" x="-10" dy="0.32em" style="font-family: sans-serif; font-size: 12px; fill: rgb(153, 153, 153); stroke: none; color: rgb(153, 153, 153); text-anchor: end">-2.5%</text></g><g class="tick" opacity="1" transform="translate(0,114.2435897435898)"><line stroke="currentColor" x2="577" style="font-family: sans-serif; font-size: 10px; fill: none; stroke: rgb(221, 221, 221); color: rgb(51, 51, 51); text-anchor: end"/><text fill="currentColor" x="-10" dy="0.32em" style="font-family: sans-serif; font-size: 12px; fill: rgb(153, 153, 153); stroke: none; color: rgb(153, 153, 153); text-anchor: end">-2.0%</text></g><g class="tick" opacity="1" transform="translate(0,85.80769230769234)"><line stroke="currentColor" x2="577" style="font-family: sans-serif; font-size: 10px; fill: none; stroke: rgb(221, 221, 221); color: rgb(51, 51, 51); text-anchor: end"/><text fill="currentColor" x="-10" dy="0.32em" style="font-family: sans-serif; font-size: 12px; fill: rgb(153, 153, 153); stroke: none; color: rgb(153, 153, 153); text-anchor: end">-1.5%</text></g><g class="tick" opacity="1" transform="translate(0,57.37179487179492)"><line stroke="currentColor" x2="577" style="font-family: sans-serif; font-size: 10px; fill: none; stroke: rgb(221, 221, 221); color: rgb(51, 51, 51); text-anchor: end"/><text fill="currentColor" x="-10" dy="0.32em" style="font-family: sans-serif; font-size: 12px; fill: rgb(153, 153, 153); stroke: none; color: rgb(153, 153, 153); text-anchor: end">-1.0%</text></g><g class="tick" opacity="1" transform="translate(0,28.93589743589742)"><line stroke="currentColor" x2="577" style="font-family: sans-serif; font-size: 10px; fill: none; stroke: rgb(221, 221, 221); color: rgb(51, 51, 51); text-anchor: end"/><text fill="currentColor" x="-10" dy="0.32em" style="font-family: sans-serif; font-size: 12px; fill: rgb(153, 153, 153); stroke: none; color: rgb(153, 153, 153); text-anchor: end">-0.5%</text></g><g class="tick" opacity="1" transform="translate(0,0.5)"><line stroke="currentColor" x2="577" style="font-family: sans-serif; font-size: 10px; fill: none; stroke: rgb(221, 221, 221); color: rgb(51, 51, 51); text-anchor: end"/><text fill="currentColor" x="-10" dy="0.32em" style="font-family: sans-serif; font-size: 12px; fill: rgb(153, 153, 153); stroke: none; color: rgb(153, 153, 153); text-anchor: end">0.0%</text></g></g><path fill="none" stroke="#4285F4" stroke-width="2" class="line" d="M0,0C0.866875465708695,0,1.73375093141739,0,2.600626397126085,0C3.46750186283478,0,4.334377328543475,0,5.20125279425217,0C5.984237085860024,0,6.7672213774678776,0,7.550205669075732,0C8.415915979588581,0,9.281626290101432,50.34756629653203,10.147336600614281,50.34756629653203C10.986248341622696,50.34756629653203,11.82516008263111,31.984200963395416,12.664071823639524,23.71032802109318C13.53094728934822,15.160659314047532,14.397822755056916,0,15.264698220765611,0C16.103609961774026,0,16.94252170278244,0,17.781433443790853,0C18.648308909499548,0,19.515184375208243,0,20.382059840916938,0C21.248935306625633,0,22.115810772334328,0,22.982686238043023,0C23.821597979051436,0,24.660509720059853,0,25.499421461068266,0C26.367462081972807,0,27.235502702877348,35.026287217083144,28.10354332378189,49.37913911905718C28.942455064790302,63.2503516954616,29.78136680579872,85.08927621069697,30.620278546807132,85.08927621069697C31.487154012515827,85.08927621069697,32.35402947822452,78.19173669593651,33.22090494393321,72.03337077396995C34.08778040964191,65.87500485200339,34.9546558753506,48.139080678897585,35.8215313410593,48.139080678897585C36.60451563266715,48.139080678897585,37.38749992427501,95.91074506055331,38.170484215882865,95.91074506055331C39.03735968159156,95.91074506055331,39.904235147300255,37.69727715750713,40.77111061300895,23.9141037284374C41.60885719882152,10.594074567817586,42.44660378463409,6.468638061896587,43.28435037044666,3.9340599875076783C44.151225836155355,1.311353329169226,45.01810130186405,0,45.884976767572745,0C46.72388850858116,0,47.56280024958957,0,48.40171199059799,0C49.26858745630668,0,50.13546292201538,0,51.00233838772407,0C51.86921385343277,0,52.73608931914146,0,53.60296478485016,0C54.441876525858575,0,55.280788266866985,13.0978208886483,56.1197000078754,13.0978208886483C56.98774062877994,13.0978208886483,57.85578124968448,11.933911563752755,58.72382187058902,9.67620040570253C59.56273361159744,7.494251367049964,60.40164535260585,0,61.240557093614264,0C62.10743255932296,0,62.974308025031654,0,63.84118349074035,0C64.70805895644904,0,65.57493442215774,0,66.44180988786643,0C67.22479417947429,0,68.00777847108213,5.041151492198078,68.79076276269,5.041151492198078C69.65763822839868,5.041151492198078,70.52451369410738,0,71.39138915981607,0C72.22913574562864,0,73.06688233144122,0,73.90462891725379,0C74.77150438296249,0,75.63837984867118,9.086640820581898,76.50525531437988,27.2599224617457C77.3441670553883,44.84696921125895,78.1830787963967,115.59224615821904,79.02199053740512,128.6941950926146C79.88886600311382,142.23287565815673,80.7557414688225,149.0022159409278,81.62261693453121,149.0022159409278C82.4894924002399,149.0022159409278,83.3563678659486,68.18083532200617,84.22324333165729,68.18083532200617C85.0621550726657,68.18083532200617,85.90106681367412,123.42523816485206,86.73997855468254,123.42523816485206C87.60801917558707,123.42523816485206,88.47605979649161,119.88616738964821,89.34410041739615,112.80802583924051C90.18301215840457,105.96740581736995,91.02192389941298,77.06367604985489,91.8608356404214,63.156509189973356C92.72771110613009,48.78577010142918,93.59458657183879,39.037871725899905,94.46146203754748,28.511786860904373C95.32833750325618,17.98570199590878,96.19521296896487,0,97.06208843467357,0C97.8730364509817,0,98.68398446728983,0,99.49493248359796,0C100.36180794930667,0,101.22868341501535,67.10986951045159,102.09555888072406,72.09888500938042C102.93330546653662,76.92025885847964,103.77105205234919,79.33094578302925,104.60879863816176,79.33094578302925C105.47567410387046,79.33094578302925,106.34254956957915,78.3941654977373,107.20942503528785,76.52060492715341C108.04833677629627,74.70748179433029,108.88724851730468,57.02362630024707,109.7261602583131,44.54004466612739C110.59303572402179,31.640343644203803,111.45991118973049,0,112.32678665543918,0C113.19366212114788,0,114.06053758685657,0,114.92741305256527,0C115.76632479357369,0,116.60523653458209,0,117.4441482755905,0C118.31218889649504,0,119.1802295173996,0,120.04827013830413,0C120.88718187931255,0,121.72609362032095,0,122.56500536132937,0C123.43188082703807,0,124.29875629274676,0,125.16563175845546,0C126.03250722416415,0,126.89938268987285,32.17189557163309,127.76625815558154,32.17189557163309C128.54924244718939,32.17189557163309,129.33222673879726,11.207631111800945,130.1152110304051,6.995367069781769C130.9820864961138,2.3317890232605896,131.84896196182248,0,132.71583742753117,0C133.55358401334374,0,134.39133059915633,0,135.2290771849689,0C136.0959526506776,0,136.96282811638628,0,137.82970358209496,0C138.66861532310338,0,139.5075270641118,39.375873532498346,140.34643880512021,39.375873532498346C141.2133142708289,39.375873532498346,142.08018973653762,0,142.9470652022463,0C143.813940667955,0,144.6808161336637,17.461657041674417,145.5476915993724,29.663219385928404C146.38660334038082,41.47118294488374,147.2255150813892,71.58796425858012,148.06442682239762,71.58796425858012C148.93246744330216,71.58796425858012,149.8005080642067,63.994812640718855,150.66854868511123,53.961777296901026C151.50746042611965,44.26542099146618,152.3463721671281,13.222852525866916,153.1852839081365,13.222852525866916C154.0521593738452,13.222852525866916,154.9190348395539,39.05359361287386,155.78591030526258,39.05359361287386C156.65278577097126,39.05359361287386,157.51966123667998,38.5558533559904,158.38653670238867,38.5558533559904C159.1695209939965,38.5558533559904,159.95250528560436,84.1762288905577,160.7354895772122,100.37911098636766C161.60236504292092,118.31801616387197,162.4692405086296,137.99781440080278,163.33611597433833,137.99781440080278C164.1738625601509,137.99781440080278,165.01160914596346,124.29049759876229,165.84935573177603,124.29049759876229C166.71623119748472,124.29049759876229,167.5831066631934,133.9126316441653,168.4499821289021,133.9126316441653C169.2888938699105,133.9126316441653,170.12780561091895,106.65263647886529,170.96671735192737,86.40453333488357C171.83359281763606,65.48149341943625,172.70046828334475,15.83680248297851,173.56734374905344,9.502081489787146C174.43421921476212,3.167360496595715,175.30109468047084,0,176.16797014617953,0C177.00688188718794,0,177.84579362819633,0,178.68470536920475,0C179.5527459901093,0,180.42078661101385,0,181.2888272319184,0C182.1277389729268,0,182.96665071393522,31.179800777402992,183.80556245494364,40.18544728471531C184.67243792065233,49.49128200893794,185.53931338636102,54.14419937104925,186.4061888520697,54.14419937104925C187.2730643177784,54.14419937104925,188.1399397834871,0,189.0068152491958,0C189.78979954080364,0,190.57278383241152,13.192354916109952,191.35576812401936,13.192354916109952C192.2214784345322,13.192354916109952,193.08718874504507,7.000692608910414,193.9528990555579,7.000692608910414C194.79181079656632,7.000692608910414,195.63072253757474,44.48336855705013,196.46963427858316,57.23455492532822C197.33650974429185,70.41078083921543,198.20338521000053,83.97093112662152,199.07026067570922,83.97093112662152C199.90917241671764,83.97093112662152,200.74808415772608,14.596258056082217,201.5869958987345,8.872235288991074C202.4538713644432,2.957411762997025,203.32074683015188,0,204.18762229586056,0C205.05449776156925,0,205.92137322727797,0,206.78824869298666,0C207.62716043399507,0,208.46607217500346,0,209.30498391601188,0C210.1718593817206,0,211.03873484742928,0,211.905610313138,0C212.74568720934226,0,213.5857641055465,0,214.42584100175077,0C215.29271646745946,0,216.15959193316814,0,217.02646739887683,0C217.89334286458552,0,218.76021833029424,0,219.62709379600292,0C220.43804181231107,0,221.2489898286192,0,222.05993784492733,0C222.92564815544017,0,223.79135846595304,41.269567869203314,224.65706877646588,61.63699895473499C225.4959805174743,81.37394428660967,226.3348922584827,120.34572112728218,227.17380399949113,120.34572112728218C228.04067946519982,120.34572112728218,228.90755493090853,119.04206293669726,229.77443039661722,116.43474655552743C230.61334213762564,113.91153715439533,231.45225387863405,62.89498120455141,232.29116561964247,43.64031306727691C233.15804108535116,23.743822658760138,234.02491655105985,0,234.89179201676853,0C235.75866748247722,0,236.62554294818594,0,237.49241841389463,0C238.33133015490304,0,239.17024189591146,0,240.00915363691988,0C240.87602910262856,0,241.74290456833728,0,242.60978003404597,0C243.44985693025023,0,244.28993382645447,0,245.13001072265874,0C245.99688618836743,0,246.86376165407611,93.45709087116221,247.7306371197848,93.45709087116221C248.59751258549352,93.45709087116221,249.4643880512022,87.04014656366878,250.33126351691092,74.20625794868195C251.11424780851877,62.614358554500555,251.89723210012662,15.743012787034381,252.68021639173446,15.743012787034381C253.5459267022473,15.743012787034381,254.41163701276017,27.295773950695704,255.277347323273,39.91972449878676C256.1162590642814,52.152893266788794,256.9551708052898,89.47961193022664,257.7940825462982,89.47961193022664C258.6609580120069,89.47961193022664,259.52783347771566,59.35188649552916,260.39470894342435,45.6091993210993C261.23362068443276,32.30982463616732,262.0725324254412,13.466799527264797,262.9114441664496,8.18570167343543C263.7783196321583,2.7285672244784767,264.645195097867,0,265.51207056357566,0C266.37894602928435,0,267.24582149499304,0,268.1126969607017,0C268.95160870171014,0,269.7905204427186,7.694597579539576,270.62943218372703,7.694597579539576C271.49747280463157,7.694597579539576,272.3655134255361,0,273.23355404644064,0C274.07246578744906,0,274.9113775284574,60.740214144906275,275.75028926946584,60.740214144906275C276.6171647351745,60.740214144906275,277.48404020088327,37.39271870118577,278.35091566659196,27.269349677034633C279.21779113230065,17.145980652883722,280.08466659800933,0,280.951542063718,0C281.7345263553259,0,282.5175106469337,3.3085716036424886,283.3004949385416,3.3085716036424886C284.1662052490544,3.3085716036424886,285.0319155595673,0,285.89762587008016,0C286.7365376110886,0,287.575449352097,0,288.4143610931054,0C289.2812365588141,0,290.1481120245228,0,291.0149874902315,0C291.8538992312399,0,292.6928109722483,0,293.5317227132567,0C294.3985981789654,0,295.26547364467416,0,296.13234911038285,0C296.99922457609154,0,297.86610004180017,15.037542375723065,298.73297550750885,22.996687961923612C299.57188724851727,30.69908691631149,300.4107989895257,30.974034511528373,301.2497107305341,46.9287276107379C302.1165861962428,63.41524381325459,302.98346166195154,113.75805740436972,303.8503371276602,129.5327901611692C304.6904140238645,144.81986316876646,305.53049092006876,144.22226456470833,306.370567816273,152.4633996725651C307.2374432819817,160.9674281333769,308.1043187476904,179.39395969226777,308.9711942133991,179.8844861201103C309.8380696791078,180.37501254795282,310.70494514481646,180.12974933403154,311.57182061052515,180.62027576187407C312.354804902133,181.06333189024795,313.13778919374084,188.58965738175078,313.9207734853487,188.58965738175078C314.78648379586156,188.58965738175078,315.65219410637445,168.95150608906954,316.5179044168873,151.93185711480228C317.3568161578957,135.43906133893137,318.19572789890407,88.93011510962664,319.0346396399125,88.93011510962664C319.9015151056212,88.93011510962664,320.7683905713299,94.45522220178702,321.6352660370386,94.45522220178702C322.474177778047,94.45522220178702,323.31308951905544,55.48948549313433,324.15200126006386,39.9181009740973C325.01887672577254,23.827670304425524,325.8857521914813,0,326.75262765719,0C327.61950312289866,0,328.4863785886073,0,329.353254054316,0C330.1921657953244,0,331.0310775363328,32.6086772438825,331.86998927734123,42.462943384461056C332.7368647430499,52.64568506305901,333.60374020875867,59.23668029894452,334.47061567446735,59.23668029894452C335.3106925706716,59.23668029894452,336.1507694668759,0,336.99084636308015,0C337.85772182878884,0,338.7245972944975,0,339.5914727602062,0C340.4583482259149,0,341.3252236916236,0,342.1920991573323,0C343.0030471736404,0,343.81399518994857,17.15786771985126,344.6249432062567,17.15786771985126C345.49065351676956,17.15786771985126,346.35636382728245,0,347.2220741377953,0C348.0609858788037,0,348.89989761981207,0,349.7388093608205,0C350.60568482652917,0,351.4725602922379,24.509807881857235,352.3394357579466,24.509807881857235C353.178347498955,24.509807881857235,354.01725923996344,0,354.85617098097185,0C355.72304644668054,0,356.58992191238923,0,357.4567973780979,0C358.3236728438066,0,359.1905483095153,0,360.057423775224,0C360.8963355162324,0,361.7352472572408,0,362.57415899824923,0C363.4410344639579,0,364.30790992966666,0,365.17478539537535,0C366.0148622915796,0,366.8549391877838,1.3480244867486917,367.6950160839881,4.044073460246075C368.5618915496968,6.826126769930001,369.4287670154055,32.40629540410298,370.2956424811142,32.40629540410298C371.1625179468229,32.40629540410298,372.0293934125316,1.3028995466425246,372.8962688782403,0.7496134377943328C373.67925316984815,0.24987114593144427,374.46223746145597,0,375.24522175306384,0C376.1109320635767,0,376.9766423740896,0,377.8423526846024,0C378.68126442561083,0,379.5201761666192,63.10232459589109,380.3590879076276,86.78214056991744C381.2259633733363,111.25128374307883,382.09283883904504,143.37987271765306,382.95971430475373,143.37987271765306C383.79862604576215,143.37987271765306,384.63753778677057,127.40982752940059,385.476449527779,127.40982752940059C386.34332499348767,127.40982752940059,387.21020045919636,143.82428304871274,388.07707592490505,143.82428304871274C388.94395139061373,143.82428304871274,389.8108268563224,122.2278986985624,390.6777023220311,108.43130200619781C391.5166140630395,95.0797568200384,392.35552580404794,62.76050814270287,393.19443754505636,62.76050814270287C394.06131301076505,62.76050814270287,394.9281884764738,63.818818856758746,395.7950639421825,65.9354402848705C396.63514083838675,67.98662852367228,397.47521773459096,105.69341753446207,398.3152946307952,105.69341753446207C399.1821700965039,105.69341753446207,400.04904556221265,29.939946605011862,400.91592102792134,17.96396796300696C401.78279649363003,5.9879893210023205,402.6496719593387,0,403.5165474250474,0C404.2995317166553,0,405.0825160082631,0,405.865500299871,0C406.7312106103838,0,407.5969209208967,0,408.46263123140955,0C409.30154297241796,0,410.1404547134263,0,410.97936645443474,0C411.8462419201434,0,412.7131173858522,0,413.57999285156086,0C414.4189045925693,0,415.2578163335777,0,416.0967280745861,0C416.9636035402948,0,417.8304790060035,0,418.6973544717122,0C419.56422993742086,0,420.43110540312955,12.597138517741909,421.29798086883824,12.597138517741909C422.13689260984665,12.597138517741909,422.97580435085507,0,423.8147160918635,0C424.6815915575722,0,425.5484670232809,0,426.4153424889896,0C427.2554193851939,0,428.0954962813981,0,428.93557317760235,0C429.80244864331104,0,430.6693241090198,0,431.53619957472847,0C432.40307504043716,0,433.26995050614585,44.379254565972765,434.13682597185453,44.379254565972765C434.9198102634624,44.379254565972765,435.7027945550702,1.2588676022400063,436.4857788466781,1.2588676022400063C437.35148915719094,1.2588676022400063,438.21719946770384,32.260932449715064,439.0829097782167,46.66100531135899C439.9218215192251,60.61531548684127,440.76073326023345,67.73983191289499,441.59964500124187,86.45623011969278C442.46652046695056,105.79650826671781,443.3333959326593,161.93947010453488,444.200271398368,161.93947010453488C445.0391831393764,161.93947010453488,445.8780948803848,93.46358865511178,446.71700662139324,93.46358865511178C447.5838820871019,93.46358865511178,448.45075755281056,106.09309951959236,449.31763301851925,106.09309951959236C450.18450848422793,106.09309951959236,451.0513839499367,71.27655847316225,451.91825941564537,63.818540532911854C452.7571711566538,56.60110381654057,453.5960828976622,52.99238545835493,454.4349946386706,52.99238545835493C455.30303525957515,52.99238545835493,456.1710758804797,53.027764647969384,457.0391165013842,53.0985230271983C457.87802824239265,53.166906964171204,458.71693998340106,71.76342852291478,459.5558517244095,71.76342852291478C460.42272719011817,71.76342852291478,461.2896026558269,0,462.1564781215356,0C463.0233535872443,0,463.890229052953,0,464.75710451866166,0C465.5680525349698,0,466.3790005512779,0,467.18994856758604,0C468.05565887809894,0,468.9213691886118,17.107463602924604,469.7870794991247,17.107463602924604C470.6259912401331,17.107463602924604,471.46490298114145,0,472.30381472214987,0C473.17069018785855,0,474.03756565356724,0,474.90444111927593,0C475.74335286028435,0,476.58226460129276,0,477.4211763423012,0C478.28805180800987,0,479.1549272737186,20.243779382297415,480.0218027394273,26.69525556666843C480.888678205136,33.1467317510393,481.7555536708447,30.69978941318761,482.62242913655336,38.70885710622598C483.4613408775618,46.45956777690835,484.3002526185702,93.77124888026422,485.1391643595786,124.53323719477011C486.0060398252873,156.32062511975917,486.872915290996,226.79493768710333,487.7397907567047,226.79493768710333C488.57986765290894,226.79493768710333,489.4199445491132,226.29952028644578,490.2600214453175,226.29952028644578C491.12689691102617,226.29952028644578,491.9937723767349,277.81474090471363,492.8606478424436,277.81474090471363C493.7275233081523,277.81474090471363,494.5943987738609,235.6096665863728,495.4612742395696,235.6096665863728C496.2442585311775,235.6096665863728,497.0272428227853,251.95886305135727,497.8102271143932,251.95886305135727C498.67593742490607,251.95886305135727,499.5416477354189,232.29724213597436,500.4073580459318,224.5488065365341C501.2462697869402,217.04022829750758,502.0851815279486,205.9339678685999,502.924093268957,205.9339678685999C503.7909687346657,205.9339678685999,504.65784420037437,237.1812701505119,505.52471966608306,237.1812701505119C506.3636314070915,237.1812701505119,507.2025431480999,236.64123991091617,508.0414548891083,235.56117943172472C508.908330354817,234.44511693656023,509.77520582052574,189.86424952422297,510.64208128623443,189.86424952422297C511.5089567519431,189.86424952422297,512.3758322176518,235.80101279414848,513.2427076833605,235.80101279414848C514.0816194243689,235.80101279414848,514.9205311653774,221.85322890644875,515.7594429063857,219.19711765305712C516.6263183720945,216.4524693578857,517.4931938378031,215.08014521029997,518.3600693035119,215.08014521029997C519.2001461997161,215.08014521029997,520.0402230959204,219.05754983792062,520.8802999921246,227.01235909316188C521.7471754578334,235.22092786694782,522.614050923542,268.90574128904336,523.4809263892507,275.05303183830404C524.3478018549594,281.2003223875644,525.2146773206681,284.27396766219465,526.0815527863767,284.27396766219465C526.8645370779846,284.27396766219465,527.6475213695925,232.52056960492664,528.4305056612003,232.52056960492664C529.2962159717132,232.52056960492664,530.161926282226,267.2653775977765,531.0276365927389,267.44187008539126C531.8665483337473,267.6128991447219,532.7054600747557,267.6984136743872,533.5443718157642,267.6984136743872C534.4112472814728,267.6984136743872,535.2781227471816,260.81448288075325,536.1449982128902,260.81448288075325C536.9839099538987,260.81448288075325,537.822821694907,282.56223199978234,538.6617334359155,286.8134311164161C539.5286089016241,291.2063368702707,540.3954843673329,289.0098839933434,541.2623598330415,293.402789747198C542.1292352987502,297.7956955010528,542.9961107644589,323.2307848976881,543.8629862301676,331.64157987887853C544.7018979711761,339.78105889293386,545.5408097121845,343.8792004077265,546.3797214531929,343.8792004077265C547.2465969189016,343.8792004077265,548.1134723846103,336.10019663433343,548.9803478503189,320.54218908754734C549.8204247465231,305.46514145148154,550.6605016427275,266.14227967094655,551.5005785389317,248.81878382675373C552.3674540046404,230.94266606242667,553.234329470349,216.2236908337604,554.1012049360578,216.2236908337604C554.9680804017665,216.2236908337604,555.8349558674752,235.1311506473957,556.7018313331839,235.1311506473957C557.4848156247917,235.1311506473957,558.2677999163997,144.31187392690956,559.0507842080075,144.31187392690956C559.9164945185204,144.31187392690956,560.7822048290332,168.88981927290135,561.6479151395461,168.88981927290135C562.4868268805544,168.88981927290135,563.3257386215629,108.28288307547085,564.1646503625713,83.86818810539934C565.0315258282799,58.63966996965904,565.8984012939886,34.737968451854044,566.7652767596973,20.758435868459618C567.6041885007057,7.229855949044907,568.4431002417141,0,569.2820119827226,0C570.1488874484313,0,571.0157629141399,0,571.8826383798487,0C572.7495138455574,0,573.6163893112661,35.12512128609836,574.4832647769748,50.035887275662255C575.3221765179832,64.46566081394941,576.1610882589916,76.41196381307259,577,88.35826681219575" style="font-family: -apple-system, BlinkMacSystemFont, &quot;Segoe UI&quot;, Roboto, Oxygen-Sans, Ubuntu, Cantarell, &quot;Helvetica Neue&quot;, sans-serif; font-size: 16px; fill: none; stroke: rgb(66, 133, 244); color: rgb(51, 51, 51); text-anchor: start"/></g><text dy="-1em" class="axis-label x" x="358.5" y="444.6666666666667" style="font-family: -apple-system, BlinkMacSystemFont, &quot;Segoe UI&quot;, Roboto, Oxygen-Sans, Ubuntu, Cantarell, &quot;Helvetica Neue&quot;, sans-serif; font-size: 14px; fill: rgb(153, 153, 153); stroke: none; color: rgb(51, 51, 51); text-anchor: middle">Time</text><text transform="rotate(-90)" y="0" dy="1em" class="axis-label y" style="font-family: -apple-system, BlinkMacSystemFont, &quot;Segoe UI&quot;, Roboto, Oxygen-Sans, Ubuntu, Cantarell, &quot;Helvetica Neue&quot;, sans-serif; font-size: 14px; fill: rgb(153, 153, 153); stroke: none; color: rgb(51, 51, 51); text-anchor: middle" x="-184.83333333333334">Drawdown</text></svg>