<svg xmlns="http://www.w3.org/2000/svg" class="chart-svg" viewBox="0 0 667 444.6666666666667"><g class="chart" transform="translate(70, 20)"><g class="x axis" transform="translate(0, 369.6666666666667)" fill="none" font-size="10" font-family="sans-serif" text-anchor="middle"><path class="domain" stroke="currentColor" d="M0.5,-369.6666666666667V0.5H577.5V-369.6666666666667" style="font-family: sans-serif; font-size: 10px; fill: none; stroke: rgb(221, 221, 221); color: rgb(51, 51, 51); text-anchor: middle"/><g class="tick" opacity="1" transform="translate(33.63701376983237,0)"><line stroke="currentColor" y2="-369.6666666666667" style="font-family: sans-serif; font-size: 10px; fill: none; stroke: rgb(221, 221, 221); color: rgb(51, 51, 51); text-anchor: middle"/><text fill="currentColor" y="10" dy="0.71em" style="font-family: sans-serif; font-size: 12px; fill: rgb(153, 153, 153); stroke: none; color: rgb(153, 153, 153); text-anchor: middle">2002</text></g><g class="tick" opacity="1" transform="translate(94.87757086344664,0)"><line stroke="currentColor" y2="-369.6666666666667" style="font-family: sans-serif; font-size: 10px; fill: none; stroke: rgb(221, 221, 221); color: rgb(51, 51, 51); text-anchor: middle"/><text fill="currentColor" y="10" dy="0.71em" style="font-family: sans-serif; font-size: 12px; fill: rgb(153, 153, 153); stroke: none; color: rgb(153, 153, 153); text-anchor: middle">2004</text></g><g class="tick" opacity="1" transform="translate(156.20201913116173,0)"><line stroke="currentColor" y2="-369.6666666666667" style="font-family: sans-serif; font-size: 10px; fill: none; stroke: rgb(221, 221, 221); color: rgb(51, 51, 51); text-anchor: middle"/><text fill="currentColor" y="10" dy="0.71em" style="font-family: sans-serif; font-size: 12px; fill: rgb(153, 153, 153); stroke: none; color: rgb(153, 153, 153); text-anchor: middle">2006</text></g><g class="tick" opacity="1" transform="translate(217.442576224776,0)"><line stroke="currentColor" y2="-369.6666666666667" style="font-family: sans-serif; font-size: 10px; fill: none; stroke: rgb(221, 221, 221); color: rgb(51, 51, 51); text-anchor: middle"/><text fill="currentColor" y="10" dy="0.71em" style="font-family: sans-serif; font-size: 12px; fill: rgb(153, 153, 153); stroke: none; color: rgb(153, 153, 153); text-anchor: middle">2008</text></g><g class="tick" opacity="1" transform="translate(278.7670244924911,0)"><line stroke="currentColor" y2="-369.6666666666667" style="font-family: sans-serif; font-size: 10px; fill: none; stroke: rgb(221, 221, 221); color: rgb(51, 51, 51); text-anchor: middle"/><text fill="currentColor" y="10" dy="0.71em" style="font-family: sans-serif; font-size: 12px; fill: rgb(153, 153, 153); stroke: none; color: rgb(153, 153, 153); text-anchor: middle">2010</text></g><g class="tick" opacity="1" transform="translate(340.0075815861054,0)"><line stroke="currentColor" y2="-369.6666666666667" style="font-family: sans-serif; font-size: 10px; fill: none; stroke: rgb(221, 221, 221); color: rgb(51, 51, 51); text-anchor: middle"/><text fill="currentColor" y="10" dy="0.71em" style="font-family: sans-serif; font-size: 12px; fill: rgb(153, 153, 153); stroke: none; color: rgb(153, 153, 153); text-anchor: middle">2012</text></g><g class="tick" opacity="1" transform="translate(401.3320298538205,0)"><line stroke="currentColor" y2="-369.6666666666667" style="font-family: sans-serif; font-size: 10px; fill: none; stroke: rgb(221, 221, 221); color: rgb(51, 51, 51); text-anchor: middle"/><text fill="currentColor" y="10" dy="0.71em" style="font-family: sans-serif; font-size: 12px; fill: rgb(153, 153, 153); stroke: none; color: rgb(153, 153, 153); text-anchor: middle">2014</text></g><g class="tick" opacity="1" transform="translate(462.5725869474348,0)"><line stroke="currentColor" y2="-369.6666666666667" style="font-family: sans-serif; font-size: 10px; fill: none; stroke: rgb(221, 221, 221); color: rgb(51, 51, 51); text-anchor: middle"/><text fill="currentColor" y="10" dy="0.71em" style="font-family: sans-serif; font-size: 12px; fill: rgb(153, 153, 153); stroke: none; color: rgb(153, 153, 153); text-anchor: middle">2016</text></g><g class="tick" opacity="1" transform="translate(523.8970352151498,0)"><line stroke="currentColor" y2="-369.6666666666667" style="font-family: sans-serif; font-size: 10px; fill: none; stroke: rgb(221, 221, 221); color: rgb(51, 51, 51); text-anchor: middle"/><text fill="currentColor" y="10" dy="0.71em" style="font-family: sans-serif; font-size: 12px; fill: rgb(153, 153, 153); stroke: none; color: rgb(153, 153, 153); text-anchor: middle">2018</text></g></g><g class="y axis" fill="none" font-size="10" font-family="sans-serif" text-anchor="end"><path class="domain" stroke="currentColor" d="M577,370.1666666666667H0.5V0.5H577" style="font-family: sans-serif; font-size: 10px; fill: none; stroke: rgb(221, 221, 221); color: rgb(51, 51, 51); text-anchor: end"/><g class="tick" opacity="1" transform="translate(0,333.2000000000001)"><line stroke="currentColor" x2="577" style="font-family: sans-serif; font-size: 10px; fill: none; stroke: rgb(221, 221, 221); color: rgb(51, 51, 51); text-anchor: end"/><text fill="currentColor" x="-10" dy="0.32em" style="font-family: sans-serif; font-size: 12px; fill: rgb(153, 153, 153); stroke: none; color: rgb(153, 153, 153); text-anchor: end">-45.0%</text></g><g class="tick" opacity="1" transform="translate(0,296.23333333333346)"><line stroke="currentColor" x2="577" style="font-family: sans-serif; font-size: 10px; fill: none; stroke: rgb(221, 221, 221); color: rgb(51, 51, 51); text-anchor: end"/><text fill="currentColor" x="-10" dy="0.32em" style="font-family: sans-serif; font-size: 12px; fill: rgb(153, 153, 153); stroke: none; color: rgb(153, 153, 153); text-anchor: end">-40.0%</text></g><g class="tick" opacity="1" transform="translate(0,259.26666666666677)"><line stroke="currentColor" x2="577" style="font-family: sans-serif; font-size: 10px; fill: none; stroke: rgb(221, 221, 221); color: rgb(51, 51, 51); text-anchor: end"/><text fill="currentColor" x="-10" dy="0.32em" style="font-family: sans-serif; font-size: 12px; fill: rgb(153, 153, 153); stroke: none; color: rgb(153, 153, 153); text-anchor: end">-35.0%</text></g><g class="tick" opacity="1" transform="translate(0,222.30000000000004)"><line stroke="currentColor" x2="577" style="font-family: sans-serif; font-size: 10px; fill: none; stroke: rgb(221, 221, 221); color: rgb(51, 51, 51); text-anchor: end"/><text fill="currentColor" x="-10" dy="0.32em" style="font-family: sans-serif; font-size: 12px; fill: rgb(153, 153, 153); stroke: none; color: rgb(153, 153, 153); text-anchor: end">-30.0%</text></g><g class="tick" opacity="1" transform="translate(0,185.33333333333337)"><line stroke="currentColor" x2="577" style="font-family: sans-serif; font-size: 10px; fill: none; stroke: rgb(221, 221, 221); color: rgb(51, 51, 51); text-anchor: end"/><text fill="currentColor" x="-10" dy="0.32em" style="font-family: sans-serif; font-size: 12px; fill: rgb(153, 153, 153); stroke: none; color: rgb(153, 153, 153); text-anchor: end">-25.0%</text></g><g class="tick" opacity="1" transform="translate(0,148.36666666666673)"><line stroke="currentColor" x2="577" style="font-family: sans-serif; font-size: 10px; fill: none; stroke: rgb(221, 221, 221); color: rgb(51, 51, 51); text-anchor: end"/><text fill="currentColor" x="-10" dy="0.32em" style="font-family: sans-serif; font-size: 12px; fill: rgb(153, 153, 153); stroke: none; color: rgb(153, 153, 153); text-anchor: end">-20.0%</text></g><g class="tick" opacity="1" transform="translate(0,111.40000000000006)"><line stroke="currentColor" x2="577" style="font-family: sans-serif; font-size: 10px; fill: none; stroke: rgb(221, 221, 221); color: rgb(51, 51, 51); text-anchor: end"/><text fill="currentColor" x="-10" dy="0.32em" style="font-family: sans-serif; font-size: 12px; fill: rgb(153, 153, 153); stroke: none; color: rgb(153, 153, 153); text-anchor: end">-15.0%</text></g><g class="tick" opacity="1" transform="translate(0,74.43333333333332)"><line stroke="currentColor" x2="577" style="font-family: sans-serif; font-size: 10px; fill: none; stroke: rgb(221, 221, 221); color: rgb(51, 51, 51); text-anchor: end"/><text fill="currentColor" x="-10" dy="0.32em" style="font-family: sans-serif; font-size: 12px; fill: rgb(153, 153, 153); stroke: none; color: rgb(153, 153, 153); text-anchor: end">-10.0%</text></g><g class="tick" opacity="1" transform="translate(0,37.46666666666666)"><line stroke="currentColor" x2="577" style="font-family: sans-serif; font-size: 10px; fill: none; stroke: rgb(221, 221, 221); color: rgb(51, 51, 51); text-anchor: end"/><text fill="currentColor" x="-10" dy="0.32em" style="font-family: sans-serif; font-size: 12px; fill: rgb(153, 153, 153); stroke: none; color: rgb(153, 153, 153); text-anchor: end">-5.0%</text></g><g class="tick" opacity="1" transform="translate(0,0.5)"><line stroke="currentColor" x2="577" style="font-family: sans-serif; font-size: 10px; fill: none; stroke: rgb(221, 221, 221); color: rgb(51, 51, 51); text-anchor: end"/><text fill="currentColor" x="-10" dy="0.32em" style="font-family: sans-serif; font-size: 12px; fill: rgb(153, 153, 153); stroke: none; color: rgb(153, 153, 153); text-anchor: end">0.0%</text></g></g><path fill="none" stroke="#4285F4" stroke-width="2" class="line" d="M0,0C0.866875465708695,0,1.73375093141739,0,2.600626397126085,0C3.46750186283478,0,4.334377328543475,42.46974767083873,5.20125279425217,54.85866015226679C5.984237085860024,66.04864561936311,6.7672213774678776,73.99524776785506,7.550205669075732,73.99524776785506C8.415915979588581,73.99524776785506,9.281626290101432,38.607905732821585,10.147336600614281,26.769872012044875C10.986248341622696,15.298291555841331,11.82516008263111,3.3525688224003503,12.664071823639524,3.3525688224003503C13.53094728934822,3.3525688224003503,14.397822755056916,16.206431691602013,15.264698220765611,25.49748930117185C16.103609961774026,34.4888353749491,16.94252170278244,43.393310328931804,17.781433443790853,57.83617592515105C18.648308909499548,72.76047037457762,19.515184375208243,95.50553809955011,20.382059840916938,114.34384112704866C21.248935306625633,133.18214415454722,22.115810772334328,170.86599409014238,22.982686238043023,170.86599409014238C23.821597979051436,170.86599409014238,24.660509720059853,162.56031795617378,25.499421461068266,153.54567369002106C26.367462081972807,144.2180209424047,27.235502702877348,120.2800973794003,28.10354332378189,115.15212908261387C28.942455064790302,110.19624025887396,29.78136680579872,108.91532479079392,30.620278546807132,107.718295847004C31.487154012515827,106.48136593842108,32.35402947822452,105.86290098412962,33.22090494393321,105.86290098412962C34.08778040964191,105.86290098412962,34.9546558753506,114.28296171576257,35.8215313410593,114.28296171576257C36.60451563266715,114.28296171576257,37.38749992427501,92.12096304871946,38.170484215882865,92.12096304871946C39.03735968159156,92.12096304871946,39.904235147300255,123.47314439527219,40.77111061300895,133.85063418293393C41.60885719882152,143.87941799654791,42.44660378463409,140.58042146945877,43.28435037044666,154.03999604250845C44.151225836155355,167.9675669498088,45.01810130186405,201.45508536183797,45.884976767572745,219.19649715871623C46.72388850858116,236.3656053492436,47.56280024958957,259.5289630903236,48.40171199059799,259.5289630903236C49.26858745630668,259.5289630903236,50.13546292201538,258.7260403003548,51.00233838772407,258.7260403003548C51.86921385343277,258.7260403003548,52.73608931914146,314.79155690868504,53.60296478485016,314.79155690868504C54.441876525858575,314.79155690868504,55.280788266866985,293.07571754071915,56.1197000078754,284.3655609005893C56.98774062877994,275.3529682660105,57.85578124968448,261.9267883341005,58.72382187058902,261.9267883341005C59.56273361159744,261.9267883341005,60.40164535260585,297.19829881402416,61.240557093614264,308.67665834114496C62.10743255932296,320.53762985250313,62.974308025031654,325.93310563526893,63.84118349074035,331.1101122529078C64.70805895644904,336.2871188705467,65.57493442215774,337.2036960585154,66.44180988786643,339.7386980469783C67.22479417947429,342.0283772623642,68.00777847108213,345.7726820139617,68.79076276269,345.7726820139617C69.65763822839868,345.7726820139617,70.52451369410738,321.1896405862252,71.39138915981607,320.1904472037613C72.22913574562864,319.22482886775117,73.06688233144122,319.70763803575625,73.90462891725379,318.7420196997461C74.77150438296249,317.7428263172822,75.63837984867118,307.04730107797235,76.50525531437988,300.98571394457406C77.3441670553883,295.1196618799951,78.1830787963967,289.4729561020548,79.02199053740512,282.98629856195004C79.88886600311382,276.28341910384177,80.7557414688225,261.31810962604703,81.62261693453121,261.31810962604703C82.4894924002399,261.31810962604703,83.3563678659486,285.86834854210065,84.22324333165729,285.86834854210065C85.0621550726657,285.86834854210065,85.90106681367412,258.06222237570836,86.73997855468254,258.06222237570836C87.60801917558707,258.06222237570836,88.47605979649161,265.42657244529465,89.34410041739615,265.42657244529465C90.18301215840457,265.42657244529465,91.02192389941298,263.8341873447124,91.8608356404214,260.6494171435479C92.72771110613009,257.35848793567794,93.59458657183879,249.36797625817232,94.46146203754748,245.4490345955252C95.32833750325618,241.5300929328781,96.19521296896487,238.8036194751144,97.06208843467357,237.13576716766525C97.8730364509817,235.57551823489024,98.68398446728983,235.54954052255374,99.49493248359796,234.79539376850275C100.36180794930667,233.9892368934827,101.22868341501535,232.46597634756412,102.09555888072406,232.46597634756412C102.93330546653662,232.46597634756412,103.77105205234919,236.9352352262056,104.60879863816176,236.9352352262056C105.47567410387046,236.9352352262056,106.34254956957915,224.55916697622067,107.20942503528785,224.55916697622067C108.04833677629627,224.55916697622067,108.88724851730468,234.50102367005672,109.7261602583131,236.0243339035586C110.59303572402179,237.59842114484388,111.45991118973049,237.76004682442445,112.32678665543918,238.38546476548652C113.19366212114788,239.01088270654859,114.06053758685657,239.77684154993108,114.92741305256527,239.77684154993108C115.76632479357369,239.77684154993108,116.60523653458209,239.70792542784002,117.4441482755905,239.57009318365795C118.31218889649504,239.42747509766397,119.1802295173996,237.70040428714043,120.04827013830413,235.71751079574474C120.88718187931255,233.80115735439588,121.72609362032095,230.88592474515016,122.56500536132937,228.01066974484016C123.43188082703807,225.03957291118647,124.29875629274676,220.94008185919455,125.16563175845546,218.11617267057417C126.03250722416415,215.2922634819538,126.89938268987285,211.77414236555933,127.76625815558154,211.06721461311787C128.54924244718939,210.4286992238159,129.33222673879726,210.1094415291649,130.1152110304051,210.1094415291649C130.9820864961138,210.1094415291649,131.84896196182248,217.83273067596167,132.71583742753117,217.83273067596167C133.55358401334374,217.83273067596167,134.39133059915633,192.329022773905,135.2290771849689,184.0444577477192C136.0959526506776,175.471834132306,136.96282811638628,173.70573874180474,137.82970358209496,167.89328629389624C138.66861532310338,162.26833231204924,139.5075270641118,149.81387981046518,140.34643880512021,149.81387981046518C141.2133142708289,149.81387981046518,142.08018973653762,152.49491865480402,142.9470652022463,152.49491865480402C143.813940667955,152.49491865480402,144.6808161336637,125.05847122301044,145.5476915993724,125.05847122301044C146.38660334038082,125.05847122301044,147.2255150813892,135.94631524276946,148.06442682239762,135.94631524276946C148.93246744330216,135.94631524276946,149.8005080642067,113.01259718339637,150.66854868511123,105.6235697891897C151.50746042611965,98.48249633438583,152.3463721671281,95.68238555449791,153.1852839081365,91.81783663646348C154.0521593738452,87.82446942116133,154.9190348395539,85.69750379742472,155.78591030526258,82.19975168953097C156.65278577097126,78.70199958163718,157.51966123667998,73.56600235008446,158.38653670238867,70.83132398910088C159.1695209939965,68.36129192111574,159.95250528560436,66.00279262604427,160.7354895772122,66.00279262604427C161.60236504292092,66.00279262604427,162.4692405086296,68.18505735822127,163.33611597433833,72.54958682257526C164.1738625601509,76.76745871084204,165.01160914596346,107.23787979666746,165.84935573177603,107.23787979666746C166.71623119748472,107.23787979666746,167.5831066631934,105.75471124137162,168.4499821289021,104.3574383722366C169.2888938699105,103.00523882146075,170.12780561091895,102.32879538818085,170.96671735192737,99.07270292003722C171.83359281763606,95.70807403628886,172.70046828334475,89.15482072189377,173.56734374905344,84.19138980646517C174.43421921476212,79.22795889103651,175.30109468047084,75.13717438247261,176.16797014617953,69.2921174274654C177.00688188718794,63.63561069681333,177.84579362819633,49.854013845894634,178.68470536920475,49.854013845894634C179.5527459901093,49.854013845894634,180.42078661101385,58.91680649442801,181.2888272319184,58.91680649442801C182.1277389729268,58.91680649442801,182.96665071393522,47.28585115394311,183.80556245494364,41.33340760229831C184.67243792065233,35.182549265598745,185.53931338636102,22.58833434324927,186.4061888520697,22.58833434324927C187.2730643177784,22.58833434324927,188.1399397834871,37.70103785426007,189.0068152491958,37.70103785426007C189.78979954080364,37.70103785426007,190.57278383241152,33.35317326901698,191.35576812401936,30.10779860253055C192.2214784345322,26.519534648364772,193.08718874504507,21.84054066874695,193.9528990555579,16.72338916700261C194.79181079656632,11.764642085904434,195.63072253757474,0,196.46963427858316,0C197.33650974429185,0,198.20338521000053,2.7265043762648817,199.07026067570922,8.179513128794646C199.90917241671764,13.456618373178406,200.74808415772608,33.85199759652318,201.5869958987345,33.85199759652318C202.4538713644432,33.85199759652318,203.32074683015188,32.206990592484956,204.18762229586056,31.255367895016757C205.05449776156925,30.303745197548547,205.92137322727797,30.21766573391582,206.78824869298666,28.142261411713942C207.62716043399507,26.133805616034728,208.46607217500346,18.71377181443292,209.30498391601188,18.71377181443292C210.1718593817206,18.71377181443292,211.03873484742928,53.73181866901162,211.905610313138,57.855260731334305C212.74568720934226,61.85123079441845,213.5857641055465,59.85324576287638,214.42584100175077,63.84921582596052C215.29271646745946,67.97265788828311,216.15959193316814,110.89154222657251,217.02646739887683,123.20467665274249C217.89334286458552,135.51781107891262,218.76021833029424,133.11510953515537,219.62709379600292,141.67437829199767C220.43804181231107,149.68143616130178,221.2489898286192,172.00358103091887,222.05993784492733,172.00358103091887C222.92564815544017,172.00358103091887,223.79135846595304,138.80940292007045,224.65706877646588,131.1699320825925C225.4959805174743,123.76694553752637,226.3348922584827,120.0654522649933,227.17380399949113,120.0654522649933C228.04067946519982,120.0654522649933,228.90755493090853,171.37889985564465,229.77443039661722,177.0786060314138C230.61334213762564,182.59445071764205,231.45225387863405,185.35237306075615,232.29116561964247,185.35237306075615C233.15804108535116,185.35237306075615,234.02491655105985,160.27190642066046,234.89179201676853,160.27190642066046C235.75866748247722,160.27190642066046,236.62554294818594,187.59581292286762,237.49241841389463,204.39005675057606C238.33133015490304,220.64255077739068,239.17024189591146,244.8256119462045,240.00915363691988,259.01447227315185C240.87602910262856,273.67629461099745,241.74290456833728,280.5101018630297,242.60978003404597,290.1248515149041C243.44985693025023,299.4423710028092,244.28993382645447,313.18485020053464,245.13001072265874,315.94922421640774C245.99688618836743,318.80178214679546,246.86376165407611,317.37550318160163,247.7306371197848,320.22806111198935C248.59751258549352,323.0806190423771,249.4643880512022,359.4932256361029,250.33126351691092,359.4932256361029C251.11424780851877,359.4932256361029,251.89723210012662,355.79824395594375,252.68021639173446,348.4082805956254C253.5459267022473,340.23753241598763,254.41163701276017,309.9695889314788,255.277347323273,303.34692399519486C256.1162590642814,296.9292675293477,256.9551708052898,295.1284754731939,257.7940825462982,293.72043929642416C258.6609580120069,292.2654685804288,259.52783347771566,292.99295393842647,260.39470894342435,291.5379832224311C261.23362068443276,290.12994704566137,262.0725324254412,266.4738465419653,262.9114441664496,258.6966665250881C263.7783196321583,250.6602471743151,264.645195097867,248.81079580093382,265.51207056357566,244.74173664775725C266.37894602928435,240.67267749458068,267.24582149499304,234.28231160602877,268.1126969607017,234.28231160602877C268.95160870171014,234.28231160602877,269.7905204427186,247.83781036411887,270.62943218372703,247.83781036411887C271.49747280463157,247.83781036411887,272.3655134255361,244.02008838934466,273.23355404644064,236.38464443979626C274.07246578744906,229.00542344157512,274.9113775284574,203.4679197715732,275.75028926946584,203.4679197715732C276.6171647351745,203.4679197715732,277.48404020088327,209.00358375635145,278.35091566659196,209.00358375635145C279.21779113230065,209.00358375635145,280.08466659800933,201.7906112804843,280.951542063718,191.41264375244677C281.7345263553259,182.0389956626063,282.5175106469337,158.70291328789756,283.3004949385416,152.24312231031013C284.1662052490544,145.10082365503112,285.0319155595673,141.5296743273916,285.89762587008016,141.5296743273916C286.7365376110886,141.5296743273916,287.575449352097,148.08381405881187,288.4143610931054,153.0391688566671C289.2812365588141,158.15970214778412,290.1481120245228,171.98483944066572,291.0149874902315,171.98483944066572C291.8538992312399,171.98483944066572,292.6928109722483,162.578624209393,293.5317227132567,162.578624209393C294.3985981789654,162.578624209393,295.26547364467416,170.01208400513855,296.13234911038285,170.01208400513855C296.99922457609154,170.01208400513855,297.86610004180017,163.35666967851503,298.73297550750885,159.7511044849118C299.57188724851727,156.2618478459408,300.4107989895257,154.8467143151637,301.2497107305341,148.76289288795226C302.1165861962428,142.47627741316705,302.98346166195154,131.0311889664186,303.8503371276602,122.14750665251596C304.6904140238645,113.53845430261843,305.53049092006876,96.60104658191122,306.370567816273,96.28685964515317C307.2374432819817,95.962650101536,308.1043187476904,96.12475487334459,308.9711942133991,95.80054532972741C309.8380696791078,95.47633578611024,310.70494514481646,77.97157029834386,311.57182061052515,77.97157029834386C312.354804902133,77.97157029834386,313.13778919374084,100.85150138105593,313.9207734853487,101.75043140577321C314.78648379586156,102.74433766822105,315.65219410637445,103.24129079944497,316.5179044168873,103.24129079944497C317.3568161578957,103.24129079944497,318.19572789890407,95.90510313826395,319.0346396399125,95.90510313826395C319.9015151056212,95.90510313826395,320.7683905713299,107.7259201051823,321.6352660370386,111.25167538270794C322.474177778047,114.66369661902306,323.31308951905544,113.17483925839862,324.15200126006386,117.02116700977997C325.01887672577254,120.99570568620742,325.8857521914813,154.38672934593615,326.75262765719,161.7948267529171C327.61950312289866,169.20292415989772,328.4863785886073,172.90697286338803,329.353254054316,172.90697286338803C330.1921657953244,172.90697286338803,331.0310775363328,142.41315163240253,331.86998927734123,138.01594136421886C332.7368647430499,133.47215742042903,333.60374020875867,135.74404939232394,334.47061567446735,131.2002654485341C335.3106925706716,126.79694794386684,336.1507694668759,116.83372736366822,336.99084636308015,108.88381078378002C337.85772182878884,100.68029076236986,338.7245972944975,89.95074904978725,339.5914727602062,82.64057068356615C340.4583482259149,75.33039231734506,341.3252236916236,70.07950512397875,342.1920991573323,65.02274058645344C343.0030471736404,60.29221892231675,343.81399518994857,52.97308837603665,344.6249432062567,52.97308837603665C345.49065351676956,52.97308837603665,346.35636382728245,54.03956287226976,347.2220741377953,56.172511864735995C348.0609858788037,58.239434172374814,348.89989761981207,70.54937992211762,349.7388093608205,70.54937992211762C350.60568482652917,70.54937992211762,351.4725602922379,62.19991581697985,352.3394357579466,54.268206122962475C353.178347498955,46.592358031977994,354.01725923996344,25.21794011084367,354.85617098097185,24.203658983612424C355.72304644668054,23.15556848547348,356.58992191238923,23.67961373454295,357.4567973780979,22.631523236404007C358.3236728438066,21.583432738265063,359.1905483095153,17.584476281065097,360.057423775224,17.584476281065097C360.8963355162324,17.584476281065097,361.7352472572408,27.475878966398678,362.57415899824923,27.475878966398678C363.4410344639579,27.475878966398678,364.30790992966666,22.50838683499891,365.17478539537535,20.709912247287107C366.0148622915796,18.967035664303005,366.8549391877838,19.396073956770326,367.6950160839881,16.76839737573676C368.5618915496968,14.056897547319247,369.4287670154055,2.721739267629765,370.2956424811142,1.6330435605778446C371.1625179468229,0.5443478535259483,372.0293934125316,0,372.8962688782403,0C373.67925316984815,0,374.46223746145597,0,375.24522175306384,0C376.1109320635767,0,376.9766423740896,0,377.8423526846024,0C378.68126442561083,0,379.5201761666192,0,380.3590879076276,0C381.2259633733363,0,382.09283883904504,20.13094603178541,382.95971430475373,20.13094603178541C383.79862604576215,20.13094603178541,384.63753778677057,0,385.476449527779,0C386.34332499348767,0,387.21020045919636,10.420179622328407,388.07707592490505,10.420179622328407C388.94395139061373,10.420179622328407,389.8108268563224,0,390.6777023220311,0C391.5166140630395,0,392.35552580404794,0,393.19443754505636,0C394.06131301076505,0,394.9281884764738,0,395.7950639421825,0C396.63514083838675,0,397.47521773459096,0,398.3152946307952,0C399.1821700965039,0,400.04904556221265,11.762609654134051,400.91592102792134,11.762609654134051C401.78279649363003,11.762609654134051,402.6496719593387,0,403.5165474250474,0C404.2995317166553,0,405.0825160082631,0,405.865500299871,0C406.7312106103838,0,407.5969209208967,0,408.46263123140955,0C409.30154297241796,0,410.1404547134263,0,410.97936645443474,0C411.8462419201434,0,412.7131173858522,0,413.57999285156086,0C414.4189045925693,0,415.2578163335777,0,416.0967280745861,0C416.9636035402948,0,417.8304790060035,0,418.6973544717122,0C419.56422993742086,0,420.43110540312955,0,421.29798086883824,0C422.13689260984665,0,422.97580435085507,0,423.8147160918635,0C424.6815915575722,0,425.5484670232809,0,426.4153424889896,0C427.2554193851939,0,428.0954962813981,0,428.93557317760235,0C429.80244864331104,0,430.6693241090198,0,431.53619957472847,0C432.40307504043716,0,433.26995050614585,0,434.13682597185453,0C434.9198102634624,0,435.7027945550702,0,436.4857788466781,0C437.35148915719094,0,438.21719946770384,13.801902011745536,439.0829097782167,13.801902011745536C439.9218215192251,13.801902011745536,440.76073326023345,0,441.59964500124187,0C442.46652046695056,0,443.3333959326593,28.53863500822079,444.200271398368,28.53863500822079C445.0391831393764,28.53863500822079,445.8780948803848,9.48851032109303,446.71700662139324,9.48851032109303C447.5838820871019,9.48851032109303,448.45075755281056,53.80039296585089,449.31763301851925,67.08149770909525C450.18450848422793,80.36260245234018,451.0513839499367,89.17513878055934,451.91825941564537,89.17513878055934C452.7571711566538,89.17513878055934,453.5960828976622,44.780158136089455,454.4349946386706,30.15875274331415C455.30303525957515,15.02965966328979,456.1710758804797,0.9941453318416829,457.0391165013842,0.9941453318416829C457.87802824239265,0.9941453318416829,458.71693998340106,22.05014374822447,459.5558517244095,33.88719541328207C460.42272719011817,46.11881546717506,461.2896026558269,68.47484536736843,462.1564781215356,73.37760982173538C463.0233535872443,78.28037427610221,463.890229052953,80.73175650328562,464.75710451866166,80.73175650328562C465.5680525349698,80.73175650328562,466.3790005512779,71.62162624217882,467.18994856758604,68.35567138774906C468.05565887809894,64.8691707313677,468.9213691886118,65.84856590524556,469.7870794991247,60.834354940238605C470.6259912401331,55.97536181129536,471.46490298114145,36.7774031699238,472.30381472214987,36.7774031699238C473.17069018785855,36.7774031699238,474.03756565356724,42.941628406576726,474.90444111927593,42.941628406576726C475.74335286028435,42.941628406576726,476.58226460129276,20.60177840892812,477.4211763423012,18.143297069245197C478.28805180800987,15.602866351572814,479.1549272737186,14.332650992736623,480.0218027394273,14.332650992736623C480.888678205136,14.332650992736623,481.7555536708447,16.749228877029704,482.62242913655336,16.749228877029704C483.4613408775618,16.749228877029704,484.3002526185702,15.423367447090092,485.1391643595786,12.771644587210867C486.0060398252873,10.031530965335698,486.872915290996,0,487.7397907567047,0C488.57986765290894,0,489.4199445491132,0,490.2600214453175,0C491.12689691102617,0,491.9937723767349,0.24350256202929677,492.8606478424436,0.24350256202929677C493.7275233081523,0.24350256202929677,494.5943987738609,0,495.4612742395696,0C496.2442585311775,0,497.0272428227853,0,497.8102271143932,0C498.67593742490607,0,499.5416477354189,0.7113376799884981,500.4073580459318,2.134013039965494C501.2462697869402,3.5126486512486506,502.0851815279486,7.2765341796794925,502.924093268957,9.719567760651723C503.7909687346657,12.244035794323056,504.65784420037437,14.651745417447795,505.52471966608306,17.019136003180687C506.3636314070915,19.310159150664155,507.2025431480999,21.832835084342026,508.0414548891083,23.707338810046014C508.908330354817,25.64432599327349,509.77520582052574,28.381446297291767,510.64208128623443,28.381446297291767C511.5089567519431,28.381446297291767,512.3758322176518,12.837186614178034,513.2427076833605,8.094551043825389C514.0816194243689,3.5049037176778226,514.9205311653774,0,515.7594429063857,0C516.6263183720945,0,517.4931938378031,1.0442045904869874,518.3600693035119,1.0442045904869874C519.2001461997161,1.0442045904869874,520.0402230959204,0,520.8802999921246,0C521.7471754578334,0,522.614050923542,0,523.4809263892507,0C524.3478018549594,0,525.2146773206681,8.687541989693564,526.0815527863767,15.218442058461997C526.8645370779846,21.117319539930456,527.6475213695925,36.483668038673166,528.4305056612003,36.483668038673166C529.2962159717132,36.483668038673166,530.161926282226,21.44311837759099,531.0276365927389,15.295235134668497C531.8665483337473,9.337663216896937,532.7054600747557,0,533.5443718157642,0C534.4112472814728,0,535.2781227471816,0.3175856081997414,536.1449982128902,0.3175856081997414C536.9839099538987,0.3175856081997414,537.822821694907,0,538.6617334359155,0C539.5286089016241,0,540.3954843673329,0,541.2623598330415,0C542.1292352987502,0,542.9961107644589,0,543.8629862301676,0C544.7018979711761,0,545.5408097121845,36.9820734716847,546.3797214531929,36.9820734716847C547.2465969189016,36.9820734716847,548.1134723846103,28.20383467622119,548.9803478503189,28.20383467622119C549.8204247465231,28.20383467622119,550.6605016427275,88.34587892499847,551.5005785389317,88.34587892499847C552.3674540046404,88.34587892499847,553.234329470349,52.672565900409,554.1012049360578,40.16963353252988C554.9680804017665,27.66670116465076,555.8349558674752,20.158813185145213,556.7018313331839,13.328284717723777C557.4848156247917,7.158775134246421,558.2677999163997,0,559.0507842080075,0C559.9164945185204,0,560.7822048290332,0,561.6479151395461,0C562.4868268805544,0,563.3257386215629,38.09571843337746,564.1646503625713,38.09571843337746C565.0315258282799,38.09571843337746,565.8984012939886,13.032174516029375,566.7652767596973,7.716419121333358C567.6041885007057,2.572139707111119,568.4431002417141,0,569.2820119827226,0C570.1488874484313,0,571.0157629141399,6.849562360957054,571.8826383798487,6.849562360957054C572.7495138455574,6.849562360957054,573.6163893112661,0,574.4832647769748,0C575.3221765179832,0,576.1610882589916,0,577,0" style="font-family: -apple-system, BlinkMacSystemFont, &quot;Segoe UI&quot;, Roboto, Oxygen-Sans, Ubuntu, Cantarell, &quot;Helvetica Neue&quot;, sans-serif; font-size: 16px; fill: none; stroke: rgb(66, 133, 244); color: rgb(51, 51, 51); text-anchor: start"/></g><text dy="-1em" class="axis-label x" x="358.5" y="444.6666666666667" style="font-family: -apple-system, BlinkMacSystemFont, &quot;Segoe UI&quot;, Roboto, Oxygen-Sans, Ubuntu, Cantarell, &quot;Helvetica Neue&quot;, sans-serif; font-size: 14px; fill: rgb(153, 153, 153); stroke: none; color: rgb(51, 51, 51); text-anchor: middle">Time</text><text transform="rotate(-90)" y="0" dy="1em" class="axis-label y" style="font-family: -apple-system, BlinkMacSystemFont, &quot;Segoe UI&quot;, Roboto, Oxygen-Sans, Ubuntu, Cantarell, &quot;Helvetica Neue&quot;, sans-serif; font-size: 14px; fill: rgb(153, 153, 153); stroke: none; color: rgb(51, 51, 51); text-anchor: middle" x="-184.83333333333334">Drawdown</text></svg>