<svg xmlns="http://www.w3.org/2000/svg" class="chart-svg" viewBox="0 0 667 444.6666666666667"><g class="chart" transform="translate(70, 20)"><g class="x axis" transform="translate(0, 369.6666666666667)" fill="none" font-size="10" font-family="sans-serif" text-anchor="middle"><path class="domain" stroke="currentColor" d="M0.5,-369.6666666666667V0.5H577.5V-369.6666666666667" style="font-family: sans-serif; font-size: 10px; fill: none; stroke: rgb(221, 221, 221); color: rgb(51, 51, 51); text-anchor: middle"/><g class="tick" opacity="1" transform="translate(33.48833036818141,0)"><line stroke="currentColor" y2="-369.6666666666667" style="font-family: sans-serif; font-size: 10px; fill: none; stroke: rgb(221, 221, 221); color: rgb(51, 51, 51); text-anchor: middle"/><text fill="currentColor" y="10" dy="0.71em" style="font-family: sans-serif; font-size: 12px; fill: rgb(153, 153, 153); stroke: none; color: rgb(153, 153, 153); text-anchor: middle">2002</text></g><g class="tick" opacity="1" transform="translate(94.45410547899768,0)"><line stroke="currentColor" y2="-369.6666666666667" style="font-family: sans-serif; font-size: 10px; fill: none; stroke: rgb(221, 221, 221); color: rgb(51, 51, 51); text-anchor: middle"/><text fill="currentColor" y="10" dy="0.71em" style="font-family: sans-serif; font-size: 12px; fill: rgb(153, 153, 153); stroke: none; color: rgb(153, 153, 153); text-anchor: middle">2004</text></g><g class="tick" opacity="1" transform="translate(155.5033953502397,0)"><line stroke="currentColor" y2="-369.6666666666667" style="font-family: sans-serif; font-size: 10px; fill: none; stroke: rgb(221, 221, 221); color: rgb(51, 51, 51); text-anchor: middle"/><text fill="currentColor" y="10" dy="0.71em" style="font-family: sans-serif; font-size: 12px; fill: rgb(153, 153, 153); stroke: none; color: rgb(153, 153, 153); text-anchor: middle">2006</text></g><g class="tick" opacity="1" transform="translate(216.469170461056,0)"><line stroke="currentColor" y2="-369.6666666666667" style="font-family: sans-serif; font-size: 10px; fill: none; stroke: rgb(221, 221, 221); color: rgb(51, 51, 51); text-anchor: middle"/><text fill="currentColor" y="10" dy="0.71em" style="font-family: sans-serif; font-size: 12px; fill: rgb(153, 153, 153); stroke: none; color: rgb(153, 153, 153); text-anchor: middle">2008</text></g><g class="tick" opacity="1" transform="translate(277.51846033229805,0)"><line stroke="currentColor" y2="-369.6666666666667" style="font-family: sans-serif; font-size: 10px; fill: none; stroke: rgb(221, 221, 221); color: rgb(51, 51, 51); text-anchor: middle"/><text fill="currentColor" y="10" dy="0.71em" style="font-family: sans-serif; font-size: 12px; fill: rgb(153, 153, 153); stroke: none; color: rgb(153, 153, 153); text-anchor: middle">2010</text></g><g class="tick" opacity="1" transform="translate(338.4842354431143,0)"><line stroke="currentColor" y2="-369.6666666666667" style="font-family: sans-serif; font-size: 10px; fill: none; stroke: rgb(221, 221, 221); color: rgb(51, 51, 51); text-anchor: middle"/><text fill="currentColor" y="10" dy="0.71em" style="font-family: sans-serif; font-size: 12px; fill: rgb(153, 153, 153); stroke: none; color: rgb(153, 153, 153); text-anchor: middle">2012</text></g><g class="tick" opacity="1" transform="translate(399.5335253143563,0)"><line stroke="currentColor" y2="-369.6666666666667" style="font-family: sans-serif; font-size: 10px; fill: none; stroke: rgb(221, 221, 221); color: rgb(51, 51, 51); text-anchor: middle"/><text fill="currentColor" y="10" dy="0.71em" style="font-family: sans-serif; font-size: 12px; fill: rgb(153, 153, 153); stroke: none; color: rgb(153, 153, 153); text-anchor: middle">2014</text></g><g class="tick" opacity="1" transform="translate(460.49930042517263,0)"><line stroke="currentColor" y2="-369.6666666666667" style="font-family: sans-serif; font-size: 10px; fill: none; stroke: rgb(221, 221, 221); color: rgb(51, 51, 51); text-anchor: middle"/><text fill="currentColor" y="10" dy="0.71em" style="font-family: sans-serif; font-size: 12px; fill: rgb(153, 153, 153); stroke: none; color: rgb(153, 153, 153); text-anchor: middle">2016</text></g><g class="tick" opacity="1" transform="translate(521.5485902964147,0)"><line stroke="currentColor" y2="-369.6666666666667" style="font-family: sans-serif; font-size: 10px; fill: none; stroke: rgb(221, 221, 221); color: rgb(51, 51, 51); text-anchor: middle"/><text fill="currentColor" y="10" dy="0.71em" style="font-family: sans-serif; font-size: 12px; fill: rgb(153, 153, 153); stroke: none; color: rgb(153, 153, 153); text-anchor: middle">2018</text></g></g><g class="y axis" fill="none" font-size="10" font-family="sans-serif" text-anchor="end"><path class="domain" stroke="currentColor" d="M577,370.1666666666667H0.5V0.5H577" style="font-family: sans-serif; font-size: 10px; fill: none; stroke: rgb(221, 221, 221); color: rgb(51, 51, 51); text-anchor: end"/><g class="tick" opacity="1" transform="translate(0,317.35714285714295)"><line stroke="currentColor" x2="577" style="font-family: sans-serif; font-size: 10px; fill: none; stroke: rgb(221, 221, 221); color: rgb(51, 51, 51); text-anchor: end"/><text fill="currentColor" x="-10" dy="0.32em" style="font-family: sans-serif; font-size: 12px; fill: rgb(153, 153, 153); stroke: none; color: rgb(153, 153, 153); text-anchor: end">-30.0%</text></g><g class="tick" opacity="1" transform="translate(0,264.5476190476191)"><line stroke="currentColor" x2="577" style="font-family: sans-serif; font-size: 10px; fill: none; stroke: rgb(221, 221, 221); color: rgb(51, 51, 51); text-anchor: end"/><text fill="currentColor" x="-10" dy="0.32em" style="font-family: sans-serif; font-size: 12px; fill: rgb(153, 153, 153); stroke: none; color: rgb(153, 153, 153); text-anchor: end">-25.0%</text></g><g class="tick" opacity="1" transform="translate(0,211.73809523809533)"><line stroke="currentColor" x2="577" style="font-family: sans-serif; font-size: 10px; fill: none; stroke: rgb(221, 221, 221); color: rgb(51, 51, 51); text-anchor: end"/><text fill="currentColor" x="-10" dy="0.32em" style="font-family: sans-serif; font-size: 12px; fill: rgb(153, 153, 153); stroke: none; color: rgb(153, 153, 153); text-anchor: end">-20.0%</text></g><g class="tick" opacity="1" transform="translate(0,158.92857142857144)"><line stroke="currentColor" x2="577" style="font-family: sans-serif; font-size: 10px; fill: none; stroke: rgb(221, 221, 221); color: rgb(51, 51, 51); text-anchor: end"/><text fill="currentColor" x="-10" dy="0.32em" style="font-family: sans-serif; font-size: 12px; fill: rgb(153, 153, 153); stroke: none; color: rgb(153, 153, 153); text-anchor: end">-15.0%</text></g><g class="tick" opacity="1" transform="translate(0,106.11904761904766)"><line stroke="currentColor" x2="577" style="font-family: sans-serif; font-size: 10px; fill: none; stroke: rgb(221, 221, 221); color: rgb(51, 51, 51); text-anchor: end"/><text fill="currentColor" x="-10" dy="0.32em" style="font-family: sans-serif; font-size: 12px; fill: rgb(153, 153, 153); stroke: none; color: rgb(153, 153, 153); text-anchor: end">-10.0%</text></g><g class="tick" opacity="1" transform="translate(0,53.30952380952383)"><line stroke="currentColor" x2="577" style="font-family: sans-serif; font-size: 10px; fill: none; stroke: rgb(221, 221, 221); color: rgb(51, 51, 51); text-anchor: end"/><text fill="currentColor" x="-10" dy="0.32em" style="font-family: sans-serif; font-size: 12px; fill: rgb(153, 153, 153); stroke: none; color: rgb(153, 153, 153); text-anchor: end">-5.0%</text></g><g class="tick" opacity="1" transform="translate(0,0.5)"><line stroke="currentColor" x2="577" style="font-family: sans-serif; font-size: 10px; fill: none; stroke: rgb(221, 221, 221); color: rgb(51, 51, 51); text-anchor: end"/><text fill="currentColor" x="-10" dy="0.32em" style="font-family: sans-serif; font-size: 12px; fill: rgb(153, 153, 153); stroke: none; color: rgb(153, 153, 153); text-anchor: end">0.0%</text></g></g><path fill="none" stroke="#4285F4" stroke-width="2" class="line" d="M0,0C0.8629858577330157,0,1.7259717154660312,0,2.588957573199047,0C3.451943430932063,0,4.314929288665079,0,5.177915146398094,0C5.957386243705335,0,6.736857341012574,0,7.516328438319815,0C8.378154368824696,0,9.239980299329575,0,10.101806229834455,0C10.936953834092213,0,11.772101438349969,0,12.607249042607727,0C13.470234900340742,0,14.333220758073757,0,15.196206615806773,0C16.03135422006453,0,16.866501824322288,0,17.701649428580044,0C18.56463528631306,0,19.427621144046075,0,20.29060700177909,0C21.153592859512106,0,22.01657871724512,0,22.879564574978136,0C23.714712179235896,0,24.549859783493652,0,25.38500738775141,0C26.24915317271256,0,27.113298957673713,0,27.977444742634862,0C28.81259234689262,0,29.647739951150378,0,30.482887555408137,0C31.345873413141152,0,32.208859270874164,0,33.07184512860718,0C33.934830986340195,0,34.79781684407322,0,35.66080270180623,0C36.44027379911347,0,37.21974489642071,0,37.999215993727944,0C38.86220185146096,0,39.72518770919398,0,40.588173566927,0C41.422161243956616,0,42.25614892098624,0,43.09013659801586,0C43.953122455748876,0,44.81610831348189,27.23465227881484,45.679094171214906,27.23465227881484C46.51424177547266,27.23465227881484,47.349389379730425,27.02533624507395,48.18453698398818,26.60670417759218C49.0475228417212,26.17411770786102,49.91050869945421,0,50.77349455718723,0C51.63648041492024,0,52.49946627265326,22.011620766463334,53.36245213038627,22.011620766463334C54.19759973464403,22.011620766463334,55.03274733890179,0,55.86789494315955,0C56.7320407281207,0,57.59618651308185,0,58.460332298043,0C59.295479902300755,0,60.13062750655852,20.169873591608653,60.965775110816274,20.169873591608653C61.82876096854929,20.169873591608653,62.6917468262823,11.3057788854031,63.55473268401531,7.9441332868016605C64.41771854174833,4.582487688200212,65.28070439948135,0,66.14369025721436,0C66.9231613545216,0,67.70263245182885,0,68.48210354913608,0C69.3450894068691,0,70.20807526460212,0,71.07106112233514,0C71.90504879936476,0,72.73903647639438,0,73.573024153424,0C74.43601001115702,0,75.29899586889003,0,76.16198172662305,0C76.99712933088081,0,77.83227693513855,0,78.66742453939631,0C79.53041039712933,0,80.39339625486234,0,81.25638211259536,0C82.11936797032838,0,82.98235382806139,4.92517773993911,83.84533968579441,4.92517773993911C84.68048729005217,4.92517773993911,85.51563489430993,0,86.35078249856768,0C87.21492828352883,0,88.07907406848999,0,88.94321985345114,0C89.7783674577089,0,90.61351506196665,0,91.44866266622441,0C92.31164852395742,0,93.17463438169044,0,94.03762023942345,0C94.90060609715647,0,95.76359195488948,0,96.6265778126225,0C97.433887163405,0,98.2411965141875,0,99.04850586497,0C99.91149172270302,0,100.77447758043603,0,101.63746343816905,0C102.47145111519868,0,103.30543879222829,0,104.13942646925791,0C105.00241232699094,0,105.86539818472394,0,106.72838404245697,0C107.56353164671472,0,108.39867925097248,0,109.23382685523023,0C110.09681271296324,0,110.95979857069626,0,111.82278442842927,0C112.68577028616228,0,113.5487561438953,0,114.41174200162831,0C115.24688960588607,0,116.08203721014384,0,116.9171848144016,0C117.78133059936275,0,118.6454763843239,0,119.50962216928505,0C120.34476977354281,0,121.17991737780056,0,122.01506498205832,0C122.87805083979133,0,123.74103669752435,0,124.60402255525736,0C125.46700841299038,0,126.32999427072339,0,127.19298012845641,0C127.97245122576366,0,128.75192232307091,0,129.53139342037815,0C130.39437927811116,0,131.25736513584417,0,132.12035099357718,0C132.9543386706068,0,133.7883263476364,0,134.62231402466603,0C135.48529988239903,0,136.34828574013207,0,137.21127159786508,0C138.04641920212285,0,138.8815668063806,0,139.71671441063836,0C140.57970026837137,0,141.4426861261044,0,142.3056719838374,0C143.16865784157042,0,144.03164369930343,0,144.89462955703644,0C145.7297771612942,0,146.56492476555195,9.920492282965705,147.40007236980972,9.920492282965705C148.26421815477087,9.920492282965705,149.12836393973203,0,149.99250972469318,0C150.82765732895092,0,151.6628049332087,0,152.49795253746643,0C153.36093839519947,0,154.22392425293248,0,155.0869101106655,0C155.94989596839852,0,156.81288182613153,0,157.67586768386454,0C158.45533878117178,0,159.23480987847904,0,160.01428097578628,0C160.8772668335193,0,161.74025269125232,0,162.60323854898533,0C163.43722622601496,0,164.27121390304455,44.667434534706395,165.10520158007418,44.667434534706395C165.9681874378072,44.667434534706395,166.83117329554022,34.426317395417115,167.69415915327323,28.372408267718345C168.52930675753097,22.513786531235723,169.36445436178875,13.757292877265066,170.1996019660465,9.048331815297116C171.0625878237795,4.182405384596855,171.92557368151253,0,172.78855953924554,0C173.65154539697855,0,174.51453125471159,0,175.3775171124446,0C176.21266471670236,0,177.0478123209601,0,177.88295992521788,0C178.74710571017903,0,179.61125149514015,0,180.4753972801013,0C181.31054488435908,0,182.14569248861682,0,182.9808400928746,0C183.8438259506076,0,184.70681180834063,0,185.56979766607364,0C186.43278352380665,0,187.29576938153969,3.5038572634037166,188.1587552392727,3.5038572634037166C188.93822633657993,3.5038572634037166,189.71769743388717,0,190.4971685311944,0C191.35899446169927,0,192.22082039220416,0,193.08264632270902,0C193.9177939269668,0,194.75294153122454,0,195.5880891354823,0C196.45107499321534,0,197.31406085094835,0.5030182059320942,198.1770467086814,1.5090546177962834C199.01219431293913,2.4826382421809514,199.84734191719687,16.123827615588596,200.6824895214546,16.123827615588596C201.54547537918765,16.123827615588596,202.40846123692066,8.29732224798286,203.2714470946537,5.610017645384749C204.1344329523867,2.922713042786697,204.9974188101197,0,205.86040466785272,0C206.6955522721105,0,207.53069987636823,0,208.365847480626,0C209.228833338359,0,210.09181919609205,48.108908736665946,210.95480505382505,48.11327112332533C211.79111258531094,48.11749865125735,212.62742011679683,48.11538488729134,213.4637276482827,48.11961241522336C214.32671350601572,48.123974801882746,215.18969936374876,107.42246850946378,216.05268522148177,110.83666591068558C216.91567107921477,114.25086331190738,217.7786569369478,112.54376461129648,218.64164279468082,115.95796201251828C219.44895214546332,119.15188861366127,220.25626149624583,147.8090010382133,221.06357084702833,147.8090010382133C221.9253967775332,147.8090010382133,222.7872227080381,101.13772776112656,223.64904863854295,87.72697821032746C224.48419624280072,74.73136626338875,225.31934384705846,67.38001479491832,226.15449145131623,67.38001479491832C227.01747730904924,67.38001479491832,227.88046316678228,137.25364115269713,228.7434490245153,137.25364115269713C229.57859662877306,137.25364115269713,230.4137442330308,136.27872504184074,231.24889183728857,134.32889282012798C232.11187769502158,132.3140661910248,232.97486355275458,94.7960058065669,233.8378494104876,94.7960058065669C234.7008352682206,94.7960058065669,235.5638211259536,124.74771628618977,236.42680698368662,147.81327129615627C237.2619545879444,170.13477614451125,238.09710219220213,210.7900567143131,238.9322497964599,229.93018915680855C239.7952356541929,249.7083260140538,240.65822151192594,255.45920274789518,241.52120736965895,262.89420391479723C242.35751490114484,270.09935961551815,243.19382243263075,274.499498108609,244.03012996411664,274.499498108609C244.89311582184965,274.499498108609,245.75610167958268,274.2500681241817,246.6190875373157,274.2500681241817C247.4820733950487,274.2500681241817,248.3450592527817,325.8717957613387,249.20804511051472,325.8717957613387C249.98751620782195,325.8717957613387,250.7669873051292,312.3254558448586,251.54645840243643,292.9092388016982C252.40828433294132,271.44160596975115,253.2701102634462,218.94601092255033,254.1319361939511,197.5947867513314C254.96708379820885,176.90450222471327,255.80223140246662,172.8080104131896,256.63737900672436,164.87927683087997C257.50036486445737,156.68625212915984,258.36335072219043,159.86442476462483,259.22633657992344,149.83472063211454C260.0614841841812,140.12855534258864,260.8966317884389,97.0386198409712,261.7317793926967,79.7179990444975C262.5947652504297,61.820024221474725,263.4577511081627,57.49087658590933,264.3207369658957,45.40942978594725C265.1837228236287,33.32798298598518,266.04670868136174,7.229318244725088,266.90969453909474,7.229318244725088C267.7448421433525,7.229318244725088,268.5799897476103,22.79782333562444,269.41513735186805,22.79782333562444C270.2792831368292,22.79782333562444,271.14342892179036,0,272.0075747067515,0C272.84272231100925,0,273.677869915267,0,274.5130175195248,0C275.3760033772578,0,276.2389892349908,0.08194625195671983,277.1019750927238,0.08194625195671983C277.9649609504568,0.08194625195671983,278.82794680818984,0,279.69093266592284,0C280.4704037632301,0,281.2498748605373,0,282.02934595784455,0C282.89117188834945,0,283.75299781885434,0,284.61482374935923,0C285.449971353617,0,286.2851189578747,1.960071713564949,287.1202665621325,5.687800514248973C287.9832524198655,9.53978694162246,288.8462382775985,23.111610727679167,289.7092241353315,23.111610727679167C290.5443717395893,23.111610727679167,291.37951934384705,0,292.2146669481048,0C293.07765280583783,0,293.94063866357084,0,294.80362452130385,0C295.66661037903685,0,296.52959623676986,0,297.39258209450287,0C298.22772969876064,0,299.0628773030184,0,299.8980249072762,0C300.7610107650092,0,301.6239966227422,0,302.4869824804752,0C303.3232900119611,0,304.159597543447,0,304.99590507493286,0C305.85889093266593,0,306.72187679039894,2.00167624126109,307.584862648132,2.00167624126109C308.447848505865,2.00167624126109,309.310834363598,0,310.173820221331,0C310.95329131863826,0,311.7327624159455,15.924943064436622,312.51223351325274,15.924943064436622C313.37405944375763,15.924943064436622,314.23588537426247,14.470255757013781,315.09771130476736,11.73289134050515C315.93285890902513,9.080263642138775,316.76800651328284,0,317.6031541175406,0C318.4661399752736,0,319.3291258330067,16.40447674862314,320.1921116907397,16.40447674862314C321.02725929499746,16.40447674862314,321.8624068992552,13.162896558977254,322.69755450351295,13.162896558977254C323.56054036124596,13.162896558977254,324.42352621897896,54.8933259727457,325.286512076712,67.21210680484059C326.149497934445,79.53088763693574,327.01248379217805,87.07558155154663,327.87546964991105,87.07558155154663C328.7106172541688,87.07558155154663,329.54576485842654,34.31375868144482,330.3809124626843,29.376625348850638C331.2438983204173,24.274920905169992,332.1068841781503,26.774306010848896,332.96987003588333,21.72406868332967C333.8061775673692,16.829954283946005,334.64248509885516,0,335.47879263034105,0C336.34177848807406,0,337.20476434580706,0,338.0677502035401,0C338.9307360612731,0,339.79372191900615,0,340.65670777673915,0C341.46401712752163,0,342.27132647830416,0,343.07863582908664,0C343.9404617595915,0,344.80228769009636,0,345.66411362060126,0C346.499261224859,0,347.33440882911674,11.750817747871523,348.1695564333745,11.750817747871523C349.0325422911075,11.750817747871523,349.8955281488406,0,350.7585140065736,0C351.59366161083136,0,352.4288092150891,0,353.26395681934684,0C354.12694267707985,0,354.98992853481286,0,355.85291439254587,0C356.71590025027893,0,357.57888610801194,0,358.441871965745,0C359.2770195700027,0,360.1121671742605,5.221091907103539,360.9473147785182,5.221091907103539C361.8103006362512,5.221091907103539,362.6732864939843,0,363.5362723517173,0C364.3725798832032,0,365.20888741468906,0,366.04519494617495,0C366.90818080390795,0,367.771166661641,0,368.634152519374,0C369.49713837710704,0,370.36012423484004,0,371.22311009257305,0C372.0025811898803,0,372.7820522871875,0,373.56152338449476,0C374.42334931499965,0,375.2851752455045,0,376.1470011760094,0C376.98214878026715,0,377.8172963845249,0,378.6524439887827,0C379.5154298465157,0,380.3784157042487,24.788439557420933,381.2414015619817,24.788439557420933C382.0765491662395,24.788439557420933,382.9116967704972,0,383.74684437475497,0C384.609830232488,0,385.47281609022104,9.860684941074224,386.33580194795405,9.860684941074224C387.19878780568706,9.860684941074224,388.06177366342007,0,388.9247595211531,0C389.75990712541085,0,390.59505472966856,0,391.43020233392633,0C392.29318819165934,0,393.15617404939235,0,394.01915990712536,0C394.85546743861124,0,395.6917749700972,0,396.52808250158307,0C397.3910683593161,0,398.25405421704914,3.5723656400365593,399.11704007478215,3.5723656400365593C399.98002593251516,3.5723656400365593,400.84301179024817,0,401.7059976479812,0C402.4854687452884,0,403.26493984259565,0,404.0444109399029,0C404.9062368704078,0,405.7680628009127,0,406.62988873141757,0C407.46503633567534,0,408.30018393993305,0,409.1353315441908,0C409.9983174019238,0,410.86130325965684,0,411.72428911738984,0C412.5594367216476,0,413.3945843259054,0,414.22973193016315,0C415.09271778789616,0,415.95570364562917,0,416.8186895033622,0C417.6816753610952,0,418.5446612188282,0,419.4076470765612,0C420.242794680819,0,421.07794228507674,0,421.9130898893345,0C422.7760757470675,0,423.63906160480053,0,424.50204746253354,0C425.3383549940194,0,426.1746625255053,0,427.0109700569912,0C427.8739559147242,0,428.7369417724572,0,429.5999276301902,0C430.4629134879233,0,431.3258993456563,0,432.18888520338936,0C432.9683563006966,0,433.74782739800384,0,434.5272984953111,0C435.38912442581596,0,436.2509503563208,15.30596376959015,437.1127762868257,15.30596376959015C437.94792389108346,15.30596376959015,438.7830714953412,0,439.61821909959895,0C440.48120495733195,0,441.344190815065,33.19782117201149,442.207176672798,33.19782117201149C443.0423242770558,33.19782117201149,443.8774718813135,16.413435650846218,444.7126194855713,16.413435650846218C445.5756053433043,16.413435650846218,446.4385912010373,70.19133927828432,447.3015770587703,82.33565779502119C448.1645629165033,94.47997631175807,449.0275487742363,100.5521355701265,449.89053463196933,100.5521355701265C450.7256822362271,100.5521355701265,451.56082984048487,48.5902549876458,452.39597744474264,31.902431734395112C453.26012322970377,14.635170173740317,454.12426901466495,0,454.98841479962607,0C455.82356240388384,0,456.6587100081416,23.34795931144947,457.4938576123994,36.11976789302363C458.3568434701324,49.31730342731661,459.2198293278654,77.84823062972717,460.0828151855984,78.05684915754979C460.9458010433314,78.26546768537241,461.8087869010644,78.36977694928373,462.67177275879743,78.36977694928373C463.47908210957996,78.36977694928373,464.28639146036244,55.89121445788534,465.09370081114497,49.805205146172575C465.95552674164986,43.308215320594314,466.8173526721547,46.55671023338345,467.6791786026596,40.05972040780519C468.51432620691736,33.76384870603352,469.3494738111751,16.825859670677758,470.18462141543284,11.361857651971846C471.04760727316585,5.715722232642285,471.9105931308989,4.78739474386572,472.7735789886319,2.892654522977506C473.6087265928897,1.0590349543760462,474.4438741971474,0,475.2790218014052,0C476.1420076591382,0,477.0049935168712,0,477.8679793746042,0C478.7309652323372,0,479.5939510900702,0,480.45693694780323,0C481.292084552061,0,482.12723215631877,0,482.96237976057654,0C483.82536561830955,0,484.68835147604256,0,485.55133733377556,0C486.38764486526145,0,487.2239523967474,0,488.0602599282333,0C488.9232457859663,0,489.78623164369935,0,490.64921750143236,0C491.51220335916537,0,492.3751892168984,0,493.2381750746314,0C494.0176461719386,0,494.79711726924586,0,495.5765883665531,0C496.438414297058,0,497.3002402275628,0,498.1620661580677,0C498.9972137623255,0,499.83236136658326,6.283149390815247,500.667508970841,8.421013596400119C501.53049482857404,10.6301399421711,502.39348068630704,11.78037986699228,503.25646654404005,12.904913121002803C504.0916141482978,13.993171108754922,504.92676175255554,15.129864205680589,505.7619093568133,15.129864205680589C506.6248952145463,15.129864205680589,507.4878810722794,14.979526540758908,508.3508669300124,14.678851210915548C509.2138527877454,14.378175881072194,510.0768386454784,0,510.9398245032114,0C511.7749721074692,0,512.610119711727,0,513.4452673159847,0C514.3082531737177,0,515.1712390314507,0.5964721593461073,516.0342248891837,0.5964721593461073C516.8705324206696,0.5964721593461073,517.7068399521555,0,518.5431474836414,0C519.4061333413745,0,520.2691191991074,0,521.1321050568405,0C521.9950909145736,0,522.8580767723065,13.069301871337906,523.7210626300396,18.6439215974218C524.5005337273468,23.67906199517491,525.280004824654,32.18292350178485,526.0594759219613,32.18292350178485C526.9213018524662,32.18292350178485,527.783127782971,12.357022592595465,528.6449537134758,7.3206716401553615C529.4801013177336,2.4402238800517875,530.3152489219914,0,531.1503965262491,0C532.0133823839822,0,532.8763682417151,1.1492796057762176,533.7393540994482,1.1492796057762176C534.5745017037059,1.1492796057762176,535.4096493079637,0,536.2447969122214,0C537.1077827699545,0,537.9707686276874,0,538.8337544854205,0C539.6967403431536,0,540.5597262008865,0,541.4227120586196,0C542.2578596628773,0,543.0930072671351,44.152975454790614,543.9281548713928,44.152975454790614C544.7911407291258,44.152975454790614,545.6541265868589,26.521219439700577,546.5171124445918,26.521219439700577C547.3534199760777,26.521219439700577,548.1897275075637,89.76613276489188,549.0260350390496,89.76613276489188C549.8890208967825,89.76613276489188,550.7520067545156,34.917050480646125,551.6149926122486,20.950230288388045C552.4779784699816,6.983410096129349,553.3409643277146,0,554.2039501854476,0C554.9834212827549,0,555.7628923800621,0,556.5423634773693,0C557.4041894078742,0,558.2660153383791,0,559.127841268884,0C559.9629888731417,0,560.7981364773996,38.89395660492036,561.6332840816573,38.89395660492036C562.4962699393903,38.89395660492036,563.3592557971233,7.378057254125323,564.2222416548564,4.368586532047852C565.0573892591141,1.4561955106826172,565.8925368633719,0,566.7276844676296,0C567.5906703253627,0,568.4536561830956,2.9436422287666404,569.3166420408287,2.9436422287666404C570.1796278985616,2.9436422287666404,571.0426137562947,0,571.9055996140277,0C572.7407472182854,0,573.5758948225432,0,574.4110424268009,0C575.274028284534,0,576.1370141422669,0,577,0" style="font-family: -apple-system, BlinkMacSystemFont, &quot;Segoe UI&quot;, Roboto, Oxygen-Sans, Ubuntu, Cantarell, &quot;Helvetica Neue&quot;, sans-serif; font-size: 16px; fill: none; stroke: rgb(66, 133, 244); color: rgb(51, 51, 51); text-anchor: start"/></g><text dy="-1em" class="axis-label x" x="358.5" y="444.6666666666667" style="font-family: -apple-system, BlinkMacSystemFont, &quot;Segoe UI&quot;, Roboto, Oxygen-Sans, Ubuntu, Cantarell, &quot;Helvetica Neue&quot;, sans-serif; font-size: 14px; fill: rgb(153, 153, 153); stroke: none; color: rgb(51, 51, 51); text-anchor: middle">Time</text><text transform="rotate(-90)" y="0" dy="1em" class="axis-label y" style="font-family: -apple-system, BlinkMacSystemFont, &quot;Segoe UI&quot;, Roboto, Oxygen-Sans, Ubuntu, Cantarell, &quot;Helvetica Neue&quot;, sans-serif; font-size: 14px; fill: rgb(153, 153, 153); stroke: none; color: rgb(51, 51, 51); text-anchor: middle" x="-184.83333333333334">Drawdown</text></svg>