<svg xmlns="http://www.w3.org/2000/svg" class="chart-svg" viewBox="0 0 667 444.667"><g class="chart"><g class="x axis" fill="none" font-size="10" font-family="sans-serif" text-anchor="middle"><path class="domain" stroke="#ddd" d="M70.5 20v370.167h577V20" color="#333"/><g class="tick"><path stroke="#ddd" color="#333" d="M103.637 389.667V20"/><text fill="#999" y="10" dy=".71em" font-size="12" color="#999" transform="translate(103.637 389.667)">2002</text></g><g class="tick"><path stroke="#ddd" color="#333" d="M164.878 389.667V20"/><text fill="#999" y="10" dy=".71em" font-size="12" color="#999" transform="translate(164.878 389.667)">2004</text></g><g class="tick"><path stroke="#ddd" color="#333" d="M226.202 389.667V20"/><text fill="#999" y="10" dy=".71em" font-size="12" color="#999" transform="translate(226.202 389.667)">2006</text></g><g class="tick"><path stroke="#ddd" color="#333" d="M287.443 389.667V20"/><text fill="#999" y="10" dy=".71em" font-size="12" color="#999" transform="translate(287.443 389.667)">2008</text></g><g class="tick"><path stroke="#ddd" color="#333" d="M348.767 389.667V20"/><text fill="#999" y="10" dy=".71em" font-size="12" color="#999" transform="translate(348.767 389.667)">2010</text></g><g class="tick"><path stroke="#ddd" color="#333" d="M410.008 389.667V20"/><text fill="#999" y="10" dy=".71em" font-size="12" color="#999" transform="translate(410.008 389.667)">2012</text></g><g class="tick"><path stroke="#ddd" color="#333" d="M471.332 389.667V20"/><text fill="#999" y="10" dy=".71em" font-size="12" color="#999" transform="translate(471.332 389.667)">2014</text></g><g class="tick"><path stroke="#ddd" color="#333" d="M532.573 389.667V20"/><text fill="#999" y="10" dy=".71em" font-size="12" color="#999" transform="translate(532.573 389.667)">2016</text></g><g class="tick"><path stroke="#ddd" color="#333" d="M593.897 389.667V20"/><text fill="#999" y="10" dy=".71em" font-size="12" color="#999" transform="translate(593.897 389.667)">2018</text></g></g><g class="y axis" fill="none" font-size="10" font-family="sans-serif" text-anchor="end"><path class="domain" stroke="#ddd" d="M647 390.167H70.5V20.5H647" color="#333"/><g class="tick"><path stroke="#ddd" color="#333" d="M70 361.73h577"/><text fill="#999" x="-10" dy=".32em" font-size="12" color="#999" transform="translate(70 361.73)">-6.0%</text></g><g class="tick"><path stroke="#ddd" color="#333" d="M70 333.295h577"/><text fill="#999" x="-10" dy=".32em" font-size="12" color="#999" transform="translate(70 333.295)">-5.5%</text></g><g class="tick"><path stroke="#ddd" color="#333" d="M70 304.859h577"/><text fill="#999" x="-10" dy=".32em" font-size="12" color="#999" transform="translate(70 304.859)">-5.0%</text></g><g class="tick"><path stroke="#ddd" color="#333" d="M70 276.423h577"/><text fill="#999" x="-10" dy=".32em" font-size="12" color="#999" transform="translate(70 276.423)">-4.5%</text></g><g class="tick"><path stroke="#ddd" color="#333" d="M70 247.987h577"/><text fill="#999" x="-10" dy=".32em" font-size="12" color="#999" transform="translate(70 247.987)">-4.0%</text></g><g class="tick"><path stroke="#ddd" color="#333" d="M70 219.551h577"/><text fill="#999" x="-10" dy=".32em" font-size="12" color="#999" transform="translate(70 219.551)">-3.5%</text></g><g class="tick"><path stroke="#ddd" color="#333" d="M70 191.115h577"/><text fill="#999" x="-10" dy=".32em" font-size="12" color="#999" transform="translate(70 191.115)">-3.0%</text></g><g class="tick"><path stroke="#ddd" color="#333" d="M70 162.68h577"/><text fill="#999" x="-10" dy=".32em" font-size="12" color="#999" transform="translate(70 162.68)">-2.5%</text></g><g class="tick"><path stroke="#ddd" color="#333" d="M70 134.244h577"/><text fill="#999" x="-10" dy=".32em" font-size="12" color="#999" transform="translate(70 134.244)">-2.0%</text></g><g class="tick"><path stroke="#ddd" color="#333" d="M70 105.808h577"/><text fill="#999" x="-10" dy=".32em" font-size="12" color="#999" transform="translate(70 105.808)">-1.5%</text></g><g class="tick"><path stroke="#ddd" color="#333" d="M70 77.372h577"/><text fill="#999" x="-10" dy=".32em" font-size="12" color="#999" transform="translate(70 77.372)">-1.0%</text></g><g class="tick"><path stroke="#ddd" color="#333" d="M70 48.936h577"/><text fill="#999" x="-10" dy=".32em" font-size="12" color="#999" transform="translate(70 48.936)">-0.5%</text></g><g class="tick"><path stroke="#ddd" color="#333" d="M70 20.5h577"/><text fill="#999" x="-10" dy=".32em" font-size="12" color="#999" transform="translate(70 20.5)">0.0%</text></g></g><path fill="none" stroke="#4285f4" stroke-width="2" class="line" d="M70 20h7.551c.865 0 1.73 50.348 2.596 50.348.84 0 1.678-18.364 2.517-26.638.867-8.55 1.734-23.71 2.6-23.71H95.5c.868 0 1.737 35.026 2.605 49.38.838 13.87 1.677 35.71 2.516 35.71.867 0 1.734-6.898 2.6-13.057.868-6.158 1.735-23.894 2.602-23.894.783 0 1.565 47.772 2.348 47.772.867 0 1.734-58.214 2.601-71.997.838-13.32 1.676-17.445 2.513-19.98.867-2.623 1.734-3.934 2.601-3.934h7.718c.839 0 1.678 13.098 2.517 13.098.868 0 1.736-1.164 2.604-3.422.839-2.182 1.678-9.676 2.517-9.676h5.2c.784 0 1.567 5.041 2.35 5.041.867 0 1.734-5.041 2.6-5.041h2.514c.867 0 1.733 9.087 2.6 27.26.84 17.587 1.678 88.332 2.517 101.434.867 13.539 1.734 20.308 2.6 20.308.867 0 1.734-80.821 2.601-80.821.84 0 1.678 55.244 2.517 55.244.868 0 1.736-3.539 2.604-10.617.839-6.84 1.678-35.744 2.517-49.651.867-14.371 1.734-24.12 2.6-34.645.867-10.526 1.734-28.512 2.601-28.512h2.433c.867 0 1.734 67.11 2.6 72.099.838 4.821 1.676 7.232 2.514 7.232.867 0 1.734-.937 2.6-2.81.84-1.814 1.678-19.497 2.517-31.981.867-12.9 1.734-44.54 2.6-44.54h12.839c.868 0 1.734 32.172 2.601 32.172.783 0 1.566-20.964 2.35-25.177.866-4.663 1.733-6.995 2.6-6.995h5.112c.84 0 1.679 39.376 2.517 39.376.867 0 1.734-39.376 2.601-39.376s1.734 17.462 2.6 29.663c.84 11.808 1.679 41.925 2.517 41.925.868 0 1.737-7.593 2.605-17.626.838-9.697 1.677-40.74 2.516-40.74.867 0 1.734 25.832 2.6 25.832.868 0 1.735-.498 2.602-.498.783 0 1.566 45.62 2.348 61.823.867 17.939 1.734 37.619 2.601 37.619.838 0 1.676-13.708 2.513-13.708.867 0 1.734 9.623 2.601 9.623.839 0 1.678-27.26 2.517-47.508.867-20.924 1.733-70.568 2.6-76.903.867-6.335 1.734-9.502 2.601-9.502h5.121c.839 0 1.678 31.18 2.517 40.185.866 9.306 1.733 13.96 2.6 13.96S258.14 20 259.006 20c.784 0 1.567 13.192 2.35 13.192.865 0 1.731-6.191 2.597-6.191.839 0 1.678 37.482 2.517 50.234.867 13.176 1.733 26.736 2.6 26.736.84 0 1.678-69.375 2.517-75.099.867-5.915 1.734-8.872 2.6-8.872h17.873c.866 0 1.731 41.27 2.597 61.637.839 19.737 1.678 58.709 2.517 58.709.867 0 1.734-1.304 2.6-3.911.84-2.523 1.678-53.54 2.517-72.795.867-19.896 1.734-43.64 2.6-43.64h10.239c.867 0 1.734 93.457 2.6 93.457.868 0 1.734-6.417 2.601-19.25.783-11.593 1.566-58.464 2.35-58.464.865 0 1.73 11.553 2.596 24.177.84 12.233 1.678 49.56 2.517 49.56.867 0 1.734-30.128 2.6-43.87.84-13.3 1.679-32.143 2.517-37.424.867-5.457 1.734-8.186 2.601-8.186h2.6c.84 0 1.679 7.695 2.517 7.695.868 0 1.737-7.695 2.605-7.695.838 0 1.677 60.74 2.516 60.74.867 0 1.734-23.347 2.6-33.47.868-10.124 1.735-27.27 2.602-27.27.783 0 1.566 3.309 2.348 3.309.866 0 1.732-3.309 2.598-3.309h10.234c.867 0 1.734 15.038 2.601 22.997.839 7.702 1.678 7.977 2.517 23.932.867 16.486 1.733 66.83 2.6 82.604.84 15.287 1.68 14.69 2.52 22.93.867 8.504 1.734 26.931 2.601 27.421.867.491 1.734.246 2.6.736.784.443 1.567 7.97 2.35 7.97.865 0 1.731-19.638 2.597-36.658.839-16.493 1.678-63.002 2.517-63.002.867 0 1.733 5.525 2.6 5.525.84 0 1.678-38.966 2.517-54.537.867-16.09 1.734-39.918 2.6-39.918h2.601c.84 0 1.678 32.609 2.517 42.463.867 10.183 1.734 16.774 2.6 16.774.84 0 1.68-59.237 2.52-59.237h5.202c.811 0 1.622 17.158 2.433 17.158.866 0 1.731-17.158 2.597-17.158h2.517c.867 0 1.734 24.51 2.6 24.51.84 0 1.678-24.51 2.517-24.51h10.318c.84 0 1.68 1.348 2.521 4.044.867 2.782 1.734 28.362 2.6 28.362.868 0 1.734-31.103 2.601-31.656.783-.5 1.566-.75 2.35-.75h2.596c.84 0 1.678 63.102 2.517 86.782.867 24.47 1.734 56.598 2.6 56.598.84 0 1.679-15.97 2.517-15.97.867 0 1.734 16.414 2.601 16.414s1.734-21.596 2.6-35.393c.84-13.351 1.679-45.67 2.517-45.67.867 0 1.734 1.058 2.601 3.174.84 2.052 1.68 39.758 2.52 39.758.867 0 1.734-75.753 2.6-87.729C471.784 25.988 472.65 20 473.518 20h15.179c.867 0 1.734 12.597 2.601 12.597.839 0 1.678-12.597 2.517-12.597h7.721c.867 0 1.734 44.38 2.6 44.38.784 0 1.567-43.121 2.35-43.121.865 0 1.731 31.002 2.597 45.402.839 13.954 1.678 21.079 2.517 39.795.867 19.34 1.733 75.483 2.6 75.483.84 0 1.678-68.475 2.517-68.475.867 0 1.734 12.63 2.6 12.63.868 0 1.734-34.817 2.601-42.275.84-7.218 1.678-10.827 2.517-10.827.868 0 1.736.036 2.604.107.839.068 1.678 18.664 2.517 18.664.867 0 1.734-71.763 2.6-71.763h5.034c.866 0 1.731 17.107 2.597 17.107.839 0 1.678-17.107 2.517-17.107h5.117c.867 0 1.734 20.244 2.6 26.695.868 6.452 1.735 4.005 2.601 12.014.84 7.75 1.678 55.062 2.517 85.824.867 31.788 1.734 102.262 2.6 102.262.84 0 1.68-.495 2.521-.495.867 0 1.734 51.515 2.6 51.515.868 0 1.734-42.205 2.601-42.205.783 0 1.566 16.349 2.35 16.349.865 0 1.73-19.662 2.596-27.41.84-7.509 1.678-18.615 2.517-18.615.867 0 1.734 31.247 2.6 31.247.84 0 1.679-.54 2.517-1.62.867-1.116 1.734-45.697 2.601-45.697s1.734 45.937 2.6 45.937c.84 0 1.679-13.948 2.517-16.604.867-2.745 1.734-4.117 2.601-4.117.84 0 1.68 3.978 2.52 11.932.867 8.209 1.734 41.894 2.6 48.041.868 6.147 1.735 9.221 2.602 9.221.783 0 1.566-51.753 2.349-51.753.865 0 1.73 34.744 2.597 34.92a12.57 12.57 0 002.516.257c.867 0 1.734-6.884 2.601-6.884.839 0 1.678 21.748 2.517 26 .867 4.392 1.733 2.196 2.6 6.589.867 4.393 1.734 29.828 2.601 38.239.839 8.14 1.678 12.237 2.517 12.237.867 0 1.733-7.779 2.6-23.337.84-15.077 1.68-54.4 2.52-71.723.867-17.876 1.734-32.595 2.601-32.595s1.734 18.907 2.6 18.907c.784 0 1.567-90.82 2.35-90.82.865 0 1.731 24.579 2.597 24.579.839 0 1.678-60.607 2.517-85.022.867-25.228 1.733-49.13 2.6-63.11.84-13.528 1.678-20.758 2.517-20.758h2.6c.868 0 1.734 35.125 2.601 50.036.84 14.43 1.678 26.376 2.517 38.322" font-family="-apple-system,BlinkMacSystemFont,&quot;Segoe UI&quot;,Roboto,Oxygen-Sans,Ubuntu,Cantarell,&quot;Helvetica Neue&quot;,sans-serif" font-size="16" color="#333"/></g><text dy="-1em" class="axis-label x" x="358.5" y="444.667" font-family="-apple-system,BlinkMacSystemFont,&quot;Segoe UI&quot;,Roboto,Oxygen-Sans,Ubuntu,Cantarell,&quot;Helvetica Neue&quot;,sans-serif" font-size="14" fill="#999" color="#333" text-anchor="middle">Time</text><text transform="rotate(-90)" dy="1em" class="axis-label y" x="-184.833" font-family="-apple-system,BlinkMacSystemFont,&quot;Segoe UI&quot;,Roboto,Oxygen-Sans,Ubuntu,Cantarell,&quot;Helvetica Neue&quot;,sans-serif" font-size="14" fill="#999" color="#333" text-anchor="middle">Drawdown</text></svg>