<svg xmlns="http://www.w3.org/2000/svg" class="chart-svg" viewBox="0 0 667 444.6666666666667"><g class="chart" transform="translate(70, 20)"><g class="x axis" transform="translate(0, 369.6666666666667)" fill="none" font-size="10" font-family="sans-serif" text-anchor="middle"><path class="domain" stroke="currentColor" d="M0.5,-369.6666666666667V0.5H577.5V-369.6666666666667" style="font-family: sans-serif; font-size: 10px; fill: none; stroke: rgb(221, 221, 221); color: rgb(51, 51, 51); text-anchor: middle"/><g class="tick" opacity="1" transform="translate(33.48833036818141,0)"><line stroke="currentColor" y2="-369.6666666666667" style="font-family: sans-serif; font-size: 10px; fill: none; stroke: rgb(221, 221, 221); color: rgb(51, 51, 51); text-anchor: middle"/><text fill="currentColor" y="10" dy="0.71em" style="font-family: sans-serif; font-size: 12px; fill: rgb(153, 153, 153); stroke: none; color: rgb(153, 153, 153); text-anchor: middle">2002</text></g><g class="tick" opacity="1" transform="translate(94.45410547899768,0)"><line stroke="currentColor" y2="-369.6666666666667" style="font-family: sans-serif; font-size: 10px; fill: none; stroke: rgb(221, 221, 221); color: rgb(51, 51, 51); text-anchor: middle"/><text fill="currentColor" y="10" dy="0.71em" style="font-family: sans-serif; font-size: 12px; fill: rgb(153, 153, 153); stroke: none; color: rgb(153, 153, 153); text-anchor: middle">2004</text></g><g class="tick" opacity="1" transform="translate(155.5033953502397,0)"><line stroke="currentColor" y2="-369.6666666666667" style="font-family: sans-serif; font-size: 10px; fill: none; stroke: rgb(221, 221, 221); color: rgb(51, 51, 51); text-anchor: middle"/><text fill="currentColor" y="10" dy="0.71em" style="font-family: sans-serif; font-size: 12px; fill: rgb(153, 153, 153); stroke: none; color: rgb(153, 153, 153); text-anchor: middle">2006</text></g><g class="tick" opacity="1" transform="translate(216.469170461056,0)"><line stroke="currentColor" y2="-369.6666666666667" style="font-family: sans-serif; font-size: 10px; fill: none; stroke: rgb(221, 221, 221); color: rgb(51, 51, 51); text-anchor: middle"/><text fill="currentColor" y="10" dy="0.71em" style="font-family: sans-serif; font-size: 12px; fill: rgb(153, 153, 153); stroke: none; color: rgb(153, 153, 153); text-anchor: middle">2008</text></g><g class="tick" opacity="1" transform="translate(277.51846033229805,0)"><line stroke="currentColor" y2="-369.6666666666667" style="font-family: sans-serif; font-size: 10px; fill: none; stroke: rgb(221, 221, 221); color: rgb(51, 51, 51); text-anchor: middle"/><text fill="currentColor" y="10" dy="0.71em" style="font-family: sans-serif; font-size: 12px; fill: rgb(153, 153, 153); stroke: none; color: rgb(153, 153, 153); text-anchor: middle">2010</text></g><g class="tick" opacity="1" transform="translate(338.4842354431143,0)"><line stroke="currentColor" y2="-369.6666666666667" style="font-family: sans-serif; font-size: 10px; fill: none; stroke: rgb(221, 221, 221); color: rgb(51, 51, 51); text-anchor: middle"/><text fill="currentColor" y="10" dy="0.71em" style="font-family: sans-serif; font-size: 12px; fill: rgb(153, 153, 153); stroke: none; color: rgb(153, 153, 153); text-anchor: middle">2012</text></g><g class="tick" opacity="1" transform="translate(399.5335253143563,0)"><line stroke="currentColor" y2="-369.6666666666667" style="font-family: sans-serif; font-size: 10px; fill: none; stroke: rgb(221, 221, 221); color: rgb(51, 51, 51); text-anchor: middle"/><text fill="currentColor" y="10" dy="0.71em" style="font-family: sans-serif; font-size: 12px; fill: rgb(153, 153, 153); stroke: none; color: rgb(153, 153, 153); text-anchor: middle">2014</text></g><g class="tick" opacity="1" transform="translate(460.49930042517263,0)"><line stroke="currentColor" y2="-369.6666666666667" style="font-family: sans-serif; font-size: 10px; fill: none; stroke: rgb(221, 221, 221); color: rgb(51, 51, 51); text-anchor: middle"/><text fill="currentColor" y="10" dy="0.71em" style="font-family: sans-serif; font-size: 12px; fill: rgb(153, 153, 153); stroke: none; color: rgb(153, 153, 153); text-anchor: middle">2016</text></g><g class="tick" opacity="1" transform="translate(521.5485902964147,0)"><line stroke="currentColor" y2="-369.6666666666667" style="font-family: sans-serif; font-size: 10px; fill: none; stroke: rgb(221, 221, 221); color: rgb(51, 51, 51); text-anchor: middle"/><text fill="currentColor" y="10" dy="0.71em" style="font-family: sans-serif; font-size: 12px; fill: rgb(153, 153, 153); stroke: none; color: rgb(153, 153, 153); text-anchor: middle">2018</text></g></g><g class="y axis" fill="none" font-size="10" font-family="sans-serif" text-anchor="end"><path class="domain" stroke="currentColor" d="M577,370.1666666666667H0.5V0.5H577" style="font-family: sans-serif; font-size: 10px; fill: none; stroke: rgb(221, 221, 221); color: rgb(51, 51, 51); text-anchor: end"/><g class="tick" opacity="1" transform="translate(0,333.2000000000001)"><line stroke="currentColor" x2="577" style="font-family: sans-serif; font-size: 10px; fill: none; stroke: rgb(221, 221, 221); color: rgb(51, 51, 51); text-anchor: end"/><text fill="currentColor" x="-10" dy="0.32em" style="font-family: sans-serif; font-size: 12px; fill: rgb(153, 153, 153); stroke: none; color: rgb(153, 153, 153); text-anchor: end">-45.0%</text></g><g class="tick" opacity="1" transform="translate(0,296.23333333333346)"><line stroke="currentColor" x2="577" style="font-family: sans-serif; font-size: 10px; fill: none; stroke: rgb(221, 221, 221); color: rgb(51, 51, 51); text-anchor: end"/><text fill="currentColor" x="-10" dy="0.32em" style="font-family: sans-serif; font-size: 12px; fill: rgb(153, 153, 153); stroke: none; color: rgb(153, 153, 153); text-anchor: end">-40.0%</text></g><g class="tick" opacity="1" transform="translate(0,259.26666666666677)"><line stroke="currentColor" x2="577" style="font-family: sans-serif; font-size: 10px; fill: none; stroke: rgb(221, 221, 221); color: rgb(51, 51, 51); text-anchor: end"/><text fill="currentColor" x="-10" dy="0.32em" style="font-family: sans-serif; font-size: 12px; fill: rgb(153, 153, 153); stroke: none; color: rgb(153, 153, 153); text-anchor: end">-35.0%</text></g><g class="tick" opacity="1" transform="translate(0,222.30000000000004)"><line stroke="currentColor" x2="577" style="font-family: sans-serif; font-size: 10px; fill: none; stroke: rgb(221, 221, 221); color: rgb(51, 51, 51); text-anchor: end"/><text fill="currentColor" x="-10" dy="0.32em" style="font-family: sans-serif; font-size: 12px; fill: rgb(153, 153, 153); stroke: none; color: rgb(153, 153, 153); text-anchor: end">-30.0%</text></g><g class="tick" opacity="1" transform="translate(0,185.33333333333337)"><line stroke="currentColor" x2="577" style="font-family: sans-serif; font-size: 10px; fill: none; stroke: rgb(221, 221, 221); color: rgb(51, 51, 51); text-anchor: end"/><text fill="currentColor" x="-10" dy="0.32em" style="font-family: sans-serif; font-size: 12px; fill: rgb(153, 153, 153); stroke: none; color: rgb(153, 153, 153); text-anchor: end">-25.0%</text></g><g class="tick" opacity="1" transform="translate(0,148.36666666666673)"><line stroke="currentColor" x2="577" style="font-family: sans-serif; font-size: 10px; fill: none; stroke: rgb(221, 221, 221); color: rgb(51, 51, 51); text-anchor: end"/><text fill="currentColor" x="-10" dy="0.32em" style="font-family: sans-serif; font-size: 12px; fill: rgb(153, 153, 153); stroke: none; color: rgb(153, 153, 153); text-anchor: end">-20.0%</text></g><g class="tick" opacity="1" transform="translate(0,111.40000000000006)"><line stroke="currentColor" x2="577" style="font-family: sans-serif; font-size: 10px; fill: none; stroke: rgb(221, 221, 221); color: rgb(51, 51, 51); text-anchor: end"/><text fill="currentColor" x="-10" dy="0.32em" style="font-family: sans-serif; font-size: 12px; fill: rgb(153, 153, 153); stroke: none; color: rgb(153, 153, 153); text-anchor: end">-15.0%</text></g><g class="tick" opacity="1" transform="translate(0,74.43333333333332)"><line stroke="currentColor" x2="577" style="font-family: sans-serif; font-size: 10px; fill: none; stroke: rgb(221, 221, 221); color: rgb(51, 51, 51); text-anchor: end"/><text fill="currentColor" x="-10" dy="0.32em" style="font-family: sans-serif; font-size: 12px; fill: rgb(153, 153, 153); stroke: none; color: rgb(153, 153, 153); text-anchor: end">-10.0%</text></g><g class="tick" opacity="1" transform="translate(0,37.46666666666666)"><line stroke="currentColor" x2="577" style="font-family: sans-serif; font-size: 10px; fill: none; stroke: rgb(221, 221, 221); color: rgb(51, 51, 51); text-anchor: end"/><text fill="currentColor" x="-10" dy="0.32em" style="font-family: sans-serif; font-size: 12px; fill: rgb(153, 153, 153); stroke: none; color: rgb(153, 153, 153); text-anchor: end">-5.0%</text></g><g class="tick" opacity="1" transform="translate(0,0.5)"><line stroke="currentColor" x2="577" style="font-family: sans-serif; font-size: 10px; fill: none; stroke: rgb(221, 221, 221); color: rgb(51, 51, 51); text-anchor: end"/><text fill="currentColor" x="-10" dy="0.32em" style="font-family: sans-serif; font-size: 12px; fill: rgb(153, 153, 153); stroke: none; color: rgb(153, 153, 153); text-anchor: end">0.0%</text></g></g><path fill="none" stroke="#4285F4" stroke-width="2" class="line" d="M0,0C0.8629858577330157,0,1.7259717154660312,0,2.588957573199047,0C3.451943430932063,0,4.314929288665079,24.272613862273133,5.177915146398094,32.55823001999619C5.957386243705335,40.04201235600411,6.736857341012574,48.72666013653984,7.516328438319815,48.72666013653984C8.378154368824696,48.72666013653984,9.239980299329575,23.232080538188264,10.101806229834455,15.078089735333121C10.936953834092213,7.176510491651155,11.772101438349969,0,12.607249042607727,0C13.470234900340742,0,14.333220758073757,3.3623578529529032,15.196206615806773,10.087073558858709C16.03135422006453,16.59486295167078,16.866501824322288,30.802568723097295,17.701649428580044,41.5969307383742C18.56463528631306,52.751104820826995,19.427621144046075,60.86590737482364,20.29060700177909,75.99186736409807C21.153592859512106,91.11782735337249,22.01657871724512,132.35269067402075,22.879564574978136,132.35269067402075C23.714712179235896,132.35269067402075,24.549859783493652,118.90307610689693,25.38500738775141,109.7660048967422C26.24915317271256,100.31167426956824,27.113298957673713,84.12579167106767,27.977444742634862,76.23763189694421C28.81259234689262,68.61417547094567,29.647739951150378,66.18213752802325,30.482887555408137,62.58025749733871C31.345873413141152,58.85831479896469,32.208859270874164,54.45944792394703,33.07184512860718,54.45944792394703C33.934830986340195,54.45944792394703,34.79781684407322,58.498210568274665,35.66080270180623,58.498210568274665C36.44027379911347,58.498210568274665,37.21974489642071,34.96024315231925,37.999215993727944,34.96024315231925C38.86220185146096,34.96024315231925,39.72518770919398,52.04794319571658,40.588173566927,59.22039580580846C41.422161243956616,66.15183858357196,42.25614892098624,65.64880438479418,43.09013659801586,77.45316002293796C43.953122455748876,89.66795918118412,44.81610831348189,117.29720518020673,45.679094171214906,132.49336691822012C46.51424177547266,147.19932989049116,47.349389379730425,167.75948735103964,48.18453698398818,167.75948735103964C49.0475228417212,167.75948735103964,49.91050869945421,165.80434652680367,50.77349455718723,165.80434652680367C51.63648041492024,165.80434652680367,52.49946627265326,208.96944626507818,53.36245213038627,208.96944626507818C54.19759973464403,208.96944626507818,55.03274733890179,196.70666490600675,55.86789494315955,190.240656304381C56.7320407281207,183.5501335151988,57.59618651308185,169.45257052862442,58.460332298043,169.45257052862442C59.295479902300755,169.45257052862442,60.13062750655852,197.03312896726092,60.965775110816274,206.38630719298595C61.82876096854929,216.05125802623513,62.6917468262823,221.41954760718002,63.55473268401531,225.9054840153045C64.41771854174833,230.391420423429,65.28070439948135,230.75183756441825,66.14369025721436,233.30192564173282C66.9231613545216,235.60523100188794,67.70263245182885,240.418914482577,68.48210354913608,240.418914482577C69.3450894068691,240.418914482577,70.20807526460212,220.72871727451582,71.07106112233514,215.17108373755187C71.90504879936476,209.80019863933,72.73903647639438,211.8009060569352,73.573024153424,207.0667683829654C74.43601001115702,202.16802230586728,75.29899586889003,193.14791257488355,76.16198172662305,185.84099196527148C76.99712933088081,178.76977847209858,77.83227693513855,172.31103326839383,78.66742453939631,163.97648065325737C79.53041039712933,155.3641096176163,80.39339625486234,134.78745663678652,81.25638211259536,134.78745663678652C82.11936797032838,134.78745663678652,82.98235382806139,156.20323974825422,83.84533968579441,156.20323974825422C84.68048729005217,156.20323974825422,85.51563489430993,124.82431285146714,86.35078249856768,124.82431285146714C87.21492828352883,124.82431285146714,88.07907406848999,131.44640993662557,88.94321985345114,131.44640993662557C89.7783674577089,131.44640993662557,90.61351506196665,130.17299812658263,91.44866266622441,127.62617450649677C92.31164852395742,124.99445676574138,93.17463438169044,111.70923592416696,94.03762023942345,105.89087051145663C94.90060609715647,100.07250509874626,95.76359195488948,96.83424032797888,96.6265778126225,92.71598203023473C97.433887163405,88.86341781621601,98.2411965141875,81.87599545217348,99.04850586497,81.87599545217348C99.91149172270302,81.87599545217348,100.77447758043603,90.80754397536278,101.63746343816905,93.56436174253149C102.47145111519868,96.22854450408296,103.30543879222829,98.3648363108787,104.13942646925791,98.3648363108787C105.00241232699094,98.3648363108787,105.86539818472394,84.02878596925551,106.72838404245697,84.02878596925551C107.56353164671472,84.02878596925551,108.39867925097248,93.96964552939377,109.23382685523023,93.96964552939377C110.09681271296324,93.96964552939377,110.95979857069626,90.9503433019803,111.82278442842927,89.85076939742015C112.68577028616228,88.75119549286,113.5487561438953,88.22256500015827,114.41174200162831,87.37220210203286C115.24688960588607,86.5492702651373,116.08203721014384,86.52663091061422,116.9171848144016,84.83548852777693C117.78133059936275,83.08562592331336,118.6454763843239,77.90047596715343,119.50962216928505,74.21104136127991C120.34476977354281,70.64541328580485,121.17991737780056,67.0519906990775,122.01506498205832,63.09958970466249C122.87805083979133,59.01544201043365,123.74103669752435,53.9213213257123,124.60402255525736,50.050849927654724C125.46700841299038,46.18037852959713,126.32999427072339,39.87676131631699,127.19298012845641,39.87676131631699C127.97245122576366,39.87676131631699,128.75192232307091,41.35497475788415,129.53139342037815,42.67452909751379C130.39437927811116,44.13546425924658,131.25736513584417,48.4803196891179,132.12035099357718,48.4803196891179C132.9543386706068,48.4803196891179,133.7883263476364,13.463218710599529,134.62231402466603,8.187984785301975C135.48529988239903,2.729328261767325,136.34828574013207,0,137.21127159786508,0C138.04641920212285,0,138.8815668063806,0,139.71671441063836,0C140.57970026837137,0,141.4426861261044,2.8398467708899124,142.3056719838374,2.8398467708899124C143.16865784157042,2.8398467708899124,144.03164369930343,0,144.89462955703644,0C145.7297771612942,0,146.56492476555195,16.99105574801533,147.40007236980972,16.99105574801533C148.26421815477087,16.99105574801533,149.12836393973203,0,149.99250972469318,0C150.82765732895092,0,151.6628049332087,0,152.49795253746643,0C153.36093839519947,0,154.22392425293248,0,155.0869101106655,0C155.94989596839852,0,156.81288182613153,0,157.67586768386454,0C158.45533878117178,0,159.23480987847904,0,160.01428097578628,0C160.8772668335193,0,161.74025269125232,2.2525801653243605,162.60323854898533,6.757740495973081C163.43722622601496,11.111517750995128,164.27121390304455,46.08024140785315,165.10520158007418,46.08024140785315C165.9681874378072,46.08024140785315,166.83117329554022,44.47588488581431,167.69415915327323,43.119302874248696C168.52930675753097,41.8064815727336,169.36445436178875,41.46033979299613,170.1996019660465,38.142413630491C171.0625878237795,34.71388992923566,171.92557368151253,27.121321512372077,172.78855953924554,22.19540268362645C173.65154539697855,17.269483854880825,174.51453125471159,12.32090126920172,175.3775171124446,8.586900658017232C176.21266471670236,4.97335167945159,177.0478123209601,0,177.88295992521788,0C178.74710571017903,0,179.61125149514015,0.998147586166401,180.4753972801013,0.998147586166401C181.31054488435908,0.998147586166401,182.14569248861682,0,182.9808400928746,0C183.8438259506076,0,184.70681180834063,0,185.56979766607364,0C186.43278352380665,0,187.29576938153969,9.547392015150036,188.1587552392727,9.547392015150036C188.93822633657993,9.547392015150036,189.71769743388717,3.361255276250337,190.4971685311944,2.096904005251047C191.35899446169927,0.698968001750349,192.22082039220416,0,193.08264632270902,0C193.9177939269668,0,194.75294153122454,0,195.5880891354823,0C196.45107499321534,0,197.31406085094835,3.456081139355158,198.1770467086814,7.6191149536564025C199.01219431293913,11.647857354592961,199.84734191719687,24.266203592805642,200.6824895214546,24.266203592805642C201.54547537918765,24.266203592805642,202.40846123692066,24.006480313115354,203.2714470946537,23.48703375373478C204.1344329523867,22.96758719435422,204.9974188101197,21.565885962770267,205.86040466785272,17.723590380841234C206.6955522721105,14.005239817684059,207.53069987636823,0.7358339351337817,208.365847480626,0.7358339351337817C209.228833338359,0.7358339351337817,210.09181919609205,36.418727493086834,210.95480505382505,40.685874399277445C211.79111258531094,44.82110681777664,212.62742011679683,42.75349060852704,213.4637276482827,46.88872302702623C214.32671350601572,51.15586993321684,215.18969936374876,89.73927068423295,216.05268522148177,96.13105935369983C216.91567107921477,102.5228480231667,217.7786569369478,99.32695368843326,218.64164279468082,105.71874235790014C219.44895214546332,111.69815756482079,220.25626149624583,133.2136462599866,221.06357084702833,133.2136462599866C221.9253967775332,133.2136462599866,222.7872227080381,104.30715072988019,223.64904863854295,99.14547222989833C224.48419624280072,94.14357650986202,225.31934384705846,91.64262864984386,226.15449145131623,91.64262864984386C227.01747730904924,91.64262864984386,227.88046316678228,140.5426459712664,228.7434490245153,143.230209241644C229.57859662877306,145.83107692265455,230.4137442330308,147.13151076315984,231.24889183728857,147.13151076315984C232.11187769502158,147.13151076315984,232.97486355275458,127.51810067022168,233.8378494104876,127.51810067022168C234.7008352682206,127.51810067022168,235.5638211259536,150.39773462167602,236.42680698368662,166.86291285965765C237.2619545879444,182.79695631576914,238.09710219220213,210.26651606492553,238.9322497964599,224.07779064948875C239.7952356541929,238.3494410535374,240.65822151192594,243.5881808319161,241.52120736965895,250.04208305193262C242.35751490114484,256.29646947751314,243.19382243263075,259.63237668719813,244.03012996411664,262.6045710536134C244.89311582184965,265.6715788325496,245.75610167958268,264.3775039031807,246.6190875373157,267.92336960231523C247.4820733950487,271.4692353014497,248.3450592527817,304.45131497295745,249.20804511051472,304.45131497295745C249.98751620782195,304.45131497295745,250.7669873051292,299.68851212699315,251.54645840243643,290.1629064350646C252.40828433294132,279.63087514175646,253.2701102634462,248.89232635307286,254.1319361939511,239.3747727020843C254.96708379820885,230.1518404965505,255.80223140246662,227.79700643372493,256.63737900672436,225.5403743937836C257.50036486445737,223.20852128584414,258.36335072219043,224.37444783981388,259.22633657992344,222.04259473187443C260.0614841841812,219.7859626919331,260.8966317884389,195.31079837951887,261.7317793926967,187.12829073566957C262.5947652504297,178.6730328370253,263.4577511081627,177.95049739818919,264.3207369658957,172.8319354876649C265.1837228236287,167.71337357714063,266.04670868136174,156.41691927252396,266.90969453909474,156.41691927252396C267.7448421433525,156.41691927252396,268.5799897476103,170.05580631905912,269.41513735186805,170.05580631905912C270.2792831368292,170.05580631905912,271.14342892179036,166.8973622107237,272.0075747067515,160.58047399405288C272.84272231100925,154.47556189203527,273.677869915267,124.24124161604458,274.5130175195248,124.24124161604458C275.3760033772578,124.24124161604458,276.2389892349908,129.15099088882835,277.1019750927238,129.15099088882835C277.9649609504568,129.15099088882835,278.82794680818984,121.64764642261932,279.69093266592284,111.07920659768526C280.4704037632301,101.5335190138738,281.2498748605373,80.65988353077559,282.02934595784455,71.31967601691805C282.89117188834945,60.992631102042644,283.75299781885434,54.68903297290474,284.61482374935923,54.68903297290474C285.449971353617,54.68903297290474,286.2851189578747,59.15101600421682,287.1202665621325,63.10043284329977C287.9832524198655,67.18149691035215,288.8462382775985,79.01341779070857,289.7092241353315,79.01341779070857C290.5443717395893,79.01341779070857,291.37951934384705,68.6878117974265,292.2146669481048,68.6878117974265C293.07765280583783,68.6878117974265,293.94063866357084,71.21053903286752,294.80362452130385,71.21053903286752C295.66661037903685,71.21053903286752,296.52959623676986,62.8835976552063,297.39258209450287,59.148481234713714C298.22772969876064,55.53385244068854,299.0628773030184,54.790128870300045,299.8980249072762,49.106923346923814C300.7610107650092,43.234277639435184,301.6239966227422,32.31719470535843,302.4869824804752,24.00593689809431C303.3232900119611,15.951613135947222,304.159597543447,0,304.99590507493286,0C305.85889093266593,0,306.72187679039894,5.864100191850127,307.584862648132,5.864100191850127C308.447848505865,5.864100191850127,309.310834363598,0,310.173820221331,0C310.95329131863826,0,311.7327624159455,14.658682087399345,312.51223351325274,15.515311925379127C313.37405944375763,16.462448784931173,314.23588537426247,16.936017214707196,315.09771130476736,16.936017214707196C315.93285890902513,16.936017214707196,316.76800651328284,7.493999844026225,317.6031541175406,7.493999844026225C318.4661399752736,7.493999844026225,319.3291258330067,21.749239815195747,320.1921116907397,23.14751545956299C321.02725929499746,24.500685437982874,321.8624068992552,23.82410044877293,322.69755450351295,25.177270427192816C323.56054036124596,26.57554607156003,324.42352621897896,56.58760036612251,325.286512076712,66.41175714314913C326.149497934445,76.23591392017597,327.01248379217805,84.12221108935267,327.87546964991105,84.12221108935267C328.7106172541688,84.12221108935267,329.54576485842654,49.960740591058475,330.3809124626843,49.322004615506C331.2438983204173,48.661977440768446,332.1068841781503,48.99199102813723,332.96987003588333,48.33196385339967C333.8061775673692,47.692340744547806,334.64248509885516,34.44059461444726,335.47879263034105,26.53220677258346C336.34177848807406,18.371540261700623,337.20476434580706,0,338.0677502035401,0C338.9307360612731,0,339.79372191900615,0,340.65670777673915,0C341.46401712752163,0,342.27132647830416,0,343.07863582908664,0C343.9404617595915,0,344.80228769009636,0,345.66411362060126,0C346.499261224859,0,347.33440882911674,12.095451854574858,348.1695564333745,12.095451854574858C349.0325422911075,12.095451854574858,349.8955281488406,0,350.7585140065736,0C351.59366161083136,0,352.4288092150891,0,353.26395681934684,0C354.12694267707985,0,354.98992853481286,1.7094292443950485,355.85291439254587,1.7094292443950485C356.71590025027893,1.7094292443950485,357.57888610801194,0,358.441871965745,0C359.2770195700027,0,360.1121671742605,7.2551095156964935,360.9473147785182,7.2551095156964935C361.8103006362512,7.2551095156964935,362.6732864939843,2.1649621218047908,363.5362723517173,1.2826110844874614C364.3725798832032,0.4275370281624872,365.20888741468906,0,366.04519494617495,0C366.90818080390795,0,367.771166661641,0,368.634152519374,0C369.49713837710704,0,370.36012423484004,0,371.22311009257305,0C372.0025811898803,0,372.7820522871875,0,373.56152338449476,0C374.42334931499965,0,375.2851752455045,0,376.1470011760094,0C376.98214878026715,0,377.8172963845249,0,378.6524439887827,0C379.5154298465157,0,380.3784157042487,20.50086940654987,381.2414015619817,20.50086940654987C382.0765491662395,20.50086940654987,382.9116967704972,5.7706652492768145,383.74684437475497,5.7706652492768145C384.609830232488,5.7706652492768145,385.47281609022104,15.745388530217378,386.33580194795405,15.745388530217378C387.19878780568706,15.745388530217378,388.06177366342007,0,388.9247595211531,0C389.75990712541085,0,390.59505472966856,0,391.43020233392633,0C392.29318819165934,0,393.15617404939235,0,394.01915990712536,0C394.85546743861124,0,395.6917749700972,0,396.52808250158307,0C397.3910683593161,0,398.25405421704914,5.439065587087446,399.11704007478215,5.439065587087446C399.98002593251516,5.439065587087446,400.84301179024817,0,401.7059976479812,0C402.4854687452884,0,403.26493984259565,0,404.0444109399029,0C404.9062368704078,0,405.7680628009127,0,406.62988873141757,0C407.46503633567534,0,408.30018393993305,0,409.1353315441908,0C409.9983174019238,0,410.86130325965684,0,411.72428911738984,0C412.5594367216476,0,413.3945843259054,0,414.22973193016315,0C415.09271778789616,0,415.95570364562917,0,416.8186895033622,0C417.6816753610952,0,418.5446612188282,0.7556802487220139,419.4076470765612,0.7556802487220139C420.242794680819,0.7556802487220139,421.07794228507674,0,421.9130898893345,0C422.7760757470675,0,423.63906160480053,0,424.50204746253354,0C425.3383549940194,0,426.1746625255053,0,427.0109700569912,0C427.8739559147242,0,428.7369417724572,0,429.5999276301902,0C430.4629134879233,0,431.3258993456563,0,432.18888520338936,0C432.9683563006966,0,433.74782739800384,0,434.5272984953111,0C435.38912442581596,0,436.2509503563208,12.80783017793241,437.1127762868257,12.80783017793241C437.94792389108346,12.80783017793241,438.7830714953412,1.2657083473423605,439.61821909959895,1.2657083473423605C440.48120495733195,1.2657083473423605,441.344190815065,26.548572212872838,442.207176672798,26.548572212872838C443.0423242770558,26.548572212872838,443.8774718813135,16.92939837007796,444.7126194855713,16.92939837007796C445.5756053433043,16.92939837007796,446.4385912010373,55.02286806495323,447.3015770587703,64.81531018052183C448.1645629165033,74.60775229609044,449.0275487742363,79.50397335387474,449.89053463196933,79.50397335387474C450.7256822362271,79.50397335387474,451.56082984048487,45.35486032961686,452.39597744474264,34.14090252398802C453.26012322970377,22.5375711834418,454.12426901466495,11.880209416990759,454.98841479962607,11.880209416990759C455.82356240388384,11.880209416990759,456.6587100081416,29.35911430973823,457.4938576123994,38.813927940597786C458.3568434701324,48.58390202581909,459.2198293278654,68.15450921888561,460.0828151855984,69.65154374801911C460.9458010433314,71.14857827715261,461.8087869010644,71.89709554171937,462.67177275879743,71.89709554171937C463.47908210957996,71.89709554171937,464.28639146036244,57.306512503007205,465.09370081114497,54.42666564927046C465.95552674164986,51.352346378686626,466.8173526721547,52.88950601397855,467.6791786026596,49.81518674339471C468.51432620691736,46.836034825736085,469.3494738111751,34.76280896777435,470.18462141543284,32.3584448404424C471.04760727316585,29.87393524219934,471.9105931308989,31.11619004132087,472.7735789886319,28.63168044307781C473.6087265928897,26.227316315745863,474.4438741971474,7.059102252570093,475.2790218014052,5.494548382170227C476.1420076591382,3.8778427160903677,477.0049935168712,3.0694898830504385,477.8679793746042,3.0694898830504385C478.7309652323372,3.0694898830504385,479.5939510900702,4.332894880856598,480.45693694780323,4.897733339548043C481.292084552061,5.444351202797841,482.12723215631877,6.412347311835472,482.96237976057654,6.412347311835472C483.82536561830955,6.412347311835472,484.68835147604256,0,485.55133733377556,0C486.38764486526145,0,487.2239523967474,0,488.0602599282333,0C488.9232457859663,0,489.78623164369935,0.6719741565925113,490.64921750143236,0.6719741565925113C491.51220335916537,0.6719741565925113,492.3751892168984,0,493.2381750746314,0C494.0176461719386,0,494.79711726924586,0,495.5765883665531,0C496.438414297058,0,497.3002402275628,0.1357974724797703,498.1620661580677,0.40739241743931087C498.9972137623255,0.6705799818684814,499.83236136658326,6.012867836059911,500.667508970841,8.09624480459888C501.53049482857404,10.249067672089097,502.39348068630704,11.627656772941457,503.25646654404005,13.018478580666825C504.0916141482978,14.364435168788152,504.92676175255554,15.55588390013091,505.7619093568133,16.354171947941673C506.6248952145463,17.179069597346142,507.4878810722794,17.824268358252045,508.3508669300124,17.824268358252045C509.2138527877454,17.824268358252045,510.0768386454784,6.935469958193195,510.9398245032114,4.106528264719658C511.7749721074692,1.3688427549065527,512.610119711727,0,513.4452673159847,0C514.3082531737177,0,515.1712390314507,2.153958817325898,516.0342248891837,2.153958817325898C516.8705324206696,2.153958817325898,517.7068399521555,0,518.5431474836414,0C519.4061333413745,0,520.2691191991074,0,521.1321050568405,0C521.9950909145736,0,522.8580767723065,10.255876300590035,523.7210626300396,14.752358042141177C524.5005337273468,18.81369638934859,525.280004824654,25.90606751777969,526.0594759219613,25.90606751777969C526.9213018524662,25.90606751777969,527.783127782971,14.637997581025964,528.6449537134758,10.27874875878061C529.4801013177336,6.054443036012473,530.3152489219914,0,531.1503965262491,0C532.0133823839822,0,532.8763682417151,2.458957375727999,533.7393540994482,2.458957375727999C534.5745017037059,2.458957375727999,535.4096493079637,0,536.2447969122214,0C537.1077827699545,0,537.9707686276874,0,538.8337544854205,0C539.6967403431536,0,540.5597262008865,0.30786327803624125,541.4227120586196,0.9235898341087239C542.2578596628773,1.519454243211114,543.0930072671351,33.39345894916062,543.9281548713928,33.39345894916062C544.7911407291258,33.39345894916062,545.6541265868589,22.6895376876492,546.5171124445918,22.6895376876492C547.3534199760777,22.6895376876492,548.1897275075637,68.30945742677731,549.0260350390496,68.30945742677731C549.8890208967825,68.30945742677731,550.7520067545156,32.962990719477844,551.6149926122486,22.11385717531549C552.4779784699816,11.264723631152657,553.3409643277146,5.587378566943266,554.2039501854476,3.214656161802951C554.9834212827549,1.071552053934317,555.7628923800621,0,556.5423634773693,0C557.4041894078742,0,558.2660153383791,0,559.127841268884,0C559.9629888731417,0,560.7981364773996,28.73691754337722,561.6332840816573,28.73691754337722C562.4962699393903,28.73691754337722,563.3592557971233,10.335324011038018,564.2222416548564,6.119599743377723C565.0573892591141,2.0398665811259082,565.8925368633719,0,566.7276844676296,0C567.5906703253627,0,568.4536561830956,3.541111335705392,569.3166420408287,3.541111335705392C570.1796278985616,3.541111335705392,571.0426137562947,0,571.9055996140277,0C572.7407472182854,0,573.5758948225432,0,574.4110424268009,0C575.274028284534,0,576.1370141422669,0,577,0" style="font-family: -apple-system, BlinkMacSystemFont, &quot;Segoe UI&quot;, Roboto, Oxygen-Sans, Ubuntu, Cantarell, &quot;Helvetica Neue&quot;, sans-serif; font-size: 16px; fill: none; stroke: rgb(66, 133, 244); color: rgb(51, 51, 51); text-anchor: start"/></g><text dy="-1em" class="axis-label x" x="358.5" y="444.6666666666667" style="font-family: -apple-system, BlinkMacSystemFont, &quot;Segoe UI&quot;, Roboto, Oxygen-Sans, Ubuntu, Cantarell, &quot;Helvetica Neue&quot;, sans-serif; font-size: 14px; fill: rgb(153, 153, 153); stroke: none; color: rgb(51, 51, 51); text-anchor: middle">Time</text><text transform="rotate(-90)" y="0" dy="1em" class="axis-label y" style="font-family: -apple-system, BlinkMacSystemFont, &quot;Segoe UI&quot;, Roboto, Oxygen-Sans, Ubuntu, Cantarell, &quot;Helvetica Neue&quot;, sans-serif; font-size: 14px; fill: rgb(153, 153, 153); stroke: none; color: rgb(51, 51, 51); text-anchor: middle" x="-184.83333333333334">Drawdown</text></svg>