<svg xmlns="http://www.w3.org/2000/svg" class="chart-svg" viewBox="0 0 667 444.667"><g class="chart"><g class="x axis" fill="none" font-size="10" font-family="sans-serif" text-anchor="middle"><path class="domain" stroke="#ddd" d="M70.5 20v370.167h577V20" color="#333"/><g class="tick"><path stroke="#ddd" color="#333" d="M103.488 389.667V20"/><text fill="#999" y="10" dy=".71em" font-size="12" color="#999" transform="translate(103.488 389.667)">2002</text></g><g class="tick"><path stroke="#ddd" color="#333" d="M164.454 389.667V20"/><text fill="#999" y="10" dy=".71em" font-size="12" color="#999" transform="translate(164.454 389.667)">2004</text></g><g class="tick"><path stroke="#ddd" color="#333" d="M225.503 389.667V20"/><text fill="#999" y="10" dy=".71em" font-size="12" color="#999" transform="translate(225.503 389.667)">2006</text></g><g class="tick"><path stroke="#ddd" color="#333" d="M286.47 389.667V20"/><text fill="#999" y="10" dy=".71em" font-size="12" color="#999" transform="translate(286.47 389.667)">2008</text></g><g class="tick"><path stroke="#ddd" color="#333" d="M347.518 389.667V20"/><text fill="#999" y="10" dy=".71em" font-size="12" color="#999" transform="translate(347.518 389.667)">2010</text></g><g class="tick"><path stroke="#ddd" color="#333" d="M408.484 389.667V20"/><text fill="#999" y="10" dy=".71em" font-size="12" color="#999" transform="translate(408.484 389.667)">2012</text></g><g class="tick"><path stroke="#ddd" color="#333" d="M469.534 389.667V20"/><text fill="#999" y="10" dy=".71em" font-size="12" color="#999" transform="translate(469.534 389.667)">2014</text></g><g class="tick"><path stroke="#ddd" color="#333" d="M530.5 389.667V20"/><text fill="#999" y="10" dy=".71em" font-size="12" color="#999" transform="translate(530.5 389.667)">2016</text></g><g class="tick"><path stroke="#ddd" color="#333" d="M591.549 389.667V20"/><text fill="#999" y="10" dy=".71em" font-size="12" color="#999" transform="translate(591.549 389.667)">2018</text></g></g><g class="y axis" fill="none" font-size="10" font-family="sans-serif" text-anchor="end"><path class="domain" stroke="#ddd" d="M647 390.167H70.5V20.5H647" color="#333"/><g class="tick"><path stroke="#ddd" color="#333" d="M70 337.357h577"/><text fill="#999" x="-10" dy=".32em" font-size="12" color="#999" transform="translate(70 337.357)">-30.0%</text></g><g class="tick"><path stroke="#ddd" color="#333" d="M70 284.548h577"/><text fill="#999" x="-10" dy=".32em" font-size="12" color="#999" transform="translate(70 284.548)">-25.0%</text></g><g class="tick"><path stroke="#ddd" color="#333" d="M70 231.738h577"/><text fill="#999" x="-10" dy=".32em" font-size="12" color="#999" transform="translate(70 231.738)">-20.0%</text></g><g class="tick"><path stroke="#ddd" color="#333" d="M70 178.929h577"/><text fill="#999" x="-10" dy=".32em" font-size="12" color="#999" transform="translate(70 178.929)">-15.0%</text></g><g class="tick"><path stroke="#ddd" color="#333" d="M70 126.119h577"/><text fill="#999" x="-10" dy=".32em" font-size="12" color="#999" transform="translate(70 126.119)">-10.0%</text></g><g class="tick"><path stroke="#ddd" color="#333" d="M70 73.31h577"/><text fill="#999" x="-10" dy=".32em" font-size="12" color="#999" transform="translate(70 73.31)">-5.0%</text></g><g class="tick"><path stroke="#ddd" color="#333" d="M70 20.5h577"/><text fill="#999" x="-10" dy=".32em" font-size="12" color="#999" transform="translate(70 20.5)">0.0%</text></g></g><path fill="none" stroke="#4285f4" stroke-width="2" class="line" d="M70 20h43.09c.863 0 1.726 27.235 2.59 27.235.834 0 1.67-.21 2.505-.628.863-.433 1.726-26.607 2.588-26.607.863 0 1.726 22.012 2.59 22.012.835 0 1.67-22.012 2.505-22.012h2.592c.835 0 1.67 20.17 2.506 20.17.863 0 1.726-8.864 2.589-12.226S135.28 20 136.144 20h15.113c.862 0 1.725 4.925 2.588 4.925.835 0 1.67-4.925 2.506-4.925h58.544c.835 0 1.67 9.92 2.505 9.92.864 0 1.728-9.92 2.593-9.92h12.611c.833 0 1.667 44.667 2.501 44.667.863 0 1.726-10.24 2.59-16.295.834-5.858 1.67-14.615 2.505-19.324.863-4.866 1.726-9.048 2.589-9.048h12.781c.863 0 1.726 3.504 2.589 3.504.78 0 1.559-3.504 2.338-3.504h5.091c.863 0 1.726.503 2.589 1.51.835.973 1.67 14.614 2.505 14.614.863 0 1.726-7.827 2.59-10.514.862-2.687 1.725-5.61 2.588-5.61h2.506c.863 0 1.726 48.109 2.589 48.113.836.004 1.672.002 2.509.007.863.004 1.726 59.302 2.589 62.717.863 3.414 1.726 1.707 2.589 5.121.807 3.194 1.614 31.851 2.422 31.851.861 0 1.723-46.671 2.585-60.082.835-12.996 1.67-20.347 2.505-20.347.863 0 1.726 69.874 2.59 69.874.835 0 1.67-.975 2.505-2.925.863-2.015 1.726-39.533 2.589-39.533s1.726 29.952 2.589 53.017c.835 22.322 1.67 62.977 2.505 82.117.863 19.778 1.726 25.53 2.59 32.964.836 7.205 1.672 11.605 2.508 11.605.863 0 1.726-.249 2.59-.249.862 0 1.725 51.622 2.588 51.622.78 0 1.559-13.547 2.338-32.963.862-21.467 1.724-73.963 2.586-95.314.835-20.69 1.67-24.787 2.505-32.716.863-8.193 1.726-5.015 2.59-15.044.834-9.706 1.67-52.796 2.505-70.117.863-17.898 1.726-22.227 2.589-34.309.863-12.081 1.726-38.18 2.589-38.18.835 0 1.67 15.569 2.505 15.569.864 0 1.728-22.798 2.593-22.798h2.505c.863 0 1.726.082 2.589.082s1.726-.082 2.589-.082h4.924c.835 0 1.67 1.96 2.505 5.688.863 3.852 1.726 17.424 2.59 17.424.834 0 1.67-23.112 2.505-23.112h12.781c.863 0 1.726 2.002 2.589 2.002S379.31 20 380.174 20c.78 0 1.559 15.925 2.338 15.925.862 0 1.724-1.455 2.586-4.192.835-2.653 1.67-11.733 2.505-11.733.863 0 1.726 16.404 2.59 16.404.834 0 1.67-3.241 2.505-3.241.863 0 1.726 41.73 2.589 54.05.862 12.318 1.725 19.863 2.588 19.863.836 0 1.67-52.762 2.506-57.7.863-5.101 1.726-2.602 2.589-7.652.836-4.894 1.672-21.724 2.509-21.724h10.185c.835 0 1.67 11.75 2.506 11.75.863 0 1.726-11.75 2.589-11.75h7.683c.835 0 1.67 5.221 2.505 5.221.863 0 1.726-5.221 2.59-5.221h15.114c.863 0 1.726 24.788 2.59 24.788.835 0 1.67-24.788 2.505-24.788.863 0 1.726 9.86 2.589 9.86s1.726-9.86 2.589-9.86h7.603c.863 0 1.726 3.572 2.589 3.572S470.843 20 471.706 20h32.821c.862 0 1.724 15.306 2.586 15.306.835 0 1.67-15.306 2.505-15.306.863 0 1.726 33.198 2.59 33.198.834 0 1.67-16.785 2.505-16.785.863 0 1.726 53.778 2.589 65.923.863 12.144 1.726 18.216 2.589 18.216.835 0 1.67-51.962 2.505-68.65C523.26 34.635 524.124 20 524.988 20c.836 0 1.67 23.348 2.506 36.12.863 13.197 1.726 41.728 2.589 41.937.863.208 1.726.313 2.589.313.807 0 1.614-22.479 2.422-28.565.862-6.497 1.723-3.248 2.585-9.745.835-6.296 1.67-23.234 2.506-28.698.863-5.646 1.726-6.575 2.589-8.47.835-1.833 1.67-2.892 2.505-2.892h22.883c.835 0 1.67 6.283 2.506 8.421.862 2.21 1.725 3.36 2.588 4.484.836 1.088 1.67 2.225 2.506 2.225.863 0 1.726-.15 2.589-.451.863-.3 1.726-14.679 2.589-14.679h2.505c.863 0 1.726.596 2.59.596.836 0 1.672-.596 2.508-.596h2.59c.862 0 1.725 13.07 2.588 18.644.78 5.035 1.559 13.539 2.338 13.539.862 0 1.724-19.826 2.586-24.862.835-4.88 1.67-7.321 2.505-7.321.863 0 1.726 1.15 2.59 1.15.835 0 1.67-1.15 2.505-1.15h5.178c.835 0 1.67 44.153 2.505 44.153.863 0 1.726-17.632 2.59-17.632.835 0 1.672 63.245 2.508 63.245.863 0 1.726-54.849 2.589-68.816.863-13.967 1.726-20.95 2.589-20.95h4.924c.835 0 1.67 38.894 2.505 38.894.863 0 1.726-31.516 2.59-34.525.834-2.913 1.67-4.369 2.505-4.369.863 0 1.726 2.944 2.589 2.944S641.043 20 641.906 20H647" font-family="-apple-system,BlinkMacSystemFont,&quot;Segoe UI&quot;,Roboto,Oxygen-Sans,Ubuntu,Cantarell,&quot;Helvetica Neue&quot;,sans-serif" font-size="16" color="#333"/></g><text dy="-1em" class="axis-label x" x="358.5" y="444.667" font-family="-apple-system,BlinkMacSystemFont,&quot;Segoe UI&quot;,Roboto,Oxygen-Sans,Ubuntu,Cantarell,&quot;Helvetica Neue&quot;,sans-serif" font-size="14" fill="#999" color="#333" text-anchor="middle">Time</text><text transform="rotate(-90)" dy="1em" class="axis-label y" x="-184.833" font-family="-apple-system,BlinkMacSystemFont,&quot;Segoe UI&quot;,Roboto,Oxygen-Sans,Ubuntu,Cantarell,&quot;Helvetica Neue&quot;,sans-serif" font-size="14" fill="#999" color="#333" text-anchor="middle">Drawdown</text></svg>