<svg xmlns="http://www.w3.org/2000/svg" class="chart-svg" viewBox="0 0 667 444.667"><g class="chart"><g class="x axis" fill="none" font-size="10" font-family="sans-serif" text-anchor="middle"><path class="domain" stroke="#ddd" d="M70.5 20v370.167h577V20" color="#333"/><g class="tick"><path stroke="#ddd" color="#333" d="M103.488 389.667V20"/><text fill="#999" y="10" dy=".71em" font-size="12" color="#999" transform="translate(103.488 389.667)">2002</text></g><g class="tick"><path stroke="#ddd" color="#333" d="M164.454 389.667V20"/><text fill="#999" y="10" dy=".71em" font-size="12" color="#999" transform="translate(164.454 389.667)">2004</text></g><g class="tick"><path stroke="#ddd" color="#333" d="M225.503 389.667V20"/><text fill="#999" y="10" dy=".71em" font-size="12" color="#999" transform="translate(225.503 389.667)">2006</text></g><g class="tick"><path stroke="#ddd" color="#333" d="M286.47 389.667V20"/><text fill="#999" y="10" dy=".71em" font-size="12" color="#999" transform="translate(286.47 389.667)">2008</text></g><g class="tick"><path stroke="#ddd" color="#333" d="M347.518 389.667V20"/><text fill="#999" y="10" dy=".71em" font-size="12" color="#999" transform="translate(347.518 389.667)">2010</text></g><g class="tick"><path stroke="#ddd" color="#333" d="M408.484 389.667V20"/><text fill="#999" y="10" dy=".71em" font-size="12" color="#999" transform="translate(408.484 389.667)">2012</text></g><g class="tick"><path stroke="#ddd" color="#333" d="M469.534 389.667V20"/><text fill="#999" y="10" dy=".71em" font-size="12" color="#999" transform="translate(469.534 389.667)">2014</text></g><g class="tick"><path stroke="#ddd" color="#333" d="M530.5 389.667V20"/><text fill="#999" y="10" dy=".71em" font-size="12" color="#999" transform="translate(530.5 389.667)">2016</text></g><g class="tick"><path stroke="#ddd" color="#333" d="M591.549 389.667V20"/><text fill="#999" y="10" dy=".71em" font-size="12" color="#999" transform="translate(591.549 389.667)">2018</text></g></g><g class="y axis" fill="none" font-size="10" font-family="sans-serif" text-anchor="end"><path class="domain" stroke="#ddd" d="M647 390.167H70.5V20.5H647" color="#333"/><g class="tick"><path stroke="#ddd" color="#333" d="M70 353.2h577"/><text fill="#999" x="-10" dy=".32em" font-size="12" color="#999" transform="translate(70 353.2)">-45.0%</text></g><g class="tick"><path stroke="#ddd" color="#333" d="M70 316.233h577"/><text fill="#999" x="-10" dy=".32em" font-size="12" color="#999" transform="translate(70 316.233)">-40.0%</text></g><g class="tick"><path stroke="#ddd" color="#333" d="M70 279.267h577"/><text fill="#999" x="-10" dy=".32em" font-size="12" color="#999" transform="translate(70 279.267)">-35.0%</text></g><g class="tick"><path stroke="#ddd" color="#333" d="M70 242.3h577"/><text fill="#999" x="-10" dy=".32em" font-size="12" color="#999" transform="translate(70 242.3)">-30.0%</text></g><g class="tick"><path stroke="#ddd" color="#333" d="M70 205.333h577"/><text fill="#999" x="-10" dy=".32em" font-size="12" color="#999" transform="translate(70 205.333)">-25.0%</text></g><g class="tick"><path stroke="#ddd" color="#333" d="M70 168.367h577"/><text fill="#999" x="-10" dy=".32em" font-size="12" color="#999" transform="translate(70 168.367)">-20.0%</text></g><g class="tick"><path stroke="#ddd" color="#333" d="M70 131.4h577"/><text fill="#999" x="-10" dy=".32em" font-size="12" color="#999" transform="translate(70 131.4)">-15.0%</text></g><g class="tick"><path stroke="#ddd" color="#333" d="M70 94.433h577"/><text fill="#999" x="-10" dy=".32em" font-size="12" color="#999" transform="translate(70 94.433)">-10.0%</text></g><g class="tick"><path stroke="#ddd" color="#333" d="M70 57.467h577"/><text fill="#999" x="-10" dy=".32em" font-size="12" color="#999" transform="translate(70 57.467)">-5.0%</text></g><g class="tick"><path stroke="#ddd" color="#333" d="M70 20.5h577"/><text fill="#999" x="-10" dy=".32em" font-size="12" color="#999" transform="translate(70 20.5)">0.0%</text></g></g><path fill="none" stroke="#4285f4" stroke-width="2" class="line" d="M70 20h2.589c.863 0 1.726 24.273 2.589 32.558.78 7.484 1.559 16.169 2.338 16.169.862 0 1.724-25.495 2.586-33.649C80.937 27.177 81.772 20 82.607 20c.863 0 1.726 3.362 2.59 10.087.834 6.508 1.67 20.716 2.505 31.51.863 11.154 1.726 19.269 2.589 34.395.863 15.126 1.726 56.36 2.589 56.36.835 0 1.67-13.449 2.505-22.586.864-9.454 1.728-25.64 2.592-33.528.836-7.624 1.67-10.056 2.506-13.658.863-3.722 1.726-8.12 2.589-8.12s1.726 4.038 2.589 4.038c.78 0 1.559-23.538 2.338-23.538.863 0 1.726 17.088 2.59 24.26.833 6.932 1.667 6.429 2.501 18.233.863 12.215 1.726 39.844 2.59 55.04.834 14.706 1.67 35.266 2.505 35.266.863 0 1.726-1.955 2.588-1.955.863 0 1.726 43.165 2.59 43.165.835 0 1.67-12.262 2.505-18.728.864-6.69 1.728-20.788 2.592-20.788.835 0 1.67 27.58 2.506 36.933.863 9.665 1.726 15.034 2.589 19.52.863 4.485 1.726 4.846 2.589 7.396.78 2.303 1.559 7.117 2.338 7.117.863 0 1.726-19.69 2.59-25.248.833-5.37 1.667-3.37 2.501-8.104.863-4.899 1.726-13.92 2.589-21.226.835-7.071 1.67-13.53 2.505-21.865.863-8.612 1.726-29.189 2.59-29.189.862 0 1.725 21.416 2.588 21.416.835 0 1.67-31.379 2.506-31.379.864 0 1.728 6.622 2.592 6.622.835 0 1.67-1.273 2.506-3.82.863-2.632 1.726-15.917 2.589-21.735s1.726-9.057 2.589-13.175c.807-3.853 1.614-10.84 2.422-10.84.862 0 1.725 8.932 2.588 11.688.834 2.665 1.668 4.8 2.502 4.8.863 0 1.726-14.335 2.59-14.335.835 0 1.67 9.94 2.505 9.94.863 0 1.726-3.019 2.589-4.118.863-1.1 1.726-1.628 2.589-2.479.835-.823 1.67-.845 2.505-2.537.864-1.75 1.728-6.935 2.593-10.624.835-3.566 1.67-7.159 2.505-11.111.863-4.085 1.726-9.179 2.589-13.05.863-3.87 1.726-10.173 2.589-10.173.78 0 1.559 1.478 2.338 2.798.863 1.46 1.726 5.805 2.59 5.805.833 0 1.667-35.017 2.501-40.292.863-5.459 1.726-8.188 2.59-8.188h2.505c.863 0 1.726 2.84 2.589 2.84s1.726-2.84 2.589-2.84c.835 0 1.67 16.991 2.505 16.991.864 0 1.728-16.991 2.593-16.991h10.021c.863 0 1.726 2.253 2.59 6.758.833 4.354 1.667 39.322 2.501 39.322.863 0 1.726-1.604 2.59-2.96.834-1.314 1.67-1.66 2.505-4.978.863-3.428 1.726-11.02 2.589-15.947.863-4.926 1.726-9.874 2.589-13.608.835-3.614 1.67-8.587 2.505-8.587.864 0 1.728.998 2.592.998.836 0 1.67-.998 2.506-.998h2.589c.863 0 1.726 9.547 2.589 9.547.78 0 1.559-6.186 2.338-7.45.862-1.398 1.724-2.097 2.586-2.097h2.505c.863 0 1.726 3.456 2.589 7.62.835 4.028 1.67 16.646 2.505 16.646.863 0 1.726-.26 2.59-.779.862-.52 1.725-1.921 2.588-5.763.836-3.719 1.67-16.988 2.506-16.988.863 0 1.726 35.683 2.589 39.95.836 4.135 1.672 2.067 2.509 6.203.863 4.267 1.726 42.85 2.589 49.242.863 6.392 1.726 3.196 2.589 9.588.807 5.98 1.614 27.495 2.422 27.495.861 0 1.723-28.907 2.585-34.069.835-5.001 1.67-7.502 2.505-7.502.863 0 1.726 48.9 2.59 51.587.835 2.601 1.67 3.902 2.505 3.902.863 0 1.726-19.614 2.589-19.614s1.726 22.88 2.589 39.345c.835 15.934 1.67 43.404 2.505 57.215.863 14.271 1.726 19.51 2.59 25.964.836 6.254 1.672 9.59 2.508 12.563.863 3.067 1.726 1.773 2.59 5.318.862 3.546 1.725 36.528 2.588 36.528.78 0 1.559-4.762 2.338-14.288.862-10.532 1.724-41.27 2.586-50.788.835-9.223 1.67-11.578 2.505-13.835.863-2.331 1.726-1.166 2.59-3.497.834-2.257 1.67-26.732 2.505-34.915.863-8.455 1.726-9.178 2.589-14.296.863-5.119 1.726-16.415 2.589-16.415.835 0 1.67 13.639 2.505 13.639.864 0 1.728-3.159 2.593-9.476.835-6.104 1.67-36.339 2.505-36.339.863 0 1.726 4.91 2.589 4.91s1.726-7.503 2.589-18.072c.78-9.545 1.559-30.42 2.338-39.76.862-10.326 1.724-16.63 2.586-16.63.835 0 1.67 4.462 2.505 8.411.863 4.081 1.726 15.913 2.59 15.913.834 0 1.67-10.325 2.505-10.325.863 0 1.726 2.523 2.589 2.523s1.726-8.327 2.589-12.063c.835-3.614 1.67-4.358 2.505-10.041.863-5.873 1.726-16.79 2.589-25.101.836-8.054 1.673-24.006 2.509-24.006.863 0 1.726 5.864 2.589 5.864S379.31 20 380.174 20c.78 0 1.559 14.659 2.338 15.515.862.947 1.724 1.421 2.586 1.421.835 0 1.67-9.442 2.505-9.442.863 0 1.726 14.255 2.59 15.654.834 1.353 1.67.676 2.505 2.03.863 1.398 1.726 31.41 2.589 41.234.862 9.824 1.725 17.71 2.588 17.71.836 0 1.67-34.161 2.506-34.8.863-.66 1.726-.33 2.589-.99.836-.64 1.672-13.891 2.509-21.8.863-8.16 1.726-26.532 2.589-26.532h7.596c.835 0 1.67 12.095 2.506 12.095.863 0 1.726-12.095 2.589-12.095h2.505c.863 0 1.726 1.71 2.589 1.71s1.726-1.71 2.589-1.71c.835 0 1.67 7.255 2.505 7.255.863 0 1.726-5.09 2.59-5.972.836-.855 1.672-1.283 2.508-1.283h12.607c.863 0 1.726 20.5 2.59 20.5.835 0 1.67-14.73 2.505-14.73.863 0 1.726 9.975 2.589 9.975S458.062 20 458.925 20h7.603c.863 0 1.726 5.44 2.589 5.44s1.726-5.44 2.589-5.44H486.819c.863 0 1.726.756 2.589.756.835 0 1.67-.756 2.505-.756h12.614c.862 0 1.724 12.808 2.586 12.808.835 0 1.67-11.542 2.505-11.542.863 0 1.726 25.283 2.59 25.283.834 0 1.67-9.62 2.505-9.62.863 0 1.726 38.094 2.589 47.886.863 9.793 1.726 14.689 2.589 14.689.835 0 1.67-34.15 2.505-45.363.864-11.603 1.728-22.26 2.592-22.26.836 0 1.67 17.478 2.506 26.933.863 9.77 1.726 29.34 2.589 30.838.863 1.497 1.726 2.245 2.589 2.245.807 0 1.614-14.59 2.422-17.47.862-3.075 1.723-1.537 2.585-4.612.835-2.979 1.67-15.052 2.506-17.457.863-2.484 1.726-1.242 2.589-3.726.835-2.405 1.67-21.573 2.505-23.137.863-1.617 1.726-2.426 2.589-2.426s1.726 1.264 2.589 1.829c.835.546 1.67 1.514 2.505 1.514.863 0 1.726-6.412 2.59-6.412h2.508c.863 0 1.726.672 2.59.672.862 0 1.725-.672 2.588-.672h2.339a8.56 8.56 0 012.585.407c.835.264 1.67 5.606 2.506 7.69.862 2.152 1.725 3.53 2.588 4.921.836 1.346 1.67 2.538 2.506 3.336.863.825 1.726 1.47 2.589 1.47s1.726-10.889 2.589-13.717c.835-2.738 1.67-4.107 2.505-4.107.863 0 1.726 2.154 2.59 2.154.836 0 1.672-2.154 2.508-2.154h2.59c.862 0 1.725 10.256 2.588 14.752.78 4.062 1.559 11.154 2.338 11.154.862 0 1.724-11.268 2.586-15.627.835-4.225 1.67-10.279 2.505-10.279.863 0 1.726 2.459 2.59 2.459.835 0 1.67-2.459 2.505-2.459h2.589c.863 0 1.726.308 2.589.924.835.595 1.67 32.47 2.505 32.47.863 0 1.726-10.704 2.59-10.704.835 0 1.672 45.62 2.508 45.62.863 0 1.726-35.347 2.589-46.196.863-10.85 1.726-16.527 2.589-18.9.78-2.142 1.559-3.214 2.338-3.214h2.586c.835 0 1.67 28.737 2.505 28.737.863 0 1.726-18.402 2.59-22.617.834-4.08 1.67-6.12 2.505-6.12.863 0 1.726 3.541 2.589 3.541S641.043 20 641.906 20H647" font-family="-apple-system,BlinkMacSystemFont,&quot;Segoe UI&quot;,Roboto,Oxygen-Sans,Ubuntu,Cantarell,&quot;Helvetica Neue&quot;,sans-serif" font-size="16" color="#333"/></g><text dy="-1em" class="axis-label x" x="358.5" y="444.667" font-family="-apple-system,BlinkMacSystemFont,&quot;Segoe UI&quot;,Roboto,Oxygen-Sans,Ubuntu,Cantarell,&quot;Helvetica Neue&quot;,sans-serif" font-size="14" fill="#999" color="#333" text-anchor="middle">Time</text><text transform="rotate(-90)" dy="1em" class="axis-label y" x="-184.833" font-family="-apple-system,BlinkMacSystemFont,&quot;Segoe UI&quot;,Roboto,Oxygen-Sans,Ubuntu,Cantarell,&quot;Helvetica Neue&quot;,sans-serif" font-size="14" fill="#999" color="#333" text-anchor="middle">Drawdown</text></svg>