<svg xmlns="http://www.w3.org/2000/svg" class="chart-svg" viewBox="0 0 667 444.667"><g class="chart"><g class="x axis" fill="none" font-size="10" font-family="sans-serif" text-anchor="middle"><path class="domain" stroke="#ddd" d="M70.5 20v370.167h577V20" color="#333"/><g class="tick"><path stroke="#ddd" color="#333" d="M103.637 389.667V20"/><text fill="#999" y="10" dy=".71em" font-size="12" color="#999" transform="translate(103.637 389.667)">2002</text></g><g class="tick"><path stroke="#ddd" color="#333" d="M164.878 389.667V20"/><text fill="#999" y="10" dy=".71em" font-size="12" color="#999" transform="translate(164.878 389.667)">2004</text></g><g class="tick"><path stroke="#ddd" color="#333" d="M226.202 389.667V20"/><text fill="#999" y="10" dy=".71em" font-size="12" color="#999" transform="translate(226.202 389.667)">2006</text></g><g class="tick"><path stroke="#ddd" color="#333" d="M287.443 389.667V20"/><text fill="#999" y="10" dy=".71em" font-size="12" color="#999" transform="translate(287.443 389.667)">2008</text></g><g class="tick"><path stroke="#ddd" color="#333" d="M348.767 389.667V20"/><text fill="#999" y="10" dy=".71em" font-size="12" color="#999" transform="translate(348.767 389.667)">2010</text></g><g class="tick"><path stroke="#ddd" color="#333" d="M410.008 389.667V20"/><text fill="#999" y="10" dy=".71em" font-size="12" color="#999" transform="translate(410.008 389.667)">2012</text></g><g class="tick"><path stroke="#ddd" color="#333" d="M471.332 389.667V20"/><text fill="#999" y="10" dy=".71em" font-size="12" color="#999" transform="translate(471.332 389.667)">2014</text></g><g class="tick"><path stroke="#ddd" color="#333" d="M532.573 389.667V20"/><text fill="#999" y="10" dy=".71em" font-size="12" color="#999" transform="translate(532.573 389.667)">2016</text></g><g class="tick"><path stroke="#ddd" color="#333" d="M593.897 389.667V20"/><text fill="#999" y="10" dy=".71em" font-size="12" color="#999" transform="translate(593.897 389.667)">2018</text></g></g><g class="y axis" fill="none" font-size="10" font-family="sans-serif" text-anchor="end"><path class="domain" stroke="#ddd" d="M647 390.167H70.5V20.5H647" color="#333"/><g class="tick"><path stroke="#ddd" color="#333" d="M70 353.2h577"/><text fill="#999" x="-10" dy=".32em" font-size="12" color="#999" transform="translate(70 353.2)">-45.0%</text></g><g class="tick"><path stroke="#ddd" color="#333" d="M70 316.233h577"/><text fill="#999" x="-10" dy=".32em" font-size="12" color="#999" transform="translate(70 316.233)">-40.0%</text></g><g class="tick"><path stroke="#ddd" color="#333" d="M70 279.267h577"/><text fill="#999" x="-10" dy=".32em" font-size="12" color="#999" transform="translate(70 279.267)">-35.0%</text></g><g class="tick"><path stroke="#ddd" color="#333" d="M70 242.3h577"/><text fill="#999" x="-10" dy=".32em" font-size="12" color="#999" transform="translate(70 242.3)">-30.0%</text></g><g class="tick"><path stroke="#ddd" color="#333" d="M70 205.333h577"/><text fill="#999" x="-10" dy=".32em" font-size="12" color="#999" transform="translate(70 205.333)">-25.0%</text></g><g class="tick"><path stroke="#ddd" color="#333" d="M70 168.367h577"/><text fill="#999" x="-10" dy=".32em" font-size="12" color="#999" transform="translate(70 168.367)">-20.0%</text></g><g class="tick"><path stroke="#ddd" color="#333" d="M70 131.4h577"/><text fill="#999" x="-10" dy=".32em" font-size="12" color="#999" transform="translate(70 131.4)">-15.0%</text></g><g class="tick"><path stroke="#ddd" color="#333" d="M70 94.433h577"/><text fill="#999" x="-10" dy=".32em" font-size="12" color="#999" transform="translate(70 94.433)">-10.0%</text></g><g class="tick"><path stroke="#ddd" color="#333" d="M70 57.467h577"/><text fill="#999" x="-10" dy=".32em" font-size="12" color="#999" transform="translate(70 57.467)">-5.0%</text></g><g class="tick"><path stroke="#ddd" color="#333" d="M70 20.5h577"/><text fill="#999" x="-10" dy=".32em" font-size="12" color="#999" transform="translate(70 20.5)">0.0%</text></g></g><path fill="none" stroke="#4285f4" stroke-width="2" class="line" d="M70 20h2.6c.868 0 1.734 42.47 2.601 54.859.783 11.19 1.566 19.136 2.35 19.136.865 0 1.73-35.387 2.596-47.225.84-11.472 1.678-23.417 2.517-23.417.867 0 1.734 12.853 2.6 22.144.84 8.992 1.679 17.896 2.517 32.34.867 14.923 1.734 37.669 2.601 56.507s1.734 56.522 2.6 56.522c.84 0 1.679-8.306 2.517-17.32.868-9.328 1.737-33.266 2.605-38.394.838-4.956 1.677-6.237 2.516-7.434.867-1.237 1.734-1.855 2.6-1.855.868 0 1.735 8.42 2.602 8.42.783 0 1.565-22.162 2.348-22.162.867 0 1.734 31.352 2.601 41.73.838 10.028 1.676 6.73 2.513 20.189.867 13.928 1.734 47.415 2.601 65.156.839 17.17 1.678 40.333 2.517 40.333.867 0 1.733-.803 2.6-.803s1.734 56.066 2.601 56.066c.839 0 1.678-21.716 2.517-30.426.868-9.013 1.736-22.44 2.604-22.44.839 0 1.678 35.272 2.517 46.75.866 11.862 1.733 17.257 2.6 22.434s1.734 6.094 2.6 8.629c.784 2.29 1.567 6.034 2.35 6.034.867 0 1.734-24.583 2.6-25.583.838-.965 1.676-.482 2.514-1.448.867-1 1.733-11.695 2.6-17.756.84-5.866 1.678-11.513 2.517-18 .867-6.703 1.734-21.668 2.6-21.668.867 0 1.734 24.55 2.601 24.55.84 0 1.678-27.806 2.517-27.806.868 0 1.736 7.365 2.604 7.365.839 0 1.678-1.593 2.517-4.778.867-3.29 1.734-11.281 2.6-15.2.867-3.919 1.734-6.645 2.601-8.313.811-1.56 1.622-1.586 2.433-2.34.867-.807 1.734-2.33 2.6-2.33.838 0 1.676 4.47 2.514 4.47.867 0 1.734-12.377 2.6-12.377.84 0 1.678 9.942 2.517 11.465.867 1.574 1.734 1.736 2.6 2.361.868.626 1.735 1.392 2.601 1.392.84 0 1.678-.07 2.517-.207.868-.143 1.736-1.87 2.604-3.852.84-1.917 1.678-4.832 2.517-7.707.867-2.971 1.734-7.07 2.6-9.895.868-2.824 1.734-6.342 2.601-7.049.783-.638 1.566-.958 2.35-.958.866 0 1.733 7.724 2.6 7.724.838 0 1.675-25.504 2.513-33.789.867-8.572 1.734-10.338 2.6-16.15.84-5.626 1.679-18.08 2.517-18.08.867 0 1.734 2.68 2.601 2.68s1.734-27.436 2.6-27.436c.84 0 1.679 10.888 2.517 10.888.868 0 1.737-22.933 2.605-30.322.838-7.142 1.677-9.942 2.516-13.806.867-3.994 1.734-6.12 2.6-9.618.868-3.498 1.735-8.634 2.602-11.369.783-2.47 1.566-4.828 2.348-4.828.867 0 1.734 2.182 2.601 6.547.838 4.217 1.676 34.688 2.513 34.688.867 0 1.734-1.483 2.601-2.88.839-1.353 1.678-2.03 2.517-5.285.867-3.365 1.733-9.918 2.6-14.882.867-4.963 1.734-9.054 2.601-14.899.839-5.656 1.678-19.438 2.517-19.438.868 0 1.736 9.063 2.604 9.063.839 0 1.678-11.631 2.517-17.584.866-6.15 1.733-18.745 2.6-18.745s1.734 15.113 2.6 15.113c.784 0 1.567-4.348 2.35-7.593.865-3.588 1.731-8.267 2.597-13.385C264.792 31.765 265.63 20 266.47 20c.867 0 1.733 2.727 2.6 8.18.84 5.277 1.678 25.672 2.517 25.672.867 0 1.734-1.645 2.6-2.597.867-.951 1.734-1.037 2.601-3.113.84-2.008 1.678-9.428 2.517-9.428.867 0 1.734 35.018 2.6 39.141.84 3.996 1.68 1.998 2.52 5.994.868 4.124 1.735 47.043 2.601 59.356.867 12.313 1.734 9.91 2.601 18.47.811 8.006 1.622 30.329 2.433 30.329.866 0 1.731-33.195 2.597-40.834.839-7.403 1.678-11.105 2.517-11.105.867 0 1.734 51.314 2.6 57.014.84 5.515 1.678 8.273 2.517 8.273.867 0 1.734-25.08 2.6-25.08.868 0 1.735 27.324 2.601 44.118.84 16.253 1.678 40.436 2.517 54.624.867 14.662 1.734 21.496 2.6 31.11.84 9.318 1.68 23.06 2.521 25.825.867 2.853 1.734 1.427 2.6 4.28.868 2.852 1.734 39.264 2.601 39.264.783 0 1.566-3.695 2.35-11.085.865-8.17 1.73-38.438 2.596-45.061.84-6.418 1.678-8.219 2.517-9.627.867-1.455 1.734-.727 2.6-2.182.84-1.408 1.679-25.064 2.517-32.841.867-8.037 1.734-9.886 2.601-13.955.867-4.07 1.734-10.46 2.6-10.46.84 0 1.679 13.556 2.517 13.556.868 0 1.737-3.818 2.605-11.453.838-7.38 1.677-32.917 2.516-32.917.867 0 1.734 5.536 2.6 5.536.868 0 1.735-7.213 2.602-17.591.783-9.374 1.566-32.71 2.348-39.17.866-7.142 1.732-10.713 2.598-10.713.839 0 1.677 6.554 2.516 11.51.867 5.12 1.734 18.945 2.601 18.945.839 0 1.678-9.406 2.517-9.406.867 0 1.733 7.433 2.6 7.433s1.734-6.655 2.601-10.26c.839-3.49 1.678-4.905 2.517-10.99.867-6.286 1.733-17.73 2.6-26.614.84-8.61 1.68-25.547 2.52-25.861.867-.324 1.734-.162 2.601-.486.867-.325 1.734-17.83 2.6-17.83.784 0 1.567 22.88 2.35 23.78.865.993 1.731 1.49 2.597 1.49.839 0 1.678-7.336 2.517-7.336.867 0 1.733 11.82 2.6 15.347.84 3.412 1.678 1.923 2.517 5.77.867 3.974 1.734 37.365 2.6 44.773.868 7.408 1.734 11.112 2.601 11.112.84 0 1.678-30.494 2.517-34.891.867-4.544 1.734-2.272 2.6-6.816.84-4.403 1.68-14.366 2.52-22.316.868-8.204 1.735-18.933 2.601-26.243.867-7.31 1.734-12.561 2.601-17.618.811-4.73 1.622-12.05 2.433-12.05.866 0 1.731 1.067 2.597 3.2.839 2.066 1.678 14.376 2.517 14.376.867 0 1.734-8.35 2.6-16.28.84-7.677 1.678-29.051 2.517-30.065.867-1.048 1.734-.524 2.6-1.572.868-1.049 1.735-5.048 2.601-5.048.84 0 1.678 9.892 2.517 9.892.867 0 1.734-4.968 2.6-6.766.84-1.743 1.68-1.314 2.521-3.942.867-2.711 1.734-14.046 2.6-15.135.868-1.089 1.734-1.633 2.601-1.633H450.36c.867 0 1.734 20.13 2.6 20.13.84 0 1.679-20.13 2.517-20.13.867 0 1.734 10.42 2.601 10.42s1.734-10.42 2.6-10.42h7.638c.867 0 1.734 11.763 2.6 11.763.868 0 1.735-11.763 2.602-11.763h32.969c.865 0 1.731 13.802 2.597 13.802.839 0 1.678-13.802 2.517-13.802.867 0 1.733 28.539 2.6 28.539.84 0 1.678-19.05 2.517-19.05.867 0 1.734 44.311 2.6 57.592.868 13.282 1.734 22.094 2.601 22.094.84 0 1.678-44.395 2.517-59.016.868-15.13 1.736-29.165 2.604-29.165.839 0 1.678 21.056 2.517 32.893.867 12.232 1.734 34.588 2.6 39.49.867 4.903 1.734 7.355 2.601 7.355.811 0 1.622-9.11 2.433-12.376.866-3.487 1.731-2.507 2.597-7.522.839-4.859 1.678-24.057 2.517-24.057.867 0 1.734 6.165 2.6 6.165.84 0 1.678-22.34 2.517-24.799.867-2.54 1.734-3.81 2.6-3.81.868 0 1.735 2.416 2.601 2.416.84 0 1.678-1.326 2.517-3.977.867-2.74 1.734-12.772 2.6-12.772h2.521c.867 0 1.734.244 2.6.244.868 0 1.734-.244 2.601-.244h2.35c.865 0 1.73.711 2.596 2.134.84 1.379 1.678 5.143 2.517 7.586a379.617 379.617 0 002.6 7.3c.84 2.29 1.679 4.813 2.517 6.687.867 1.937 1.734 4.674 2.601 4.674s1.734-15.544 2.6-20.286c.84-4.59 1.679-8.095 2.517-8.095.867 0 1.734 1.044 2.601 1.044.84 0 1.68-1.044 2.52-1.044h2.6c.868 0 1.735 8.688 2.602 15.218.783 5.9 1.566 21.266 2.349 21.266.865 0 1.73-15.04 2.597-21.189.839-5.957 1.677-15.295 2.516-15.295.867 0 1.734.318 2.601.318.839 0 1.678-.318 2.517-.318H613.863c.839 0 1.678 36.982 2.517 36.982.867 0 1.733-8.778 2.6-8.778.84 0 1.68 60.142 2.52 60.142.867 0 1.734-35.673 2.601-48.176s1.734-20.011 2.6-26.842c.784-6.17 1.567-13.328 2.35-13.328h2.597c.839 0 1.678 38.096 2.517 38.096.867 0 1.733-25.064 2.6-30.38.84-5.144 1.678-7.716 2.517-7.716.867 0 1.734 6.85 2.6 6.85.868 0 1.734-6.85 2.601-6.85H647" font-family="-apple-system,BlinkMacSystemFont,&quot;Segoe UI&quot;,Roboto,Oxygen-Sans,Ubuntu,Cantarell,&quot;Helvetica Neue&quot;,sans-serif" font-size="16" color="#333"/></g><text dy="-1em" class="axis-label x" x="358.5" y="444.667" font-family="-apple-system,BlinkMacSystemFont,&quot;Segoe UI&quot;,Roboto,Oxygen-Sans,Ubuntu,Cantarell,&quot;Helvetica Neue&quot;,sans-serif" font-size="14" fill="#999" color="#333" text-anchor="middle">Time</text><text transform="rotate(-90)" dy="1em" class="axis-label y" x="-184.833" font-family="-apple-system,BlinkMacSystemFont,&quot;Segoe UI&quot;,Roboto,Oxygen-Sans,Ubuntu,Cantarell,&quot;Helvetica Neue&quot;,sans-serif" font-size="14" fill="#999" color="#333" text-anchor="middle">Drawdown</text></svg>