<svg xmlns="http://www.w3.org/2000/svg" class="chart-svg" viewBox="0 0 1356 601.5">
  
    
<!---->
      
        
  <g class="x-axis axis" transform="translate(90.41666793823242, 540)" alignment-baseline="baseline">
  
  
    <g class="axis-label" transform="translate(526.6083316802979, 34.5)">
  <text class="axis-label-label" x="0" y="0" dominant-baseline="hanging" text-anchor="middle" style="font-family: &quot;Basis Grotesque&quot;, sans-serif; font-size: 14px; fill: rgb(153, 153, 153); opacity: 1; stroke: none; stroke-width: 1px; color: rgb(51, 51, 51); text-anchor: middle">
    
  Time

  </text>
</g>
    <line class="chart-axis-axis-line" x1="0" y1="0" x2="1053.2166633605957" y2="0" style="font-family: &quot;Basis Grotesque&quot;, sans-serif; font-size: 16px; fill: rgb(0, 0, 0); opacity: 1; stroke: rgb(221, 221, 221); stroke-width: 1px; color: rgb(51, 51, 51); text-anchor: start"/>
    <g class="axis-tick-labels">
    <text class="axis-tick-label" text-anchor="middle" dominant-baseline="hanging" x="66.34230282605007" y="10" style="font-family: &quot;Basis Grotesque&quot;, sans-serif; font-size: 12px; fill: rgb(153, 153, 153); opacity: 1; stroke: none; stroke-width: 1px; color: rgb(51, 51, 51); text-anchor: middle">
  
      1990
    
</text>
    <text class="axis-tick-label" text-anchor="middle" dominant-baseline="hanging" x="225.11169334008025" y="10" style="font-family: &quot;Basis Grotesque&quot;, sans-serif; font-size: 12px; fill: rgb(153, 153, 153); opacity: 1; stroke: none; stroke-width: 1px; color: rgb(51, 51, 51); text-anchor: middle">
  
      1995
    
</text>
    <text class="axis-tick-label" text-anchor="middle" dominant-baseline="hanging" x="383.8810838541105" y="10" style="font-family: &quot;Basis Grotesque&quot;, sans-serif; font-size: 12px; fill: rgb(153, 153, 153); opacity: 1; stroke: none; stroke-width: 1px; color: rgb(51, 51, 51); text-anchor: middle">
  
      2000
    
</text>
    <text class="axis-tick-label" text-anchor="middle" dominant-baseline="hanging" x="542.737423651007" y="10" style="font-family: &quot;Basis Grotesque&quot;, sans-serif; font-size: 12px; fill: rgb(153, 153, 153); opacity: 1; stroke: none; stroke-width: 1px; color: rgb(51, 51, 51); text-anchor: middle">
  
      2005
    
</text>
    <text class="axis-tick-label" text-anchor="middle" dominant-baseline="hanging" x="701.5068141650372" y="10" style="font-family: &quot;Basis Grotesque&quot;, sans-serif; font-size: 12px; fill: rgb(153, 153, 153); opacity: 1; stroke: none; stroke-width: 1px; color: rgb(51, 51, 51); text-anchor: middle">
  
      2010
    
</text>
    <text class="axis-tick-label" text-anchor="middle" dominant-baseline="hanging" x="860.2762046790674" y="10" style="font-family: &quot;Basis Grotesque&quot;, sans-serif; font-size: 12px; fill: rgb(153, 153, 153); opacity: 1; stroke: none; stroke-width: 1px; color: rgb(51, 51, 51); text-anchor: middle">
  
      2015
    
</text>
    <text class="axis-tick-label" text-anchor="middle" dominant-baseline="hanging" x="1019.0455951930977" y="10" style="font-family: &quot;Basis Grotesque&quot;, sans-serif; font-size: 12px; fill: rgb(153, 153, 153); opacity: 1; stroke: none; stroke-width: 1px; color: rgb(51, 51, 51); text-anchor: middle">
  
      2020
    
</text>
</g>
  

</g>

  <g transform="translate(90.41666793823242, 40)" class="chart-line-curves">
    <path d="M0,0C0.8984759229527083,0,1.7969518459054163,0,2.6954277688581247,0C3.535937503233239,0,4.376447237608353,0,5.216956971983468,0C6.057466706358582,0,6.897976440733696,0,7.73848617510881,0C8.636962098061518,0,9.535438021014226,0,10.433913943966935,0C11.303406772630847,0,12.172899601294757,9.046084506398266,13.042392429958669,9.046084506398266C13.940868352911377,9.046084506398266,14.839344275864086,0,15.737820198816793,0C16.607313027480703,0,17.476805856144615,0,18.346298684808527,0C19.244774607761236,0,20.143250530713942,30.56548502230744,21.04172645366665,30.56548502230744C21.94020237661936,30.56548502230744,22.838678299572067,0,23.737154222524776,0C24.606647051188688,0,25.4761398798526,0,26.34563270851651,0C27.24410863146922,0,28.142584554421926,6.6579417587531164,29.041060477374636,6.6579417587531164C29.910553306038548,6.6579417587531164,30.78004613470246,0,31.64953896336637,0C32.54801488631908,0,33.446490809271786,0,34.34496673222449,0C35.21445956088841,0,36.083952389552316,0,36.95344521821623,0C37.764971858302545,0,38.576498498388865,0,39.38802513847518,0C40.286501061427884,0,41.1849769843806,0,42.0834529073333,0C42.95294573599721,0,43.82243856466113,0,44.691931393325035,0C45.59040731627775,0,46.488883239230454,0,47.38735916218317,0C48.256851990847075,0,49.12634481951099,0,49.9958376481749,0C50.894313571127604,0,51.79278949408032,7.763886666263764,52.69126541703302,7.763886666263764C53.58974133998573,7.763886666263764,54.488217262938434,0,55.38669318589114,0C56.256186014555055,0,57.125678843218964,62.49729454154246,57.99517167188288,62.49729454154246C58.893647594835585,62.49729454154246,59.7921235177883,41.90576154589326,60.690599440741,41.90576154589326C61.56009226940492,41.90576154589326,62.42958509806883,44.73303586578862,63.29907792673274,50.38758450557934C64.19755384968545,56.23061810002972,65.09602977263816,96.09206670273272,65.99450569559086,113.94834700478434C66.89298161854357,131.80462730683598,67.79145754149627,144.01014316630324,68.68993346444898,157.5252663178891C69.50146010453531,169.7324743257732,70.31298674462163,183.09572887875967,71.12451338470795,191.67370086293144C72.02298930766065,201.17074127397865,72.92146523061336,209.85059713763138,73.81994115356606,209.85059713763138C74.68943398222997,209.85059713763138,75.5589268108939,149.49802527008853,76.4284196395578,149.49802527008853C77.32689556251051,149.49802527008853,78.22537148546321,149.5355411639782,79.12384740841593,149.61057295175755C79.99334023707983,149.68318435928595,80.86283306574374,154.7985982677115,81.73232589440765,165.17464889961937C82.63080181736036,175.8965678859242,83.52927774031306,237.1849504093152,84.42775366326578,264.878027875334C85.32622958621849,292.5711053413529,86.2247055091712,331.3331136957323,87.12318143212391,331.3331136957323C87.99267426078782,331.3331136957323,88.86216708945173,296.7474856525902,89.73165991811564,296.7474856525902C90.63013584106835,296.7474856525902,91.52861176402105,319.01762771806693,92.42708768697376,319.01762771806693C93.29658051563767,319.01762771806693,94.1660733443016,306.4145298160142,95.0355661729655,299.2548604812407C95.93404209591822,291.85653550197486,96.83251801887091,287.227621798721,97.73099394182363,275.2273217905966C98.62946986477634,263.2270217824722,99.52794578772904,242.49885174861038,100.42642171068175,227.25306043249444C101.23794835076806,213.48266827600258,102.04947499085439,201.07421045227707,102.8610016309407,187.76677442009216C103.75947755389342,173.03354167017318,104.65795347684612,155.38845266338853,105.55642939979883,143.03261542687795C106.42592222846274,131.07535358509355,107.29541505712665,114.3408325605405,108.16490788579056,114.3408325605405C109.06338380874327,114.3408325605405,109.96185973169597,135.09473625001166,110.86033565464868,135.09473625001166C111.72982848331259,135.09473625001166,112.59932131197651,97.2956037716775,113.46881414064042,97.2956037716775C114.36729006359313,97.2956037716775,115.26576598654583,115.31211709466358,116.16424190949854,116.89123961084385C117.06271783245126,118.47036212702413,117.96119375540395,119.25992338511426,118.85966967835667,119.25992338511426C119.72916250702058,119.25992338511426,120.5986553356845,106.70535424788264,121.4681481643484,106.70535424788264C122.36662408730112,106.70535424788264,123.26510001025382,170.08619368833905,124.16357593320653,170.08619368833905C125.03306876187044,170.08619368833905,125.90256159053435,140.5382814934283,126.77205441919826,140.5382814934283C127.67053034215097,140.5382814934283,128.56900626510367,146.82175593803214,129.46748218805638,146.82175593803214C130.3659581110091,146.82175593803214,131.2644340339618,141.8880806249841,132.16290995691452,141.8880806249841C133.00341969128962,141.8880806249841,133.84392942566473,156.57065127592352,134.68443916003983,156.57065127592352C135.58291508299254,156.57065127592352,136.48139100594526,155.54123101366673,137.37986692889797,153.48239048915312C138.24935975756188,151.4899641751077,139.1188525862258,139.64379072683946,139.98834541488972,139.64379072683946C140.88682133784243,139.64379072683946,141.78529726079512,174.80461320969076,142.68377318374783,188.4424092992037C143.55326601241174,201.6402764826035,144.42275884107568,219.0854016335845,145.29225166973958,220.6512998468609C146.1907275926923,222.26939466724647,147.08920351564498,223.07844207743926,147.9876794385977,223.07844207743926C148.8861553615504,223.07844207743926,149.78463128450312,216.86727128696285,150.68310720745583,213.32530574677634C151.55260003611974,209.8975971594991,152.42209286478365,209.62514337493198,153.29158569344756,202.2248186312433C154.19006161640027,194.5778163960983,155.08853753935296,148.05490010460295,155.98701346230567,143.4982642548042C156.85650629096958,139.0886166582247,157.7259991196335,140.81837245037332,158.59549194829742,136.88379285993497C159.49396787125013,132.81806061648206,160.39244379420282,128.53382230190664,161.29091971715553,119.14561174206034C162.18939564010824,109.75740118221394,163.08787156306096,96.70112008707842,163.98634748601367,80.55452950085667C164.7978741261,65.97051219717257,165.6094007661863,33.900135717670764,166.42092740627263,28.76775065776499C167.31940332922534,23.085467198583636,168.21787925217802,25.18528711664264,169.11635517513074,20.24432546899296C169.98584800379464,15.462749680944825,170.85534083245858,0,171.7248336611225,0C172.6233095840752,0,173.5217855070279,0,174.4202614299806,0C175.2897542586445,0,176.15924708730842,0,177.02873991597232,0C177.92721583892504,0,178.82569176187775,0,179.72416768483046,0C180.62264360778317,0,181.52111953073586,50.932371878913195,182.41959545368857,50.932371878913195C183.28908828235248,50.932371878913195,184.15858111101642,15.288854032356024,185.02807393968033,15.288854032356024C185.92654986263304,15.288854032356024,186.82502578558572,39.14382855601306,187.72350170853844,39.14382855601306C188.59299453720234,39.14382855601306,189.46248736586628,0,190.3319801945302,0C191.2304561174829,0,192.1289320404356,0,193.0274079633883,0C193.925883886341,0,194.82435980929372,5.5794550110942644,195.72283573224644,16.738365033282797C196.53436237233277,26.817380537194982,197.34588901241906,74.6016266943631,198.1574156525054,74.6016266943631C199.0558915754581,74.6016266943631,199.9543674984108,49.56164273686026,200.8528434213635,49.56164273686026C201.7223362500274,49.56164273686026,202.59182907869132,58.06346214393466,203.46132190735523,63.21970829233842C204.35979783030794,68.54782931235563,205.25827375326062,76.81822715216683,206.15674967621334,81.13746762687174C207.02624250487725,85.317377763683,207.89573533354118,89.0320012429488,208.7652281622051,89.0320012429488C209.6637040851578,89.0320012429488,210.56218000811052,58.982397996495074,211.46065593106323,58.982397996495074C212.35913185401594,58.982397996495074,213.25760777696863,87.98205456980418,214.15608369992134,87.98205456980418C215.02557652858525,87.98205456980418,215.89506935724918,83.16920967763896,216.7645621859131,83.16920967763896C217.6630381088658,83.16920967763896,218.5615140318185,107.42717068403785,219.4599899547712,107.42717068403785C220.3294827834351,107.42717068403785,221.19897561209902,88.31106446350928,222.06846844076293,88.31106446350928C222.96694436371564,88.31106446350928,223.86542028666835,121.29486527655365,224.76389620962107,121.58316196211288C225.66237213257378,121.8714586476721,226.56084805552646,122.01560699045172,227.45932397847918,122.01560699045172C228.2708506185655,122.01560699045172,229.0823772586518,120.62043737500318,229.89390389873813,118.08023221071556C230.79237982169084,115.26786220739716,231.69085574464353,110.97811290827761,232.58933166759624,105.12588198989975C233.45882449626015,99.46243271405014,234.3283173249241,83.82532783468588,235.197810153588,83.82532783468588C236.0962860765407,83.82532783468588,236.99476199949342,90.66756940245779,237.89323792244613,90.66756940245779C238.76273075111004,90.66756940245779,239.63222357977395,65.30814865305283,240.50171640843786,61.176220327223476C241.40019233139057,56.90656105719979,242.29866825434328,59.04139069221163,243.197144177296,54.77173142218794C244.0956201002487,50.502072152164295,244.9940960232014,20.14816102585065,245.8925719461541,20.14816102585065C246.76206477481801,20.14816102585065,247.63155760348192,48.751948396083876,248.50105043214583,48.751948396083876C249.39952635509854,48.751948396083876,250.29800227805126,28.12745525959064,251.19647820100397,19.914065180810127C252.06597102966788,11.965623169087115,252.9354638583318,0,253.8049566869957,0C254.7034326099484,0,255.6019085329011,0,256.5003844558538,0C257.3988603788065,0,258.29733630175923,0,259.1958122247119,0C260.03632195908705,0,260.8768316934622,0,261.7173414278373,0C262.6146097218613,0,263.5118780158853,0,264.4091463099093,0C265.2786391385732,0,266.14813196723713,0,267.01762479590104,0C267.9161007188538,0,268.81457664180647,0.7514896364181531,269.7130525647592,2.254468909254459C270.5825453934231,3.708964979741179,271.452038222087,49.539786484960715,272.32153105075093,49.539786484960715C273.2200069737036,49.539786484960715,274.1184828966563,48.68345926980644,275.016958819609,46.970804839497895C275.91543474256173,45.25815040918928,276.8139106655144,11.844392830303963,277.71238658846715,7.530503848008408C278.5830870460598,3.349974336939713,279.4537875036524,2.0735542124029567,280.32448796124504,1.259709581405366C281.2229638841977,0.41990319380178864,282.1214398071504,0,283.0199157301031,0C283.889408558767,0,284.7589013874309,0,285.6283942160948,0C286.52687013904756,0,287.42534606200024,0,288.323821984953,0C289.22229790790567,0,290.1207738308584,0,291.0192497538111,0C291.8307763938974,0,292.64230303398375,7.995603569541931,293.45382967407005,7.995603569541931C294.35109796809405,7.995603569541931,295.2483662621181,0,296.1456345561421,0C297.015127384806,0,297.88462021346993,0,298.75411304213384,0C299.6525889650865,0,300.5510648880392,0,301.4495408109919,0C302.3190336396558,0,303.18852646831976,0,304.0580192969837,0C304.95649521993636,0,305.8549711428891,39.824045399855294,306.7534470658418,39.824045399855294C307.6519229887945,39.824045399855294,308.5503989117472,17.624358024104446,309.44887483469995,17.624358024104446C310.31957529229254,17.624358024104446,311.19027574988513,83.00699196257023,312.0609762074777,86.071207458485C312.95945213043046,89.2331718537148,313.85792805338315,90.8141540513297,314.7564039763359,90.8141540513297C315.6258968049998,90.8141540513297,316.4953896336637,69.55045986329833,317.3648824623276,57.839426102271105C318.2633583852803,45.73802454920967,319.16183430823304,28.870462711247363,320.0603102311857,19.230558360868844C320.9587861541384,9.590654010490328,321.85726207709115,0,322.75573800004383,0C323.56726464013013,0,324.3787912802165,0,325.1903179203028,0C326.0875862143268,0,326.9848545083508,0,327.8821228023748,0C328.7516156310387,0,329.62110845970267,30.983600895294728,330.4906012883666,30.983600895294728C331.38907721131926,30.983600895294728,332.287553134272,10.384796983917461,333.1860290572247,8.817825380941002C334.0555218858886,7.301401249028264,334.92501471455256,6.543189183071895,335.79450754321647,6.543189183071895C336.69298346616915,6.543189183071895,337.59145938912184,121.95711653703061,338.4899353120745,136.307354593035C339.38841123502726,150.65759264904,340.28688715797995,157.83271167704248,341.1853630809327,157.83271167704248C342.0560635385253,157.83271167704248,342.9267639961179,137.55129987572806,343.7974644537105,119.63420395188918C344.6959403766632,101.1455501830458,345.59441629961594,65.38646843005102,346.4928922225686,47.60736411568611C347.36238505123254,30.401779295332926,348.23187787989644,21.413349352964033,349.10137070856035,13.493808617995484C349.9998466315131,5.31028319186116,350.8983225544658,0,351.7967984774185,0C352.6952744003712,0,353.59375032332395,0,354.49222624627663,0C355.30375288636293,0,356.1152795264493,0,356.9268061665356,0C357.8240744605596,0,358.7213427545836,0,359.6186110486076,0C360.4881038772715,0,361.35759670593546,20.449589587836105,362.2270895345994,20.449589587836105C363.12556545755206,20.449589587836105,364.02404138050474,0,364.9225173034574,0C365.79201013212133,0,366.66150296078524,34.85296616384947,367.53099578944915,34.85296616384947C368.4294717124019,34.85296616384947,369.3279476353546,26.055262534709524,370.2264235583073,26.055262534709524C371.12489948126,26.055262534709524,372.02337540421274,43.25783912010955,372.9218513271654,43.25783912010955C373.79134415582934,43.25783912010955,374.6608369844933,0,375.5303298131572,0C376.43001336503863,0,377.32969691692,0,378.2293804688014,0C379.09887329746533,0,379.96836612612924,0,380.83785895479315,0C381.73633487774583,0,382.6348108006986,26.791626134998637,383.53328672365126,26.791626134998637C384.43176264660394,26.791626134998637,385.3302385695567,21.630492589683662,386.22871449250937,16.924983846182574C387.0692242268845,12.523056311939602,387.9097339612596,0,388.7502436956347,0C389.6475119896587,0,390.5447802836827,0,391.4420485777067,0C392.3115414063706,0,393.1810342350346,44.493721016644784,394.0505270636985,44.493721016644784C394.9490029866512,44.493721016644784,395.8474789096039,40.406645256573356,396.7459548325566,38.998419103196454C397.6154476612205,37.63561959992848,398.4849404898844,38.03227624508487,399.35443331854833,36.0999905288617C400.2529092415011,34.10329528876439,401.15138516445376,0,402.0498610874065,0C402.9483370103592,0,403.84681293331187,36.261192845356284,404.74528885626455,36.261192845356284C405.61478168492846,36.261192845356284,406.4842745135924,18.102330879138595,407.35376734225633,18.102330879138595C408.25345089413776,18.102330879138595,409.1531344460192,78.57977309017454,410.0528179979006,99.14661751181275C410.9223108265645,119.02329936896561,411.79180365522836,140.70936567172103,412.6612964838923,140.70936567172103C413.55977240684496,140.70936567172103,414.4582483297977,120.39309541609371,415.3567242527504,120.39309541609371C416.2552001757031,120.39309541609371,417.1536760986558,170.7546323003999,418.05215202160855,183.36990010553433C418.86367866169485,194.7643355424298,419.6752053017812,200.4615532608775,420.4867319418675,200.4615532608775C421.3852078648202,200.4615532608775,422.28368378777293,165.17719573598066,423.1821597107256,152.73311244016546C424.05044491046084,140.7071771045591,424.918730110196,126.36456700727899,425.78701530993123,126.36456700727899C426.685491232884,126.36456700727899,427.58396715583666,140.30265582317145,428.4824430787894,150.475629601239C429.3519359074533,160.32044293485237,430.22142873611716,169.88450547911552,431.09092156478107,186.0111860081331C431.9893974877338,202.67542255478529,432.8878734106865,229.3396034310381,433.78634933363924,249.7189514904602C434.6848252565919,270.09829954988186,435.58330117954466,308.2872743646644,436.48177710249735,308.2872743646644C437.35247756008994,308.2872743646644,438.2231780176826,300.48038340453735,439.0938784752752,289.5812081278156C439.99235439822786,278.3343476480917,440.8908303211806,249.66060405579213,441.7893062441333,240.94227011914288C442.6587990727972,232.505172761095,443.52829190146116,228.28662408207106,444.39778473012507,228.28662408207106C445.29626065307775,228.28662408207106,446.1947365760305,231.6555467642567,447.0932124989832,233.56132070378942C447.99168842193586,235.46709464332213,448.8901643448886,239.72126771926733,449.7886402678413,239.72126771926733C450.6001669079276,239.72126771926733,451.41169354801394,215.4590892849743,452.22322018810024,215.4590892849743C453.12048848212424,215.4590892849743,454.01775677614825,247.17032842948646,454.91502507017225,258.71912361658224C455.78451789883616,269.91041908725384,456.65401072750007,268.3336489835477,457.523503556164,284.20438832557016C458.4219794791167,300.6041523123271,459.3204554020694,338.70888817408667,460.21893132502214,357.0303493277457C461.08842415368605,374.76079560547987,461.95791698234996,392.60250226004507,462.82740981101387,393.49388401206386C463.7258857339666,394.41497848915,464.6243616569193,393.9544312506069,465.52283757987203,394.875525727693C466.4213135028247,395.79662020477906,467.3197894257774,452.6154648149412,468.2182653487301,452.6154648149412C469.08896580632273,452.6154648149412,469.9596662639153,428.6454643310783,470.83036672150797,419.2763732257116C471.72884264446066,409.6084068146261,472.6273185674134,395.8434077195656,473.5257944903661,395.8434077195656C474.39528731903,395.8434077195656,475.26478014769384,433.5967383924564,476.13427297635775,446.499005890997C477.0327488993105,459.8313489728228,477.9312248222632,469.5018331069875,478.8297007452159,473.7373766426366C479.7281766681686,477.9729201782856,480.62665259112134,477.8978377772384,481.525128514074,480.09069194611016C482.3366551541604,482.0713344212202,483.1481817942467,486.2163798368544,483.95970843433304,486.2163798368544C484.85697672835704,486.2163798368544,485.75424502238104,458.28961600849476,486.65151331640504,458.28961600849476C487.52100614506895,458.28961600849476,488.39049897373286,460.0140007766942,489.25999180239677,460.0140007766942C490.1584677253495,460.0140007766942,491.0569436483022,442.2788917080328,491.95541957125494,435.6424078869351C492.82491239991884,429.22000418909886,493.6944052285827,427.7760882418524,494.5638980572466,420.5541013551528C495.4623739801993,413.0913815722297,496.36084990315203,391.14246909825863,497.2593258261047,391.14246909825863C498.15780174905746,391.14246909825863,499.05627767201014,420.3536609651529,499.9547535949629,420.3536609651529C500.8254540525555,420.3536609651529,501.69615451014806,389.44828052969564,502.56685496774065,389.44828052969564C503.4653308906934,389.44828052969564,504.3638068136461,397.9376537669176,505.2622827365988,397.9376537669176C506.1317755652627,397.9376537669176,507.00126839392664,396.2861291847482,507.87076122259055,392.9830800204093C508.7692371455433,389.5699292172591,509.66771306849597,378.3771679718488,510.5661889914487,373.79671539415034C511.46466491440145,369.2162628164519,512.3631408373542,367.8671917480705,513.2616167603069,365.50036455421855C514.102126494682,363.2862358890023,514.942636229057,359.9045197097603,515.7831459634322,359.9045197097603C516.6804142574562,359.9045197097603,517.5776825514802,359.99011100575717,518.4749508455042,360.16129359775096C519.3444436741681,360.3271771323883,520.213936502832,367.0129146464206,521.083429331496,367.0129146464206C521.9819052544486,367.0129146464206,522.8803811774013,354.1913771649706,523.778857100354,354.1913771649706C524.648349929018,354.1913771649706,525.5178427576818,366.7094455374177,526.3873355863458,366.7094455374177C527.2858115092985,366.7094455374177,528.1842874322513,366.5233756356153,529.082763355204,366.5233756356153C529.9812392781566,366.5233756356153,530.8797152011093,367.987281342826,531.778191124062,368.48671384816C532.647683952726,368.9700356275154,533.5171767813898,369.501157201951,534.3866696100538,369.501157201951C535.2863531619352,369.501157201951,536.1860367138165,366.10295738420893,537.0857202656979,363.84225127514156C537.9552130943619,361.6574077871836,538.8247059230258,359.53053671297005,539.6941987516898,356.23862697159615C540.5926746746425,352.8369869055101,541.4911505975952,347.3723707410862,542.3896265205478,343.6076036303676C543.2881024435005,339.8428365196488,544.1865783664533,333.78242469094477,545.085054289406,333.6500243072841C545.8965809294923,333.53043686397774,546.7081075695786,333.47064314232455,547.5196342096649,333.47064314232455C548.4169025036889,333.47064314232455,549.314170797713,345.574393696806,550.211439091737,345.574393696806C551.0809319204009,345.574393696806,551.9504247490648,315.2456837382802,552.8199175777287,305.5606929964997C553.7183935006814,295.55286922999284,554.6168694236342,294.2689078174903,555.5153453465869,287.23870843524804C556.3848381752507,280.43528967823966,557.2543310039147,264.23557783859604,558.1238238325785,264.23557783859604C559.0222997555312,264.23557783859604,559.920775678484,264.7414976295002,560.8192516014367,264.7414976295002C561.7177275243894,264.7414976295002,562.6162034473421,236.6812056615757,563.5146793702947,236.6812056615757C564.3841721989586,236.6812056615757,565.2536650276226,253.74473449741686,566.1231578562864,253.74473449741686C567.0228414081679,253.74473449741686,567.9225249600493,224.04481723699902,568.8222085119307,214.98771806704355C569.6917013405947,206.23454839943574,570.5611941692586,204.5828682575573,571.4306869979225,199.54940934959563C572.3291629208752,194.3481684780355,573.2276388438279,189.1677589185227,574.1261147667806,184.30652300804184C575.0245906897333,179.44528709756077,575.9230666126861,171.45774942549738,576.8215425356387,170.38199388670984C577.633069175725,169.41034372264372,578.4445958158113,168.92451864061064,579.2561224558976,168.92451864061064C580.1533907499216,168.92451864061064,581.0506590439458,169.43774628412933,581.9479273379698,170.4642015711667C582.8174201666336,171.45888233384082,583.6869129952976,217.3493142923385,584.5564058239614,217.3493142923385C585.4548817469141,217.3493142923385,586.3533576698669,210.3243183848956,587.2518335928196,209.0482967879695C588.1213264214836,207.813437178041,588.9908192501474,208.43086698300525,589.8603120788114,207.19600737307675C590.7587880017641,205.91998577615075,591.6572639247166,198.98175148437767,592.5557398476693,193.47067083186175C593.454215770622,187.95959017934538,594.3526916935748,181.7507399614939,595.2511676165275,174.1295234579794C596.1206604451914,166.7541526481266,596.9901532738553,148.70450163924815,597.8596461025193,148.70450163924815C598.7593296544006,148.70450163924815,599.6590132062821,156.8279414610109,600.5586967581635,156.8279414610109C601.4281895868273,156.8279414610109,602.2976824154913,144.65803168861103,603.1671752441551,138.22385749929762C604.0656511671078,131.5752108370068,604.9641270900606,117.5321402895539,605.8626030130133,117.5321402895539C606.761078935966,117.5321402895539,607.6595548589188,136.84600370525007,608.5580307818715,136.84600370525007C609.3695574219578,136.84600370525007,610.1810840620442,131.67427264738365,610.9926107021305,127.49278512162765C611.8898789961545,122.86950352693032,612.7871472901785,118.5214028164704,613.6844155842025,109.72173246602578C614.5539084128665,101.1944610631721,615.4234012415303,76.03785914251715,616.2928940701943,76.03785914251715C617.191369993147,76.03785914251715,618.0898459160995,77.8674623917462,618.9883218390522,81.52666889020432C619.8578146677162,85.0678364693578,620.7273074963801,104.8986536616061,621.5968003250441,106.12314557591546C622.4952762479968,107.38845388736834,623.3937521709495,108.02110804309478,624.2922280939022,108.02110804309478C625.1907040168549,108.02110804309478,626.0891799398077,98.38991437804667,626.9876558627603,93.1239989156315C627.8571486914242,88.02795169393961,628.7266415200882,76.99238843286183,629.596134348752,76.99238843286183C630.4958179006334,76.99238843286183,631.3955014525148,126.05655695653387,632.2951850043962,130.50613997259387C633.1646778330602,134.80640812234324,634.034170661724,132.65627404746854,634.903663490388,136.9565421972179C635.8021394133407,141.40015261862558,636.7006153362935,199.52529819101508,637.5990912592462,207.25327578584836C638.4975671821988,214.98125338068132,639.3960431051515,211.11726458326484,640.2945190281042,218.8452421780978C641.1350287624794,226.07464057326416,641.9755384968544,256.5355239040169,642.8160482312295,256.5355239040169C643.7133165252535,256.5355239040169,644.6105848192776,216.71682692817473,645.5078531133016,207.6952694646001C646.3773459419655,198.95297959411107,647.2468387706294,194.58183465886657,648.1163315992933,194.58183465886657C649.014807522246,194.58183465886657,649.9132834451988,256.5551893063661,650.8117593681515,263.78849552930774C651.6812521968154,270.7884692934448,652.5507450254793,274.2884561755133,653.4202378541432,274.2884561755133C654.3187137770959,274.2884561755133,655.2171897000486,250.85645541714706,656.1156656230013,250.85645541714706C657.014141545954,250.85645541714706,657.9126174689068,294.4930227723307,658.8110933918595,315.5666439565234C659.6817938494521,335.9887956686238,660.5524943070446,359.9527598723587,661.4231947646373,375.43443271798714C662.32167068759,391.40997307464147,663.2201466105428,398.9962750863427,664.1186225334955,409.06824783568317C664.9881153621593,418.8153182382703,665.8576081908233,433.05886755109964,666.7271010194871,435.1085150447902C667.6255769424398,437.2264841216038,668.5240528653926,436.167499583197,669.4225287883453,438.2854686600106C670.321004711298,440.4034377368242,671.2194806342507,478.38907970482825,672.1179565572033,478.38907970482825C672.9294831972896,478.38907970482825,673.741009837376,474.26561372090396,674.5525364774624,466.01868175305543C675.4498047714864,456.9004221516994,676.3470730655104,424.1479450123679,677.2443413595344,412.1515719145792C678.1138341881983,400.5265535694809,678.9833270168622,394.0647916494325,679.8528198455261,394.0647916494325C680.7512957684788,394.0647916494325,681.6497716914315,398.13613283544436,682.5482476143842,398.13613283544436C683.4177404430482,398.13613283544436,684.287233271712,362.6484323833371,685.156726100376,353.2212661386004C686.0552020233287,343.4798610190392,686.9536779462815,342.900979192231,687.8521538692341,338.6091584592586C688.7506297921868,334.3173377262862,689.6491057151396,327.4703417407661,690.5475816380923,327.4703417407661C691.4182820956848,327.4703417407661,692.2889825532775,342.5133018528159,693.15968301087,342.5133018528159C694.0581589338227,342.5133018528159,694.9566348567755,336.79186169666497,695.8551107797282,327.8124219139067C696.7246036083922,319.1226414789793,697.594096437056,290.28241935165397,698.46358926572,290.28241935165397C699.3620651886727,290.28241935165397,700.2605411116255,298.35069796474863,701.1590170345781,298.35069796474863C702.0574929575308,298.35069796474863,702.9559688804834,285.3668775438511,703.8544448034361,272.38977536152896C704.6659714435224,260.66852177749496,705.4774980836088,232.5621069405681,706.2890247236951,226.6445567406452C707.1862930177191,220.1017891832902,708.0835613117431,216.8304054046127,708.9808296057671,216.8304054046127C709.8503224344311,216.8304054046127,710.7198152630949,225.27169825786197,711.5893080917589,230.59320558691786C712.4877840147116,236.09209649360895,713.3862599376644,249.4408279230721,714.284735860617,249.4408279230721C715.1542286892809,249.4408279230721,716.0237215179449,237.12673358702185,716.8932143466087,237.12673358702185C717.7916902695614,237.12673358702185,718.6901661925142,242.65744173419102,719.5886421154669,242.65744173419102C720.4871180384196,242.65744173419102,721.3855939613723,235.00389288568658,722.2840698843249,230.5842817970636C723.1535627129889,226.30723880807344,724.0230555416528,223.6806446893623,724.8925483703167,216.64274076363375C725.7922319221982,209.36046517381723,726.6919154740796,197.5402595499313,727.591599025961,187.11702883397348C728.4610918546249,177.04357096083368,729.3305846832889,155.26775679534484,730.2000775119527,155.26775679534484C731.0985534349054,155.26775679534484,731.9970293578581,161.84988675523203,732.8955052808108,161.84988675523203C733.7939812037635,161.84988675523203,734.6924571267162,147.80510921648192,735.5909330496689,147.80510921648192C736.4024596897552,147.80510921648192,737.2139863298415,166.3666020059789,738.0255129699278,168.35157962111597C738.9227812639518,170.54627957356678,739.820049557976,171.64362954979217,740.717317852,171.64362954979217C741.5868106806638,171.64362954979217,742.4563035093278,163.07884652739457,743.3257963379916,163.07884652739457C744.2242722609443,163.07884652739457,745.1227481838971,176.7106134238869,746.0212241068498,178.12429763358395C746.8907169355136,179.4923791268391,747.7602097641776,178.80833838021152,748.6297025928415,180.17641987346667C749.5281785157941,181.5901040831637,750.4266544387469,228.49269973247843,751.3251303616996,242.13333574063577C752.2236062846523,255.77397174879252,753.122082207605,262.5942897528709,754.0205581305577,262.5942897528709C754.8900509592216,262.5942897528709,755.7595437878856,224.31738683871714,756.6290366165496,218.72741933065586C757.5287201684309,212.9433557285653,758.4284037203123,215.77802130312142,759.3280872721937,210.05132392752003C760.1975801008576,204.5167976047908,761.0670729295215,194.16530808402035,761.9365657581855,185.50491012927927C762.8350416811381,176.55583224271388,763.7335176040908,165.58770092972375,764.6319935270435,157.12565019912861C765.5304694499962,148.6635994685331,766.428945372949,140.26844923965047,767.3274212959017,134.73260574570762C768.1679310302768,129.55391344492236,769.0084407646519,124.25960610673303,769.8489504990271,124.25960610673303C770.7462187930511,124.25960610673303,771.6434870870751,124.3446044163,772.5407553810991,124.51460103543394C773.4102482097629,124.67933530969563,774.2797410384269,147.53899782585205,775.1492338670907,147.53899782585205C776.0477097900434,147.53899782585205,776.9461857129962,131.20301957591374,777.8446616359489,121.5508259993281C778.7141544646128,112.20999350585849,779.5836472932767,90.74834099247863,780.4531401219406,90.74834099247863C781.3516160448933,90.74834099247863,782.2500919678461,94.37234309669923,783.1485678907987,94.37234309669923C784.0470438137514,94.37234309669923,784.9455197367042,89.24780706721059,785.8439956596569,89.24780706721059C786.7134884883208,89.24780706721059,787.5829813169847,98.58802699588853,788.4524741456486,98.58802699588853C789.3521576975301,98.58802699588853,790.2518412494114,90.32215747272248,791.1515248012929,87.52413390065288C792.0210176299568,84.82000373704217,792.8905104586207,85.31092416716174,793.7600032872846,81.90538950015424C794.6584792102373,78.38633701091301,795.5569551331901,73.53972849646118,796.4554310561427,66.43873972564856C797.3539069790954,59.33775095483594,798.2523829020482,51.07638848281336,799.1508588250009,39.29945687527853C799.9623854650872,28.662228326537797,800.7739121051735,1.1300837549856815,801.5854387452598,0.7049976741850261C802.4827070392838,0.23499922472834206,803.3799753333078,0,804.2772436273318,0C805.1467364559957,0,806.0162292846596,0,806.8857221133235,0C807.7841980362762,0,808.682673959229,31.347887913084627,809.5811498821816,31.347887913084627C810.4506427108455,31.347887913084627,811.3201355395095,2.708111909636546,812.1896283681733,2.708111909636546C813.088104291126,2.708111909636546,813.9865802140788,18.678716572938402,814.8850561370315,18.678716572938402C815.7835320599842,18.678716572938402,816.682007982937,0,817.5804839058897,0C818.4511843634823,0,819.3218848210748,0,820.1925852786675,0C821.0910612016202,0,821.989537124573,0,822.8880130475256,0C823.7575058761895,0,824.6269987048535,0,825.4964915335173,0C826.39496745647,0,827.2934433794228,18.552240119170392,828.1919193023755,18.552240119170392C829.0903952253282,18.552240119170392,829.9888711482809,0,830.8873470712335,0C831.69887371132,0,832.5104003514062,0,833.3219269914927,0C834.2191952855167,0,835.1164635795406,0,836.0137318735646,0C836.8832247022284,0,837.7527175308924,0,838.6222103595562,0C839.5206862825089,0,840.4191622054617,0,841.3176381284144,0C842.1871309570784,0,843.0566237857422,0,843.9261166144062,0C844.8245925373589,0,845.7230684603117,0,846.6215443832643,0C847.520020306217,0,848.4184962291698,0,849.3169721521225,0C850.187672609715,0,851.0583730673077,0,851.9290735249002,0C852.8275494478529,0,853.7260253708057,0,854.6245012937584,0C855.4939941224224,0,856.3634869510862,0,857.2329797797502,0C858.1314557027029,0,859.0299316256555,0,859.9284075486082,0C860.8268834715609,0,861.7253593945136,0,862.6238353174663,0C863.4353619575526,0,864.246888597639,0,865.0584152377253,0C865.9556835317493,0,866.8529518257733,11.381987999424915,867.7502201197973,11.381987999424915C868.6197129484613,11.381987999424915,869.4892057771251,0,870.3586986057891,0C871.2571745287418,0,872.1556504516946,38.533119611798504,873.0541263746472,38.533119611798504C873.9236192033111,38.533119611798504,874.793112031975,13.01947085541233,875.6626048606389,13.01947085541233C876.5610807835916,13.01947085541233,877.4595567065444,74.66606216576506,878.3580326294971,92.69697834794893C879.2565085524498,110.7278945301328,880.1549844754026,121.2049679485156,881.0534603983552,121.2049679485156C881.9241608559479,121.2049679485156,882.7948613135404,62.398453675035874,883.6655617711331,44.940959020442925C884.5640376940858,26.926567865079775,885.4625136170384,16.33790890482928,886.3609895399911,16.33790890482928C887.2304823686551,16.33790890482928,888.0999751973189,41.60348837685773,888.9694680259829,57.02277385927118C889.8679439489356,72.9560355244317,890.7664198718884,108.87390052156478,891.6648957948411,110.77327532650749C892.5633717177938,112.67265013145011,893.4618476407464,113.62233753392142,894.3603235636991,113.62233753392142C895.2008332980743,113.62233753392142,896.0413430324494,97.04904983241963,896.8818527668245,91.5781318701494C897.7791210608485,85.73776973514009,898.6763893548724,85.81552828636256,899.5736576488964,80.47474703158358C900.4431504775604,75.29929278738264,901.3126433062243,60.329250296165206,902.1821361348883,60.329250296165206C903.080612057841,60.329250296165206,903.9790879807936,61.20850262447269,904.8775639037462,61.20850262447269C905.7470567324102,61.20850262447269,906.6165495610742,26.553021898676906,907.4860423897381,25.429680299794644C908.3845183126908,24.26889398094974,909.2829942356435,24.53655766172886,910.1814701585962,23.688500821527292C911.0799460815489,22.840443981325688,911.9784220045017,21.26545676589188,912.8768979274544,20.341339258585055C913.7463907561182,19.447031993449453,914.6158835847822,19.626472901156543,915.485376413446,18.19674018629952C916.3850599653274,16.717363974398822,917.2847435172089,0,918.1844270690902,0C919.0539198977542,0,919.9234127264181,0,920.792905555082,0C921.6913814780347,0,922.5898574009875,0,923.4883333239402,0C924.3868092468929,0,925.2852851698456,0,926.1837610927982,0C926.9952877328845,0,927.806814372971,0,928.6183410130573,0C929.5156093070813,0,930.4128776011052,4.227548037942592,931.3101458951292,5.761094149304979C932.1796387237931,7.247168442953756,933.0491315524571,6.883927562398435,933.918624381121,9.12959438858535C934.8171003040737,11.450116775644956,935.7155762270264,19.95124441358892,936.6140521499791,19.95124441358892C937.483544978643,19.95124441358892,938.3530378073069,19.48684008085938,939.2225306359708,19.48684008085938C940.1210065589235,19.48684008085938,941.0194824818763,23.19596861690465,941.9179584048289,23.19596861690465C942.8164343277816,23.19596861690465,943.7149102507344,7.504926153224637,944.6133861736871,4.4437062749355665C945.482879002351,1.4812354249785225,946.3523718310149,0,947.2218646596788,0C948.1215482115601,0,949.0212317634416,0,949.920915315323,0C950.790408143987,0,951.6599009726508,0,952.5293938013148,0C953.4278697242675,0,954.3263456472203,0,955.2248215701729,0C956.1232974931256,0,957.0217734160784,12.301026724082543,957.9202493390311,20.645250622150336C958.7317759791174,28.181968981695157,959.5433026192037,46.8347377720536,960.35482925929,46.8347377720536C961.252097553314,46.8347377720536,962.149365847338,28.712357158172193,963.046634141362,20.807719611577568C963.9161269700259,13.147774748121272,964.7856197986898,0,965.6551126273537,0C966.5535885503064,0,967.4520644732592,1.53116528189301,968.3505403962118,1.53116528189301C969.2200332248757,1.53116528189301,970.0895260535397,0,970.9590188822035,0C971.8574948051562,0,972.755970728109,0,973.6544466510617,0C974.5529225740144,0,975.4513984969672,0,976.3498744199198,0C977.2193672485838,0,978.0888600772477,48.90344137300562,978.9583529059116,48.90344137300562C979.858036457793,48.90344137300562,980.7577200096745,39.2100438651507,981.6574035615558,39.2100438651507C982.5268963902197,39.2100438651507,983.3963892188837,106.70178384516316,984.2658820475475,106.70178384516316C985.1643579705002,106.70178384516316,986.062833893453,61.017817897331824,986.9613098164057,46.09676681072755C987.8597857393584,31.17571572412328,988.7582616623112,25.081031132283098,989.6567375852638,17.175477325537535C990.4682642253501,10.034977112993424,991.2797908654364,0,992.0913175055227,0C992.9885857995467,0,993.8858540935707,0,994.7831223875947,0C995.6526152162586,0,996.5221080449226,48.178003183116104,997.3916008735864,48.178003183116104C998.2900767965391,48.178003183116104,999.1885527194919,16.91244205085249,1000.0870286424446,10.013945951162672C1000.9565214711085,3.3379819837208906,1001.8260142997724,0,1002.6955071284364,0C1003.593983051389,0,1004.4924589743418,12.049099161312526,1005.3909348972945,12.049099161312526C1006.2894108202472,12.049099161312526,1007.1878867431999,0,1008.0863626661526,0C1008.9570631237452,0,1009.8277635813378,0,1010.6984640389304,0C1011.5969399618831,0,1012.4954158848359,0,1013.3938918077886,0C1014.2633846364524,0,1015.1328774651164,0,1016.0023702937802,0C1016.9008462167329,0,1017.7993221396857,0,1018.6977980626384,0C1019.5962739855911,0,1020.4947499085439,36.045695316663966,1021.3932258314966,67.51459666124838C1022.2337355658717,96.95324630618103,1023.0742453002467,179.36463747978698,1023.9147550346219,179.36463747978698C1024.8120233286459,179.36463747978698,1025.7092916226698,105.95055677686243,1026.6065599166939,94.99976167763397C1027.4760527453577,84.38795485200181,1028.3455455740218,85.26861413637222,1029.2150384026856,79.08205143918573C1030.1135143256383,72.68926998542665,1031.011990248591,57.082661836975525,1031.9104661715437,57.082661836975525C1032.7799590002076,57.082661836975525,1033.6494518288716,61.05652850045706,1034.5189446575355,61.05652850045706C1035.4174205804882,61.05652850045706,1036.3158965034409,15.910307889411223,1037.2143724263935,15.910307889411223C1038.1128483493462,15.910307889411223,1039.0113242722991,21.905451880983016,1039.9098001952518,27.39277908397525C1040.7805006528445,32.71047117182067,1041.651201110437,48.02225159515966,1042.5219015680295,48.02225159515966C1043.4203774909822,48.02225159515966,1044.3188534139351,0,1045.2173293368878,0C1046.0868221655517,0,1046.9563149942155,0,1047.8258078228794,0C1048.724283745832,0,1049.622759668785,0,1050.5212355917376,0C1051.4197115146903,0,1052.318187437643,0,1053.2166633605957,0" stroke="#4285F4" class="chart-line-curves-curve" style="font-family: &quot;Basis Grotesque&quot;, sans-serif; font-size: 16px; fill: none; opacity: 1; stroke: rgb(66, 133, 244); stroke-width: 2px; color: rgb(51, 51, 51); text-anchor: start"/>
    <path d="M0,0C0.8984759229527083,0,1.7969518459054163,0,2.6954277688581247,0C3.535937503233239,0,4.376447237608353,0,5.216956971983468,0C6.057466706358582,0,6.897976440733696,0,7.73848617510881,0C8.636962098061518,0,9.535438021014226,0,10.433913943966935,0C11.303406772630847,0,12.172899601294757,6.493126541512351,13.042392429958669,6.493126541512351C13.940868352911377,6.493126541512351,14.839344275864086,0,15.737820198816793,0C16.607313027480703,0,17.476805856144615,0,18.346298684808527,0C19.244774607761236,0,20.143250530713942,17.96123316360132,21.04172645366665,17.96123316360132C21.94020237661936,17.96123316360132,22.838678299572067,0,23.737154222524776,0C24.606647051188688,0,25.4761398798526,0,26.34563270851651,0C27.24410863146922,0,28.142584554421926,5.0596515963513,29.041060477374636,5.0596515963513C29.910553306038548,5.0596515963513,30.78004613470246,0,31.64953896336637,0C32.54801488631908,0,33.446490809271786,0,34.34496673222449,0C35.21445956088841,0,36.083952389552316,1.079254189307155,36.95344521821623,1.079254189307155C37.764971858302545,1.079254189307155,38.576498498388865,0,39.38802513847518,0C40.286501061427884,0,41.1849769843806,0,42.0834529073333,0C42.95294573599721,0,43.82243856466113,0,44.691931393325035,0C45.59040731627775,0,46.488883239230454,0,47.38735916218317,0C48.256851990847075,0,49.12634481951099,0,49.9958376481749,0C50.894313571127604,0,51.79278949408032,7.912580464968622,52.69126541703302,7.912580464968622C53.58974133998573,7.912580464968622,54.488217262938434,0,55.38669318589114,0C56.256186014555055,0,57.125678843218964,28.9505305441341,57.99517167188288,28.9505305441341C58.893647594835585,28.9505305441341,59.7921235177883,15.016376756058214,60.690599440741,15.016376756058214C61.56009226940492,15.016376756058214,62.42958509806883,15.963229804566751,63.29907792673274,17.856935901583824C64.19755384968545,19.813765535168123,65.09602977263816,46.62539875145205,65.99450569559086,57.406435915770935C66.89298161854357,68.18747308008984,67.79145754149627,75.47857680535054,68.68993346444898,82.54315888749714C69.50146010453531,88.92407173588767,70.31298674462163,94.0425433854756,71.12451338470795,98.46915055168581C72.02298930766065,103.37003705713279,72.92146523061336,109.92822648498951,73.81994115356606,109.92822648498951C74.68943398222997,109.92822648498951,75.5589268108939,69.43825450042063,76.4284196395578,65.93698317236996C77.32689556251051,62.319002800050946,78.22537148546321,60.51001261389144,79.12384740841593,60.51001261389144C79.99334023707983,60.51001261389144,80.86283306574374,61.778060567784934,81.73232589440765,64.31415647557192C82.63080181736036,66.93478891361848,83.52927774031306,106.29986042213828,84.42775366326578,121.28348726388316C85.32622958621849,136.2671141056281,86.2247055091712,154.2159175260413,87.12318143212391,154.2159175260413C87.99267426078782,154.2159175260413,88.86216708945173,125.1118136468467,89.73165991811564,125.1118136468467C90.63013584106835,125.1118136468467,91.52861176402105,127.0670326952148,92.42708768697376,127.0670326952148C93.29658051563767,127.0670326952148,94.1660733443016,116.74405842057733,95.0355661729655,110.28876865685172C95.93404209591822,103.6183025676686,96.83251801887091,97.2641968768978,97.73099394182363,87.51438300268677C98.62946986477634,77.76456912847574,99.52794578772904,62.699904893771496,100.42642171068175,51.78988541158552C101.23794835076806,41.93567426638527,102.04947499085439,32.94489900777014,102.8610016309407,24.67016590868193C103.75947755389342,15.508854263262855,104.65795347684612,0,105.55642939979883,0C106.42592222846274,0,107.29541505712665,0,108.16490788579056,0C109.06338380874327,0,109.96185973169597,13.530165469828326,110.86033565464868,13.530165469828326C111.72982848331259,13.530165469828326,112.59932131197651,0,113.46881414064042,0C114.36729006359313,0,115.26576598654583,4.0648011444388565,116.16424190949854,4.0648011444388565C117.06271783245126,4.0648011444388565,117.96119375540395,0,118.85966967835667,0C119.72916250702058,0,120.5986553356845,0,121.4681481643484,0C122.36662408730112,0,123.26510001025382,34.377164803951864,124.16357593320653,34.377164803951864C125.03306876187044,34.377164803951864,125.90256159053435,4.6076248342588055,126.77205441919826,4.6076248342588055C127.67053034215097,4.6076248342588055,128.56900626510367,9.140724244654841,129.46748218805638,9.140724244654841C130.3659581110091,9.140724244654841,131.2644340339618,3.1760267907973705,132.16290995691452,3.1760267907973705C133.00341969128962,3.1760267907973705,133.84392942566473,13.35161095510301,134.68443916003983,13.35161095510301C135.58291508299254,13.35161095510301,136.48139100594526,8.81509386624172,137.37986692889797,6.55348864458194C138.24935975756188,4.36483843007247,139.1188525862258,0,139.98834541488972,0C140.88682133784243,0,141.78529726079512,15.733893924524649,142.68377318374783,20.674607212089747C143.55326601241174,25.455942651668934,144.42275884107568,29.53763474367316,145.29225166973958,29.53763474367316C146.1907275926923,29.53763474367316,147.08920351564498,27.508062089392585,147.9876794385977,23.84082093124551C148.8861553615504,20.173579773098396,149.78463128450312,11.526232292714564,150.68310720745583,7.534187794790482C151.55260003611974,3.670918925831726,152.42209286478365,0,153.29158569344756,0C154.19006161640027,0,155.08853753935296,0,155.98701346230567,0C156.85650629096958,0,157.7259991196335,0,158.59549194829742,0C159.49396787125013,0,160.39244379420282,0,161.29091971715553,0C162.18939564010824,0,163.08787156306096,0,163.98634748601367,0C164.7978741261,0,165.6094007661863,0,166.42092740627263,0C167.31940332922534,0,168.21787925217802,0,169.11635517513074,0C169.98584800379464,0,170.85534083245858,0,171.7248336611225,0C172.6233095840752,0,173.5217855070279,0,174.4202614299806,0C175.2897542586445,0,176.15924708730842,0,177.02873991597232,0C177.92721583892504,0,178.82569176187775,0,179.72416768483046,0C180.62264360778317,0,181.52111953073586,24.203363961259328,182.41959545368857,24.203363961259328C183.28908828235248,24.203363961259328,184.15858111101642,0.36506023001242616,185.02807393968033,0.36506023001242616C185.92654986263304,0.36506023001242616,186.82502578558572,13.787058841387367,187.72350170853844,13.787058841387367C188.59299453720234,13.787058841387367,189.46248736586628,0,190.3319801945302,0C191.2304561174829,0,192.1289320404356,0,193.0274079633883,0C193.925883886341,0,194.82435980929372,6.445570524959674,195.72283573224644,15.343522660023313C196.53436237233277,23.38038265298399,197.34588901241906,48.71389624578498,198.1574156525054,48.71389624578498C199.0558915754581,48.71389624578498,199.9543674984108,35.778170564141455,200.8528434213635,35.778170564141455C201.7223362500274,35.778170564141455,202.59182907869132,42.393506554804425,203.46132190735523,45.78895409353323C204.35979783030794,49.29758321688632,205.25827375326062,56.203275135921785,206.15674967621334,56.502299555158785C207.02624250487725,56.791678025388144,207.89573533354118,56.93636726050283,208.7652281622051,56.93636726050283C209.6637040851578,56.93636726050283,210.56218000811052,45.539539281454154,211.46065593106323,45.539539281454154C212.35913185401594,45.539539281454154,213.25760777696863,62.770373878338724,214.15608369992134,62.770373878338724C215.02557652858525,62.770373878338724,215.89506935724918,58.07630732398744,216.7645621859131,58.07630732398744C217.6630381088658,58.07630732398744,218.5615140318185,67.1774331570868,219.4599899547712,67.1774331570868C220.3294827834351,67.1774331570868,221.19897561209902,53.56852792626343,222.06846844076293,53.56852792626343C222.96694436371564,53.56852792626343,223.86542028666835,62.80017752000511,224.76389620962107,62.80017752000511C225.66237213257378,62.80017752000511,226.56084805552646,58.018716936936734,227.45932397847918,54.79624703850566C228.2708506185655,51.88562906572919,229.0823772586518,48.337908510605935,229.89390389873813,44.70729873556195C230.79237982169084,40.687695056048995,231.69085574464353,38.40457957163152,232.58933166759624,31.664343995080614C233.45882449626015,25.141535372611905,234.3283173249241,5.373777867264062,235.197810153588,5.373777867264062C236.0962860765407,5.373777867264062,236.99476199949342,8.343598336258696,237.89323792244613,8.343598336258696C238.76273075111004,8.343598336258696,239.63222357977395,0,240.50171640843786,0C241.40019233139057,0,242.29866825434328,0,243.197144177296,0C244.0956201002487,0,244.9940960232014,0,245.8925719461541,0C246.76206477481801,0,247.63155760348192,8.387472816475395,248.50105043214583,8.387472816475395C249.39952635509854,8.387472816475395,250.29800227805126,0,251.19647820100397,0C252.06597102966788,0,252.9354638583318,0,253.8049566869957,0C254.7034326099484,0,255.6019085329011,0,256.5003844558538,0C257.3988603788065,0,258.29733630175923,1.0438051135630566,259.1958122247119,1.0438051135630566C260.03632195908705,1.0438051135630566,260.8768316934622,0,261.7173414278373,0C262.6146097218613,0,263.5118780158853,0,264.4091463099093,0C265.2786391385732,0,266.14813196723713,0,267.01762479590104,0C267.9161007188538,0,268.81457664180647,0,269.7130525647592,0C270.5825453934231,0,271.452038222087,21.90499971934978,272.32153105075093,21.90499971934978C273.2200069737036,21.90499971934978,274.1184828966563,20.445261958602654,275.016958819609,17.525786437108394C275.91543474256173,14.606310915614012,276.8139106655144,0,277.71238658846715,0C278.5830870460598,0,279.4537875036524,0,280.32448796124504,0C281.2229638841977,0,282.1214398071504,0,283.0199157301031,0C283.889408558767,0,284.7589013874309,0,285.6283942160948,0C286.52687013904756,0,287.42534606200024,0,288.323821984953,0C289.22229790790567,0,290.1207738308584,0,291.0192497538111,0C291.8307763938974,0,292.64230303398375,6.949861404026536,293.45382967407005,6.949861404026536C294.35109796809405,6.949861404026536,295.2483662621181,0,296.1456345561421,0C297.015127384806,0,297.88462021346993,0,298.75411304213384,0C299.6525889650865,0,300.5510648880392,0,301.4495408109919,0C302.3190336396558,0,303.18852646831976,0,304.0580192969837,0C304.95649521993636,0,305.8549711428891,21.993179235162643,306.7534470658418,21.993179235162643C307.6519229887945,21.993179235162643,308.5503989117472,3.0345778888005714,309.44887483469995,3.0345778888005714C310.31957529229254,3.0345778888005714,311.19027574988513,34.81572000715971,312.0609762074777,34.81572000715971C312.95945213043046,34.81572000715971,313.85792805338315,34.61297259425193,314.7564039763359,34.207477768436355C315.6258968049998,33.81506342087291,316.4953896336637,17.14501098599127,317.3648824623276,11.473674481122798C318.2633583852803,5.613293426092053,319.16183430823304,0,320.0603102311857,0C320.9587861541384,0,321.85726207709115,0,322.75573800004383,0C323.56726464013013,0,324.3787912802165,0,325.1903179203028,0C326.0875862143268,0,326.9848545083508,0,327.8821228023748,0C328.7516156310387,0,329.62110845970267,8.617884492442386,330.4906012883666,8.617884492442386C331.38907721131926,8.617884492442386,332.287553134272,0,333.1860290572247,0C334.0555218858886,0,334.92501471455256,0,335.79450754321647,0C336.69298346616915,0,337.59145938912184,55.53663828679608,338.4899353120745,57.28592270811694C339.38841123502726,59.035207129437886,340.28688715797995,59.909849340098354,341.1853630809327,59.909849340098354C342.0560635385253,59.909849340098354,342.9267639961179,50.517786624794866,343.7974644537105,40.83450522906607C344.6959403766632,30.842325813778693,345.59441629961594,0.4001666777807774,346.4928922225686,0.23694079605440788C347.36238505123254,0.07898026535146929,348.23187787989644,0,349.10137070856035,0C349.9998466315131,0,350.8983225544658,0,351.7967984774185,0C352.6952744003712,0,353.59375032332395,3.4393981841788768,354.49222624627663,3.4393981841788768C355.30375288636293,3.4393981841788768,356.1152795264493,0,356.9268061665356,0C357.8240744605596,0,358.7213427545836,0,359.6186110486076,0C360.4881038772715,0,361.35759670593546,14.40543190441279,362.2270895345994,14.40543190441279C363.12556545755206,14.40543190441279,364.02404138050474,0,364.9225173034574,0C365.79201013212133,0,366.66150296078524,20.1765629036193,367.53099578944915,20.1765629036193C368.4294717124019,20.1765629036193,369.3279476353546,15.85606075401158,370.2264235583073,15.85606075401158C371.12489948126,15.85606075401158,372.02337540421274,23.72475209128666,372.9218513271654,23.72475209128666C373.79134415582934,23.72475209128666,374.6608369844933,0,375.5303298131572,0C376.43001336503863,0,377.32969691692,0,378.2293804688014,0C379.09887329746533,0,379.96836612612924,0,380.83785895479315,0C381.73633487774583,0,382.6348108006986,15.451715344437511,383.53328672365126,15.451715344437511C384.43176264660394,15.451715344437511,385.3302385695567,10.349571739917465,386.22871449250937,7.683496606310348C387.0692242268845,5.189426320032711,387.9097339612596,0,388.7502436956347,0C389.6475119896587,0,390.5447802836827,0,391.4420485777067,0C392.3115414063706,0,393.1810342350346,20.716223389431132,394.0505270636985,20.716223389431132C394.9490029866512,20.716223389431132,395.8474789096039,17.01721082900071,396.7459548325566,15.291671400881057C397.6154476612205,13.621794534958811,398.4849404898844,12.991572893622088,399.35443331854833,10.514236779984254C400.2529092415011,7.954322795891777,401.15138516445376,0,402.0498610874065,0C402.9483370103592,0,403.84681293331187,15.714308309649926,404.74528885626455,15.714308309649926C405.61478168492846,15.714308309649926,406.4842745135924,1.9165466376253604,407.35376734225633,1.9165466376253604C408.25345089413776,1.9165466376253604,409.1531344460192,27.63100007178054,410.0528179979006,36.15363241947123C410.9223108265645,44.39027039307799,411.79180365522836,52.766420188892994,412.6612964838923,52.766420188892994C413.55977240684496,52.766420188892994,414.4582483297977,40.195828356988486,415.3567242527504,40.195828356988486C416.2552001757031,40.195828356988486,417.1536760986558,67.02217332086634,418.05215202160855,71.49262339369122C418.86367866169485,75.53044926592008,419.6752053017812,77.54936220203452,420.4867319418675,77.54936220203452C421.3852078648202,77.54936220203452,422.28368378777293,61.021317436136755,423.1821597107256,54.38988480128787C424.05044491046084,47.981282564115354,424.918730110196,38.21351020897312,425.78701530993123,38.21351020897312C426.685491232884,38.21351020897312,427.58396715583666,45.16195606037469,428.4824430787894,49.21725347355416C429.3519359074533,53.141734841147034,430.22142873611716,54.848353152987784,431.09092156478107,62.079078510215766C431.9893974877338,69.55082804601832,432.8878734106865,83.98498800309353,433.78634933363924,93.92317972279807C434.6848252565919,103.86137144250239,435.58330117954466,121.7082288284424,436.48177710249735,121.7082288284424C437.35247756008994,121.7082288284424,438.2231780176826,109.1165866184206,439.0938784752752,102.28227602059175C439.99235439822786,95.2299499667989,440.8908303211806,82.07232382715097,441.7893062441333,79.97851136143225C442.6587990727972,77.95224123331732,443.52829190146116,76.93910616925986,444.39778473012507,76.93910616925986C445.29626065307775,76.93910616925986,446.1947365760305,79.3760904821871,447.0932124989832,80.34864837543853C447.99168842193586,81.32120626868996,448.8901643448886,82.7744535287685,449.7886402678413,82.7744535287685C450.6001669079276,82.7744535287685,451.41169354801394,71.82492429539022,452.22322018810024,71.82492429539022C453.12048848212424,71.82492429539022,454.01775677614825,87.60941315683081,454.91502507017225,93.5535870978813C455.78451789883616,99.31375565448477,456.65401072750007,98.80521797879598,457.523503556164,107.17543296812742C458.4219794791167,115.82465512377007,459.3204554020694,136.25162154753565,460.21893132502214,145.39058380498477C461.08842415368605,154.23474082832246,461.95791698234996,161.8102165211387,462.82740981101387,161.8102165211387C463.7258857339666,161.8102165211387,464.6243616569193,156.10280079221178,465.52283757987203,156.10280079221178C466.4213135028247,156.10280079221178,467.3197894257774,184.17996807036496,468.2182653487301,184.17996807036496C469.08896580632273,184.17996807036496,469.9596662639153,170.39195780349633,470.83036672150797,164.83202341778437C471.72884264446066,159.09472635402625,472.6273185674134,150.46121704056358,473.5257944903661,150.46121704056358C474.39528731903,150.46121704056358,475.26478014769384,166.55576392872211,476.13427297635775,173.5978822864177C477.0327488993105,180.87473792270345,477.9312248222632,192.4950601828228,478.8297007452159,193.2818846663531C479.7281766681686,194.0687091498834,480.62665259112134,193.67529690811824,481.525128514074,194.46212139164854C482.3366551541604,195.17280157032107,483.1481817942467,199.28973849688398,483.95970843433304,199.28973849688398C484.85697672835704,199.28973849688398,485.75424502238104,179.57759109059555,486.65151331640504,175.7445265328032C487.52100614506895,172.0301167325199,488.39049897373286,173.81496688488727,489.25999180239677,170.17291183237825C490.1584677253495,166.40945494478552,491.0569436483022,156.30004917948332,491.95541957125494,153.1650711815164C492.82491239991884,150.13122150606466,493.6944052285827,151.64814634379053,494.5638980572466,148.6142966683388C495.4623739801993,145.47931867037195,496.36084990315203,127.3961980817383,497.2593258261047,127.3961980817383C498.15780174905746,127.3961980817383,499.05627767201014,145.07440235180263,499.9547535949629,145.07440235180263C500.8254540525555,145.07440235180263,501.69615451014806,124.73626916712843,502.56685496774065,124.73626916712843C503.4653308906934,124.73626916712843,504.3638068136461,130.6492564148692,505.2622827365988,130.6492564148692C506.1317755652627,130.6492564148692,507.00126839392664,127.38923410292074,507.87076122259055,123.53487623329829C508.7692371455433,119.55203976802169,509.66771306849597,111.28232784720485,510.5661889914487,106.83615085565506C511.46466491440145,102.38997386410527,512.3631408373542,99.5230519437044,513.2616167603069,96.85781428399953C514.102126494682,94.3645274410499,514.942636229057,91.1130072841067,515.7831459634322,91.1130072841067C516.6804142574562,91.1130072841067,517.5776825514802,93.52762346038436,518.4749508455042,95.07537972602398C519.3444436741681,96.57522429030467,520.213936502832,100.21430715100371,521.083429331496,100.21430715100371C521.9819052544486,100.21430715100371,522.8803811774013,89.9032045789968,523.778857100354,89.9032045789968C524.648349929018,89.9032045789968,525.5178427576818,97.45221740469728,526.3873355863458,97.45221740469728C527.2858115092985,97.45221740469728,528.1842874322513,91.77177446735301,529.082763355204,91.77177446735301C529.9812392781566,91.77177446735301,530.8797152011093,92.01299498653675,531.778191124062,92.01299498653675C532.647683952726,92.01299498653675,533.5171767813898,91.21630051727236,534.3866696100538,90.05785242834492C535.2863531619352,88.8591804474409,536.1860367138165,87.13354479327276,537.0857202656979,84.83423240903115C537.9552130943619,82.61207815848867,538.8247059230258,80.01451369609471,539.6941987516898,76.60393739406335C540.5926746746425,73.07967521529793,541.4911505975952,66.49057578359853,542.3896265205478,63.894064225131494C543.2881024435005,61.297552666664345,544.1865783664533,61.23317139350581,545.085054289406,59.99929688743077C545.8965809294923,58.8848295916211,546.7081075695786,56.81346498384032,547.5196342096649,56.81346498384032C548.4169025036889,56.81346498384032,549.314170797713,60.4599567850182,550.211439091737,60.4599567850182C551.0809319204009,60.4599567850182,551.9504247490648,35.311888409575964,552.8199175777287,26.99014857996468C553.7183935006814,18.391017422699335,554.6168694236342,14.812533424777332,555.5153453465869,10.27376594848839C556.3848381752507,5.881410326273464,557.2543310039147,0,558.1238238325785,0C559.0222997555312,0,559.920775678484,0,560.8192516014367,0C561.7177275243894,0,562.6162034473421,0,563.5146793702947,0C564.3841721989586,0,565.2536650276226,14.179779845159002,566.1231578562864,14.179779845159002C567.0228414081679,14.179779845159002,567.9225249600493,0,568.8222085119307,0C569.6917013405947,0,570.5611941692586,0,571.4306869979225,0C572.3291629208752,0,573.2276388438279,0,574.1261147667806,0C575.0245906897333,0,575.9230666126861,0,576.8215425356387,0C577.633069175725,0,578.4445958158113,2.1297557999261523,579.2561224558976,3.4846746454590405C580.1533907499216,4.982747119017066,581.0506590439458,5.21912516305891,581.9479273379698,8.688026198258648C582.8174201666336,12.049545370995741,583.6869129952976,34.562061001081666,584.5564058239614,34.562061001081666C585.4548817469141,34.562061001081666,586.3533576698669,31.562954790533553,587.2518335928196,29.99657575024095C588.1213264214836,28.480725066086816,588.9908192501474,28.439002317896257,589.8603120788114,25.323855453206868C590.7587880017641,22.10487035969478,591.6572639247166,14.78806292768161,592.5557398476693,10.56742035214725C593.454215770622,6.3467777766125355,594.3526916935748,0,595.2511676165275,0C596.1206604451914,0,596.9901532738553,0,597.8596461025193,0C598.7593296544006,0,599.6590132062821,4.2050510803464665,600.5586967581635,4.2050510803464665C601.4281895868273,4.2050510803464665,602.2976824154913,0,603.1671752441551,0C604.0656511671078,0,604.9641270900606,0,605.8626030130133,0C606.761078935966,0,607.6595548589188,6.6494702576738725,608.5580307818715,6.6494702576738725C609.3695574219578,6.6494702576738725,610.1810840620442,4.0623127955831055,610.9926107021305,2.993821439147726C611.8898789961545,1.8124388828509077,612.7871472901785,0,613.6844155842025,0C614.5539084128665,0,615.4234012415303,0,616.2928940701943,0C617.191369993147,0,618.0898459160995,4.2297386960409415,618.9883218390522,7.40486156731529C619.8578146677162,10.477561120161836,620.7273074963801,18.608866929140543,621.5968003250441,18.608866929140543C622.4952762479968,18.608866929140543,623.3937521709495,15.424246983742384,624.2922280939022,13.510770700060071C625.1907040168549,11.597294416377679,626.0891799398077,9.422089772201963,626.9876558627603,7.128009227046372C627.8571486914242,4.907931280121699,628.7266415200882,0,629.596134348752,0C630.4958179006334,0,631.3955014525148,19.364472097240597,632.2951850043962,22.154526490835046C633.1646778330602,24.850954898067325,634.034170661724,23.502740694451184,634.903663490388,26.199169101683463C635.8021394133407,28.985478455823475,636.7006153362935,51.453123209402655,637.5990912592462,56.09707200978059C638.4975671821988,60.741020810158325,639.3960431051515,58.46867587608415,640.2945190281042,63.0629952103472C641.1350287624794,67.36090684562555,641.9755384968544,81.92252227920949,642.8160482312295,81.92252227920949C643.7133165252535,81.92252227920949,644.6105848192776,61.892373279146035,645.5078531133016,60.009565252917454C646.3773459419655,58.18504065145783,647.2468387706294,57.272778350728025,648.1163315992933,57.272778350728025C649.014807522246,57.272778350728025,649.9132834451988,95.52946876572177,650.8117593681515,95.52946876572177C651.6812521968154,95.52946876572177,652.5507450254793,95.41032930929566,653.4202378541432,95.17205039644344C654.3187137770959,94.92582885316281,655.2171897000486,72.79205673590845,656.1156656230013,72.79205673590845C657.014141545954,72.79205673590845,657.9126174689068,95.35966423895633,658.8110933918595,105.95013788252C659.6817938494521,116.21321785161848,660.5524943070446,132.2017226864373,661.4231947646373,135.43712674687634C662.32167068759,138.77574064558186,663.2201466105428,138.5383889025816,664.1186225334955,140.44504759493464C664.9881153621593,142.29020116817944,665.8576081908233,144.05816579331704,666.7271010194871,146.64736544900896C667.6255769424398,149.32287175989072,668.5240528653926,149.87999588937018,669.4225287883453,156.3452567700926C670.321004711298,162.81051765081475,671.2194806342507,188.89116636291624,672.1179565572033,188.89116636291624C672.9294831972896,188.89116636291624,673.741009837376,184.95454066144146,674.5525364774624,177.33096051664555C675.4498047714864,168.9019128267896,676.3470730655104,143.4959608395386,677.2443413595344,138.21700048980057C678.1138341881983,133.10145344833154,678.9833270168622,130.69066123528825,679.8528198455261,130.54367992759703C680.7512957684788,130.39179924298278,681.6497716914315,130.4677395852899,682.5482476143842,130.31585890067566C683.4177404430482,130.16887759298444,684.287233271712,102.75628714962808,685.156726100376,93.91862586712175C686.0552020233287,84.78637587519856,686.9536779462815,81.22044874098741,687.8521538692341,77.0760575222183C688.7506297921868,72.9316663034492,689.6491057151396,69.05227855450713,690.5475816380923,69.05227855450713C691.4182820956848,69.05227855450713,692.2889825532775,82.34453939779368,693.15968301087,82.34453939779368C694.0581589338227,82.34453939779368,694.9566348567755,74.06954244339985,695.8551107797282,67.45367620320414C696.7246036083922,61.051225003014714,697.594096437056,43.60421857204494,698.46358926572,43.60421857204494C699.3620651886727,43.60421857204494,700.2605411116255,45.803398403788385,701.1590170345781,45.803398403788385C702.0574929575308,45.803398403788385,702.9559688804834,32.85954669270097,703.8544448034361,24.730576477782652C704.6659714435224,17.388280799791232,705.4774980836088,0,706.2890247236951,0C707.1862930177191,0,708.0835613117431,0,708.9808296057671,0C709.8503224344311,0,710.7198152630949,1.7876297728441477,711.5893080917589,4.324908750186318C712.4877840147116,6.946763693439887,713.3862599376644,15.700182449667476,714.284735860617,15.700182449667476C715.1542286892809,15.700182449667476,716.0237215179449,7.408055726692789,716.8932143466087,4.989707459972403C717.7916902695614,2.4907475843612374,718.6901661925142,1.970765670309993,719.5886421154669,1.1824594021859758C720.4871180384196,0.3941531340619919,721.3855939613723,0,722.2840698843249,0C723.1535627129889,0,724.0230555416528,0,724.8925483703167,0C725.7922319221982,0,726.6919154740796,0,727.591599025961,0C728.4610918546249,0,729.3305846832889,0,730.2000775119527,0C731.0985534349054,0,731.9970293578581,3.1273142327981063,732.8955052808108,3.1273142327981063C733.7939812037635,3.1273142327981063,734.6924571267162,0,735.5909330496689,0C736.4024596897552,0,737.2139863298415,17.01256355199332,738.0255129699278,17.01256355199332C738.9227812639518,17.01256355199332,739.820049557976,16.435885923329803,740.717317852,15.282530666002769C741.5868106806638,14.164878195914728,742.4563035093278,4.5977142898238625,743.3257963379916,4.5977142898238625C744.2242722609443,4.5977142898238625,745.1227481838971,14.09742684138826,746.0212241068498,14.09742684138826C746.8907169355136,14.09742684138826,747.7602097641776,11.713089233826246,748.6297025928415,11.713089233826246C749.5281785157941,11.713089233826246,750.4266544387469,36.88105952231254,751.3251303616996,38.98411021900433C752.2236062846523,41.08716091569603,753.122082207605,42.13868626404188,754.0205581305577,42.13868626404188C754.8900509592216,42.13868626404188,755.7595437878856,24.47339100153855,756.6290366165496,20.39918378124339C757.5287201684309,16.183511032466217,758.4284037203123,17.580433366378738,759.3280872721937,14.07567465807763C760.1975801008576,10.688525302403859,761.0670729295215,0,761.9365657581855,0C762.8350416811381,0,763.7335176040908,0,764.6319935270435,0C765.5304694499962,0,766.428945372949,0,767.3274212959017,0C768.1679310302768,0,769.0084407646519,0,769.8489504990271,0C770.7462187930511,0,771.6434870870751,0,772.5407553810991,0C773.4102482097629,0,774.2797410384269,5.86936893890705,775.1492338670907,5.86936893890705C776.0477097900434,5.86936893890705,776.9461857129962,0,777.8446616359489,0C778.7141544646128,0,779.5836472932767,0,780.4531401219406,0C781.3516160448933,0,782.2500919678461,0.19290989854658935,783.1485678907987,0.19290989854658935C784.0470438137514,0.19290989854658935,784.9455197367042,0,785.8439956596569,0C786.7134884883208,0,787.5829813169847,5.148964520891697,788.4524741456486,5.148964520891697C789.3521576975301,5.148964520891697,790.2518412494114,0,791.1515248012929,0C792.0210176299568,0,792.8905104586207,0,793.7600032872846,0C794.6584792102373,0,795.5569551331901,0,796.4554310561427,0C797.3539069790954,0,798.2523829020482,0,799.1508588250009,0C799.9623854650872,0,800.7739121051735,0,801.5854387452598,0C802.4827070392838,0,803.3799753333078,0,804.2772436273318,0C805.1467364559957,0,806.0162292846596,1.203952781270612,806.8857221133235,3.6118583438118357C807.7841980362762,6.100027425104535,808.682673959229,22.246715879836344,809.5811498821816,22.246715879836344C810.4506427108455,22.246715879836344,811.3201355395095,3.6286445282688873,812.1896283681733,3.6286445282688873C813.088104291126,3.6286445282688873,813.9865802140788,13.571974264295628,814.8850561370315,13.571974264295628C815.7835320599842,13.571974264295628,816.682007982937,0,817.5804839058897,0C818.4511843634823,0,819.3218848210748,0,820.1925852786675,0C821.0910612016202,0,821.989537124573,0,822.8880130475256,0C823.7575058761895,0,824.6269987048535,0,825.4964915335173,0C826.39496745647,0,827.2934433794228,0.7264559370683821,828.1919193023755,0.7264559370683821C829.0903952253282,0.7264559370683821,829.9888711482809,0,830.8873470712335,0C831.69887371132,0,832.5104003514062,0,833.3219269914927,0C834.2191952855167,0,835.1164635795406,0,836.0137318735646,0C836.8832247022284,0,837.7527175308924,0,838.6222103595562,0C839.5206862825089,0,840.4191622054617,0,841.3176381284144,0C842.1871309570784,0,843.0566237857422,0,843.9261166144062,0C844.8245925373589,0,845.7230684603117,0,846.6215443832643,0C847.520020306217,0,848.4184962291698,0,849.3169721521225,0C850.187672609715,0,851.0583730673077,0,851.9290735249002,0C852.8275494478529,0,853.7260253708057,0,854.6245012937584,0C855.4939941224224,0,856.3634869510862,0,857.2329797797502,0C858.1314557027029,0,859.0299316256555,0,859.9284075486082,0C860.8268834715609,0,861.7253593945136,0,862.6238353174663,0C863.4353619575526,0,864.246888597639,0,865.0584152377253,0C865.9556835317493,0,866.8529518257733,11.981181426636345,867.7502201197973,11.981181426636345C868.6197129484613,11.981181426636345,869.4892057771251,2.3401137511801506,870.3586986057891,2.3401137511801506C871.2571745287418,2.3401137511801506,872.1556504516946,28.480962469375648,873.0541263746472,28.480962469375648C873.9236192033111,28.480962469375648,874.793112031975,5.254811487915623,875.6626048606389,5.254811487915623C876.5610807835916,5.254811487915623,877.4595567065444,39.75598277435033,878.3580326294971,48.115991468734464C879.2565085524498,56.4760001631186,880.1549844754026,60.656004510310666,881.0534603983552,60.656004510310666C881.9241608559479,60.656004510310666,882.7948613135404,28.082100059709994,883.6655617711331,18.161904125410466C884.5640376940858,7.925252564913011,885.4625136170384,1.010821523247163,886.3609895399911,1.010821523247163C887.2304823686551,1.010821523247163,888.0999751973189,17.331698441464262,888.9694680259829,24.302500873260747C889.8679439489356,31.505663386117096,890.7664198718884,43.3714545846145,891.6648957948411,43.3714545846145C892.5633717177938,43.3714545846145,893.4618476407464,42.17003569787449,894.3603235636991,39.76719792439448C895.2008332980743,37.51938194275178,896.0413430324494,31.5790816340008,896.8818527668245,28.992140546438616C897.7791210608485,26.230506598078605,898.6763893548724,27.37553134891265,899.5736576488964,24.14231295386071C900.4431504775604,21.00918072716131,901.3126433062243,13.02874036829771,902.1821361348883,9.30930924631701C903.080612057841,5.465897086937456,903.9790879807936,2.8759190580873426,904.8775639037462,1.7028468107097017C905.7470567324102,0.5676156035699005,906.6165495610742,0,907.4860423897381,0C908.3845183126908,0,909.2829942356435,2.377977661606412,910.1814701585962,2.377977661606412C911.0799460815489,2.377977661606412,911.9784220045017,1.9887141151522236,912.8768979274544,1.9887141151522236C913.7463907561182,1.9887141151522236,914.6158835847822,8.922198661620085,915.485376413446,8.922198661620085C916.3850599653274,8.922198661620085,917.2847435172089,0,918.1844270690902,0C919.0539198977542,0,919.9234127264181,0,920.792905555082,0C921.6913814780347,0,922.5898574009875,2.5216926236268367,923.4883333239402,2.5216926236268367C924.3868092468929,2.5216926236268367,925.2852851698456,0,926.1837610927982,0C926.9952877328845,0,927.806814372971,0.0748119500047125,928.6183410130573,0.22443585001413746C929.5156093070813,0.3898682275543079,930.4128776011052,0.9920354727182727,931.3101458951292,1.2603020782850916C932.1796387237931,1.520264334016089,933.0491315524571,1.4479369211969537,933.918624381121,1.8232066070206776C934.8171003040737,2.2109852823718246,935.7155762270264,9.247534863263834,936.6140521499791,10.214206564224614C937.483544978643,11.149695307089887,938.3530378073069,11.617439678522523,939.2225306359708,11.617439678522523C940.1210065589235,11.617439678522523,941.0194824818763,11.35991066803201,941.9179584048289,10.844852647050985C942.8164343277816,10.32979462606996,943.7149102507344,5.405439835215851,944.6133861736871,3.5877314561320595C945.482879002351,1.828658831212333,946.3523718310149,0,947.2218646596788,0C948.1215482115601,0,949.0212317634416,0,949.920915315323,0C950.790408143987,0,951.6599009726508,0.21798265143518902,952.5293938013148,0.21798265143518902C953.4278697242675,0.21798265143518902,954.3263456472203,0,955.2248215701729,0C956.1232974931256,0,957.0217734160784,7.407630973377394,957.9202493390311,10.890160360724154C958.7317759791174,14.035670775101757,959.5433026192037,19.965633743536326,960.35482925929,19.965633743536326C961.252097553314,19.965633743536326,962.149365847338,12.153044815559184,963.046634141362,8.78421723574635C963.9161269700259,5.519673685995077,964.7856197986898,0,965.6551126273537,0C966.5535885503064,0,967.4520644732592,0,968.3505403962118,0C969.2200332248757,0,970.0895260535397,0,970.9590188822035,0C971.8574948051562,0,972.755970728109,0,973.6544466510617,0C974.5529225740144,0,975.4513984969672,0,976.3498744199198,0C977.2193672485838,0,978.0888600772477,26.00772254847644,978.9583529059116,26.00772254847644C979.858036457793,26.00772254847644,980.7577200096745,20.439696814095466,981.6574035615558,20.439696814095466C982.5268963902197,20.439696814095466,983.3963892188837,52.78933986970252,984.2658820475475,52.78933986970252C985.1643579705002,52.78933986970252,986.062833893453,26.66425729283371,986.9613098164057,18.335147193636825C987.8597857393584,10.006037094439941,988.7582616623112,4.89218064381078,989.6567375852638,2.8146792745212257C990.4682642253501,0.9382264248404084,991.2797908654364,0,992.0913175055227,0C992.9885857995467,0,993.8858540935707,0,994.7831223875947,0C995.6526152162586,0,996.5221080449226,18.702401888135434,997.3916008735864,18.702401888135434C998.2900767965391,18.702401888135434,999.1885527194919,0,1000.0870286424446,0C1000.9565214711085,0,1001.8260142997724,0,1002.6955071284364,0C1003.593983051389,0,1004.4924589743418,0,1005.3909348972945,0C1006.2894108202472,0,1007.1878867431999,0,1008.0863626661526,0C1008.9570631237452,0,1009.8277635813378,2.241384261915502,1010.6984640389304,2.241384261915502C1011.5969399618831,2.241384261915502,1012.4954158848359,0,1013.3938918077886,0C1014.2633846364524,0,1015.1328774651164,0.07049385975155253,1016.0023702937802,0.07049385975155253C1016.9008462167329,0.07049385975155253,1017.7993221396857,0,1018.6977980626384,0C1019.5962739855911,0,1020.4947499085439,14.007056840640981,1021.3932258314966,28.68394940617386C1022.2337355658717,42.41394567715569,1023.0742453002467,83.30432166578555,1023.9147550346219,83.30432166578555C1024.8120233286459,83.30432166578555,1025.7092916226698,43.19086305684139,1026.6065599166939,37.142710353409434C1027.4760527453577,31.281781757889757,1028.3455455740218,31.382891991281344,1029.2150384026856,28.35131746012992C1030.1135143256383,25.218690444606924,1031.011990248591,18.629546632596583,1031.9104661715437,18.629546632596583C1032.7799590002076,18.629546632596583,1033.6494518288716,18.637723372251948,1034.5189446575355,18.637723372251948C1035.4174205804882,18.637723372251948,1036.3158965034409,0,1037.2143724263935,0C1038.1128483493462,0,1039.0113242722991,1.1640871277593203,1039.9098001952518,3.4922613832779614C1040.7805006528445,5.748462509929531,1041.651201110437,17.184461932329253,1042.5219015680295,17.184461932329253C1043.4203774909822,17.184461932329253,1044.3188534139351,0,1045.2173293368878,0C1046.0868221655517,0,1046.9563149942155,0,1047.8258078228794,0C1048.724283745832,0,1049.622759668785,3.35133302552143,1050.5212355917376,3.35133302552143C1051.4197115146903,3.35133302552143,1052.318187437643,2.2457222784436905,1053.2166633605957,1.1401115313659504" stroke="#DB4437" class="chart-line-curves-curve" style="font-family: &quot;Basis Grotesque&quot;, sans-serif; font-size: 16px; fill: none; opacity: 1; stroke: rgb(219, 68, 55); stroke-width: 2px; color: rgb(51, 51, 51); text-anchor: start"/>

  <rect width="1053.2166633605957" height="500" role="button" class="chart-line-curves-hover-area" style="font-family: &quot;Basis Grotesque&quot;, sans-serif; font-size: 16px; fill: rgba(0, 0, 0, 0); opacity: 0; stroke: none; stroke-width: 1px; color: rgb(51, 51, 51); text-anchor: start"/>
</g>
  <g transform="translate(90.41666793823242, 40)" class="chart-time-line-highlight-circles">
<!----></g>

    <g transform="translate(1143.6333312988281, 40)" class="chart-line-legends">
      <text x="0.5em" y="-18.85988846863405" text-anchor="start" dominant-baseline="middle" fill="#4285F4" style="font-family: &quot;Basis Grotesque&quot;, sans-serif; font-size: 16px; fill: rgb(66, 133, 244); opacity: 1; stroke: none; stroke-width: 1px; color: rgb(51, 51, 51); text-anchor: start">
        100% equities
      </text>
      <text x="0.5em" y="1.1401115313659504" text-anchor="start" dominant-baseline="middle" fill="#DB4437" style="font-family: &quot;Basis Grotesque&quot;, sans-serif; font-size: 16px; fill: rgb(219, 68, 55); opacity: 1; stroke: none; stroke-width: 1px; color: rgb(51, 51, 51); text-anchor: start">
        50/50 equities and bonds
      </text>
  </g>


  
  <g class="y-axis axis" transform="translate(0, 40)">
  
  
    <g class="axis-label" transform="translate(0, 250) rotate(-90)">
  <text class="axis-label-label" x="0" y="0" dominant-baseline="hanging" text-anchor="middle" style="font-family: &quot;Basis Grotesque&quot;, sans-serif; font-size: 14px; fill: rgb(153, 153, 153); opacity: 1; stroke: none; stroke-width: 1px; color: rgb(51, 51, 51); text-anchor: middle">
    
  Drawdown

  </text>
</g>
    <g transform="translate(90.41666793823242, 0)" class="axis-tick-labels">
  <rect width="1" height="10" fill="none" style="font-family: &quot;Basis Grotesque&quot;, sans-serif; font-size: 16px; fill: none; opacity: 1; stroke: none; stroke-width: 1px; color: rgb(51, 51, 51); text-anchor: start"/>
    <text class="axis-tick-label" text-anchor="end" x="-10" y="500" alignment-baseline="middle" style="font-family: &quot;Basis Grotesque&quot;, sans-serif; font-size: 12px; fill: rgb(153, 153, 153); opacity: 1; stroke: none; stroke-width: 1px; color: rgb(51, 51, 51); text-anchor: end">
  
      -55.0%
    
</text>
    <text class="axis-tick-label" text-anchor="end" x="-10" y="454.5454545454545" alignment-baseline="middle" style="font-family: &quot;Basis Grotesque&quot;, sans-serif; font-size: 12px; fill: rgb(153, 153, 153); opacity: 1; stroke: none; stroke-width: 1px; color: rgb(51, 51, 51); text-anchor: end">
  
      -50.0%
    
</text>
    <text class="axis-tick-label" text-anchor="end" x="-10" y="409.09090909090907" alignment-baseline="middle" style="font-family: &quot;Basis Grotesque&quot;, sans-serif; font-size: 12px; fill: rgb(153, 153, 153); opacity: 1; stroke: none; stroke-width: 1px; color: rgb(51, 51, 51); text-anchor: end">
  
      -45.0%
    
</text>
    <text class="axis-tick-label" text-anchor="end" x="-10" y="363.6363636363636" alignment-baseline="middle" style="font-family: &quot;Basis Grotesque&quot;, sans-serif; font-size: 12px; fill: rgb(153, 153, 153); opacity: 1; stroke: none; stroke-width: 1px; color: rgb(51, 51, 51); text-anchor: end">
  
      -40.0%
    
</text>
    <text class="axis-tick-label" text-anchor="end" x="-10" y="318.18181818181813" alignment-baseline="middle" style="font-family: &quot;Basis Grotesque&quot;, sans-serif; font-size: 12px; fill: rgb(153, 153, 153); opacity: 1; stroke: none; stroke-width: 1px; color: rgb(51, 51, 51); text-anchor: end">
  
      -35.0%
    
</text>
    <text class="axis-tick-label" text-anchor="end" x="-10" y="272.7272727272727" alignment-baseline="middle" style="font-family: &quot;Basis Grotesque&quot;, sans-serif; font-size: 12px; fill: rgb(153, 153, 153); opacity: 1; stroke: none; stroke-width: 1px; color: rgb(51, 51, 51); text-anchor: end">
  
      -30.0%
    
</text>
    <text class="axis-tick-label" text-anchor="end" x="-10" y="227.27272727272722" alignment-baseline="middle" style="font-family: &quot;Basis Grotesque&quot;, sans-serif; font-size: 12px; fill: rgb(153, 153, 153); opacity: 1; stroke: none; stroke-width: 1px; color: rgb(51, 51, 51); text-anchor: end">
  
      -25.0%
    
</text>
    <text class="axis-tick-label" text-anchor="end" x="-10" y="181.8181818181818" alignment-baseline="middle" style="font-family: &quot;Basis Grotesque&quot;, sans-serif; font-size: 12px; fill: rgb(153, 153, 153); opacity: 1; stroke: none; stroke-width: 1px; color: rgb(51, 51, 51); text-anchor: end">
  
      -20.0%
    
</text>
    <text class="axis-tick-label" text-anchor="end" x="-10" y="136.36363636363635" alignment-baseline="middle" style="font-family: &quot;Basis Grotesque&quot;, sans-serif; font-size: 12px; fill: rgb(153, 153, 153); opacity: 1; stroke: none; stroke-width: 1px; color: rgb(51, 51, 51); text-anchor: end">
  
      -15.0%
    
</text>
    <text class="axis-tick-label" text-anchor="end" x="-10" y="90.90909090909088" alignment-baseline="middle" style="font-family: &quot;Basis Grotesque&quot;, sans-serif; font-size: 12px; fill: rgb(153, 153, 153); opacity: 1; stroke: none; stroke-width: 1px; color: rgb(51, 51, 51); text-anchor: end">
  
      -10.0%
    
</text>
    <text class="axis-tick-label" text-anchor="end" x="-10" y="45.45454545454547" alignment-baseline="middle" style="font-family: &quot;Basis Grotesque&quot;, sans-serif; font-size: 12px; fill: rgb(153, 153, 153); opacity: 1; stroke: none; stroke-width: 1px; color: rgb(51, 51, 51); text-anchor: end">
  
      -5.0%
    
</text>
    <text class="axis-tick-label" text-anchor="end" x="-10" y="0" alignment-baseline="middle" style="font-family: &quot;Basis Grotesque&quot;, sans-serif; font-size: 12px; fill: rgb(153, 153, 153); opacity: 1; stroke: none; stroke-width: 1px; color: rgb(51, 51, 51); text-anchor: end">
  
      0.0%
    
</text>
</g>
    <g class="axis-minor-tick-lines" transform="translate(90.41666793823242, 0)">
    <line class="axis-minor-tick-line" x1="-6" y1="500" x2="0" y2="500" style="font-family: &quot;Basis Grotesque&quot;, sans-serif; font-size: 16px; fill: rgb(0, 0, 0); opacity: 1; stroke: rgb(221, 221, 221); stroke-width: 1px; color: rgb(51, 51, 51); text-anchor: start"/>
    <line class="axis-minor-tick-line" x1="-6" y1="454.5454545454545" x2="0" y2="454.5454545454545" style="font-family: &quot;Basis Grotesque&quot;, sans-serif; font-size: 16px; fill: rgb(0, 0, 0); opacity: 1; stroke: rgb(221, 221, 221); stroke-width: 1px; color: rgb(51, 51, 51); text-anchor: start"/>
    <line class="axis-minor-tick-line" x1="-6" y1="409.09090909090907" x2="0" y2="409.09090909090907" style="font-family: &quot;Basis Grotesque&quot;, sans-serif; font-size: 16px; fill: rgb(0, 0, 0); opacity: 1; stroke: rgb(221, 221, 221); stroke-width: 1px; color: rgb(51, 51, 51); text-anchor: start"/>
    <line class="axis-minor-tick-line" x1="-6" y1="363.6363636363636" x2="0" y2="363.6363636363636" style="font-family: &quot;Basis Grotesque&quot;, sans-serif; font-size: 16px; fill: rgb(0, 0, 0); opacity: 1; stroke: rgb(221, 221, 221); stroke-width: 1px; color: rgb(51, 51, 51); text-anchor: start"/>
    <line class="axis-minor-tick-line" x1="-6" y1="318.18181818181813" x2="0" y2="318.18181818181813" style="font-family: &quot;Basis Grotesque&quot;, sans-serif; font-size: 16px; fill: rgb(0, 0, 0); opacity: 1; stroke: rgb(221, 221, 221); stroke-width: 1px; color: rgb(51, 51, 51); text-anchor: start"/>
    <line class="axis-minor-tick-line" x1="-6" y1="272.7272727272727" x2="0" y2="272.7272727272727" style="font-family: &quot;Basis Grotesque&quot;, sans-serif; font-size: 16px; fill: rgb(0, 0, 0); opacity: 1; stroke: rgb(221, 221, 221); stroke-width: 1px; color: rgb(51, 51, 51); text-anchor: start"/>
    <line class="axis-minor-tick-line" x1="-6" y1="227.27272727272722" x2="0" y2="227.27272727272722" style="font-family: &quot;Basis Grotesque&quot;, sans-serif; font-size: 16px; fill: rgb(0, 0, 0); opacity: 1; stroke: rgb(221, 221, 221); stroke-width: 1px; color: rgb(51, 51, 51); text-anchor: start"/>
    <line class="axis-minor-tick-line" x1="-6" y1="181.8181818181818" x2="0" y2="181.8181818181818" style="font-family: &quot;Basis Grotesque&quot;, sans-serif; font-size: 16px; fill: rgb(0, 0, 0); opacity: 1; stroke: rgb(221, 221, 221); stroke-width: 1px; color: rgb(51, 51, 51); text-anchor: start"/>
    <line class="axis-minor-tick-line" x1="-6" y1="136.36363636363635" x2="0" y2="136.36363636363635" style="font-family: &quot;Basis Grotesque&quot;, sans-serif; font-size: 16px; fill: rgb(0, 0, 0); opacity: 1; stroke: rgb(221, 221, 221); stroke-width: 1px; color: rgb(51, 51, 51); text-anchor: start"/>
    <line class="axis-minor-tick-line" x1="-6" y1="90.90909090909088" x2="0" y2="90.90909090909088" style="font-family: &quot;Basis Grotesque&quot;, sans-serif; font-size: 16px; fill: rgb(0, 0, 0); opacity: 1; stroke: rgb(221, 221, 221); stroke-width: 1px; color: rgb(51, 51, 51); text-anchor: start"/>
    <line class="axis-minor-tick-line" x1="-6" y1="45.45454545454547" x2="0" y2="45.45454545454547" style="font-family: &quot;Basis Grotesque&quot;, sans-serif; font-size: 16px; fill: rgb(0, 0, 0); opacity: 1; stroke: rgb(221, 221, 221); stroke-width: 1px; color: rgb(51, 51, 51); text-anchor: start"/>
</g>
  

</g>

  <!---->


      

<!---->    
  
</svg>