<svg xmlns="http://www.w3.org/2000/svg" width="257.796" height="132.229" viewBox="0 0 68.208 34.986"><defs><clipPath clipPathUnits="userSpaceOnUse" id="a"><path d="M0 .369h199.88v137.25H0z" clip-rule="evenodd"/></clipPath><clipPath clipPathUnits="userSpaceOnUse" id="b"><path d="M0 .369h199.88v137.25H0z" clip-rule="evenodd"/></clipPath><clipPath clipPathUnits="userSpaceOnUse" id="c"><path d="M0 .369h199.88v137.25H0z" clip-rule="evenodd"/></clipPath><clipPath clipPathUnits="userSpaceOnUse" id="d"><path d="M0 .369h199.88v137.25H0z" clip-rule="evenodd"/></clipPath><clipPath clipPathUnits="userSpaceOnUse" id="e"><path d="M0 .369h199.88v137.25H0z" clip-rule="evenodd"/></clipPath><clipPath clipPathUnits="userSpaceOnUse" id="f"><path d="M0 .369h199.88v137.25H0z" clip-rule="evenodd"/></clipPath><clipPath clipPathUnits="userSpaceOnUse" id="g"><path d="M0 .369h199.88v137.25H0z" clip-rule="evenodd"/></clipPath><clipPath clipPathUnits="userSpaceOnUse" id="h"><path d="M0 .369h199.88v137.25H0z" clip-rule="evenodd"/></clipPath><clipPath clipPathUnits="userSpaceOnUse" id="i"><path d="M0 .369h199.88v137.25H0z" clip-rule="evenodd"/></clipPath><clipPath clipPathUnits="userSpaceOnUse" id="j"><path d="M0 .369h199.88v137.25H0z" clip-rule="evenodd"/></clipPath><clipPath clipPathUnits="userSpaceOnUse" id="k"><path d="M0 .369h199.88v137.25H0z" clip-rule="evenodd"/></clipPath><clipPath clipPathUnits="userSpaceOnUse" id="l"><path d="M0 .369h199.88v137.25H0z" clip-rule="evenodd"/></clipPath><clipPath clipPathUnits="userSpaceOnUse" id="m"><path d="M0 .369h199.88v137.25H0z" clip-rule="evenodd"/></clipPath><clipPath clipPathUnits="userSpaceOnUse" id="n"><path d="M0 .369h199.88v137.25H0z" clip-rule="evenodd"/></clipPath><clipPath clipPathUnits="userSpaceOnUse" id="o"><path d="M0 .369h199.88v137.25H0z" clip-rule="evenodd"/></clipPath><clipPath clipPathUnits="userSpaceOnUse" id="p"><path d="M0 .369h199.88v137.25H0z" clip-rule="evenodd"/></clipPath><clipPath clipPathUnits="userSpaceOnUse" id="q"><path d="M0 .369h199.88v137.25H0z" clip-rule="evenodd"/></clipPath><clipPath clipPathUnits="userSpaceOnUse" id="r"><path d="M0 .369h199.88v137.25H0z" clip-rule="evenodd"/></clipPath><clipPath clipPathUnits="userSpaceOnUse" id="s"><path d="M0 .369h199.88v137.25H0z" clip-rule="evenodd"/></clipPath></defs><path d="M4.147 16.79l1.473-.66 1.452-.526 1.585-.264 1.452.132 1.453-.132 1.452-.395 1.585-.66 1.452-.131 1.453-.528 1.584 1.055 1.453-.132 1.452-.264 1.585-.263 1.453-.264 1.452-.395 1.585-1.056 1.452-.527 1.452-.394 1.585-.397h1.452l1.454-.657 1.584-.397 1.451-.394 1.454-1.451 1.585.133 1.45 1.185 1.454-.921 1.585.527 1.454-.134 1.45-.79 1.585-.527 1.454-.921 1.45.13 1.585-.13 1.454-.397 1.45.263 1.585-.527 1.454-.01 1.426 1.989v11.322H4.147z" fill="#fac090"/><path d="M4.147 16.658L5.62 16l1.452-.527 1.585-.264 1.452.132 1.453-.263 1.452-.264 1.585-.791h1.452l1.453-.66 1.584 1.056 1.453-.264 1.452-.132 1.585-.396 1.453-.263 1.452-.529 1.585-1.054 1.452-.527 1.452-.394 1.585-.527 1.452.13 1.454-.79 1.584-.528 1.451-.527 1.454-1.448h1.585l1.45 1.318 1.454-1.054 1.585.657 1.454-.264 1.45-1.054 1.585-.527 1.454-1.055 1.45.134h1.585l1.454-.527 1.45.263 1.585-.66 1.454-.011 1.426 2.12v1.45l-1.426-1.978h-1.454l-1.585.527-1.45-.263-1.454.397-1.585.13-1.45-.13-1.454.92-1.585.528-1.45.79-1.454.134-1.585-.527-1.454.92-1.45-1.184-1.585-.133-1.454 1.451-1.45.394-1.585.397-1.454.657h-1.452l-1.585.397-1.452.394-1.452.527-1.585 1.056-1.452.395-1.453.264-1.585.263-1.452.264-1.453.132-1.584-1.055-1.453.528-1.452.131-1.585.66-1.452.395-1.453.132-1.452-.132-1.585.264-1.452.527-1.473.647z" fill="#c3d69b"/><path d="M4.147 16.526l1.473-.79 1.452-.66 1.585-.263h1.452l1.453-.132 1.452-.396 1.585-.79 1.452-.132 1.453-.529 1.584 1.056 1.453-.264 1.452-.263 1.585-.264 1.453-.395 1.452-.397 1.585-1.184 1.452-.527 1.452-.398 1.585-.657h1.452l1.454-.79 1.584-.661 1.451-.657 1.454-1.846 1.585.13 1.45 1.318 1.454-1.184 1.585.79 1.454-.263 1.45-1.188 1.585-.79 1.454-1.185 1.45.13 1.585-.13 1.454-.66 1.45.263 1.585-.79 1.454-.141 1.426 2.382v2.24l-1.426-2.11h-1.454l-1.585.661-1.45-.263-1.454.527h-1.585l-1.45-.134-1.454 1.055-1.585.527-1.45 1.054-1.454.264-1.585-.657-1.454 1.054-1.45-1.318h-1.585l-1.454 1.448-1.45.527-1.585.527-1.454.791-1.452-.13-1.585.527-1.452.394-1.452.527-1.585 1.054-1.452.529-1.453.263-1.585.396-1.452.132-1.453.264-1.584-1.055-1.453.659H14.6l-1.585.791-1.452.264-1.453.263-1.452-.132-1.585.264-1.452.527-1.473.647z" fill="#da9694"/><path d="M4.147 12.43l1.473-.253 1.452-.527 1.585-.397 1.452-.394 1.453.394h1.452l1.585-.13h1.452l1.453.13 1.584-.657 1.453-.528 1.452-.527 1.585.13h1.453l1.452-.263 1.585.527 1.452.397 1.452.79 1.585-.79h1.452l1.454-.79 1.584-.528 1.451-.527 1.454-.264 1.585-.133 1.45-.264 1.454-.263 1.585.133 1.454-.263 1.45-.398 1.585-.527 1.454-.263h1.45l1.585-.264 1.454-.264 1.45-.263 1.585-.264 1.454-.393 1.426-.408" fill="none" stroke="#2d4190" stroke-width=".792" stroke-linecap="round" stroke-linejoin="round" stroke-miterlimit="10"/><g clip-path="url(#a)" transform="matrix(.35208 0 0 -.35145 -1.794 48.011)"><text transform="matrix(1 0 0 -1 191 79.444)" style="-inkscape-font-specification:MicrosoftSansSerif" font-weight="400" font-size="7.15" font-family="MicrosoftSansSerif" fill="#7f7f7f"><tspan x="0" y="0">0</tspan></text></g><g clip-path="url(#b)" transform="matrix(.35208 0 0 -.35145 -1.794 48.011)"><text transform="matrix(1 0 0 -1 191 96.744)" style="-inkscape-font-specification:MicrosoftSansSerif" font-weight="400" font-size="7.15" font-family="MicrosoftSansSerif" fill="#7f7f7f"><tspan x="0 3.7504001" y="0">10</tspan></text></g><g clip-path="url(#c)" transform="matrix(.35208 0 0 -.35145 -1.794 48.011)"><text transform="matrix(1 0 0 -1 191 114.04)" style="-inkscape-font-specification:MicrosoftSansSerif" font-weight="400" font-size="7.15" font-family="MicrosoftSansSerif" fill="#7f7f7f"><tspan x="0 3.7504001" y="0">20</tspan></text></g><g clip-path="url(#d)" transform="matrix(.35208 0 0 -.35145 -1.794 48.011)"><text transform="matrix(1 0 0 -1 191 131.32)" style="-inkscape-font-specification:MicrosoftSansSerif" font-weight="400" font-size="7.125" font-family="MicrosoftSansSerif" fill="#7f7f7f"><tspan x="0 3.7505" y="0">30</tspan></text></g><g clip-path="url(#e)" transform="matrix(.35208 0 0 -.35145 -1.794 48.011)"><text transform="matrix(1 0 0 -1 4.625 79.444)" style="-inkscape-font-specification:MicrosoftSansSerif" font-weight="400" font-size="7.15" font-family="MicrosoftSansSerif" fill="#7f7f7f"><tspan x="0" y="0">0</tspan></text></g><g clip-path="url(#f)" transform="matrix(.35208 0 0 -.35145 -1.794 48.011)"><text transform="matrix(1 0 0 -1 4.625 96.744)" style="-inkscape-font-specification:MicrosoftSansSerif" font-weight="400" font-size="7.15" font-family="MicrosoftSansSerif" fill="#7f7f7f"><tspan x="0" y="0">1</tspan></text></g><g clip-path="url(#g)" transform="matrix(.35208 0 0 -.35145 -1.794 48.011)"><text transform="matrix(1 0 0 -1 4.625 114.04)" style="-inkscape-font-specification:MicrosoftSansSerif" font-weight="400" font-size="7.15" font-family="MicrosoftSansSerif" fill="#7f7f7f"><tspan x="0" y="0">2</tspan></text></g><g clip-path="url(#h)" transform="matrix(.35208 0 0 -.35145 -1.794 48.011)"><text transform="matrix(1 0 0 -1 4.625 131.32)" style="-inkscape-font-specification:MicrosoftSansSerif" font-weight="400" font-size="7.125" font-family="MicrosoftSansSerif" fill="#7f7f7f"><tspan x="0" y="0">3</tspan></text></g><g clip-path="url(#i)" transform="matrix(.35208 0 0 -.35145 -1.794 48.011)"><text transform="matrix(1 0 0 -1 8.2 72.719)" style="-inkscape-font-specification:MicrosoftSansSerif" font-weight="400" font-size="7.15" font-family="MicrosoftSansSerif" fill="#7f7f7f"><tspan x="0 3.7751999 9.4165497 13.19175" y="0">1Q09</tspan></text></g><g clip-path="url(#j)" transform="matrix(.35208 0 0 -.35145 -1.794 48.011)"><text transform="matrix(1 0 0 -1 33.75 72.719)" style="-inkscape-font-specification:MicrosoftSansSerif" font-weight="400" font-size="7.15" font-family="MicrosoftSansSerif" fill="#7f7f7f"><tspan x="0 3.7465999 9.3664999 13.1131" y="0">3Q10</tspan></text></g><g clip-path="url(#k)" transform="matrix(.35208 0 0 -.35145 -1.794 48.011)"><text transform="matrix(1 0 0 -1 59.275 72.719)" style="-inkscape-font-specification:MicrosoftSansSerif" font-weight="400" font-size="7.15" font-family="MicrosoftSansSerif" fill="#7f7f7f"><tspan x="0 3.7465999 9.3664999 13.1131" y="0">1Q12</tspan></text></g><g clip-path="url(#l)" transform="matrix(.35208 0 0 -.35145 -1.794 48.011)"><text transform="matrix(1 0 0 -1 84.8 72.719)" style="-inkscape-font-specification:MicrosoftSansSerif" font-weight="400" font-size="7.15" font-family="MicrosoftSansSerif" fill="#7f7f7f"><tspan x="0 3.7465999 9.3664999 13.1131" y="0">3Q13</tspan></text></g><g clip-path="url(#m)" transform="matrix(.35208 0 0 -.35145 -1.794 48.011)"><text transform="matrix(1 0 0 -1 110.32 72.719)" style="-inkscape-font-specification:MicrosoftSansSerif" font-weight="400" font-size="7.15" font-family="MicrosoftSansSerif" fill="#7f7f7f"><tspan x="0 3.7465999 9.3879499 13.13455" y="0">1Q15</tspan></text></g><g clip-path="url(#n)" transform="matrix(.35208 0 0 -.35145 -1.794 48.011)"><text transform="matrix(1 0 0 -1 135.85 72.719)" style="-inkscape-font-specification:MicrosoftSansSerif" font-weight="400" font-size="7.15" font-family="MicrosoftSansSerif" fill="#7f7f7f"><tspan x="0 3.7751999 9.4165497 13.19175" y="0">3Q16</tspan></text></g><g clip-path="url(#o)" transform="matrix(.35208 0 0 -.35145 -1.794 48.011)"><text transform="matrix(1 0 0 -1 161.4 72.719)" style="-inkscape-font-specification:MicrosoftSansSerif" font-weight="400" font-size="7.15" font-family="MicrosoftSansSerif" fill="#7f7f7f"><tspan x="0 3.7465999 9.3664999 13.1131" y="0">1Q18</tspan></text></g><path d="M9.428 25.608h6.734V24.29H9.428z" fill="#da9694" fill-rule="evenodd"/><g clip-path="url(#p)" transform="matrix(.35208 0 0 -.35145 -1.794 48.011)"><text transform="matrix(1 0 0 -1 53.075 63.269)" style="-inkscape-font-specification:MicrosoftSansSerif" font-weight="400" font-size="7.15" font-family="MicrosoftSansSerif" fill="#7f7f7f"><tspan x="0 4.4973502 8.9875498 13.1131" y="0">ETFs</tspan></text></g><path d="M9.428 28.508h6.734V27.19H9.428z" fill="#c3d69b" fill-rule="evenodd"/><g clip-path="url(#q)" transform="matrix(.35208 0 0 -.35145 -1.794 48.011)"><text transform="matrix(1 0 0 -1 53.075 55.019)" style="-inkscape-font-specification:MicrosoftSansSerif" font-weight="400" font-size="7.125" font-family="MicrosoftSansSerif" fill="#7f7f7f"><tspan x="0 4.5029998 8.6212502 11.9985 15.739125 17.2425 20.619749 24.3675 26.262751 28.863375 32.611126 35.988377 39.729 41.232376 43.106251 45.001499 49.8465 53.971874 58.097252 61.837875" y="0">Passive (excl. ETFs)</tspan></text></g><path d="M9.428 31.275h6.734V30.09H9.428z" fill="#fac090" fill-rule="evenodd"/><g clip-path="url(#r)" transform="matrix(.35208 0 0 -.35145 -1.794 48.011)"><text transform="matrix(1 0 0 -1 53.075 46.794)" style="-inkscape-font-specification:MicrosoftSansSerif" font-weight="400" font-size="7.15" font-family="MicrosoftSansSerif" fill="#7f7f7f"><tspan x="0 4.4973502 8.2368002 10.1101 11.6116 15.35105" y="0">Active</tspan></text></g><path d="M9.428 33.648h6.734" fill="none" stroke="#2d4190" stroke-width=".792" stroke-linecap="round" stroke-linejoin="round" stroke-miterlimit="10"/><g clip-path="url(#s)" transform="matrix(.35208 0 0 -.35145 -1.794 48.011)"><text transform="matrix(1 0 0 -1 53.075 38.544)" style="-inkscape-font-specification:MicrosoftSansSerif" font-weight="400" font-size="7.125" font-family="MicrosoftSansSerif" fill="#7f7f7f"><tspan x="0 4.5029998 8.6212502 12.369 14.6205 18.73875 20.634001 24.360374 26.234249 28.129499 32.226376 35.974125 39.351376 43.091999 44.595375 47.972626 52.090874 53.986126 55.838627 59.586376 63.704624 67.452377 70.829628 72.724876 76.821747 80.569504 84.317253 86.212502 91.057503 95.182877 99.678749 103.056 104.95125 107.18137 109.43288 113.55112 116.92838" y="0">Share of passive funds and ETFs (rhs)</tspan></text></g></svg>