<svg xmlns="http://www.w3.org/2000/svg" class="chart-svg" viewBox="0 0 667 444.667"><g class="chart"><g class="x axis" fill="none" font-size="10" font-family="sans-serif" text-anchor="middle"><path class="domain" stroke="#ddd" d="M50.5 395.667v-5.5h597v5.5" color="#333"/><g class="tick"><path stroke="#ddd" color="#333" d="M50.5 389.667v6"/><text fill="#999" y="9" dy=".71em" font-size="12" color="#999" transform="translate(50.5 389.667)">-14%</text></g><g class="tick"><path stroke="#ddd" color="#333" d="M93.143 389.667v6"/><text fill="#999" y="9" dy=".71em" font-size="12" color="#999" transform="translate(93.143 389.667)">-12%</text></g><g class="tick"><path stroke="#ddd" color="#333" d="M135.786 389.667v6"/><text fill="#999" y="9" dy=".71em" font-size="12" color="#999" transform="translate(135.786 389.667)">-10%</text></g><g class="tick"><path stroke="#ddd" color="#333" d="M178.429 389.667v6"/><text fill="#999" y="9" dy=".71em" font-size="12" color="#999" transform="translate(178.429 389.667)">-8%</text></g><g class="tick"><path stroke="#ddd" color="#333" d="M221.071 389.667v6"/><text fill="#999" y="9" dy=".71em" font-size="12" color="#999" transform="translate(221.071 389.667)">-6%</text></g><g class="tick"><path stroke="#ddd" color="#333" d="M263.714 389.667v6"/><text fill="#999" y="9" dy=".71em" font-size="12" color="#999" transform="translate(263.714 389.667)">-4%</text></g><g class="tick"><path stroke="#ddd" color="#333" d="M306.357 389.667v6"/><text fill="#999" y="9" dy=".71em" font-size="12" color="#999" transform="translate(306.357 389.667)">-2%</text></g><g class="tick"><path stroke="#ddd" color="#333" d="M349 389.667V20"/><text fill="#999" y="9" dy=".71em" font-size="12" color="#999" transform="translate(349 389.667)">0%</text></g><g class="tick"><path stroke="#ddd" color="#333" d="M391.643 389.667v6"/><text fill="#999" y="9" dy=".71em" font-size="12" color="#999" transform="translate(391.643 389.667)">2%</text></g><g class="tick"><path stroke="#ddd" color="#333" d="M434.286 389.667v6"/><text fill="#999" y="9" dy=".71em" font-size="12" color="#999" transform="translate(434.286 389.667)">4%</text></g><g class="tick"><path stroke="#ddd" color="#333" d="M476.929 389.667v6"/><text fill="#999" y="9" dy=".71em" font-size="12" color="#999" transform="translate(476.929 389.667)">6%</text></g><g class="tick"><path stroke="#ddd" color="#333" d="M519.571 389.667v6"/><text fill="#999" y="9" dy=".71em" font-size="12" color="#999" transform="translate(519.571 389.667)">8%</text></g><g class="tick"><path stroke="#ddd" color="#333" d="M562.214 389.667v6"/><text fill="#999" y="9" dy=".71em" font-size="12" color="#999" transform="translate(562.214 389.667)">10%</text></g><g class="tick"><path stroke="#ddd" color="#333" d="M604.857 389.667v6"/><text fill="#999" y="9" dy=".71em" font-size="12" color="#999" transform="translate(604.857 389.667)">12%</text></g><g class="tick"><path stroke="#ddd" color="#333" d="M647.5 389.667v6"/><text fill="#999" y="9" dy=".71em" font-size="12" color="#999" transform="translate(647.5 389.667)">14%</text></g></g><g class="y axis" fill="none" font-size="10" font-family="sans-serif" text-anchor="end"><path class="domain" stroke="#ddd" d="M647 390.167H50.5V20.5H647" color="#333"/><g class="tick"><path stroke="#ddd" color="#333" d="M50 390.167h597"/><text fill="#999" x="-10" dy=".32em" font-size="12" color="#999" transform="translate(50 390.167)">0</text></g><g class="tick"><path stroke="#ddd" color="#333" d="M50 359.361h597"/><text fill="#999" x="-10" dy=".32em" font-size="12" color="#999" transform="translate(50 359.361)">5</text></g><g class="tick"><path stroke="#ddd" color="#333" d="M50 328.556h597"/><text fill="#999" x="-10" dy=".32em" font-size="12" color="#999" transform="translate(50 328.556)">10</text></g><g class="tick"><path stroke="#ddd" color="#333" d="M50 297.75h597"/><text fill="#999" x="-10" dy=".32em" font-size="12" color="#999" transform="translate(50 297.75)">15</text></g><g class="tick"><path stroke="#ddd" color="#333" d="M50 266.944h597"/><text fill="#999" x="-10" dy=".32em" font-size="12" color="#999" transform="translate(50 266.944)">20</text></g><g class="tick"><path stroke="#ddd" color="#333" d="M50 236.139h597"/><text fill="#999" x="-10" dy=".32em" font-size="12" color="#999" transform="translate(50 236.139)">25</text></g><g class="tick"><path stroke="#ddd" color="#333" d="M50 205.333h597"/><text fill="#999" x="-10" dy=".32em" font-size="12" color="#999" transform="translate(50 205.333)">30</text></g><g class="tick"><path stroke="#ddd" color="#333" d="M50 174.528h597"/><text fill="#999" x="-10" dy=".32em" font-size="12" color="#999" transform="translate(50 174.528)">35</text></g><g class="tick"><path stroke="#ddd" color="#333" d="M50 143.722h597"/><text fill="#999" x="-10" dy=".32em" font-size="12" color="#999" transform="translate(50 143.722)">40</text></g><g class="tick"><path stroke="#ddd" color="#333" d="M50 112.917h597"/><text fill="#999" x="-10" dy=".32em" font-size="12" color="#999" transform="translate(50 112.917)">45</text></g><g class="tick"><path stroke="#ddd" color="#333" d="M50 82.111h597"/><text fill="#999" x="-10" dy=".32em" font-size="12" color="#999" transform="translate(50 82.111)">50</text></g><g class="tick"><path stroke="#ddd" color="#333" d="M50 51.306h597"/><text fill="#999" x="-10" dy=".32em" font-size="12" color="#999" transform="translate(50 51.306)">55</text></g><g class="tick"><path stroke="#ddd" color="#333" d="M50 20.5h597"/><text fill="#999" x="-10" dy=".32em" font-size="12" color="#999" transform="translate(50 20.5)">60</text></g></g><path class="bar negative" font-family="-apple-system,BlinkMacSystemFont,&quot;Segoe UI&quot;,Roboto,Oxygen-Sans,Ubuntu,Cantarell,&quot;Helvetica Neue&quot;,sans-serif" font-size="16" fill="#e57081" color="#333" d="M93.643 371.183h41.643v18.483H93.643zM136.286 346.539h41.643v43.128h-41.643zM178.929 346.539h41.643v43.128h-41.643zM221.571 321.894h41.643v67.772h-41.643zM264.214 278.767h41.643v110.9h-41.643zM306.857 155.544H348.5v234.122h-41.643z"/><path class="bar positive" font-family="-apple-system,BlinkMacSystemFont,&quot;Segoe UI&quot;,Roboto,Oxygen-Sans,Ubuntu,Cantarell,&quot;Helvetica Neue&quot;,sans-serif" font-size="16" fill="#69b3a2" color="#333" d="M349.5 20h41.643v369.667H349.5zM392.143 100.094h41.643v289.572h-41.643zM434.786 266.444h41.643v123.222h-41.643zM477.429 309.572h41.643v80.094h-41.643zM520.071 383.506h41.643v6.16h-41.643zM562.714 383.506h41.643v6.16h-41.643z"/></g><text dy="-1em" class="axis-label x" x="348.5" y="444.667" font-family="-apple-system,BlinkMacSystemFont,&quot;Segoe UI&quot;,Roboto,Oxygen-Sans,Ubuntu,Cantarell,&quot;Helvetica Neue&quot;,sans-serif" font-size="14" fill="#999" color="#333" text-anchor="middle">Monthly return</text><text transform="rotate(-90)" dy="1em" class="axis-label y" x="-184.833" font-family="-apple-system,BlinkMacSystemFont,&quot;Segoe UI&quot;,Roboto,Oxygen-Sans,Ubuntu,Cantarell,&quot;Helvetica Neue&quot;,sans-serif" font-size="14" fill="#999" color="#333" text-anchor="middle">Number of months</text></svg>