<svg xmlns="http://www.w3.org/2000/svg" class="chart-svg" viewBox="0 0 667 444.667"><g class="chart"><g class="x axis" fill="none" font-size="10" font-family="sans-serif" text-anchor="middle"><path class="domain" stroke="#ddd" d="M50.5 395.667v-5.5h597v5.5" color="#333"/><g class="tick"><path stroke="#ddd" color="#333" d="M50.5 389.667v6"/><text fill="#999" y="9" dy=".71em" font-size="12" color="#999" transform="translate(50.5 389.667)">-14%</text></g><g class="tick"><path stroke="#ddd" color="#333" d="M93.143 389.667v6"/><text fill="#999" y="9" dy=".71em" font-size="12" color="#999" transform="translate(93.143 389.667)">-12%</text></g><g class="tick"><path stroke="#ddd" color="#333" d="M135.786 389.667v6"/><text fill="#999" y="9" dy=".71em" font-size="12" color="#999" transform="translate(135.786 389.667)">-10%</text></g><g class="tick"><path stroke="#ddd" color="#333" d="M178.429 389.667v6"/><text fill="#999" y="9" dy=".71em" font-size="12" color="#999" transform="translate(178.429 389.667)">-8%</text></g><g class="tick"><path stroke="#ddd" color="#333" d="M221.071 389.667v6"/><text fill="#999" y="9" dy=".71em" font-size="12" color="#999" transform="translate(221.071 389.667)">-6%</text></g><g class="tick"><path stroke="#ddd" color="#333" d="M263.714 389.667v6"/><text fill="#999" y="9" dy=".71em" font-size="12" color="#999" transform="translate(263.714 389.667)">-4%</text></g><g class="tick"><path stroke="#ddd" color="#333" d="M306.357 389.667v6"/><text fill="#999" y="9" dy=".71em" font-size="12" color="#999" transform="translate(306.357 389.667)">-2%</text></g><g class="tick"><path stroke="#ddd" color="#333" d="M349 389.667V20"/><text fill="#999" y="9" dy=".71em" font-size="12" color="#999" transform="translate(349 389.667)">0%</text></g><g class="tick"><path stroke="#ddd" color="#333" d="M391.643 389.667v6"/><text fill="#999" y="9" dy=".71em" font-size="12" color="#999" transform="translate(391.643 389.667)">2%</text></g><g class="tick"><path stroke="#ddd" color="#333" d="M434.286 389.667v6"/><text fill="#999" y="9" dy=".71em" font-size="12" color="#999" transform="translate(434.286 389.667)">4%</text></g><g class="tick"><path stroke="#ddd" color="#333" d="M476.929 389.667v6"/><text fill="#999" y="9" dy=".71em" font-size="12" color="#999" transform="translate(476.929 389.667)">6%</text></g><g class="tick"><path stroke="#ddd" color="#333" d="M519.571 389.667v6"/><text fill="#999" y="9" dy=".71em" font-size="12" color="#999" transform="translate(519.571 389.667)">8%</text></g><g class="tick"><path stroke="#ddd" color="#333" d="M562.214 389.667v6"/><text fill="#999" y="9" dy=".71em" font-size="12" color="#999" transform="translate(562.214 389.667)">10%</text></g><g class="tick"><path stroke="#ddd" color="#333" d="M604.857 389.667v6"/><text fill="#999" y="9" dy=".71em" font-size="12" color="#999" transform="translate(604.857 389.667)">12%</text></g><g class="tick"><path stroke="#ddd" color="#333" d="M647.5 389.667v6"/><text fill="#999" y="9" dy=".71em" font-size="12" color="#999" transform="translate(647.5 389.667)">14%</text></g></g><g class="y axis" fill="none" font-size="10" font-family="sans-serif" text-anchor="end"><path class="domain" stroke="#ddd" d="M647 390.167H50.5V20.5H647" color="#333"/><g class="tick"><path stroke="#ddd" color="#333" d="M50 390.167h597"/><text fill="#999" x="-10" dy=".32em" font-size="12" color="#999" transform="translate(50 390.167)">0</text></g><g class="tick"><path stroke="#ddd" color="#333" d="M50 363.762h597"/><text fill="#999" x="-10" dy=".32em" font-size="12" color="#999" transform="translate(50 363.762)">5</text></g><g class="tick"><path stroke="#ddd" color="#333" d="M50 337.357h597"/><text fill="#999" x="-10" dy=".32em" font-size="12" color="#999" transform="translate(50 337.357)">10</text></g><g class="tick"><path stroke="#ddd" color="#333" d="M50 310.952h597"/><text fill="#999" x="-10" dy=".32em" font-size="12" color="#999" transform="translate(50 310.952)">15</text></g><g class="tick"><path stroke="#ddd" color="#333" d="M50 284.548h597"/><text fill="#999" x="-10" dy=".32em" font-size="12" color="#999" transform="translate(50 284.548)">20</text></g><g class="tick"><path stroke="#ddd" color="#333" d="M50 258.143h597"/><text fill="#999" x="-10" dy=".32em" font-size="12" color="#999" transform="translate(50 258.143)">25</text></g><g class="tick"><path stroke="#ddd" color="#333" d="M50 231.738h597"/><text fill="#999" x="-10" dy=".32em" font-size="12" color="#999" transform="translate(50 231.738)">30</text></g><g class="tick"><path stroke="#ddd" color="#333" d="M50 205.333h597"/><text fill="#999" x="-10" dy=".32em" font-size="12" color="#999" transform="translate(50 205.333)">35</text></g><g class="tick"><path stroke="#ddd" color="#333" d="M50 178.929h597"/><text fill="#999" x="-10" dy=".32em" font-size="12" color="#999" transform="translate(50 178.929)">40</text></g><g class="tick"><path stroke="#ddd" color="#333" d="M50 152.524h597"/><text fill="#999" x="-10" dy=".32em" font-size="12" color="#999" transform="translate(50 152.524)">45</text></g><g class="tick"><path stroke="#ddd" color="#333" d="M50 126.119h597"/><text fill="#999" x="-10" dy=".32em" font-size="12" color="#999" transform="translate(50 126.119)">50</text></g><g class="tick"><path stroke="#ddd" color="#333" d="M50 99.714h597"/><text fill="#999" x="-10" dy=".32em" font-size="12" color="#999" transform="translate(50 99.714)">55</text></g><g class="tick"><path stroke="#ddd" color="#333" d="M50 73.31h597"/><text fill="#999" x="-10" dy=".32em" font-size="12" color="#999" transform="translate(50 73.31)">60</text></g><g class="tick"><path stroke="#ddd" color="#333" d="M50 46.905h597"/><text fill="#999" x="-10" dy=".32em" font-size="12" color="#999" transform="translate(50 46.905)">65</text></g><g class="tick"><path stroke="#ddd" color="#333" d="M50 20.5h597"/><text fill="#999" x="-10" dy=".32em" font-size="12" color="#999" transform="translate(50 20.5)">70</text></g></g><path class="bar negative" font-family="-apple-system,BlinkMacSystemFont,&quot;Segoe UI&quot;,Roboto,Oxygen-Sans,Ubuntu,Cantarell,&quot;Helvetica Neue&quot;,sans-serif" font-size="16" fill="#e57081" color="#333" d="M93.643 384.386h41.643v5.28H93.643zM136.286 379.105h41.643v10.562h-41.643zM178.929 347.419h41.643v42.248h-41.643zM221.571 331.576h41.643v58.09h-41.643zM264.214 294.61h41.643v95.057h-41.643zM306.857 141.462H348.5v248.205h-41.643z"/><path class="bar positive" font-family="-apple-system,BlinkMacSystemFont,&quot;Segoe UI&quot;,Roboto,Oxygen-Sans,Ubuntu,Cantarell,&quot;Helvetica Neue&quot;,sans-serif" font-size="16" fill="#69b3a2" color="#333" d="M349.5 67.529h41.643v322.138H349.5zM392.143 72.81h41.643v316.857h-41.643zM434.786 321.014h41.643v68.652h-41.643zM477.429 363.262h41.643v26.405h-41.643zM562.714 384.386h41.643v5.28h-41.643z"/></g><text dy="-1em" class="axis-label x" x="348.5" y="444.667" font-family="-apple-system,BlinkMacSystemFont,&quot;Segoe UI&quot;,Roboto,Oxygen-Sans,Ubuntu,Cantarell,&quot;Helvetica Neue&quot;,sans-serif" font-size="14" fill="#999" color="#333" text-anchor="middle">Monthly return</text><text transform="rotate(-90)" dy="1em" class="axis-label y" x="-184.833" font-family="-apple-system,BlinkMacSystemFont,&quot;Segoe UI&quot;,Roboto,Oxygen-Sans,Ubuntu,Cantarell,&quot;Helvetica Neue&quot;,sans-serif" font-size="14" fill="#999" color="#333" text-anchor="middle">Number of months</text></svg>