<svg xmlns="http://www.w3.org/2000/svg" class="chart-svg" viewBox="0 0 667 444.667"><g class="chart"><g class="x axis" fill="none" font-size="10" font-family="sans-serif" text-anchor="middle"><path class="domain" stroke="#ddd" d="M50.5 395.667v-5.5h597v5.5" color="#333"/><g class="tick"><path stroke="#ddd" color="#333" d="M50.5 389.667v6"/><text fill="#999" y="9" dy=".71em" font-size="12" color="#999" transform="translate(50.5 389.667)">-6%</text></g><g class="tick"><path stroke="#ddd" color="#333" d="M150 389.667v6"/><text fill="#999" y="9" dy=".71em" font-size="12" color="#999" transform="translate(150 389.667)">-4%</text></g><g class="tick"><path stroke="#ddd" color="#333" d="M249.5 389.667v6"/><text fill="#999" y="9" dy=".71em" font-size="12" color="#999" transform="translate(249.5 389.667)">-2%</text></g><g class="tick"><path stroke="#ddd" color="#333" d="M349 389.667V20"/><text fill="#999" y="9" dy=".71em" font-size="12" color="#999" transform="translate(349 389.667)">0%</text></g><g class="tick"><path stroke="#ddd" color="#333" d="M448.5 389.667v6"/><text fill="#999" y="9" dy=".71em" font-size="12" color="#999" transform="translate(448.5 389.667)">2%</text></g><g class="tick"><path stroke="#ddd" color="#333" d="M548 389.667v6"/><text fill="#999" y="9" dy=".71em" font-size="12" color="#999" transform="translate(548 389.667)">4%</text></g><g class="tick"><path stroke="#ddd" color="#333" d="M647.5 389.667v6"/><text fill="#999" y="9" dy=".71em" font-size="12" color="#999" transform="translate(647.5 389.667)">6%</text></g></g><g class="y axis" fill="none" font-size="10" font-family="sans-serif" text-anchor="end"><path class="domain" stroke="#ddd" d="M647 390.167H50.5V20.5H647" color="#333"/><g class="tick"><path stroke="#ddd" color="#333" d="M50 390.167h597"/><text fill="#999" x="-10" dy=".32em" font-size="12" color="#999" transform="translate(50 390.167)">0</text></g><g class="tick"><path stroke="#ddd" color="#333" d="M50 363.762h597"/><text fill="#999" x="-10" dy=".32em" font-size="12" color="#999" transform="translate(50 363.762)">10</text></g><g class="tick"><path stroke="#ddd" color="#333" d="M50 337.357h597"/><text fill="#999" x="-10" dy=".32em" font-size="12" color="#999" transform="translate(50 337.357)">20</text></g><g class="tick"><path stroke="#ddd" color="#333" d="M50 310.952h597"/><text fill="#999" x="-10" dy=".32em" font-size="12" color="#999" transform="translate(50 310.952)">30</text></g><g class="tick"><path stroke="#ddd" color="#333" d="M50 284.548h597"/><text fill="#999" x="-10" dy=".32em" font-size="12" color="#999" transform="translate(50 284.548)">40</text></g><g class="tick"><path stroke="#ddd" color="#333" d="M50 258.143h597"/><text fill="#999" x="-10" dy=".32em" font-size="12" color="#999" transform="translate(50 258.143)">50</text></g><g class="tick"><path stroke="#ddd" color="#333" d="M50 231.738h597"/><text fill="#999" x="-10" dy=".32em" font-size="12" color="#999" transform="translate(50 231.738)">60</text></g><g class="tick"><path stroke="#ddd" color="#333" d="M50 205.333h597"/><text fill="#999" x="-10" dy=".32em" font-size="12" color="#999" transform="translate(50 205.333)">70</text></g><g class="tick"><path stroke="#ddd" color="#333" d="M50 178.929h597"/><text fill="#999" x="-10" dy=".32em" font-size="12" color="#999" transform="translate(50 178.929)">80</text></g><g class="tick"><path stroke="#ddd" color="#333" d="M50 152.524h597"/><text fill="#999" x="-10" dy=".32em" font-size="12" color="#999" transform="translate(50 152.524)">90</text></g><g class="tick"><path stroke="#ddd" color="#333" d="M50 126.119h597"/><text fill="#999" x="-10" dy=".32em" font-size="12" color="#999" transform="translate(50 126.119)">100</text></g><g class="tick"><path stroke="#ddd" color="#333" d="M50 99.714h597"/><text fill="#999" x="-10" dy=".32em" font-size="12" color="#999" transform="translate(50 99.714)">110</text></g><g class="tick"><path stroke="#ddd" color="#333" d="M50 73.31h597"/><text fill="#999" x="-10" dy=".32em" font-size="12" color="#999" transform="translate(50 73.31)">120</text></g><g class="tick"><path stroke="#ddd" color="#333" d="M50 46.905h597"/><text fill="#999" x="-10" dy=".32em" font-size="12" color="#999" transform="translate(50 46.905)">130</text></g><g class="tick"><path stroke="#ddd" color="#333" d="M50 20.5h597"/><text fill="#999" x="-10" dy=".32em" font-size="12" color="#999" transform="translate(50 20.5)">140</text></g></g><path class="bar negative" font-family="-apple-system,BlinkMacSystemFont,&quot;Segoe UI&quot;,Roboto,Oxygen-Sans,Ubuntu,Cantarell,&quot;Helvetica Neue&quot;,sans-serif" font-size="16" fill="#e57081" color="#333" d="M250 173.148h98.5v216.519H250z"/><path class="bar positive" font-family="-apple-system,BlinkMacSystemFont,&quot;Segoe UI&quot;,Roboto,Oxygen-Sans,Ubuntu,Cantarell,&quot;Helvetica Neue&quot;,sans-serif" font-size="16" fill="#69b3a2" color="#333" d="M349.5 25.281H448v364.386h-98.5zM449 373.824h98.5v15.843H449z"/></g><text dy="-1em" class="axis-label x" x="348.5" y="444.667" font-family="-apple-system,BlinkMacSystemFont,&quot;Segoe UI&quot;,Roboto,Oxygen-Sans,Ubuntu,Cantarell,&quot;Helvetica Neue&quot;,sans-serif" font-size="14" fill="#999" color="#333" text-anchor="middle">Monthly return</text><text transform="rotate(-90)" dy="1em" class="axis-label y" x="-184.833" font-family="-apple-system,BlinkMacSystemFont,&quot;Segoe UI&quot;,Roboto,Oxygen-Sans,Ubuntu,Cantarell,&quot;Helvetica Neue&quot;,sans-serif" font-size="14" fill="#999" color="#333" text-anchor="middle">Number of months</text></svg>