<svg xmlns="http://www.w3.org/2000/svg" class="chart-new-svg" viewBox="0 0 1024 565.889"><g class="x-axis axis"><g class="axis-tick-labels"><text class="axis-tick-label" text-anchor="middle" x="38.562" dy="1em" font-family="-apple-system,BlinkMacSystemFont,&quot;Segoe UI&quot;,Roboto,Oxygen-Sans,Ubuntu,Cantarell,&quot;Helvetica Neue&quot;,sans-serif" font-size="12" fill="#999" color="#333" transform="translate(53.55 517.889)">2002</text><text class="axis-tick-label" text-anchor="middle" x="115.474" dy="1em" font-family="-apple-system,BlinkMacSystemFont,&quot;Segoe UI&quot;,Roboto,Oxygen-Sans,Ubuntu,Cantarell,&quot;Helvetica Neue&quot;,sans-serif" font-size="12" fill="#999" color="#333" transform="translate(53.55 517.889)">2004</text><text class="axis-tick-label" text-anchor="middle" x="192.492" dy="1em" font-family="-apple-system,BlinkMacSystemFont,&quot;Segoe UI&quot;,Roboto,Oxygen-Sans,Ubuntu,Cantarell,&quot;Helvetica Neue&quot;,sans-serif" font-size="12" fill="#999" color="#333" transform="translate(53.55 517.889)">2006</text><text class="axis-tick-label" text-anchor="middle" x="269.404" dy="1em" font-family="-apple-system,BlinkMacSystemFont,&quot;Segoe UI&quot;,Roboto,Oxygen-Sans,Ubuntu,Cantarell,&quot;Helvetica Neue&quot;,sans-serif" font-size="12" fill="#999" color="#333" transform="translate(53.55 517.889)">2008</text><text class="axis-tick-label" text-anchor="middle" x="346.422" dy="1em" font-family="-apple-system,BlinkMacSystemFont,&quot;Segoe UI&quot;,Roboto,Oxygen-Sans,Ubuntu,Cantarell,&quot;Helvetica Neue&quot;,sans-serif" font-size="12" fill="#999" color="#333" transform="translate(53.55 517.889)">2010</text><text class="axis-tick-label" text-anchor="middle" x="423.334" dy="1em" font-family="-apple-system,BlinkMacSystemFont,&quot;Segoe UI&quot;,Roboto,Oxygen-Sans,Ubuntu,Cantarell,&quot;Helvetica Neue&quot;,sans-serif" font-size="12" fill="#999" color="#333" transform="translate(53.55 517.889)">2012</text><text class="axis-tick-label" text-anchor="middle" x="500.352" dy="1em" font-family="-apple-system,BlinkMacSystemFont,&quot;Segoe UI&quot;,Roboto,Oxygen-Sans,Ubuntu,Cantarell,&quot;Helvetica Neue&quot;,sans-serif" font-size="12" fill="#999" color="#333" transform="translate(53.55 517.889)">2014</text><text class="axis-tick-label" text-anchor="middle" x="577.264" dy="1em" font-family="-apple-system,BlinkMacSystemFont,&quot;Segoe UI&quot;,Roboto,Oxygen-Sans,Ubuntu,Cantarell,&quot;Helvetica Neue&quot;,sans-serif" font-size="12" fill="#999" color="#333" transform="translate(53.55 517.889)">2016</text><text class="axis-tick-label" text-anchor="middle" x="654.282" dy="1em" font-family="-apple-system,BlinkMacSystemFont,&quot;Segoe UI&quot;,Roboto,Oxygen-Sans,Ubuntu,Cantarell,&quot;Helvetica Neue&quot;,sans-serif" font-size="12" fill="#999" color="#333" transform="translate(53.55 517.889)">2018</text><text class="axis-tick-label" text-anchor="middle" x="731.195" dy="1em" font-family="-apple-system,BlinkMacSystemFont,&quot;Segoe UI&quot;,Roboto,Oxygen-Sans,Ubuntu,Cantarell,&quot;Helvetica Neue&quot;,sans-serif" font-size="12" fill="#999" color="#333" transform="translate(53.55 517.889)">2020</text></g><g class="axis-tick-lines"><path class="axis-tick-line" font-family="-apple-system,BlinkMacSystemFont,&quot;Segoe UI&quot;,Roboto,Oxygen-Sans,Ubuntu,Cantarell,&quot;Helvetica Neue&quot;,sans-serif" font-size="16" stroke="#ddd" color="#333" d="M92.112 12v495.889M169.024 12v495.889M246.042 12v495.889M322.954 12v495.889M399.972 12v495.889M476.884 12v495.889M553.902 12v495.889M630.814 12v495.889M707.832 12v495.889M784.745 12v495.889"/></g><text class="axis-label" x="371.917" y="41" dy="1em" text-anchor="middle" font-family="-apple-system,BlinkMacSystemFont,&quot;Segoe UI&quot;,Roboto,Oxygen-Sans,Ubuntu,Cantarell,&quot;Helvetica Neue&quot;,sans-serif" font-size="14" fill="#999" color="#333" transform="translate(53.55 507.889)">Time</text></g><g class="y-axis axis"><path font-family="-apple-system,BlinkMacSystemFont,&quot;Segoe UI&quot;,Roboto,Oxygen-Sans,Ubuntu,Cantarell,&quot;Helvetica Neue&quot;,sans-serif" font-size="16" stroke="#ddd" color="#333" d="M53.55 12v495.889M797.383 12v495.889"/><g class="axis-tick-labels"><text class="axis-tick-label" text-anchor="end" alignment-baseline="middle" x="-10" y="495.889" font-family="-apple-system,BlinkMacSystemFont,&quot;Segoe UI&quot;,Roboto,Oxygen-Sans,Ubuntu,Cantarell,&quot;Helvetica Neue&quot;,sans-serif" font-size="12" fill="#999" color="#333" transform="translate(53.55 12)">€0</text><text class="axis-tick-label" text-anchor="end" alignment-baseline="middle" x="-10" y="446.3" font-family="-apple-system,BlinkMacSystemFont,&quot;Segoe UI&quot;,Roboto,Oxygen-Sans,Ubuntu,Cantarell,&quot;Helvetica Neue&quot;,sans-serif" font-size="12" fill="#999" color="#333" transform="translate(53.55 12)">€5,000</text><text class="axis-tick-label" text-anchor="end" alignment-baseline="middle" x="-10" y="396.711" font-family="-apple-system,BlinkMacSystemFont,&quot;Segoe UI&quot;,Roboto,Oxygen-Sans,Ubuntu,Cantarell,&quot;Helvetica Neue&quot;,sans-serif" font-size="12" fill="#999" color="#333" transform="translate(53.55 12)">€10,000</text><text class="axis-tick-label" text-anchor="end" alignment-baseline="middle" x="-10" y="347.122" font-family="-apple-system,BlinkMacSystemFont,&quot;Segoe UI&quot;,Roboto,Oxygen-Sans,Ubuntu,Cantarell,&quot;Helvetica Neue&quot;,sans-serif" font-size="12" fill="#999" color="#333" transform="translate(53.55 12)">€15,000</text><text class="axis-tick-label" text-anchor="end" alignment-baseline="middle" x="-10" y="297.533" font-family="-apple-system,BlinkMacSystemFont,&quot;Segoe UI&quot;,Roboto,Oxygen-Sans,Ubuntu,Cantarell,&quot;Helvetica Neue&quot;,sans-serif" font-size="12" fill="#999" color="#333" transform="translate(53.55 12)">€20,000</text><text class="axis-tick-label" text-anchor="end" alignment-baseline="middle" x="-10" y="247.944" font-family="-apple-system,BlinkMacSystemFont,&quot;Segoe UI&quot;,Roboto,Oxygen-Sans,Ubuntu,Cantarell,&quot;Helvetica Neue&quot;,sans-serif" font-size="12" fill="#999" color="#333" transform="translate(53.55 12)">€25,000</text><text class="axis-tick-label" text-anchor="end" alignment-baseline="middle" x="-10" y="198.356" font-family="-apple-system,BlinkMacSystemFont,&quot;Segoe UI&quot;,Roboto,Oxygen-Sans,Ubuntu,Cantarell,&quot;Helvetica Neue&quot;,sans-serif" font-size="12" fill="#999" color="#333" transform="translate(53.55 12)">€30,000</text><text class="axis-tick-label" text-anchor="end" alignment-baseline="middle" x="-10" y="148.767" font-family="-apple-system,BlinkMacSystemFont,&quot;Segoe UI&quot;,Roboto,Oxygen-Sans,Ubuntu,Cantarell,&quot;Helvetica Neue&quot;,sans-serif" font-size="12" fill="#999" color="#333" transform="translate(53.55 12)">€35,000</text><text class="axis-tick-label" text-anchor="end" alignment-baseline="middle" x="-10" y="99.178" font-family="-apple-system,BlinkMacSystemFont,&quot;Segoe UI&quot;,Roboto,Oxygen-Sans,Ubuntu,Cantarell,&quot;Helvetica Neue&quot;,sans-serif" font-size="12" fill="#999" color="#333" transform="translate(53.55 12)">€40,000</text><text class="axis-tick-label" text-anchor="end" alignment-baseline="middle" x="-10" y="49.589" font-family="-apple-system,BlinkMacSystemFont,&quot;Segoe UI&quot;,Roboto,Oxygen-Sans,Ubuntu,Cantarell,&quot;Helvetica Neue&quot;,sans-serif" font-size="12" fill="#999" color="#333" transform="translate(53.55 12)">€45,000</text><text class="axis-tick-label" text-anchor="end" alignment-baseline="middle" x="-10" font-family="-apple-system,BlinkMacSystemFont,&quot;Segoe UI&quot;,Roboto,Oxygen-Sans,Ubuntu,Cantarell,&quot;Helvetica Neue&quot;,sans-serif" font-size="12" fill="#999" color="#333" transform="translate(53.55 12)">€50,000</text></g><g class="axis-tick-lines"><path class="axis-tick-line" font-family="-apple-system,BlinkMacSystemFont,&quot;Segoe UI&quot;,Roboto,Oxygen-Sans,Ubuntu,Cantarell,&quot;Helvetica Neue&quot;,sans-serif" font-size="16" stroke="#ddd" color="#333" d="M53.55 507.889h743.833M53.55 458.3h743.833M53.55 408.711h743.833M53.55 359.122h743.833M53.55 309.533h743.833M53.55 259.944h743.833M53.55 210.356h743.833M53.55 160.767h743.833M53.55 111.178h743.833M53.55 61.589h743.833M53.55 12h743.833"/></g></g><g class="data" font-family="-apple-system,BlinkMacSystemFont,&quot;Segoe UI&quot;,Roboto,Oxygen-Sans,Ubuntu,Cantarell,&quot;Helvetica Neue&quot;,sans-serif" font-size="16" fill="none" stroke-width="2" color="#333"><path d="M53.55 408.711c1.089-1.912 2.177-3.823 3.266-3.823.983 0 1.967 1.911 2.95 2.493 1.087.644 2.175 1.02 3.262 1.02 1.054 0 2.107-5.115 3.16-7.355 1.09-2.314 2.178-6.265 3.267-6.265 1.053 0 2.107.082 3.16.246 1.09.17 2.178 5.158 3.267 7.16 1.089 2.001 2.177 1.792 3.266 4.852 1.054 2.96 2.107 12.935 3.16 12.935 1.09 0 2.181-4.364 3.271-6.815 1.054-2.37 2.107-5.742 3.161-7.612 1.089-1.933 2.177-3.662 3.266-3.662s2.178.018 3.266.053c.984.032 1.967 1.067 2.95 1.067 1.09 0 2.178-7.268 3.267-7.268 1.052 0 2.104.731 3.156 1.78 1.089 1.087 2.177 1.958 3.266 4.723 1.054 2.675 2.107 8.083 3.16 11.372 1.09 3.399 2.178 8.037 3.267 8.589 1.089.551 2.177.275 3.266.827 1.054.533 2.107 6.61 3.16 6.61 1.091 0 2.181-.306 3.271-.92 1.054-.592 2.108-3.945 3.161-3.945 1.089 0 2.178 6.081 3.266 8.012 1.09 1.93 2.178 2.821 3.267 3.571.983.678 1.966.76 2.95 1.016 1.087.285 2.174.555 3.261.555 1.054 0 2.108-4.176 3.161-5.605 1.089-1.478 2.178-1.589 3.266-3.026 1.054-1.39 2.107-3.796 3.161-5.376 1.089-1.633 2.177-2.034 3.266-4.218s2.178-8.887 3.266-8.887c1.054 0 2.108 4.326 3.161 4.326 1.09 0 2.18-8.45 3.27-8.45 1.054 0 2.108.977 3.161 1.374 1.09.41 2.178 1.034 3.267 1.034 1.088 0 2.177-4.956 3.266-6.297 1.018-1.255 2.037-.836 3.055-1.883 1.087-1.118 2.175-4.788 3.262-4.788 1.054 0 2.107 1.87 3.16 2.584 1.09.738 2.178 1.745 3.267 1.745 1.053 0 2.107-5.188 3.16-5.188 1.09 0 2.178 4.246 3.267 4.757 1.088.511 2.177.766 3.266.766 1.054 0 2.107-1.08 3.16-1.276 1.09-.202 2.178-.101 3.267-.303 1.055-.196 2.11-2.829 3.165-3.756 1.089-.958 2.177-.925 3.266-1.835 1.089-.911 2.178-2.708 3.266-3.63.984-.831 1.967-1.789 2.95-1.789 1.088 0 2.175.022 3.262.067 1.054.043 2.107 4.62 3.16 4.62 1.09 0 2.178-6.953 3.267-9.623 1.054-2.584 2.107-4.108 3.16-6.24 1.09-2.205 2.178-6.637 3.267-6.78 1.089-.143 2.177-.072 3.266-.215 1.054-.139 2.107-5.36 3.16-5.36 1.091 0 2.181 4.552 3.271 4.552 1.054 0 2.108-6.383 3.161-8.775 1.089-2.472 2.178-3.552 3.266-5.709 1.09-2.157 2.178-5.765 3.266-7.233.984-1.327 1.967-1.01 2.95-1.99 1.088-1.083 2.175-4.408 3.262-4.408 1.054 0 2.108.505 3.161 1.514 1.089 1.043 2.178 12.874 3.266 13.223 1.054.337 2.107.169 3.161.506 1.089.349 2.177 4.842 3.266 4.842s2.178-2.133 3.266-3.14c1.054-.973 2.108-1.342 3.161-2.81 1.09-1.518 2.18-6.26 3.27-6.26 1.054 0 2.108.728 3.161.728 1.09 0 2.178-1.629 3.267-3.09 1.088-1.462 2.177-5.68 3.266-5.68.983 0 1.966 1.954 2.95 1.954 1.087 0 2.174-2.027 3.262-2.815 1.053-.764 2.107-.622 3.16-1.867 1.089-1.286 2.178-6.371 3.266-6.371 1.054 0 2.108.66 3.161 1.98 1.089 1.364 2.178 6.098 3.266 8.25 1.09 2.153 2.178 3.532 3.267 4.665 1.053 1.098 2.107 2.109 3.16 2.109 1.09 0 2.18-4.7 3.27-4.7 1.054 0 2.108 14.13 3.162 15.586 1.088 1.504 2.177.752 3.266 2.256 1.088 1.504 2.177 11.813 3.266 12.898 1.018 1.015 2.037.507 3.055 1.522 1.088 1.083 2.175 6.57 3.262 6.57 1.054 0 2.107-5.317 3.16-7.38 1.09-2.133 2.178-5.126 3.267-5.126 1.054 0 2.107 12.439 3.16 13.089 1.09.672 2.178 1.008 3.267 1.008s2.177-7.279 3.266-7.279c1.054 0 2.107 9.088 3.16 13.888 1.091 4.967 2.181 11.453 3.271 15.45 1.054 3.863 2.108 6.568 3.161 8.358 1.089 1.85 2.178 2.774 3.266 2.774 1.089 0 2.178-.28 3.266-.28.984 0 1.967 8.3 2.95 8.3 1.088 0 2.175-.794 3.262-2.38 1.054-1.537 2.107-12.719 3.161-14.259 1.089-1.591 2.177-1.834 3.266-2.387 1.054-.536 2.107-.308 3.161-.924 1.089-.637 2.177-6.517 3.266-8.96 1.089-2.441 2.178-4.098 3.266-5.693 1.054-1.544 2.107-3.78 3.161-3.78 1.09 0 2.18 5.958 3.27 5.958 1.054 0 2.108-.332 3.161-.996 1.09-.685 2.178-9.93 3.267-10.503 1.088-.571 2.177-.286 3.266-.857.983-.517 1.966-3.952 2.95-6.76 1.087-3.105 2.174-8.18 3.261-11.35 1.054-3.071 2.108-7.49 3.161-7.49 1.089 0 2.178 1.622 3.266 3.297 1.054 1.62 2.108 6.477 3.161 6.477 1.089 0 2.178-2.17 3.266-2.17 1.089 0 2.178 2.837 3.266 2.837 1.054 0 2.108-3.73 3.161-5.167 1.089-1.484 2.178-1.178 3.266-3.535 1.055-2.284 2.11-7.33 3.166-10.817 1.088-3.598 2.177-10.413 3.266-10.413 1.088 0 2.177 2.613 3.266 2.613.983 0 1.967-5.079 2.95-5.079 1.087 0 2.174 1.865 3.262 2.498 1.053.614 2.107 1.28 3.16 1.28 1.09 0 2.178-2.108 3.267-2.108 1.053 0 2.107 3.459 3.16 4.482 1.09 1.057 2.178.555 3.267 1.665 1.088 1.11 2.177 11.833 3.266 15.72 1.053 3.76 2.107 7.478 3.16 7.478 1.09 0 2.18-9.286 3.271-11.28 1.054-1.926 2.107-1.679 3.16-2.889 1.09-1.25 2.178-2.263 3.267-4.542s2.177-6.874 3.266-9.131c1.019-2.112 2.037-3.092 3.055-4.27 1.088-1.257 2.175-2.456 3.262-2.932 1.054-.461 2.107-.692 3.161-.692 1.089 0 2.177 5.213 3.266 5.213 1.054 0 2.107-2.403 3.16-3.695 1.09-1.335 2.178-3.426 3.267-4.2 1.089-.772 2.178-.65 3.266-1.159 1.054-.491 2.107-1.815 3.161-1.815 1.09 0 2.18 1.928 3.27 1.928 1.054 0 2.108-1.173 3.161-1.98 1.089-.836 2.178-1.524 3.266-2.98 1.09-1.455 2.178-3.313 3.267-5.753.983-2.204 1.966-4.748 2.95-7.89 1.088-3.478 2.177-12.319 3.266-12.319 1.052 0 2.104 1.718 3.156 1.718 1.089 0 2.178-3.372 3.266-3.372 1.054 0 2.108 5.731 3.161 5.731 1.089 0 2.178-10.257 3.266-10.257 1.089 0 2.178 3.52 3.266 3.52 1.054 0 2.108-7.912 3.161-10.42 1.09-2.595 2.18-3.078 3.27-4.686 1.054-1.553 2.108-3.577 3.162-4.788 1.088-1.252 2.177-2.272 3.266-2.522 1.088-.25 2.177-.125 3.266-.374.983-.226 1.967-7.235 2.95-7.235 1.087 0 2.174.177 3.262.532 1.053.344 2.107 5.122 3.16 5.122 1.09 0 2.178-4.449 3.267-7.177 1.053-2.64 2.107-8.864 3.16-8.864 1.09 0 2.178 5.176 3.266 5.176 1.09 0 2.178-11.577 3.267-11.577 1.053 0 2.107 2.704 3.16 2.704 1.09 0 2.18-4.403 3.27-5.713 1.055-1.267 2.108-.712 3.162-2.135 1.088-1.47 2.177-5.158 3.266-9.227 1.089-4.07 2.177-8.919 3.266-15.187.983-5.661 1.967-14.325 2.95-19.935 1.087-6.203 2.175-14.812 3.262-14.812 1.053 0 2.107 10.289 3.16 10.289 1.09 0 2.178-11.934 3.267-11.934 1.053 0 2.107 9.238 3.16 9.238 1.09 0 2.178-5.108 3.267-5.108 1.088 0 2.177 17.859 3.266 23.955 1.053 5.9 2.107 12.392 3.16 12.392 1.09 0 2.181-15.301 3.271-21.778 1.054-6.26 2.107-16.586 3.16-16.586 1.09 0 2.178 10.116 3.267 17.115 1.089 6.998 2.177 24.873 3.266 24.873 1.019 0 2.037-.965 3.056-2.896 1.087-2.061 2.174-7.866 3.261-10.8 1.054-2.842 2.108-3.818 3.161-6.65 1.089-2.925 2.178-10.744 3.266-10.744 1.054 0 2.108 4.381 3.161 4.381 1.089 0 2.178-16.907 3.266-16.922 1.089-.015 2.178-.008 3.266-.023 1.054-.014 2.108-4.214 3.161-4.214 1.09 0 2.18 5.904 3.27 5.904 1.054 0 2.108-17.888 3.161-23.778 1.09-6.086 2.178-11.05 3.267-11.737 1.088-.686 2.177-.343 3.266-1.03.983-.62 1.966-13.362 2.95-13.362 1.087 0 2.174.139 3.262.313 1.053.17 2.107.235 3.16.705 1.09.485 2.178 6.973 3.267 7.21 1.053.23 2.107.115 3.16.344 1.089.237 2.178.889 3.266 1.699 1.09.81 2.178 3.16 3.267 3.16 1.053 0 2.107-10.803 3.16-15.123 1.09-4.47 2.18-10.032 3.27-11.096 1.054-1.028 2.108-1.079 3.162-1.543 1.088-.479 2.177-1.275 3.266-1.275s2.177.397 3.266 1.192c.983.718 1.967 6.349 2.95 8.094 1.087 1.93 2.175 2.894 3.262 2.894 1.053 0 2.107-5.653 3.16-11.34 1.09-5.878 2.178-23.546 3.267-23.741 1.053-.189 2.107-.094 3.16-.283 1.09-.195 2.178-.776 3.267-2.33 1.088-1.553 2.177-12.423 3.266-12.423 1.053 0 2.107 1.071 3.16 3.215 1.09 2.218 2.18 33.499 3.271 33.499 1.054 0 2.107-1.206 3.16-1.206 1.09 0 2.178 39.243 3.267 39.243s2.177-26.445 3.266-35.41c.984-8.097 1.967-14.783 2.95-17.344 1.089-2.836 2.178-1.418 3.266-4.254 1.053-2.74 2.105-13.689 3.157-13.689 1.088 0 2.177 25.255 3.266 25.255 1.054 0 2.107-10.705 3.16-15.002 1.09-4.44 2.178-11.068 3.267-11.068s2.177 10.143 3.266 10.143c1.054 0 2.107-13.609 3.16-14.562 1.09-.986 2.181-.493 3.271-1.479 1.054-.953 2.107-17.697 3.161-21.172 1.089-3.591 2.178-5.387 3.266-5.387 1.089 0 2.178 1.776 3.266 5.328 1.019 3.323 2.037 19.25 3.056 38.842 1.087 20.914 2.174 85.461 3.262 85.461 1.053 0 2.107-23.616 3.16-47.233" stroke="#4285f4"/><path d="M53.55 408.711c1.089-2.203 2.177-4.407 3.266-4.407.983 0 1.967 7.231 2.95 9.615 1.087 2.636 2.175 4.899 3.262 4.899 1.054 0 2.107-5.155 3.16-7.342 1.09-2.26 2.178-5.947 3.267-5.947 1.053 0 2.107.656 3.16 1.969 1.09 1.356 2.178 5.925 3.267 8.571 1.089 2.647 2.177 3.936 3.266 7.308 1.054 3.263 2.107 12.418 3.16 12.418 1.09 0 2.181-4.283 3.271-6.435 1.054-2.08 2.107-4.683 3.161-6.258 1.089-1.628 2.177-3.245 3.266-3.245s2.178.048 3.266.144c.984.086 1.967 2.68 2.95 2.68 1.09 0 2.178-5.042 3.267-5.042 1.052 0 2.104 1.763 3.156 2.867 1.089 1.141 2.177 1.395 3.266 3.899 1.054 2.423 2.107 7.792 3.16 10.654 1.09 2.957 2.178 6.085 3.267 6.662 1.089.578 2.177.289 3.266.866 1.054.559 2.107 5.809 3.16 5.809 1.091 0 2.181-1.117 3.271-2.205 1.054-1.051 2.108-4.142 3.161-4.142 1.089 0 2.178 4.827 3.266 6.357 1.09 1.53 2.178 2.203 3.267 2.821.983.559 1.966.799 2.95.885a37.05 37.05 0 003.261.144c1.054 0 2.108-2.898 3.161-3.838 1.089-.972 2.178-.867 3.266-1.83 1.054-.933 2.107-2.614 3.161-3.791 1.089-1.217 2.177-1.77 3.266-3.374 1.089-1.605 2.178-6.254 3.266-6.254 1.054 0 2.108 3.814 3.161 3.814 1.09 0 2.18-6.34 3.27-6.34 1.054 0 2.108.508 3.161.94 1.09.446 2.178 1.72 3.267 1.72 1.088 0 2.177-3.381 3.266-4.34 1.018-.897 2.037-.725 3.055-1.41 1.087-.73 2.175-2.926 3.262-2.926 1.054 0 2.107.576 3.16.92 1.09.356 2.178 1.188 3.267 1.188 1.053 0 2.107-3.457 3.16-3.457 1.09 0 2.178 3.663 3.267 4.503 1.088.841 2.177 1.262 3.266 1.262 1.054 0 2.107-1.094 3.16-1.15 1.09-.06 2.178-.03 3.267-.089 1.055-.057 2.11-1.661 3.165-2.306 1.089-.664 2.177-.811 3.266-1.596s2.178-2.359 3.266-3.114c.984-.682 1.967-1.353 2.95-1.353 1.088 0 2.175.08 3.262.241 1.054.156 2.107 3.631 3.16 3.631 1.09 0 2.178-5.632 3.267-7.69 1.054-1.99 2.107-2.98 3.16-4.553 1.09-1.625 2.178-5.05 3.267-5.05s2.177.058 3.266.058c1.054 0 2.107-3.852 3.16-3.852 1.091 0 2.181 3.514 3.271 3.514 1.054 0 2.108-5.052 3.161-6.817 1.089-1.823 2.178-2.286 3.266-3.845 1.09-1.558 2.178-4.657 3.266-5.506.984-.766 1.967-.472 2.95-1.149 1.088-.748 2.175-3.32 3.262-3.32 1.054 0 2.108.274 3.161.824 1.089.568 2.178 9.247 3.266 9.438 1.054.184 2.107.092 3.161.277 1.089.19 2.177 4.261 3.266 4.261s2.178-1.308 3.266-2.018c1.054-.688 2.108-1.039 3.161-2.168 1.09-1.169 2.18-4.643 3.27-4.812 1.054-.163 2.108-.081 3.161-.244 1.09-.169 2.178-.734 3.267-1.89 1.088-1.156 2.177-5.046 3.266-5.046.983 0 1.966 1.297 2.95 1.297 1.087 0 2.174-1.617 3.262-2.34 1.053-.7 2.107-.657 3.16-1.94 1.089-1.326 2.178-6.014 3.266-6.014 1.054 0 2.108.319 3.161.956 1.089.66 2.178 3.864 3.266 5.046 1.09 1.181 2.178 2.043 3.267 2.043a11.6 11.6 0 003.16-.447c1.09-.309 2.18-4.518 3.27-4.518 1.054 0 2.108 10.887 3.162 11.697 1.088.836 2.177.418 3.266 1.255 1.088.837 2.177 11.98 3.266 12.163 1.018.17 2.037.085 3.055.255 1.088.181 2.175 5.976 3.262 5.976 1.054 0 2.107-4.976 3.16-7.01 1.09-2.103 2.178-5.34 3.267-5.34 1.054 0 2.107 6.756 3.16 8.355 1.09 1.652 2.178 2.478 3.267 2.478s2.177-4.843 3.266-4.843c1.054 0 2.107 9.708 3.16 14.167 1.091 4.614 2.181 9.642 3.271 12.996 1.054 3.242 2.108 5.416 3.161 6.986 1.089 1.621 2.178 2.434 3.266 2.434 1.089 0 2.178-1.453 3.266-1.453.984 0 1.967 5.214 2.95 5.214 1.088 0 2.175-.542 3.262-1.626 1.054-1.05 2.107-8.557 3.161-9.787 1.089-1.272 2.177-1.421 3.266-1.908 1.054-.47 2.107-.33 3.161-.99 1.089-.684 2.177-4.585 3.266-6.018 1.089-1.433 2.178-1.588 3.266-2.581 1.054-.961 2.107-3.256 3.161-3.256 1.09 0 2.18 3.919 3.27 3.919 1.054 0 2.108-.364 3.161-1.092 1.09-.753 2.178-8.153 3.267-8.269 1.088-.116 2.177-.058 3.266-.174.983-.104 1.966-3.07 2.95-5.258 1.087-2.42 2.174-6.419 3.261-8.856 1.054-2.361 2.108-5.635 3.161-5.635 1.089 0 2.178 1.25 3.266 2.48 1.054 1.191 2.108 4.706 3.161 4.706 1.089 0 2.178-1.47 3.266-1.47 1.089 0 2.178 1.983 3.266 1.983 1.054 0 2.108-3.595 3.161-4.944 1.089-1.394 2.178-1.075 3.266-3.224 1.055-2.083 2.11-7.027 3.166-9.995 1.088-3.063 2.177-8.027 3.266-8.027 1.088 0 2.177 2.524 3.266 2.524.983 0 1.967-4.485 2.95-4.485 1.087 0 2.174.865 3.262 1.132 1.053.258 2.107.464 3.16.464 1.09 0 2.178-1.834 3.267-1.834 1.053 0 2.107 2.852 3.16 3.565 1.09.738 2.178.37 3.267 1.107 1.088.738 2.177 9.195 3.266 12.352 1.053 3.056 2.107 6.47 3.16 6.47 1.09 0 2.18-7.824 3.271-9.477 1.054-1.597 2.107-1.616 3.16-2.396 1.09-.806 2.178-.786 3.267-2.357 1.089-1.572 2.177-5.597 3.266-7.411 1.019-1.697 2.037-2.5 3.055-3.367 1.088-.926 2.175-1.43 3.262-1.906 1.054-.462 2.107-.94 3.161-.94 1.089 0 2.177 4.403 3.266 4.403 1.054 0 2.107-1.454 3.16-2.398 1.09-.976 2.178-2.6 3.267-3.394s2.178-.91 3.266-1.369c1.054-.444 2.107-1.34 3.161-1.34 1.09 0 2.18 2.483 3.27 2.483 1.054 0 2.108-1.1 3.161-1.54 1.089-.455 2.178-.377 3.266-1.128 1.09-.752 2.178-1.995 3.267-3.597.983-1.447 1.966-2.979 2.95-5.327 1.088-2.599 2.177-9.902 3.266-9.902 1.052 0 2.104 2.107 3.156 2.107 1.089 0 2.178-3.87 3.266-3.87 1.054 0 2.108 4.186 3.161 4.186 1.089 0 2.178-8.36 3.266-8.36 1.089 0 2.178 1.42 3.266 1.42 1.054 0 2.108-7.308 3.161-8.827 1.09-1.571 2.18-1.117 3.27-2.357 1.054-1.198 2.108-3.677 3.162-4.869 1.088-1.231 2.177-1.982 3.266-2.313 1.088-.33 2.177-.165 3.266-.496.983-.3 1.967-6.225 2.95-6.225 1.087 0 2.174 1.297 3.262 2.773 1.053 1.43 2.107 5.846 3.16 5.846 1.09 0 2.178-3.142 3.267-5.425 1.053-2.21 2.107-7.964 3.16-7.964 1.09 0 2.178 4.787 3.266 4.787 1.09 0 2.178-9.495 3.267-9.495 1.053 0 2.107 1.361 3.16 1.361 1.09 0 2.18-2.792 3.27-3.85 1.055-1.024 2.108-.895 3.162-2.438 1.088-1.596 2.177-3.97 3.266-7.128 1.089-3.16 2.177-6.63 3.266-11.826.983-4.692 1.967-12.36 2.95-17.145 1.087-5.29 2.175-12.458 3.262-12.458 1.053 0 2.107 8.318 3.16 8.318 1.09 0 2.178-11.196 3.267-11.196 1.053 0 2.107 5.74 3.16 5.74 1.09 0 2.178-5.852 3.267-5.852 1.088 0 2.177 14.992 3.266 20.325 1.053 5.16 2.107 11.431 3.16 11.431 1.09 0 2.181-11.466 3.271-16.77 1.054-5.126 2.107-14.575 3.16-14.575 1.09 0 2.178 6.942 3.267 12.691 1.089 5.75 2.177 21.806 3.266 21.806 1.019 0 2.037-.55 3.056-1.65 1.087-1.174 2.174-5.622 3.261-7.636 1.054-1.952 2.108-2.043 3.161-4.36 1.089-2.393 2.178-9.947 3.266-9.947 1.054 0 2.108 3.503 3.161 3.503 1.089 0 2.178-13.254 3.266-13.254 1.089 0 2.178.71 3.266.71 1.054 0 2.108-3.862 3.161-3.862 1.09 0 2.18 7.303 3.27 7.303 1.054 0 2.108-12.182 3.161-15.873 1.09-3.814 2.178-5.25 3.267-6.317 1.088-1.066 2.177-.533 3.266-1.6.983-.963 1.966-8.996 2.95-10.378 1.087-1.529 2.174-1.724 3.262-2.293 1.053-.552 2.107-1.105 3.16-1.105 1.09 0 2.178 1.853 3.267 2.45 1.053.577 2.107.685 3.16 1.113 1.089.441 2.178 1.077 3.266 1.508 1.09.43 2.178 1.076 3.267 1.076 1.053 0 2.107-7.748 3.16-11.513 1.09-3.895 2.18-10.462 3.27-11.452 1.054-.957 2.108-1.03 3.162-1.435 1.088-.42 2.177-.488 3.266-1.027 1.089-.54 2.177-2.209 3.266-2.209.983 0 1.967 3.385 2.95 4.469 1.087 1.198 2.175 2.107 3.262 2.107 1.053 0 2.107-2.617 3.16-7.414 1.09-4.957 2.178-21.7 3.267-22.32 1.053-.6 2.107-.6 3.16-.9 1.09-.31 2.178-.31 3.267-.93 1.088-.619 2.177-14.837 3.266-14.837 1.053 0 2.107.9 3.16 2.697 1.09 1.861 2.18 31.642 3.271 31.642 1.054 0 2.107-1.155 3.16-1.155 1.09 0 2.178 31.751 3.267 31.751s2.177-20.884 3.266-28.848c.984-7.194 1.967-14.218 2.95-17.538 1.089-3.676 2.178-2.434 3.266-5.514 1.053-2.977 2.105-12.413 3.157-12.413 1.088 0 2.177 19.254 3.266 19.254 1.054 0 2.107-10.318 3.16-14.608 1.09-4.434 2.178-11.446 3.267-11.446s2.177 7.148 3.266 7.148c1.054 0 2.107-5.698 3.16-5.931 1.09-.242 2.181-.12 3.271-.362 1.054-.233 2.107-19.935 3.161-21.732 1.089-1.856 2.178-2.785 3.266-2.785 1.089 0 2.178.024 3.266.073 1.019.045 2.037 14.696 3.056 28.826 1.087 15.084 2.174 60.71 3.262 60.71 1.053 0 2.107-22.692 3.16-45.383" stroke="#db4437"/><path d="M53.55 408.711c1.089-1.778 2.177-3.556 3.266-3.556.983 0 1.967 1.53 2.95 1.532 1.087.003 2.175.005 3.262.005 1.054 0 2.107-3.547 3.16-5.764 1.09-2.291 2.178-7.466 3.267-7.82a10.146 10.146 0 013.16-.516c1.09 0 2.178 4.1 3.267 5.813s2.177 1.796 3.266 4.463c1.054 2.582 2.107 11.06 3.16 11.06 1.09 0 2.181-2.155 3.271-3.8 1.054-1.59 2.107-4.294 3.161-5.833 1.089-1.59 2.177-2.79 3.266-3.472 1.089-.682 2.178-.536 3.266-1.023.984-.439 1.967-.558 2.95-1.674 1.09-1.235 2.178-6.111 3.267-6.23a29.141 29.141 0 013.156-.172c1.089 0 2.177 1.073 3.266 3.218 1.054 2.076 2.107 7.559 3.16 10.64 1.09 3.185 2.178 8.063 3.267 8.063s2.177-.047 3.266-.047c1.054 0 2.107 7.425 3.16 7.425 1.091 0 2.181-.329 3.271-.987 1.054-.636 2.108-4.108 3.161-4.108 1.089 0 2.178 4.318 3.266 6.109 1.09 1.79 2.178 3.8 3.267 4.635.983.754 1.966.825 2.95 1.131 1.087.338 2.174.754 3.261.754 1.054 0 2.108-4.32 3.161-5.681 1.089-1.406 2.178-1.123 3.266-2.51 1.054-1.342 2.107-3.913 3.161-5.57 1.089-1.712 2.177-2.443 3.266-4.497s2.178-7.828 3.266-7.828c1.054 0 2.108 4.618 3.161 4.618 1.09 0 2.18-7.136 3.27-7.136 1.054 0 2.108.442 3.161.523 1.09.083 2.178.124 3.267.124 1.088 0 2.177-4.651 3.266-6.138 1.018-1.391 2.037-1.525 3.055-2.706 1.087-1.26 2.175-4.732 3.262-4.732 1.054 0 2.107 2.155 3.16 2.835 1.09.702 2.178 1.257 3.267 1.257 1.053 0 2.107-5.367 3.16-5.367 1.09 0 2.178 3.105 3.267 3.105 1.088 0 2.177-.4 3.266-.654 1.054-.246 2.107-.842 3.16-.842 1.09 0 2.178.422 3.267.422 1.055 0 2.11-2.811 3.165-3.802 1.089-1.023 2.177-1.16 3.266-2.185 1.089-1.024 2.178-2.934 3.266-3.96.984-.927 1.967-1.6 2.95-2.06 1.088-.509 2.175-.763 3.262-.763 1.054 0 2.107 4.05 3.16 4.05 1.09 0 2.178-7.613 3.267-10.541 1.054-2.834 2.107-4.642 3.16-6.854 1.09-2.285 2.178-6.624 3.267-6.624s2.177.693 3.266.693c1.054 0 2.107-4.652 3.16-4.652 1.091 0 2.181 4.475 3.271 4.475 1.054 0 2.108-6.815 3.161-8.95 1.089-2.205 2.178-2.125 3.266-3.898 1.09-1.773 2.178-4.881 3.266-6.739a26.246 26.246 0 012.95-4.08c1.088-1.248 2.175-2.898 3.262-2.898 1.054 0 2.108.75 3.161 2.247 1.089 1.549 2.178 11.414 3.266 11.414 1.054 0 2.107-1.236 3.161-1.236 1.089 0 2.177 2.234 3.266 2.234s2.178-2.128 3.266-3.348c1.054-1.181 2.108-2.069 3.161-3.836 1.09-1.828 2.18-7.054 3.27-7.054 1.054 0 2.108.27 3.161.27 1.09 0 2.178-2.08 3.267-3.82 1.088-1.74 2.177-6.62 3.266-6.62.983 0 1.966 1.964 2.95 1.964 1.087 0 2.174-1.649 3.262-2.424 1.053-.752 2.107-.721 3.16-2.162 1.089-1.49 2.178-7.24 3.266-7.24 1.054 0 2.108 2.172 3.161 4.717 1.089 2.63 2.178 9.507 3.266 11.01 1.09 1.501 2.178 1.272 3.267 2.252 1.053.948 2.107 3.487 3.16 3.487 1.09 0 2.18-1.223 3.27-1.223 1.054 0 2.108 13.432 3.162 15.445 1.088 2.081 2.177 1.04 3.266 3.121 1.088 2.08 2.177 8.166 3.266 10.583 1.018 2.26 2.037 2.276 3.055 3.866 1.088 1.699 2.175 6.128 3.262 6.128 1.054 0 2.107-5.198 3.16-6.997 1.09-1.86 2.178-3.87 3.267-3.87 1.054 0 2.107 17.401 3.16 17.401 1.09 0 2.178-.412 3.267-1.235 1.089-.824 2.177-9.406 3.266-9.406 1.054 0 2.107 6.67 3.16 11.114 1.091 4.599 2.181 11.98 3.271 16.173 1.054 4.052 2.108 7.045 3.161 8.798 1.089 1.811 2.178 2.001 3.266 2.717 1.089.716 2.178.526 3.266 1.578.984.95 1.967 11.3 2.95 11.3 1.088 0 2.175-1.012 3.262-3.037 1.054-1.962 2.107-16.434 3.161-18.127 1.089-1.75 2.177-2.178 3.266-2.625 1.054-.433 2.107-.217 3.161-.649 1.089-.447 2.177-8.083 3.266-11.526 1.089-3.444 2.178-6.969 3.266-9.135 1.054-2.096 2.107-3.818 3.161-3.818 1.09 0 2.18 7.785 3.27 7.785 1.054 0 2.108-.222 3.161-.665 1.09-.458 2.178-10.587 3.267-11.73 1.088-1.144 2.177-.572 3.266-1.716.983-1.033 1.966-4.477 2.95-7.647 1.087-3.506 2.174-9.167 3.261-12.796 1.054-3.517 2.108-8.758 3.161-8.758 1.089 0 2.178 1.853 3.266 3.855 1.054 1.938 2.108 7.828 3.161 7.828 1.089 0 2.178-2.78 3.266-2.78 1.089 0 2.178 3.546 3.266 3.546 1.054 0 2.108-3.189 3.161-4.47 1.089-1.324 2.178-1.101 3.266-3.304 1.055-2.135 2.11-6.351 3.166-9.921 1.088-3.684 2.177-11.89 3.266-11.89 1.088 0 2.177 2.226 3.266 2.226.983 0 1.967-4.953 2.95-4.953 1.087 0 2.174 2.97 3.262 4.019 1.053 1.016 2.107 2.23 3.16 2.23 1.09 0 2.178-2.1 3.267-2.1 1.053 0 2.107 3.773 3.16 4.953 1.09 1.218 2.178.715 3.267 2.145 1.088 1.43 2.177 13.39 3.266 17.596 1.053 4.071 2.107 7.553 3.16 7.553 1.09 0 2.18-9.669 3.271-11.78 1.054-2.042 2.107-1.472 3.16-3.062 1.09-1.643 2.178-3.978 3.267-6.753 1.089-2.774 2.177-7.423 3.266-9.894 1.019-2.311 2.037-3.364 3.055-4.762 1.088-1.493 2.175-3.674 3.262-3.83a22.302 22.302 0 013.161-.226c1.089 0 2.177 5.411 3.266 5.411 1.054 0 2.107-3.304 3.16-4.85 1.09-1.599 2.178-4.132 3.267-4.57 1.089-.438 2.178-.22 3.266-.657 1.054-.424 2.107-2.153 3.161-2.153 1.09 0 2.18.794 3.27.794 1.054 0 2.108-1.053 3.161-2.238 1.089-1.224 2.178-2.938 3.266-5.08 1.09-2.14 2.178-4.58 3.267-7.764.983-2.875 1.966-6.39 2.95-10.081 1.088-4.086 2.177-13.471 3.266-13.471 1.052 0 2.104.839 3.156.839 1.089 0 2.178-2.02 3.266-2.02 1.054 0 2.108 6.887 3.161 6.887 1.089 0 2.178-11.017 3.266-11.017 1.089 0 2.178 5.97 3.266 5.97 1.054 0 2.108-7.734 3.161-10.692 1.09-3.06 2.18-5.403 3.27-7.236 1.054-1.77 2.108-2.694 3.162-3.69 1.088-1.029 2.177-2.253 3.266-2.335 1.088-.082 2.177-.041 3.266-.123.983-.074 1.967-5.612 2.95-7.298 1.087-1.865 2.174-2.856 3.262-2.856 1.053 0 2.107 3.032 3.16 3.032 1.09 0 2.178-5.504 3.267-8.347 1.053-2.751 2.107-8.426 3.16-8.426 1.09 0 2.178 4.718 3.266 4.718 1.09 0 2.178-12.356 3.267-12.356 1.053 0 2.107 4.151 3.16 4.151 1.09 0 2.18-6.46 3.27-7.334 1.055-.844 2.108-.422 3.162-1.267 1.088-.872 2.177-5.893 3.266-10.5 1.089-4.608 2.177-10.532 3.266-17.144.983-5.972 1.967-14.395 2.95-20.115 1.087-6.326 2.175-15.366 3.262-15.366 1.053 0 2.107 11.163 3.16 11.163 1.09 0 2.178-10.674 3.267-10.674 1.053 0 2.107 12.505 3.16 12.505 1.09 0 2.178-3.077 3.267-3.077 1.088 0 2.177 18.59 3.266 24.628 1.053 5.844 2.107 11.433 3.16 11.433 1.09 0 2.181-17.91 3.271-24.843 1.054-6.702 2.107-16.33 3.16-16.33 1.09 0 2.178 12.741 3.267 20.21 1.089 7.47 2.177 24.603 3.266 24.603 1.019 0 2.037-1.417 3.056-4.13 1.087-2.896 2.174-9.572 3.261-13.259 1.054-3.573 2.108-5.617 3.161-8.653 1.089-3.137 2.178-9.895 3.266-9.895 1.054 0 2.108 4.81 3.161 4.81 1.089 0 2.178-18.27 3.266-18.982 1.089-.71 2.178-.355 3.266-1.066 1.054-.688 2.108-3.927 3.161-3.927 1.09 0 2.18 2.764 3.27 2.764 1.054 0 2.108-22.687 3.161-30.616 1.09-8.193 2.178-17.275 3.267-17.287 1.088-.011 2.177-.005 3.266-.017.983-.01 1.966-15.115 2.95-15.115 1.087 0 2.174 2.786 3.262 3.995 1.053 1.172 2.107 1.057 3.16 3.17 1.09 2.184 2.178 12.686 3.267 12.686 1.053 0 2.107-.851 3.16-.851 1.089 0 2.178.548 3.266 1.644 1.09 1.096 2.178 5.605 3.267 5.605 1.053 0 2.107-13.165 3.16-17.45 1.09-4.434 2.18-7.422 3.27-8.384 1.054-.93 2.108-.939 3.162-1.395 1.088-.473 2.177-1.39 3.266-1.39s2.177 2.577 3.266 5.759c.983 2.874 1.967 9.616 2.95 11.709 1.087 2.314 2.175 3.471 3.262 3.471 1.053 0 2.107-8.874 3.16-14.771 1.09-6.094 2.178-21.398 3.267-21.398 1.053 0 2.107.595 3.16.595 1.09 0 2.178-2.034 3.267-3.823 1.088-1.789 2.177-6.911 3.266-6.911 1.053 0 2.107 1.119 3.16 3.356 1.09 2.315 2.18 30.067 3.271 30.067 1.054 0 2.107-1.06 3.16-1.06 1.09 0 2.178 42.575 3.267 42.575s2.177-29.374 3.266-38.151c.984-7.929 1.967-13.03 2.95-14.144 1.089-1.233 2.178-.617 3.266-1.85 1.053-1.19 2.105-13.06 3.157-13.06 1.088 0 2.177 28.966 3.266 28.966 1.054 0 2.107-9.44 3.16-13.03 1.09-3.71 2.178-8.719 3.267-8.719s2.177 12.396 3.266 12.396c1.054 0 2.107-21.74 3.16-23.482 1.09-1.802 2.181-.9 3.271-2.703 1.054-1.741 2.107-12.78 3.161-16.886 1.089-4.244 2.178-7.857 3.266-7.857 1.089 0 2.178 3.737 3.266 11.21 1.019 6.992 2.037 21.972 3.056 45.41 1.087 25.022 2.174 103.448 3.262 103.448 1.053 0 2.107-20.973 3.16-41.947" stroke="#f4b400"/></g><g class="legends" dominant-baseline="middle" font-family="-apple-system,BlinkMacSystemFont,&quot;Segoe UI&quot;,Roboto,Oxygen-Sans,Ubuntu,Cantarell,&quot;Helvetica Neue&quot;,sans-serif" font-size="16" color="#333"><text x=".5em" y="109.983" fill="#4285f4" transform="translate(797.383 12)">MSCI World Small Cap</text><text x=".5em" y="157.107" fill="#db4437" transform="translate(797.383 12)">MSCI World Small Cap Growth</text><text x=".5em" y="129.983" fill="#f4b400" transform="translate(797.383 12)">MSCI World Small Cap Value</text></g></svg>